<svg xmlns="http://www.w3.org/2000/svg" xmlns:xlink="http://www.w3.org/1999/xlink" version="1.1" class="marks" width="509" height="347" viewBox="0 0 509 347"><rect width="509" height="347" fill="white"/><g fill="none" stroke-miterlimit="10" transform="translate(47,10)"><g class="mark-group role-frame root" role="graphics-object" aria-roledescription="group mark container"><g transform="translate(0,0)"><path class="background" aria-hidden="true" d="M0.5,0.5h400v300h-400Z" stroke="#ddd"/><g><g class="mark-group role-axis" aria-hidden="true"><g transform="translate(0.5,300.5)"><path class="background" aria-hidden="true" d="M0,0h0v0h0Z" pointer-events="none"/><g><g class="mark-rule role-axis-grid" pointer-events="none"><line transform="translate(0,-300)" x2="0" y2="300" stroke="#ddd" stroke-width="1" opacity="1"/><line transform="translate(31,-300)" x2="0" y2="300" stroke="#ddd" stroke-width="1" opacity="1"/><line transform="translate(62,-300)" x2="0" y2="300" stroke="#ddd" stroke-width="1" opacity="1"/><line transform="translate(92,-300)" x2="0" y2="300" stroke="#ddd" stroke-width="1" opacity="1"/><line transform="translate(123,-300)" x2="0" y2="300" stroke="#ddd" stroke-width="1" opacity="1"/><line transform="translate(154,-300)" x2="0" y2="300" stroke="#ddd" stroke-width="1" opacity="1"/><line transform="translate(185,-300)" x2="0" y2="300" stroke="#ddd" stroke-width="1" opacity="1"/><line transform="translate(215,-300)" x2="0" y2="300" stroke="#ddd" stroke-width="1" opacity="1"/><line transform="translate(246,-300)" x2="0" y2="300" stroke="#ddd" stroke-width="1" opacity="1"/><line transform="translate(277,-300)" x2="0" y2="300" stroke="#ddd" stroke-width="1" opacity="1"/><line transform="translate(308,-300)" x2="0" y2="300" stroke="#ddd" stroke-width="1" opacity="1"/><line transform="translate(338,-300)" x2="0" y2="300" stroke="#ddd" stroke-width="1" opacity="1"/><line transform="translate(369,-300)" x2="0" y2="300" stroke="#ddd" stroke-width="1" opacity="1"/><line transform="translate(400,-300)" x2="0" y2="300" stroke="#ddd" stroke-width="1" opacity="1"/></g></g><path class="foreground" aria-hidden="true" d="" pointer-events="none" display="none"/></g></g><g class="mark-group role-axis" aria-hidden="true"><g transform="translate(0.5,0.5)"><path class="background" aria-hidden="true" d="M0,0h0v0h0Z" pointer-events="none"/><g><g class="mark-rule role-axis-grid" pointer-events="none"><line transform="translate(0,300)" x2="400" y2="0" stroke="#ddd" stroke-width="1" opacity="1"/><line transform="translate(0,267)" x2="400" y2="0" stroke="#ddd" stroke-width="1" opacity="1"/><line transform="translate(0,233)" x2="400" y2="0" stroke="#ddd" stroke-width="1" opacity="1"/><line transform="translate(0,200)" x2="400" y2="0" stroke="#ddd" stroke-width="1" opacity="1"/><line transform="translate(0,167)" x2="400" y2="0" stroke="#ddd" stroke-width="1" opacity="1"/><line transform="translate(0,133)" x2="400" y2="0" stroke="#ddd" stroke-width="1" opacity="1"/><line transform="translate(0,100)" x2="400" y2="0" stroke="#ddd" stroke-width="1" opacity="1"/><line transform="translate(0,67)" x2="400" y2="0" stroke="#ddd" stroke-width="1" opacity="1"/><line transform="translate(0,33)" x2="400" y2="0" stroke="#ddd" stroke-width="1" opacity="1"/><line transform="translate(0,0)" x2="400" y2="0" stroke="#ddd" stroke-width="1" opacity="1"/></g></g><path class="foreground" aria-hidden="true" d="" pointer-events="none" display="none"/></g></g><g class="mark-group role-axis" role="graphics-symbol" aria-roledescription="axis" aria-label="X-axis titled 'Anzahl Epochen' for a linear scale with values from 0 to 260"><g transform="translate(0.5,300.5)"><path class="background" aria-hidden="true" d="M0,0h0v0h0Z" pointer-events="none"/><g><g class="mark-rule role-axis-tick" pointer-events="none"><line transform="translate(0,0)" x2="0" y2="5" stroke="#888" stroke-width="1" opacity="1"/><line transform="translate(31,0)" x2="0" y2="5" stroke="#888" stroke-width="1" opacity="1"/><line transform="translate(62,0)" x2="0" y2="5" stroke="#888" stroke-width="1" opacity="1"/><line transform="translate(92,0)" x2="0" y2="5" stroke="#888" stroke-width="1" opacity="1"/><line transform="translate(123,0)" x2="0" y2="5" stroke="#888" stroke-width="1" opacity="1"/><line transform="translate(154,0)" x2="0" y2="5" stroke="#888" stroke-width="1" opacity="1"/><line transform="translate(185,0)" x2="0" y2="5" stroke="#888" stroke-width="1" opacity="1"/><line transform="translate(215,0)" x2="0" y2="5" stroke="#888" stroke-width="1" opacity="1"/><line transform="translate(246,0)" x2="0" y2="5" stroke="#888" stroke-width="1" opacity="1"/><line transform="translate(277,0)" x2="0" y2="5" stroke="#888" stroke-width="1" opacity="1"/><line transform="translate(308,0)" x2="0" y2="5" stroke="#888" stroke-width="1" opacity="1"/><line transform="translate(338,0)" x2="0" y2="5" stroke="#888" stroke-width="1" opacity="1"/><line transform="translate(369,0)" x2="0" y2="5" stroke="#888" stroke-width="1" opacity="1"/><line transform="translate(400,0)" x2="0" y2="5" stroke="#888" stroke-width="1" opacity="1"/></g><g class="mark-text role-axis-label" pointer-events="none"><text text-anchor="start" transform="translate(0,15)" font-family="sans-serif" font-size="10px" fill="#000" opacity="1">0</text><text text-anchor="middle" transform="translate(30.76923076923077,15)" font-family="sans-serif" font-size="10px" fill="#000" opacity="1">20</text><text text-anchor="middle" transform="translate(61.53846153846154,15)" font-family="sans-serif" font-size="10px" fill="#000" opacity="1">40</text><text text-anchor="middle" transform="translate(92.3076923076923,15)" font-family="sans-serif" font-size="10px" fill="#000" opacity="1">60</text><text text-anchor="middle" transform="translate(123.07692307692308,15)" font-family="sans-serif" font-size="10px" fill="#000" opacity="1">80</text><text text-anchor="middle" transform="translate(153.84615384615387,15)" font-family="sans-serif" font-size="10px" fill="#000" opacity="1">100</text><text text-anchor="middle" transform="translate(184.6153846153846,15)" font-family="sans-serif" font-size="10px" fill="#000" opacity="1">120</text><text text-anchor="middle" transform="translate(215.3846153846154,15)" font-family="sans-serif" font-size="10px" fill="#000" opacity="1">140</text><text text-anchor="middle" transform="translate(246.15384615384616,15)" font-family="sans-serif" font-size="10px" fill="#000" opacity="1">160</text><text text-anchor="middle" transform="translate(276.9230769230769,15)" font-family="sans-serif" font-size="10px" fill="#000" opacity="1">180</text><text text-anchor="middle" transform="translate(307.69230769230774,15)" font-family="sans-serif" font-size="10px" fill="#000" opacity="1">200</text><text text-anchor="middle" transform="translate(338.46153846153845,15)" font-family="sans-serif" font-size="10px" fill="#000" opacity="1">220</text><text text-anchor="middle" transform="translate(369.2307692307692,15)" font-family="sans-serif" font-size="10px" fill="#000" opacity="1">240</text><text text-anchor="end" transform="translate(400,15)" font-family="sans-serif" font-size="10px" fill="#000" opacity="1">260</text></g><g class="mark-rule role-axis-domain" pointer-events="none"><line transform="translate(0,0)" x2="400" y2="0" stroke="#888" stroke-width="1" opacity="1"/></g><g class="mark-text role-axis-title" pointer-events="none"><text text-anchor="middle" transform="translate(200,30)" font-family="sans-serif" font-size="11px" font-weight="bold" fill="#000" opacity="1">Anzahl Epochen</text></g></g><path class="foreground" aria-hidden="true" d="" pointer-events="none" display="none"/></g></g><g class="mark-group role-axis" role="graphics-symbol" aria-roledescription="axis" aria-label="Y-axis titled 'Mittlerer Fehler' for a linear scale with values from 0.00 to 0.09"><g transform="translate(0.5,0.5)"><path class="background" aria-hidden="true" d="M0,0h0v0h0Z" pointer-events="none"/><g><g class="mark-rule role-axis-tick" pointer-events="none"><line transform="translate(0,300)" x2="-5" y2="0" stroke="#888" stroke-width="1" opacity="1"/><line transform="translate(0,267)" x2="-5" y2="0" stroke="#888" stroke-width="1" opacity="1"/><line transform="translate(0,233)" x2="-5" y2="0" stroke="#888" stroke-width="1" opacity="1"/><line transform="translate(0,200)" x2="-5" y2="0" stroke="#888" stroke-width="1" opacity="1"/><line transform="translate(0,167)" x2="-5" y2="0" stroke="#888" stroke-width="1" opacity="1"/><line transform="translate(0,133)" x2="-5" y2="0" stroke="#888" stroke-width="1" opacity="1"/><line transform="translate(0,100)" x2="-5" y2="0" stroke="#888" stroke-width="1" opacity="1"/><line transform="translate(0,67)" x2="-5" y2="0" stroke="#888" stroke-width="1" opacity="1"/><line transform="translate(0,33)" x2="-5" y2="0" stroke="#888" stroke-width="1" opacity="1"/><line transform="translate(0,0)" x2="-5" y2="0" stroke="#888" stroke-width="1" opacity="1"/></g><g class="mark-text role-axis-label" pointer-events="none"><text text-anchor="end" transform="translate(-7,303)" font-family="sans-serif" font-size="10px" fill="#000" opacity="1">0.00</text><text text-anchor="end" transform="translate(-7,269.66666666666663)" font-family="sans-serif" font-size="10px" fill="#000" opacity="1">0.01</text><text text-anchor="end" transform="translate(-7,236.33333333333334)" font-family="sans-serif" font-size="10px" fill="#000" opacity="1">0.02</text><text text-anchor="end" transform="translate(-7,203.00000000000003)" font-family="sans-serif" font-size="10px" fill="#000" opacity="1">0.03</text><text text-anchor="end" transform="translate(-7,169.66666666666669)" font-family="sans-serif" font-size="10px" fill="#000" opacity="1">0.04</text><text text-anchor="end" transform="translate(-7,136.33333333333331)" font-family="sans-serif" font-size="10px" fill="#000" opacity="1">0.05</text><text text-anchor="end" transform="translate(-7,103.00000000000001)" font-family="sans-serif" font-size="10px" fill="#000" opacity="1">0.06</text><text text-anchor="end" transform="translate(-7,69.66666666666663)" font-family="sans-serif" font-size="10px" fill="#000" opacity="1">0.07</text><text text-anchor="end" transform="translate(-7,36.333333333333314)" font-family="sans-serif" font-size="10px" fill="#000" opacity="1">0.08</text><text text-anchor="end" transform="translate(-7,3)" font-family="sans-serif" font-size="10px" fill="#000" opacity="1">0.09</text></g><g class="mark-rule role-axis-domain" pointer-events="none"><line transform="translate(0,300)" x2="0" y2="-300" stroke="#888" stroke-width="1" opacity="1"/></g><g class="mark-text role-axis-title" pointer-events="none"><text text-anchor="middle" transform="translate(-30.462890625,150) rotate(-90) translate(0,-2)" font-family="sans-serif" font-size="11px" font-weight="bold" fill="#000" opacity="1">Mittlerer Fehler</text></g></g><path class="foreground" aria-hidden="true" d="" pointer-events="none" display="none"/></g></g><g class="mark-group role-scope pathgroup" role="graphics-object" aria-roledescription="group mark container"><g transform="translate(0,0)"><path class="background" aria-hidden="true" d="M0,0h400v300h-400Z"/><g><g class="mark-line role-mark marks" role="graphics-object" aria-roledescription="line mark container"><path aria-label="Typ: Train; Anzahl Epochen: 0; Mittlerer Fehler: 0.0833653139749" role="graphics-symbol" aria-roledescription="line mark" d="M0,22.11562008375214L1.5384615384615385,86.15978319375289L3.076923076923077,95.62793835288001L4.615384615384616,100.18077485618137L6.153846153846154,103.26886485729898L7.6923076923076925,105.77681893926292L9.230769230769232,108.57850291012296L10.76923076923077,111.5270806742566L12.307692307692308,114.3308408203579L13.846153846153847,116.74346605404502L15.384615384615385,118.25210333225273L16.923076923076923,119.32519844600131L18.461538461538463,120.28896269344146L20,121.07392414472999L21.53846153846154,121.77031989253703L23.076923076923077,122.31422443652434L24.615384615384617,122.91008064612036L26.153846153846157,123.637823064235L27.692307692307693,124.12767385443053L29.230769230769234,124.6121048040333L30.76923076923077,125.05740165998714L32.30769230769231,125.49159313951218L33.84615384615385,125.86631444948058L35.38461538461539,126.2462297942312L36.92307692307693,126.60649476484171L38.46153846153847,127.052401813368L40,127.34975660042393L41.53846153846154,127.748601165201L43.07692307692308,127.9755567466574L44.61538461538462,128.39763874986343L46.15384615384615,128.67337122914336L47.69230769230769,129.1042794650864L49.23076923076923,129.50276998536927L50.76923076923077,129.77714240550995L52.307692307692314,130.0656835326836L53.84615384615385,130.53684639966204L55.38461538461539,130.86328359675548L56.92307692307692,131.1913225977194L58.46153846153847,131.81232896500399L60,132.3188339049617L61.53846153846154,132.89060169564826L63.07692307692307,133.3262789462294L64.61538461538461,133.92911121870083L66.15384615384615,134.4772900853838L67.6923076923077,135.01897244935944L69.23076923076923,135.35754249564238L70.76923076923077,135.87771356992778L72.3076923076923,136.5511108810703L73.84615384615385,137.1128443539852L75.38461538461539,137.70159421200376L76.92307692307693,138.1822703317517L78.46153846153847,138.5706698743715L80,138.96872908489533L81.53846153846153,139.32477162895904L83.07692307692308,139.70144362233225L84.61538461538461,140.0038906594827L86.15384615384616,140.3298903788839L87.6923076923077,140.6442629483839L89.23076923076924,141.0229419108613L90.76923076923077,141.1887587979436L92.3076923076923,141.37851602530904L93.84615384615384,141.64647911010042L95.38461538461539,141.82540012434836L96.92307692307692,142.07933714081133L98.46153846153847,142.29051060087622L100,142.43998524547177L101.53846153846153,142.5698262151508L103.07692307692307,142.84063201131565L104.61538461538463,143.02579836831205L106.15384615384616,143.16994238511793L107.6923076923077,143.4721661997693L109.23076923076923,143.59964080420988L110.76923076923077,143.7735335812682L112.3076923076923,143.9604538492858L113.84615384615384,144.10072708325015L115.38461538461537,144.31413778414327L116.92307692307693,144.34650227250089L118.46153846153847,144.70753063048636L120,144.827282247189L121.53846153846153,144.9847003356332L123.07692307692308,145.19481352042584L124.61538461538461,145.35752963274714L126.15384615384615,145.5182446920801L127.69230769230768,145.60027224499552L129.23076923076923,145.74911109216157L130.76923076923077,145.87262456680904L132.3076923076923,146.07862922199445L133.84615384615384,146.28384558572654L135.3846153846154,146.40071309570754L136.92307692307693,146.52716440545018L138.46153846153845,146.6124268362321L140,146.85232840655814L141.53846153846155,146.88889577269688L143.07692307692307,147.06520784030934L144.6153846153846,147.10523362099636L146.15384615384613,147.3575152634155L147.6923076923077,147.47468252005223L149.23076923076923,147.56866853595488L150.76923076923077,147.59611533511253L152.3076923076923,147.6675896618482L153.84615384615387,147.84254050415862L155.3846153846154,148.09738338171016L156.92307692307693,148.17699891559425L158.46153846153845,148.25698505820972L160,148.3317652938976L161.53846153846155,148.54832242819526L163.07692307692307,148.58873549050517L164.6153846153846,148.7190500700048L166.15384615384616,148.81319002292693L167.6923076923077,148.8555659384777L169.23076923076923,149.1839000777829L170.76923076923077,149.3557966358605L172.30769230769232,149.43757211079907L173.84615384615384,149.56319811532185L175.3846153846154,149.80193154132436L176.9230769230769,149.8620648070105L178.46153846153848,150.1822702985789L180,150.32055609709846L181.53846153846155,150.37721544060676L183.07692307692307,150.5357600235757L184.6153846153846,150.76733253275356L186.15384615384616,150.88018909806297L187.69230769230768,151.04923305029627L189.23076923076923,151.06121215614533L190.76923076923077,151.28192681018155L192.30769230769232,151.30093300803784L193.84615384615384,151.33390239290227L195.3846153846154,151.6266565326424L196.92307692307693,151.68717526110066L198.46153846153845,151.76554809191396L200,151.91979487329564L201.53846153846155,151.99797495401327L203.07692307692307,152.10085315186353L204.61538461538458,152.18976009855396L206.15384615384613,152.27269130714592L207.6923076923077,152.31407611475638L209.23076923076925,152.4719983076682L210.76923076923077,152.44376442971682L212.30769230769232,152.75093955791644L213.84615384615384,152.76197771586124L215.3846153846154,152.79524335194202L216.9230769230769,152.9711941900175L218.46153846153845,153.14978527021594L220.00000000000003,153.26275924398075L221.53846153846155,153.3966172486544L223.0769230769231,153.4082762985712L224.6153846153846,153.60850513513597L226.15384615384616,153.7660560293478L227.69230769230768,153.83582575069298L229.23076923076923,154.02629195845554L230.76923076923075,154.28370896372058L232.30769230769232,154.38268158717875L233.84615384615387,154.60201660198868L235.3846153846154,154.79650253440747L236.92307692307693,154.87658078837697L238.46153846153845,155.0312307674349L240,155.1374118375991L241.53846153846152,155.38414131761306L243.07692307692307,155.51388859305354L244.61538461538464,155.5316350555846L246.15384615384616,155.65862656637495L247.6923076923077,155.74911238620103L249.23076923076923,155.8486487716436L250.76923076923077,156.03714968185935L252.3076923076923,156.08095236211304L253.84615384615384,156.13122556159007L255.38461538461536,156.1146178285569L256.92307692307696,156.22486326666103L258.46153846153845,156.34621484232844L260,156.4947455655783L261.53846153846155,156.5523274051624L263.0769230769231,156.66927721207944L264.6153846153846,156.6899389696898L266.15384615384613,156.808767870704L267.6923076923077,156.80402072224146L269.2307692307692,156.98018368646098L270.7692307692308,156.9726926407644L272.3076923076923,157.0077015266482L273.84615384615387,157.0914372313945L275.38461538461536,157.17844048316084L276.9230769230769,157.19618579550158L278.46153846153845,157.29681039145882L280,157.15959625319687L281.53846153846155,157.40425255152374L283.0769230769231,157.41919745203285L284.61538461538464,157.44955765808947L286.15384615384613,157.43047365297875L287.6923076923077,157.5434638754121L289.2307692307692,157.5817217543122L290.7692307692308,157.6364841755657L292.30769230769226,157.5066255715986L293.84615384615387,157.69128193510585L295.3846153846154,157.6564934344441L296.9230769230769,157.83056566624074L298.46153846153845,157.88835669379858L300,157.77666908442845L301.53846153846155,157.861057748059L303.0769230769231,157.81145378769864L304.6153846153846,157.86125321724936L306.15384615384613,158.00556024713885L307.69230769230774,157.96556819962763L309.2307692307692,158.02035356561345L310.7692307692308,158.037240763224L312.3076923076923,158.0672804673668L313.84615384615387,158.23566929577194L315.38461538461536,158.15932121123683L316.9230769230769,158.03984837201867L318.46153846153845,158.18618986408438L320,158.27897157155564L321.53846153846155,158.28993411996632L323.0769230769231,158.38167724829134L324.61538461538464,158.39765938930907L326.15384615384613,158.37198077317137L327.6923076923077,158.27515776756974L329.2307692307692,158.44254483956666L330.7692307692308,158.49932038836414L332.3076923076923,158.4798672506752L333.84615384615387,158.55427484874824L335.3846153846154,158.5090923477851L336.9230769230769,158.65299809639467L338.46153846153845,158.6361907911764L340,158.68237414619043L341.53846153846155,158.57058303284117L343.07692307692304,158.7103622370965L344.61538461538464,158.62434537825936L346.1538461538462,158.68390010492433L347.6923076923077,158.5774032815347L349.2307692307692,158.64423579984023L350.7692307692308,158.76305022303268L352.3076923076923,158.81665894939076L353.8461538461538,158.8379210213177L355.38461538461536,158.8266059578884L356.92307692307696,158.89651109790154L358.46153846153845,158.80382861498566L360,158.9348051174533L361.53846153846155,158.9727738339293L363.0769230769231,158.91196804146773L364.6153846153846,158.95790248586783L366.15384615384613,158.96926247812752L367.6923076923077,159.01573245064358L369.2307692307692,159.02294782904607L370.7692307692308,159.13193061770426L372.3076923076923,159.01927868454507L373.84615384615387,159.10048674580008L375.38461538461536,159.08890005555887L376.9230769230769,159.17460831724816L378.46153846153845,159.16201972119907L380,159.17764883523066L381.53846153846155,159.1587352377939L383.0769230769231,159.20433935170874" stroke="#f58518" stroke-width="2"/></g></g><path class="foreground" aria-hidden="true" d="" display="none"/></g><g transform="translate(0,0)"><path class="background" aria-hidden="true" d="M0,0h400v300h-400Z"/><g><g class="mark-line role-mark marks" role="graphics-object" aria-roledescription="line mark container"><path aria-label="Typ: Test; Anzahl Epochen: 0; Mittlerer Fehler: 0.0692631152521" role="graphics-symbol" aria-roledescription="line mark" d="M0,69.12294915980765L1.5384615384615385,96.61699868738651L3.076923076923077,101.57894690831502L4.615384615384616,104.4262250057525L6.153846153846154,106.64565128584704L7.6923076923076925,109.0346058209737L9.230769230769232,111.59527467356789L10.76923076923077,114.41154074337747L12.307692307692308,116.88955035060643L13.846153846153847,118.58847002602285L15.384615384615385,119.62514743208885L16.923076923076923,120.30292807353867L18.461538461538463,120.8897811671098L20,121.37495026820234L21.53846153846154,121.85323126614092L23.076923076923077,122.03519801712697L24.615384615384617,122.25781836443475L26.153846153846157,122.34813674456544L27.692307692307693,122.89783697989249L29.230769230769234,122.81115688383579L30.76923076923077,123.28177477595291L32.30769230769231,123.54048411879273L33.84615384615385,123.64061650716596L35.38461538461539,123.81698538859685L36.92307692307693,123.81623401823968L38.46153846153847,124.39004853367803L40,124.31557307200922L41.53846153846154,124.3581101298332L43.07692307692308,124.9160751700401L44.61538461538462,125.00114509214959L46.15384615384615,125.17139756431182L47.69230769230769,125.24658687826658L49.23076923076923,125.5025780449311L50.76923076923077,125.70039903124173L52.307692307692314,125.69469395611021L53.84615384615385,126.17733628592558L55.38461538461539,126.1906382213864L56.92307692307692,126.62929271658261L58.46153846153847,127.01299668600161L60,127.56006142331493L61.53846153846154,127.87619849873913L63.07692307692307,128.4734781210621L64.61538461538461,128.9027879325052L66.15384615384615,129.18057243029276L67.6923076923077,129.5007594343689L69.23076923076923,129.97007127851248L70.76923076923077,130.18897362053394L72.3076923076923,130.64098535105586L73.84615384615385,130.97087724341287L75.38461538461539,131.28132822198998L76.92307692307693,131.71744243138366L78.46153846153847,131.94056563079357L80,132.09943761014276L81.53846153846153,132.47010386031533L83.07692307692308,132.5604409393337L84.61538461538461,132.71320668152634L86.15384615384616,133.0131666165673L87.6923076923077,133.04911487632324L89.23076923076924,133.18004872029024L90.76923076923077,133.50741676986215L92.3076923076923,133.4052439313382L93.84615384615384,133.51574521511793L95.38461538461539,133.76888967533077L96.92307692307692,133.80421938167677L98.46153846153847,133.7509949174192L100,133.99591075463428L101.53846153846153,134.0749928106864L103.07692307692307,134.17323098983616L104.61538461538463,133.90860334038734L106.15384615384616,134.06481616612936L107.6923076923077,134.11532886740233L109.23076923076923,134.42201678537663L110.76923076923077,134.42189202954373L112.3076923076923,134.5311839547422L113.84615384615384,134.42629657220095L115.38461538461537,134.52783333034148L116.92307692307693,134.54664670344854L118.46153846153847,134.682356669671L120,134.71661865090329L121.53846153846153,134.69527624547482L123.07692307692308,134.8084588224689L124.61538461538461,134.87992962408399L126.15384615384615,134.98840640402503L127.69230769230768,134.84690398391749L129.23076923076923,135.16141950256292L130.76923076923077,134.97651478068693L132.3076923076923,135.0549512439304L133.84615384615384,135.296528848509L135.3846153846154,135.15624752682115L136.92307692307693,135.17769587536654L138.46153846153845,135.2739064850741L140,135.4053225264781L141.53846153846155,135.48606432353458L143.07692307692307,135.336049232218L144.6153846153846,135.33943500369787L146.15384615384613,135.4432816720671L147.6923076923077,135.41461790704892L149.23076923076923,135.56941838728056L150.76923076923077,135.5716929460565L152.3076923076923,135.64463077733913L153.84615384615387,135.63640810963182L155.3846153846154,135.7395494563712L156.92307692307693,135.76130887700452L158.46153846153845,135.7058411464095L160,135.91419481154946L161.53846153846155,135.9181617735885L163.07692307692307,135.76353032969766L164.6153846153846,135.89234457661706L166.15384615384616,136.00391933190014L167.6923076923077,135.90107036547528L169.23076923076923,136.05537778801389L170.76923076923077,136.26638679868643L172.30769230769232,136.2757143111796L173.84615384615384,136.24775943333384L175.3846153846154,136.17950690289337L176.9230769230769,136.32235005497932L178.46153846153848,136.47171846694417L180,136.40486869133179L181.53846153846155,136.54672739406425L183.07692307692307,136.6144860577252L184.6153846153846,136.838879622519L186.15384615384616,136.87373768124317L187.69230769230768,136.90194284750356L189.23076923076923,137.07927636181316L190.76923076923077,137.12178989598112L192.30769230769232,137.0676297435744L193.84615384615384,137.21733596175906L195.3846153846154,137.24703939321142L196.92307692307693,137.451401580539L198.46153846153845,137.5458455361594L200,137.5020479162534L201.53846153846155,137.46587414708404L203.07692307692307,137.50008036279016L204.61538461538458,137.50357505761914L206.15384615384613,137.6548931830459L207.6923076923077,137.7676563544406L209.23076923076925,137.90335640725164L210.76923076923077,137.67731919263798L212.30769230769232,137.8531257621944L213.84615384615384,137.79196783693297L215.3846153846154,137.82276635368663L216.9230769230769,138.0669853546553L218.46153846153845,137.97474240677224L220.00000000000003,138.08302225338088L221.53846153846155,138.00895321700307L223.0769230769231,138.28443430377067L224.6153846153846,138.23188664391637L226.15384615384616,138.25302794575688L227.69230769230768,138.38832250071897L229.23076923076923,138.27273324131966L230.76923076923075,138.56453926515923L232.30769230769232,138.5637028129875L233.84615384615387,138.53759405513605L235.3846153846154,138.74286225376028L236.92307692307693,138.7270735214568L238.46153846153845,138.91577882071334L240,138.8783651921484L241.53846153846152,138.9395508915186L243.07692307692307,138.862221263763L244.61538461538464,139.02230856733186L246.15384615384616,139.08836613926624L247.6923076923077,139.03891574591395L249.23076923076923,139.3088314682245L250.76923076923077,139.07488201641374L252.3076923076923,139.16234262287614L253.84615384615384,139.09625688360796L255.38461538461536,139.2765922471881L256.92307692307696,139.19588981403245L258.46153846153845,139.27589731497898L260,139.2004394489858L261.53846153846155,139.13948438647722L263.0769230769231,139.2480092537072L264.6153846153846,139.41787805201278L266.15384615384613,139.3224731605086L267.6923076923077,139.31250640501577L269.2307692307692,139.26874014238516L270.7692307692308,139.2657562572923L272.3076923076923,139.16075877431368L273.84615384615387,139.32944407958223L275.38461538461536,139.39260362854432L276.9230769230769,139.26982308427492L278.46153846153845,139.28592974811585L280,139.301333286696L281.53846153846155,139.21291234178676L283.0769230769231,139.25209858765203L284.61538461538464,139.34459151286217L286.15384615384613,139.29413904746372L287.6923076923077,139.2332861054456L289.2307692307692,139.46906090196634L290.7692307692308,139.50379372884828L292.30769230769226,139.477931180348L293.84615384615387,139.2354003050261L295.3846153846154,139.49407887541585L296.9230769230769,139.4281396435367L298.46153846153845,139.50501943214073L300,139.24252099047106L301.53846153846155,139.41335346963672L303.0769230769231,139.42173124394483L304.6153846153846,139.38537701550456L306.15384615384613,139.30108337663114L307.69230769230774,139.33544177561996L309.2307692307692,139.510907087889L310.7692307692308,139.3304150034156L312.3076923076923,139.32424303558136L313.84615384615387,139.48914979894957L315.38461538461536,139.47756310097046L316.9230769230769,139.48249809650912L318.46153846153845,139.40990702055083L320,139.47514580601515L321.53846153846155,139.56147758419522L323.0769230769231,139.3675985487385L324.61538461538464,139.3436366588705L326.15384615384613,139.47150999059278L327.6923076923077,139.48895069253115L329.2307692307692,139.45439402014017L330.7692307692308,139.437713380903L332.3076923076923,139.33111485093832L333.84615384615387,139.68570333802037L335.3846153846154,139.56412633674012L336.9230769230769,139.48810959441795L338.46153846153845,139.4851481748952L340,139.47282187226745L341.53846153846155,139.63501056035358L343.07692307692304,139.35265039197273L344.61538461538464,139.65349387791423L346.1538461538462,139.54802095476123L347.6923076923077,139.4963532168832L349.2307692307692,139.5177146549233L350.7692307692308,139.63689634046105L352.3076923076923,139.3884058110416L353.8461538461538,139.54011156327195L355.38461538461536,139.53638799074622L356.92307692307696,139.64839201006623L358.46153846153845,139.48241353759335L360,139.58924966217535L361.53846153846155,139.60284863909087L363.0769230769231,139.66103901879654L364.6153846153846,139.6454703890615L366.15384615384613,139.52104995001312L367.6923076923077,139.56882788075342L369.2307692307692,139.5018706098199L370.7692307692308,139.59494191739296L372.3076923076923,139.51008002040908L373.84615384615387,139.61555276893907L375.38461538461536,139.5941867803534L376.9230769230769,139.70483773284485L378.46153846153845,139.6696271892223L380,139.71848390582534L381.53846153846155,139.71293806615805L383.0769230769231,139.55816212627624" stroke="#4c78a8" stroke-width="2"/></g></g><path class="foreground" aria-hidden="true" d="" display="none"/></g></g><g class="mark-group role-legend" role="graphics-symbol" aria-roledescription="legend" aria-label="Symbol legend titled 'Typ' for stroke color with 2 values: Test, Train"><g transform="translate(418,0)"><path class="background" aria-hidden="true" d="M0,0h39v40h-39Z" pointer-events="none"/><g><g class="mark-group role-legend-entry"><g transform="translate(0,16)"><path class="background" aria-hidden="true" d="M0,0h0v0h0Z" pointer-events="none"/><g><g class="mark-group role-scope" role="graphics-object" aria-roledescription="group mark container"><g transform="translate(0,0)"><path class="background" aria-hidden="true" d="M0,0h38.412109375v11h-38.412109375Z" pointer-events="none" opacity="1"/><g><g class="mark-symbol role-legend-symbol" pointer-events="none"><path transform="translate(6,6)" d="M-5,0L5,0" stroke="#4c78a8" stroke-width="1.5" opacity="1"/></g><g class="mark-text role-legend-label" pointer-events="none"><text text-anchor="start" transform="translate(16,9)" font-family="sans-serif" font-size="10px" fill="#000" opacity="1">Test</text></g></g><path class="foreground" aria-hidden="true" d="" pointer-events="none" display="none"/></g><g transform="translate(0,13)"><path class="background" aria-hidden="true" d="M0,0h38.412109375v11h-38.412109375Z" pointer-events="none" opacity="1"/><g><g class="mark-symbol role-legend-symbol" pointer-events="none"><path transform="translate(6,6)" d="M-5,0L5,0" stroke="#f58518" stroke-width="1.5" opacity="1"/></g><g class="mark-text role-legend-label" pointer-events="none"><text text-anchor="start" transform="translate(16,9)" font-family="sans-serif" font-size="10px" fill="#000" opacity="1">Train</text></g></g><path class="foreground" aria-hidden="true" d="" pointer-events="none" display="none"/></g></g></g><path class="foreground" aria-hidden="true" d="" pointer-events="none" display="none"/></g></g><g class="mark-text role-legend-title" pointer-events="none"><text text-anchor="start" transform="translate(0,9)" font-family="sans-serif" font-size="11px" font-weight="bold" fill="#000" opacity="1">Typ</text></g></g><path class="foreground" aria-hidden="true" d="" pointer-events="none" display="none"/></g></g></g><path class="foreground" aria-hidden="true" d="" display="none"/></g></g></g></svg>