<svg xmlns="http://www.w3.org/2000/svg" xmlns:xlink="http://www.w3.org/1999/xlink" version="1.1" class="marks" width="509" height="347" viewBox="0 0 509 347"><rect width="509" height="347" fill="white"/><g fill="none" stroke-miterlimit="10" transform="translate(47,10)"><g class="mark-group role-frame root" role="graphics-object" aria-roledescription="group mark container"><g transform="translate(0,0)"><path class="background" aria-hidden="true" d="M0.5,0.5h400v300h-400Z" stroke="#ddd"/><g><g class="mark-group role-axis" aria-hidden="true"><g transform="translate(0.5,300.5)"><path class="background" aria-hidden="true" d="M0,0h0v0h0Z" pointer-events="none"/><g><g class="mark-rule role-axis-grid" pointer-events="none"><line transform="translate(0,-300)" x2="0" y2="300" stroke="#ddd" stroke-width="1" opacity="1"/><line transform="translate(31,-300)" x2="0" y2="300" stroke="#ddd" stroke-width="1" opacity="1"/><line transform="translate(62,-300)" x2="0" y2="300" stroke="#ddd" stroke-width="1" opacity="1"/><line transform="translate(92,-300)" x2="0" y2="300" stroke="#ddd" stroke-width="1" opacity="1"/><line transform="translate(123,-300)" x2="0" y2="300" stroke="#ddd" stroke-width="1" opacity="1"/><line transform="translate(154,-300)" x2="0" y2="300" stroke="#ddd" stroke-width="1" opacity="1"/><line transform="translate(185,-300)" x2="0" y2="300" stroke="#ddd" stroke-width="1" opacity="1"/><line transform="translate(215,-300)" x2="0" y2="300" stroke="#ddd" stroke-width="1" opacity="1"/><line transform="translate(246,-300)" x2="0" y2="300" stroke="#ddd" stroke-width="1" opacity="1"/><line transform="translate(277,-300)" x2="0" y2="300" stroke="#ddd" stroke-width="1" opacity="1"/><line transform="translate(308,-300)" x2="0" y2="300" stroke="#ddd" stroke-width="1" opacity="1"/><line transform="translate(338,-300)" x2="0" y2="300" stroke="#ddd" stroke-width="1" opacity="1"/><line transform="translate(369,-300)" x2="0" y2="300" stroke="#ddd" stroke-width="1" opacity="1"/><line transform="translate(400,-300)" x2="0" y2="300" stroke="#ddd" stroke-width="1" opacity="1"/></g></g><path class="foreground" aria-hidden="true" d="" pointer-events="none" display="none"/></g></g><g class="mark-group role-axis" aria-hidden="true"><g transform="translate(0.5,0.5)"><path class="background" aria-hidden="true" d="M0,0h0v0h0Z" pointer-events="none"/><g><g class="mark-rule role-axis-grid" pointer-events="none"><line transform="translate(0,300)" x2="400" y2="0" stroke="#ddd" stroke-width="1" opacity="1"/><line transform="translate(0,267)" x2="400" y2="0" stroke="#ddd" stroke-width="1" opacity="1"/><line transform="translate(0,233)" x2="400" y2="0" stroke="#ddd" stroke-width="1" opacity="1"/><line transform="translate(0,200)" x2="400" y2="0" stroke="#ddd" stroke-width="1" opacity="1"/><line transform="translate(0,167)" x2="400" y2="0" stroke="#ddd" stroke-width="1" opacity="1"/><line transform="translate(0,133)" x2="400" y2="0" stroke="#ddd" stroke-width="1" opacity="1"/><line transform="translate(0,100)" x2="400" y2="0" stroke="#ddd" stroke-width="1" opacity="1"/><line transform="translate(0,67)" x2="400" y2="0" stroke="#ddd" stroke-width="1" opacity="1"/><line transform="translate(0,33)" x2="400" y2="0" stroke="#ddd" stroke-width="1" opacity="1"/><line transform="translate(0,0)" x2="400" y2="0" stroke="#ddd" stroke-width="1" opacity="1"/></g></g><path class="foreground" aria-hidden="true" d="" pointer-events="none" display="none"/></g></g><g class="mark-group role-axis" role="graphics-symbol" aria-roledescription="axis" aria-label="X-axis titled 'Anzahl Epochen' for a linear scale with values from 0 to 260"><g transform="translate(0.5,300.5)"><path class="background" aria-hidden="true" d="M0,0h0v0h0Z" pointer-events="none"/><g><g class="mark-rule role-axis-tick" pointer-events="none"><line transform="translate(0,0)" x2="0" y2="5" stroke="#888" stroke-width="1" opacity="1"/><line transform="translate(31,0)" x2="0" y2="5" stroke="#888" stroke-width="1" opacity="1"/><line transform="translate(62,0)" x2="0" y2="5" stroke="#888" stroke-width="1" opacity="1"/><line transform="translate(92,0)" x2="0" y2="5" stroke="#888" stroke-width="1" opacity="1"/><line transform="translate(123,0)" x2="0" y2="5" stroke="#888" stroke-width="1" opacity="1"/><line transform="translate(154,0)" x2="0" y2="5" stroke="#888" stroke-width="1" opacity="1"/><line transform="translate(185,0)" x2="0" y2="5" stroke="#888" stroke-width="1" opacity="1"/><line transform="translate(215,0)" x2="0" y2="5" stroke="#888" stroke-width="1" opacity="1"/><line transform="translate(246,0)" x2="0" y2="5" stroke="#888" stroke-width="1" opacity="1"/><line transform="translate(277,0)" x2="0" y2="5" stroke="#888" stroke-width="1" opacity="1"/><line transform="translate(308,0)" x2="0" y2="5" stroke="#888" stroke-width="1" opacity="1"/><line transform="translate(338,0)" x2="0" y2="5" stroke="#888" stroke-width="1" opacity="1"/><line transform="translate(369,0)" x2="0" y2="5" stroke="#888" stroke-width="1" opacity="1"/><line transform="translate(400,0)" x2="0" y2="5" stroke="#888" stroke-width="1" opacity="1"/></g><g class="mark-text role-axis-label" pointer-events="none"><text text-anchor="start" transform="translate(0,15)" font-family="sans-serif" font-size="10px" fill="#000" opacity="1">0</text><text text-anchor="middle" transform="translate(30.76923076923077,15)" font-family="sans-serif" font-size="10px" fill="#000" opacity="1">20</text><text text-anchor="middle" transform="translate(61.53846153846154,15)" font-family="sans-serif" font-size="10px" fill="#000" opacity="1">40</text><text text-anchor="middle" transform="translate(92.3076923076923,15)" font-family="sans-serif" font-size="10px" fill="#000" opacity="1">60</text><text text-anchor="middle" transform="translate(123.07692307692308,15)" font-family="sans-serif" font-size="10px" fill="#000" opacity="1">80</text><text text-anchor="middle" transform="translate(153.84615384615387,15)" font-family="sans-serif" font-size="10px" fill="#000" opacity="1">100</text><text text-anchor="middle" transform="translate(184.6153846153846,15)" font-family="sans-serif" font-size="10px" fill="#000" opacity="1">120</text><text text-anchor="middle" transform="translate(215.3846153846154,15)" font-family="sans-serif" font-size="10px" fill="#000" opacity="1">140</text><text text-anchor="middle" transform="translate(246.15384615384616,15)" font-family="sans-serif" font-size="10px" fill="#000" opacity="1">160</text><text text-anchor="middle" transform="translate(276.9230769230769,15)" font-family="sans-serif" font-size="10px" fill="#000" opacity="1">180</text><text text-anchor="middle" transform="translate(307.69230769230774,15)" font-family="sans-serif" font-size="10px" fill="#000" opacity="1">200</text><text text-anchor="middle" transform="translate(338.46153846153845,15)" font-family="sans-serif" font-size="10px" fill="#000" opacity="1">220</text><text text-anchor="middle" transform="translate(369.2307692307692,15)" font-family="sans-serif" font-size="10px" fill="#000" opacity="1">240</text><text text-anchor="end" transform="translate(400,15)" font-family="sans-serif" font-size="10px" fill="#000" opacity="1">260</text></g><g class="mark-rule role-axis-domain" pointer-events="none"><line transform="translate(0,0)" x2="400" y2="0" stroke="#888" stroke-width="1" opacity="1"/></g><g class="mark-text role-axis-title" pointer-events="none"><text text-anchor="middle" transform="translate(200,30)" font-family="sans-serif" font-size="11px" font-weight="bold" fill="#000" opacity="1">Anzahl Epochen</text></g></g><path class="foreground" aria-hidden="true" d="" pointer-events="none" display="none"/></g></g><g class="mark-group role-axis" role="graphics-symbol" aria-roledescription="axis" aria-label="Y-axis titled 'Mittlerer Fehler' for a linear scale with values from 0.00 to 0.09"><g transform="translate(0.5,0.5)"><path class="background" aria-hidden="true" d="M0,0h0v0h0Z" pointer-events="none"/><g><g class="mark-rule role-axis-tick" pointer-events="none"><line transform="translate(0,300)" x2="-5" y2="0" stroke="#888" stroke-width="1" opacity="1"/><line transform="translate(0,267)" x2="-5" y2="0" stroke="#888" stroke-width="1" opacity="1"/><line transform="translate(0,233)" x2="-5" y2="0" stroke="#888" stroke-width="1" opacity="1"/><line transform="translate(0,200)" x2="-5" y2="0" stroke="#888" stroke-width="1" opacity="1"/><line transform="translate(0,167)" x2="-5" y2="0" stroke="#888" stroke-width="1" opacity="1"/><line transform="translate(0,133)" x2="-5" y2="0" stroke="#888" stroke-width="1" opacity="1"/><line transform="translate(0,100)" x2="-5" y2="0" stroke="#888" stroke-width="1" opacity="1"/><line transform="translate(0,67)" x2="-5" y2="0" stroke="#888" stroke-width="1" opacity="1"/><line transform="translate(0,33)" x2="-5" y2="0" stroke="#888" stroke-width="1" opacity="1"/><line transform="translate(0,0)" x2="-5" y2="0" stroke="#888" stroke-width="1" opacity="1"/></g><g class="mark-text role-axis-label" pointer-events="none"><text text-anchor="end" transform="translate(-7,303)" font-family="sans-serif" font-size="10px" fill="#000" opacity="1">0.00</text><text text-anchor="end" transform="translate(-7,269.66666666666663)" font-family="sans-serif" font-size="10px" fill="#000" opacity="1">0.01</text><text text-anchor="end" transform="translate(-7,236.33333333333334)" font-family="sans-serif" font-size="10px" fill="#000" opacity="1">0.02</text><text text-anchor="end" transform="translate(-7,203.00000000000003)" font-family="sans-serif" font-size="10px" fill="#000" opacity="1">0.03</text><text text-anchor="end" transform="translate(-7,169.66666666666669)" font-family="sans-serif" font-size="10px" fill="#000" opacity="1">0.04</text><text text-anchor="end" transform="translate(-7,136.33333333333331)" font-family="sans-serif" font-size="10px" fill="#000" opacity="1">0.05</text><text text-anchor="end" transform="translate(-7,103.00000000000001)" font-family="sans-serif" font-size="10px" fill="#000" opacity="1">0.06</text><text text-anchor="end" transform="translate(-7,69.66666666666663)" font-family="sans-serif" font-size="10px" fill="#000" opacity="1">0.07</text><text text-anchor="end" transform="translate(-7,36.333333333333314)" font-family="sans-serif" font-size="10px" fill="#000" opacity="1">0.08</text><text text-anchor="end" transform="translate(-7,3)" font-family="sans-serif" font-size="10px" fill="#000" opacity="1">0.09</text></g><g class="mark-rule role-axis-domain" pointer-events="none"><line transform="translate(0,300)" x2="0" y2="-300" stroke="#888" stroke-width="1" opacity="1"/></g><g class="mark-text role-axis-title" pointer-events="none"><text text-anchor="middle" transform="translate(-30.462890625,150) rotate(-90) translate(0,-2)" font-family="sans-serif" font-size="11px" font-weight="bold" fill="#000" opacity="1">Mittlerer Fehler</text></g></g><path class="foreground" aria-hidden="true" d="" pointer-events="none" display="none"/></g></g><g class="mark-group role-scope pathgroup" role="graphics-object" aria-roledescription="group mark container"><g transform="translate(0,0)"><path class="background" aria-hidden="true" d="M0,0h400v300h-400Z"/><g><g class="mark-line role-mark marks" role="graphics-object" aria-roledescription="line mark container"><path aria-label="Typ: Train; Anzahl Epochen: 0; Mittlerer Fehler: 0.0868329842708" role="graphics-symbol" aria-roledescription="line mark" d="M0,10.55671909735314L1.5384615384615385,11.742425709962834L3.076923076923077,13.112565378348007L4.615384615384616,15.045154697838248L6.153846153846154,17.350324278786044L7.6923076923076925,20.83739844106489L9.230769230769232,27.137666443983687L10.76923076923077,39.12894168779961L12.307692307692308,57.0728206740958L13.846153846153847,71.22129803257327L15.384615384615385,80.20893839143571L16.923076923076923,84.73164290189742L18.461538461538463,87.19703920540353L20,88.73716931612718L21.53846153846154,89.86490560429434L23.076923076923077,90.76910503208634L24.615384615384617,91.55790466992626L26.153846153846157,92.39108113660699L27.692307692307693,93.08251882238045L29.230769230769234,93.80533283665063L30.76923076923077,94.47678519146784L32.30769230769231,94.98886499731313L33.84615384615385,95.75507949505531L35.38461538461539,96.29921945078033L36.92307692307693,96.81459853336922L38.46153846153847,97.3924357976232L40,97.98608922532624L41.53846153846154,98.36110046931672L43.07692307692308,98.95011566224551L44.61538461538462,99.36939156835987L46.15384615384615,99.84892560612586L47.69230769230769,100.26857114973521L49.23076923076923,100.61011583145174L50.76923076923077,100.9686754839051L52.307692307692314,101.27192737445944L53.84615384615385,101.6466011071489L55.38461538461539,102.00728406863551L56.92307692307692,102.35655282934506L58.46153846153847,102.54308205275308L60,102.81630037795928L61.53846153846154,103.19045566554578L63.07692307692307,103.42893234143654L64.61538461538461,103.73041479005697L66.15384615384615,103.98710769202029L67.6923076923077,104.09115118285021L69.23076923076923,104.45172256302264L70.76923076923077,104.71751120473655L72.3076923076923,104.93944125870863L73.84615384615385,105.20129050793392L75.38461538461539,105.57064386528162L76.92307692307693,105.77008003102881L78.46153846153847,106.06532508418671L80,106.32860114177066L81.53846153846153,106.6621350479268L83.07692307692308,106.8818533615697L84.61538461538461,107.28317335070598L86.15384615384616,107.51430019736287L87.6923076923077,107.76988939337787L89.23076923076924,107.98667892813681L90.76923076923077,108.31157338938544L92.3076923076923,108.60612775598253L93.84615384615384,108.93051710334561L95.38461538461539,109.25715716467015L96.92307692307692,109.50972521234127L98.46153846153847,109.81556512415406L100,110.16442368605306L101.53846153846153,110.44796636505495L103.07692307692307,110.77385382904184L104.61538461538463,111.12227196849528L106.15384615384616,111.35045203069843L107.6923076923077,111.7255015032632L109.23076923076923,112.13697768038227L110.76923076923077,112.46268795359701L112.3076923076923,112.75169016527278L113.84615384615384,113.03413662438591L115.38461538461537,113.46869206144693L116.92307692307693,113.70893840988475L118.46153846153847,114.14795722590671L120,114.43841049358959L121.53846153846153,114.76619226769323L123.07692307692308,115.16242945300681L124.61538461538461,115.43180019195592L126.15384615384615,115.67606404423714L127.69230769230768,115.9255313465283L129.23076923076923,116.25356565983522L130.76923076923077,116.56440796241873L132.3076923076923,116.76951710666927L133.84615384615384,117.08373363528933L135.3846153846154,117.32551395183516L136.92307692307693,117.63283547812273L138.46153846153845,117.78715851583652L140,117.9717669263482L141.53846153846155,118.22773921968681L143.07692307692307,118.36988450515837L144.6153846153846,118.58006743270725L146.15384615384613,118.84166090083973L147.6923076923077,119.00683151824131L149.23076923076923,119.15793884545562L150.76923076923077,119.35972971398208L152.3076923076923,119.32036323206763L153.84615384615387,119.5931456716997L155.3846153846154,119.70959970993654L156.92307692307693,119.92425819016283L158.46153846153845,120.04454768307153L160,120.23066757690337L161.53846153846155,120.31895402109339L163.07692307692307,120.47735237117324L164.6153846153846,120.59671376787479L166.15384615384616,120.70394049265553L167.6923076923077,120.81108199698586L169.23076923076923,120.93604987575894L170.76923076923077,121.00994494699295L172.30769230769232,121.08723626782498L173.84615384615384,121.18973268994262L175.3846153846154,121.33104594513064L176.9230769230769,121.39171678572893L178.46153846153848,121.51588792690917L180,121.68799555372625L181.53846153846155,121.69709406083538L183.07692307692307,121.74881905139911L184.6153846153846,121.85366394086961L186.15384615384616,121.91559744200536L187.69230769230768,121.96885495490972L189.23076923076923,122.07324129662341L190.76923076923077,122.19095277999126L192.30769230769232,122.35457149910785L193.84615384615384,122.42965576726765L195.3846153846154,122.43052921479656L196.92307692307693,122.54831656991017L198.46153846153845,122.61239155417398L200,122.76333816172111L201.53846153846155,122.82023830782796L203.07692307692307,122.84395352360745L204.61538461538458,122.98834027633781L206.15384615384613,123.0727954811993L207.6923076923077,123.0983030050993L209.23076923076925,123.18269322360199L210.76923076923077,123.25793989889678L212.30769230769232,123.26582141575359L213.84615384615384,123.41932349261782L215.3846153846154,123.47907653255831L216.9230769230769,123.60039595514534L218.46153846153845,123.58893891352982L220.00000000000003,123.61319867583612L221.53846153846155,123.80112838887032L223.0769230769231,123.87209140828676L224.6153846153846,123.8381088312183L226.15384615384616,123.94930808139699L227.69230769230768,124.01256322683322L229.23076923076923,124.07324354031256L230.76923076923075,124.11837857216595L232.30769230769232,124.09555023269992L233.84615384615387,124.196554813534L235.3846153846154,124.31034985929726L236.92307692307693,124.44651847971335L238.46153846153845,124.45081527389232L240,124.5412775182298L241.53846153846152,124.55211434335934L243.07692307692307,124.51353824386993L244.61538461538464,124.63701212157805L246.15384615384616,124.72699263266152L247.6923076923077,124.7769082674668L249.23076923076923,124.8766857332417L250.76923076923077,124.96128865473328L252.3076923076923,124.9442697014837L253.84615384615384,125.08633117235843L255.38461538461536,125.09583140435142L256.92307692307696,125.15173235109874L258.46153846153845,125.15328546897285L260,125.27223308348938L261.53846153846155,125.31217149503175L263.0769230769231,125.3831354180528L264.6153846153846,125.34532653433935L266.15384615384613,125.4958212641733L267.6923076923077,125.48059585193792L269.2307692307692,125.57257841163802L270.7692307692308,125.63704413672288L272.3076923076923,125.68928886737143L273.84615384615387,125.79061611156376L275.38461538461536,125.7077521156697L276.9230769230769,125.92593831497997L278.46153846153845,125.93048834907157L280,125.96194970288445L281.53846153846155,125.98722954945903L283.0769230769231,126.04133830006631L284.61538461538464,126.12186898699117L286.15384615384613,126.17565962552493L287.6923076923077,126.17899209172242L289.2307692307692,126.33406078176839L290.7692307692308,126.3660323229574L292.30769230769226,126.33515455360921L293.84615384615387,126.48021188520248L295.3846153846154,126.54046923631712L296.9230769230769,126.50426408176175L298.46153846153845,126.62930091887358L300,126.7298282434543L301.53846153846155,126.71346501225516L303.0769230769231,126.62133927501384L304.6153846153846,126.69839633717423L306.15384615384613,126.79833340059434L307.69230769230774,126.90516806518039L309.2307692307692,126.96142710213148L310.7692307692308,126.9775266271262L312.3076923076923,127.0296801635552L313.84615384615387,127.0552995392964L315.38461538461536,127.06765633608612L316.9230769230769,127.2149128484584L318.46153846153845,127.25953959992954L320,127.23001028810228L321.53846153846155,127.34670286909453L323.0769230769231,127.32505873732623L324.61538461538464,127.38450696425775L326.15384615384613,127.3466906732037L327.6923076923077,127.52159388647192L329.2307692307692,127.49714242028335L330.7692307692308,127.46975196614153L332.3076923076923,127.6281575716677L333.84615384615387,127.6266423985362L335.3846153846154,127.54457310019504L336.9230769230769,127.7150428100001L338.46153846153845,127.7672950444477L340,127.84720596280836L341.53846153846155,127.86627865529485L343.07692307692304,127.91999485343696L344.61538461538464,127.99924965060893L346.1538461538462,127.8391316621786L347.6923076923077,127.94485818594693L349.2307692307692,128.0443880795723L350.7692307692308,127.99083185160443L352.3076923076923,128.2450646295079L353.8461538461538,128.26290265435264L355.38461538461536,128.12900741895038L356.92307692307696,128.32356096201L358.46153846153845,128.24457183125475L360,128.37275478467788L361.53846153846155,128.43750488190423L363.0769230769231,128.41289989827644L364.6153846153846,128.56933137490637L366.15384615384613,128.49287815569411L367.6923076923077,128.53750100614326L369.2307692307692,128.64190633963085L370.7692307692308,128.62559280668697L372.3076923076923,128.7338340832364L373.84615384615387,128.71549358325345L375.38461538461536,128.80341966547783L376.9230769230769,128.69217641917723L378.46153846153845,128.83589910786776L380,128.87654224676743L381.53846153846155,128.92356101600896L383.0769230769231,128.955075543906" stroke="#f58518" stroke-width="2"/></g></g><path class="foreground" aria-hidden="true" d="" display="none"/></g><g transform="translate(0,0)"><path class="background" aria-hidden="true" d="M0,0h400v300h-400Z"/><g><g class="mark-line role-mark marks" role="graphics-object" aria-roledescription="line mark container"><path aria-label="Typ: Test; Anzahl Epochen: 0; Mittlerer Fehler: 0.0866023013741" role="graphics-symbol" aria-roledescription="line mark" d="M0,11.325662086407318L1.5384615384615385,12.602180325322665L3.076923076923077,14.190754459963905L4.615384615384616,16.31190975507102L6.153846153846154,19.10214978787631L7.6923076923076925,23.72705174816978L9.230769230769232,32.26406234833926L10.76923076923077,48.34308831228151L12.307692307692308,65.62506047387917L13.846153846153847,77.09898315370084L15.384615384615385,83.70289326541955L16.923076923076923,86.88319702115324L18.461538461538463,88.94180258115134L20,90.23234268857372L21.53846153846154,91.30546790030267L23.076923076923077,92.20994570189053L24.615384615384617,93.18682530687914L26.153846153846157,93.82098130881786L27.692307692307693,94.62507977667784L29.230769230769234,95.31115868853199L30.76923076923077,95.94719318879976L32.30769230769231,96.6170944687393L33.84615384615385,97.20010467701488L35.38461538461539,97.77223397460246L36.92307692307693,98.22843517694207L38.46153846153847,98.8247230235073L40,99.27449834843473L41.53846153846154,99.64141278631156L43.07692307692308,100.15960548900895L44.61538461538462,100.62870449490018L46.15384615384615,100.9827972907159L47.69230769230769,101.3044783845544L49.23076923076923,101.73253735734356L50.76923076923077,102.0032498985529L52.307692307692314,102.24616353710489L53.84615384615385,102.54942013157738L55.38461538461539,102.88008172065017L56.92307692307692,103.17360746363798L58.46153846153847,103.48165672686366L60,103.68704452282851L61.53846153846154,103.87207269668576L63.07692307692307,104.09524163438213L64.61538461538461,104.26991343912151L66.15384615384615,104.52066481941273L67.6923076923077,104.79905448026125L69.23076923076923,105.01930341124535L70.76923076923077,105.22029863463506L72.3076923076923,105.44060034056504L73.84615384615385,105.65806676944095L75.38461538461539,105.87653281788032L76.92307692307693,106.06431890692977L78.46153846153847,106.33670242710247L80,106.66877287957401L81.53846153846153,106.70992901755702L83.07692307692308,107.06599093973637L84.61538461538461,107.19815699590575L86.15384615384616,107.53417967094313L87.6923076923077,107.82085698511865L89.23076923076924,108.13769180741575L90.76923076923077,108.43193116080428L92.3076923076923,108.67426142924363L93.84615384615384,108.95280221270191L95.38461538461539,109.19776834133597L96.92307692307692,109.44717683725885L98.46153846153847,109.83261182490321L100,110.03110669553278L101.53846153846153,110.34575054008099L103.07692307692307,110.53471561107371L104.61538461538463,110.81507342557111L106.15384615384616,111.13804270409877L107.6923076923077,111.49984366363948L109.23076923076923,111.76337637007234L110.76923076923077,112.04285530580414L112.3076923076923,112.3539018134276L113.84615384615384,112.66574489159716L115.38461538461537,112.90474269125198L116.92307692307693,113.14076354934109L118.46153846153847,113.5140017916759L120,113.54892030358315L121.53846153846153,114.00183683468235L123.07692307692308,114.22702775647241L124.61538461538461,114.54354425271353L126.15384615384615,114.83695933388339L127.69230769230768,114.90106528831852L129.23076923076923,115.23727640095683L130.76923076923077,115.49385376274586L132.3076923076923,115.66564328968524L133.84615384615384,115.89249384899934L135.3846153846154,116.11868960575926L136.92307692307693,116.31489793459572L138.46153846153845,116.36314255495867L140,116.48031655285092L141.53846153846155,116.63775973849827L143.07692307692307,116.89202315691445L144.6153846153846,117.06273824804357L146.15384615384613,117.10605488883125L147.6923076923077,117.35126862509381L149.23076923076923,117.35515650361776L150.76923076923077,117.5349416418208L152.3076923076923,117.57869062324362L153.84615384615387,117.70805724793011L155.3846153846154,117.76662605504194L156.92307692307693,117.85956499063305L158.46153846153845,118.05916312668057L160,118.03896497521134L161.53846153846155,118.1065255155166L163.07692307692307,118.12547155552437L164.6153846153846,118.23722467654282L166.15384615384616,118.31720322370526L167.6923076923077,118.26544573737515L169.23076923076923,118.44901324560246L170.76923076923077,118.49028132855892L172.30769230769232,118.62776113881004L173.84615384615384,118.60198796623283L175.3846153846154,118.75936842213073L176.9230769230769,118.7269373072518L178.46153846153848,118.83751269843842L180,118.66836293290058L181.53846153846155,118.85338473237222L183.07692307692307,118.85868507540889L184.6153846153846,118.9706520901786L186.15384615384616,119.01164394285942L187.69230769230768,119.0819629571504L189.23076923076923,119.14834102822674L190.76923076923077,119.09806614534723L192.30769230769232,119.12791888333031L193.84615384615384,119.19381334963772L195.3846153846154,119.1470994821025L196.92307692307693,119.36145031617747L198.46153846153845,119.29925692578156L200,119.30428184568879L201.53846153846155,119.34627571867571L203.07692307692307,119.39061975313555L204.61538461538458,119.5238121267822L206.15384615384613,119.49331930114161L207.6923076923077,119.4857926418384L209.23076923076925,119.5838425308466L210.76923076923077,119.50057422121367L212.30769230769232,119.62913171284727L213.84615384615384,119.60374454243315L215.3846153846154,119.7302277924286L216.9230769230769,119.73460591915581L218.46153846153845,119.67247397535375L220.00000000000003,119.76164467632769L221.53846153846155,119.85775302681657L223.0769230769231,119.88419335749413L224.6153846153846,119.90042633066572L226.15384615384616,119.8322383272979L227.69230769230768,119.85165824492773L229.23076923076923,119.93690756046111L230.76923076923075,120.04106671859822L232.30769230769232,119.81593196590741L233.84615384615387,119.99599546607998L235.3846153846154,120.03832256628407L236.92307692307693,120.07658872753383L238.46153846153845,120.05424110425842L240,120.09221826576524L241.53846153846152,120.07432027409473L243.07692307692307,120.23216003759038L244.61538461538464,120.1427621146043L246.15384615384616,120.19792114280993L247.6923076923077,120.2296547591686L249.23076923076923,120.1242784452107L250.76923076923077,120.27560691866607L252.3076923076923,120.26491955750518L253.84615384615384,120.31833877166112L255.38461538461536,120.29971025056307L256.92307692307696,120.39252505120302L258.46153846153845,120.4176498783959L260,120.36748033844759L261.53846153846155,120.39868425991801L263.0769230769231,120.405807149493L264.6153846153846,120.42729076411989L266.15384615384613,120.50120046155321L267.6923076923077,120.49966026097538L269.2307692307692,120.56563498659266L270.7692307692308,120.4774416362246L272.3076923076923,120.65266356286074L273.84615384615387,120.48665198187032L275.38461538461536,120.566989440057L276.9230769230769,120.64019667191639L278.46153846153845,120.6050135195255L280,120.62223284091387L281.53846153846155,120.7397013074822L283.0769230769231,120.73347961737049L284.61538461538464,120.75610914164119L286.15384615384613,120.72172030392618L287.6923076923077,120.73007381728125L289.2307692307692,120.7984246106611L290.7692307692308,120.80206983308824L292.30769230769226,120.87173023157649L293.84615384615387,120.8206534385681L295.3846153846154,120.85140947666433L296.9230769230769,120.82988007201088L298.46153846153845,120.82947130418485L300,120.8312695664871L301.53846153846155,120.96760703457726L303.0769230769231,120.81469864481025L304.6153846153846,120.8921903123458L306.15384615384613,121.02187959891224L307.69230769230774,121.04242259843481L309.2307692307692,121.04733723940122L310.7692307692308,120.95929576704899L312.3076923076923,121.06464505195616L313.84615384615387,120.99016379151078L315.38461538461536,121.01316120889452L316.9230769230769,121.14983236210212L318.46153846153845,121.06015061338742L320,121.09705954790114L321.53846153846155,121.23084287676545L323.0769230769231,121.10492206282085L324.61538461538464,121.14118281751871L326.15384615384613,121.15060794684621L327.6923076923077,121.24597664094632L329.2307692307692,121.25322760807144L330.7692307692308,121.35606002476479L332.3076923076923,121.28949840035705L333.84615384615387,121.30106795165274L335.3846153846154,121.26759431428377L336.9230769230769,121.34056099587018L338.46153846153845,121.30744773894546L340,121.32749094420836L341.53846153846155,121.38733158095016L343.07692307692304,121.33548003103998L344.61538461538464,121.37384447786545L346.1538461538462,121.44326544884177L347.6923076923077,121.40295306841531L349.2307692307692,121.49243417920339L350.7692307692308,121.39562625024053L352.3076923076923,121.40664636260932L353.8461538461538,121.48792522235048L355.38461538461536,121.51312757697372L356.92307692307696,121.53192216323482L358.46153846153845,121.58482970876825L360,121.48485173367793L361.53846153846155,121.48299525595371L363.0769230769231,121.64982774605352L364.6153846153846,121.60349823534486L366.15384615384613,121.61280715372413L367.6923076923077,121.61799244996571L369.2307692307692,121.63501943772039L370.7692307692308,121.61770967973602L372.3076923076923,121.73410453316237L373.84615384615387,121.61069182265136L375.38461538461536,121.71204739974603L376.9230769230769,121.76523100998665L378.46153846153845,121.63340718381934L380,121.74191290719642L381.53846153846155,121.61977055172125L383.0769230769231,121.76873963326217" stroke="#4c78a8" stroke-width="2"/></g></g><path class="foreground" aria-hidden="true" d="" display="none"/></g></g><g class="mark-group role-legend" role="graphics-symbol" aria-roledescription="legend" aria-label="Symbol legend titled 'Typ' for stroke color with 2 values: Test, Train"><g transform="translate(418,0)"><path class="background" aria-hidden="true" d="M0,0h39v40h-39Z" pointer-events="none"/><g><g class="mark-group role-legend-entry"><g transform="translate(0,16)"><path class="background" aria-hidden="true" d="M0,0h0v0h0Z" pointer-events="none"/><g><g class="mark-group role-scope" role="graphics-object" aria-roledescription="group mark container"><g transform="translate(0,0)"><path class="background" aria-hidden="true" d="M0,0h38.412109375v11h-38.412109375Z" pointer-events="none" opacity="1"/><g><g class="mark-symbol role-legend-symbol" pointer-events="none"><path transform="translate(6,6)" d="M-5,0L5,0" stroke="#4c78a8" stroke-width="1.5" opacity="1"/></g><g class="mark-text role-legend-label" pointer-events="none"><text text-anchor="start" transform="translate(16,9)" font-family="sans-serif" font-size="10px" fill="#000" opacity="1">Test</text></g></g><path class="foreground" aria-hidden="true" d="" pointer-events="none" display="none"/></g><g transform="translate(0,13)"><path class="background" aria-hidden="true" d="M0,0h38.412109375v11h-38.412109375Z" pointer-events="none" opacity="1"/><g><g class="mark-symbol role-legend-symbol" pointer-events="none"><path transform="translate(6,6)" d="M-5,0L5,0" stroke="#f58518" stroke-width="1.5" opacity="1"/></g><g class="mark-text role-legend-label" pointer-events="none"><text text-anchor="start" transform="translate(16,9)" font-family="sans-serif" font-size="10px" fill="#000" opacity="1">Train</text></g></g><path class="foreground" aria-hidden="true" d="" pointer-events="none" display="none"/></g></g></g><path class="foreground" aria-hidden="true" d="" pointer-events="none" display="none"/></g></g><g class="mark-text role-legend-title" pointer-events="none"><text text-anchor="start" transform="translate(0,9)" font-family="sans-serif" font-size="11px" font-weight="bold" fill="#000" opacity="1">Typ</text></g></g><path class="foreground" aria-hidden="true" d="" pointer-events="none" display="none"/></g></g></g><path class="foreground" aria-hidden="true" d="" display="none"/></g></g></g></svg>