<svg xmlns="http://www.w3.org/2000/svg" xmlns:xlink="http://www.w3.org/1999/xlink" version="1.1" class="marks" width="509" height="347" viewBox="0 0 509 347"><rect width="509" height="347" fill="white"/><g fill="none" stroke-miterlimit="10" transform="translate(47,10)"><g class="mark-group role-frame root" role="graphics-object" aria-roledescription="group mark container"><g transform="translate(0,0)"><path class="background" aria-hidden="true" d="M0.5,0.5h400v300h-400Z" stroke="#ddd"/><g><g class="mark-group role-axis" aria-hidden="true"><g transform="translate(0.5,300.5)"><path class="background" aria-hidden="true" d="M0,0h0v0h0Z" pointer-events="none"/><g><g class="mark-rule role-axis-grid" pointer-events="none"><line transform="translate(0,-300)" x2="0" y2="300" stroke="#ddd" stroke-width="1" opacity="1"/><line transform="translate(31,-300)" x2="0" y2="300" stroke="#ddd" stroke-width="1" opacity="1"/><line transform="translate(62,-300)" x2="0" y2="300" stroke="#ddd" stroke-width="1" opacity="1"/><line transform="translate(92,-300)" x2="0" y2="300" stroke="#ddd" stroke-width="1" opacity="1"/><line transform="translate(123,-300)" x2="0" y2="300" stroke="#ddd" stroke-width="1" opacity="1"/><line transform="translate(154,-300)" x2="0" y2="300" stroke="#ddd" stroke-width="1" opacity="1"/><line transform="translate(185,-300)" x2="0" y2="300" stroke="#ddd" stroke-width="1" opacity="1"/><line transform="translate(215,-300)" x2="0" y2="300" stroke="#ddd" stroke-width="1" opacity="1"/><line transform="translate(246,-300)" x2="0" y2="300" stroke="#ddd" stroke-width="1" opacity="1"/><line transform="translate(277,-300)" x2="0" y2="300" stroke="#ddd" stroke-width="1" opacity="1"/><line transform="translate(308,-300)" x2="0" y2="300" stroke="#ddd" stroke-width="1" opacity="1"/><line transform="translate(338,-300)" x2="0" y2="300" stroke="#ddd" stroke-width="1" opacity="1"/><line transform="translate(369,-300)" x2="0" y2="300" stroke="#ddd" stroke-width="1" opacity="1"/><line transform="translate(400,-300)" x2="0" y2="300" stroke="#ddd" stroke-width="1" opacity="1"/></g></g><path class="foreground" aria-hidden="true" d="" pointer-events="none" display="none"/></g></g><g class="mark-group role-axis" aria-hidden="true"><g transform="translate(0.5,0.5)"><path class="background" aria-hidden="true" d="M0,0h0v0h0Z" pointer-events="none"/><g><g class="mark-rule role-axis-grid" pointer-events="none"><line transform="translate(0,300)" x2="400" y2="0" stroke="#ddd" stroke-width="1" opacity="1"/><line transform="translate(0,267)" x2="400" y2="0" stroke="#ddd" stroke-width="1" opacity="1"/><line transform="translate(0,233)" x2="400" y2="0" stroke="#ddd" stroke-width="1" opacity="1"/><line transform="translate(0,200)" x2="400" y2="0" stroke="#ddd" stroke-width="1" opacity="1"/><line transform="translate(0,167)" x2="400" y2="0" stroke="#ddd" stroke-width="1" opacity="1"/><line transform="translate(0,133)" x2="400" y2="0" stroke="#ddd" stroke-width="1" opacity="1"/><line transform="translate(0,100)" x2="400" y2="0" stroke="#ddd" stroke-width="1" opacity="1"/><line transform="translate(0,67)" x2="400" y2="0" stroke="#ddd" stroke-width="1" opacity="1"/><line transform="translate(0,33)" x2="400" y2="0" stroke="#ddd" stroke-width="1" opacity="1"/><line transform="translate(0,0)" x2="400" y2="0" stroke="#ddd" stroke-width="1" opacity="1"/></g></g><path class="foreground" aria-hidden="true" d="" pointer-events="none" display="none"/></g></g><g class="mark-group role-axis" role="graphics-symbol" aria-roledescription="axis" aria-label="X-axis titled 'Anzahl Epochen' for a linear scale with values from 0 to 260"><g transform="translate(0.5,300.5)"><path class="background" aria-hidden="true" d="M0,0h0v0h0Z" pointer-events="none"/><g><g class="mark-rule role-axis-tick" pointer-events="none"><line transform="translate(0,0)" x2="0" y2="5" stroke="#888" stroke-width="1" opacity="1"/><line transform="translate(31,0)" x2="0" y2="5" stroke="#888" stroke-width="1" opacity="1"/><line transform="translate(62,0)" x2="0" y2="5" stroke="#888" stroke-width="1" opacity="1"/><line transform="translate(92,0)" x2="0" y2="5" stroke="#888" stroke-width="1" opacity="1"/><line transform="translate(123,0)" x2="0" y2="5" stroke="#888" stroke-width="1" opacity="1"/><line transform="translate(154,0)" x2="0" y2="5" stroke="#888" stroke-width="1" opacity="1"/><line transform="translate(185,0)" x2="0" y2="5" stroke="#888" stroke-width="1" opacity="1"/><line transform="translate(215,0)" x2="0" y2="5" stroke="#888" stroke-width="1" opacity="1"/><line transform="translate(246,0)" x2="0" y2="5" stroke="#888" stroke-width="1" opacity="1"/><line transform="translate(277,0)" x2="0" y2="5" stroke="#888" stroke-width="1" opacity="1"/><line transform="translate(308,0)" x2="0" y2="5" stroke="#888" stroke-width="1" opacity="1"/><line transform="translate(338,0)" x2="0" y2="5" stroke="#888" stroke-width="1" opacity="1"/><line transform="translate(369,0)" x2="0" y2="5" stroke="#888" stroke-width="1" opacity="1"/><line transform="translate(400,0)" x2="0" y2="5" stroke="#888" stroke-width="1" opacity="1"/></g><g class="mark-text role-axis-label" pointer-events="none"><text text-anchor="start" transform="translate(0,15)" font-family="sans-serif" font-size="10px" fill="#000" opacity="1">0</text><text text-anchor="middle" transform="translate(30.76923076923077,15)" font-family="sans-serif" font-size="10px" fill="#000" opacity="1">20</text><text text-anchor="middle" transform="translate(61.53846153846154,15)" font-family="sans-serif" font-size="10px" fill="#000" opacity="1">40</text><text text-anchor="middle" transform="translate(92.3076923076923,15)" font-family="sans-serif" font-size="10px" fill="#000" opacity="1">60</text><text text-anchor="middle" transform="translate(123.07692307692308,15)" font-family="sans-serif" font-size="10px" fill="#000" opacity="1">80</text><text text-anchor="middle" transform="translate(153.84615384615387,15)" font-family="sans-serif" font-size="10px" fill="#000" opacity="1">100</text><text text-anchor="middle" transform="translate(184.6153846153846,15)" font-family="sans-serif" font-size="10px" fill="#000" opacity="1">120</text><text text-anchor="middle" transform="translate(215.3846153846154,15)" font-family="sans-serif" font-size="10px" fill="#000" opacity="1">140</text><text text-anchor="middle" transform="translate(246.15384615384616,15)" font-family="sans-serif" font-size="10px" fill="#000" opacity="1">160</text><text text-anchor="middle" transform="translate(276.9230769230769,15)" font-family="sans-serif" font-size="10px" fill="#000" opacity="1">180</text><text text-anchor="middle" transform="translate(307.69230769230774,15)" font-family="sans-serif" font-size="10px" fill="#000" opacity="1">200</text><text text-anchor="middle" transform="translate(338.46153846153845,15)" font-family="sans-serif" font-size="10px" fill="#000" opacity="1">220</text><text text-anchor="middle" transform="translate(369.2307692307692,15)" font-family="sans-serif" font-size="10px" fill="#000" opacity="1">240</text><text text-anchor="end" transform="translate(400,15)" font-family="sans-serif" font-size="10px" fill="#000" opacity="1">260</text></g><g class="mark-rule role-axis-domain" pointer-events="none"><line transform="translate(0,0)" x2="400" y2="0" stroke="#888" stroke-width="1" opacity="1"/></g><g class="mark-text role-axis-title" pointer-events="none"><text text-anchor="middle" transform="translate(200,30)" font-family="sans-serif" font-size="11px" font-weight="bold" fill="#000" opacity="1">Anzahl Epochen</text></g></g><path class="foreground" aria-hidden="true" d="" pointer-events="none" display="none"/></g></g><g class="mark-group role-axis" role="graphics-symbol" aria-roledescription="axis" aria-label="Y-axis titled 'Mittlerer Fehler' for a linear scale with values from 0.00 to 0.09"><g transform="translate(0.5,0.5)"><path class="background" aria-hidden="true" d="M0,0h0v0h0Z" pointer-events="none"/><g><g class="mark-rule role-axis-tick" pointer-events="none"><line transform="translate(0,300)" x2="-5" y2="0" stroke="#888" stroke-width="1" opacity="1"/><line transform="translate(0,267)" x2="-5" y2="0" stroke="#888" stroke-width="1" opacity="1"/><line transform="translate(0,233)" x2="-5" y2="0" stroke="#888" stroke-width="1" opacity="1"/><line transform="translate(0,200)" x2="-5" y2="0" stroke="#888" stroke-width="1" opacity="1"/><line transform="translate(0,167)" x2="-5" y2="0" stroke="#888" stroke-width="1" opacity="1"/><line transform="translate(0,133)" x2="-5" y2="0" stroke="#888" stroke-width="1" opacity="1"/><line transform="translate(0,100)" x2="-5" y2="0" stroke="#888" stroke-width="1" opacity="1"/><line transform="translate(0,67)" x2="-5" y2="0" stroke="#888" stroke-width="1" opacity="1"/><line transform="translate(0,33)" x2="-5" y2="0" stroke="#888" stroke-width="1" opacity="1"/><line transform="translate(0,0)" x2="-5" y2="0" stroke="#888" stroke-width="1" opacity="1"/></g><g class="mark-text role-axis-label" pointer-events="none"><text text-anchor="end" transform="translate(-7,303)" font-family="sans-serif" font-size="10px" fill="#000" opacity="1">0.00</text><text text-anchor="end" transform="translate(-7,269.66666666666663)" font-family="sans-serif" font-size="10px" fill="#000" opacity="1">0.01</text><text text-anchor="end" transform="translate(-7,236.33333333333334)" font-family="sans-serif" font-size="10px" fill="#000" opacity="1">0.02</text><text text-anchor="end" transform="translate(-7,203.00000000000003)" font-family="sans-serif" font-size="10px" fill="#000" opacity="1">0.03</text><text text-anchor="end" transform="translate(-7,169.66666666666669)" font-family="sans-serif" font-size="10px" fill="#000" opacity="1">0.04</text><text text-anchor="end" transform="translate(-7,136.33333333333331)" font-family="sans-serif" font-size="10px" fill="#000" opacity="1">0.05</text><text text-anchor="end" transform="translate(-7,103.00000000000001)" font-family="sans-serif" font-size="10px" fill="#000" opacity="1">0.06</text><text text-anchor="end" transform="translate(-7,69.66666666666663)" font-family="sans-serif" font-size="10px" fill="#000" opacity="1">0.07</text><text text-anchor="end" transform="translate(-7,36.333333333333314)" font-family="sans-serif" font-size="10px" fill="#000" opacity="1">0.08</text><text text-anchor="end" transform="translate(-7,3)" font-family="sans-serif" font-size="10px" fill="#000" opacity="1">0.09</text></g><g class="mark-rule role-axis-domain" pointer-events="none"><line transform="translate(0,300)" x2="0" y2="-300" stroke="#888" stroke-width="1" opacity="1"/></g><g class="mark-text role-axis-title" pointer-events="none"><text text-anchor="middle" transform="translate(-30.462890625,150) rotate(-90) translate(0,-2)" font-family="sans-serif" font-size="11px" font-weight="bold" fill="#000" opacity="1">Mittlerer Fehler</text></g></g><path class="foreground" aria-hidden="true" d="" pointer-events="none" display="none"/></g></g><g class="mark-group role-scope pathgroup" role="graphics-object" aria-roledescription="group mark container"><g transform="translate(0,0)"><path class="background" aria-hidden="true" d="M0,0h400v300h-400Z"/><g><g class="mark-line role-mark marks" role="graphics-object" aria-roledescription="line mark container"><path aria-label="Typ: Train; Anzahl Epochen: 0; Mittlerer Fehler: 0.0851638754244" role="graphics-symbol" aria-roledescription="line mark" d="M0,16.12041525187944L1.5384615384615385,22.691102396874186L3.076923076923077,48.00221675208637L4.615384615384616,82.99254352847733L6.153846153846154,93.03991021144955L7.6923076923076925,96.11646548977917L9.230769230769232,98.33424847040857L10.76923076923077,100.36249334613483L12.307692307692308,102.2175729097355L13.846153846153847,103.78644916982877L15.384615384615385,105.06351793273573L16.923076923076923,106.23962179358514L18.461538461538463,107.1798876371412L20,107.98410202066104L21.53846153846154,108.81382619873399L23.076923076923077,109.40810029527971L24.615384615384617,110.14528644404241L26.153846153846157,110.74768404165903L27.692307692307693,111.51709035038945L29.230769230769234,112.31590241548562L30.76923076923077,113.03277197515682L32.30769230769231,113.94511189843925L33.84615384615385,114.83091850144169L35.38461538461539,115.68723255324932L36.92307692307693,116.48624904808545L38.46153846153847,117.39267507301909L40,118.23712285341962L41.53846153846154,119.19599645549341L43.07692307692308,120.03404714521906L44.61538461538462,120.81148394693932L46.15384615384615,121.58634226237025L47.69230769230769,122.16195907621156L49.23076923076923,122.81903391260475L50.76923076923077,123.31170093800343L52.307692307692314,123.71726858296564L53.84615384615385,124.1434237431912L55.38461538461539,124.52606987208127L56.92307692307692,124.89843865235646L58.46153846153847,125.20478588661977L60,125.53838677704334L61.53846153846154,125.79196694173982L63.07692307692307,125.99951381839458L64.61538461538461,126.37253017829994L66.15384615384615,126.50612006850893L67.6923076923077,126.70359297522478L69.23076923076923,126.97528656572102L70.76923076923077,127.17260897514365L72.3076923076923,127.43102524961742L73.84615384615385,127.61538008316641L75.38461538461539,127.88314977217289L76.92307692307693,128.11735056872877L78.46153846153847,128.23580664892992L80,128.41572152184588L81.53846153846153,128.6238260744583L83.07692307692308,128.73196829376477L84.61538461538461,128.92384427998746L86.15384615384616,129.12558424508288L87.6923076923077,129.24460466906783L89.23076923076924,129.449250133309L90.76923076923077,129.68694057226892L92.3076923076923,129.78483771107022L93.84615384615384,129.89554804627826L95.38461538461539,130.16220264668974L96.92307692307692,130.23913294697803L98.46153846153847,130.4074343205208L100,130.5617546130504L101.53846153846153,130.60224827024197L103.07692307692307,130.84270820199023L104.61538461538463,130.99588299768843L106.15384615384616,131.11179665263208L107.6923076923077,131.30390545619383L109.23076923076923,131.39234921407132L110.76923076923077,131.57368907261463L112.3076923076923,131.73132747234334L113.84615384615384,131.87006575365862L115.38461538461537,131.8182718097454L116.92307692307693,132.0438965622868L118.46153846153847,132.17501140842657L120,132.25838709179132L121.53846153846153,132.4130160512314L123.07692307692308,132.60492030531168L124.61538461538461,132.75542671659164L126.15384615384615,132.87107538254486L127.69230769230768,133.02087315491266L129.23076923076923,133.08411307100738L130.76923076923077,133.34103694096916L132.3076923076923,133.38343247416472L133.84615384615384,133.53758504880327L135.3846153846154,133.64311079716396L136.92307692307693,133.73677593301093L138.46153846153845,133.9452061181267L140,134.07812811256872L141.53846153846155,134.31201423740103L143.07692307692307,134.43920151108784L144.6153846153846,134.6110900864005L146.15384615384613,134.75990210260662L147.6923076923077,134.92689988620222L149.23076923076923,135.09564720803783L150.76923076923077,135.42653035727284L152.3076923076923,135.4627772278729L153.84615384615387,135.78198385380563L155.3846153846154,136.04335839738184L156.92307692307693,136.23181350218755L158.46153846153845,136.40964315051124L160,136.60737634858205L161.53846153846155,136.79356177647907L163.07692307692307,137.09527960052668L164.6153846153846,137.27467209100723L166.15384615384616,137.44561965189254L167.6923076923077,137.651197292975L169.23076923076923,137.83373459730117L170.76923076923077,137.9255015580427L172.30769230769232,138.20168199960054L173.84615384615384,138.3910324790382L175.3846153846154,138.49477780361968L176.9230769230769,138.6632340660851L178.46153846153848,138.71061431709677L180,138.99224867955562L181.53846153846155,139.0827584496167L183.07692307692307,139.2048547479568L184.6153846153846,139.28557163370505L186.15384615384616,139.32508935353584L187.69230769230768,139.42201323640933L189.23076923076923,139.54194639587686L190.76923076923077,139.62084711307568L192.30769230769232,139.7873459738635L193.84615384615384,139.8851962006163L195.3846153846154,140.03470426514033L196.92307692307693,140.05154796122085L198.46153846153845,140.17707849630997L200,140.3425930078984L201.53846153846155,140.35166980964794L203.07692307692307,140.44495104878607L204.61538461538458,140.5749756488062L206.15384615384613,140.63443760609343L207.6923076923077,140.70989735247124L209.23076923076925,140.8140703459226L210.76923076923077,140.9221686068035L212.30769230769232,140.9500043900196L213.84615384615384,141.0823552603168L215.3846153846154,141.09406456173883L216.9230769230769,141.2409356573508L218.46153846153845,141.31068150025038L220.00000000000003,141.41029471925106L221.53846153846155,141.52593853040818L223.0769230769231,141.5599624404595L224.6153846153846,141.59339000637243L226.15384615384616,141.6286631126977L227.69230769230768,141.81781077225295L229.23076923076923,141.83041185495398L230.76923076923075,141.92527162265918L232.30769230769232,141.99977145042445L233.84615384615387,142.02145793519557L235.3846153846154,142.08180972685415L236.92307692307693,142.12604734514437L238.46153846153845,142.34461060037745L240,142.29419927689293L241.53846153846152,142.43320527353455L243.07692307692307,142.41253321192093L244.61538461538464,142.5554279149288L246.15384615384616,142.54465264135175L247.6923076923077,142.68374214214938L249.23076923076923,142.75283949183566L250.76923076923077,142.79413803347518L252.3076923076923,142.78613397230706L253.84615384615384,142.90946724386663L255.38461538461536,143.03017229373964L256.92307692307696,143.0253980282162L258.46153846153845,143.06896220715274L260,143.1323923081869L261.53846153846155,143.23253292767774L263.0769230769231,143.26414209568784L264.6153846153846,143.42821836471558L266.15384615384613,143.38491743519194L267.6923076923077,143.4281887663972L269.2307692307692,143.56272757203052L270.7692307692308,143.60053349851765L272.3076923076923,143.6900514044932L273.84615384615387,143.71815046650315L275.38461538461536,143.77715783526324L276.9230769230769,143.80406286301357L278.46153846153845,143.81540984114898L280,143.9596266441402L281.53846153846155,143.99349241118344L283.0769230769231,144.12665077086007L284.61538461538464,144.23748559465386L286.15384615384613,144.24178040630758L287.6923076923077,144.2462485767291L289.2307692307692,144.3205204614926L290.7692307692308,144.472422916165L292.30769230769226,144.48450911080556L293.84615384615387,144.61033959385185L295.3846153846154,144.70456586707206L296.9230769230769,144.6211976753104L298.46153846153845,144.78617660435182L300,144.93717091335427L301.53846153846155,145.0490770196276L303.0769230769231,145.1058254743527L304.6153846153846,145.16447346748984L306.15384615384613,145.2223850563834L307.69230769230774,145.20223487523342L309.2307692307692,145.49261034865464L310.7692307692308,145.5572575990421L312.3076923076923,145.67191851466694L313.84615384615387,145.6424220952959L315.38461538461536,145.7562282237978L316.9230769230769,145.88831652488025L318.46153846153845,145.92228973716766L320,145.93536218273496L321.53846153846155,146.07340660032128L323.0769230769231,146.18938940444164L324.61538461538464,146.34711801384887L326.15384615384613,146.4019255623931L327.6923076923077,146.45705868356995L329.2307692307692,146.58177763312344L330.7692307692308,146.62304404330263L332.3076923076923,146.736501760426L333.84615384615387,146.67252437821367L335.3846153846154,146.72013440479836L336.9230769230769,146.9062556911792L338.46153846153845,147.02523466465726L340,147.09498200210788L341.53846153846155,147.10264664054625L343.07692307692304,147.14103136876864L344.61538461538464,147.30177051165984L346.1538461538462,147.33275167943378L347.6923076923077,147.4163884208316L349.2307692307692,147.40313501319008L350.7692307692308,147.59885570466784L352.3076923076923,147.6116039923259L353.8461538461538,147.55847763624928L355.38461538461536,147.70261080314717L356.92307692307696,147.66321379879844L358.46153846153845,147.84634447645485L360,147.91553864876428L361.53846153846155,147.8879129827311L363.0769230769231,147.9953414249134L364.6153846153846,148.06093640093295L366.15384615384613,148.21400290238668L367.6923076923077,148.269665271454L369.2307692307692,148.29410987329624L370.7692307692308,148.25614958258703L372.3076923076923,148.44218652163232L373.84615384615387,148.4853926513876L375.38461538461536,148.5659456412707L376.9230769230769,148.6330665600863L378.46153846153845,148.61270874029117L380,148.57376478168936L381.53846153846155,148.73687357730455L383.0769230769231,148.76981189119672" stroke="#f58518" stroke-width="2"/></g></g><path class="foreground" aria-hidden="true" d="" display="none"/></g><g transform="translate(0,0)"><path class="background" aria-hidden="true" d="M0,0h400v300h-400Z"/><g><g class="mark-line role-mark marks" role="graphics-object" aria-roledescription="line mark container"><path aria-label="Typ: Test; Anzahl Epochen: 0; Mittlerer Fehler: 0.0881879865378" role="graphics-symbol" aria-roledescription="line mark" d="M0,6.040044873952855L1.5384615384615385,16.558580514457468L3.076923076923077,56.93399177657235L4.615384615384616,76.68557626505692L6.153846153846154,80.66911805007192L7.6923076923076925,82.69143232868778L9.230769230769232,84.34098627832198L10.76923076923077,86.34704864687389L12.307692307692308,87.67702774041229L13.846153846153847,88.75465517242749L15.384615384615385,89.72534533176156L16.923076923076923,90.5410636630323L18.461538461538463,91.16035290062428L20,91.83409834901494L21.53846153846154,92.37607075936263L23.076923076923077,93.01064088940619L24.615384615384617,93.57584114703867L26.153846153846157,94.26821437146927L27.692307692307693,94.99799588488207L29.230769230769234,95.78601237800383L30.76923076923077,96.48050682412254L32.30769230769231,97.37570380998982L33.84615384615385,98.23353025648328L35.38461538461539,99.02119201918441L36.92307692307693,100.09646469520199L38.46153846153847,100.96001389125982L40,101.84148503467438L41.53846153846154,102.5393695053127L43.07692307692308,103.6715157743957L44.61538461538462,104.48159993522695L46.15384615384615,105.0291244044072L47.69230769230769,105.68315415746636L49.23076923076923,106.16682962410981L50.76923076923077,106.63054903141328L52.307692307692314,106.88916142616009L53.84615384615385,107.20666926354167L55.38461538461539,107.56846856739784L56.92307692307692,107.77509863384894L58.46153846153847,107.98214972019196L60,108.08445531874895L61.53846153846154,108.39896607730122L63.07692307692307,108.4758476457662L64.61538461538461,108.75405745787752L66.15384615384615,108.8066132325265L67.6923076923077,108.9088614616129L69.23076923076923,108.92123878002165L70.76923076923077,109.08348059488668L72.3076923076923,109.23147381593785L73.84615384615385,109.35131270024512L75.38461538461539,109.4290534655253L76.92307692307693,109.45634543895721L78.46153846153847,109.50909682239093L80,109.61302063531343L81.53846153846153,109.78122556375132L83.07692307692308,109.8572881685363L84.61538461538461,109.94963995698424L86.15384615384616,109.79061644110413L87.6923076923077,109.95605867356059L89.23076923076924,110.11005789041516L90.76923076923077,110.18170685403877L92.3076923076923,110.15821353842816L93.84615384615384,110.12680977582929L95.38461538461539,110.27374292413391L96.92307692307692,110.27358588245178L98.46153846153847,110.36816628442871L100,110.51292601558897L101.53846153846153,110.56534188489118L103.07692307692307,110.74594807707601L104.61538461538463,110.54829526692627L106.15384615384616,110.77126181787914L107.6923076923077,110.74376665055752L109.23076923076923,110.84898217684692L110.76923076923077,110.9936866081423L112.3076923076923,111.02079873283704L113.84615384615384,111.07534410225021L115.38461538461537,110.98568073163429L116.92307692307693,111.19561318515076L118.46153846153847,111.15896349979771L120,111.14990276594958L121.53846153846153,111.15505389041368L123.07692307692308,111.23286856131422L124.61538461538461,111.34204539573854L126.15384615384615,111.35892139540775L127.69230769230768,111.42602465632888L129.23076923076923,111.50689365135297L130.76923076923077,111.51503250002858L132.3076923076923,111.65272779762743L133.84615384615384,111.70112621039154L135.3846153846154,111.63316468397777L136.92307692307693,111.74371453622976L138.46153846153845,111.89152047865922L140,111.86336444483864L141.53846153846155,111.90775506612327L143.07692307692307,111.88554113937748L144.6153846153846,112.05656670240892L146.15384615384613,111.97453459931744L147.6923076923077,112.32854843967488L149.23076923076923,112.26076694826283L150.76923076923077,112.59658121400409L152.3076923076923,112.78468958205649L153.84615384615387,112.89232162137827L155.3846153846154,112.90428286625277L156.92307692307693,113.02133736511072L158.46153846153845,113.29613054792085L160,113.36336094472144L161.53846153846155,113.49604365726313L163.07692307692307,113.75919977823891L164.6153846153846,113.89192932595807L166.15384615384616,113.8197764754295L167.6923076923077,114.0657805941171L169.23076923076923,114.27891443793973L170.76923076923077,114.29366307953993L172.30769230769232,114.3642714454068L173.84615384615384,114.43743871317969L175.3846153846154,114.64693051659398L176.9230769230769,114.62852267755402L178.46153846153848,114.57024591250553L180,114.65424383059141L181.53846153846155,114.79924935847521L183.07692307692307,114.82378045717874L184.6153846153846,114.96131656070548L186.15384615384616,114.96366995076338L187.69230769230768,115.0051384129458L189.23076923076923,115.07550295338862L190.76923076923077,115.15242258707681L192.30769230769232,115.19563467138344L193.84615384615384,115.20828864433699L195.3846153846154,115.29911313619876L196.92307692307693,115.38489332888274L198.46153846153845,115.27284338242477L200,115.3603455879622L201.53846153846155,115.51254954602983L203.07692307692307,115.41310530155897L204.61538461538458,115.45458549840582L206.15384615384613,115.55469638357559L207.6923076923077,115.67229470755493L209.23076923076925,115.75698771824437L210.76923076923077,115.7353188118173L212.30769230769232,115.76495671437846L213.84615384615384,115.83136597441302L215.3846153846154,115.83333880537084L216.9230769230769,115.86328720053038L218.46153846153845,115.93534648418427L220.00000000000003,115.89771763732034L221.53846153846155,115.89780412614344L223.0769230769231,116.01489438778823L224.6153846153846,116.12145176364314L226.15384615384616,116.02103631529542L227.69230769230768,116.11858506997426L229.23076923076923,116.19826041989856L230.76923076923075,116.2790367172824L232.30769230769232,116.31750824550787L233.84615384615387,116.23824727204108L235.3846153846154,116.19397559099727L236.92307692307693,116.26681422607766L238.46153846153845,116.37909439288907L240,116.41125849758585L241.53846153846152,116.44982395486696L243.07692307692307,116.54222688327233L244.61538461538464,116.49364560014672L246.15384615384616,116.56649355880089L247.6923076923077,116.5832613284389L249.23076923076923,116.66063732571071L250.76923076923077,116.66843131598499L252.3076923076923,116.60464600556428L253.84615384615384,116.5293614897463L255.38461538461536,116.6836267751124L256.92307692307696,116.74946498953634L258.46153846153845,116.69642269197436L260,116.74915516955983L261.53846153846155,116.84512024124462L263.0769230769231,116.82369264049663L264.6153846153846,116.9405408617523L266.15384615384613,116.79099512596926L267.6923076923077,116.98227388163409L269.2307692307692,116.90505101448962L270.7692307692308,116.95002679609588L272.3076923076923,117.02047441568637L273.84615384615387,117.05939749048815L275.38461538461536,117.15841794179545L276.9230769230769,117.1254200239976L278.46153846153845,117.19705764618182L280,117.288119925393L281.53846153846155,117.1879365419348L283.0769230769231,117.2825381780664L284.61538461538464,117.2628443274233L286.15384615384613,117.404263611469L287.6923076923077,117.42787766787741L289.2307692307692,117.35616324262486L290.7692307692308,117.48676101366678L292.30769230769226,117.59545957255695L293.84615384615387,117.65025337744089L295.3846153846154,117.75619466271664L296.9230769230769,117.69297698305714L298.46153846153845,117.73771745049292L300,117.89445854309533L301.53846153846155,117.84421785010232L303.0769230769231,118.00802097552354L304.6153846153846,118.10400111911198L306.15384615384613,118.19403189130952L307.69230769230774,118.20083493366838L309.2307692307692,118.24562489572497L310.7692307692308,118.16141808198559L312.3076923076923,118.5403120290074L313.84615384615387,118.46297809647187L315.38461538461536,118.40272376106844L316.9230769230769,118.56353885183731L318.46153846153845,118.69217140807046L320,118.78643327703077L321.53846153846155,118.83347593247888L323.0769230769231,118.98061008089115L324.61538461538464,118.97857493410507L326.15384615384613,119.02766451239583L327.6923076923077,118.91162548498767L329.2307692307692,119.1562850235237L330.7692307692308,119.26452499141709L332.3076923076923,119.3038503949841L333.84615384615387,119.25117634236814L335.3846153846154,119.27738723655543L336.9230769230769,119.42568547609778L338.46153846153845,119.46167223569418L340,119.47517893277106L341.53846153846155,119.51829728980859L343.07692307692304,119.66004472536342L344.61538461538464,119.66069063378704L346.1538461538462,119.75327382485071L347.6923076923077,119.78214223765666L349.2307692307692,119.85044806367821L350.7692307692308,119.71381617089114L352.3076923076923,119.8100709925509L353.8461538461538,119.95467976149587L355.38461538461536,119.95174288749693L356.92307692307696,120.14198677821291L358.46153846153845,120.1539042716225L360,120.12471875382793L361.53846153846155,120.12626234855918L363.0769230769231,120.24210966709586L364.6153846153846,120.2522295837601L366.15384615384613,120.18360528681012L367.6923076923077,120.2660695753164L369.2307692307692,120.12227883355486L370.7692307692308,120.33831837276617L372.3076923076923,120.41532670458159L373.84615384615387,120.39090775781204L375.38461538461536,120.42263935113118L376.9230769230769,120.41860673990513L378.46153846153845,120.54252620372509L380,120.6669940923651L381.53846153846155,120.54789211187096L383.0769230769231,120.59363250931105" stroke="#4c78a8" stroke-width="2"/></g></g><path class="foreground" aria-hidden="true" d="" display="none"/></g></g><g class="mark-group role-legend" role="graphics-symbol" aria-roledescription="legend" aria-label="Symbol legend titled 'Typ' for stroke color with 2 values: Test, Train"><g transform="translate(418,0)"><path class="background" aria-hidden="true" d="M0,0h39v40h-39Z" pointer-events="none"/><g><g class="mark-group role-legend-entry"><g transform="translate(0,16)"><path class="background" aria-hidden="true" d="M0,0h0v0h0Z" pointer-events="none"/><g><g class="mark-group role-scope" role="graphics-object" aria-roledescription="group mark container"><g transform="translate(0,0)"><path class="background" aria-hidden="true" d="M0,0h38.412109375v11h-38.412109375Z" pointer-events="none" opacity="1"/><g><g class="mark-symbol role-legend-symbol" pointer-events="none"><path transform="translate(6,6)" d="M-5,0L5,0" stroke="#4c78a8" stroke-width="1.5" opacity="1"/></g><g class="mark-text role-legend-label" pointer-events="none"><text text-anchor="start" transform="translate(16,9)" font-family="sans-serif" font-size="10px" fill="#000" opacity="1">Test</text></g></g><path class="foreground" aria-hidden="true" d="" pointer-events="none" display="none"/></g><g transform="translate(0,13)"><path class="background" aria-hidden="true" d="M0,0h38.412109375v11h-38.412109375Z" pointer-events="none" opacity="1"/><g><g class="mark-symbol role-legend-symbol" pointer-events="none"><path transform="translate(6,6)" d="M-5,0L5,0" stroke="#f58518" stroke-width="1.5" opacity="1"/></g><g class="mark-text role-legend-label" pointer-events="none"><text text-anchor="start" transform="translate(16,9)" font-family="sans-serif" font-size="10px" fill="#000" opacity="1">Train</text></g></g><path class="foreground" aria-hidden="true" d="" pointer-events="none" display="none"/></g></g></g><path class="foreground" aria-hidden="true" d="" pointer-events="none" display="none"/></g></g><g class="mark-text role-legend-title" pointer-events="none"><text text-anchor="start" transform="translate(0,9)" font-family="sans-serif" font-size="11px" font-weight="bold" fill="#000" opacity="1">Typ</text></g></g><path class="foreground" aria-hidden="true" d="" pointer-events="none" display="none"/></g></g></g><path class="foreground" aria-hidden="true" d="" display="none"/></g></g></g></svg>