<svg xmlns="http://www.w3.org/2000/svg" xmlns:xlink="http://www.w3.org/1999/xlink" version="1.1" class="marks" width="509" height="347" viewBox="0 0 509 347"><rect width="509" height="347" fill="white"/><g fill="none" stroke-miterlimit="10" transform="translate(47,10)"><g class="mark-group role-frame root" role="graphics-object" aria-roledescription="group mark container"><g transform="translate(0,0)"><path class="background" aria-hidden="true" d="M0.5,0.5h400v300h-400Z" stroke="#ddd"/><g><g class="mark-group role-axis" aria-hidden="true"><g transform="translate(0.5,300.5)"><path class="background" aria-hidden="true" d="M0,0h0v0h0Z" pointer-events="none"/><g><g class="mark-rule role-axis-grid" pointer-events="none"><line transform="translate(0,-300)" x2="0" y2="300" stroke="#ddd" stroke-width="1" opacity="1"/><line transform="translate(31,-300)" x2="0" y2="300" stroke="#ddd" stroke-width="1" opacity="1"/><line transform="translate(62,-300)" x2="0" y2="300" stroke="#ddd" stroke-width="1" opacity="1"/><line transform="translate(92,-300)" x2="0" y2="300" stroke="#ddd" stroke-width="1" opacity="1"/><line transform="translate(123,-300)" x2="0" y2="300" stroke="#ddd" stroke-width="1" opacity="1"/><line transform="translate(154,-300)" x2="0" y2="300" stroke="#ddd" stroke-width="1" opacity="1"/><line transform="translate(185,-300)" x2="0" y2="300" stroke="#ddd" stroke-width="1" opacity="1"/><line transform="translate(215,-300)" x2="0" y2="300" stroke="#ddd" stroke-width="1" opacity="1"/><line transform="translate(246,-300)" x2="0" y2="300" stroke="#ddd" stroke-width="1" opacity="1"/><line transform="translate(277,-300)" x2="0" y2="300" stroke="#ddd" stroke-width="1" opacity="1"/><line transform="translate(308,-300)" x2="0" y2="300" stroke="#ddd" stroke-width="1" opacity="1"/><line transform="translate(338,-300)" x2="0" y2="300" stroke="#ddd" stroke-width="1" opacity="1"/><line transform="translate(369,-300)" x2="0" y2="300" stroke="#ddd" stroke-width="1" opacity="1"/><line transform="translate(400,-300)" x2="0" y2="300" stroke="#ddd" stroke-width="1" opacity="1"/></g></g><path class="foreground" aria-hidden="true" d="" pointer-events="none" display="none"/></g></g><g class="mark-group role-axis" aria-hidden="true"><g transform="translate(0.5,0.5)"><path class="background" aria-hidden="true" d="M0,0h0v0h0Z" pointer-events="none"/><g><g class="mark-rule role-axis-grid" pointer-events="none"><line transform="translate(0,300)" x2="400" y2="0" stroke="#ddd" stroke-width="1" opacity="1"/><line transform="translate(0,267)" x2="400" y2="0" stroke="#ddd" stroke-width="1" opacity="1"/><line transform="translate(0,233)" x2="400" y2="0" stroke="#ddd" stroke-width="1" opacity="1"/><line transform="translate(0,200)" x2="400" y2="0" stroke="#ddd" stroke-width="1" opacity="1"/><line transform="translate(0,167)" x2="400" y2="0" stroke="#ddd" stroke-width="1" opacity="1"/><line transform="translate(0,133)" x2="400" y2="0" stroke="#ddd" stroke-width="1" opacity="1"/><line transform="translate(0,100)" x2="400" y2="0" stroke="#ddd" stroke-width="1" opacity="1"/><line transform="translate(0,67)" x2="400" y2="0" stroke="#ddd" stroke-width="1" opacity="1"/><line transform="translate(0,33)" x2="400" y2="0" stroke="#ddd" stroke-width="1" opacity="1"/><line transform="translate(0,0)" x2="400" y2="0" stroke="#ddd" stroke-width="1" opacity="1"/></g></g><path class="foreground" aria-hidden="true" d="" pointer-events="none" display="none"/></g></g><g class="mark-group role-axis" role="graphics-symbol" aria-roledescription="axis" aria-label="X-axis titled 'Anzahl Epochen' for a linear scale with values from 0 to 260"><g transform="translate(0.5,300.5)"><path class="background" aria-hidden="true" d="M0,0h0v0h0Z" pointer-events="none"/><g><g class="mark-rule role-axis-tick" pointer-events="none"><line transform="translate(0,0)" x2="0" y2="5" stroke="#888" stroke-width="1" opacity="1"/><line transform="translate(31,0)" x2="0" y2="5" stroke="#888" stroke-width="1" opacity="1"/><line transform="translate(62,0)" x2="0" y2="5" stroke="#888" stroke-width="1" opacity="1"/><line transform="translate(92,0)" x2="0" y2="5" stroke="#888" stroke-width="1" opacity="1"/><line transform="translate(123,0)" x2="0" y2="5" stroke="#888" stroke-width="1" opacity="1"/><line transform="translate(154,0)" x2="0" y2="5" stroke="#888" stroke-width="1" opacity="1"/><line transform="translate(185,0)" x2="0" y2="5" stroke="#888" stroke-width="1" opacity="1"/><line transform="translate(215,0)" x2="0" y2="5" stroke="#888" stroke-width="1" opacity="1"/><line transform="translate(246,0)" x2="0" y2="5" stroke="#888" stroke-width="1" opacity="1"/><line transform="translate(277,0)" x2="0" y2="5" stroke="#888" stroke-width="1" opacity="1"/><line transform="translate(308,0)" x2="0" y2="5" stroke="#888" stroke-width="1" opacity="1"/><line transform="translate(338,0)" x2="0" y2="5" stroke="#888" stroke-width="1" opacity="1"/><line transform="translate(369,0)" x2="0" y2="5" stroke="#888" stroke-width="1" opacity="1"/><line transform="translate(400,0)" x2="0" y2="5" stroke="#888" stroke-width="1" opacity="1"/></g><g class="mark-text role-axis-label" pointer-events="none"><text text-anchor="start" transform="translate(0,15)" font-family="sans-serif" font-size="10px" fill="#000" opacity="1">0</text><text text-anchor="middle" transform="translate(30.76923076923077,15)" font-family="sans-serif" font-size="10px" fill="#000" opacity="1">20</text><text text-anchor="middle" transform="translate(61.53846153846154,15)" font-family="sans-serif" font-size="10px" fill="#000" opacity="1">40</text><text text-anchor="middle" transform="translate(92.3076923076923,15)" font-family="sans-serif" font-size="10px" fill="#000" opacity="1">60</text><text text-anchor="middle" transform="translate(123.07692307692308,15)" font-family="sans-serif" font-size="10px" fill="#000" opacity="1">80</text><text text-anchor="middle" transform="translate(153.84615384615387,15)" font-family="sans-serif" font-size="10px" fill="#000" opacity="1">100</text><text text-anchor="middle" transform="translate(184.6153846153846,15)" font-family="sans-serif" font-size="10px" fill="#000" opacity="1">120</text><text text-anchor="middle" transform="translate(215.3846153846154,15)" font-family="sans-serif" font-size="10px" fill="#000" opacity="1">140</text><text text-anchor="middle" transform="translate(246.15384615384616,15)" font-family="sans-serif" font-size="10px" fill="#000" opacity="1">160</text><text text-anchor="middle" transform="translate(276.9230769230769,15)" font-family="sans-serif" font-size="10px" fill="#000" opacity="1">180</text><text text-anchor="middle" transform="translate(307.69230769230774,15)" font-family="sans-serif" font-size="10px" fill="#000" opacity="1">200</text><text text-anchor="middle" transform="translate(338.46153846153845,15)" font-family="sans-serif" font-size="10px" fill="#000" opacity="1">220</text><text text-anchor="middle" transform="translate(369.2307692307692,15)" font-family="sans-serif" font-size="10px" fill="#000" opacity="1">240</text><text text-anchor="end" transform="translate(400,15)" font-family="sans-serif" font-size="10px" fill="#000" opacity="1">260</text></g><g class="mark-rule role-axis-domain" pointer-events="none"><line transform="translate(0,0)" x2="400" y2="0" stroke="#888" stroke-width="1" opacity="1"/></g><g class="mark-text role-axis-title" pointer-events="none"><text text-anchor="middle" transform="translate(200,30)" font-family="sans-serif" font-size="11px" font-weight="bold" fill="#000" opacity="1">Anzahl Epochen</text></g></g><path class="foreground" aria-hidden="true" d="" pointer-events="none" display="none"/></g></g><g class="mark-group role-axis" role="graphics-symbol" aria-roledescription="axis" aria-label="Y-axis titled 'Mittlerer Fehler' for a linear scale with values from 0.00 to 0.09"><g transform="translate(0.5,0.5)"><path class="background" aria-hidden="true" d="M0,0h0v0h0Z" pointer-events="none"/><g><g class="mark-rule role-axis-tick" pointer-events="none"><line transform="translate(0,300)" x2="-5" y2="0" stroke="#888" stroke-width="1" opacity="1"/><line transform="translate(0,267)" x2="-5" y2="0" stroke="#888" stroke-width="1" opacity="1"/><line transform="translate(0,233)" x2="-5" y2="0" stroke="#888" stroke-width="1" opacity="1"/><line transform="translate(0,200)" x2="-5" y2="0" stroke="#888" stroke-width="1" opacity="1"/><line transform="translate(0,167)" x2="-5" y2="0" stroke="#888" stroke-width="1" opacity="1"/><line transform="translate(0,133)" x2="-5" y2="0" stroke="#888" stroke-width="1" opacity="1"/><line transform="translate(0,100)" x2="-5" y2="0" stroke="#888" stroke-width="1" opacity="1"/><line transform="translate(0,67)" x2="-5" y2="0" stroke="#888" stroke-width="1" opacity="1"/><line transform="translate(0,33)" x2="-5" y2="0" stroke="#888" stroke-width="1" opacity="1"/><line transform="translate(0,0)" x2="-5" y2="0" stroke="#888" stroke-width="1" opacity="1"/></g><g class="mark-text role-axis-label" pointer-events="none"><text text-anchor="end" transform="translate(-7,303)" font-family="sans-serif" font-size="10px" fill="#000" opacity="1">0.00</text><text text-anchor="end" transform="translate(-7,269.66666666666663)" font-family="sans-serif" font-size="10px" fill="#000" opacity="1">0.01</text><text text-anchor="end" transform="translate(-7,236.33333333333334)" font-family="sans-serif" font-size="10px" fill="#000" opacity="1">0.02</text><text text-anchor="end" transform="translate(-7,203.00000000000003)" font-family="sans-serif" font-size="10px" fill="#000" opacity="1">0.03</text><text text-anchor="end" transform="translate(-7,169.66666666666669)" font-family="sans-serif" font-size="10px" fill="#000" opacity="1">0.04</text><text text-anchor="end" transform="translate(-7,136.33333333333331)" font-family="sans-serif" font-size="10px" fill="#000" opacity="1">0.05</text><text text-anchor="end" transform="translate(-7,103.00000000000001)" font-family="sans-serif" font-size="10px" fill="#000" opacity="1">0.06</text><text text-anchor="end" transform="translate(-7,69.66666666666663)" font-family="sans-serif" font-size="10px" fill="#000" opacity="1">0.07</text><text text-anchor="end" transform="translate(-7,36.333333333333314)" font-family="sans-serif" font-size="10px" fill="#000" opacity="1">0.08</text><text text-anchor="end" transform="translate(-7,3)" font-family="sans-serif" font-size="10px" fill="#000" opacity="1">0.09</text></g><g class="mark-rule role-axis-domain" pointer-events="none"><line transform="translate(0,300)" x2="0" y2="-300" stroke="#888" stroke-width="1" opacity="1"/></g><g class="mark-text role-axis-title" pointer-events="none"><text text-anchor="middle" transform="translate(-30.462890625,150) rotate(-90) translate(0,-2)" font-family="sans-serif" font-size="11px" font-weight="bold" fill="#000" opacity="1">Mittlerer Fehler</text></g></g><path class="foreground" aria-hidden="true" d="" pointer-events="none" display="none"/></g></g><g class="mark-group role-scope pathgroup" role="graphics-object" aria-roledescription="group mark container"><g transform="translate(0,0)"><path class="background" aria-hidden="true" d="M0,0h400v300h-400Z"/><g><g class="mark-line role-mark marks" role="graphics-object" aria-roledescription="line mark container"><path aria-label="Typ: Train; Anzahl Epochen: 0; Mittlerer Fehler: 0.0865574108703" role="graphics-symbol" aria-roledescription="line mark" d="M0,11.47529709906805L1.5384615384615385,11.703527080161214L3.076923076923077,11.684775813704452L4.615384615384616,11.81362853163762L6.153846153846154,11.972642689943292L7.6923076923076925,11.972204702241084L9.230769230769232,12.177627817505886L10.76923076923077,12.253015133596579L12.307692307692308,12.402236461639415L13.846153846153847,12.466002007325471L15.384615384615385,12.662261192287716L16.923076923076923,12.729057492244788L18.461538461538463,12.840784837802232L20,12.911153442802847L21.53846153846154,12.953950854994002L23.076923076923077,13.129989838316325L24.615384615384617,13.292824370520428L26.153846153846157,13.457891274066181L27.692307692307693,13.508918491147803L29.230769230769234,13.649521980966838L30.76923076923077,13.820655182713526L32.30769230769231,13.878611404271336L33.84615384615385,13.924490270160462L35.38461538461539,14.249518407242622L36.92307692307693,14.387576033671689L38.46153846153847,14.471204649834423L40,14.470236322709507L41.53846153846154,14.662495645738783L43.07692307692308,14.899562583083203L44.61538461538462,14.996934043509624L46.15384615384615,15.227488996017547L47.69230769230769,15.346423430102195L49.23076923076923,15.55648424795696L50.76923076923077,15.62608093732879L52.307692307692314,15.873864399535286L53.84615384615385,15.951643493913469L55.38461538461539,16.325935331128882L56.92307692307692,16.415051477295982L58.46153846153847,16.712938461984894L60,16.914812298048087L61.53846153846154,17.052957273664905L63.07692307692307,17.179922440222306L64.61538461538461,17.44550182705835L66.15384615384615,17.719575833706624L67.6923076923077,18.0036054125854L69.23076923076923,18.147342652082422L70.76923076923077,18.303658955153946L72.3076923076923,18.71431200277238L73.84615384615385,18.97946003647075L75.38461538461539,19.251992021288167L76.92307692307693,19.608881856713978L78.46153846153847,19.88170086627916L80,20.237145714816595L81.53846153846153,20.496067582141762L83.07692307692308,20.92859021254948L84.61538461538461,21.261287161282116L86.15384615384616,21.713307925633018L87.6923076923077,22.101285734346952L89.23076923076924,22.617272216649276L90.76923076923077,22.912930519807894L92.3076923076923,23.60143207368397L93.84615384615384,23.98105040192603L95.38461538461539,24.647421212423403L96.92307692307692,25.206802075817457L98.46153846153847,25.807545866285043L100,26.487093135004937L101.53846153846153,27.088711836508338L103.07692307692307,27.993699872777565L104.61538461538463,28.832568937823854L106.15384615384616,29.73923115503223L107.6923076923077,30.53294842441875L109.23076923076923,31.55732687030519L110.76923076923077,32.80685849132992L112.3076923076923,33.84461392249377L113.84615384615384,35.13767399958202L115.38461538461537,36.49651259183882L116.92307692307693,37.859615931908294L118.46153846153847,39.60429266804736L120,41.05931641090484L121.53846153846153,42.823762127331314L123.07692307692308,44.67291448797497L124.61538461538461,46.43708091406597L126.15384615384615,48.35470453614279L127.69230769230768,50.17482993148623L129.23076923076923,52.04874199061164L130.76923076923077,53.80139177044233L132.3076923076923,55.59897940783276L133.84615384615384,57.46428228559945L135.3846153846154,59.04444809116066L136.92307692307693,60.67226917615959L138.46153846153845,62.24676697027114L140,63.57587377230324L141.53846153846155,64.91129068391662L143.07692307692307,66.11375086719079L144.6153846153846,67.4325415953284L146.15384615384613,68.37220145832926L147.6923076923077,69.59049077261065L149.23076923076923,70.76309066088426L150.76923076923077,71.77183173951649L152.3076923076923,72.69440852105616L153.84615384615387,73.67547147330784L155.3846153846154,74.63680874733699L156.92307692307693,75.55760209049495L158.46153846153845,76.48374743404841L160,77.402249209228L161.53846153846155,78.24666762635817L163.07692307692307,79.09022615779014L164.6153846153846,79.92218569630667L166.15384615384616,80.748638510704L167.6923076923077,81.44878651059805L169.23076923076923,82.08595368833768L170.76923076923077,82.81871917701903L172.30769230769232,83.43221234778561L173.84615384615384,83.91720672093686L175.3846153846154,84.35519720826832L176.9230769230769,84.92702462133906L178.46153846153848,85.32063494480792L180,85.7489514208975L181.53846153846155,86.05931472210658L183.07692307692307,86.48064001685098L184.6153846153846,86.79836550284001L186.15384615384616,87.08518387838485L187.69230769230768,87.25539174463069L189.23076923076923,87.57888477827821L190.76923076923077,87.85531648567745L192.30769230769232,88.10771826122486L193.84615384615384,88.32025728410196L195.3846153846154,88.5555929903473L196.92307692307693,88.77220927249816L198.46153846153845,88.85934932955675L200,89.1280964549099L201.53846153846155,89.38923584563389L203.07692307692307,89.48802075215748L204.61538461538458,89.73876896003884L206.15384615384613,89.90239036225137L207.6923076923077,90.04051912398565L209.23076923076925,90.21989511592047L210.76923076923077,90.39882756769656L212.30769230769232,90.30845071233455L213.84615384615384,90.64300157839341L215.3846153846154,90.79090449072065L216.9230769230769,90.7259057142905L218.46153846153845,90.95369632400218L220.00000000000003,91.14356333655968L221.53846153846155,91.22267225313752L223.0769230769231,91.31445125454945L224.6153846153846,91.43580604521999L226.15384615384616,91.56803302466867L227.69230769230768,91.76697402837732L229.23076923076923,91.80648074973197L230.76923076923075,91.84608386740797L232.30769230769232,92.07278635530244L233.84615384615387,92.11389417094841L235.3846153846154,92.22985525571164L236.92307692307693,92.26974798809916L238.46153846153845,92.42340619010582L240,92.46315289111364L241.53846153846152,92.53900691512084L243.07692307692307,92.68378274781364L244.61538461538464,92.7023272429194L246.15384615384616,92.8408369954143L247.6923076923077,93.01123299768993L249.23076923076923,93.07678847440651L250.76923076923077,93.09673800709702L252.3076923076923,93.18432109873919L253.84615384615384,93.29735236685899L255.38461538461536,93.42421736745607L256.92307692307696,93.45716085462344L258.46153846153845,93.55806383703437L260,93.61817118312631L261.53846153846155,93.65581084220183L263.0769230769231,93.76927997384753L264.6153846153846,93.9099888006846L266.15384615384613,93.875558656596L267.6923076923077,93.96062761190389L269.2307692307692,94.10680521811756L270.7692307692308,94.20821679135165L272.3076923076923,94.23733248064914L273.84615384615387,94.2139620937052L275.38461538461536,94.38443430477663L276.9230769230769,94.48218336772351L278.46153846153845,94.6470921593053L280,94.57763197521368L281.53846153846155,94.65446183014483L283.0769230769231,94.739056955136L284.61538461538464,94.89544805671487L286.15384615384613,94.88278886392001L287.6923076923077,94.95101704129148L289.2307692307692,95.04572889279751L290.7692307692308,95.14428508423623L292.30769230769226,95.20076046742145L293.84615384615387,95.12202390247866L295.3846153846154,95.34709508575145L296.9230769230769,95.33322778131279L298.46153846153845,95.43291303728307L300,95.59496979983079L301.53846153846155,95.66262094747451L303.0769230769231,95.635343733288L304.6153846153846,95.76606431177682L306.15384615384613,95.81431602793079L307.69230769230774,95.87261247492972L309.2307692307692,95.86301939118478L310.7692307692308,96.01445600745221L312.3076923076923,96.09211089000816L313.84615384615387,96.0693885350511L315.38461538461536,96.20897564150037L316.9230769230769,96.32759110203808L318.46153846153845,96.32658674603415L320,96.39700190829377L321.53846153846155,96.47761343845298L323.0769230769231,96.59139148536183L324.61538461538464,96.53168084720768L326.15384615384613,96.6813343266646L327.6923076923077,96.6889123476687L329.2307692307692,96.77075403077262L330.7692307692308,96.70390156762937L332.3076923076923,96.874129612531L333.84615384615387,96.96748153794378L335.3846153846154,96.99699297724734L336.9230769230769,97.04928791948724L338.46153846153845,97.18431743482748L340,97.2795077023052L341.53846153846155,97.26993450451464L343.07692307692304,97.30420674951301L344.61538461538464,97.41266721061297L346.1538461538462,97.47058356269486L347.6923076923077,97.50242620883952L349.2307692307692,97.61176833084653L350.7692307692308,97.72032552975276L352.3076923076923,97.7267284301065L353.8461538461538,97.65527267895995L355.38461538461536,97.76787513068741L356.92307692307696,97.79968722058192L358.46153846153845,97.92520824287618L360,98.03779838340623L361.53846153846155,98.11728412196749L363.0769230769231,98.16764209951671L364.6153846153846,98.22333348648888L366.15384615384613,98.25145492241495L367.6923076923077,98.30421773450715L369.2307692307692,98.28968339023133L370.7692307692308,98.45408642930646L372.3076923076923,98.47329794650986L373.84615384615387,98.54250330300559L375.38461538461536,98.670422427711L376.9230769230769,98.60220269433087L378.46153846153845,98.73301739848796L380,98.73393389972902L381.53846153846155,98.81936155614399L383.0769230769231,98.8465796801306" stroke="#f58518" stroke-width="2"/></g></g><path class="foreground" aria-hidden="true" d="" display="none"/></g><g transform="translate(0,0)"><path class="background" aria-hidden="true" d="M0,0h400v300h-400Z"/><g><g class="mark-line role-mark marks" role="graphics-object" aria-roledescription="line mark container"><path aria-label="Typ: Test; Anzahl Epochen: 0; Mittlerer Fehler: 0.0880037126442" role="graphics-symbol" aria-roledescription="line mark" d="M0,6.654291186067784L1.5384615384615385,6.79835610919527L3.076923076923077,6.841302166382435L4.615384615384616,6.928799798091245L6.153846153846154,7.046970642275252L7.6923076923076925,7.181124306387366L9.230769230769232,7.2438943717214705L10.76923076923077,7.351769920852435L12.307692307692308,7.533913933568548L13.846153846153847,7.673673497305966L15.384615384615385,7.74279269907211L16.923076923076923,7.768939352697791L18.461538461538463,7.898754543728281L20,8.089007685581805L21.53846153846154,8.23834745420352L23.076923076923077,8.2867277165254L24.615384615384617,8.454285644822622L26.153846153846157,8.478338519732166L27.692307692307693,8.693317572275772L29.230769230769234,8.751328786214163L30.76923076923077,9.072289284732582L32.30769230769231,9.13518758283719L33.84615384615385,9.200795822673346L35.38461538461539,9.442841344409514L36.92307692307693,9.543436351749602L38.46153846153847,9.704387270741964L40,9.826020730866347L41.53846153846154,9.949836134910605L43.07692307692308,10.136576493581162L44.61538461538462,10.224763055642438L46.15384615384615,10.40622972779801L47.69230769230769,10.531569520632434L49.23076923076923,10.747556305593886L50.76923076923077,10.941024869680383L52.307692307692314,11.167249000734747L53.84615384615385,11.326773630248187L55.38461538461539,11.57805364992881L56.92307692307692,11.69145521190429L58.46153846153847,11.926275822851384L60,12.239333656099094L61.53846153846154,12.37116613321836L63.07692307692307,12.55447988708811L64.61538461538461,12.887778878211954L66.15384615384615,13.075683514277102L67.6923076923077,13.225388609700728L69.23076923076923,13.587004443009675L70.76923076923077,13.857589248153857L72.3076923076923,14.094722519318282L73.84615384615385,14.428172757228186L75.38461538461539,14.634180317322421L76.92307692307693,15.053927070564676L78.46153846153847,15.35523616605332L80,15.761193964216424L81.53846153846153,16.066735486189486L83.07692307692308,16.453590078486314L84.61538461538461,16.882285310162448L86.15384615384616,17.260105990701213L87.6923076923077,17.73101157612271L89.23076923076924,18.229630589485147L90.76923076923077,18.656891336043692L92.3076923076923,19.2957982420921L93.84615384615384,19.63753758205309L95.38461538461539,20.389418221182265L96.92307692307692,20.963813364505757L98.46153846153847,21.68334499001502L100,22.39153625236615L101.53846153846153,23.237996300061535L103.07692307692307,24.055653231011497L104.61538461538463,24.836496346526683L106.15384615384616,25.882128377755453L107.6923076923077,26.84173161784805L109.23076923076923,27.921132577790143L110.76923076923077,29.262774686018624L112.3076923076923,30.353245635827385L113.84615384615384,31.877565218342664L115.38461538461537,33.28414004709984L116.92307692307693,34.93492048647665L118.46153846153847,36.55415135953161L120,38.210329330629754L121.53846153846153,40.12484086884389L123.07692307692308,41.98936646183331L124.61538461538461,43.849448611338936L126.15384615384615,45.916506399710975L127.69230769230768,47.83326072825324L129.23076923076923,49.82463460829521L130.76923076923077,51.64566487073894L132.3076923076923,53.48264467385082L133.84615384615384,55.23180349005591L135.3846153846154,56.85969756709205L136.92307692307693,58.440774430831254L138.46153846153845,59.94401706589595L140,61.313645665844284L141.53846153846155,62.63851324717204L143.07692307692307,63.87199734648067L144.6153846153846,65.10687097907064L146.15384615384613,66.26076598962149L147.6923076923077,67.25655293299091L149.23076923076923,68.31258965863124L150.76923076923077,69.34953526490261L152.3076923076923,70.26094160974023L153.84615384615387,71.33496064278812L155.3846153846154,72.27097422712377L156.92307692307693,73.18509692947072L158.46153846153845,74.18186784618428L160,75.0435296032164L161.53846153846155,75.97765578991837L163.07692307692307,76.79852040277589L164.6153846153846,77.70361978974604L166.15384615384616,78.4078569875823L167.6923076923077,79.14221758643785L169.23076923076923,79.84915135635268L170.76923076923077,80.4617846177684L172.30769230769232,81.00977763533592L173.84615384615384,81.51493267052705L175.3846153846154,82.1232792817884L176.9230769230769,82.50189994772276L178.46153846153848,82.86869310670428L180,83.29512170619434L181.53846153846155,83.67328217460049L183.07692307692307,83.9318888882796L184.6153846153846,84.34181705945065L186.15384615384616,84.6183163838254L187.69230769230768,84.8962294972605L189.23076923076923,85.14927306936846L190.76923076923077,85.42039593060812L192.30769230769232,85.53252584404416L193.84615384615384,85.79894432591067L195.3846153846154,86.07750336329144L196.92307692307693,86.25101616813073L198.46153846153845,86.4136281940672L200,86.59390885796809L201.53846153846155,86.78740354047878L203.07692307692307,86.80678204529816L204.61538461538458,87.08351763586202L206.15384615384613,87.16674149036407L207.6923076923077,87.4258577823639L209.23076923076925,87.55333253906832L210.76923076923077,87.69330696927176L212.30769230769232,87.75060640441045L213.84615384615384,87.92577290700537L215.3846153846154,88.01060265137087L216.9230769230769,88.11117774910396L218.46153846153845,88.31554874777791L220.00000000000003,88.40104416012761L221.53846153846155,88.40863460467918L223.0769230769231,88.57987129853828L224.6153846153846,88.74583140843446L226.15384615384616,88.78649171027871L227.69230769230768,88.87517725427942L229.23076923076923,88.99038202232784L230.76923076923075,89.11666249235469L232.30769230769232,89.18280349009568L233.84615384615387,89.35885334180462L235.3846153846154,89.3720677743355L236.92307692307693,89.55791290435522L238.46153846153845,89.50004196829265L240,89.54410076969201L241.53846153846152,89.78561990790894L243.07692307692307,89.86616879701617L244.61538461538464,89.97339109579721L246.15384615384616,89.94432327648003L247.6923076923077,90.12137494153443L249.23076923076923,90.1754207909107L250.76923076923077,90.27760972579318L252.3076923076923,90.26737643612753L253.84615384615384,90.39745686782729L255.38461538461536,90.2428989609082L256.92307692307696,90.37667748828731L258.46153846153845,90.49933507210677L260,90.63762525717416L261.53846153846155,90.75509402900934L263.0769230769231,90.89079302632146L264.6153846153846,90.92815580467382L266.15384615384613,90.95327825182011L267.6923076923077,91.03724066581988L269.2307692307692,91.14618922273317L270.7692307692308,91.13265102108318L272.3076923076923,91.22628453705045L273.84615384615387,91.31624172959066L275.38461538461536,91.36560493045386L276.9230769230769,91.45831432607437L278.46153846153845,91.54932838347221L280,91.58770367503163L281.53846153846155,91.662055419551L283.0769230769231,91.75383295449944L284.61538461538464,91.73319389422736L286.15384615384613,91.82978409032025L287.6923076923077,91.99724938306544L289.2307692307692,92.02624824312L290.7692307692308,92.12156712181037L292.30769230769226,92.12441258132458L293.84615384615387,92.17805684440664L295.3846153846154,92.24343121879629L296.9230769230769,92.36716984046829L298.46153846153845,92.4286069555415L300,92.52372653120092L301.53846153846155,92.44694506956469L303.0769230769231,92.56004504859445L304.6153846153846,92.64304608934455L306.15384615384613,92.63397368292013L307.69230769230774,92.76080963512258L309.2307692307692,92.82351831595102L310.7692307692308,92.87424969176449L312.3076923076923,92.83231244319013L313.84615384615387,93.04292603499358L315.38461538461536,93.04895723859468L316.9230769230769,93.18091927303206L318.46153846153845,93.2733336670531L320,93.33318285644052L321.53846153846155,93.27514949772092L323.0769230769231,93.23235911627611L324.61538461538464,93.40420758558645L326.15384615384613,93.43912647002271L327.6923076923077,93.5632411390543L329.2307692307692,93.67006462481288L330.7692307692308,93.63232644067871L332.3076923076923,93.76623328361246L333.84615384615387,93.78892696566051L335.3846153846154,93.87908135023383L336.9230769230769,93.87677146328818L338.46153846153845,93.92953804797595L340,94.03903356028927L341.53846153846155,93.9538287412789L343.07692307692304,94.08526126709249L344.61538461538464,94.09450408485198L346.1538461538462,94.25254940158791L347.6923076923077,94.26975639330013L349.2307692307692,94.30806831353239L350.7692307692308,94.38600803001059L352.3076923076923,94.46939238243633L353.8461538461538,94.53215683913893L355.38461538461536,94.58399398459326L356.92307692307696,94.63890062438117L358.46153846153845,94.67996598945724L360,94.66470666229723L361.53846153846155,94.71886621581183L363.0769230769231,94.79209362632699L364.6153846153846,94.78699059949982L366.15384615384613,94.8998618250092L367.6923076923077,95.0344578259521L369.2307692307692,95.10460512505638L370.7692307692308,95.02904733849894L372.3076923076923,95.1417863782909L373.84615384615387,95.24992965161798L375.38461538461536,95.29344360861512L376.9230769230769,95.34837388330037L378.46153846153845,95.44288536740675L380,95.44554472797448L381.53846153846155,95.44243793934585L383.0769230769231,95.49901818649637" stroke="#4c78a8" stroke-width="2"/></g></g><path class="foreground" aria-hidden="true" d="" display="none"/></g></g><g class="mark-group role-legend" role="graphics-symbol" aria-roledescription="legend" aria-label="Symbol legend titled 'Typ' for stroke color with 2 values: Test, Train"><g transform="translate(418,0)"><path class="background" aria-hidden="true" d="M0,0h39v40h-39Z" pointer-events="none"/><g><g class="mark-group role-legend-entry"><g transform="translate(0,16)"><path class="background" aria-hidden="true" d="M0,0h0v0h0Z" pointer-events="none"/><g><g class="mark-group role-scope" role="graphics-object" aria-roledescription="group mark container"><g transform="translate(0,0)"><path class="background" aria-hidden="true" d="M0,0h38.412109375v11h-38.412109375Z" pointer-events="none" opacity="1"/><g><g class="mark-symbol role-legend-symbol" pointer-events="none"><path transform="translate(6,6)" d="M-5,0L5,0" stroke="#4c78a8" stroke-width="1.5" opacity="1"/></g><g class="mark-text role-legend-label" pointer-events="none"><text text-anchor="start" transform="translate(16,9)" font-family="sans-serif" font-size="10px" fill="#000" opacity="1">Test</text></g></g><path class="foreground" aria-hidden="true" d="" pointer-events="none" display="none"/></g><g transform="translate(0,13)"><path class="background" aria-hidden="true" d="M0,0h38.412109375v11h-38.412109375Z" pointer-events="none" opacity="1"/><g><g class="mark-symbol role-legend-symbol" pointer-events="none"><path transform="translate(6,6)" d="M-5,0L5,0" stroke="#f58518" stroke-width="1.5" opacity="1"/></g><g class="mark-text role-legend-label" pointer-events="none"><text text-anchor="start" transform="translate(16,9)" font-family="sans-serif" font-size="10px" fill="#000" opacity="1">Train</text></g></g><path class="foreground" aria-hidden="true" d="" pointer-events="none" display="none"/></g></g></g><path class="foreground" aria-hidden="true" d="" pointer-events="none" display="none"/></g></g><g class="mark-text role-legend-title" pointer-events="none"><text text-anchor="start" transform="translate(0,9)" font-family="sans-serif" font-size="11px" font-weight="bold" fill="#000" opacity="1">Typ</text></g></g><path class="foreground" aria-hidden="true" d="" pointer-events="none" display="none"/></g></g></g><path class="foreground" aria-hidden="true" d="" display="none"/></g></g></g></svg>