<svg xmlns="http://www.w3.org/2000/svg" xmlns:xlink="http://www.w3.org/1999/xlink" version="1.1" class="marks" width="509" height="347" viewBox="0 0 509 347"><rect width="509" height="347" fill="white"/><g fill="none" stroke-miterlimit="10" transform="translate(47,10)"><g class="mark-group role-frame root" role="graphics-object" aria-roledescription="group mark container"><g transform="translate(0,0)"><path class="background" aria-hidden="true" d="M0.5,0.5h400v300h-400Z" stroke="#ddd"/><g><g class="mark-group role-axis" aria-hidden="true"><g transform="translate(0.5,300.5)"><path class="background" aria-hidden="true" d="M0,0h0v0h0Z" pointer-events="none"/><g><g class="mark-rule role-axis-grid" pointer-events="none"><line transform="translate(0,-300)" x2="0" y2="300" stroke="#ddd" stroke-width="1" opacity="1"/><line transform="translate(50,-300)" x2="0" y2="300" stroke="#ddd" stroke-width="1" opacity="1"/><line transform="translate(100,-300)" x2="0" y2="300" stroke="#ddd" stroke-width="1" opacity="1"/><line transform="translate(150,-300)" x2="0" y2="300" stroke="#ddd" stroke-width="1" opacity="1"/><line transform="translate(200,-300)" x2="0" y2="300" stroke="#ddd" stroke-width="1" opacity="1"/><line transform="translate(250,-300)" x2="0" y2="300" stroke="#ddd" stroke-width="1" opacity="1"/><line transform="translate(300,-300)" x2="0" y2="300" stroke="#ddd" stroke-width="1" opacity="1"/><line transform="translate(350,-300)" x2="0" y2="300" stroke="#ddd" stroke-width="1" opacity="1"/><line transform="translate(400,-300)" x2="0" y2="300" stroke="#ddd" stroke-width="1" opacity="1"/></g></g><path class="foreground" aria-hidden="true" d="" pointer-events="none" display="none"/></g></g><g class="mark-group role-axis" aria-hidden="true"><g transform="translate(0.5,0.5)"><path class="background" aria-hidden="true" d="M0,0h0v0h0Z" pointer-events="none"/><g><g class="mark-rule role-axis-grid" pointer-events="none"><line transform="translate(0,300)" x2="400" y2="0" stroke="#ddd" stroke-width="1" opacity="1"/><line transform="translate(0,257)" x2="400" y2="0" stroke="#ddd" stroke-width="1" opacity="1"/><line transform="translate(0,214)" x2="400" y2="0" stroke="#ddd" stroke-width="1" opacity="1"/><line transform="translate(0,171)" x2="400" y2="0" stroke="#ddd" stroke-width="1" opacity="1"/><line transform="translate(0,129)" x2="400" y2="0" stroke="#ddd" stroke-width="1" opacity="1"/><line transform="translate(0,86)" x2="400" y2="0" stroke="#ddd" stroke-width="1" opacity="1"/><line transform="translate(0,43)" x2="400" y2="0" stroke="#ddd" stroke-width="1" opacity="1"/><line transform="translate(0,0)" x2="400" y2="0" stroke="#ddd" stroke-width="1" opacity="1"/></g></g><path class="foreground" aria-hidden="true" d="" pointer-events="none" display="none"/></g></g><g class="mark-group role-axis" role="graphics-symbol" aria-roledescription="axis" aria-label="X-axis titled 'Anzahl Epochen' for a linear scale with values from 0 to 160"><g transform="translate(0.5,300.5)"><path class="background" aria-hidden="true" d="M0,0h0v0h0Z" pointer-events="none"/><g><g class="mark-rule role-axis-tick" pointer-events="none"><line transform="translate(0,0)" x2="0" y2="5" stroke="#888" stroke-width="1" opacity="1"/><line transform="translate(50,0)" x2="0" y2="5" stroke="#888" stroke-width="1" opacity="1"/><line transform="translate(100,0)" x2="0" y2="5" stroke="#888" stroke-width="1" opacity="1"/><line transform="translate(150,0)" x2="0" y2="5" stroke="#888" stroke-width="1" opacity="1"/><line transform="translate(200,0)" x2="0" y2="5" stroke="#888" stroke-width="1" opacity="1"/><line transform="translate(250,0)" x2="0" y2="5" stroke="#888" stroke-width="1" opacity="1"/><line transform="translate(300,0)" x2="0" y2="5" stroke="#888" stroke-width="1" opacity="1"/><line transform="translate(350,0)" x2="0" y2="5" stroke="#888" stroke-width="1" opacity="1"/><line transform="translate(400,0)" x2="0" y2="5" stroke="#888" stroke-width="1" opacity="1"/></g><g class="mark-text role-axis-label" pointer-events="none"><text text-anchor="start" transform="translate(0,15)" font-family="sans-serif" font-size="10px" fill="#000" opacity="1">0</text><text text-anchor="middle" transform="translate(50,15)" font-family="sans-serif" font-size="10px" fill="#000" opacity="1">20</text><text text-anchor="middle" transform="translate(100,15)" font-family="sans-serif" font-size="10px" fill="#000" opacity="1">40</text><text text-anchor="middle" transform="translate(150,15)" font-family="sans-serif" font-size="10px" fill="#000" opacity="1">60</text><text text-anchor="middle" transform="translate(200,15)" font-family="sans-serif" font-size="10px" fill="#000" opacity="1">80</text><text text-anchor="middle" transform="translate(250,15)" font-family="sans-serif" font-size="10px" fill="#000" opacity="1">100</text><text text-anchor="middle" transform="translate(300,15)" font-family="sans-serif" font-size="10px" fill="#000" opacity="1">120</text><text text-anchor="middle" transform="translate(350,15)" font-family="sans-serif" font-size="10px" fill="#000" opacity="1">140</text><text text-anchor="end" transform="translate(400,15)" font-family="sans-serif" font-size="10px" fill="#000" opacity="1">160</text></g><g class="mark-rule role-axis-domain" pointer-events="none"><line transform="translate(0,0)" x2="400" y2="0" stroke="#888" stroke-width="1" opacity="1"/></g><g class="mark-text role-axis-title" pointer-events="none"><text text-anchor="middle" transform="translate(200,30)" font-family="sans-serif" font-size="11px" font-weight="bold" fill="#000" opacity="1">Anzahl Epochen</text></g></g><path class="foreground" aria-hidden="true" d="" pointer-events="none" display="none"/></g></g><g class="mark-group role-axis" role="graphics-symbol" aria-roledescription="axis" aria-label="Y-axis titled 'Genauigkeit' for a linear scale with values from 0.00 to 0.35"><g transform="translate(0.5,0.5)"><path class="background" aria-hidden="true" d="M0,0h0v0h0Z" pointer-events="none"/><g><g class="mark-rule role-axis-tick" pointer-events="none"><line transform="translate(0,300)" x2="-5" y2="0" stroke="#888" stroke-width="1" opacity="1"/><line transform="translate(0,257)" x2="-5" y2="0" stroke="#888" stroke-width="1" opacity="1"/><line transform="translate(0,214)" x2="-5" y2="0" stroke="#888" stroke-width="1" opacity="1"/><line transform="translate(0,171)" x2="-5" y2="0" stroke="#888" stroke-width="1" opacity="1"/><line transform="translate(0,129)" x2="-5" y2="0" stroke="#888" stroke-width="1" opacity="1"/><line transform="translate(0,86)" x2="-5" y2="0" stroke="#888" stroke-width="1" opacity="1"/><line transform="translate(0,43)" x2="-5" y2="0" stroke="#888" stroke-width="1" opacity="1"/><line transform="translate(0,0)" x2="-5" y2="0" stroke="#888" stroke-width="1" opacity="1"/></g><g class="mark-text role-axis-label" pointer-events="none"><text text-anchor="end" transform="translate(-7,303)" font-family="sans-serif" font-size="10px" fill="#000" opacity="1">0.00</text><text text-anchor="end" transform="translate(-7,260.1428571428571)" font-family="sans-serif" font-size="10px" fill="#000" opacity="1">0.05</text><text text-anchor="end" transform="translate(-7,217.28571428571425)" font-family="sans-serif" font-size="10px" fill="#000" opacity="1">0.10</text><text text-anchor="end" transform="translate(-7,174.42857142857142)" font-family="sans-serif" font-size="10px" fill="#000" opacity="1">0.15</text><text text-anchor="end" transform="translate(-7,131.57142857142856)" font-family="sans-serif" font-size="10px" fill="#000" opacity="1">0.20</text><text text-anchor="end" transform="translate(-7,88.71428571428571)" font-family="sans-serif" font-size="10px" fill="#000" opacity="1">0.25</text><text text-anchor="end" transform="translate(-7,45.85714285714284)" font-family="sans-serif" font-size="10px" fill="#000" opacity="1">0.30</text><text text-anchor="end" transform="translate(-7,3)" font-family="sans-serif" font-size="10px" fill="#000" opacity="1">0.35</text></g><g class="mark-rule role-axis-domain" pointer-events="none"><line transform="translate(0,300)" x2="0" y2="-300" stroke="#888" stroke-width="1" opacity="1"/></g><g class="mark-text role-axis-title" pointer-events="none"><text text-anchor="middle" transform="translate(-30.462890625,150) rotate(-90) translate(0,-2)" font-family="sans-serif" font-size="11px" font-weight="bold" fill="#000" opacity="1">Genauigkeit</text></g></g><path class="foreground" aria-hidden="true" d="" pointer-events="none" display="none"/></g></g><g class="mark-group role-scope pathgroup" role="graphics-object" aria-roledescription="group mark container"><g transform="translate(0,0)"><path class="background" aria-hidden="true" d="M0,0h400v300h-400Z"/><g><g class="mark-line role-mark marks" role="graphics-object" aria-roledescription="line mark container"><path aria-label="Typ: Train; Anzahl Epochen: 1; Genauigkeit: 0" role="graphics-symbol" aria-roledescription="line mark" d="M2.5,300L5,300L7.5,300L10,300L12.5,300L15,300L17.5,300L20,300L22.5,300L25,300L27.500000000000004,300L30,300L32.5,300L35,297.54926981404424L37.5,287.7463496689286L40,273.34830995116914L42.5,266.91514338765825L45,272.1229459558214L47.5,287.1336668729782L50,291.42244484807765L52.5,284.98927748629023L55.00000000000001,273.34830995116914L57.49999999999999,240.56979673249378L60,225.86541601589747L62.5,193.08689960411616L65,188.49178382328577L67.5,174.7064173221588L70,168.2732539517539L72.5,153.87521982192993L75,148.66741725376673L77.5,139.17083910533358L80,137.63913171631947L82.5,129.06158055577959L85,125.0791387898581L87.5,116.50158762931824L90,108.84305068424769L92.5,112.82549245016914L95,105.77963590621948L97.5,99.04012594904218L100,96.58940434455872L102.49999999999999,95.05769695554459L105,89.54354780060902L107.5,83.41673101697647L110.00000000000001,84.3357580048697L112.5,77.59623527526855L114.99999999999999,76.3708744730268L117.5,75.75820684432983L120,72.08209889275685L122.50000000000001,71.77576507840836L125,68.40601648603165L127.49999999999999,67.18063013894215L130,68.71235030038014L132.5,64.72990853445869L135,67.48698949813843L137.5,64.11721536091395L140,63.19821391786847L142.5,59.52210596629549L145,61.05382612773348L147.5,59.21577215194702L150,59.52210596629549L152.5,57.07138436181203L155,57.07138436181203L157.5,56.15235737391878L160,56.15235737391878L162.5,55.53966420037404L165,54.926996571677066L167.5,55.84602355957031L170,54.314303398132324L172.5,54.00796958378382L175,53.39527641023908L177.5,52.16991560799733L180,53.39527641023908L182.5,50.944554805755615L185,51.55722243445259L187.5,50.944554805755615L190,49.71919400351387L192.5,50.33186163221084L195,50.33186163221084L197.5,49.71919400351387L200,49.41283464431763L202.5,49.71919400351387L204.99999999999997,48.49383320127212L207.50000000000003,49.71919400351387L210,48.80016701562062L212.5,47.574806213378906L215,47.881140027727376L217.49999999999997,48.18747384207588L220.00000000000003,47.268446854182635L222.5,48.49383320127212L225,47.574806213378906L227.5,47.574806213378906L229.99999999999997,47.268446854182635L232.50000000000003,47.268446854182635L235,46.34944541113716L237.5,46.04308605194092L240,45.430418423243914L242.49999999999997,46.04308605194092L245.00000000000003,45.430418423243914L247.5,45.430418423243914L250,45.12405906404767L252.5,44.51139143535067L254.99999999999997,44.81772524969917L257.5,44.51139143535067L260,44.81772524969917L262.5,44.51139143535067L265,44.51139143535067L267.5,43.28603063310895L270,43.898698261805926L272.5,42.97967127391268L275,43.898698261805926L277.5,42.67333745956421L280,42.97967127391268L282.5,42.06064428601943L285,41.75431047167096L287.5,41.447976657322464L290,41.14164284297396L292.5,39.916256495884475L295,39.916256495884475L297.5,39.916256495884475L300,40.22261585508071L302.5,39.60992268153597L305,39.60992268153597L307.5,38.997255052838995L310,38.997255052838995L312.5,38.078228064945755L315,38.38456187929425L317.5,37.465534891401006L320,37.465534891401006L322.5,37.465534891401006L325,36.54650790350777L327.5,35.933840274810755L330,35.62748091561452L332.5,35.321147101266014L335,33.7894524846758L337.5,31.645064694540835L340,31.03237152099606L342.5,29.194317545209604L345,27.662622928619353L347.5,25.21187577928815L350,21.229459558214437L352.5,18.16604478018623L355,14.489936828613247L357.5,12.95824221202303L360,12.95824221202303L362.5,9.588493619646322L365,7.7504396438598295L367.5,7.44408028466359L370,6.5250788416181145L372.5,6.218719482421841" stroke="#f58518" stroke-width="2"/></g></g><path class="foreground" aria-hidden="true" d="" display="none"/></g><g transform="translate(0,0)"><path class="background" aria-hidden="true" d="M0,0h400v300h-400Z"/><g><g class="mark-line role-mark marks" role="graphics-object" aria-roledescription="line mark container"><path aria-label="Typ: Test; Anzahl Epochen: 1; Genauigkeit: 0" role="graphics-symbol" aria-roledescription="line mark" d="M2.5,300L5,300L7.5,300L10,300L12.5,300L15,300L17.5,300L20,300L22.5,300L25,300L27.500000000000004,300L30,300L32.5,300L35,293.5660670910563L37.5,281.41308182052205L40,264.9708100727626L42.5,265.6856890235628L45,279.26843858190944L47.5,294.280948436686L50,292.1363043997969L52.5,284.2726087995938L55.00000000000001,258.5368771638189L57.49999999999999,248.5285367284502L60,214.92910470281325L62.5,207.78029603617534L65,184.90408658981323L67.5,181.32968544960022L70,166.31717000688826L72.5,152.73442523820057L75,137.7219097954886L77.5,131.28798007965088L80,124.13916502680097L82.5,120.56475111416407L85,110.55642025811329L87.5,111.27129282270157L90,109.84153492110114L92.5,109.126649584089L95,101.26296196665082L97.5,101.97783453123908L100,99.8331912926265L102.49999999999999,91.9695036751883L105,86.25044652393885L107.5,88.39508976255142L110.00000000000001,85.53557395935059L112.5,84.82067584991455L114.99999999999999,84.10580328532625L117.5,80.53138937268936L120,76.95697546005249L122.50000000000001,75.52723033087592L125,75.52723033087592L127.49999999999999,75.52723033087592L130,73.38258709226334L132.5,74.81233222143989L135,69.09330061503816L137.5,69.80817317962646L140,64.804014137813L142.5,66.23375926698957L145,64.804014137813L147.5,63.3742434637887L150,61.22960022517611L152.5,64.08911602837696L155,61.22960022517611L157.5,61.22960022517611L160,60.51470211574007L162.5,60.51470211574007L165,60.51470211574007L167.5,60.51470211574007L170,60.51470211574007L172.5,60.51470211574007L175,60.51470211574007L177.5,59.79982955115181L180,59.79982955115181L182.5,60.51470211574007L185,59.08495698656354L187.5,59.08495698656354L190,59.08495698656354L192.5,59.08495698656354L195,59.08495698656354L197.5,59.08495698656354L200,58.370058877127505L202.5,59.08495698656354L204.99999999999997,58.370058877127505L207.50000000000003,58.370058877127505L210,58.370058877127505L212.5,58.370058877127505L215,58.370058877127505L217.49999999999997,58.370058877127505L220.00000000000003,58.370058877127505L222.5,56.940313747950945L225,58.370058877127505L227.5,58.370058877127505L229.99999999999997,56.940313747950945L232.50000000000003,56.22541563851491L235,56.22541563851491L237.5,56.22541563851491L240,57.65518631253921L242.49999999999997,56.22541563851491L245.00000000000003,54.080772399902344L247.5,55.51054307392664L250,54.080772399902344L252.5,54.79567050933838L254.99999999999997,54.080772399902344L257.5,54.080772399902344L260,54.080772399902344L262.5,54.080772399902344L265,54.080772399902344L267.5,54.080772399902344L270,54.080772399902344L272.5,54.080772399902344L275,52.651027270725784L277.5,53.365899835314046L280,52.651027270725784L282.5,52.651027270725784L285,52.651027270725784L287.5,52.651027270725784L290,52.651027270725784L292.5,52.651027270725784L295,52.651027270725784L297.5,51.22125659670148L300,51.93612916128975L302.5,51.93612916128975L305,51.93612916128975L307.5,50.50638403211318L310,48.361740793500616L312.5,49.076613358088885L315,48.361740793500616L317.5,48.361740793500616L320,48.361740793500616L322.5,48.361740793500616L325,47.64684268406458L327.5,47.64684268406458L330,46.21709755488802L332.5,44.78732688086372L335,44.78732688086372L337.5,43.35755620683942L340,43.35755620683942L342.5,41.212912968226824L345,39.06826972961426L347.5,38.35339716502596L350,34.77898325238906L352.5,31.9194674491882L355,31.9194674491882L357.5,29.774824210575634L360,29.0599261011396L362.5,26.20041029793874L365,26.20041029793874L367.5,24.05576705932614L370,23.340868949890105L372.5,21.19622571127754" stroke="#4c78a8" stroke-width="2"/></g></g><path class="foreground" aria-hidden="true" d="" display="none"/></g></g><g class="mark-group role-legend" role="graphics-symbol" aria-roledescription="legend" aria-label="Symbol legend titled 'Typ' for stroke color with 2 values: Test, Train"><g transform="translate(418,0)"><path class="background" aria-hidden="true" d="M0,0h39v40h-39Z" pointer-events="none"/><g><g class="mark-group role-legend-entry"><g transform="translate(0,16)"><path class="background" aria-hidden="true" d="M0,0h0v0h0Z" pointer-events="none"/><g><g class="mark-group role-scope" role="graphics-object" aria-roledescription="group mark container"><g transform="translate(0,0)"><path class="background" aria-hidden="true" d="M0,0h38.412109375v11h-38.412109375Z" pointer-events="none" opacity="1"/><g><g class="mark-symbol role-legend-symbol" pointer-events="none"><path transform="translate(6,6)" d="M-5,0L5,0" stroke="#4c78a8" stroke-width="1.5" opacity="1"/></g><g class="mark-text role-legend-label" pointer-events="none"><text text-anchor="start" transform="translate(16,9)" font-family="sans-serif" font-size="10px" fill="#000" opacity="1">Test</text></g></g><path class="foreground" aria-hidden="true" d="" pointer-events="none" display="none"/></g><g transform="translate(0,13)"><path class="background" aria-hidden="true" d="M0,0h38.412109375v11h-38.412109375Z" pointer-events="none" opacity="1"/><g><g class="mark-symbol role-legend-symbol" pointer-events="none"><path transform="translate(6,6)" d="M-5,0L5,0" stroke="#f58518" stroke-width="1.5" opacity="1"/></g><g class="mark-text role-legend-label" pointer-events="none"><text text-anchor="start" transform="translate(16,9)" font-family="sans-serif" font-size="10px" fill="#000" opacity="1">Train</text></g></g><path class="foreground" aria-hidden="true" d="" pointer-events="none" display="none"/></g></g></g><path class="foreground" aria-hidden="true" d="" pointer-events="none" display="none"/></g></g><g class="mark-text role-legend-title" pointer-events="none"><text text-anchor="start" transform="translate(0,9)" font-family="sans-serif" font-size="11px" font-weight="bold" fill="#000" opacity="1">Typ</text></g></g><path class="foreground" aria-hidden="true" d="" pointer-events="none" display="none"/></g></g></g><path class="foreground" aria-hidden="true" d="" display="none"/></g></g></g></svg>