<svg xmlns="http://www.w3.org/2000/svg" xmlns:xlink="http://www.w3.org/1999/xlink" version="1.1" class="marks" width="509" height="347" viewBox="0 0 509 347"><rect width="509" height="347" fill="white"/><g fill="none" stroke-miterlimit="10" transform="translate(47,10)"><g class="mark-group role-frame root" role="graphics-object" aria-roledescription="group mark container"><g transform="translate(0,0)"><path class="background" aria-hidden="true" d="M0.5,0.5h400v300h-400Z" stroke="#ddd"/><g><g class="mark-group role-axis" aria-hidden="true"><g transform="translate(0.5,300.5)"><path class="background" aria-hidden="true" d="M0,0h0v0h0Z" pointer-events="none"/><g><g class="mark-rule role-axis-grid" pointer-events="none"><line transform="translate(0,-300)" x2="0" y2="300" stroke="#ddd" stroke-width="1" opacity="1"/><line transform="translate(40,-300)" x2="0" y2="300" stroke="#ddd" stroke-width="1" opacity="1"/><line transform="translate(80,-300)" x2="0" y2="300" stroke="#ddd" stroke-width="1" opacity="1"/><line transform="translate(120,-300)" x2="0" y2="300" stroke="#ddd" stroke-width="1" opacity="1"/><line transform="translate(160,-300)" x2="0" y2="300" stroke="#ddd" stroke-width="1" opacity="1"/><line transform="translate(200,-300)" x2="0" y2="300" stroke="#ddd" stroke-width="1" opacity="1"/><line transform="translate(240,-300)" x2="0" y2="300" stroke="#ddd" stroke-width="1" opacity="1"/><line transform="translate(280,-300)" x2="0" y2="300" stroke="#ddd" stroke-width="1" opacity="1"/><line transform="translate(320,-300)" x2="0" y2="300" stroke="#ddd" stroke-width="1" opacity="1"/><line transform="translate(360,-300)" x2="0" y2="300" stroke="#ddd" stroke-width="1" opacity="1"/><line transform="translate(400,-300)" x2="0" y2="300" stroke="#ddd" stroke-width="1" opacity="1"/></g></g><path class="foreground" aria-hidden="true" d="" pointer-events="none" display="none"/></g></g><g class="mark-group role-axis" aria-hidden="true"><g transform="translate(0.5,0.5)"><path class="background" aria-hidden="true" d="M0,0h0v0h0Z" pointer-events="none"/><g><g class="mark-rule role-axis-grid" pointer-events="none"><line transform="translate(0,300)" x2="400" y2="0" stroke="#ddd" stroke-width="1" opacity="1"/><line transform="translate(0,263)" x2="400" y2="0" stroke="#ddd" stroke-width="1" opacity="1"/><line transform="translate(0,225)" x2="400" y2="0" stroke="#ddd" stroke-width="1" opacity="1"/><line transform="translate(0,188)" x2="400" y2="0" stroke="#ddd" stroke-width="1" opacity="1"/><line transform="translate(0,150)" x2="400" y2="0" stroke="#ddd" stroke-width="1" opacity="1"/><line transform="translate(0,113)" x2="400" y2="0" stroke="#ddd" stroke-width="1" opacity="1"/><line transform="translate(0,75)" x2="400" y2="0" stroke="#ddd" stroke-width="1" opacity="1"/><line transform="translate(0,38)" x2="400" y2="0" stroke="#ddd" stroke-width="1" opacity="1"/><line transform="translate(0,0)" x2="400" y2="0" stroke="#ddd" stroke-width="1" opacity="1"/></g></g><path class="foreground" aria-hidden="true" d="" pointer-events="none" display="none"/></g></g><g class="mark-group role-axis" role="graphics-symbol" aria-roledescription="axis" aria-label="X-axis titled 'Anzahl Epochen' for a linear scale with values from 0 to 200"><g transform="translate(0.5,300.5)"><path class="background" aria-hidden="true" d="M0,0h0v0h0Z" pointer-events="none"/><g><g class="mark-rule role-axis-tick" pointer-events="none"><line transform="translate(0,0)" x2="0" y2="5" stroke="#888" stroke-width="1" opacity="1"/><line transform="translate(40,0)" x2="0" y2="5" stroke="#888" stroke-width="1" opacity="1"/><line transform="translate(80,0)" x2="0" y2="5" stroke="#888" stroke-width="1" opacity="1"/><line transform="translate(120,0)" x2="0" y2="5" stroke="#888" stroke-width="1" opacity="1"/><line transform="translate(160,0)" x2="0" y2="5" stroke="#888" stroke-width="1" opacity="1"/><line transform="translate(200,0)" x2="0" y2="5" stroke="#888" stroke-width="1" opacity="1"/><line transform="translate(240,0)" x2="0" y2="5" stroke="#888" stroke-width="1" opacity="1"/><line transform="translate(280,0)" x2="0" y2="5" stroke="#888" stroke-width="1" opacity="1"/><line transform="translate(320,0)" x2="0" y2="5" stroke="#888" stroke-width="1" opacity="1"/><line transform="translate(360,0)" x2="0" y2="5" stroke="#888" stroke-width="1" opacity="1"/><line transform="translate(400,0)" x2="0" y2="5" stroke="#888" stroke-width="1" opacity="1"/></g><g class="mark-text role-axis-label" pointer-events="none"><text text-anchor="start" transform="translate(0,15)" font-family="sans-serif" font-size="10px" fill="#000" opacity="1">0</text><text text-anchor="middle" transform="translate(40,15)" font-family="sans-serif" font-size="10px" fill="#000" opacity="1">20</text><text text-anchor="middle" transform="translate(80,15)" font-family="sans-serif" font-size="10px" fill="#000" opacity="1">40</text><text text-anchor="middle" transform="translate(120,15)" font-family="sans-serif" font-size="10px" fill="#000" opacity="1">60</text><text text-anchor="middle" transform="translate(160,15)" font-family="sans-serif" font-size="10px" fill="#000" opacity="1">80</text><text text-anchor="middle" transform="translate(200,15)" font-family="sans-serif" font-size="10px" fill="#000" opacity="1">100</text><text text-anchor="middle" transform="translate(240,15)" font-family="sans-serif" font-size="10px" fill="#000" opacity="1">120</text><text text-anchor="middle" transform="translate(280,15)" font-family="sans-serif" font-size="10px" fill="#000" opacity="1">140</text><text text-anchor="middle" transform="translate(320,15)" font-family="sans-serif" font-size="10px" fill="#000" opacity="1">160</text><text text-anchor="middle" transform="translate(360,15)" font-family="sans-serif" font-size="10px" fill="#000" opacity="1">180</text><text text-anchor="end" transform="translate(400,15)" font-family="sans-serif" font-size="10px" fill="#000" opacity="1">200</text></g><g class="mark-rule role-axis-domain" pointer-events="none"><line transform="translate(0,0)" x2="400" y2="0" stroke="#888" stroke-width="1" opacity="1"/></g><g class="mark-text role-axis-title" pointer-events="none"><text text-anchor="middle" transform="translate(200,30)" font-family="sans-serif" font-size="11px" font-weight="bold" fill="#000" opacity="1">Anzahl Epochen</text></g></g><path class="foreground" aria-hidden="true" d="" pointer-events="none" display="none"/></g></g><g class="mark-group role-axis" role="graphics-symbol" aria-roledescription="axis" aria-label="Y-axis titled 'Genauigkeit' for a linear scale with values from 0.0 to 0.4"><g transform="translate(0.5,0.5)"><path class="background" aria-hidden="true" d="M0,0h0v0h0Z" pointer-events="none"/><g><g class="mark-rule role-axis-tick" pointer-events="none"><line transform="translate(0,300)" x2="-5" y2="0" stroke="#888" stroke-width="1" opacity="1"/><line transform="translate(0,263)" x2="-5" y2="0" stroke="#888" stroke-width="1" opacity="1"/><line transform="translate(0,225)" x2="-5" y2="0" stroke="#888" stroke-width="1" opacity="1"/><line transform="translate(0,188)" x2="-5" y2="0" stroke="#888" stroke-width="1" opacity="1"/><line transform="translate(0,150)" x2="-5" y2="0" stroke="#888" stroke-width="1" opacity="1"/><line transform="translate(0,113)" x2="-5" y2="0" stroke="#888" stroke-width="1" opacity="1"/><line transform="translate(0,75)" x2="-5" y2="0" stroke="#888" stroke-width="1" opacity="1"/><line transform="translate(0,38)" x2="-5" y2="0" stroke="#888" stroke-width="1" opacity="1"/><line transform="translate(0,0)" x2="-5" y2="0" stroke="#888" stroke-width="1" opacity="1"/></g><g class="mark-text role-axis-label" pointer-events="none"><text text-anchor="end" transform="translate(-7,303)" font-family="sans-serif" font-size="10px" fill="#000" opacity="1">0.00</text><text text-anchor="end" transform="translate(-7,265.5)" font-family="sans-serif" font-size="10px" fill="#000" opacity="1">0.05</text><text text-anchor="end" transform="translate(-7,228)" font-family="sans-serif" font-size="10px" fill="#000" opacity="1">0.10</text><text text-anchor="end" transform="translate(-7,190.5)" font-family="sans-serif" font-size="10px" fill="#000" opacity="1">0.15</text><text text-anchor="end" transform="translate(-7,153)" font-family="sans-serif" font-size="10px" fill="#000" opacity="1">0.20</text><text text-anchor="end" transform="translate(-7,115.5)" font-family="sans-serif" font-size="10px" fill="#000" opacity="1">0.25</text><text text-anchor="end" transform="translate(-7,78.00000000000003)" font-family="sans-serif" font-size="10px" fill="#000" opacity="1">0.30</text><text text-anchor="end" transform="translate(-7,40.500000000000036)" font-family="sans-serif" font-size="10px" fill="#000" opacity="1">0.35</text><text text-anchor="end" transform="translate(-7,3)" font-family="sans-serif" font-size="10px" fill="#000" opacity="1">0.40</text></g><g class="mark-rule role-axis-domain" pointer-events="none"><line transform="translate(0,300)" x2="0" y2="-300" stroke="#888" stroke-width="1" opacity="1"/></g><g class="mark-text role-axis-title" pointer-events="none"><text text-anchor="middle" transform="translate(-30.462890625,150) rotate(-90) translate(0,-2)" font-family="sans-serif" font-size="11px" font-weight="bold" fill="#000" opacity="1">Genauigkeit</text></g></g><path class="foreground" aria-hidden="true" d="" pointer-events="none" display="none"/></g></g><g class="mark-group role-scope pathgroup" role="graphics-object" aria-roledescription="group mark container"><g transform="translate(0,0)"><path class="background" aria-hidden="true" d="M0,0h400v300h-400Z"/><g><g class="mark-line role-mark marks" role="graphics-object" aria-roledescription="line mark container"><path aria-label="Typ: Train; Anzahl Epochen: 1; Genauigkeit: 0" role="graphics-symbol" aria-roledescription="line mark" d="M2,300L4,300L6,300L8,300L10,300L12,300L14.000000000000002,300L16,300L18,300L20,300L22,300L24,300L26,300L28.000000000000004,295.9792708978057L30,283.38098684325814L32,274.5353814214468L34,273.1951402500272L36,284.7212294116616L38,292.76268761605024L40,289.8141527082771L42,283.6490345187485L44,262.2051464393735L46,246.12223282456398L48,230.84345944225788L50,204.84274551272392L52,191.97641238570213L54,191.17226377129555L56.00000000000001,178.57398390769958L57.99999999999999,169.19227614998817L60,162.75910958647728L62,158.73838886618614L64,154.44960370659828L66,152.57326439023018L68,140.24302661418915L70,139.97498452663422L72,139.97498452663422L74,134.61400866508484L76,129.25303280353546L78,122.55182415246964L80,118.26305016875267L82,115.31450897455215L84,112.63402104377747L86,112.0979368686676L88,110.48963963985443L90,110.2215975522995L92,104.5925572514534L94,104.86062169075012L96,101.37598514556885L98,100.03573000431061L100,99.76768791675568L102,97.62330651283264L104,94.94281858205795L106,97.35526442527771L108,94.4067120552063L110.00000000000001,94.4067120552063L112.00000000000001,94.67477649450302L113.99999999999999,92.26233065128326L115.99999999999999,90.65403342247009L118,93.06647926568985L120,87.9735454916954L122,88.50965201854706L124,88.24160993099213L126,87.16939687728882L128,86.90135478973389L130,86.63331270217896L132,87.16939687728882L134,85.29305756092072L136,86.90135478973389L138,85.29305756092072L140,85.29305756092072L142,85.02501547336578L144,85.02501547336578L146,84.48893129825592L148,82.88063406944275L150,83.68478268384933L152,83.41671824455261L154,82.61256963014603L156,81.80844336748123L158,82.61256963014603L160,80.73623031377792L162,81.80844336748123L164,80.46818822622299L166,80.73623031377792L168,80.46818822622299L170,80.20014613866806L172,79.6640396118164L174,79.6640396118164L176,79.6640396118164L178,79.6640396118164L180,79.6640396118164L182,79.39599752426147L184,79.6640396118164L186,78.85989099740982L188,79.93210405111313L190,78.32380682229996L192,78.32380682229996L194,78.05576473474503L196,77.7877002954483L198,78.32380682229996L200,77.51965820789337L202,77.51965820789337L204,77.51965820789337L206,76.98355168104172L208,77.25161612033844L210,76.98355168104172L212,76.17940306663513L214,76.17940306663513L216,76.17940306663513L218.00000000000003,75.9113609790802L220.00000000000003,75.9113609790802L222.00000000000003,74.83917027711868L224.00000000000003,74.83917027711868L225.99999999999997,74.57112818956375L227.99999999999997,73.76697957515717L229.99999999999997,74.0350216627121L231.99999999999997,73.23087304830551L234,73.23087304830551L236,72.96283096075058L238,72.96283096075058L240,72.158682346344L242,72.158682346344L244,71.62259817123413L246,71.62259817123413L248,71.62259817123413L250,70.81844955682755L252,71.08649164438248L254,71.08649164438248L256,70.55038511753082L258,68.94211024045944L260,66.79770648479462L262,65.99355787038803L264,64.65332508087158L266,63.581134378910065L268,60.09649783372879L270,59.292349219322205L272,57.952116429805756L274,55.539670586586L276,56.343819200992584L278,52.85918265581131L280,51.51894986629486L282,48.83846193552017L284,48.30235540866852L286,46.69405817985535L288,44.817718863487244L290,44.01357024908066L292,42.94137954711914L294,42.40529537200928L296,41.06504023075104L298,40.528956055641174L300,39.99284952878952L302,39.72480744123459L304,39.45676535367966L306,38.38455229997635L308,38.11651021242142L310,37.31236159801483L312,37.0443195104599L314,36.508212983608246L316,36.508212983608246L318,35.43602228164673L320,34.36383157968521L322,33.82772505283356L324,33.82772505283356L326,33.82772505283356L328,33.559682965278625L330,33.291640877723694L332,31.951385736465454L334,32.21945017576218L336,31.41530156135559L338,29.80700433254242L340,29.002855718135834L342,28.734813630580902L344,28.734813630580902L346,27.662622928619385L348,27.394558489322662L350,26.8584743142128L352,27.394558489322662L354,26.8584743142128L356,26.322367787361145L358,26.590432226657867L360,26.322367787361145L362,26.054325699806213L364,25.78628361225128L366,25.78628361225128L368,25.78628361225128L370,25.78628361225128L372,25.78628361225128L374,25.78628361225128L376,25.51821917295456L378,25.51821917295456L380,24.982134997844696L382,24.982134997844696L384,24.982134997844696L386,24.982134997844696L388,24.982134997844696L390,24.982134997844696L392,24.982134997844696L394,24.982134997844696L396,24.982134997844696L398,24.982134997844696" stroke="#f58518" stroke-width="2"/></g></g><path class="foreground" aria-hidden="true" d="" display="none"/></g><g transform="translate(0,0)"><path class="background" aria-hidden="true" d="M0,0h400v300h-400Z"/><g><g class="mark-line role-mark marks" role="graphics-object" aria-roledescription="line mark container"><path aria-label="Typ: Test; Anzahl Epochen: 1; Genauigkeit: 0" role="graphics-symbol" aria-roledescription="line mark" d="M2,300L4,300L6,300L8,300L10,300L12,300L14.000000000000002,300L16,300L18,300L20,300L22,300L24,300L26,296.2468722369522L28.000000000000004,291.2427021190524L30,279.9833195284009L32,277.481234818697L34,282.4854042381048L36,294.37030870467424L38,295.6213510595262L40,290.61718094162643L42,281.85988375917077L44,260.5921609327197L46,241.82652421295643L48,229.3160978704691L50,208.04837085306644L52,199.9166004359722L54,191.78482443094254L56.00000000000001,174.2702230811119L57.99999999999999,171.76813557744026L60,163.01084607839584L62,157.38114640116692L64,156.13010823726654L66,144.24520656466484L68,141.11759439110756L70,138.6155180633068L72,135.48790588974953L74,131.7347802221775L76,127.35612988471985L78,122.35195487737656L80,120.47539204359055L82,119.22435387969017L84,119.22435387969017L86,117.34779104590416L88,115.47122821211815L90,113.59466537833214L92,112.9691407084465L94,112.34362721443176L96,110.46706438064575L98,109.21601504087448L100,107.33945220708847L102,104.83735352754593L104,109.84152853488922L106,101.70976370573044L108,101.70976370573044L110.00000000000001,101.70976370573044L112.00000000000001,98.58215153217316L113.99999999999999,99.2076650261879L115.99999999999999,101.08422785997391L118,94.82902586460114L120,96.70558869838715L122,94.82902586460114L124,97.33110219240189L126,96.0800752043724L128,95.45453935861588L130,95.45453935861588L132,93.57797652482986L134,93.57797652482986L136,94.2035123705864L138,92.95246303081512L140,92.95246303081512L142,92.95246303081512L144,92.95246303081512L146,89.82485085725784L148,92.95246303081512L150,92.32694953680038L152,92.32694953680038L154,91.70141369104385L156,92.32694953680038L158,92.32694953680038L160,92.32694953680038L162,92.32694953680038L164,92.32694953680038L166,91.70141369104385L168,92.32694953680038L170,92.32694953680038L172,91.07590019702911L174,91.70141369104385L176,89.82485085725784L178,90.45036435127258L180,89.82485085725784L182,89.82485085725784L184,89.82485085725784L186,90.45036435127258L188,87.94828802347183L190,89.1993373632431L192,87.94828802347183L194,87.94828802347183L196,87.94828802347183L198,87.32277452945709L200,87.94828802347183L202,87.32277452945709L204,87.94828802347183L206,87.32277452945709L208,87.32277452945709L210,87.32277452945709L212,86.07172518968582L214,86.07172518968582L216,86.07172518968582L218.00000000000003,86.07172518968582L220.00000000000003,86.07172518968582L222.00000000000003,86.07172518968582L224.00000000000003,86.07172518968582L225.99999999999997,86.07172518968582L227.99999999999997,86.69723868370056L229.99999999999997,83.56964886188507L231.99999999999997,83.56964886188507L234,84.19516235589981L236,83.56964886188507L238,83.56964886188507L240,83.56964886188507L242,83.56964886188507L244,83.56964886188507L246,83.56964886188507L248,84.19516235589981L250,84.19516235589981L252,84.19516235589981L254,84.19516235589981L256,84.19516235589981L258,82.94411301612854L260,80.44203668832779L262,79.81652319431305L264,77.93996036052704L266,75.4378616809845L268,74.81234818696976L270,71.68473601341248L272,71.05922251939774L274,71.05922251939774L276,66.68056100606918L278,67.30609685182571L280,62.30192184448242L282,62.92743533849716L284,60.42535901069641L286,58.5487961769104L288,55.42118400335312L290,55.42118400335312L292,54.17013466358185L294,53.54462116956711L296,51.04254484176636L298,51.04254484176636L300,51.04254484176636L302,49.79149550199509L304,49.16598200798035L306,49.79149550199509L308,49.16598200798035L310,49.16598200798035L312,48.540446162223816L314,49.16598200798035L316,49.16598200798035L318,49.16598200798035L320,47.914932668209076L322,49.79149550199509L324,49.16598200798035L326,49.79149550199509L328,49.16598200798035L330,48.540446162223816L332,49.16598200798035L334,49.16598200798035L336,49.16598200798035L338,49.16598200798035L340,48.540446162223816L342,46.663883328437805L344,47.289396822452545L346,47.914932668209076L348,46.663883328437805L350,46.663883328437805L352,46.038369834423065L354,46.663883328437805L356,46.038369834423065L358,46.038369834423065L360,46.038369834423065L362,46.038369834423065L364,46.038369834423065L366,45.412833988666534L368,45.412833988666534L370,45.412833988666534L372,45.412833988666534L374,45.412833988666534L376,45.412833988666534L378,45.412833988666534L380,45.412833988666534L382,45.412833988666534L384,45.412833988666534L386,45.412833988666534L388,45.412833988666534L390,45.412833988666534L392,45.412833988666534L394,45.412833988666534L396,45.412833988666534L398,44.787320494651794" stroke="#4c78a8" stroke-width="2"/></g></g><path class="foreground" aria-hidden="true" d="" display="none"/></g></g><g class="mark-group role-legend" role="graphics-symbol" aria-roledescription="legend" aria-label="Symbol legend titled 'Typ' for stroke color with 2 values: Test, Train"><g transform="translate(418,0)"><path class="background" aria-hidden="true" d="M0,0h39v40h-39Z" pointer-events="none"/><g><g class="mark-group role-legend-entry"><g transform="translate(0,16)"><path class="background" aria-hidden="true" d="M0,0h0v0h0Z" pointer-events="none"/><g><g class="mark-group role-scope" role="graphics-object" aria-roledescription="group mark container"><g transform="translate(0,0)"><path class="background" aria-hidden="true" d="M0,0h38.412109375v11h-38.412109375Z" pointer-events="none" opacity="1"/><g><g class="mark-symbol role-legend-symbol" pointer-events="none"><path transform="translate(6,6)" d="M-5,0L5,0" stroke="#4c78a8" stroke-width="1.5" opacity="1"/></g><g class="mark-text role-legend-label" pointer-events="none"><text text-anchor="start" transform="translate(16,9)" font-family="sans-serif" font-size="10px" fill="#000" opacity="1">Test</text></g></g><path class="foreground" aria-hidden="true" d="" pointer-events="none" display="none"/></g><g transform="translate(0,13)"><path class="background" aria-hidden="true" d="M0,0h38.412109375v11h-38.412109375Z" pointer-events="none" opacity="1"/><g><g class="mark-symbol role-legend-symbol" pointer-events="none"><path transform="translate(6,6)" d="M-5,0L5,0" stroke="#f58518" stroke-width="1.5" opacity="1"/></g><g class="mark-text role-legend-label" pointer-events="none"><text text-anchor="start" transform="translate(16,9)" font-family="sans-serif" font-size="10px" fill="#000" opacity="1">Train</text></g></g><path class="foreground" aria-hidden="true" d="" pointer-events="none" display="none"/></g></g></g><path class="foreground" aria-hidden="true" d="" pointer-events="none" display="none"/></g></g><g class="mark-text role-legend-title" pointer-events="none"><text text-anchor="start" transform="translate(0,9)" font-family="sans-serif" font-size="11px" font-weight="bold" fill="#000" opacity="1">Typ</text></g></g><path class="foreground" aria-hidden="true" d="" pointer-events="none" display="none"/></g></g></g><path class="foreground" aria-hidden="true" d="" display="none"/></g></g></g></svg>