<svg xmlns="http://www.w3.org/2000/svg" xmlns:xlink="http://www.w3.org/1999/xlink" version="1.1" class="marks" width="509" height="347" viewBox="0 0 509 347"><rect width="509" height="347" fill="white"/><g fill="none" stroke-miterlimit="10" transform="translate(47,10)"><g class="mark-group role-frame root" role="graphics-object" aria-roledescription="group mark container"><g transform="translate(0,0)"><path class="background" aria-hidden="true" d="M0.5,0.5h400v300h-400Z" stroke="#ddd"/><g><g class="mark-group role-axis" aria-hidden="true"><g transform="translate(0.5,300.5)"><path class="background" aria-hidden="true" d="M0,0h0v0h0Z" pointer-events="none"/><g><g class="mark-rule role-axis-grid" pointer-events="none"><line transform="translate(0,-300)" x2="0" y2="300" stroke="#ddd" stroke-width="1" opacity="1"/><line transform="translate(40,-300)" x2="0" y2="300" stroke="#ddd" stroke-width="1" opacity="1"/><line transform="translate(80,-300)" x2="0" y2="300" stroke="#ddd" stroke-width="1" opacity="1"/><line transform="translate(120,-300)" x2="0" y2="300" stroke="#ddd" stroke-width="1" opacity="1"/><line transform="translate(160,-300)" x2="0" y2="300" stroke="#ddd" stroke-width="1" opacity="1"/><line transform="translate(200,-300)" x2="0" y2="300" stroke="#ddd" stroke-width="1" opacity="1"/><line transform="translate(240,-300)" x2="0" y2="300" stroke="#ddd" stroke-width="1" opacity="1"/><line transform="translate(280,-300)" x2="0" y2="300" stroke="#ddd" stroke-width="1" opacity="1"/><line transform="translate(320,-300)" x2="0" y2="300" stroke="#ddd" stroke-width="1" opacity="1"/><line transform="translate(360,-300)" x2="0" y2="300" stroke="#ddd" stroke-width="1" opacity="1"/><line transform="translate(400,-300)" x2="0" y2="300" stroke="#ddd" stroke-width="1" opacity="1"/></g></g><path class="foreground" aria-hidden="true" d="" pointer-events="none" display="none"/></g></g><g class="mark-group role-axis" aria-hidden="true"><g transform="translate(0.5,0.5)"><path class="background" aria-hidden="true" d="M0,0h0v0h0Z" pointer-events="none"/><g><g class="mark-rule role-axis-grid" pointer-events="none"><line transform="translate(0,300)" x2="400" y2="0" stroke="#ddd" stroke-width="1" opacity="1"/><line transform="translate(0,267)" x2="400" y2="0" stroke="#ddd" stroke-width="1" opacity="1"/><line transform="translate(0,233)" x2="400" y2="0" stroke="#ddd" stroke-width="1" opacity="1"/><line transform="translate(0,200)" x2="400" y2="0" stroke="#ddd" stroke-width="1" opacity="1"/><line transform="translate(0,167)" x2="400" y2="0" stroke="#ddd" stroke-width="1" opacity="1"/><line transform="translate(0,133)" x2="400" y2="0" stroke="#ddd" stroke-width="1" opacity="1"/><line transform="translate(0,100)" x2="400" y2="0" stroke="#ddd" stroke-width="1" opacity="1"/><line transform="translate(0,67)" x2="400" y2="0" stroke="#ddd" stroke-width="1" opacity="1"/><line transform="translate(0,33)" x2="400" y2="0" stroke="#ddd" stroke-width="1" opacity="1"/><line transform="translate(0,0)" x2="400" y2="0" stroke="#ddd" stroke-width="1" opacity="1"/></g></g><path class="foreground" aria-hidden="true" d="" pointer-events="none" display="none"/></g></g><g class="mark-group role-axis" role="graphics-symbol" aria-roledescription="axis" aria-label="X-axis titled 'Anzahl Epochen' for a linear scale with values from 0 to 200"><g transform="translate(0.5,300.5)"><path class="background" aria-hidden="true" d="M0,0h0v0h0Z" pointer-events="none"/><g><g class="mark-rule role-axis-tick" pointer-events="none"><line transform="translate(0,0)" x2="0" y2="5" stroke="#888" stroke-width="1" opacity="1"/><line transform="translate(40,0)" x2="0" y2="5" stroke="#888" stroke-width="1" opacity="1"/><line transform="translate(80,0)" x2="0" y2="5" stroke="#888" stroke-width="1" opacity="1"/><line transform="translate(120,0)" x2="0" y2="5" stroke="#888" stroke-width="1" opacity="1"/><line transform="translate(160,0)" x2="0" y2="5" stroke="#888" stroke-width="1" opacity="1"/><line transform="translate(200,0)" x2="0" y2="5" stroke="#888" stroke-width="1" opacity="1"/><line transform="translate(240,0)" x2="0" y2="5" stroke="#888" stroke-width="1" opacity="1"/><line transform="translate(280,0)" x2="0" y2="5" stroke="#888" stroke-width="1" opacity="1"/><line transform="translate(320,0)" x2="0" y2="5" stroke="#888" stroke-width="1" opacity="1"/><line transform="translate(360,0)" x2="0" y2="5" stroke="#888" stroke-width="1" opacity="1"/><line transform="translate(400,0)" x2="0" y2="5" stroke="#888" stroke-width="1" opacity="1"/></g><g class="mark-text role-axis-label" pointer-events="none"><text text-anchor="start" transform="translate(0,15)" font-family="sans-serif" font-size="10px" fill="#000" opacity="1">0</text><text text-anchor="middle" transform="translate(40,15)" font-family="sans-serif" font-size="10px" fill="#000" opacity="1">20</text><text text-anchor="middle" transform="translate(80,15)" font-family="sans-serif" font-size="10px" fill="#000" opacity="1">40</text><text text-anchor="middle" transform="translate(120,15)" font-family="sans-serif" font-size="10px" fill="#000" opacity="1">60</text><text text-anchor="middle" transform="translate(160,15)" font-family="sans-serif" font-size="10px" fill="#000" opacity="1">80</text><text text-anchor="middle" transform="translate(200,15)" font-family="sans-serif" font-size="10px" fill="#000" opacity="1">100</text><text text-anchor="middle" transform="translate(240,15)" font-family="sans-serif" font-size="10px" fill="#000" opacity="1">120</text><text text-anchor="middle" transform="translate(280,15)" font-family="sans-serif" font-size="10px" fill="#000" opacity="1">140</text><text text-anchor="middle" transform="translate(320,15)" font-family="sans-serif" font-size="10px" fill="#000" opacity="1">160</text><text text-anchor="middle" transform="translate(360,15)" font-family="sans-serif" font-size="10px" fill="#000" opacity="1">180</text><text text-anchor="end" transform="translate(400,15)" font-family="sans-serif" font-size="10px" fill="#000" opacity="1">200</text></g><g class="mark-rule role-axis-domain" pointer-events="none"><line transform="translate(0,0)" x2="400" y2="0" stroke="#888" stroke-width="1" opacity="1"/></g><g class="mark-text role-axis-title" pointer-events="none"><text text-anchor="middle" transform="translate(200,30)" font-family="sans-serif" font-size="11px" font-weight="bold" fill="#000" opacity="1">Anzahl Epochen</text></g></g><path class="foreground" aria-hidden="true" d="" pointer-events="none" display="none"/></g></g><g class="mark-group role-axis" role="graphics-symbol" aria-roledescription="axis" aria-label="Y-axis titled 'Mittlerer Fehler' for a linear scale with values from 0.00 to 0.09"><g transform="translate(0.5,0.5)"><path class="background" aria-hidden="true" d="M0,0h0v0h0Z" pointer-events="none"/><g><g class="mark-rule role-axis-tick" pointer-events="none"><line transform="translate(0,300)" x2="-5" y2="0" stroke="#888" stroke-width="1" opacity="1"/><line transform="translate(0,267)" x2="-5" y2="0" stroke="#888" stroke-width="1" opacity="1"/><line transform="translate(0,233)" x2="-5" y2="0" stroke="#888" stroke-width="1" opacity="1"/><line transform="translate(0,200)" x2="-5" y2="0" stroke="#888" stroke-width="1" opacity="1"/><line transform="translate(0,167)" x2="-5" y2="0" stroke="#888" stroke-width="1" opacity="1"/><line transform="translate(0,133)" x2="-5" y2="0" stroke="#888" stroke-width="1" opacity="1"/><line transform="translate(0,100)" x2="-5" y2="0" stroke="#888" stroke-width="1" opacity="1"/><line transform="translate(0,67)" x2="-5" y2="0" stroke="#888" stroke-width="1" opacity="1"/><line transform="translate(0,33)" x2="-5" y2="0" stroke="#888" stroke-width="1" opacity="1"/><line transform="translate(0,0)" x2="-5" y2="0" stroke="#888" stroke-width="1" opacity="1"/></g><g class="mark-text role-axis-label" pointer-events="none"><text text-anchor="end" transform="translate(-7,303)" font-family="sans-serif" font-size="10px" fill="#000" opacity="1">0.00</text><text text-anchor="end" transform="translate(-7,269.66666666666663)" font-family="sans-serif" font-size="10px" fill="#000" opacity="1">0.01</text><text text-anchor="end" transform="translate(-7,236.33333333333334)" font-family="sans-serif" font-size="10px" fill="#000" opacity="1">0.02</text><text text-anchor="end" transform="translate(-7,203.00000000000003)" font-family="sans-serif" font-size="10px" fill="#000" opacity="1">0.03</text><text text-anchor="end" transform="translate(-7,169.66666666666669)" font-family="sans-serif" font-size="10px" fill="#000" opacity="1">0.04</text><text text-anchor="end" transform="translate(-7,136.33333333333331)" font-family="sans-serif" font-size="10px" fill="#000" opacity="1">0.05</text><text text-anchor="end" transform="translate(-7,103.00000000000001)" font-family="sans-serif" font-size="10px" fill="#000" opacity="1">0.06</text><text text-anchor="end" transform="translate(-7,69.66666666666663)" font-family="sans-serif" font-size="10px" fill="#000" opacity="1">0.07</text><text text-anchor="end" transform="translate(-7,36.333333333333314)" font-family="sans-serif" font-size="10px" fill="#000" opacity="1">0.08</text><text text-anchor="end" transform="translate(-7,3)" font-family="sans-serif" font-size="10px" fill="#000" opacity="1">0.09</text></g><g class="mark-rule role-axis-domain" pointer-events="none"><line transform="translate(0,300)" x2="0" y2="-300" stroke="#888" stroke-width="1" opacity="1"/></g><g class="mark-text role-axis-title" pointer-events="none"><text text-anchor="middle" transform="translate(-30.462890625,150) rotate(-90) translate(0,-2)" font-family="sans-serif" font-size="11px" font-weight="bold" fill="#000" opacity="1">Mittlerer Fehler</text></g></g><path class="foreground" aria-hidden="true" d="" pointer-events="none" display="none"/></g></g><g class="mark-group role-scope pathgroup" role="graphics-object" aria-roledescription="group mark container"><g transform="translate(0,0)"><path class="background" aria-hidden="true" d="M0,0h400v300h-400Z"/><g><g class="mark-line role-mark marks" role="graphics-object" aria-roledescription="line mark container"><path aria-label="Typ: Train; Anzahl Epochen: 0; Mittlerer Fehler: 0.0871493254196" role="graphics-symbol" aria-roledescription="line mark" d="M0,9.502248601479934L2,10.232648208285832L4,11.053693723497949L6,11.953201190088725L8,12.793523953719554L10,13.780095405650828L12,14.940535751256046L14.000000000000002,16.862020731875372L16,18.807049547180966L18,21.07218014019908L20,24.829253373724057L22,30.319553478197626L24,38.07343281805515L26,49.55323914235288L28.000000000000004,59.533092040907256L30,66.6189291824897L32,71.15869522094725L34,76.00614173394258L36,80.9403592889959L38,84.05438278886407L40,86.04220756978698L42,87.31689269118239L44,88.25706141916184L46,89.33553324278554L48,89.87921763098599L50,90.63725635183582L52,91.10325714855483L54,91.62067795793216L56.00000000000001,92.33117999904084L57.99999999999999,92.64914989471436L60,93.30251529587036L62,93.60974506672586L64,93.97835605072254L66,94.73020824970621L68,95.04518239109805L70,95.26305486532773L72,95.7161328557766L74,96.04247223698731L76,96.23678648336367L78,96.69706387953325L80,96.65750750538075L82,97.79011852136162L84,97.62856396987583L86,98.27061013290377L88,98.36125575909111L90,98.95409309502804L92,98.93043693719486L94,99.46595757748142L96,99.54126798971133L98,99.78069324385037L100,99.65442650471672L102,100.60541776545121L104,100.41556003870384L106,101.07795193114062L108,101.10574993446019L110.00000000000001,101.10063161136526L112.00000000000001,101.51419189165937L113.99999999999999,101.95315074965808L115.99999999999999,102.09661280792773L118,102.34587452176842L120,102.22424520461847L122,102.45156693413402L124,102.80396161657393L126,102.78917221408902L128,103.12523544963562L130,103.41108685190028L132,103.68628194837859L134,103.67984961379658L136,103.9028886705637L138,104.14587863241181L140,104.44953268901868L142,104.60667136040601L144,104.75209935596493L146,104.92748574099757L148,105.19128201360051L150,105.33389035951006L152,105.4511486693765L154,105.74191124601796L156,106.03055689822541L158,105.9121485460888L160,106.33102498497021L162,106.12174636035253L164,106.62300053871041L166,106.74662853054929L168,107.07472387814158L170,107.44094757193866L172,107.33175677332008L174,107.78852872776261L176,107.72689549308835L178,107.9463145272298L180,108.27164920893581L182,108.47731147977436L184,108.16246349025856L186,109.04676076589207L188,109.05149414232281L190,109.44377454844387L192,109.35441809847498L194,109.58117313231482L196,109.76732080858764L198,110.36779781182605L200,110.23602018302138L202,110.5941159707127L204,110.75917652836351L206,110.8104116876017L208,111.19223080123915L210,111.22095561162993L212,111.62358611596352L214,111.76107162327476L216,111.75204400311814L218.00000000000003,112.04682819996819L220.00000000000003,112.73537304139498L222.00000000000003,112.98209788898627L224.00000000000003,113.04985160628955L225.99999999999997,113.269746179382L227.99999999999997,113.60339559614657L229.99999999999997,113.80952635046206L231.99999999999997,113.9414002159328L234,114.0307388861071L236,114.62309616758968L238,114.72438455305316L240,115.07632824959177L242,115.10774006671977L244,115.3527741405097L246,115.50549636736062L248,115.58045259479317L250,115.69150744965582L252,115.89688580821861L254,116.24741897438511L256,116.52060580072981L258,116.67461268829577L260,116.68553089327884L262,116.86374285455908L264,117.13929947352773L266,116.83367411747122L268,117.2655351685755L270,117.36132790419187L272,117.3749144894607L274,117.79399948815504L276,117.8628431350896L278,117.90326733255021L280,118.30153049844684L282,118.21432455696844L284,118.45888224515046L286,118.56257965167364L288,118.72463119075154L290,118.97165265047185L292,118.82737300386934L294,118.90197194209604L296,119.16346869459656L298,119.24830597232689L300,118.89200283948216L302,119.29445582808869L304,119.36775966349873L306,119.40248501345965L308,119.56484586451994L310,119.70620454486573L312,120.10323723608795L314,120.04531348745027L316,119.87963938577607L318,120.03284053820552L320,120.16597422912267L322,120.25000040955616L324,120.07598476202196L326,120.63062235035679L328,120.62752781943841L330,120.54965485903347L332,120.63200098998618L334,120.57922886628093L336,120.60833890555482L338,120.77800922773102L340,120.54424274599914L342,121.17675781024224L344,120.914672066768L346,121.3550569771817L348,121.16796640735683L350,121.25927581254277L352,121.12679545852271L354,121.21966355903582L356,121.41241007907823L358,121.24156600823906L360,121.30119520606415L362,121.48254205557431L364,121.5115355384169L366,121.87242303608042L368,121.54687358574435L370,121.53456150130792L372,121.83596740166345L374,121.80019473713456L376,121.90581885251129L378,121.74974047776425L380,121.99477737374379L382,121.7839849266139L384,122.17599778915897L386,122.1088127430641L388,122.38572373083142L390,121.91492380066349L392,122.28042868276438L394,122.5560612186338L396,122.63394433892137L398,122.56908167266481" stroke="#f58518" stroke-width="2"/></g></g><path class="foreground" aria-hidden="true" d="" display="none"/></g><g transform="translate(0,0)"><path class="background" aria-hidden="true" d="M0,0h400v300h-400Z"/><g><g class="mark-line role-mark marks" role="graphics-object" aria-roledescription="line mark container"><path aria-label="Typ: Test; Anzahl Epochen: 0; Mittlerer Fehler: 0.0862194233035" role="graphics-symbol" aria-roledescription="line mark" d="M0,12.601922321737835L2,13.842436148409277L4,15.00772656055921L6,15.970816058024994L8,16.441026120855074L10,17.30543986747137L12,19.106626876613518L14.000000000000002,20.854916070636943L16,22.841311442224566L18,26.37132463747993L20,30.51725249541436L22,37.92148133118947L24,47.840760831247266L26,58.9074859493657L28.000000000000004,67.68663708578075L30,72.96887978649973L32,77.94382459761802L34,82.49383600134598L36,86.6054428251166L38,88.77443754882141L40,90.95068024961571L42,90.52919763744922L44,92.55773061723039L46,93.06672487342567L48,93.12814379993235L50,93.56266558170319L52,94.98177374664103L54,94.90445305903752L56.00000000000001,94.9585998267458L57.99999999999999,95.95837232313656L60,95.99577946621073L62,96.50916106868208L64,97.01672533625047L66,97.9324742367393L68,97.58423475319879L70,97.17749971569629L72,98.09806404406562L74,97.76723865877118L76,98.78719242518407L78,99.24872256161872L80,99.71726604721002L82,100.09214658486216L84,99.41587110883312L86,100.6234997720049L88,100.5858481976024L90,101.24231885399736L92,101.1973114651546L94,101.34183508262299L96,101.17209451763252L98,101.89954306472812L100,102.45796473402726L102,102.38399092565503L104,102.86119473085068L106,102.58234956285406L108,102.82961276539585L110.00000000000001,103.46944248467159L112.00000000000001,103.26476523227859L113.99999999999999,103.62950056268457L115.99999999999999,104.09325018786546L118,103.92331616920339L120,104.32001841172837L122,104.32471358462385L124,104.09778915999226L126,104.87597289315441L128,104.22191583273704L130,104.79918943162549L132,105.19953919084448L134,105.33458227128311L136,105.13432242891244L138,105.51254853867647L140,105.05530313964474L142,105.37384356323041L144,105.79032121520291L146,105.49159345396778L148,106.19917966817556L150,106.19226043161592L152,106.15253380516118L154,106.14688247442244L156,106.59754587370051L158,106.3467233850245L160,106.52872407645508L162,107.37579757707162L164,107.26206446425955L166,107.21039730205871L168,107.22951392332713L170,106.4544489770605L172,108.16268541833807L174,108.60728509070579L176,108.68255686864516L178,108.61899688055638L180,108.76933456512917L182,108.6137599066684L184,108.03607456516801L186,109.16867196037057L188,108.74993103115182L190,108.96219872591786L192,109.09152315896853L194,109.71208659180421L196,109.94960325851775L198,110.61286701444996L200,109.96529261271158L202,110.58385745998012L204,110.14781615190337L206,110.73802173660513L208,110.25936506819308L210,110.29021962170017L212,110.48409222510823L214,111.03326994598955L216,111.17202655265207L218.00000000000003,111.0516493519147L220.00000000000003,111.83311460833798L222.00000000000003,111.83794114673347L224.00000000000003,111.49279496126007L225.99999999999997,111.61871957674362L227.99999999999997,112.28423419228771L229.99999999999997,112.563123802344L231.99999999999997,112.7099551391183L234,112.98164186770454L236,112.98111771282397L238,112.84271141416149L240,112.75498997746854L242,113.36481346372975L244,113.83355432435086L246,113.36446511640882L248,114.01658045095311L250,114.07159645306437L252,114.15811207210807L254,114.3976064104783L256,114.12839536604127L258,114.17782670050335L260,114.04512859227363L262,114.61535224266221L264,114.67033229898989L266,114.70834921326555L268,114.82443252676411L270,115.23956972778888L272,115.51492292630044L274,114.65780617375123L276,115.28011068963166L278,115.4652510818682L280,115.54055749847176L282,116.02547330814495L284,115.68845609823862L286,115.66417766244787L288,115.96794567610085L290,115.89462869522863L292,116.2202138388366L294,115.73783253368578L296,116.39980550920754L298,115.88209668795268L300,116.37248671368548L302,116.9132916812311L304,116.63716989651061L306,116.57004931516813L308,116.11448029677072L310,116.4720336596171L312,116.97788429364823L314,117.10266844745266L316,116.56164453740703L318,117.20574723001111L320,116.69223949051741L322,116.80603469150107L324,116.70173179162174L326,117.33021898227824L328,116.69167350781589L330,117.38043981685973L332,116.95063477545455L334,117.1737731287354L336,117.43781909085158L338,117.03404794659532L340,117.66133520163989L342,117.46788283711987L344,117.08290022716186L346,117.1743554504294L348,117.20905554922003L350,117.42138598571742L352,117.48930260277632L354,117.48956990869421L356,117.45429206312747L358,117.02314591721483L360,117.17680629930997L362,118.01228107590426L364,117.66054439440109L366,117.51916243841772L368,117.41057545469519L370,118.52849063120388L372,117.6416748186998L374,117.83103916728706L376,117.82577343677221L378,117.7961129368397L380,117.7649453282356L382,117.89172153201018L384,117.62197979709556L386,117.79489731579494L388,117.9599583933228L390,117.92017098581582L392,118.00874466435953L394,118.19836651546913L396,117.72341683768389L398,118.15384472148459" stroke="#4c78a8" stroke-width="2"/></g></g><path class="foreground" aria-hidden="true" d="" display="none"/></g></g><g class="mark-group role-legend" role="graphics-symbol" aria-roledescription="legend" aria-label="Symbol legend titled 'Typ' for stroke color with 2 values: Test, Train"><g transform="translate(418,0)"><path class="background" aria-hidden="true" d="M0,0h39v40h-39Z" pointer-events="none"/><g><g class="mark-group role-legend-entry"><g transform="translate(0,16)"><path class="background" aria-hidden="true" d="M0,0h0v0h0Z" pointer-events="none"/><g><g class="mark-group role-scope" role="graphics-object" aria-roledescription="group mark container"><g transform="translate(0,0)"><path class="background" aria-hidden="true" d="M0,0h38.412109375v11h-38.412109375Z" pointer-events="none" opacity="1"/><g><g class="mark-symbol role-legend-symbol" pointer-events="none"><path transform="translate(6,6)" d="M-5,0L5,0" stroke="#4c78a8" stroke-width="1.5" opacity="1"/></g><g class="mark-text role-legend-label" pointer-events="none"><text text-anchor="start" transform="translate(16,9)" font-family="sans-serif" font-size="10px" fill="#000" opacity="1">Test</text></g></g><path class="foreground" aria-hidden="true" d="" pointer-events="none" display="none"/></g><g transform="translate(0,13)"><path class="background" aria-hidden="true" d="M0,0h38.412109375v11h-38.412109375Z" pointer-events="none" opacity="1"/><g><g class="mark-symbol role-legend-symbol" pointer-events="none"><path transform="translate(6,6)" d="M-5,0L5,0" stroke="#f58518" stroke-width="1.5" opacity="1"/></g><g class="mark-text role-legend-label" pointer-events="none"><text text-anchor="start" transform="translate(16,9)" font-family="sans-serif" font-size="10px" fill="#000" opacity="1">Train</text></g></g><path class="foreground" aria-hidden="true" d="" pointer-events="none" display="none"/></g></g></g><path class="foreground" aria-hidden="true" d="" pointer-events="none" display="none"/></g></g><g class="mark-text role-legend-title" pointer-events="none"><text text-anchor="start" transform="translate(0,9)" font-family="sans-serif" font-size="11px" font-weight="bold" fill="#000" opacity="1">Typ</text></g></g><path class="foreground" aria-hidden="true" d="" pointer-events="none" display="none"/></g></g></g><path class="foreground" aria-hidden="true" d="" display="none"/></g></g></g></svg>