<svg xmlns="http://www.w3.org/2000/svg" xmlns:xlink="http://www.w3.org/1999/xlink" version="1.1" class="marks" width="509" height="347" viewBox="0 0 509 347"><rect width="509" height="347" fill="white"/><g fill="none" stroke-miterlimit="10" transform="translate(47,10)"><g class="mark-group role-frame root" role="graphics-object" aria-roledescription="group mark container"><g transform="translate(0,0)"><path class="background" aria-hidden="true" d="M0.5,0.5h400v300h-400Z" stroke="#ddd"/><g><g class="mark-group role-axis" aria-hidden="true"><g transform="translate(0.5,300.5)"><path class="background" aria-hidden="true" d="M0,0h0v0h0Z" pointer-events="none"/><g><g class="mark-rule role-axis-grid" pointer-events="none"><line transform="translate(0,-300)" x2="0" y2="300" stroke="#ddd" stroke-width="1" opacity="1"/><line transform="translate(50,-300)" x2="0" y2="300" stroke="#ddd" stroke-width="1" opacity="1"/><line transform="translate(100,-300)" x2="0" y2="300" stroke="#ddd" stroke-width="1" opacity="1"/><line transform="translate(150,-300)" x2="0" y2="300" stroke="#ddd" stroke-width="1" opacity="1"/><line transform="translate(200,-300)" x2="0" y2="300" stroke="#ddd" stroke-width="1" opacity="1"/><line transform="translate(250,-300)" x2="0" y2="300" stroke="#ddd" stroke-width="1" opacity="1"/><line transform="translate(300,-300)" x2="0" y2="300" stroke="#ddd" stroke-width="1" opacity="1"/><line transform="translate(350,-300)" x2="0" y2="300" stroke="#ddd" stroke-width="1" opacity="1"/><line transform="translate(400,-300)" x2="0" y2="300" stroke="#ddd" stroke-width="1" opacity="1"/></g></g><path class="foreground" aria-hidden="true" d="" pointer-events="none" display="none"/></g></g><g class="mark-group role-axis" aria-hidden="true"><g transform="translate(0.5,0.5)"><path class="background" aria-hidden="true" d="M0,0h0v0h0Z" pointer-events="none"/><g><g class="mark-rule role-axis-grid" pointer-events="none"><line transform="translate(0,300)" x2="400" y2="0" stroke="#ddd" stroke-width="1" opacity="1"/><line transform="translate(0,267)" x2="400" y2="0" stroke="#ddd" stroke-width="1" opacity="1"/><line transform="translate(0,233)" x2="400" y2="0" stroke="#ddd" stroke-width="1" opacity="1"/><line transform="translate(0,200)" x2="400" y2="0" stroke="#ddd" stroke-width="1" opacity="1"/><line transform="translate(0,167)" x2="400" y2="0" stroke="#ddd" stroke-width="1" opacity="1"/><line transform="translate(0,133)" x2="400" y2="0" stroke="#ddd" stroke-width="1" opacity="1"/><line transform="translate(0,100)" x2="400" y2="0" stroke="#ddd" stroke-width="1" opacity="1"/><line transform="translate(0,67)" x2="400" y2="0" stroke="#ddd" stroke-width="1" opacity="1"/><line transform="translate(0,33)" x2="400" y2="0" stroke="#ddd" stroke-width="1" opacity="1"/><line transform="translate(0,0)" x2="400" y2="0" stroke="#ddd" stroke-width="1" opacity="1"/></g></g><path class="foreground" aria-hidden="true" d="" pointer-events="none" display="none"/></g></g><g class="mark-group role-axis" role="graphics-symbol" aria-roledescription="axis" aria-label="X-axis titled 'Anzahl Epochen' for a linear scale with values from 0 to 160"><g transform="translate(0.5,300.5)"><path class="background" aria-hidden="true" d="M0,0h0v0h0Z" pointer-events="none"/><g><g class="mark-rule role-axis-tick" pointer-events="none"><line transform="translate(0,0)" x2="0" y2="5" stroke="#888" stroke-width="1" opacity="1"/><line transform="translate(50,0)" x2="0" y2="5" stroke="#888" stroke-width="1" opacity="1"/><line transform="translate(100,0)" x2="0" y2="5" stroke="#888" stroke-width="1" opacity="1"/><line transform="translate(150,0)" x2="0" y2="5" stroke="#888" stroke-width="1" opacity="1"/><line transform="translate(200,0)" x2="0" y2="5" stroke="#888" stroke-width="1" opacity="1"/><line transform="translate(250,0)" x2="0" y2="5" stroke="#888" stroke-width="1" opacity="1"/><line transform="translate(300,0)" x2="0" y2="5" stroke="#888" stroke-width="1" opacity="1"/><line transform="translate(350,0)" x2="0" y2="5" stroke="#888" stroke-width="1" opacity="1"/><line transform="translate(400,0)" x2="0" y2="5" stroke="#888" stroke-width="1" opacity="1"/></g><g class="mark-text role-axis-label" pointer-events="none"><text text-anchor="start" transform="translate(0,15)" font-family="sans-serif" font-size="10px" fill="#000" opacity="1">0</text><text text-anchor="middle" transform="translate(50,15)" font-family="sans-serif" font-size="10px" fill="#000" opacity="1">20</text><text text-anchor="middle" transform="translate(100,15)" font-family="sans-serif" font-size="10px" fill="#000" opacity="1">40</text><text text-anchor="middle" transform="translate(150,15)" font-family="sans-serif" font-size="10px" fill="#000" opacity="1">60</text><text text-anchor="middle" transform="translate(200,15)" font-family="sans-serif" font-size="10px" fill="#000" opacity="1">80</text><text text-anchor="middle" transform="translate(250,15)" font-family="sans-serif" font-size="10px" fill="#000" opacity="1">100</text><text text-anchor="middle" transform="translate(300,15)" font-family="sans-serif" font-size="10px" fill="#000" opacity="1">120</text><text text-anchor="middle" transform="translate(350,15)" font-family="sans-serif" font-size="10px" fill="#000" opacity="1">140</text><text text-anchor="end" transform="translate(400,15)" font-family="sans-serif" font-size="10px" fill="#000" opacity="1">160</text></g><g class="mark-rule role-axis-domain" pointer-events="none"><line transform="translate(0,0)" x2="400" y2="0" stroke="#888" stroke-width="1" opacity="1"/></g><g class="mark-text role-axis-title" pointer-events="none"><text text-anchor="middle" transform="translate(200,30)" font-family="sans-serif" font-size="11px" font-weight="bold" fill="#000" opacity="1">Anzahl Epochen</text></g></g><path class="foreground" aria-hidden="true" d="" pointer-events="none" display="none"/></g></g><g class="mark-group role-axis" role="graphics-symbol" aria-roledescription="axis" aria-label="Y-axis titled 'Mittlerer Fehler' for a linear scale with values from 0.00 to 0.09"><g transform="translate(0.5,0.5)"><path class="background" aria-hidden="true" d="M0,0h0v0h0Z" pointer-events="none"/><g><g class="mark-rule role-axis-tick" pointer-events="none"><line transform="translate(0,300)" x2="-5" y2="0" stroke="#888" stroke-width="1" opacity="1"/><line transform="translate(0,267)" x2="-5" y2="0" stroke="#888" stroke-width="1" opacity="1"/><line transform="translate(0,233)" x2="-5" y2="0" stroke="#888" stroke-width="1" opacity="1"/><line transform="translate(0,200)" x2="-5" y2="0" stroke="#888" stroke-width="1" opacity="1"/><line transform="translate(0,167)" x2="-5" y2="0" stroke="#888" stroke-width="1" opacity="1"/><line transform="translate(0,133)" x2="-5" y2="0" stroke="#888" stroke-width="1" opacity="1"/><line transform="translate(0,100)" x2="-5" y2="0" stroke="#888" stroke-width="1" opacity="1"/><line transform="translate(0,67)" x2="-5" y2="0" stroke="#888" stroke-width="1" opacity="1"/><line transform="translate(0,33)" x2="-5" y2="0" stroke="#888" stroke-width="1" opacity="1"/><line transform="translate(0,0)" x2="-5" y2="0" stroke="#888" stroke-width="1" opacity="1"/></g><g class="mark-text role-axis-label" pointer-events="none"><text text-anchor="end" transform="translate(-7,303)" font-family="sans-serif" font-size="10px" fill="#000" opacity="1">0.00</text><text text-anchor="end" transform="translate(-7,269.66666666666663)" font-family="sans-serif" font-size="10px" fill="#000" opacity="1">0.01</text><text text-anchor="end" transform="translate(-7,236.33333333333334)" font-family="sans-serif" font-size="10px" fill="#000" opacity="1">0.02</text><text text-anchor="end" transform="translate(-7,203.00000000000003)" font-family="sans-serif" font-size="10px" fill="#000" opacity="1">0.03</text><text text-anchor="end" transform="translate(-7,169.66666666666669)" font-family="sans-serif" font-size="10px" fill="#000" opacity="1">0.04</text><text text-anchor="end" transform="translate(-7,136.33333333333331)" font-family="sans-serif" font-size="10px" fill="#000" opacity="1">0.05</text><text text-anchor="end" transform="translate(-7,103.00000000000001)" font-family="sans-serif" font-size="10px" fill="#000" opacity="1">0.06</text><text text-anchor="end" transform="translate(-7,69.66666666666663)" font-family="sans-serif" font-size="10px" fill="#000" opacity="1">0.07</text><text text-anchor="end" transform="translate(-7,36.333333333333314)" font-family="sans-serif" font-size="10px" fill="#000" opacity="1">0.08</text><text text-anchor="end" transform="translate(-7,3)" font-family="sans-serif" font-size="10px" fill="#000" opacity="1">0.09</text></g><g class="mark-rule role-axis-domain" pointer-events="none"><line transform="translate(0,300)" x2="0" y2="-300" stroke="#888" stroke-width="1" opacity="1"/></g><g class="mark-text role-axis-title" pointer-events="none"><text text-anchor="middle" transform="translate(-30.462890625,150) rotate(-90) translate(0,-2)" font-family="sans-serif" font-size="11px" font-weight="bold" fill="#000" opacity="1">Mittlerer Fehler</text></g></g><path class="foreground" aria-hidden="true" d="" pointer-events="none" display="none"/></g></g><g class="mark-group role-scope pathgroup" role="graphics-object" aria-roledescription="group mark container"><g transform="translate(0,0)"><path class="background" aria-hidden="true" d="M0,0h400v300h-400Z"/><g><g class="mark-line role-mark marks" role="graphics-object" aria-roledescription="line mark container"><path aria-label="Typ: Train; Anzahl Epochen: 0; Mittlerer Fehler: 0.0869173366915" role="graphics-symbol" aria-roledescription="line mark" d="M0,10.275544361634669L2.5,11.06909610556831L5,11.690676031690671L7.5,12.337517941539943L10,13.083506194931083L12.5,14.56532620570874L15,15.694704967917838L17.5,17.32535540606034L20,18.911029172666172L22.5,21.24032676219939L25,24.530193841818594L27.500000000000004,28.907047008926213L30,35.4985378456838L32.5,45.08303189367958L35,55.98157298835843L37.5,64.36518640680747L40,69.89051101334164L42.5,74.35594029498824L45,79.20697747983718L47.5,83.8877206386039L50,86.35388341816989L52.5,88.37650664376487L55.00000000000001,89.43649764088065L57.49999999999999,90.46702243839249L60,91.34193452244453L62.5,91.9182978909124L65,92.12720624425194L67.5,92.95756921849467L70,93.29008524390781L72.5,93.77439725353862L75,94.27397110019669L77.5,94.41617446189576L80,95.35869887155114L82.5,95.80090945643008L85,95.96528619753593L87.5,96.4903822338039L90,96.67012861958054L92.5,97.2733662887053L95,97.78342626311562L97.5,98.07408724093072L100,98.50384660742499L102.49999999999999,98.93818102551229L105,99.3046606919079L107.5,99.09164605267121L110.00000000000001,99.64807319144407L112.5,100.25079439986837L114.99999999999999,100.34491781032447L117.5,100.53908473840264L120,101.10485953363505L122.50000000000001,101.17739799122015L125,101.32132542855811L127.49999999999999,101.75140906463969L130,102.11322732043988L132.5,102.23059682457736L135,102.4391354710767L137.5,102.70918289368804L140,102.91560292243956L142.5,103.1649532530344L145,103.55963477808417L147.5,103.54709550738333L150,103.85299772024152L152.5,103.82874156489517L155,104.45779888241579L157.5,104.29437350143085L160,104.64600111273201L162.5,104.7655372118408L165,104.88472843937802L167.5,104.92499487643893L170,105.10052095985773L172.5,105.37372867040563L175,105.72690284161855L177.5,105.76505376534028L180,105.90560332392201L182.5,106.24496569913444L185,106.2543895547137L187.5,106.43953507145244L190,106.54960498213767L192.5,106.9187764529929L195,107.05164570474261L197.5,107.35567031484663L200,107.52457384810302L202.5,107.4229961882035L204.99999999999997,107.73437373114355L207.50000000000003,107.82493582051812L210,108.13864505652224L212.5,108.21047429785582L215,108.462711446213L217.49999999999997,108.7391700369842L220.00000000000003,108.6518275015282L222.5,109.26642391943568L225,109.05722318725154L227.5,109.2828569651553L229.99999999999997,109.49855212009317L232.50000000000003,109.88411091719614L235,109.999494164279L237.5,109.95798568156633L240,110.19510802897538L242.49999999999997,110.28184379366309L245.00000000000003,110.83795512941748L247.5,110.686596584591L250,110.96393739183745L252.5,111.02464551275428L254.99999999999997,111.56780299815262L257.5,111.53333023416275L260,111.64922881307024L262.5,112.05059074316964L265,112.1576578440991L267.5,112.5154347243634L270,112.56730431182818L272.5,112.6950439517245L275,112.78739418044233L277.5,113.02756759704965L280,113.27732037188429L282.5,113.60307414874885L285,113.75965120440179L287.5,113.72240676798604L290,113.8424257437388L292.5,114.49044168447004L295,114.40834955058315L297.5,114.89877978509122L300,115.08899480104444L302.5,115.16880971012691L305,115.41350145231594L307.5,115.56381014260378L310,115.74055343640572L312.5,116.09894752953991L315,116.2258029774283L317.5,116.53284450823611L320,116.81413158322823L322.5,116.65750542147593L325,116.82972954303926L327.5,117.00703783920315L330,117.4782579934055L332.5,117.72102161564611L335,117.53535060720012L337.5,117.95637219241169L340,117.96841108889288L342.5,118.12823366260889L345,118.41871768913485L347.5,118.2940370205677L350,118.70694170621306L352.5,118.7528226073041L355,118.49804238388033L357.5,118.64447451450607L360,119.13263401524588L362.5,119.2692082375288L365,119.34673717301905L367.5,119.39982876858929L370,119.365782155232L372.5,119.95052008917837" stroke="#f58518" stroke-width="2"/></g></g><path class="foreground" aria-hidden="true" d="" display="none"/></g><g transform="translate(0,0)"><path class="background" aria-hidden="true" d="M0,0h400v300h-400Z"/><g><g class="mark-line role-mark marks" role="graphics-object" aria-roledescription="line mark container"><path aria-label="Typ: Test; Anzahl Epochen: 0; Mittlerer Fehler: 0.0865589160668" role="graphics-symbol" aria-roledescription="line mark" d="M0,11.47027977725913L2.5,12.53111827791782L5,12.647012712662676L7.5,13.898562548453341L10,14.496682087580359L12.5,15.526475195299106L15,17.148243073831495L17.5,18.837062256378022L20,21.08586054099234L22.5,22.773309862404545L25,26.16039870078104L27.500000000000004,32.172068273812L30,40.52157449094872L32.5,50.21463802509142L35,60.687613957806654L37.5,66.08736473217346L40,70.84634858265258L42.5,75.92830791285164L45,81.13202933679547L47.5,84.33972453339058L50,85.83557563915588L52.5,87.97427656357748L55.00000000000001,88.6404486601813L57.49999999999999,89.25920761468113L60,90.23619832699758L62.5,90.88237345741506L65,91.24147575675394L67.5,90.99940443248077L70,92.57332585882723L72.5,92.33541705629278L75,92.52368538526066L77.5,93.89435693360213L80,93.46566882572677L82.5,93.61093880837423L85,94.36763284499186L87.5,94.35358588632783L90,94.88017658392589L92.5,95.4612205687322L95,95.1250961213781L97.5,96.38733819388506L100,96.11781540147047L102.49999999999999,97.12218699748054L105,96.70912419494829L107.5,97.29264713170235L110.00000000000001,97.21101491074813L112.5,97.74916642590574L114.99999999999999,97.13600586380873L117.5,98.07387841375251L120,97.87887253782202L122.50000000000001,98.27082470843668L125,98.55626298670182L127.49999999999999,98.92411252908538L130,99.19957552562678L132.5,100.4403586188952L135,99.20131922291037L137.5,99.72384543272486L140,100.257877561084L142.5,100.38155523831384L145,100.37851095722432L147.5,100.53208572299856L150,100.9572570261202L152.5,101.06604007775321L155,101.47755132955417L157.5,101.00292647094055L160,101.65341248114902L162.5,101.22419041499757L165,101.70905982193193L167.5,101.97946491994357L170,101.55557851519502L172.5,102.62471722406252L175,102.7986046253589L177.5,102.45567139303475L180,102.63384353173407L182.5,102.73133372528508L185,102.36467823647615L187.5,103.16972196624991L190,103.56383545879731L192.5,102.89754702856665L195,103.76782712706348L197.5,103.94626134320309L200,103.63792756147552L202.5,104.06744569017175L204.99999999999997,103.92901390268091L207.50000000000003,104.61353926282179L210,104.85236304893827L212.5,105.09527223674873L215,104.82108368162525L217.49999999999997,105.55207713654167L220.00000000000003,104.70807013804452L222.5,105.32463966754445L225,105.61713639058563L227.5,105.5518817221909L229.99999999999997,105.28705475623146L232.50000000000003,105.86845885243333L235,106.40676526124015L237.5,105.92627927922365L240,106.41725685512809L242.49999999999997,106.3116468358458L245.00000000000003,107.25530600338651L247.5,106.80424393269054L250,107.33320182352735L252.5,107.14717651145499L254.99999999999997,107.43809619493653L257.5,107.53529947577863L260,107.87474923489387L262.5,108.39463440995465L265,108.60868959050428L267.5,107.88078355161767L270,108.53076370661718L272.5,108.64549023017548L275,108.99085731882798L277.5,108.95603173657466L280,109.29019681194373L282.5,109.37095849137555L285,109.84256455772801L287.5,110.13381755665729L290,110.14688417576906L292.5,110.65868285664338L295,110.4953955401454L297.5,110.36221837265447L300,111.09300922406345L302.5,110.6225815258528L305,111.14340259840611L307.5,111.4959405441033L310,111.56784910381884L312.5,112.12238797493147L315,112.40258731862951L317.5,111.4454471751263L320,112.15046751394607L322.5,112.42377833839046L325,112.23870853060167L327.5,112.129267997909L330,111.57944848140082L332.5,112.24789496576577L335,113.1931573152542L337.5,112.63587022559683L340,113.05249296782308L342.5,113.2652175008205L345,113.57492898639879L347.5,113.45479098851222L350,113.54427115436184L352.5,113.83934094194782L355,113.6918508169944L357.5,113.43839644340046L360,114.00781621535619L362.5,113.90458384626787L365,114.40595628922446L367.5,114.28885472971096L370,114.21000601952535L372.5,113.97112341303574" stroke="#4c78a8" stroke-width="2"/></g></g><path class="foreground" aria-hidden="true" d="" display="none"/></g></g><g class="mark-group role-legend" role="graphics-symbol" aria-roledescription="legend" aria-label="Symbol legend titled 'Typ' for stroke color with 2 values: Test, Train"><g transform="translate(418,0)"><path class="background" aria-hidden="true" d="M0,0h39v40h-39Z" pointer-events="none"/><g><g class="mark-group role-legend-entry"><g transform="translate(0,16)"><path class="background" aria-hidden="true" d="M0,0h0v0h0Z" pointer-events="none"/><g><g class="mark-group role-scope" role="graphics-object" aria-roledescription="group mark container"><g transform="translate(0,0)"><path class="background" aria-hidden="true" d="M0,0h38.412109375v11h-38.412109375Z" pointer-events="none" opacity="1"/><g><g class="mark-symbol role-legend-symbol" pointer-events="none"><path transform="translate(6,6)" d="M-5,0L5,0" stroke="#4c78a8" stroke-width="1.5" opacity="1"/></g><g class="mark-text role-legend-label" pointer-events="none"><text text-anchor="start" transform="translate(16,9)" font-family="sans-serif" font-size="10px" fill="#000" opacity="1">Test</text></g></g><path class="foreground" aria-hidden="true" d="" pointer-events="none" display="none"/></g><g transform="translate(0,13)"><path class="background" aria-hidden="true" d="M0,0h38.412109375v11h-38.412109375Z" pointer-events="none" opacity="1"/><g><g class="mark-symbol role-legend-symbol" pointer-events="none"><path transform="translate(6,6)" d="M-5,0L5,0" stroke="#f58518" stroke-width="1.5" opacity="1"/></g><g class="mark-text role-legend-label" pointer-events="none"><text text-anchor="start" transform="translate(16,9)" font-family="sans-serif" font-size="10px" fill="#000" opacity="1">Train</text></g></g><path class="foreground" aria-hidden="true" d="" pointer-events="none" display="none"/></g></g></g><path class="foreground" aria-hidden="true" d="" pointer-events="none" display="none"/></g></g><g class="mark-text role-legend-title" pointer-events="none"><text text-anchor="start" transform="translate(0,9)" font-family="sans-serif" font-size="11px" font-weight="bold" fill="#000" opacity="1">Typ</text></g></g><path class="foreground" aria-hidden="true" d="" pointer-events="none" display="none"/></g></g></g><path class="foreground" aria-hidden="true" d="" display="none"/></g></g></g></svg>