<svg xmlns="http://www.w3.org/2000/svg" xmlns:xlink="http://www.w3.org/1999/xlink" version="1.1" class="marks" width="509" height="347" viewBox="0 0 509 347"><rect width="509" height="347" fill="white"/><g fill="none" stroke-miterlimit="10" transform="translate(47,10)"><g class="mark-group role-frame root" role="graphics-object" aria-roledescription="group mark container"><g transform="translate(0,0)"><path class="background" aria-hidden="true" d="M0.5,0.5h400v300h-400Z" stroke="#ddd"/><g><g class="mark-group role-axis" aria-hidden="true"><g transform="translate(0.5,300.5)"><path class="background" aria-hidden="true" d="M0,0h0v0h0Z" pointer-events="none"/><g><g class="mark-rule role-axis-grid" pointer-events="none"><line transform="translate(0,-300)" x2="0" y2="300" stroke="#ddd" stroke-width="1" opacity="1"/><line transform="translate(31,-300)" x2="0" y2="300" stroke="#ddd" stroke-width="1" opacity="1"/><line transform="translate(62,-300)" x2="0" y2="300" stroke="#ddd" stroke-width="1" opacity="1"/><line transform="translate(92,-300)" x2="0" y2="300" stroke="#ddd" stroke-width="1" opacity="1"/><line transform="translate(123,-300)" x2="0" y2="300" stroke="#ddd" stroke-width="1" opacity="1"/><line transform="translate(154,-300)" x2="0" y2="300" stroke="#ddd" stroke-width="1" opacity="1"/><line transform="translate(185,-300)" x2="0" y2="300" stroke="#ddd" stroke-width="1" opacity="1"/><line transform="translate(215,-300)" x2="0" y2="300" stroke="#ddd" stroke-width="1" opacity="1"/><line transform="translate(246,-300)" x2="0" y2="300" stroke="#ddd" stroke-width="1" opacity="1"/><line transform="translate(277,-300)" x2="0" y2="300" stroke="#ddd" stroke-width="1" opacity="1"/><line transform="translate(308,-300)" x2="0" y2="300" stroke="#ddd" stroke-width="1" opacity="1"/><line transform="translate(338,-300)" x2="0" y2="300" stroke="#ddd" stroke-width="1" opacity="1"/><line transform="translate(369,-300)" x2="0" y2="300" stroke="#ddd" stroke-width="1" opacity="1"/><line transform="translate(400,-300)" x2="0" y2="300" stroke="#ddd" stroke-width="1" opacity="1"/></g></g><path class="foreground" aria-hidden="true" d="" pointer-events="none" display="none"/></g></g><g class="mark-group role-axis" aria-hidden="true"><g transform="translate(0.5,0.5)"><path class="background" aria-hidden="true" d="M0,0h0v0h0Z" pointer-events="none"/><g><g class="mark-rule role-axis-grid" pointer-events="none"><line transform="translate(0,300)" x2="400" y2="0" stroke="#ddd" stroke-width="1" opacity="1"/><line transform="translate(0,270)" x2="400" y2="0" stroke="#ddd" stroke-width="1" opacity="1"/><line transform="translate(0,240)" x2="400" y2="0" stroke="#ddd" stroke-width="1" opacity="1"/><line transform="translate(0,210)" x2="400" y2="0" stroke="#ddd" stroke-width="1" opacity="1"/><line transform="translate(0,180)" x2="400" y2="0" stroke="#ddd" stroke-width="1" opacity="1"/><line transform="translate(0,150)" x2="400" y2="0" stroke="#ddd" stroke-width="1" opacity="1"/><line transform="translate(0,120)" x2="400" y2="0" stroke="#ddd" stroke-width="1" opacity="1"/><line transform="translate(0,90)" x2="400" y2="0" stroke="#ddd" stroke-width="1" opacity="1"/><line transform="translate(0,60)" x2="400" y2="0" stroke="#ddd" stroke-width="1" opacity="1"/><line transform="translate(0,30)" x2="400" y2="0" stroke="#ddd" stroke-width="1" opacity="1"/><line transform="translate(0,0)" x2="400" y2="0" stroke="#ddd" stroke-width="1" opacity="1"/></g></g><path class="foreground" aria-hidden="true" d="" pointer-events="none" display="none"/></g></g><g class="mark-group role-axis" role="graphics-symbol" aria-roledescription="axis" aria-label="X-axis titled 'Anzahl Epochen' for a linear scale with values from 0 to 260"><g transform="translate(0.5,300.5)"><path class="background" aria-hidden="true" d="M0,0h0v0h0Z" pointer-events="none"/><g><g class="mark-rule role-axis-tick" pointer-events="none"><line transform="translate(0,0)" x2="0" y2="5" stroke="#888" stroke-width="1" opacity="1"/><line transform="translate(31,0)" x2="0" y2="5" stroke="#888" stroke-width="1" opacity="1"/><line transform="translate(62,0)" x2="0" y2="5" stroke="#888" stroke-width="1" opacity="1"/><line transform="translate(92,0)" x2="0" y2="5" stroke="#888" stroke-width="1" opacity="1"/><line transform="translate(123,0)" x2="0" y2="5" stroke="#888" stroke-width="1" opacity="1"/><line transform="translate(154,0)" x2="0" y2="5" stroke="#888" stroke-width="1" opacity="1"/><line transform="translate(185,0)" x2="0" y2="5" stroke="#888" stroke-width="1" opacity="1"/><line transform="translate(215,0)" x2="0" y2="5" stroke="#888" stroke-width="1" opacity="1"/><line transform="translate(246,0)" x2="0" y2="5" stroke="#888" stroke-width="1" opacity="1"/><line transform="translate(277,0)" x2="0" y2="5" stroke="#888" stroke-width="1" opacity="1"/><line transform="translate(308,0)" x2="0" y2="5" stroke="#888" stroke-width="1" opacity="1"/><line transform="translate(338,0)" x2="0" y2="5" stroke="#888" stroke-width="1" opacity="1"/><line transform="translate(369,0)" x2="0" y2="5" stroke="#888" stroke-width="1" opacity="1"/><line transform="translate(400,0)" x2="0" y2="5" stroke="#888" stroke-width="1" opacity="1"/></g><g class="mark-text role-axis-label" pointer-events="none"><text text-anchor="start" transform="translate(0,15)" font-family="sans-serif" font-size="10px" fill="#000" opacity="1">0</text><text text-anchor="middle" transform="translate(30.76923076923077,15)" font-family="sans-serif" font-size="10px" fill="#000" opacity="1">20</text><text text-anchor="middle" transform="translate(61.53846153846154,15)" font-family="sans-serif" font-size="10px" fill="#000" opacity="1">40</text><text text-anchor="middle" transform="translate(92.3076923076923,15)" font-family="sans-serif" font-size="10px" fill="#000" opacity="1">60</text><text text-anchor="middle" transform="translate(123.07692307692308,15)" font-family="sans-serif" font-size="10px" fill="#000" opacity="1">80</text><text text-anchor="middle" transform="translate(153.84615384615387,15)" font-family="sans-serif" font-size="10px" fill="#000" opacity="1">100</text><text text-anchor="middle" transform="translate(184.6153846153846,15)" font-family="sans-serif" font-size="10px" fill="#000" opacity="1">120</text><text text-anchor="middle" transform="translate(215.3846153846154,15)" font-family="sans-serif" font-size="10px" fill="#000" opacity="1">140</text><text text-anchor="middle" transform="translate(246.15384615384616,15)" font-family="sans-serif" font-size="10px" fill="#000" opacity="1">160</text><text text-anchor="middle" transform="translate(276.9230769230769,15)" font-family="sans-serif" font-size="10px" fill="#000" opacity="1">180</text><text text-anchor="middle" transform="translate(307.69230769230774,15)" font-family="sans-serif" font-size="10px" fill="#000" opacity="1">200</text><text text-anchor="middle" transform="translate(338.46153846153845,15)" font-family="sans-serif" font-size="10px" fill="#000" opacity="1">220</text><text text-anchor="middle" transform="translate(369.2307692307692,15)" font-family="sans-serif" font-size="10px" fill="#000" opacity="1">240</text><text text-anchor="end" transform="translate(400,15)" font-family="sans-serif" font-size="10px" fill="#000" opacity="1">260</text></g><g class="mark-rule role-axis-domain" pointer-events="none"><line transform="translate(0,0)" x2="400" y2="0" stroke="#888" stroke-width="1" opacity="1"/></g><g class="mark-text role-axis-title" pointer-events="none"><text text-anchor="middle" transform="translate(200,30)" font-family="sans-serif" font-size="11px" font-weight="bold" fill="#000" opacity="1">Anzahl Epochen</text></g></g><path class="foreground" aria-hidden="true" d="" pointer-events="none" display="none"/></g></g><g class="mark-group role-axis" role="graphics-symbol" aria-roledescription="axis" aria-label="Y-axis titled 'Genauigkeit' for a linear scale with values from 0.0 to 0.5"><g transform="translate(0.5,0.5)"><path class="background" aria-hidden="true" d="M0,0h0v0h0Z" pointer-events="none"/><g><g class="mark-rule role-axis-tick" pointer-events="none"><line transform="translate(0,300)" x2="-5" y2="0" stroke="#888" stroke-width="1" opacity="1"/><line transform="translate(0,270)" x2="-5" y2="0" stroke="#888" stroke-width="1" opacity="1"/><line transform="translate(0,240)" x2="-5" y2="0" stroke="#888" stroke-width="1" opacity="1"/><line transform="translate(0,210)" x2="-5" y2="0" stroke="#888" stroke-width="1" opacity="1"/><line transform="translate(0,180)" x2="-5" y2="0" stroke="#888" stroke-width="1" opacity="1"/><line transform="translate(0,150)" x2="-5" y2="0" stroke="#888" stroke-width="1" opacity="1"/><line transform="translate(0,120)" x2="-5" y2="0" stroke="#888" stroke-width="1" opacity="1"/><line transform="translate(0,90)" x2="-5" y2="0" stroke="#888" stroke-width="1" opacity="1"/><line transform="translate(0,60)" x2="-5" y2="0" stroke="#888" stroke-width="1" opacity="1"/><line transform="translate(0,30)" x2="-5" y2="0" stroke="#888" stroke-width="1" opacity="1"/><line transform="translate(0,0)" x2="-5" y2="0" stroke="#888" stroke-width="1" opacity="1"/></g><g class="mark-text role-axis-label" pointer-events="none"><text text-anchor="end" transform="translate(-7,303)" font-family="sans-serif" font-size="10px" fill="#000" opacity="1">0.00</text><text text-anchor="end" transform="translate(-7,273)" font-family="sans-serif" font-size="10px" fill="#000" opacity="1">0.05</text><text text-anchor="end" transform="translate(-7,243)" font-family="sans-serif" font-size="10px" fill="#000" opacity="1">0.10</text><text text-anchor="end" transform="translate(-7,213)" font-family="sans-serif" font-size="10px" fill="#000" opacity="1">0.15</text><text text-anchor="end" transform="translate(-7,183)" font-family="sans-serif" font-size="10px" fill="#000" opacity="1">0.20</text><text text-anchor="end" transform="translate(-7,153)" font-family="sans-serif" font-size="10px" fill="#000" opacity="1">0.25</text><text text-anchor="end" transform="translate(-7,123)" font-family="sans-serif" font-size="10px" fill="#000" opacity="1">0.30</text><text text-anchor="end" transform="translate(-7,93.00000000000001)" font-family="sans-serif" font-size="10px" fill="#000" opacity="1">0.35</text><text text-anchor="end" transform="translate(-7,62.999999999999986)" font-family="sans-serif" font-size="10px" fill="#000" opacity="1">0.40</text><text text-anchor="end" transform="translate(-7,32.99999999999999)" font-family="sans-serif" font-size="10px" fill="#000" opacity="1">0.45</text><text text-anchor="end" transform="translate(-7,3)" font-family="sans-serif" font-size="10px" fill="#000" opacity="1">0.50</text></g><g class="mark-rule role-axis-domain" pointer-events="none"><line transform="translate(0,300)" x2="0" y2="-300" stroke="#888" stroke-width="1" opacity="1"/></g><g class="mark-text role-axis-title" pointer-events="none"><text text-anchor="middle" transform="translate(-30.462890625,150) rotate(-90) translate(0,-2)" font-family="sans-serif" font-size="11px" font-weight="bold" fill="#000" opacity="1">Genauigkeit</text></g></g><path class="foreground" aria-hidden="true" d="" pointer-events="none" display="none"/></g></g><g class="mark-group role-scope pathgroup" role="graphics-object" aria-roledescription="group mark container"><g transform="translate(0,0)"><path class="background" aria-hidden="true" d="M0,0h400v300h-400Z"/><g><g class="mark-line role-mark marks" role="graphics-object" aria-roledescription="line mark container"><path aria-label="Typ: Train; Anzahl Epochen: 1; Genauigkeit: 0" role="graphics-symbol" aria-roledescription="line mark" d="M1.5384615384615385,300L3.076923076923077,293.13795547932386L4.615384615384616,264.4031457602978L6.153846153846154,235.88277250528336L7.6923076923076925,222.80200123786926L9.230769230769232,205.64688742160797L10.76923076923077,188.4917825460434L12.307692307692308,173.90993535518646L13.846153846153847,167.69120693206787L15.384615384615385,157.82701671123505L16.923076923076923,150.75053572654724L18.461538461538463,140.88635444641113L20,135.73982119560242L21.53846153846154,128.44889760017395L23.076923076923077,125.87562203407288L24.615384615384617,122.0157265663147L26.153846153846157,120.72908878326416L27.692307692307693,116.22587442398071L29.230769230769234,113.4381651878357L30.76923076923077,110.43602228164673L32.30769230769231,111.50822639465332L33.84615384615385,107.43387937545776L35.38461538461539,106.3616931438446L36.92307692307693,104.4317364692688L38.46153846153847,103.78841757774353L40,101.42959356307983L41.53846153846154,98.42745065689087L43.07692307692308,97.7841317653656L44.61538461538462,96.49749398231506L46.15384615384615,93.70978474617004L47.69230769230769,92.20871329307556L49.23076923076923,92.42316484451294L50.76923076923077,90.92209339141846L52.307692307692314,90.06432294845581L53.84615384615385,88.56325149536133L55.38461538461539,87.06218004226685L56.92307692307692,87.27663159370422L58.46153846153847,86.8477463722229L60,85.98999381065369L61.53846153846154,85.13224124908447L63.07692307692307,84.4889223575592L64.61538461538461,85.13224124908447L66.15384615384615,83.84560346603394L67.6923076923077,84.27448868751526L69.23076923076923,83.63116979598999L70.76923076923077,82.5589656829834L72.3076923076923,82.13009834289551L73.84615384615385,79.98570799827576L75.38461538461539,79.12795543670654L76.92307692307693,78.69907021522522L78.46153846153847,77.62688398361206L80,76.34024620056152L81.53846153846153,75.05360841751099L83.07692307692308,75.26804208755493L84.61538461538461,73.33810329437256L86.15384615384616,73.33810329437256L87.6923076923077,72.26589918136597L89.23076923076924,71.19371294975281L90.76923076923077,71.19371294975281L92.3076923076923,68.62043738365173L93.84615384615384,67.54825115203857L95.38461538461539,65.61829447746277L96.92307692307692,64.76054191589355L98.46153846153847,63.688355684280396L100,62.83058524131775L101.53846153846153,61.543965339660645L103.07692307692307,60.68621277809143L104.61538461538463,59.828442335128784L106.15384615384616,58.97068977355957L107.6923076923077,57.89850354194641L109.23076923076923,57.89850354194641L110.76923076923077,57.46961832046509L112.3076923076923,56.611865758895874L113.84615384615384,56.18298053741455L115.38461538461537,55.968546867370605L116.92307692307693,55.75411319732666L118.46153846153847,54.896360635757446L120,55.11079430580139L121.53846153846153,54.46747541427612L123.07692307692308,54.46747541427612L124.61538461538461,53.60972285270691L126.15384615384615,53.395289182662964L127.69230769230768,53.395289182662964L129.23076923076923,52.96640396118164L130.76923076923077,52.96640396118164L132.3076923076923,52.751970291137695L133.84615384615384,52.53751873970032L135.3846153846154,52.32308506965637L136.92307692307693,51.6797661781311L138.46153846153845,51.25089883804321L140,51.25089883804321L141.53846153846155,51.036447286605835L143.07692307692307,50.393146276474L144.6153846153846,51.036447286605835L146.15384615384613,51.036447286605835L147.6923076923077,49.964261054992676L149.23076923076923,51.25089883804321L150.76923076923077,49.964261054992676L152.3076923076923,50.17869472503662L153.84615384615387,49.74982738494873L155.3846153846154,50.17869472503662L156.92307692307693,49.53537583351135L158.46153846153845,49.10650849342346L160,49.32094216346741L161.53846153846155,48.892056941986084L163.07692307692307,48.892056941986084L164.6153846153846,47.819870710372925L166.15384615384616,46.96211814880371L167.6923076923077,46.53323292732239L169.23076923076923,46.1043655872345L170.76923076923077,45.88991403579712L172.30769230769232,44.603294134140015L173.84615384615384,43.959975242614746L175.3846153846154,43.959975242614746L176.9230769230769,42.887771129608154L178.46153846153848,42.458903789520264L180,41.17226600646973L181.53846153846155,42.03001856803894L183.07692307692307,41.17226600646973L184.6153846153846,40.31451344490051L186.15384615384616,40.31451344490051L187.69230769230768,39.4567608833313L189.23076923076923,39.027875661849976L190.76923076923077,38.38455677032471L192.30769230769232,37.74123787879944L193.84615384615384,38.59899044036865L195.3846153846154,37.52680420875549L196.92307692307693,36.66905164718628L198.46153846153845,36.883485317230225L200,36.454617977142334L201.53846153846155,36.454617977142334L203.07692307692307,36.240166425704956L204.61538461538458,35.811299085617065L206.15384615384613,35.38241386413574L207.6923076923077,34.739094972610474L209.23076923076925,34.95354652404785L210.76923076923077,34.52466130256653L212.30769230769232,33.88134241104126L213.84615384615384,33.88134241104126L215.3846153846154,32.59470462799072L216.9230769230769,32.59470462799072L218.46153846153845,32.8091561794281L220.00000000000003,31.308084726333618L221.53846153846155,30.45031428337097L223.0769230769231,30.235880613327026L224.6153846153846,30.02144694328308L226.15384615384616,28.5203754901886L227.69230769230768,28.30592393875122L229.23076923076923,28.091490268707275L230.76923076923075,27.87705659866333L232.30769230769232,27.662622928619385L233.84615384615387,26.590418815612793L235.3846153846154,26.80485248565674L236.92307692307693,26.590418815612793L238.46153846153845,25.73266625404358L240,25.518232583999634L241.53846153846152,25.303781032562256L243.07692307692307,25.303781032562256L244.61538461538464,24.01716113090515L246.15384615384616,23.802709579467773L247.6923076923077,23.159390687942505L249.23076923076923,22.730523347854614L250.76923076923077,22.51608967781067L252.3076923076923,22.30163812637329L253.84615384615384,21.8727707862854L255.38461538461536,21.658319234848022L256.92307692307696,21.443885564804077L258.46153846153845,21.229451894760132L260,20.80056667327881L261.53846153846155,21.015018224716187L263.0769230769231,20.371699333190918L264.6153846153846,20.80056667327881L266.15384615384613,20.371699333190918L267.6923076923077,19.72838044166565L269.2307692307692,19.513946771621704L270.7692307692308,19.513946771621704L272.3076923076923,19.513946771621704L273.84615384615387,19.08506155014038L275.38461538461536,18.870627880096436L276.9230769230769,18.870627880096436L278.46153846153845,18.870627880096436L280,18.01285743713379L281.53846153846155,18.01285743713379L283.0769230769231,17.5839900970459L284.61538461538464,17.5839900970459L286.15384615384613,17.369556427001953L287.6923076923077,17.155104875564575L289.2307692307692,17.798423767089844L290.7692307692308,17.155104875564575L292.30769230769226,17.155104875564575L293.84615384615387,17.369556427001953L295.3846153846154,17.155104875564575L296.9230769230769,16.94067120552063L298.46153846153845,16.94067120552063L300,17.155104875564575L301.53846153846155,16.94067120552063L303.0769230769231,16.94067120552063L304.6153846153846,17.155104875564575L306.15384615384613,16.94067120552063L307.69230769230774,16.94067120552063L309.2307692307692,16.726237535476685L310.7692307692308,16.726237535476685L312.3076923076923,16.726237535476685L313.84615384615387,16.726237535476685L315.38461538461536,16.726237535476685L316.9230769230769,16.511785984039307L318.46153846153845,16.511785984039307L320,16.511785984039307L321.53846153846155,16.511785984039307L323.0769230769231,16.29735231399536L324.61538461538464,16.082918643951416L326.15384615384613,16.082918643951416L327.6923076923077,16.082918643951416L329.2307692307692,16.082918643951416L330.7692307692308,16.082918643951416L332.3076923076923,16.082918643951416L333.84615384615387,16.082918643951416L335.3846153846154,16.082918643951416L336.9230769230769,15.86848497390747L338.46153846153845,15.654033422470093L340,15.654033422470093L341.53846153846155,15.654033422470093L343.07692307692304,15.654033422470093L344.61538461538464,15.225166082382202L346.1538461538462,15.439599752426147L347.6923076923077,15.225166082382202L349.2307692307692,15.439599752426147L350.7692307692308,15.225166082382202L352.3076923076923,15.225166082382202L353.8461538461538,15.225166082382202L355.38461538461536,15.225166082382202L356.92307692307696,15.225166082382202L358.46153846153845,15.010714530944824L360,15.010714530944824L361.53846153846155,15.225166082382202L363.0769230769231,15.010714530944824L364.6153846153846,15.010714530944824L366.15384615384613,15.225166082382202L367.6923076923077,15.010714530944824L369.2307692307692,15.010714530944824L370.7692307692308,15.010714530944824L372.3076923076923,15.010714530944824L373.84615384615387,15.010714530944824L375.38461538461536,15.010714530944824L376.9230769230769,15.010714530944824L378.46153846153845,15.010714530944824L380,15.010714530944824L381.53846153846155,15.010714530944824L383.0769230769231,15.010714530944824" stroke="#f58518" stroke-width="2"/></g></g><path class="foreground" aria-hidden="true" d="" display="none"/></g><g transform="translate(0,0)"><path class="background" aria-hidden="true" d="M0,0h400v300h-400Z"/><g><g class="mark-line role-mark marks" role="graphics-object" aria-roledescription="line mark container"><path aria-label="Typ: Test; Anzahl Epochen: 1; Genauigkeit: 0" role="graphics-symbol" aria-roledescription="line mark" d="M1.5384615384615385,300L3.076923076923077,281.48457035422325L4.615384615384616,249.95829910039902L6.153846153846154,228.94078195095062L7.6923076923076925,232.44370222091675L9.230769230769232,196.91409766674042L10.76923076923077,197.91492819786072L12.307692307692308,182.90241658687592L13.846153846153847,169.39115524291992L15.384615384615385,166.3886547088623L16.923076923076923,156.38031363487244L18.461538461538463,163.8865739107132L20,155.87990283966064L21.53846153846154,148.8740622997284L23.076923076923077,134.8623812198639L24.615384615384617,142.36863255500793L26.153846153846157,145.37115097045898L27.692307692307693,135.36280989646912L29.230769230769234,125.85487961769104L30.76923076923077,132.36029148101807L32.30769230769231,138.36531043052673L33.84615384615385,126.35529041290283L35.38461538461539,125.85487961769104L36.92307692307693,127.85654067993164L38.46153846153847,136.86406016349792L40,132.8607201576233L41.53846153846154,134.8623812198639L43.07692307692308,118.348628282547L44.61538461538462,120.85070013999939L46.15384615384615,115.84653854370117L47.69230769230769,122.35196828842163L49.23076923076923,120.3502893447876L50.76923076923077,117.84819960594177L52.307692307692314,123.85321855545044L53.84615384615385,116.34694933891296L55.38461538461539,117.84819960594177L56.92307692307692,113.84487748146057L58.46153846153847,116.34694933891296L60,110.84237694740295L61.53846153846154,109.34110879898071L63.07692307692307,116.34694933891296L64.61538461538461,108.84069800376892L66.15384615384615,112.84403800964355L67.6923076923077,110.34194827079773L69.23076923076923,108.34028720855713L70.76923076923077,107.8398585319519L72.3076923076923,104.3369472026825L73.84615384615385,107.8398585319519L75.38461538461539,104.3369472026825L76.92307692307693,105.8381974697113L78.46153846153847,106.3386082649231L80,103.8365364074707L81.53846153846153,103.33610773086548L83.07692307692308,100.83403587341309L84.61538461538461,101.33444666862488L86.15384615384616,99.83319640159607L87.6923076923077,101.83485746383667L89.23076923076924,99.33278560638428L90.76923076923077,99.83319640159607L92.3076923076923,97.33110666275024L93.84615384615384,97.33110666275024L95.38461538461539,95.32944560050964L96.92307692307692,92.82735586166382L98.46153846153847,93.82819533348083L100,92.32694506645203L101.53846153846153,92.82735586166382L103.07692307692307,91.8265163898468L104.61538461538463,90.82569479942322L106.15384615384616,89.8248553276062L107.6923076923077,90.325266122818L109.23076923076923,89.8248553276062L110.76923076923077,89.8248553276062L112.3076923076923,88.82401585578918L113.84615384615384,89.32444453239441L115.38461538461537,87.32276558876038L116.92307692307693,85.82151532173157L118.46153846153847,86.32192611694336L120,84.32026505470276L121.53846153846153,84.32026505470276L123.07692307692308,84.32026505470276L124.61538461538461,84.82067584991455L126.15384615384615,84.32026505470276L127.69230769230768,83.81985425949097L129.23076923076923,85.32110452651978L130.76923076923077,83.31942558288574L132.3076923076923,84.32026505470276L133.84615384615384,82.81901478767395L135.3846153846154,81.81817531585693L136.92307692307693,82.31860399246216L138.46153846153845,83.31942558288574L140,81.81817531585693L141.53846153846155,81.31776452064514L143.07692307692307,82.81901478767395L144.6153846153846,82.31860399246216L146.15384615384613,81.81817531585693L147.6923076923077,80.81735372543335L149.23076923076923,82.31860399246216L150.76923076923077,84.32026505470276L152.3076923076923,82.31860399246216L153.84615384615387,82.81901478767395L155.3846153846154,84.32026505470276L156.92307692307693,83.81985425949097L158.46153846153845,83.31942558288574L160,84.32026505470276L161.53846153846155,83.31942558288574L163.07692307692307,83.81985425949097L164.6153846153846,82.31860399246216L166.15384615384616,83.81985425949097L167.6923076923077,82.81901478767395L169.23076923076923,83.81985425949097L170.76923076923077,82.81901478767395L172.30769230769232,82.81901478767395L173.84615384615384,81.81817531585693L175.3846153846154,81.31776452064514L176.9230769230769,81.31776452064514L178.46153846153848,81.31776452064514L180,81.81817531585693L181.53846153846155,78.81567478179932L183.07692307692307,79.31610345840454L184.6153846153846,81.81817531585693L186.15384615384616,78.81567478179932L187.69230769230768,78.31526398658752L189.23076923076923,77.81485319137573L190.76923076923077,78.31526398658752L192.30769230769232,77.81485319137573L193.84615384615384,78.81567478179932L195.3846153846154,78.81567478179932L196.92307692307693,78.31526398658752L198.46153846153845,79.31610345840454L200,78.31526398658752L201.53846153846155,78.81567478179932L203.07692307692307,77.81485319137573L204.61538461538458,79.81651425361633L206.15384615384613,78.31526398658752L207.6923076923077,79.81651425361633L209.23076923076925,77.31442451477051L210.76923076923077,77.31442451477051L212.30769230769232,76.81401371955872L213.84615384615384,76.31360292434692L215.3846153846154,76.31360292434692L216.9230769230769,74.81233477592468L218.46153846153845,75.8131742477417L220.00000000000003,73.8115131855011L221.53846153846155,74.31192398071289L223.0769230769231,75.31276345252991L224.6153846153846,74.31192398071289L226.15384615384616,74.81233477592468L227.69230769230768,75.31276345252991L229.23076923076923,73.31108450889587L230.76923076923075,71.80983424186707L232.30769230769232,73.31108450889587L233.84615384615387,71.30942344665527L235.3846153846154,73.8115131855011L236.92307692307693,70.80901265144348L238.46153846153845,71.80983424186707L240,70.80901265144348L241.53846153846152,70.30858397483826L243.07692307692307,71.80983424186707L244.61538461538464,69.30776238441467L246.15384615384616,68.30692291259766L247.6923076923077,69.80817317962646L249.23076923076923,71.80983424186707L250.76923076923077,69.80817317962646L252.3076923076923,67.80651211738586L253.84615384615384,67.30608344078064L255.38461538461536,68.30692291259766L256.92307692307696,62.802332639694214L258.46153846153845,66.80567264556885L260,65.80483317375183L261.53846153846155,66.30526185035706L263.0769230769231,66.80567264556885L264.6153846153846,65.80483317375183L266.15384615384613,64.30358290672302L267.6923076923077,64.30358290672302L269.2307692307692,65.30442237854004L270.7692307692308,65.80483317375183L272.3076923076923,62.802332639694214L273.84615384615387,64.30358290672302L275.38461538461536,64.80401158332825L276.9230769230769,63.80317211151123L278.46153846153845,64.80401158332825L280,62.30192184448242L281.53846153846155,62.802332639694214L283.0769230769231,63.80317211151123L284.61538461538464,63.80317211151123L286.15384615384613,62.802332639694214L287.6923076923077,62.30192184448242L289.2307692307692,64.80401158332825L290.7692307692308,62.30192184448242L292.30769230769226,61.8014931678772L293.84615384615387,62.30192184448242L295.3846153846154,62.802332639694214L296.9230769230769,61.8014931678772L298.46153846153845,63.80317211151123L300,61.8014931678772L301.53846153846155,62.802332639694214L303.0769230769231,60.80067157745361L304.6153846153846,61.8014931678772L306.15384615384613,60.80067157745361L307.69230769230774,62.802332639694214L309.2307692307692,60.30024290084839L310.7692307692308,60.30024290084839L312.3076923076923,59.299421310424805L313.84615384615387,61.301082372665405L315.38461538461536,60.30024290084839L316.9230769230769,61.301082372665405L318.46153846153845,59.299421310424805L320,59.299421310424805L321.53846153846155,59.299421310424805L323.0769230769231,60.80067157745361L324.61538461538464,60.30024290084839L326.15384615384613,60.80067157745361L327.6923076923077,61.301082372665405L329.2307692307692,61.301082372665405L330.7692307692308,60.80067157745361L332.3076923076923,59.299421310424805L333.84615384615387,58.29858183860779L335.3846153846154,59.7998321056366L336.9230769230769,61.301082372665405L338.46153846153845,59.7998321056366L340,59.299421310424805L341.53846153846155,60.80067157745361L343.07692307692304,57.798171043395996L344.61538461538464,59.7998321056366L346.1538461538462,59.299421310424805L347.6923076923077,60.80067157745361L349.2307692307692,58.79899263381958L350.7692307692308,58.79899263381958L352.3076923076923,58.29858183860779L353.8461538461538,59.299421310424805L355.38461538461536,56.79733157157898L356.92307692307696,56.29692077636719L358.46153846153845,55.79649209976196L360,58.29858183860779L361.53846153846155,57.29774236679077L363.0769230769231,56.79733157157898L364.6153846153846,56.79733157157898L366.15384615384613,56.29692077636719L367.6923076923077,57.798171043395996L369.2307692307692,55.29608130455017L370.7692307692308,56.29692077636719L372.3076923076923,54.295241832733154L373.84615384615387,55.29608130455017L375.38461538461536,54.79567050933838L376.9230769230769,55.29608130455017L378.46153846153845,55.79649209976196L380,54.79567050933838L381.53846153846155,56.29692077636719L383.0769230769231,54.295241832733154" stroke="#4c78a8" stroke-width="2"/></g></g><path class="foreground" aria-hidden="true" d="" display="none"/></g></g><g class="mark-group role-legend" role="graphics-symbol" aria-roledescription="legend" aria-label="Symbol legend titled 'Typ' for stroke color with 2 values: Test, Train"><g transform="translate(418,0)"><path class="background" aria-hidden="true" d="M0,0h39v40h-39Z" pointer-events="none"/><g><g class="mark-group role-legend-entry"><g transform="translate(0,16)"><path class="background" aria-hidden="true" d="M0,0h0v0h0Z" pointer-events="none"/><g><g class="mark-group role-scope" role="graphics-object" aria-roledescription="group mark container"><g transform="translate(0,0)"><path class="background" aria-hidden="true" d="M0,0h38.412109375v11h-38.412109375Z" pointer-events="none" opacity="1"/><g><g class="mark-symbol role-legend-symbol" pointer-events="none"><path transform="translate(6,6)" d="M-5,0L5,0" stroke="#4c78a8" stroke-width="1.5" opacity="1"/></g><g class="mark-text role-legend-label" pointer-events="none"><text text-anchor="start" transform="translate(16,9)" font-family="sans-serif" font-size="10px" fill="#000" opacity="1">Test</text></g></g><path class="foreground" aria-hidden="true" d="" pointer-events="none" display="none"/></g><g transform="translate(0,13)"><path class="background" aria-hidden="true" d="M0,0h38.412109375v11h-38.412109375Z" pointer-events="none" opacity="1"/><g><g class="mark-symbol role-legend-symbol" pointer-events="none"><path transform="translate(6,6)" d="M-5,0L5,0" stroke="#f58518" stroke-width="1.5" opacity="1"/></g><g class="mark-text role-legend-label" pointer-events="none"><text text-anchor="start" transform="translate(16,9)" font-family="sans-serif" font-size="10px" fill="#000" opacity="1">Train</text></g></g><path class="foreground" aria-hidden="true" d="" pointer-events="none" display="none"/></g></g></g><path class="foreground" aria-hidden="true" d="" pointer-events="none" display="none"/></g></g><g class="mark-text role-legend-title" pointer-events="none"><text text-anchor="start" transform="translate(0,9)" font-family="sans-serif" font-size="11px" font-weight="bold" fill="#000" opacity="1">Typ</text></g></g><path class="foreground" aria-hidden="true" d="" pointer-events="none" display="none"/></g></g></g><path class="foreground" aria-hidden="true" d="" display="none"/></g></g></g></svg>