<svg xmlns="http://www.w3.org/2000/svg" xmlns:xlink="http://www.w3.org/1999/xlink" version="1.1" class="marks" width="509" height="347" viewBox="0 0 509 347"><rect width="509" height="347" fill="white"/><g fill="none" stroke-miterlimit="10" transform="translate(47,10)"><g class="mark-group role-frame root" role="graphics-object" aria-roledescription="group mark container"><g transform="translate(0,0)"><path class="background" aria-hidden="true" d="M0.5,0.5h400v300h-400Z" stroke="#ddd"/><g><g class="mark-group role-axis" aria-hidden="true"><g transform="translate(0.5,300.5)"><path class="background" aria-hidden="true" d="M0,0h0v0h0Z" pointer-events="none"/><g><g class="mark-rule role-axis-grid" pointer-events="none"><line transform="translate(0,-300)" x2="0" y2="300" stroke="#ddd" stroke-width="1" opacity="1"/><line transform="translate(31,-300)" x2="0" y2="300" stroke="#ddd" stroke-width="1" opacity="1"/><line transform="translate(62,-300)" x2="0" y2="300" stroke="#ddd" stroke-width="1" opacity="1"/><line transform="translate(92,-300)" x2="0" y2="300" stroke="#ddd" stroke-width="1" opacity="1"/><line transform="translate(123,-300)" x2="0" y2="300" stroke="#ddd" stroke-width="1" opacity="1"/><line transform="translate(154,-300)" x2="0" y2="300" stroke="#ddd" stroke-width="1" opacity="1"/><line transform="translate(185,-300)" x2="0" y2="300" stroke="#ddd" stroke-width="1" opacity="1"/><line transform="translate(215,-300)" x2="0" y2="300" stroke="#ddd" stroke-width="1" opacity="1"/><line transform="translate(246,-300)" x2="0" y2="300" stroke="#ddd" stroke-width="1" opacity="1"/><line transform="translate(277,-300)" x2="0" y2="300" stroke="#ddd" stroke-width="1" opacity="1"/><line transform="translate(308,-300)" x2="0" y2="300" stroke="#ddd" stroke-width="1" opacity="1"/><line transform="translate(338,-300)" x2="0" y2="300" stroke="#ddd" stroke-width="1" opacity="1"/><line transform="translate(369,-300)" x2="0" y2="300" stroke="#ddd" stroke-width="1" opacity="1"/><line transform="translate(400,-300)" x2="0" y2="300" stroke="#ddd" stroke-width="1" opacity="1"/></g></g><path class="foreground" aria-hidden="true" d="" pointer-events="none" display="none"/></g></g><g class="mark-group role-axis" aria-hidden="true"><g transform="translate(0.5,0.5)"><path class="background" aria-hidden="true" d="M0,0h0v0h0Z" pointer-events="none"/><g><g class="mark-rule role-axis-grid" pointer-events="none"><line transform="translate(0,300)" x2="400" y2="0" stroke="#ddd" stroke-width="1" opacity="1"/><line transform="translate(0,270)" x2="400" y2="0" stroke="#ddd" stroke-width="1" opacity="1"/><line transform="translate(0,240)" x2="400" y2="0" stroke="#ddd" stroke-width="1" opacity="1"/><line transform="translate(0,210)" x2="400" y2="0" stroke="#ddd" stroke-width="1" opacity="1"/><line transform="translate(0,180)" x2="400" y2="0" stroke="#ddd" stroke-width="1" opacity="1"/><line transform="translate(0,150)" x2="400" y2="0" stroke="#ddd" stroke-width="1" opacity="1"/><line transform="translate(0,120)" x2="400" y2="0" stroke="#ddd" stroke-width="1" opacity="1"/><line transform="translate(0,90)" x2="400" y2="0" stroke="#ddd" stroke-width="1" opacity="1"/><line transform="translate(0,60)" x2="400" y2="0" stroke="#ddd" stroke-width="1" opacity="1"/><line transform="translate(0,30)" x2="400" y2="0" stroke="#ddd" stroke-width="1" opacity="1"/><line transform="translate(0,0)" x2="400" y2="0" stroke="#ddd" stroke-width="1" opacity="1"/></g></g><path class="foreground" aria-hidden="true" d="" pointer-events="none" display="none"/></g></g><g class="mark-group role-axis" role="graphics-symbol" aria-roledescription="axis" aria-label="X-axis titled 'Anzahl Epochen' for a linear scale with values from 0 to 260"><g transform="translate(0.5,300.5)"><path class="background" aria-hidden="true" d="M0,0h0v0h0Z" pointer-events="none"/><g><g class="mark-rule role-axis-tick" pointer-events="none"><line transform="translate(0,0)" x2="0" y2="5" stroke="#888" stroke-width="1" opacity="1"/><line transform="translate(31,0)" x2="0" y2="5" stroke="#888" stroke-width="1" opacity="1"/><line transform="translate(62,0)" x2="0" y2="5" stroke="#888" stroke-width="1" opacity="1"/><line transform="translate(92,0)" x2="0" y2="5" stroke="#888" stroke-width="1" opacity="1"/><line transform="translate(123,0)" x2="0" y2="5" stroke="#888" stroke-width="1" opacity="1"/><line transform="translate(154,0)" x2="0" y2="5" stroke="#888" stroke-width="1" opacity="1"/><line transform="translate(185,0)" x2="0" y2="5" stroke="#888" stroke-width="1" opacity="1"/><line transform="translate(215,0)" x2="0" y2="5" stroke="#888" stroke-width="1" opacity="1"/><line transform="translate(246,0)" x2="0" y2="5" stroke="#888" stroke-width="1" opacity="1"/><line transform="translate(277,0)" x2="0" y2="5" stroke="#888" stroke-width="1" opacity="1"/><line transform="translate(308,0)" x2="0" y2="5" stroke="#888" stroke-width="1" opacity="1"/><line transform="translate(338,0)" x2="0" y2="5" stroke="#888" stroke-width="1" opacity="1"/><line transform="translate(369,0)" x2="0" y2="5" stroke="#888" stroke-width="1" opacity="1"/><line transform="translate(400,0)" x2="0" y2="5" stroke="#888" stroke-width="1" opacity="1"/></g><g class="mark-text role-axis-label" pointer-events="none"><text text-anchor="start" transform="translate(0,15)" font-family="sans-serif" font-size="10px" fill="#000" opacity="1">0</text><text text-anchor="middle" transform="translate(30.76923076923077,15)" font-family="sans-serif" font-size="10px" fill="#000" opacity="1">20</text><text text-anchor="middle" transform="translate(61.53846153846154,15)" font-family="sans-serif" font-size="10px" fill="#000" opacity="1">40</text><text text-anchor="middle" transform="translate(92.3076923076923,15)" font-family="sans-serif" font-size="10px" fill="#000" opacity="1">60</text><text text-anchor="middle" transform="translate(123.07692307692308,15)" font-family="sans-serif" font-size="10px" fill="#000" opacity="1">80</text><text text-anchor="middle" transform="translate(153.84615384615387,15)" font-family="sans-serif" font-size="10px" fill="#000" opacity="1">100</text><text text-anchor="middle" transform="translate(184.6153846153846,15)" font-family="sans-serif" font-size="10px" fill="#000" opacity="1">120</text><text text-anchor="middle" transform="translate(215.3846153846154,15)" font-family="sans-serif" font-size="10px" fill="#000" opacity="1">140</text><text text-anchor="middle" transform="translate(246.15384615384616,15)" font-family="sans-serif" font-size="10px" fill="#000" opacity="1">160</text><text text-anchor="middle" transform="translate(276.9230769230769,15)" font-family="sans-serif" font-size="10px" fill="#000" opacity="1">180</text><text text-anchor="middle" transform="translate(307.69230769230774,15)" font-family="sans-serif" font-size="10px" fill="#000" opacity="1">200</text><text text-anchor="middle" transform="translate(338.46153846153845,15)" font-family="sans-serif" font-size="10px" fill="#000" opacity="1">220</text><text text-anchor="middle" transform="translate(369.2307692307692,15)" font-family="sans-serif" font-size="10px" fill="#000" opacity="1">240</text><text text-anchor="end" transform="translate(400,15)" font-family="sans-serif" font-size="10px" fill="#000" opacity="1">260</text></g><g class="mark-rule role-axis-domain" pointer-events="none"><line transform="translate(0,0)" x2="400" y2="0" stroke="#888" stroke-width="1" opacity="1"/></g><g class="mark-text role-axis-title" pointer-events="none"><text text-anchor="middle" transform="translate(200,30)" font-family="sans-serif" font-size="11px" font-weight="bold" fill="#000" opacity="1">Anzahl Epochen</text></g></g><path class="foreground" aria-hidden="true" d="" pointer-events="none" display="none"/></g></g><g class="mark-group role-axis" role="graphics-symbol" aria-roledescription="axis" aria-label="Y-axis titled 'Genauigkeit' for a linear scale with values from 0.0 to 0.5"><g transform="translate(0.5,0.5)"><path class="background" aria-hidden="true" d="M0,0h0v0h0Z" pointer-events="none"/><g><g class="mark-rule role-axis-tick" pointer-events="none"><line transform="translate(0,300)" x2="-5" y2="0" stroke="#888" stroke-width="1" opacity="1"/><line transform="translate(0,270)" x2="-5" y2="0" stroke="#888" stroke-width="1" opacity="1"/><line transform="translate(0,240)" x2="-5" y2="0" stroke="#888" stroke-width="1" opacity="1"/><line transform="translate(0,210)" x2="-5" y2="0" stroke="#888" stroke-width="1" opacity="1"/><line transform="translate(0,180)" x2="-5" y2="0" stroke="#888" stroke-width="1" opacity="1"/><line transform="translate(0,150)" x2="-5" y2="0" stroke="#888" stroke-width="1" opacity="1"/><line transform="translate(0,120)" x2="-5" y2="0" stroke="#888" stroke-width="1" opacity="1"/><line transform="translate(0,90)" x2="-5" y2="0" stroke="#888" stroke-width="1" opacity="1"/><line transform="translate(0,60)" x2="-5" y2="0" stroke="#888" stroke-width="1" opacity="1"/><line transform="translate(0,30)" x2="-5" y2="0" stroke="#888" stroke-width="1" opacity="1"/><line transform="translate(0,0)" x2="-5" y2="0" stroke="#888" stroke-width="1" opacity="1"/></g><g class="mark-text role-axis-label" pointer-events="none"><text text-anchor="end" transform="translate(-7,303)" font-family="sans-serif" font-size="10px" fill="#000" opacity="1">0.00</text><text text-anchor="end" transform="translate(-7,273)" font-family="sans-serif" font-size="10px" fill="#000" opacity="1">0.05</text><text text-anchor="end" transform="translate(-7,243)" font-family="sans-serif" font-size="10px" fill="#000" opacity="1">0.10</text><text text-anchor="end" transform="translate(-7,213)" font-family="sans-serif" font-size="10px" fill="#000" opacity="1">0.15</text><text text-anchor="end" transform="translate(-7,183)" font-family="sans-serif" font-size="10px" fill="#000" opacity="1">0.20</text><text text-anchor="end" transform="translate(-7,153)" font-family="sans-serif" font-size="10px" fill="#000" opacity="1">0.25</text><text text-anchor="end" transform="translate(-7,123)" font-family="sans-serif" font-size="10px" fill="#000" opacity="1">0.30</text><text text-anchor="end" transform="translate(-7,93.00000000000001)" font-family="sans-serif" font-size="10px" fill="#000" opacity="1">0.35</text><text text-anchor="end" transform="translate(-7,62.999999999999986)" font-family="sans-serif" font-size="10px" fill="#000" opacity="1">0.40</text><text text-anchor="end" transform="translate(-7,32.99999999999999)" font-family="sans-serif" font-size="10px" fill="#000" opacity="1">0.45</text><text text-anchor="end" transform="translate(-7,3)" font-family="sans-serif" font-size="10px" fill="#000" opacity="1">0.50</text></g><g class="mark-rule role-axis-domain" pointer-events="none"><line transform="translate(0,300)" x2="0" y2="-300" stroke="#888" stroke-width="1" opacity="1"/></g><g class="mark-text role-axis-title" pointer-events="none"><text text-anchor="middle" transform="translate(-30.462890625,150) rotate(-90) translate(0,-2)" font-family="sans-serif" font-size="11px" font-weight="bold" fill="#000" opacity="1">Genauigkeit</text></g></g><path class="foreground" aria-hidden="true" d="" pointer-events="none" display="none"/></g></g><g class="mark-group role-scope pathgroup" role="graphics-object" aria-roledescription="group mark container"><g transform="translate(0,0)"><path class="background" aria-hidden="true" d="M0,0h400v300h-400Z"/><g><g class="mark-line role-mark marks" role="graphics-object" aria-roledescription="line mark container"><path aria-label="Typ: Train; Anzahl Epochen: 1; Genauigkeit: 0.013223730959" role="graphics-symbol" aria-roledescription="line mark" d="M1.5384615384615385,292.0657614246011L3.076923076923077,230.73623925447464L4.615384615384616,190.20728766918182L6.153846153846154,169.83559727668762L7.6923076923076925,155.6826263666153L9.230769230769232,141.52965545654297L10.76923076923077,138.31307888031006L12.307692307692308,125.66118836402893L13.846153846153847,113.22373151779175L15.384615384615385,104.86062169075012L16.923076923076923,99.7140884399414L18.461538461538463,95.4253077507019L20,93.4953510761261L21.53846153846154,91.56541228294373L23.076923076923077,90.49320816993713L24.615384615384617,87.49106526374817L26.153846153846157,86.41887903213501L27.692307692307693,84.9177896976471L29.230769230769234,83.84560346603394L30.76923076923077,83.63116979598999L32.30769230769231,82.13009834289551L33.84615384615385,81.2723457813263L35.38461538461539,81.2723457813263L36.92307692307693,79.98570799827576L38.46153846153847,78.05575132369995L40,79.12795543670654L41.53846153846154,77.41243243217468L43.07692307692308,76.98356509208679L44.61538461538462,77.19799876213074L46.15384615384615,76.12581253051758L47.69230769230769,75.9113609790802L49.23076923076923,75.26804208755493L50.76923076923077,75.26804208755493L52.307692307692314,75.48249363899231L53.84615384615385,75.05360841751099L55.38461538461539,74.83917474746704L56.92307692307692,75.05360841751099L58.46153846153847,74.62472319602966L60,74.83917474746704L61.53846153846154,73.76697063446045L63.07692307692307,73.33810329437256L64.61538461538461,72.48035073280334L66.15384615384615,71.83703184127808L67.6923076923077,70.55039405822754L69.23076923076923,70.55039405822754L70.76923076923077,69.04932260513306L72.3076923076923,67.97711849212646L73.84615384615385,67.33381748199463L75.38461538461539,65.83274602890015L76.92307692307693,66.26161336898804L78.46153846153847,64.76054191589355L80,64.76054191589355L81.53846153846153,64.11722302436829L83.07692307692308,63.25947046279907L84.61538461538461,61.543965339660645L86.15384615384616,60.04289388656616L87.6923076923077,57.68405199050903L89.23076923076924,55.11079430580139L90.76923076923077,53.180837631225586L92.3076923076923,52.751970291137695L93.84615384615384,51.25089883804321L95.38461538461539,50.82201361656189L96.92307692307692,50.17869472503662L98.46153846153847,49.10650849342346L100,48.892056941986084L101.53846153846153,48.03430438041687L103.07692307692307,48.03430438041687L104.61538461538463,47.819870710372925L106.15384615384616,46.31879925727844L107.6923076923077,46.1043655872345L109.23076923076923,45.675480365753174L110.76923076923077,45.46104669570923L112.3076923076923,45.032161474227905L113.84615384615384,43.74552369117737L115.38461538461537,44.603294134140015L116.92307692307693,43.74552369117737L118.46153846153847,42.887771129608154L120,42.887771129608154L121.53846153846153,43.31665635108948L123.07692307692308,43.31665635108948L124.61538461538461,43.10222268104553L126.15384615384615,42.887771129608154L127.69230769230768,42.887771129608154L129.23076923076923,42.67333745956421L130.76923076923077,42.887771129608154L132.3076923076923,42.887771129608154L133.84615384615384,42.458903789520264L135.3846153846154,41.815584897994995L136.92307692307693,40.95783233642578L138.46153846153845,40.7433807849884L140,40.10007977485657L141.53846153846155,39.027875661849976L143.07692307692307,38.38455677032471L144.6153846153846,38.38455677032471L146.15384615384613,37.74123787879944L147.6923076923077,38.17012310028076L149.23076923076923,37.74123787879944L150.76923076923077,37.52680420875549L152.3076923076923,37.52680420875549L153.84615384615387,37.52680420875549L155.3846153846154,37.31237053871155L156.92307692307693,37.31237053871155L158.46153846153845,36.66905164718628L160,37.31237053871155L161.53846153846155,36.66905164718628L163.07692307692307,36.240166425704956L164.6153846153846,35.38241386413574L166.15384615384616,35.1679801940918L167.6923076923077,34.31022763252258L169.23076923076923,33.45245718955994L170.76923076923077,33.23802351951599L172.30769230769232,32.8091561794281L173.84615384615384,32.16583728790283L175.3846153846154,32.16583728790283L176.9230769230769,30.879199504852295L178.46153846153848,29.807013273239136L180,29.592561721801758L181.53846153846155,28.5203754901886L183.07692307692307,28.091490268707275L184.6153846153846,27.23373770713806L186.15384615384616,26.590418815612793L187.69230769230768,26.590418815612793L189.23076923076923,26.590418815612793L190.76923076923077,25.947099924087524L192.30769230769232,26.161551475524902L193.84615384615384,25.303781032562256L195.3846153846154,24.66048002243042L196.92307692307693,24.66048002243042L198.46153846153845,24.231594800949097L200,24.01716113090515L201.53846153846155,23.802709579467773L203.07692307692307,23.588275909423828L204.61538461538458,23.802709579467773L206.15384615384613,23.588275909423828L207.6923076923077,23.588275909423828L209.23076923076925,22.94495701789856L210.76923076923077,22.94495701789856L212.30769230769232,22.30163812637329L213.84615384615384,21.8727707862854L215.3846153846154,21.229451894760132L216.9230769230769,20.80056667327881L218.46153846153845,20.15724778175354L220.00000000000003,19.299495220184326L221.53846153846155,18.656176328659058L223.0769230769231,17.5839900970459L224.6153846153846,16.726237535476685L226.15384615384616,16.29735231399536L227.69230769230768,16.082918643951416L229.23076923076923,16.082918643951416L230.76923076923075,15.654033422470093L232.30769230769232,15.439599752426147L233.84615384615387,15.010714530944824L235.3846153846154,15.010714530944824L236.92307692307693,14.796280860900879L238.46153846153845,14.796280860900879L240,14.581847190856934L241.53846153846152,13.938528299331665L243.07692307692307,13.509643077850342L244.61538461538464,13.72409462928772L246.15384615384616,13.72409462928772L247.6923076923077,13.509643077850342L249.23076923076923,12.866324186325073L250.76923076923077,13.080775737762451L252.3076923076923,12.866324186325073L253.84615384615384,12.223023176193237L255.38461538461536,12.437456846237183L256.92307692307696,12.223023176193237L258.46153846153845,11.579704284667969L260,11.579704284667969L261.53846153846155,11.36525273323059L263.0769230769231,11.36525273323059L264.6153846153846,11.36525273323059L266.15384615384613,11.36525273323059L267.6923076923077,11.36525273323059L269.2307692307692,11.150819063186646L270.7692307692308,11.36525273323059L272.3076923076923,11.36525273323059L273.84615384615387,11.150819063186646L275.38461538461536,11.150819063186646L276.9230769230769,11.36525273323059L278.46153846153845,11.150819063186646L280,11.150819063186646L281.53846153846155,11.150819063186646L283.0769230769231,11.150819063186646L284.61538461538464,11.150819063186646L286.15384615384613,11.150819063186646L287.6923076923077,10.9363853931427L289.2307692307692,10.9363853931427L290.7692307692308,10.9363853931427L292.30769230769226,10.9363853931427L293.84615384615387,10.9363853931427L295.3846153846154,10.9363853931427L296.9230769230769,10.9363853931427L298.46153846153845,10.9363853931427L300,10.9363853931427L301.53846153846155,10.9363853931427L303.0769230769231,10.9363853931427L304.6153846153846,10.721951723098755L306.15384615384613,10.721951723098755L307.69230769230774,10.721951723098755L309.2307692307692,10.721951723098755L310.7692307692308,10.721951723098755L312.3076923076923,10.721951723098755L313.84615384615387,10.721951723098755L315.38461538461536,10.721951723098755L316.9230769230769,10.721951723098755L318.46153846153845,10.721951723098755L320,10.721951723098755L321.53846153846155,10.721951723098755L323.0769230769231,10.721951723098755L324.61538461538464,10.507500171661377L326.15384615384613,10.507500171661377L327.6923076923077,10.507500171661377L329.2307692307692,10.293066501617432L330.7692307692308,10.507500171661377L332.3076923076923,10.507500171661377L333.84615384615387,10.507500171661377L335.3846153846154,10.293066501617432L336.9230769230769,10.293066501617432L338.46153846153845,10.293066501617432L340,10.293066501617432L341.53846153846155,10.078632831573486L343.07692307692304,9.649747610092163L344.61538461538464,9.435313940048218L346.1538461538462,9.220880270004272L347.6923076923077,9.220880270004272L349.2307692307692,9.220880270004272L350.7692307692308,9.220880270004272L352.3076923076923,9.220880270004272L353.8461538461538,9.006428718566895L355.38461538461536,9.006428718566895L356.92307692307696,9.006428718566895L358.46153846153845,8.79199504852295L360,8.79199504852295L361.53846153846155,8.577561378479004L363.0769230769231,8.577561378479004L364.6153846153846,8.79199504852295L366.15384615384613,8.363109827041626L367.6923076923077,8.14867615699768L369.2307692307692,7.719790935516357L370.7692307692308,7.719790935516357L372.3076923076923,7.719790935516357L373.84615384615387,7.934242486953735L375.38461538461536,7.719790935516357L376.9230769230769,7.505357265472412L378.46153846153845,7.505357265472412L380,7.505357265472412L381.53846153846155,7.505357265472412L383.0769230769231,7.290923595428467" stroke="#f58518" stroke-width="2"/></g></g><path class="foreground" aria-hidden="true" d="" display="none"/></g><g transform="translate(0,0)"><path class="background" aria-hidden="true" d="M0,0h400v300h-400Z"/><g><g class="mark-line role-mark marks" role="graphics-object" aria-roledescription="line mark container"><path aria-label="Typ: Test; Anzahl Epochen: 1; Genauigkeit: 0.0900750607252" role="graphics-symbol" aria-roledescription="line mark" d="M1.5384615384615385,245.95496356487274L3.076923076923077,210.9257698059082L4.615384615384616,181.90158605575562L6.153846153846154,147.87322282791138L7.6923076923076925,145.87156176567078L9.230769230769232,145.87156176567078L10.76923076923077,138.86572122573853L12.307692307692308,129.85821962356567L13.846153846153847,119.34944987297058L15.384615384615385,112.84403800964355L16.923076923076923,104.3369472026825L18.461538461538463,105.33778667449951L20,98.83235692977905L21.53846153846154,99.33278560638428L23.076923076923077,98.83235692977905L24.615384615384617,94.82901692390442L26.153846153846157,101.33444666862488L27.692307692307693,93.82819533348083L29.230769230769234,94.32860612869263L30.76923076923077,90.325266122818L32.30769230769231,89.8248553276062L33.84615384615385,89.8248553276062L35.38461538461539,91.8265163898468L36.92307692307693,88.32360506057739L38.46153846153847,92.82735586166382L40,89.32444453239441L41.53846153846154,86.32192611694336L43.07692307692308,90.325266122818L44.61538461538462,88.32360506057739L46.15384615384615,88.32360506057739L47.69230769230769,87.8231942653656L49.23076923076923,86.82235479354858L50.76923076923077,89.32444453239441L52.307692307692314,86.82235479354858L53.84615384615385,87.8231942653656L55.38461538461539,85.82151532173157L56.92307692307692,88.82401585578918L58.46153846153847,86.32192611694336L60,87.32276558876038L61.53846153846154,86.32192611694336L63.07692307692307,82.81901478767395L64.61538461538461,84.32026505470276L66.15384615384615,85.32110452651978L67.6923076923077,82.81901478767395L69.23076923076923,83.31942558288574L70.76923076923077,81.81817531585693L72.3076923076923,80.31692504882812L73.84615384615385,80.31692504882812L75.38461538461539,81.81817531585693L76.92307692307693,80.81735372543335L78.46153846153847,79.81651425361633L80,79.31610345840454L81.53846153846153,80.31692504882812L83.07692307692308,77.81485319137573L84.61538461538461,76.81401371955872L86.15384615384616,75.8131742477417L87.6923076923077,72.81067371368408L89.23076923076924,72.81067371368408L90.76923076923077,71.80983424186707L92.3076923076923,69.80817317962646L93.84615384615384,70.30858397483826L95.38461538461539,69.80817317962646L96.92307692307692,67.30608344078064L98.46153846153847,67.30608344078064L100,66.80567264556885L101.53846153846153,65.80483317375183L103.07692307692307,66.30526185035706L104.61538461538463,65.80483317375183L106.15384615384616,67.30608344078064L107.6923076923077,66.30526185035706L109.23076923076923,66.30526185035706L110.76923076923077,65.80483317375183L112.3076923076923,65.80483317375183L113.84615384615384,66.30526185035706L115.38461538461537,64.30358290672302L116.92307692307693,65.30442237854004L118.46153846153847,64.80401158332825L120,63.80317211151123L121.53846153846153,63.80317211151123L123.07692307692308,63.302743434906006L124.61538461538461,63.80317211151123L126.15384615384615,63.302743434906006L127.69230769230768,62.802332639694214L129.23076923076923,63.302743434906006L130.76923076923077,61.8014931678772L132.3076923076923,63.80317211151123L133.84615384615384,62.802332639694214L135.3846153846154,62.30192184448242L136.92307692307693,62.802332639694214L138.46153846153845,62.30192184448242L140,62.802332639694214L141.53846153846155,61.301082372665405L143.07692307692307,61.8014931678772L144.6153846153846,60.80067157745361L146.15384615384613,61.301082372665405L147.6923076923077,62.30192184448242L149.23076923076923,61.8014931678772L150.76923076923077,61.8014931678772L152.3076923076923,59.7998321056366L153.84615384615387,62.802332639694214L155.3846153846154,61.8014931678772L156.92307692307693,61.8014931678772L158.46153846153845,57.798171043395996L160,59.7998321056366L161.53846153846155,57.29774236679077L163.07692307692307,58.79899263381958L164.6153846153846,59.299421310424805L166.15384615384616,57.798171043395996L167.6923076923077,56.79733157157898L169.23076923076923,57.798171043395996L170.76923076923077,56.79733157157898L172.30769230769232,57.29774236679077L173.84615384615384,57.798171043395996L175.3846153846154,56.29692077636719L176.9230769230769,57.29774236679077L178.46153846153848,56.29692077636719L180,55.79649209976196L181.53846153846155,53.79483103752136L183.07692307692307,54.79567050933838L184.6153846153846,54.295241832733154L186.15384615384616,53.29442024230957L187.69230769230768,52.293580770492554L189.23076923076923,51.29274129867554L190.76923076923077,52.293580770492554L192.30769230769232,52.793991565704346L193.84615384615384,53.79483103752136L195.3846153846154,52.293580770492554L196.92307692307693,53.29442024230957L198.46153846153845,50.29190182685852L200,52.293580770492554L201.53846153846155,51.79315209388733L203.07692307692307,51.29274129867554L204.61538461538458,52.793991565704346L206.15384615384613,51.79315209388733L207.6923076923077,51.29274129867554L209.23076923076925,52.293580770492554L210.76923076923077,52.293580770492554L212.30769230769232,52.293580770492554L213.84615384615384,51.29274129867554L215.3846153846154,49.79149103164673L216.9230769230769,52.293580770492554L218.46153846153845,51.29274129867554L220.00000000000003,49.79149103164673L221.53846153846155,50.29190182685852L223.0769230769231,49.79149103164673L224.6153846153846,49.79149103164673L226.15384615384616,50.29190182685852L227.69230769230768,49.29108023643494L229.23076923076923,49.79149103164673L230.76923076923075,48.79065155982971L232.30769230769232,48.29024076461792L233.84615384615387,48.29024076461792L235.3846153846154,47.2894012928009L236.92307692307693,48.79065155982971L238.46153846153845,48.79065155982971L240,47.78982996940613L241.53846153846152,48.29024076461792L243.07692307692307,46.78899049758911L244.61538461538464,46.78899049758911L246.15384615384616,46.78899049758911L247.6923076923077,45.788151025772095L249.23076923076923,46.78899049758911L250.76923076923077,46.78899049758911L252.3076923076923,46.78899049758911L253.84615384615384,45.788151025772095L255.38461538461536,44.78732943534851L256.92307692307696,46.28857970237732L258.46153846153845,45.2877402305603L260,45.2877402305603L261.53846153846155,44.286900758743286L263.0769230769231,44.286900758743286L264.6153846153846,44.78732943534851L266.15384615384613,44.78732943534851L267.6923076923077,44.286900758743286L269.2307692307692,44.286900758743286L270.7692307692308,44.78732943534851L272.3076923076923,43.786489963531494L273.84615384615387,43.786489963531494L275.38461538461536,43.786489963531494L276.9230769230769,43.2860791683197L278.46153846153845,43.2860791683197L280,43.2860791683197L281.53846153846155,43.2860791683197L283.0769230769231,43.2860791683197L284.61538461538464,43.2860791683197L286.15384615384613,43.2860791683197L287.6923076923077,43.2860791683197L289.2307692307692,42.78565049171448L290.7692307692308,43.2860791683197L292.30769230769226,43.2860791683197L293.84615384615387,42.78565049171448L295.3846153846154,43.2860791683197L296.9230769230769,42.78565049171448L298.46153846153845,43.2860791683197L300,43.2860791683197L301.53846153846155,43.2860791683197L303.0769230769231,42.285239696502686L304.6153846153846,43.2860791683197L306.15384615384613,44.286900758743286L307.69230769230774,42.285239696502686L309.2307692307692,41.784828901290894L310.7692307692308,41.784828901290894L312.3076923076923,41.784828901290894L313.84615384615387,42.285239696502686L315.38461538461536,43.2860791683197L316.9230769230769,41.784828901290894L318.46153846153845,42.285239696502686L320,43.786489963531494L321.53846153846155,42.78565049171448L323.0769230769231,42.78565049171448L324.61538461538464,43.2860791683197L326.15384615384613,41.28440022468567L327.6923076923077,43.2860791683197L329.2307692307692,42.285239696502686L330.7692307692308,41.784828901290894L332.3076923076923,41.784828901290894L333.84615384615387,42.285239696502686L335.3846153846154,41.28440022468567L336.9230769230769,41.784828901290894L338.46153846153845,42.78565049171448L340,42.285239696502686L341.53846153846155,42.285239696502686L343.07692307692304,41.784828901290894L344.61538461538464,41.784828901290894L346.1538461538462,41.784828901290894L347.6923076923077,42.285239696502686L349.2307692307692,41.784828901290894L350.7692307692308,40.28356075286865L352.3076923076923,41.28440022468567L353.8461538461538,41.784828901290894L355.38461538461536,41.784828901290894L356.92307692307696,42.285239696502686L358.46153846153845,41.28440022468567L360,40.78398942947388L361.53846153846155,40.78398942947388L363.0769230769231,40.78398942947388L364.6153846153846,41.784828901290894L366.15384615384613,39.78314995765686L367.6923076923077,41.784828901290894L369.2307692307692,40.28356075286865L370.7692307692308,40.78398942947388L372.3076923076923,41.28440022468567L373.84615384615387,39.28273916244507L375.38461538461536,39.78314995765686L376.9230769230769,39.78314995765686L378.46153846153845,41.28440022468567L380,41.784828901290894L381.53846153846155,40.28356075286865L383.0769230769231,39.78314995765686" stroke="#4c78a8" stroke-width="2"/></g></g><path class="foreground" aria-hidden="true" d="" display="none"/></g></g><g class="mark-group role-legend" role="graphics-symbol" aria-roledescription="legend" aria-label="Symbol legend titled 'Typ' for stroke color with 2 values: Test, Train"><g transform="translate(418,0)"><path class="background" aria-hidden="true" d="M0,0h39v40h-39Z" pointer-events="none"/><g><g class="mark-group role-legend-entry"><g transform="translate(0,16)"><path class="background" aria-hidden="true" d="M0,0h0v0h0Z" pointer-events="none"/><g><g class="mark-group role-scope" role="graphics-object" aria-roledescription="group mark container"><g transform="translate(0,0)"><path class="background" aria-hidden="true" d="M0,0h38.412109375v11h-38.412109375Z" pointer-events="none" opacity="1"/><g><g class="mark-symbol role-legend-symbol" pointer-events="none"><path transform="translate(6,6)" d="M-5,0L5,0" stroke="#4c78a8" stroke-width="1.5" opacity="1"/></g><g class="mark-text role-legend-label" pointer-events="none"><text text-anchor="start" transform="translate(16,9)" font-family="sans-serif" font-size="10px" fill="#000" opacity="1">Test</text></g></g><path class="foreground" aria-hidden="true" d="" pointer-events="none" display="none"/></g><g transform="translate(0,13)"><path class="background" aria-hidden="true" d="M0,0h38.412109375v11h-38.412109375Z" pointer-events="none" opacity="1"/><g><g class="mark-symbol role-legend-symbol" pointer-events="none"><path transform="translate(6,6)" d="M-5,0L5,0" stroke="#f58518" stroke-width="1.5" opacity="1"/></g><g class="mark-text role-legend-label" pointer-events="none"><text text-anchor="start" transform="translate(16,9)" font-family="sans-serif" font-size="10px" fill="#000" opacity="1">Train</text></g></g><path class="foreground" aria-hidden="true" d="" pointer-events="none" display="none"/></g></g></g><path class="foreground" aria-hidden="true" d="" pointer-events="none" display="none"/></g></g><g class="mark-text role-legend-title" pointer-events="none"><text text-anchor="start" transform="translate(0,9)" font-family="sans-serif" font-size="11px" font-weight="bold" fill="#000" opacity="1">Typ</text></g></g><path class="foreground" aria-hidden="true" d="" pointer-events="none" display="none"/></g></g></g><path class="foreground" aria-hidden="true" d="" display="none"/></g></g></g></svg>