<svg xmlns="http://www.w3.org/2000/svg" xmlns:xlink="http://www.w3.org/1999/xlink" version="1.1" class="marks" width="509" height="347" viewBox="0 0 509 347"><rect width="509" height="347" fill="white"/><g fill="none" stroke-miterlimit="10" transform="translate(47,10)"><g class="mark-group role-frame root" role="graphics-object" aria-roledescription="group mark container"><g transform="translate(0,0)"><path class="background" aria-hidden="true" d="M0.5,0.5h400v300h-400Z" stroke="#ddd"/><g><g class="mark-group role-axis" aria-hidden="true"><g transform="translate(0.5,300.5)"><path class="background" aria-hidden="true" d="M0,0h0v0h0Z" pointer-events="none"/><g><g class="mark-rule role-axis-grid" pointer-events="none"><line transform="translate(0,-300)" x2="0" y2="300" stroke="#ddd" stroke-width="1" opacity="1"/><line transform="translate(31,-300)" x2="0" y2="300" stroke="#ddd" stroke-width="1" opacity="1"/><line transform="translate(62,-300)" x2="0" y2="300" stroke="#ddd" stroke-width="1" opacity="1"/><line transform="translate(92,-300)" x2="0" y2="300" stroke="#ddd" stroke-width="1" opacity="1"/><line transform="translate(123,-300)" x2="0" y2="300" stroke="#ddd" stroke-width="1" opacity="1"/><line transform="translate(154,-300)" x2="0" y2="300" stroke="#ddd" stroke-width="1" opacity="1"/><line transform="translate(185,-300)" x2="0" y2="300" stroke="#ddd" stroke-width="1" opacity="1"/><line transform="translate(215,-300)" x2="0" y2="300" stroke="#ddd" stroke-width="1" opacity="1"/><line transform="translate(246,-300)" x2="0" y2="300" stroke="#ddd" stroke-width="1" opacity="1"/><line transform="translate(277,-300)" x2="0" y2="300" stroke="#ddd" stroke-width="1" opacity="1"/><line transform="translate(308,-300)" x2="0" y2="300" stroke="#ddd" stroke-width="1" opacity="1"/><line transform="translate(338,-300)" x2="0" y2="300" stroke="#ddd" stroke-width="1" opacity="1"/><line transform="translate(369,-300)" x2="0" y2="300" stroke="#ddd" stroke-width="1" opacity="1"/><line transform="translate(400,-300)" x2="0" y2="300" stroke="#ddd" stroke-width="1" opacity="1"/></g></g><path class="foreground" aria-hidden="true" d="" pointer-events="none" display="none"/></g></g><g class="mark-group role-axis" aria-hidden="true"><g transform="translate(0.5,0.5)"><path class="background" aria-hidden="true" d="M0,0h0v0h0Z" pointer-events="none"/><g><g class="mark-rule role-axis-grid" pointer-events="none"><line transform="translate(0,300)" x2="400" y2="0" stroke="#ddd" stroke-width="1" opacity="1"/><line transform="translate(0,263)" x2="400" y2="0" stroke="#ddd" stroke-width="1" opacity="1"/><line transform="translate(0,225)" x2="400" y2="0" stroke="#ddd" stroke-width="1" opacity="1"/><line transform="translate(0,188)" x2="400" y2="0" stroke="#ddd" stroke-width="1" opacity="1"/><line transform="translate(0,150)" x2="400" y2="0" stroke="#ddd" stroke-width="1" opacity="1"/><line transform="translate(0,113)" x2="400" y2="0" stroke="#ddd" stroke-width="1" opacity="1"/><line transform="translate(0,75)" x2="400" y2="0" stroke="#ddd" stroke-width="1" opacity="1"/><line transform="translate(0,38)" x2="400" y2="0" stroke="#ddd" stroke-width="1" opacity="1"/><line transform="translate(0,0)" x2="400" y2="0" stroke="#ddd" stroke-width="1" opacity="1"/></g></g><path class="foreground" aria-hidden="true" d="" pointer-events="none" display="none"/></g></g><g class="mark-group role-axis" role="graphics-symbol" aria-roledescription="axis" aria-label="X-axis titled 'Anzahl Epochen' for a linear scale with values from 0 to 260"><g transform="translate(0.5,300.5)"><path class="background" aria-hidden="true" d="M0,0h0v0h0Z" pointer-events="none"/><g><g class="mark-rule role-axis-tick" pointer-events="none"><line transform="translate(0,0)" x2="0" y2="5" stroke="#888" stroke-width="1" opacity="1"/><line transform="translate(31,0)" x2="0" y2="5" stroke="#888" stroke-width="1" opacity="1"/><line transform="translate(62,0)" x2="0" y2="5" stroke="#888" stroke-width="1" opacity="1"/><line transform="translate(92,0)" x2="0" y2="5" stroke="#888" stroke-width="1" opacity="1"/><line transform="translate(123,0)" x2="0" y2="5" stroke="#888" stroke-width="1" opacity="1"/><line transform="translate(154,0)" x2="0" y2="5" stroke="#888" stroke-width="1" opacity="1"/><line transform="translate(185,0)" x2="0" y2="5" stroke="#888" stroke-width="1" opacity="1"/><line transform="translate(215,0)" x2="0" y2="5" stroke="#888" stroke-width="1" opacity="1"/><line transform="translate(246,0)" x2="0" y2="5" stroke="#888" stroke-width="1" opacity="1"/><line transform="translate(277,0)" x2="0" y2="5" stroke="#888" stroke-width="1" opacity="1"/><line transform="translate(308,0)" x2="0" y2="5" stroke="#888" stroke-width="1" opacity="1"/><line transform="translate(338,0)" x2="0" y2="5" stroke="#888" stroke-width="1" opacity="1"/><line transform="translate(369,0)" x2="0" y2="5" stroke="#888" stroke-width="1" opacity="1"/><line transform="translate(400,0)" x2="0" y2="5" stroke="#888" stroke-width="1" opacity="1"/></g><g class="mark-text role-axis-label" pointer-events="none"><text text-anchor="start" transform="translate(0,15)" font-family="sans-serif" font-size="10px" fill="#000" opacity="1">0</text><text text-anchor="middle" transform="translate(30.76923076923077,15)" font-family="sans-serif" font-size="10px" fill="#000" opacity="1">20</text><text text-anchor="middle" transform="translate(61.53846153846154,15)" font-family="sans-serif" font-size="10px" fill="#000" opacity="1">40</text><text text-anchor="middle" transform="translate(92.3076923076923,15)" font-family="sans-serif" font-size="10px" fill="#000" opacity="1">60</text><text text-anchor="middle" transform="translate(123.07692307692308,15)" font-family="sans-serif" font-size="10px" fill="#000" opacity="1">80</text><text text-anchor="middle" transform="translate(153.84615384615387,15)" font-family="sans-serif" font-size="10px" fill="#000" opacity="1">100</text><text text-anchor="middle" transform="translate(184.6153846153846,15)" font-family="sans-serif" font-size="10px" fill="#000" opacity="1">120</text><text text-anchor="middle" transform="translate(215.3846153846154,15)" font-family="sans-serif" font-size="10px" fill="#000" opacity="1">140</text><text text-anchor="middle" transform="translate(246.15384615384616,15)" font-family="sans-serif" font-size="10px" fill="#000" opacity="1">160</text><text text-anchor="middle" transform="translate(276.9230769230769,15)" font-family="sans-serif" font-size="10px" fill="#000" opacity="1">180</text><text text-anchor="middle" transform="translate(307.69230769230774,15)" font-family="sans-serif" font-size="10px" fill="#000" opacity="1">200</text><text text-anchor="middle" transform="translate(338.46153846153845,15)" font-family="sans-serif" font-size="10px" fill="#000" opacity="1">220</text><text text-anchor="middle" transform="translate(369.2307692307692,15)" font-family="sans-serif" font-size="10px" fill="#000" opacity="1">240</text><text text-anchor="end" transform="translate(400,15)" font-family="sans-serif" font-size="10px" fill="#000" opacity="1">260</text></g><g class="mark-rule role-axis-domain" pointer-events="none"><line transform="translate(0,0)" x2="400" y2="0" stroke="#888" stroke-width="1" opacity="1"/></g><g class="mark-text role-axis-title" pointer-events="none"><text text-anchor="middle" transform="translate(200,30)" font-family="sans-serif" font-size="11px" font-weight="bold" fill="#000" opacity="1">Anzahl Epochen</text></g></g><path class="foreground" aria-hidden="true" d="" pointer-events="none" display="none"/></g></g><g class="mark-group role-axis" role="graphics-symbol" aria-roledescription="axis" aria-label="Y-axis titled 'Genauigkeit' for a linear scale with values from 0.0 to 0.4"><g transform="translate(0.5,0.5)"><path class="background" aria-hidden="true" d="M0,0h0v0h0Z" pointer-events="none"/><g><g class="mark-rule role-axis-tick" pointer-events="none"><line transform="translate(0,300)" x2="-5" y2="0" stroke="#888" stroke-width="1" opacity="1"/><line transform="translate(0,263)" x2="-5" y2="0" stroke="#888" stroke-width="1" opacity="1"/><line transform="translate(0,225)" x2="-5" y2="0" stroke="#888" stroke-width="1" opacity="1"/><line transform="translate(0,188)" x2="-5" y2="0" stroke="#888" stroke-width="1" opacity="1"/><line transform="translate(0,150)" x2="-5" y2="0" stroke="#888" stroke-width="1" opacity="1"/><line transform="translate(0,113)" x2="-5" y2="0" stroke="#888" stroke-width="1" opacity="1"/><line transform="translate(0,75)" x2="-5" y2="0" stroke="#888" stroke-width="1" opacity="1"/><line transform="translate(0,38)" x2="-5" y2="0" stroke="#888" stroke-width="1" opacity="1"/><line transform="translate(0,0)" x2="-5" y2="0" stroke="#888" stroke-width="1" opacity="1"/></g><g class="mark-text role-axis-label" pointer-events="none"><text text-anchor="end" transform="translate(-7,303)" font-family="sans-serif" font-size="10px" fill="#000" opacity="1">0.00</text><text text-anchor="end" transform="translate(-7,265.5)" font-family="sans-serif" font-size="10px" fill="#000" opacity="1">0.05</text><text text-anchor="end" transform="translate(-7,228)" font-family="sans-serif" font-size="10px" fill="#000" opacity="1">0.10</text><text text-anchor="end" transform="translate(-7,190.5)" font-family="sans-serif" font-size="10px" fill="#000" opacity="1">0.15</text><text text-anchor="end" transform="translate(-7,153)" font-family="sans-serif" font-size="10px" fill="#000" opacity="1">0.20</text><text text-anchor="end" transform="translate(-7,115.5)" font-family="sans-serif" font-size="10px" fill="#000" opacity="1">0.25</text><text text-anchor="end" transform="translate(-7,78.00000000000003)" font-family="sans-serif" font-size="10px" fill="#000" opacity="1">0.30</text><text text-anchor="end" transform="translate(-7,40.500000000000036)" font-family="sans-serif" font-size="10px" fill="#000" opacity="1">0.35</text><text text-anchor="end" transform="translate(-7,3)" font-family="sans-serif" font-size="10px" fill="#000" opacity="1">0.40</text></g><g class="mark-rule role-axis-domain" pointer-events="none"><line transform="translate(0,300)" x2="0" y2="-300" stroke="#888" stroke-width="1" opacity="1"/></g><g class="mark-text role-axis-title" pointer-events="none"><text text-anchor="middle" transform="translate(-30.462890625,150) rotate(-90) translate(0,-2)" font-family="sans-serif" font-size="11px" font-weight="bold" fill="#000" opacity="1">Genauigkeit</text></g></g><path class="foreground" aria-hidden="true" d="" pointer-events="none" display="none"/></g></g><g class="mark-group role-scope pathgroup" role="graphics-object" aria-roledescription="group mark container"><g transform="translate(0,0)"><path class="background" aria-hidden="true" d="M0,0h400v300h-400Z"/><g><g class="mark-line role-mark marks" role="graphics-object" aria-roledescription="line mark container"><path aria-label="Typ: Train; Anzahl Epochen: 1; Genauigkeit: 0" role="graphics-symbol" aria-roledescription="line mark" d="M1.5384615384615385,300L3.076923076923077,300L4.615384615384616,300L6.153846153846154,300L7.6923076923076925,300L9.230769230769232,300L10.76923076923077,300L12.307692307692308,300L13.846153846153847,300L15.384615384615385,300L16.923076923076923,300L18.461538461538463,300L20,300L21.53846153846154,300L23.076923076923077,300L24.615384615384617,299.19585417956114L26.153846153846157,295.7112221745774L27.692307692307693,289.2780559603125L29.230769230769234,282.0407428778708L30.76923076923077,280.7005003094673L32.30769230769231,284.4531803391874L33.84615384615385,290.08220178075135L35.38461538461539,294.10293088294566L36.92307692307693,290.61829852871597L38.46153846153847,288.4739101398736L40,280.7005003094673L41.53846153846154,262.2051464393735L43.07692307692308,251.21515542268753L44.61538461538462,239.42101299762726L46.15384615384615,231.91565573215485L47.69230769230769,214.22444768249989L49.23076923076923,200.55397152900696L50.76923076923077,187.9556804895401L52.307692307692314,185.54324582219124L53.84615384615385,175.0893473625183L55.38461538461539,170.2644780278206L56.92307692307692,163.8313114643097L58.46153846153847,160.34667491912842L60,155.25375232100487L61.53846153846154,151.23302042484283L63.07692307692307,141.5832705795765L64.61538461538461,140.24302661418915L66.15384615384615,138.9027826488018L67.6923076923077,135.95425263047218L69.23076923076923,134.07791331410408L70.76923076923077,129.78913933038712L72.3076923076923,125.76840743422508L73.84615384615385,121.21158018708229L75.38461538461539,116.6547529399395L76.92307692307693,115.31450897455215L78.46153846153847,112.90207430720329L80,112.63402104377747L81.53846153846153,112.0979368686676L83.07692307692308,110.2215975522995L84.61538461538461,106.4688965678215L86.15384615384616,106.4688965678215L87.6923076923077,103.52036654949188L89.23076923076924,103.52036654949188L90.76923076923077,100.30379444360733L92.3076923076923,99.76768791675568L93.84615384615384,98.69549721479416L95.38461538461539,98.1593906879425L96.92307692307692,98.1593906879425L98.46153846153847,95.74696719646454L100,96.01500928401947L101.53846153846153,94.4067120552063L103.07692307692307,94.94281858205795L104.61538461538463,93.60256344079971L106.15384615384616,94.13866996765137L107.6923076923077,93.06647926568985L109.23076923076923,91.99428856372833L110.76923076923077,92.5303727388382L112.3076923076923,91.72622412443161L113.84615384615384,92.26233065128326L115.38461538461537,90.92209786176682L116.92307692307693,91.72622412443161L118.46153846153847,90.92209786176682L120,90.92209786176682L121.53846153846153,90.38599133491516L123.07692307692308,90.11794924736023L124.61538461538461,89.31380063295364L126.15384615384615,89.58184272050858L127.69230769230768,89.31380063295364L129.23076923076923,87.9735454916954L130.76923076923077,87.16939687728882L132.3076923076923,87.43746131658554L133.84615384615384,87.43746131658554L135.3846153846154,87.16939687728882L136.92307692307693,86.90135478973389L138.46153846153845,86.36527061462402L140,86.90135478973389L141.53846153846155,86.63331270217896L143.07692307692307,85.82916408777237L144.6153846153846,85.56112200021744L146.15384615384613,86.0972061753273L147.6923076923077,86.0972061753273L149.23076923076923,85.82916408777237L150.76923076923077,85.56112200021744L152.3076923076923,85.56112200021744L153.84615384615387,85.29305756092072L155.3846153846154,85.02501547336578L156.92307692307693,85.29305756092072L158.46153846153845,83.41671824455261L160,85.02501547336578L161.53846153846155,84.75697338581085L163.07692307692307,83.95282477140427L164.6153846153846,83.14867615699768L166.15384615384616,83.41671824455261L167.6923076923077,82.88063406944275L169.23076923076923,82.07648545503616L170.76923076923077,82.88063406944275L172.30769230769232,82.61256963014603L173.84615384615384,82.61256963014603L175.3846153846154,81.54037892818451L176.9230769230769,81.54037892818451L178.46153846153848,81.27233684062958L180,81.80844336748123L181.53846153846155,81.54037892818451L183.07692307692307,81.54037892818451L184.6153846153846,82.07648545503616L186.15384615384616,81.54037892818451L187.69230769230768,80.73623031377792L189.23076923076923,81.00429475307465L190.76923076923077,81.00429475307465L192.30769230769232,80.73623031377792L193.84615384615384,80.73623031377792L195.3846153846154,80.73623031377792L196.92307692307693,80.73623031377792L198.46153846153845,80.73623031377792L200,80.46818822622299L201.53846153846155,80.46818822622299L203.07692307692307,80.46818822622299L204.61538461538458,79.93210405111313L206.15384615384613,79.6640396118164L207.6923076923077,79.39599752426147L209.23076923076925,79.39599752426147L210.76923076923077,78.85989099740982L212.30769230769232,78.85989099740982L213.84615384615384,78.32380682229996L215.3846153846154,78.32380682229996L216.9230769230769,77.7877002954483L218.46153846153845,77.7877002954483L220.00000000000003,77.7877002954483L221.53846153846155,77.51965820789337L223.0769230769231,77.51965820789337L224.6153846153846,77.7877002954483L226.15384615384616,76.98355168104172L227.69230769230768,77.51965820789337L229.23076923076923,76.71550959348679L230.76923076923075,76.44746750593185L232.30769230769232,76.17940306663513L233.84615384615387,75.9113609790802L235.3846153846154,76.44746750593185L236.92307692307693,76.17940306663513L238.46153846153845,75.64331889152527L240,75.64331889152527L241.53846153846152,75.37527680397034L243.07692307692307,74.83917027711868L244.61538461538464,72.96283096075058L246.15384615384616,71.35453373193741L247.6923076923077,70.81844955682755L249.23076923076923,70.28234302997589L250.76923076923077,69.4781944155693L252.3076923076923,68.13796162605286L253.84615384615384,65.18943160772324L255.38461538461536,63.849176466464996L256.92307692307696,62.50894367694855L258.46153846153845,61.16868853569031L260,58.75626504421234L261.53846153846155,59.292349219322205L263.0769230769231,57.14796781539917L264.6153846153846,56.611861288547516L266.15384615384613,54.19943779706955L267.6923076923077,53.395289182662964L269.2307692307692,51.51894986629486L270.7692307692308,49.91065263748169L272.3076923076923,49.374546110630035L273.84615384615387,49.374546110630035L275.38461538461536,48.30235540866852L276.9230769230769,48.034313321113586L278.46153846153845,46.69405817985535L280,47.230164706707L281.53846153846155,46.15797400474548L283.0769230769231,45.3538253903389L284.61538461538464,45.085783302783966L286.15384615384613,45.085783302783966L287.6923076923077,44.817718863487244L289.2307692307692,44.28163468837738L290.7692307692308,44.01357024908066L292.30769230769226,43.477486073970795L293.84615384615387,43.477486073970795L295.3846153846154,43.20944398641586L296.9230769230769,43.20944398641586L298.46153846153845,42.137230932712555L300,41.86918884515762L301.53846153846155,41.06504023075104L303.0769230769231,41.33310467004776L304.6153846153846,40.528956055641174L306.15384615384613,40.528956055641174L307.69230769230774,40.528956055641174L309.2307692307692,40.26089161634445L310.7692307692308,39.45676535367966L312.3076923076923,39.188700914382935L313.84615384615387,38.920658826828L315.38461538461536,38.65261673927307L316.9230769230769,38.920658826828L318.46153846153845,38.38455229997635L320,38.11651021242142L321.53846153846155,38.11651021242142L323.0769230769231,38.11651021242142L324.61538461538464,37.848468124866486L326.15384615384613,37.31236159801483L327.6923076923077,37.58040368556976L329.2307692307692,37.31236159801483L330.7692307692308,37.0443195104599L332.3076923076923,36.77627742290497L333.84615384615387,36.508212983608246L335.3846153846154,36.508212983608246L336.9230769230769,35.97212880849838L338.46153846153845,36.240170896053314L340,36.240170896053314L341.53846153846155,35.97212880849838L343.07692307692304,35.70406436920166L344.61538461538464,35.70406436920166L346.1538461538462,34.36383157968521L347.6923076923077,34.63187366724014L349.2307692307692,34.09578949213028L350.7692307692308,33.82772505283356L352.3076923076923,33.559682965278625L353.8461538461538,33.291640877723694L355.38461538461536,33.291640877723694L356.92307692307696,33.559682965278625L358.46153846153845,31.951385736465454L360,32.75553435087204L361.53846153846155,32.21945017576218L363.0769230769231,32.21945017576218L364.6153846153846,32.21945017576218L366.15384615384613,32.21945017576218L367.6923076923077,31.951385736465454L369.2307692307692,32.48749226331711L370.7692307692308,31.41530156135559L372.3076923076923,31.41530156135559L373.84615384615387,31.14723712205887L375.38461538461536,30.879195034503937L376.9230769230769,31.14723712205887L378.46153846153845,30.879195034503937L380,30.879195034503937L381.53846153846155,30.611152946949005L383.0769230769231,30.879195034503937" stroke="#f58518" stroke-width="2"/></g></g><path class="foreground" aria-hidden="true" d="" display="none"/></g><g transform="translate(0,0)"><path class="background" aria-hidden="true" d="M0,0h400v300h-400Z"/><g><g class="mark-line role-mark marks" role="graphics-object" aria-roledescription="line mark container"><path aria-label="Typ: Test; Anzahl Epochen: 1; Genauigkeit: 0" role="graphics-symbol" aria-roledescription="line mark" d="M1.5384615384615385,300L3.076923076923077,300L4.615384615384616,300L6.153846153846154,300L7.6923076923076925,300L9.230769230769232,300L10.76923076923077,300L12.307692307692308,300L13.846153846153847,300L15.384615384615385,300L16.923076923076923,300L18.461538461538463,300L20,300L21.53846153846154,300L23.076923076923077,300L24.615384615384617,296.87239376362413L26.153846153846157,290.61718094162643L27.692307692307693,279.357797652483L29.230769230769234,273.1025844812393L30.76923076923077,274.97915010899305L32.30769230769231,284.3619684688747L33.84615384615385,289.36613858677447L35.38461538461539,291.8682232964784L36.92307692307693,291.2427021190524L38.46153846153847,285.61301082372665L40,276.23019106686115L41.53846153846154,260.5921609327197L43.07692307692308,242.45204329490662L44.61538461538462,229.3160978704691L46.15384615384615,217.43119060993195L47.69230769230769,189.2827369272709L49.23076923076923,186.1551247537136L50.76923076923077,178.02334874868393L52.307692307692314,170.5170974135399L53.84615384615385,167.3894964158535L55.38461538461539,160.5087585747242L56.92307692307692,155.5045835673809L58.46153846153847,148.6238569021225L60,146.12176939845085L61.53846153846154,136.7389440536499L63.07692307692307,137.36446872353554L64.61538461538461,134.23686772584915L66.15384615384615,133.61134305596352L67.6923076923077,128.60716804862022L69.23076923076923,126.73060521483421L70.76923076923077,120.47539204359055L72.3076923076923,119.22435387969017L73.84615384615385,119.22435387969017L75.38461538461539,112.9691407084465L76.92307692307693,111.09257787466049L78.46153846153847,110.46706438064575L80,109.21601504087448L81.53846153846153,108.59050154685974L83.07692307692308,107.33945220708847L84.61538461538461,106.71393871307373L86.15384615384616,102.96079069375992L87.6923076923077,103.58632653951645L89.23076923076924,101.70976370573044L90.76923076923077,102.96079069375992L92.3076923076923,100.45871436595917L93.84615384615384,101.08422785997391L95.38461538461539,97.95663803815842L96.92307692307692,96.70558869838715L98.46153846153847,94.82902586460114L100,93.57797652482986L101.53846153846153,93.57797652482986L103.07692307692307,93.57797652482986L104.61538461538463,93.57797652482986L106.15384615384616,89.1993373632431L107.6923076923077,88.57380151748657L109.23076923076923,91.70141369104385L110.76923076923077,89.1993373632431L112.3076923076923,89.82485085725784L113.84615384615384,89.1993373632431L115.38461538461537,91.07590019702911L116.92307692307693,87.32277452945709L118.46153846153847,89.82485085725784L120,88.57380151748657L121.53846153846153,90.45036435127258L123.07692307692308,87.94828802347183L124.61538461538461,88.57380151748657L126.15384615384615,87.32277452945709L127.69230769230768,83.56964886188507L129.23076923076923,86.69723868370056L130.76923076923077,87.32277452945709L132.3076923076923,86.07172518968582L133.84615384615384,86.07172518968582L135.3846153846154,84.19516235589981L136.92307692307693,84.19516235589981L138.46153846153845,84.19516235589981L140,84.19516235589981L141.53846153846155,84.19516235589981L143.07692307692307,84.19516235589981L144.6153846153846,84.82067584991455L146.15384615384613,83.56964886188507L147.6923076923077,83.56964886188507L149.23076923076923,83.56964886188507L150.76923076923077,83.56964886188507L152.3076923076923,83.56964886188507L153.84615384615387,83.56964886188507L155.3846153846154,83.56964886188507L156.92307692307693,81.69308602809906L158.46153846153845,81.69308602809906L160,81.69308602809906L161.53846153846155,81.69308602809906L163.07692307692307,81.69308602809906L164.6153846153846,81.69308602809906L166.15384615384616,81.69308602809906L167.6923076923077,81.69308602809906L169.23076923076923,81.69308602809906L170.76923076923077,81.69308602809906L172.30769230769232,81.69308602809906L173.84615384615384,81.06755018234253L175.3846153846154,81.69308602809906L176.9230769230769,81.06755018234253L178.46153846153848,81.06755018234253L180,81.06755018234253L181.53846153846155,81.06755018234253L183.07692307692307,80.44203668832779L184.6153846153846,80.44203668832779L186.15384615384616,80.44203668832779L187.69230769230768,80.44203668832779L189.23076923076923,79.81652319431305L190.76923076923077,79.81652319431305L192.30769230769232,79.81652319431305L193.84615384615384,79.81652319431305L195.3846153846154,79.81652319431305L196.92307692307693,79.81652319431305L198.46153846153845,79.81652319431305L200,77.93996036052704L201.53846153846155,77.93996036052704L203.07692307692307,77.93996036052704L204.61538461538458,76.06337517499924L206.15384615384613,77.31442451477051L207.6923076923077,77.31442451477051L209.23076923076925,77.31442451477051L210.76923076923077,77.93996036052704L212.30769230769232,77.31442451477051L213.84615384615384,77.31442451477051L215.3846153846154,77.31442451477051L216.9230769230769,77.31442451477051L218.46153846153845,77.31442451477051L220.00000000000003,75.4378616809845L221.53846153846155,77.31442451477051L223.0769230769231,77.31442451477051L224.6153846153846,75.4378616809845L226.15384615384616,76.68891102075577L227.69230769230768,76.06337517499924L229.23076923076923,76.06337517499924L230.76923076923075,76.06337517499924L232.30769230769232,74.81234818696976L233.84615384615387,75.4378616809845L235.3846153846154,74.81234818696976L236.92307692307693,73.56129884719849L238.46153846153845,74.81234818696976L240,73.56129884719849L241.53846153846152,75.4378616809845L243.07692307692307,72.93578535318375L244.61538461538464,72.93578535318375L246.15384615384616,71.68473601341248L247.6923076923077,69.80817317962646L249.23076923076923,69.18265968561172L250.76923076923077,67.30609685182571L252.3076923076923,66.68056100606918L253.84615384615384,65.4295340180397L255.38461538461536,64.17848467826843L256.92307692307696,64.17848467826843L258.46153846153845,60.42535901069641L260,59.17430967092514L261.53846153846155,56.67223334312439L263.0769230769231,56.67223334312439L264.6153846153846,56.67223334312439L266.15384615384613,54.79567050933838L267.6923076923077,53.54462116956711L269.2307692307692,50.41700899600983L270.7692307692308,50.41700899600983L272.3076923076923,49.79149550199509L273.84615384615387,49.16598200798035L275.38461538461536,48.540446162223816L276.9230769230769,47.914932668209076L278.46153846153845,46.663883328437805L280,46.663883328437805L281.53846153846155,44.787320494651794L283.0769230769231,45.412833988666534L284.61538461538464,44.787320494651794L286.15384615384613,44.161807000637054L287.6923076923077,44.161807000637054L289.2307692307692,42.910757660865784L290.7692307692308,44.161807000637054L292.30769230769226,44.161807000637054L293.84615384615387,44.161807000637054L295.3846153846154,44.161807000637054L296.9230769230769,43.536271154880524L298.46153846153845,44.161807000637054L300,42.910757660865784L301.53846153846155,44.161807000637054L303.0769230769231,42.910757660865784L304.6153846153846,42.910757660865784L306.15384615384613,42.910757660865784L307.69230769230774,42.285244166851044L309.2307692307692,42.910757660865784L310.7692307692308,42.285244166851044L312.3076923076923,42.285244166851044L313.84615384615387,41.65970832109451L315.38461538461536,41.03419482707977L316.9230769230769,39.15763199329376L318.46153846153845,39.7831454873085L320,41.03419482707977L321.53846153846155,40.40868133306503L323.0769230769231,39.15763199329376L324.61538461538464,40.40868133306503L326.15384615384613,41.03419482707977L327.6923076923077,39.7831454873085L329.2307692307692,39.15763199329376L330.7692307692308,38.53211849927902L332.3076923076923,39.7831454873085L333.84615384615387,37.90658265352249L335.3846153846154,37.90658265352249L336.9230769230769,39.15763199329376L338.46153846153845,37.90658265352249L340,37.90658265352249L341.53846153846155,38.53211849927902L343.07692307692304,37.90658265352249L344.61538461538464,37.28106915950775L346.1538461538462,36.65555566549301L347.6923076923077,36.65555566549301L349.2307692307692,36.65555566549301L350.7692307692308,36.03001981973648L352.3076923076923,36.03001981973648L353.8461538461538,36.03001981973648L355.38461538461536,34.778992831707L356.92307692307696,34.15345698595047L358.46153846153845,35.40450632572174L360,35.40450632572174L361.53846153846155,35.40450632572174L363.0769230769231,35.40450632572174L364.6153846153846,34.778992831707L366.15384615384613,33.52794349193573L367.6923076923077,34.778992831707L369.2307692307692,32.9024076461792L370.7692307692308,34.15345698595047L372.3076923076923,34.15345698595047L373.84615384615387,34.15345698595047L375.38461538461536,34.15345698595047L376.9230769230769,32.27689415216446L378.46153846153845,34.15345698595047L380,34.15345698595047L381.53846153846155,32.27689415216446L383.0769230769231,34.15345698595047" stroke="#4c78a8" stroke-width="2"/></g></g><path class="foreground" aria-hidden="true" d="" display="none"/></g></g><g class="mark-group role-legend" role="graphics-symbol" aria-roledescription="legend" aria-label="Symbol legend titled 'Typ' for stroke color with 2 values: Test, Train"><g transform="translate(418,0)"><path class="background" aria-hidden="true" d="M0,0h39v40h-39Z" pointer-events="none"/><g><g class="mark-group role-legend-entry"><g transform="translate(0,16)"><path class="background" aria-hidden="true" d="M0,0h0v0h0Z" pointer-events="none"/><g><g class="mark-group role-scope" role="graphics-object" aria-roledescription="group mark container"><g transform="translate(0,0)"><path class="background" aria-hidden="true" d="M0,0h38.412109375v11h-38.412109375Z" pointer-events="none" opacity="1"/><g><g class="mark-symbol role-legend-symbol" pointer-events="none"><path transform="translate(6,6)" d="M-5,0L5,0" stroke="#4c78a8" stroke-width="1.5" opacity="1"/></g><g class="mark-text role-legend-label" pointer-events="none"><text text-anchor="start" transform="translate(16,9)" font-family="sans-serif" font-size="10px" fill="#000" opacity="1">Test</text></g></g><path class="foreground" aria-hidden="true" d="" pointer-events="none" display="none"/></g><g transform="translate(0,13)"><path class="background" aria-hidden="true" d="M0,0h38.412109375v11h-38.412109375Z" pointer-events="none" opacity="1"/><g><g class="mark-symbol role-legend-symbol" pointer-events="none"><path transform="translate(6,6)" d="M-5,0L5,0" stroke="#f58518" stroke-width="1.5" opacity="1"/></g><g class="mark-text role-legend-label" pointer-events="none"><text text-anchor="start" transform="translate(16,9)" font-family="sans-serif" font-size="10px" fill="#000" opacity="1">Train</text></g></g><path class="foreground" aria-hidden="true" d="" pointer-events="none" display="none"/></g></g></g><path class="foreground" aria-hidden="true" d="" pointer-events="none" display="none"/></g></g><g class="mark-text role-legend-title" pointer-events="none"><text text-anchor="start" transform="translate(0,9)" font-family="sans-serif" font-size="11px" font-weight="bold" fill="#000" opacity="1">Typ</text></g></g><path class="foreground" aria-hidden="true" d="" pointer-events="none" display="none"/></g></g></g><path class="foreground" aria-hidden="true" d="" display="none"/></g></g></g></svg>