<svg xmlns="http://www.w3.org/2000/svg" xmlns:xlink="http://www.w3.org/1999/xlink" version="1.1" class="marks" width="509" height="347" viewBox="0 0 509 347"><rect width="509" height="347" fill="white"/><g fill="none" stroke-miterlimit="10" transform="translate(47,10)"><g class="mark-group role-frame root" role="graphics-object" aria-roledescription="group mark container"><g transform="translate(0,0)"><path class="background" aria-hidden="true" d="M0.5,0.5h400v300h-400Z" stroke="#ddd"/><g><g class="mark-group role-axis" aria-hidden="true"><g transform="translate(0.5,300.5)"><path class="background" aria-hidden="true" d="M0,0h0v0h0Z" pointer-events="none"/><g><g class="mark-rule role-axis-grid" pointer-events="none"><line transform="translate(0,-300)" x2="0" y2="300" stroke="#ddd" stroke-width="1" opacity="1"/><line transform="translate(31,-300)" x2="0" y2="300" stroke="#ddd" stroke-width="1" opacity="1"/><line transform="translate(62,-300)" x2="0" y2="300" stroke="#ddd" stroke-width="1" opacity="1"/><line transform="translate(92,-300)" x2="0" y2="300" stroke="#ddd" stroke-width="1" opacity="1"/><line transform="translate(123,-300)" x2="0" y2="300" stroke="#ddd" stroke-width="1" opacity="1"/><line transform="translate(154,-300)" x2="0" y2="300" stroke="#ddd" stroke-width="1" opacity="1"/><line transform="translate(185,-300)" x2="0" y2="300" stroke="#ddd" stroke-width="1" opacity="1"/><line transform="translate(215,-300)" x2="0" y2="300" stroke="#ddd" stroke-width="1" opacity="1"/><line transform="translate(246,-300)" x2="0" y2="300" stroke="#ddd" stroke-width="1" opacity="1"/><line transform="translate(277,-300)" x2="0" y2="300" stroke="#ddd" stroke-width="1" opacity="1"/><line transform="translate(308,-300)" x2="0" y2="300" stroke="#ddd" stroke-width="1" opacity="1"/><line transform="translate(338,-300)" x2="0" y2="300" stroke="#ddd" stroke-width="1" opacity="1"/><line transform="translate(369,-300)" x2="0" y2="300" stroke="#ddd" stroke-width="1" opacity="1"/><line transform="translate(400,-300)" x2="0" y2="300" stroke="#ddd" stroke-width="1" opacity="1"/></g></g><path class="foreground" aria-hidden="true" d="" pointer-events="none" display="none"/></g></g><g class="mark-group role-axis" aria-hidden="true"><g transform="translate(0.5,0.5)"><path class="background" aria-hidden="true" d="M0,0h0v0h0Z" pointer-events="none"/><g><g class="mark-rule role-axis-grid" pointer-events="none"><line transform="translate(0,300)" x2="400" y2="0" stroke="#ddd" stroke-width="1" opacity="1"/><line transform="translate(0,270)" x2="400" y2="0" stroke="#ddd" stroke-width="1" opacity="1"/><line transform="translate(0,240)" x2="400" y2="0" stroke="#ddd" stroke-width="1" opacity="1"/><line transform="translate(0,210)" x2="400" y2="0" stroke="#ddd" stroke-width="1" opacity="1"/><line transform="translate(0,180)" x2="400" y2="0" stroke="#ddd" stroke-width="1" opacity="1"/><line transform="translate(0,150)" x2="400" y2="0" stroke="#ddd" stroke-width="1" opacity="1"/><line transform="translate(0,120)" x2="400" y2="0" stroke="#ddd" stroke-width="1" opacity="1"/><line transform="translate(0,90)" x2="400" y2="0" stroke="#ddd" stroke-width="1" opacity="1"/><line transform="translate(0,60)" x2="400" y2="0" stroke="#ddd" stroke-width="1" opacity="1"/><line transform="translate(0,30)" x2="400" y2="0" stroke="#ddd" stroke-width="1" opacity="1"/><line transform="translate(0,0)" x2="400" y2="0" stroke="#ddd" stroke-width="1" opacity="1"/></g></g><path class="foreground" aria-hidden="true" d="" pointer-events="none" display="none"/></g></g><g class="mark-group role-axis" role="graphics-symbol" aria-roledescription="axis" aria-label="X-axis titled 'Anzahl Epochen' for a linear scale with values from 0 to 260"><g transform="translate(0.5,300.5)"><path class="background" aria-hidden="true" d="M0,0h0v0h0Z" pointer-events="none"/><g><g class="mark-rule role-axis-tick" pointer-events="none"><line transform="translate(0,0)" x2="0" y2="5" stroke="#888" stroke-width="1" opacity="1"/><line transform="translate(31,0)" x2="0" y2="5" stroke="#888" stroke-width="1" opacity="1"/><line transform="translate(62,0)" x2="0" y2="5" stroke="#888" stroke-width="1" opacity="1"/><line transform="translate(92,0)" x2="0" y2="5" stroke="#888" stroke-width="1" opacity="1"/><line transform="translate(123,0)" x2="0" y2="5" stroke="#888" stroke-width="1" opacity="1"/><line transform="translate(154,0)" x2="0" y2="5" stroke="#888" stroke-width="1" opacity="1"/><line transform="translate(185,0)" x2="0" y2="5" stroke="#888" stroke-width="1" opacity="1"/><line transform="translate(215,0)" x2="0" y2="5" stroke="#888" stroke-width="1" opacity="1"/><line transform="translate(246,0)" x2="0" y2="5" stroke="#888" stroke-width="1" opacity="1"/><line transform="translate(277,0)" x2="0" y2="5" stroke="#888" stroke-width="1" opacity="1"/><line transform="translate(308,0)" x2="0" y2="5" stroke="#888" stroke-width="1" opacity="1"/><line transform="translate(338,0)" x2="0" y2="5" stroke="#888" stroke-width="1" opacity="1"/><line transform="translate(369,0)" x2="0" y2="5" stroke="#888" stroke-width="1" opacity="1"/><line transform="translate(400,0)" x2="0" y2="5" stroke="#888" stroke-width="1" opacity="1"/></g><g class="mark-text role-axis-label" pointer-events="none"><text text-anchor="start" transform="translate(0,15)" font-family="sans-serif" font-size="10px" fill="#000" opacity="1">0</text><text text-anchor="middle" transform="translate(30.76923076923077,15)" font-family="sans-serif" font-size="10px" fill="#000" opacity="1">20</text><text text-anchor="middle" transform="translate(61.53846153846154,15)" font-family="sans-serif" font-size="10px" fill="#000" opacity="1">40</text><text text-anchor="middle" transform="translate(92.3076923076923,15)" font-family="sans-serif" font-size="10px" fill="#000" opacity="1">60</text><text text-anchor="middle" transform="translate(123.07692307692308,15)" font-family="sans-serif" font-size="10px" fill="#000" opacity="1">80</text><text text-anchor="middle" transform="translate(153.84615384615387,15)" font-family="sans-serif" font-size="10px" fill="#000" opacity="1">100</text><text text-anchor="middle" transform="translate(184.6153846153846,15)" font-family="sans-serif" font-size="10px" fill="#000" opacity="1">120</text><text text-anchor="middle" transform="translate(215.3846153846154,15)" font-family="sans-serif" font-size="10px" fill="#000" opacity="1">140</text><text text-anchor="middle" transform="translate(246.15384615384616,15)" font-family="sans-serif" font-size="10px" fill="#000" opacity="1">160</text><text text-anchor="middle" transform="translate(276.9230769230769,15)" font-family="sans-serif" font-size="10px" fill="#000" opacity="1">180</text><text text-anchor="middle" transform="translate(307.69230769230774,15)" font-family="sans-serif" font-size="10px" fill="#000" opacity="1">200</text><text text-anchor="middle" transform="translate(338.46153846153845,15)" font-family="sans-serif" font-size="10px" fill="#000" opacity="1">220</text><text text-anchor="middle" transform="translate(369.2307692307692,15)" font-family="sans-serif" font-size="10px" fill="#000" opacity="1">240</text><text text-anchor="end" transform="translate(400,15)" font-family="sans-serif" font-size="10px" fill="#000" opacity="1">260</text></g><g class="mark-rule role-axis-domain" pointer-events="none"><line transform="translate(0,0)" x2="400" y2="0" stroke="#888" stroke-width="1" opacity="1"/></g><g class="mark-text role-axis-title" pointer-events="none"><text text-anchor="middle" transform="translate(200,30)" font-family="sans-serif" font-size="11px" font-weight="bold" fill="#000" opacity="1">Anzahl Epochen</text></g></g><path class="foreground" aria-hidden="true" d="" pointer-events="none" display="none"/></g></g><g class="mark-group role-axis" role="graphics-symbol" aria-roledescription="axis" aria-label="Y-axis titled 'Genauigkeit' for a linear scale with values from 0.0 to 0.5"><g transform="translate(0.5,0.5)"><path class="background" aria-hidden="true" d="M0,0h0v0h0Z" pointer-events="none"/><g><g class="mark-rule role-axis-tick" pointer-events="none"><line transform="translate(0,300)" x2="-5" y2="0" stroke="#888" stroke-width="1" opacity="1"/><line transform="translate(0,270)" x2="-5" y2="0" stroke="#888" stroke-width="1" opacity="1"/><line transform="translate(0,240)" x2="-5" y2="0" stroke="#888" stroke-width="1" opacity="1"/><line transform="translate(0,210)" x2="-5" y2="0" stroke="#888" stroke-width="1" opacity="1"/><line transform="translate(0,180)" x2="-5" y2="0" stroke="#888" stroke-width="1" opacity="1"/><line transform="translate(0,150)" x2="-5" y2="0" stroke="#888" stroke-width="1" opacity="1"/><line transform="translate(0,120)" x2="-5" y2="0" stroke="#888" stroke-width="1" opacity="1"/><line transform="translate(0,90)" x2="-5" y2="0" stroke="#888" stroke-width="1" opacity="1"/><line transform="translate(0,60)" x2="-5" y2="0" stroke="#888" stroke-width="1" opacity="1"/><line transform="translate(0,30)" x2="-5" y2="0" stroke="#888" stroke-width="1" opacity="1"/><line transform="translate(0,0)" x2="-5" y2="0" stroke="#888" stroke-width="1" opacity="1"/></g><g class="mark-text role-axis-label" pointer-events="none"><text text-anchor="end" transform="translate(-7,303)" font-family="sans-serif" font-size="10px" fill="#000" opacity="1">0.00</text><text text-anchor="end" transform="translate(-7,273)" font-family="sans-serif" font-size="10px" fill="#000" opacity="1">0.05</text><text text-anchor="end" transform="translate(-7,243)" font-family="sans-serif" font-size="10px" fill="#000" opacity="1">0.10</text><text text-anchor="end" transform="translate(-7,213)" font-family="sans-serif" font-size="10px" fill="#000" opacity="1">0.15</text><text text-anchor="end" transform="translate(-7,183)" font-family="sans-serif" font-size="10px" fill="#000" opacity="1">0.20</text><text text-anchor="end" transform="translate(-7,153)" font-family="sans-serif" font-size="10px" fill="#000" opacity="1">0.25</text><text text-anchor="end" transform="translate(-7,123)" font-family="sans-serif" font-size="10px" fill="#000" opacity="1">0.30</text><text text-anchor="end" transform="translate(-7,93.00000000000001)" font-family="sans-serif" font-size="10px" fill="#000" opacity="1">0.35</text><text text-anchor="end" transform="translate(-7,62.999999999999986)" font-family="sans-serif" font-size="10px" fill="#000" opacity="1">0.40</text><text text-anchor="end" transform="translate(-7,32.99999999999999)" font-family="sans-serif" font-size="10px" fill="#000" opacity="1">0.45</text><text text-anchor="end" transform="translate(-7,3)" font-family="sans-serif" font-size="10px" fill="#000" opacity="1">0.50</text></g><g class="mark-rule role-axis-domain" pointer-events="none"><line transform="translate(0,300)" x2="0" y2="-300" stroke="#888" stroke-width="1" opacity="1"/></g><g class="mark-text role-axis-title" pointer-events="none"><text text-anchor="middle" transform="translate(-30.462890625,150) rotate(-90) translate(0,-2)" font-family="sans-serif" font-size="11px" font-weight="bold" fill="#000" opacity="1">Genauigkeit</text></g></g><path class="foreground" aria-hidden="true" d="" pointer-events="none" display="none"/></g></g><g class="mark-group role-scope pathgroup" role="graphics-object" aria-roledescription="group mark container"><g transform="translate(0,0)"><path class="background" aria-hidden="true" d="M0,0h400v300h-400Z"/><g><g class="mark-line role-mark marks" role="graphics-object" aria-roledescription="line mark container"><path aria-label="Typ: Train; Anzahl Epochen: 1; Genauigkeit: 0.199070766568" role="graphics-symbol" aria-roledescription="line mark" d="M1.5384615384615385,180.55754005908966L3.076923076923077,120.72908878326416L4.615384615384616,116.65475964546204L6.153846153846154,116.01144075393677L7.6923076923076925,114.93923664093018L9.230769230769232,112.58041262626648L10.76923076923077,111.50822639465332L12.307692307692308,95.63974142074585L13.846153846153847,84.27448868751526L15.384615384615385,79.12795543670654L16.923076923076923,76.12581253051758L18.461538461538463,74.83917474746704L20,72.90921807289124L21.53846153846154,72.48035073280334L23.076923076923077,71.40814661979675L24.615384615384617,71.19371294975281L26.153846153846157,70.12150883674622L27.692307692307693,70.12150883674622L29.230769230769234,69.47818994522095L30.76923076923077,69.69264149665833L32.30769230769231,69.69264149665833L33.84615384615385,69.69264149665833L35.38461538461539,69.47818994522095L36.92307692307693,69.47818994522095L38.46153846153847,69.90707516670227L40,69.263756275177L41.53846153846154,69.47818994522095L43.07692307692308,68.62043738365173L44.61538461538462,68.62043738365173L46.15384615384615,68.19157004356384L47.69230769230769,68.40600371360779L49.23076923076923,66.26161336898804L50.76923076923077,62.18728423118591L52.307692307692314,57.89850354194641L53.84615384615385,56.39743208885193L55.38461538461539,55.968546867370605L56.92307692307692,55.11079430580139L58.46153846153847,53.60972285270691L60,53.395289182662964L61.53846153846154,52.751970291137695L63.07692307692307,51.89421772956848L64.61538461538461,51.89421772956848L66.15384615384615,51.25089883804321L67.6923076923077,51.25089883804321L69.23076923076923,51.036447286605835L70.76923076923077,50.82201361656189L72.3076923076923,50.393146276474L73.84615384615385,49.964261054992676L75.38461538461539,49.53537583351135L76.92307692307693,49.53537583351135L78.46153846153847,49.32094216346741L80,49.32094216346741L81.53846153846153,49.32094216346741L83.07692307692308,49.10650849342346L84.61538461538461,46.747684478759766L86.15384615384616,43.53109002113342L87.6923076923077,41.815584897994995L89.23076923076924,41.38669967651367L90.76923076923077,40.7433807849884L92.3076923076923,40.10007977485657L93.84615384615384,40.31451344490051L95.38461538461539,39.671194553375244L96.92307692307692,39.027875661849976L98.46153846153847,38.38455677032471L100,37.955689430236816L101.53846153846153,37.74123787879944L103.07692307692307,37.52680420875549L104.61538461538463,37.31237053871155L106.15384615384616,36.883485317230225L107.6923076923077,36.240166425704956L109.23076923076923,36.02573275566101L110.76923076923077,35.811299085617065L112.3076923076923,36.02573275566101L113.84615384615384,35.811299085617065L115.38461538461537,35.38241386413574L116.92307692307693,35.59684753417969L118.46153846153847,35.1679801940918L120,35.38241386413574L121.53846153846153,34.739094972610474L123.07692307692308,34.95354652404785L124.61538461538461,34.739094972610474L126.15384615384615,34.739094972610474L127.69230769230768,34.739094972610474L129.23076923076923,34.739094972610474L130.76923076923077,34.739094972610474L132.3076923076923,34.739094972610474L133.84615384615384,34.739094972610474L135.3846153846154,34.739094972610474L136.92307692307693,34.52466130256653L138.46153846153845,34.739094972610474L140,34.52466130256653L141.53846153846155,34.52466130256653L143.07692307692307,34.52466130256653L144.6153846153846,34.52466130256653L146.15384615384613,34.52466130256653L147.6923076923077,34.52466130256653L149.23076923076923,34.31022763252258L150.76923076923077,34.31022763252258L152.3076923076923,34.31022763252258L153.84615384615387,34.31022763252258L155.3846153846154,34.31022763252258L156.92307692307693,34.31022763252258L158.46153846153845,34.31022763252258L160,34.31022763252258L161.53846153846155,34.31022763252258L163.07692307692307,34.31022763252258L164.6153846153846,34.31022763252258L166.15384615384616,34.31022763252258L167.6923076923077,33.88134241104126L169.23076923076923,33.45245718955994L170.76923076923077,33.23802351951599L172.30769230769232,32.16583728790283L173.84615384615384,31.951385736465454L175.3846153846154,31.73695206642151L176.9230769230769,31.09363317489624L178.46153846153848,30.879199504852295L180,30.879199504852295L181.53846153846155,30.879199504852295L183.07692307692307,30.02144694328308L184.6153846153846,29.807013273239136L186.15384615384616,29.378128051757812L187.69230769230768,29.163694381713867L189.23076923076923,29.163694381713867L190.76923076923077,29.163694381713867L192.30769230769232,28.734809160232544L193.84615384615384,28.5203754901886L195.3846153846154,28.30592393875122L196.92307692307693,27.23373770713806L198.46153846153845,26.161551475524902L200,25.518232583999634L201.53846153846155,25.303781032562256L203.07692307692307,25.08934736251831L204.61538461538458,25.08934736251831L206.15384615384613,25.08934736251831L207.6923076923077,25.08934736251831L209.23076923076925,25.08934736251831L210.76923076923077,24.66048002243042L212.30769230769232,24.446028470993042L213.84615384615384,24.446028470993042L215.3846153846154,24.446028470993042L216.9230769230769,24.231594800949097L218.46153846153845,23.802709579467773L220.00000000000003,23.373842239379883L221.53846153846155,23.159390687942505L223.0769230769231,23.373842239379883L224.6153846153846,23.373842239379883L226.15384615384616,23.159390687942505L227.69230769230768,22.51608967781067L229.23076923076923,22.51608967781067L230.76923076923075,22.30163812637329L232.30769230769232,21.8727707862854L233.84615384615387,20.586133003234863L235.3846153846154,20.15724778175354L236.92307692307693,18.870627880096436L238.46153846153845,18.01285743713379L240,16.94067120552063L241.53846153846152,16.29735231399536L243.07692307692307,15.654033422470093L244.61538461538464,15.225166082382202L246.15384615384616,14.15296196937561L247.6923076923077,13.509643077850342L249.23076923076923,13.080775737762451L250.76923076923077,13.080775737762451L252.3076923076923,12.651890516281128L253.84615384615384,12.651890516281128L255.38461538461536,12.223023176193237L256.92307692307696,11.579704284667969L258.46153846153845,10.9363853931427L260,10.507500171661377L261.53846153846155,10.293066501617432L263.0769230769231,9.864181280136108L264.6153846153846,9.864181280136108L266.15384615384613,9.864181280136108L267.6923076923077,9.435313940048218L269.2307692307692,9.435313940048218L270.7692307692308,9.435313940048218L272.3076923076923,9.220880270004272L273.84615384615387,9.220880270004272L275.38461538461536,8.79199504852295L276.9230769230769,8.577561378479004L278.46153846153845,8.577561378479004L280,8.14867615699768L281.53846153846155,8.363109827041626L283.0769230769231,8.14867615699768L284.61538461538464,7.934242486953735L286.15384615384613,7.719790935516357L287.6923076923077,7.505357265472412L289.2307692307692,7.719790935516357L290.7692307692308,7.505357265472412L292.30769230769226,7.0764899253845215L293.84615384615387,7.290923595428467L295.3846153846154,7.0764899253845215L296.9230769230769,6.8620383739471436L298.46153846153845,6.8620383739471436L300,7.0764899253845215L301.53846153846155,6.433171033859253L303.0769230769231,6.218719482421875L304.6153846153846,6.218719482421875L306.15384615384613,6.218719482421875L307.69230769230774,6.00428581237793L309.2307692307692,6.00428581237793L310.7692307692308,6.00428581237793L312.3076923076923,6.00428581237793L313.84615384615387,6.00428581237793L315.38461538461536,6.00428581237793L316.9230769230769,6.00428581237793L318.46153846153845,6.00428581237793L320,6.00428581237793L321.53846153846155,6.00428581237793L323.0769230769231,5.575418472290039L324.61538461538464,5.789852142333984L326.15384615384613,5.789852142333984L327.6923076923077,5.789852142333984L329.2307692307692,5.360966920852661L330.7692307692308,5.575418472290039L332.3076923076923,5.360966920852661L333.84615384615387,5.146533250808716L335.3846153846154,5.360966920852661L336.9230769230769,5.360966920852661L338.46153846153845,5.360966920852661L340,5.360966920852661L341.53846153846155,5.146533250808716L343.07692307692304,5.146533250808716L344.61538461538464,5.146533250808716L346.1538461538462,5.146533250808716L347.6923076923077,5.146533250808716L349.2307692307692,5.146533250808716L350.7692307692308,5.146533250808716L352.3076923076923,5.146533250808716L353.8461538461538,5.146533250808716L355.38461538461536,5.146533250808716L356.92307692307696,5.146533250808716L358.46153846153845,5.146533250808716L360,5.146533250808716L361.53846153846155,5.146533250808716L363.0769230769231,5.146533250808716L364.6153846153846,5.146533250808716L366.15384615384613,5.146533250808716L367.6923076923077,5.146533250808716L369.2307692307692,5.146533250808716L370.7692307692308,5.146533250808716L372.3076923076923,5.146533250808716L373.84615384615387,5.146533250808716L375.38461538461536,5.146533250808716L376.9230769230769,5.146533250808716L378.46153846153845,5.146533250808716L380,5.146533250808716L381.53846153846155,5.146533250808716L383.0769230769231,5.146533250808716" stroke="#f58518" stroke-width="2"/></g></g><path class="foreground" aria-hidden="true" d="" display="none"/></g><g transform="translate(0,0)"><path class="background" aria-hidden="true" d="M0,0h400v300h-400Z"/><g><g class="mark-line role-mark marks" role="graphics-object" aria-roledescription="line mark container"><path aria-label="Typ: Test; Anzahl Epochen: 1; Genauigkeit: 0.270225197077" role="graphics-symbol" aria-roledescription="line mark" d="M1.5384615384615385,137.8648817539215L3.076923076923077,119.8498785495758L4.615384615384616,117.34778881072998L6.153846153846154,115.34612774848938L7.6923076923076925,119.34944987297058L9.230769230769232,113.84487748146057L10.76923076923077,109.34110879898071L12.307692307692308,94.32860612869263L13.846153846153847,90.82569479942322L15.384615384615385,87.32276558876038L16.923076923076923,84.32026505470276L18.461538461538463,81.31776452064514L20,81.81817531585693L21.53846153846154,79.81651425361633L23.076923076923077,81.31776452064514L24.615384615384617,78.81567478179932L26.153846153846157,78.81567478179932L27.692307692307693,79.31610345840454L29.230769230769234,78.31526398658752L30.76923076923077,79.31610345840454L32.30769230769231,77.81485319137573L33.84615384615385,77.81485319137573L35.38461538461539,78.31526398658752L36.92307692307693,76.31360292434692L38.46153846153847,76.31360292434692L40,78.31526398658752L41.53846153846154,77.31442451477051L43.07692307692308,77.81485319137573L44.61538461538462,79.81651425361633L46.15384615384615,77.81485319137573L47.69230769230769,77.81485319137573L49.23076923076923,76.31360292434692L50.76923076923077,77.81485319137573L52.307692307692314,74.31192398071289L53.84615384615385,71.30942344665527L55.38461538461539,68.80733370780945L56.92307692307692,69.80817317962646L58.46153846153847,69.80817317962646L60,68.30692291259766L61.53846153846154,69.80817317962646L63.07692307692307,68.30692291259766L64.61538461538461,67.80651211738586L66.15384615384615,66.80567264556885L67.6923076923077,67.80651211738586L69.23076923076923,67.30608344078064L70.76923076923077,67.80651211738586L72.3076923076923,66.80567264556885L73.84615384615385,67.30608344078064L75.38461538461539,68.30692291259766L76.92307692307693,66.80567264556885L78.46153846153847,67.30608344078064L80,67.30608344078064L81.53846153846153,66.80567264556885L83.07692307692308,66.80567264556885L84.61538461538461,66.30526185035706L86.15384615384616,61.8014931678772L87.6923076923077,60.80067157745361L89.23076923076924,60.80067157745361L90.76923076923077,59.299421310424805L92.3076923076923,58.79899263381958L93.84615384615384,57.29774236679077L95.38461538461539,59.299421310424805L96.92307692307692,56.79733157157898L98.46153846153847,57.798171043395996L100,57.29774236679077L101.53846153846153,56.29692077636719L103.07692307692307,56.79733157157898L104.61538461538463,57.29774236679077L106.15384615384616,56.79733157157898L107.6923076923077,55.29608130455017L109.23076923076923,55.29608130455017L110.76923076923077,54.79567050933838L112.3076923076923,55.29608130455017L113.84615384615384,56.79733157157898L115.38461538461537,57.29774236679077L116.92307692307693,55.79649209976196L118.46153846153847,58.29858183860779L120,56.79733157157898L121.53846153846153,55.79649209976196L123.07692307692308,56.79733157157898L124.61538461538461,55.79649209976196L126.15384615384615,56.79733157157898L127.69230769230768,56.79733157157898L129.23076923076923,56.29692077636719L130.76923076923077,55.29608130455017L132.3076923076923,56.29692077636719L133.84615384615384,56.79733157157898L135.3846153846154,54.79567050933838L136.92307692307693,54.79567050933838L138.46153846153845,56.29692077636719L140,56.29692077636719L141.53846153846155,56.79733157157898L143.07692307692307,55.79649209976196L144.6153846153846,55.29608130455017L146.15384615384613,56.29692077636719L147.6923076923077,55.79649209976196L149.23076923076923,55.79649209976196L150.76923076923077,55.79649209976196L152.3076923076923,55.79649209976196L153.84615384615387,55.29608130455017L155.3846153846154,54.79567050933838L156.92307692307693,56.29692077636719L158.46153846153845,54.79567050933838L160,55.29608130455017L161.53846153846155,54.79567050933838L163.07692307692307,54.295241832733154L164.6153846153846,55.29608130455017L166.15384615384616,55.29608130455017L167.6923076923077,55.29608130455017L169.23076923076923,53.79483103752136L170.76923076923077,54.79567050933838L172.30769230769232,53.29442024230957L173.84615384615384,54.295241832733154L175.3846153846154,52.293580770492554L176.9230769230769,53.29442024230957L178.46153846153848,51.79315209388733L180,51.79315209388733L181.53846153846155,51.79315209388733L183.07692307692307,51.29274129867554L184.6153846153846,50.792330503463745L186.15384615384616,50.792330503463745L187.69230769230768,50.29190182685852L189.23076923076923,50.29190182685852L190.76923076923077,50.29190182685852L192.30769230769232,50.29190182685852L193.84615384615384,50.29190182685852L195.3846153846154,49.79149103164673L196.92307692307693,49.29108023643494L198.46153846153845,48.79065155982971L200,48.79065155982971L201.53846153846155,48.79065155982971L203.07692307692307,48.29024076461792L204.61538461538458,48.29024076461792L206.15384615384613,47.78982996940613L207.6923076923077,48.29024076461792L209.23076923076925,45.788151025772095L210.76923076923077,46.28857970237732L212.30769230769232,46.78899049758911L213.84615384615384,46.28857970237732L215.3846153846154,45.788151025772095L216.9230769230769,46.28857970237732L218.46153846153845,46.28857970237732L220.00000000000003,45.788151025772095L221.53846153846155,46.28857970237732L223.0769230769231,46.28857970237732L224.6153846153846,45.788151025772095L226.15384615384616,45.788151025772095L227.69230769230768,45.788151025772095L229.23076923076923,46.28857970237732L230.76923076923075,46.28857970237732L232.30769230769232,45.788151025772095L233.84615384615387,46.28857970237732L235.3846153846154,45.788151025772095L236.92307692307693,46.28857970237732L238.46153846153845,43.786489963531494L240,45.2877402305603L241.53846153846152,42.78565049171448L243.07692307692307,42.78565049171448L244.61538461538464,43.2860791683197L246.15384615384616,42.78565049171448L247.6923076923077,42.285239696502686L249.23076923076923,42.285239696502686L250.76923076923077,43.2860791683197L252.3076923076923,40.78398942947388L253.84615384615384,41.784828901290894L255.38461538461536,41.784828901290894L256.92307692307696,41.28440022468567L258.46153846153845,40.78398942947388L260,41.28440022468567L261.53846153846155,40.28356075286865L263.0769230769231,41.28440022468567L264.6153846153846,40.28356075286865L266.15384615384613,40.78398942947388L267.6923076923077,39.78314995765686L269.2307692307692,41.28440022468567L270.7692307692308,39.28273916244507L272.3076923076923,40.28356075286865L273.84615384615387,39.28273916244507L275.38461538461536,39.28273916244507L276.9230769230769,38.28189969062805L278.46153846153845,38.28189969062805L280,38.28189969062805L281.53846153846155,38.782310485839844L283.0769230769231,39.28273916244507L284.61538461538464,38.782310485839844L286.15384615384613,39.78314995765686L287.6923076923077,38.28189969062805L289.2307692307692,38.782310485839844L290.7692307692308,38.28189969062805L292.30769230769226,37.78148889541626L293.84615384615387,38.28189969062805L295.3846153846154,39.28273916244507L296.9230769230769,39.28273916244507L298.46153846153845,38.782310485839844L300,37.281060218811035L301.53846153846155,37.78148889541626L303.0769230769231,37.281060218811035L304.6153846153846,39.28273916244507L306.15384615384613,37.78148889541626L307.69230769230774,38.28189969062805L309.2307692307692,37.78148889541626L310.7692307692308,37.78148889541626L312.3076923076923,39.28273916244507L313.84615384615387,38.28189969062805L315.38461538461536,37.78148889541626L316.9230769230769,38.782310485839844L318.46153846153845,37.281060218811035L320,37.78148889541626L321.53846153846155,37.281060218811035L323.0769230769231,37.78148889541626L324.61538461538464,38.28189969062805L326.15384615384613,38.782310485839844L327.6923076923077,37.281060218811035L329.2307692307692,37.78148889541626L330.7692307692308,37.281060218811035L332.3076923076923,36.78064942359924L333.84615384615387,37.78148889541626L335.3846153846154,36.78064942359924L336.9230769230769,36.78064942359924L338.46153846153845,37.281060218811035L340,36.78064942359924L341.53846153846155,37.281060218811035L343.07692307692304,37.78148889541626L344.61538461538464,37.281060218811035L346.1538461538462,36.78064942359924L347.6923076923077,37.281060218811035L349.2307692307692,36.28023862838745L350.7692307692308,36.28023862838745L352.3076923076923,35.77980995178223L353.8461538461538,37.281060218811035L355.38461538461536,37.281060218811035L356.92307692307696,36.78064942359924L358.46153846153845,35.77980995178223L360,36.28023862838745L361.53846153846155,37.78148889541626L363.0769230769231,36.28023862838745L364.6153846153846,37.78148889541626L366.15384615384613,36.28023862838745L367.6923076923077,36.28023862838745L369.2307692307692,36.78064942359924L370.7692307692308,36.28023862838745L372.3076923076923,36.78064942359924L373.84615384615387,36.78064942359924L375.38461538461536,36.78064942359924L376.9230769230769,37.281060218811035L378.46153846153845,36.28023862838745L380,36.78064942359924L381.53846153846155,36.28023862838745L383.0769230769231,36.28023862838745" stroke="#4c78a8" stroke-width="2"/></g></g><path class="foreground" aria-hidden="true" d="" display="none"/></g></g><g class="mark-group role-legend" role="graphics-symbol" aria-roledescription="legend" aria-label="Symbol legend titled 'Typ' for stroke color with 2 values: Test, Train"><g transform="translate(418,0)"><path class="background" aria-hidden="true" d="M0,0h39v40h-39Z" pointer-events="none"/><g><g class="mark-group role-legend-entry"><g transform="translate(0,16)"><path class="background" aria-hidden="true" d="M0,0h0v0h0Z" pointer-events="none"/><g><g class="mark-group role-scope" role="graphics-object" aria-roledescription="group mark container"><g transform="translate(0,0)"><path class="background" aria-hidden="true" d="M0,0h38.412109375v11h-38.412109375Z" pointer-events="none" opacity="1"/><g><g class="mark-symbol role-legend-symbol" pointer-events="none"><path transform="translate(6,6)" d="M-5,0L5,0" stroke="#4c78a8" stroke-width="1.5" opacity="1"/></g><g class="mark-text role-legend-label" pointer-events="none"><text text-anchor="start" transform="translate(16,9)" font-family="sans-serif" font-size="10px" fill="#000" opacity="1">Test</text></g></g><path class="foreground" aria-hidden="true" d="" pointer-events="none" display="none"/></g><g transform="translate(0,13)"><path class="background" aria-hidden="true" d="M0,0h38.412109375v11h-38.412109375Z" pointer-events="none" opacity="1"/><g><g class="mark-symbol role-legend-symbol" pointer-events="none"><path transform="translate(6,6)" d="M-5,0L5,0" stroke="#f58518" stroke-width="1.5" opacity="1"/></g><g class="mark-text role-legend-label" pointer-events="none"><text text-anchor="start" transform="translate(16,9)" font-family="sans-serif" font-size="10px" fill="#000" opacity="1">Train</text></g></g><path class="foreground" aria-hidden="true" d="" pointer-events="none" display="none"/></g></g></g><path class="foreground" aria-hidden="true" d="" pointer-events="none" display="none"/></g></g><g class="mark-text role-legend-title" pointer-events="none"><text text-anchor="start" transform="translate(0,9)" font-family="sans-serif" font-size="11px" font-weight="bold" fill="#000" opacity="1">Typ</text></g></g><path class="foreground" aria-hidden="true" d="" pointer-events="none" display="none"/></g></g></g><path class="foreground" aria-hidden="true" d="" display="none"/></g></g></g></svg>