<svg xmlns="http://www.w3.org/2000/svg" xmlns:xlink="http://www.w3.org/1999/xlink" version="1.1" class="marks" width="509" height="347" viewBox="0 0 509 347"><rect width="509" height="347" fill="white"/><g fill="none" stroke-miterlimit="10" transform="translate(47,10)"><g class="mark-group role-frame root" role="graphics-object" aria-roledescription="group mark container"><g transform="translate(0,0)"><path class="background" aria-hidden="true" d="M0.5,0.5h400v300h-400Z" stroke="#ddd"/><g><g class="mark-group role-axis" aria-hidden="true"><g transform="translate(0.5,300.5)"><path class="background" aria-hidden="true" d="M0,0h0v0h0Z" pointer-events="none"/><g><g class="mark-rule role-axis-grid" pointer-events="none"><line transform="translate(0,-300)" x2="0" y2="300" stroke="#ddd" stroke-width="1" opacity="1"/><line transform="translate(31,-300)" x2="0" y2="300" stroke="#ddd" stroke-width="1" opacity="1"/><line transform="translate(62,-300)" x2="0" y2="300" stroke="#ddd" stroke-width="1" opacity="1"/><line transform="translate(92,-300)" x2="0" y2="300" stroke="#ddd" stroke-width="1" opacity="1"/><line transform="translate(123,-300)" x2="0" y2="300" stroke="#ddd" stroke-width="1" opacity="1"/><line transform="translate(154,-300)" x2="0" y2="300" stroke="#ddd" stroke-width="1" opacity="1"/><line transform="translate(185,-300)" x2="0" y2="300" stroke="#ddd" stroke-width="1" opacity="1"/><line transform="translate(215,-300)" x2="0" y2="300" stroke="#ddd" stroke-width="1" opacity="1"/><line transform="translate(246,-300)" x2="0" y2="300" stroke="#ddd" stroke-width="1" opacity="1"/><line transform="translate(277,-300)" x2="0" y2="300" stroke="#ddd" stroke-width="1" opacity="1"/><line transform="translate(308,-300)" x2="0" y2="300" stroke="#ddd" stroke-width="1" opacity="1"/><line transform="translate(338,-300)" x2="0" y2="300" stroke="#ddd" stroke-width="1" opacity="1"/><line transform="translate(369,-300)" x2="0" y2="300" stroke="#ddd" stroke-width="1" opacity="1"/><line transform="translate(400,-300)" x2="0" y2="300" stroke="#ddd" stroke-width="1" opacity="1"/></g></g><path class="foreground" aria-hidden="true" d="" pointer-events="none" display="none"/></g></g><g class="mark-group role-axis" aria-hidden="true"><g transform="translate(0.5,0.5)"><path class="background" aria-hidden="true" d="M0,0h0v0h0Z" pointer-events="none"/><g><g class="mark-rule role-axis-grid" pointer-events="none"><line transform="translate(0,300)" x2="400" y2="0" stroke="#ddd" stroke-width="1" opacity="1"/><line transform="translate(0,267)" x2="400" y2="0" stroke="#ddd" stroke-width="1" opacity="1"/><line transform="translate(0,233)" x2="400" y2="0" stroke="#ddd" stroke-width="1" opacity="1"/><line transform="translate(0,200)" x2="400" y2="0" stroke="#ddd" stroke-width="1" opacity="1"/><line transform="translate(0,167)" x2="400" y2="0" stroke="#ddd" stroke-width="1" opacity="1"/><line transform="translate(0,133)" x2="400" y2="0" stroke="#ddd" stroke-width="1" opacity="1"/><line transform="translate(0,100)" x2="400" y2="0" stroke="#ddd" stroke-width="1" opacity="1"/><line transform="translate(0,67)" x2="400" y2="0" stroke="#ddd" stroke-width="1" opacity="1"/><line transform="translate(0,33)" x2="400" y2="0" stroke="#ddd" stroke-width="1" opacity="1"/><line transform="translate(0,0)" x2="400" y2="0" stroke="#ddd" stroke-width="1" opacity="1"/></g></g><path class="foreground" aria-hidden="true" d="" pointer-events="none" display="none"/></g></g><g class="mark-group role-axis" role="graphics-symbol" aria-roledescription="axis" aria-label="X-axis titled 'Anzahl Epochen' for a linear scale with values from 0 to 260"><g transform="translate(0.5,300.5)"><path class="background" aria-hidden="true" d="M0,0h0v0h0Z" pointer-events="none"/><g><g class="mark-rule role-axis-tick" pointer-events="none"><line transform="translate(0,0)" x2="0" y2="5" stroke="#888" stroke-width="1" opacity="1"/><line transform="translate(31,0)" x2="0" y2="5" stroke="#888" stroke-width="1" opacity="1"/><line transform="translate(62,0)" x2="0" y2="5" stroke="#888" stroke-width="1" opacity="1"/><line transform="translate(92,0)" x2="0" y2="5" stroke="#888" stroke-width="1" opacity="1"/><line transform="translate(123,0)" x2="0" y2="5" stroke="#888" stroke-width="1" opacity="1"/><line transform="translate(154,0)" x2="0" y2="5" stroke="#888" stroke-width="1" opacity="1"/><line transform="translate(185,0)" x2="0" y2="5" stroke="#888" stroke-width="1" opacity="1"/><line transform="translate(215,0)" x2="0" y2="5" stroke="#888" stroke-width="1" opacity="1"/><line transform="translate(246,0)" x2="0" y2="5" stroke="#888" stroke-width="1" opacity="1"/><line transform="translate(277,0)" x2="0" y2="5" stroke="#888" stroke-width="1" opacity="1"/><line transform="translate(308,0)" x2="0" y2="5" stroke="#888" stroke-width="1" opacity="1"/><line transform="translate(338,0)" x2="0" y2="5" stroke="#888" stroke-width="1" opacity="1"/><line transform="translate(369,0)" x2="0" y2="5" stroke="#888" stroke-width="1" opacity="1"/><line transform="translate(400,0)" x2="0" y2="5" stroke="#888" stroke-width="1" opacity="1"/></g><g class="mark-text role-axis-label" pointer-events="none"><text text-anchor="start" transform="translate(0,15)" font-family="sans-serif" font-size="10px" fill="#000" opacity="1">0</text><text text-anchor="middle" transform="translate(30.76923076923077,15)" font-family="sans-serif" font-size="10px" fill="#000" opacity="1">20</text><text text-anchor="middle" transform="translate(61.53846153846154,15)" font-family="sans-serif" font-size="10px" fill="#000" opacity="1">40</text><text text-anchor="middle" transform="translate(92.3076923076923,15)" font-family="sans-serif" font-size="10px" fill="#000" opacity="1">60</text><text text-anchor="middle" transform="translate(123.07692307692308,15)" font-family="sans-serif" font-size="10px" fill="#000" opacity="1">80</text><text text-anchor="middle" transform="translate(153.84615384615387,15)" font-family="sans-serif" font-size="10px" fill="#000" opacity="1">100</text><text text-anchor="middle" transform="translate(184.6153846153846,15)" font-family="sans-serif" font-size="10px" fill="#000" opacity="1">120</text><text text-anchor="middle" transform="translate(215.3846153846154,15)" font-family="sans-serif" font-size="10px" fill="#000" opacity="1">140</text><text text-anchor="middle" transform="translate(246.15384615384616,15)" font-family="sans-serif" font-size="10px" fill="#000" opacity="1">160</text><text text-anchor="middle" transform="translate(276.9230769230769,15)" font-family="sans-serif" font-size="10px" fill="#000" opacity="1">180</text><text text-anchor="middle" transform="translate(307.69230769230774,15)" font-family="sans-serif" font-size="10px" fill="#000" opacity="1">200</text><text text-anchor="middle" transform="translate(338.46153846153845,15)" font-family="sans-serif" font-size="10px" fill="#000" opacity="1">220</text><text text-anchor="middle" transform="translate(369.2307692307692,15)" font-family="sans-serif" font-size="10px" fill="#000" opacity="1">240</text><text text-anchor="end" transform="translate(400,15)" font-family="sans-serif" font-size="10px" fill="#000" opacity="1">260</text></g><g class="mark-rule role-axis-domain" pointer-events="none"><line transform="translate(0,0)" x2="400" y2="0" stroke="#888" stroke-width="1" opacity="1"/></g><g class="mark-text role-axis-title" pointer-events="none"><text text-anchor="middle" transform="translate(200,30)" font-family="sans-serif" font-size="11px" font-weight="bold" fill="#000" opacity="1">Anzahl Epochen</text></g></g><path class="foreground" aria-hidden="true" d="" pointer-events="none" display="none"/></g></g><g class="mark-group role-axis" role="graphics-symbol" aria-roledescription="axis" aria-label="Y-axis titled 'Genauigkeit' for a linear scale with values from 0.0 to 0.5"><g transform="translate(0.5,0.5)"><path class="background" aria-hidden="true" d="M0,0h0v0h0Z" pointer-events="none"/><g><g class="mark-rule role-axis-tick" pointer-events="none"><line transform="translate(0,300)" x2="-5" y2="0" stroke="#888" stroke-width="1" opacity="1"/><line transform="translate(0,267)" x2="-5" y2="0" stroke="#888" stroke-width="1" opacity="1"/><line transform="translate(0,233)" x2="-5" y2="0" stroke="#888" stroke-width="1" opacity="1"/><line transform="translate(0,200)" x2="-5" y2="0" stroke="#888" stroke-width="1" opacity="1"/><line transform="translate(0,167)" x2="-5" y2="0" stroke="#888" stroke-width="1" opacity="1"/><line transform="translate(0,133)" x2="-5" y2="0" stroke="#888" stroke-width="1" opacity="1"/><line transform="translate(0,100)" x2="-5" y2="0" stroke="#888" stroke-width="1" opacity="1"/><line transform="translate(0,67)" x2="-5" y2="0" stroke="#888" stroke-width="1" opacity="1"/><line transform="translate(0,33)" x2="-5" y2="0" stroke="#888" stroke-width="1" opacity="1"/><line transform="translate(0,0)" x2="-5" y2="0" stroke="#888" stroke-width="1" opacity="1"/></g><g class="mark-text role-axis-label" pointer-events="none"><text text-anchor="end" transform="translate(-7,303)" font-family="sans-serif" font-size="10px" fill="#000" opacity="1">0.00</text><text text-anchor="end" transform="translate(-7,269.66666666666663)" font-family="sans-serif" font-size="10px" fill="#000" opacity="1">0.05</text><text text-anchor="end" transform="translate(-7,236.33333333333334)" font-family="sans-serif" font-size="10px" fill="#000" opacity="1">0.10</text><text text-anchor="end" transform="translate(-7,203.00000000000003)" font-family="sans-serif" font-size="10px" fill="#000" opacity="1">0.15</text><text text-anchor="end" transform="translate(-7,169.66666666666669)" font-family="sans-serif" font-size="10px" fill="#000" opacity="1">0.20</text><text text-anchor="end" transform="translate(-7,136.33333333333331)" font-family="sans-serif" font-size="10px" fill="#000" opacity="1">0.25</text><text text-anchor="end" transform="translate(-7,103.00000000000001)" font-family="sans-serif" font-size="10px" fill="#000" opacity="1">0.30</text><text text-anchor="end" transform="translate(-7,69.6666666666667)" font-family="sans-serif" font-size="10px" fill="#000" opacity="1">0.35</text><text text-anchor="end" transform="translate(-7,36.333333333333314)" font-family="sans-serif" font-size="10px" fill="#000" opacity="1">0.40</text><text text-anchor="end" transform="translate(-7,3)" font-family="sans-serif" font-size="10px" fill="#000" opacity="1">0.45</text></g><g class="mark-rule role-axis-domain" pointer-events="none"><line transform="translate(0,300)" x2="0" y2="-300" stroke="#888" stroke-width="1" opacity="1"/></g><g class="mark-text role-axis-title" pointer-events="none"><text text-anchor="middle" transform="translate(-30.462890625,150) rotate(-90) translate(0,-2)" font-family="sans-serif" font-size="11px" font-weight="bold" fill="#000" opacity="1">Genauigkeit</text></g></g><path class="foreground" aria-hidden="true" d="" pointer-events="none" display="none"/></g></g><g class="mark-group role-scope pathgroup" role="graphics-object" aria-roledescription="group mark container"><g transform="translate(0,0)"><path class="background" aria-hidden="true" d="M0,0h400v300h-400Z"/><g><g class="mark-line role-mark marks" role="graphics-object" aria-roledescription="line mark container"><path aria-label="Typ: Train; Anzahl Epochen: 1; Genauigkeit: 0" role="graphics-symbol" aria-roledescription="line mark" d="M1.5384615384615385,300L3.076923076923077,300L4.615384615384616,296.9025493289034L6.153846153846154,296.9025493289034L7.6923076923076925,259.73314344882965L9.230769230769232,203.02597482999164L10.76923076923077,178.48463654518127L12.307692307692308,163.95044128100076L13.846153846153847,151.08410318692523L15.384615384615385,138.4560445944468L16.923076923076923,129.8784891764323L18.461538461538463,127.97235250473021L20,121.77746295928956L21.53846153846154,122.49226172765097L23.076923076923077,118.68000825246176L24.615384615384617,118.44174861907958L26.153846153846157,116.05909268061322L27.692307692307693,115.82083304723103L29.230769230769234,114.15297587712607L30.76923076923077,114.39123551050822L32.30769230769231,112.72337834040323L33.84615384615385,110.81724166870119L35.38461538461539,110.34072240193684L36.92307692307693,109.62592363357544L38.46153846153847,108.91112486521403L40,107.24326769510904L41.53846153846154,107.0050080617269L43.07692307692308,106.76672856012979L44.61538461538462,104.86061175664265L46.15384615384615,102.71623531977335L47.69230769230769,99.85704024632771L49.23076923076923,94.37692960103352L50.76923076923077,86.51418288548788L52.307692307692314,80.31927347183229L53.84615384615385,77.93661753336589L55.38461538461539,74.8391628265381L56.92307692307692,72.69478638966879L58.46153846153847,70.3121304512024L60,69.35907204945882L61.53846153846154,68.40601364771526L63.07692307692307,66.97641611099246L64.61538461538461,65.78507820765176L66.15384615384615,64.35550053914388L67.6923076923077,62.687643369038916L69.23076923076923,61.73456509908042L70.76923076923077,59.828448295593276L72.3076923076923,59.828448295593276L73.84615384615385,58.875389893849686L75.38461538461539,59.35190916061403L76.92307692307693,57.68405199050903L78.46153846153847,57.68405199050903L80,57.922331492106125L81.53846153846153,56.25447432200114L83.07692307692308,56.25447432200114L84.61538461538461,55.77793518702189L86.15384615384616,55.77793518702189L87.6923076923077,55.063136418660484L89.23076923076924,55.30139605204264L90.76923076923077,54.824876785278335L92.3076923076923,54.11007801691693L93.84615384615384,54.34833765029909L95.38461538461539,53.871818383534745L96.92307692307692,53.63353888193768L98.46153846153847,54.11007801691693L100,53.15701961517334L101.53846153846153,53.15701961517334L103.07692307692307,53.3952792485555L104.61538461538463,52.91875998179118L106.15384615384616,52.68048048019409L107.6923076923077,52.68048048019409L109.23076923076923,52.68048048019409L110.76923076923077,52.68048048019409L112.3076923076923,52.442220846811935L113.84615384615384,51.96568171183269L115.38461538461537,51.96568171183269L116.92307692307693,51.72742207845054L118.46153846153847,51.72742207845054L120,51.96568171183269L121.53846153846153,51.48916244506838L123.07692307692308,51.250902811686196L124.61538461538461,50.77436367670695L126.15384615384615,50.53610404332479L127.69230769230768,50.77436367670695L129.23076923076923,50.53610404332479L130.76923076923077,50.53610404332479L132.3076923076923,50.2978245417277L133.84615384615384,50.2978245417277L135.3846153846154,49.82130527496339L136.92307692307693,49.82130527496339L138.46153846153845,50.05956490834554L140,49.82130527496339L141.53846153846155,49.583025773366295L143.07692307692307,49.82130527496339L144.6153846153846,49.583025773366295L146.15384615384613,49.82130527496339L147.6923076923077,49.583025773366295L149.23076923076923,49.82130527496339L150.76923076923077,49.82130527496339L152.3076923076923,49.344766139984145L153.84615384615387,49.583025773366295L155.3846153846154,49.344766139984145L156.92307692307693,49.10650650660199L158.46153846153845,49.10650650660199L160,48.8682468732198L161.53846153846155,48.8682468732198L163.07692307692307,48.62996737162274L164.6153846153846,48.62996737162274L166.15384615384616,48.391707738240555L167.6923076923077,48.391707738240555L169.23076923076923,48.391707738240555L170.76923076923077,48.62996737162274L172.30769230769232,48.391707738240555L173.84615384615384,48.391707738240555L175.3846153846154,48.391707738240555L176.9230769230769,48.391707738240555L178.46153846153848,48.391707738240555L180,48.391707738240555L181.53846153846155,48.391707738240555L183.07692307692307,48.391707738240555L184.6153846153846,47.91516860326131L186.15384615384616,48.1534481048584L187.69230769230768,47.91516860326131L189.23076923076923,47.91516860326131L190.76923076923077,47.91516860326131L192.30769230769232,47.91516860326131L193.84615384615384,47.67690896987915L195.3846153846154,47.91516860326131L196.92307692307693,47.91516860326131L198.46153846153845,47.438649336496994L200,47.200389703114844L201.53846153846155,47.438649336496994L203.07692307692307,47.200389703114844L204.61538461538458,47.200389703114844L206.15384615384613,47.200389703114844L207.6923076923077,47.200389703114844L209.23076923076925,46.962110201517746L210.76923076923077,46.962110201517746L212.30769230769232,46.723850568135596L213.84615384615384,46.962110201517746L215.3846153846154,46.48559093475344L216.9230769230769,46.723850568135596L218.46153846153845,46.48559093475344L220.00000000000003,46.48559093475344L221.53846153846155,46.723850568135596L223.0769230769231,46.48559093475344L224.6153846153846,46.48559093475344L226.15384615384616,46.48559093475344L227.69230769230768,46.723850568135596L229.23076923076923,46.24731143315635L230.76923076923075,46.24731143315635L232.30769230769232,46.48559093475344L233.84615384615387,46.48559093475344L235.3846153846154,46.24731143315635L236.92307692307693,46.24731143315635L238.46153846153845,46.24731143315635L240,46.24731143315635L241.53846153846152,46.24731143315635L243.07692307692307,46.24731143315635L244.61538461538464,46.24731143315635L246.15384615384616,46.24731143315635L247.6923076923077,46.00905179977419L249.23076923076923,45.770792166392006L250.76923076923077,45.0559933980306L252.3076923076923,44.81773376464845L253.84615384615384,44.341194629669204L255.38461538461536,43.388136227925614L256.92307692307696,43.388136227925614L258.46153846153845,42.67333745956421L260,41.4820194244385L261.53846153846155,41.00548028945925L263.0769230769231,40.05242188771566L264.6153846153846,40.29068152109782L266.15384615384613,39.33762311935426L267.6923076923077,39.33762311935426L269.2307692307692,39.099363485972106L270.7692307692308,38.861083984375014L272.3076923076923,37.908025582631424L273.84615384615387,37.43150631586711L275.38461538461536,37.66976594924927L276.9230769230769,37.19322681427002L278.46153846153845,36.95496718088786L280,36.71670754750571L281.53846153846155,36.71670754750571L283.0769230769231,36.71670754750571L284.61538461538464,36.71670754750571L286.15384615384613,36.71670754750571L287.6923076923077,36.71670754750571L289.2307692307692,36.71670754750571L290.7692307692308,36.478428045908615L292.30769230769226,36.240168412526465L293.84615384615387,36.478428045908615L295.3846153846154,36.478428045908615L296.9230769230769,35.76364914576212L298.46153846153845,35.76364914576212L300,35.04885037740072L301.53846153846155,34.81057087580363L303.0769230769231,34.095791975657164L304.6153846153846,33.85751247406007L306.15384615384613,34.57231124242147L307.69230769230774,34.095791975657164L309.2307692307692,33.85751247406007L310.7692307692308,34.095791975657164L312.3076923076923,33.619252840677916L313.84615384615387,33.85751247406007L315.38461538461536,33.619252840677916L316.9230769230769,33.85751247406007L318.46153846153845,33.619252840677916L320,33.619252840677916L321.53846153846155,33.38099320729573L323.0769230769231,33.14271370569867L324.61538461538464,33.14271370569867L326.15384615384613,32.666194438934326L327.6923076923077,32.666194438934326L329.2307692307692,32.90445407231648L330.7692307692308,32.18965530395508L332.3076923076923,32.18965530395508L333.84615384615387,31.951395670572925L335.3846153846154,30.760057767232276L336.9230769230769,30.52179813385012L338.46153846153845,30.045278867085777L340,30.283538500467934L341.53846153846155,30.045278867085777L343.07692307692304,29.09220059712728L344.61538461538464,29.330480098724376L346.1538461538462,28.139142195383727L347.6923076923077,26.947824160257984L349.2307692307692,26.233025391896582L350.7692307692308,25.756486256917334L352.3076923076923,24.565168221791588L353.8461538461538,24.08862908681234L355.38461538461536,23.135570685068785L356.92307692307696,22.659051418304443L358.46153846153845,21.944252649943042L360,21.705973148345947L361.53846153846155,20.752914746602393L363.0769230769231,20.752914746602393L364.6153846153846,20.038115978240988L366.15384615384613,20.038115978240988L367.6923076923077,19.799856344858803L369.2307692307692,19.561596711476646L370.7692307692308,19.323317209879555L372.3076923076923,19.561596711476646L373.84615384615387,19.085057576497398L375.38461538461536,19.085057576497398L376.9230769230769,18.846797943115245L378.46153846153845,19.085057576497398L380,19.085057576497398L381.53846153846155,18.846797943115245L383.0769230769231,18.131999174753844" stroke="#f58518" stroke-width="2"/></g></g><path class="foreground" aria-hidden="true" d="" display="none"/></g><g transform="translate(0,0)"><path class="background" aria-hidden="true" d="M0,0h400v300h-400Z"/><g><g class="mark-line role-mark marks" role="graphics-object" aria-roledescription="line mark container"><path aria-label="Typ: Test; Anzahl Epochen: 1; Genauigkeit: 0" role="graphics-symbol" aria-roledescription="line mark" d="M1.5384615384615385,300L3.076923076923077,300L4.615384615384616,294.43981113533175L6.153846153846154,281.095357487599L7.6923076923076925,231.60967528820038L9.230769230769232,196.02446556091311L10.76923076923077,165.999440352122L12.307692307692308,148.76285990079245L13.846153846153847,129.30219173431396L15.384615384615385,122.07395633061726L16.923076923076923,122.62996832529706L18.461538461538463,117.06978877385458L20,116.51375691095988L21.53846153846154,110.95357735951742L23.076923076923077,112.62163321177164L24.615384615384617,108.7294896443685L26.153846153846157,109.84153350194296L27.692307692307693,110.39754549662271L29.230769230769234,110.39754549662271L30.76923076923077,104.83736594518025L32.30769230769231,100.9452223777771L33.84615384615385,102.05726623535156L35.38461538461539,102.05726623535156L36.92307692307693,101.5012542406718L38.46153846153847,98.16514253616332L40,98.72115453084311L41.53846153846154,95.94105482101439L43.07692307692308,95.38504282633463L44.61538461538462,94.82903083165488L46.15384615384615,93.16097497940065L47.69230769230769,89.82486327489217L49.23076923076923,85.37670771280925L50.76923076923077,75.36835273106894L52.307692307692314,74.25632874170941L53.84615384615385,74.81234073638917L55.38461538461539,69.80817317962646L56.92307692307692,72.03224102656048L58.46153846153847,73.14428488413495L60,68.14011732737224L61.53846153846154,64.24799362818399L63.07692307692307,64.8040056228638L64.61538461538461,64.24799362818399L66.15384615384615,63.135949770609535L67.6923076923077,64.24799362818399L69.23076923076923,62.02390591303507L70.76923076923077,62.579917907714865L72.3076923076923,62.02390591303507L73.84615384615385,59.24380620320638L75.38461538461539,60.355850060780845L76.92307692307693,60.355850060780845L78.46153846153847,56.463726361592606L80,58.13178221384686L81.53846153846153,55.907694498697936L83.07692307692308,57.0197383562724L84.61538461538461,55.907694498697936L86.15384615384616,57.0197383562724L87.6923076923077,54.23963864644368L89.23076923076924,54.79567050933838L90.76923076923077,53.683626651763916L92.3076923076923,52.01557079950969L93.84615384615384,50.903526941935226L95.38461538461539,51.45955880482993L96.92307692307692,51.45955880482993L98.46153846153847,52.01557079950969L100,50.903526941935226L101.53846153846153,51.45955880482993L103.07692307692307,52.57158279418945L104.61538461538463,52.57158279418945L106.15384615384616,50.903526941935226L107.6923076923077,53.12761465708415L109.23076923076923,53.12761465708415L110.76923076923077,52.57158279418945L112.3076923076923,52.01557079950969L113.84615384615384,51.45955880482993L115.38461538461537,51.45955880482993L116.92307692307693,52.01557079950969L118.46153846153847,52.01557079950969L120,52.01557079950969L121.53846153846153,51.45955880482993L123.07692307692308,52.57158279418945L124.61538461538461,52.01557079950969L126.15384615384615,50.34751494725547L127.69230769230768,50.903526941935226L129.23076923076923,51.45955880482993L130.76923076923077,50.903526941935226L132.3076923076923,50.903526941935226L133.84615384615384,50.903526941935226L135.3846153846154,51.45955880482993L136.92307692307693,50.903526941935226L138.46153846153845,50.903526941935226L140,50.903526941935226L141.53846153846155,51.45955880482993L143.07692307692307,50.903526941935226L144.6153846153846,51.45955880482993L146.15384615384613,51.45955880482993L147.6923076923077,51.45955880482993L149.23076923076923,50.903526941935226L150.76923076923077,52.01557079950969L152.3076923076923,51.45955880482993L153.84615384615387,51.45955880482993L155.3846153846154,52.01557079950969L156.92307692307693,51.45955880482993L158.46153846153845,51.45955880482993L160,50.903526941935226L161.53846153846155,50.903526941935226L163.07692307692307,51.45955880482993L164.6153846153846,52.01557079950969L166.15384615384616,50.903526941935226L167.6923076923077,51.45955880482993L169.23076923076923,50.903526941935226L170.76923076923077,50.34751494725547L172.30769230769232,50.34751494725547L173.84615384615384,52.01557079950969L175.3846153846154,50.34751494725547L176.9230769230769,50.34751494725547L178.46153846153848,50.34751494725547L180,50.34751494725547L181.53846153846155,50.34751494725547L183.07692307692307,50.34751494725547L184.6153846153846,50.34751494725547L186.15384615384616,50.34751494725547L187.69230769230768,50.34751494725547L189.23076923076923,50.34751494725547L190.76923076923077,50.34751494725547L192.30769230769232,50.34751494725547L193.84615384615384,50.34751494725547L195.3846153846154,50.34751494725547L196.92307692307693,50.34751494725547L198.46153846153845,50.34751494725547L200,50.34751494725547L201.53846153846155,50.903526941935226L203.07692307692307,49.79148308436076L204.61538461538458,50.34751494725547L206.15384615384613,50.903526941935226L207.6923076923077,50.903526941935226L209.23076923076925,50.903526941935226L210.76923076923077,50.903526941935226L212.30769230769232,50.903526941935226L213.84615384615384,50.34751494725547L215.3846153846154,50.903526941935226L216.9230769230769,50.903526941935226L218.46153846153845,50.903526941935226L220.00000000000003,50.903526941935226L221.53846153846155,50.903526941935226L223.0769230769231,50.34751494725547L224.6153846153846,50.903526941935226L226.15384615384616,50.903526941935226L227.69230769230768,50.34751494725547L229.23076923076923,50.903526941935226L230.76923076923075,50.903526941935226L232.30769230769232,50.903526941935226L233.84615384615387,50.34751494725547L235.3846153846154,50.903526941935226L236.92307692307693,50.903526941935226L238.46153846153845,50.903526941935226L240,50.903526941935226L241.53846153846152,51.45955880482993L243.07692307692307,50.903526941935226L244.61538461538464,50.903526941935226L246.15384615384616,49.79148308436076L247.6923076923077,51.45955880482993L249.23076923076923,49.79148308436076L250.76923076923077,50.34751494725547L252.3076923076923,48.67945909500124L253.84615384615384,49.235471089681006L255.38461538461536,49.235471089681006L256.92307692307696,49.235471089681006L258.46153846153845,50.903526941935226L260,49.235471089681006L261.53846153846155,48.67945909500124L263.0769230769231,48.67945909500124L264.6153846153846,48.67945909500124L266.15384615384613,48.67945909500124L267.6923076923077,48.67945909500124L269.2307692307692,47.56741523742678L270.7692307692308,47.01140324274699L272.3076923076923,47.01140324274699L273.84615384615387,47.01140324274699L275.38461538461536,47.01140324274699L276.9230769230769,47.01140324274699L278.46153846153845,47.01140324274699L280,47.01140324274699L281.53846153846155,45.899359385172524L283.0769230769231,47.01140324274699L284.61538461538464,45.899359385172524L286.15384615384613,45.34334739049276L287.6923076923077,45.34334739049276L289.2307692307692,44.78731552759806L290.7692307692308,44.2313035329183L292.30769230769226,44.78731552759806L293.84615384615387,44.2313035329183L295.3846153846154,44.2313035329183L296.9230769230769,43.119259675343834L298.46153846153845,43.119259675343834L300,42.56324768066408L301.53846153846155,42.56324768066408L303.0769230769231,42.00723568598431L304.6153846153846,42.00723568598431L306.15384615384613,42.56324768066408L307.69230769230774,42.00723568598431L309.2307692307692,42.00723568598431L310.7692307692308,42.00723568598431L312.3076923076923,42.00723568598431L313.84615384615387,42.56324768066408L315.38461538461536,42.00723568598431L316.9230769230769,42.00723568598431L318.46153846153845,41.451203823089614L320,40.89519182840985L321.53846153846155,41.451203823089614L323.0769230769231,41.451203823089614L324.61538461538464,41.451203823089614L326.15384615384613,41.451203823089614L327.6923076923077,42.00723568598431L329.2307692307692,41.451203823089614L330.7692307692308,41.451203823089614L332.3076923076923,42.00723568598431L333.84615384615387,40.89519182840985L335.3846153846154,40.89519182840985L336.9230769230769,40.33917983373006L338.46153846153845,39.78314797083539L340,40.33917983373006L341.53846153846155,39.78314797083539L343.07692307692304,39.227135976155594L344.61538461538464,39.227135976155594L346.1538461538462,39.78314797083539L347.6923076923077,39.78314797083539L349.2307692307692,39.78314797083539L350.7692307692308,38.11509211858113L352.3076923076923,37.55908012390137L353.8461538461538,34.22296841939292L355.38461538461536,34.22296841939292L356.92307692307696,34.22296841939292L358.46153846153845,33.11092456181846L360,33.11092456181846L361.53846153846155,32.55491256713869L363.0769230769231,30.886856714884438L364.6153846153846,30.886856714884438L366.15384615384613,31.998880704243994L367.6923076923077,30.330824851989767L369.2307692307692,30.330824851989767L370.7692307692308,30.330824851989767L372.3076923076923,29.774812857309975L373.84615384615387,29.774812857309975L375.38461538461536,30.886856714884438L376.9230769230769,30.330824851989767L378.46153846153845,29.774812857309975L380,29.774812857309975L381.53846153846155,30.886856714884438L383.0769230769231,30.330824851989767" stroke="#4c78a8" stroke-width="2"/></g></g><path class="foreground" aria-hidden="true" d="" display="none"/></g></g><g class="mark-group role-legend" role="graphics-symbol" aria-roledescription="legend" aria-label="Symbol legend titled 'Typ' for stroke color with 2 values: Test, Train"><g transform="translate(418,0)"><path class="background" aria-hidden="true" d="M0,0h39v40h-39Z" pointer-events="none"/><g><g class="mark-group role-legend-entry"><g transform="translate(0,16)"><path class="background" aria-hidden="true" d="M0,0h0v0h0Z" pointer-events="none"/><g><g class="mark-group role-scope" role="graphics-object" aria-roledescription="group mark container"><g transform="translate(0,0)"><path class="background" aria-hidden="true" d="M0,0h38.412109375v11h-38.412109375Z" pointer-events="none" opacity="1"/><g><g class="mark-symbol role-legend-symbol" pointer-events="none"><path transform="translate(6,6)" d="M-5,0L5,0" stroke="#4c78a8" stroke-width="1.5" opacity="1"/></g><g class="mark-text role-legend-label" pointer-events="none"><text text-anchor="start" transform="translate(16,9)" font-family="sans-serif" font-size="10px" fill="#000" opacity="1">Test</text></g></g><path class="foreground" aria-hidden="true" d="" pointer-events="none" display="none"/></g><g transform="translate(0,13)"><path class="background" aria-hidden="true" d="M0,0h38.412109375v11h-38.412109375Z" pointer-events="none" opacity="1"/><g><g class="mark-symbol role-legend-symbol" pointer-events="none"><path transform="translate(6,6)" d="M-5,0L5,0" stroke="#f58518" stroke-width="1.5" opacity="1"/></g><g class="mark-text role-legend-label" pointer-events="none"><text text-anchor="start" transform="translate(16,9)" font-family="sans-serif" font-size="10px" fill="#000" opacity="1">Train</text></g></g><path class="foreground" aria-hidden="true" d="" pointer-events="none" display="none"/></g></g></g><path class="foreground" aria-hidden="true" d="" pointer-events="none" display="none"/></g></g><g class="mark-text role-legend-title" pointer-events="none"><text text-anchor="start" transform="translate(0,9)" font-family="sans-serif" font-size="11px" font-weight="bold" fill="#000" opacity="1">Typ</text></g></g><path class="foreground" aria-hidden="true" d="" pointer-events="none" display="none"/></g></g></g><path class="foreground" aria-hidden="true" d="" display="none"/></g></g></g></svg>