<svg xmlns="http://www.w3.org/2000/svg" xmlns:xlink="http://www.w3.org/1999/xlink" version="1.1" class="marks" width="509" height="347" viewBox="0 0 509 347"><rect width="509" height="347" fill="white"/><g fill="none" stroke-miterlimit="10" transform="translate(47,10)"><g class="mark-group role-frame root" role="graphics-object" aria-roledescription="group mark container"><g transform="translate(0,0)"><path class="background" aria-hidden="true" d="M0.5,0.5h400v300h-400Z" stroke="#ddd"/><g><g class="mark-group role-axis" aria-hidden="true"><g transform="translate(0.5,300.5)"><path class="background" aria-hidden="true" d="M0,0h0v0h0Z" pointer-events="none"/><g><g class="mark-rule role-axis-grid" pointer-events="none"><line transform="translate(0,-300)" x2="0" y2="300" stroke="#ddd" stroke-width="1" opacity="1"/><line transform="translate(31,-300)" x2="0" y2="300" stroke="#ddd" stroke-width="1" opacity="1"/><line transform="translate(62,-300)" x2="0" y2="300" stroke="#ddd" stroke-width="1" opacity="1"/><line transform="translate(92,-300)" x2="0" y2="300" stroke="#ddd" stroke-width="1" opacity="1"/><line transform="translate(123,-300)" x2="0" y2="300" stroke="#ddd" stroke-width="1" opacity="1"/><line transform="translate(154,-300)" x2="0" y2="300" stroke="#ddd" stroke-width="1" opacity="1"/><line transform="translate(185,-300)" x2="0" y2="300" stroke="#ddd" stroke-width="1" opacity="1"/><line transform="translate(215,-300)" x2="0" y2="300" stroke="#ddd" stroke-width="1" opacity="1"/><line transform="translate(246,-300)" x2="0" y2="300" stroke="#ddd" stroke-width="1" opacity="1"/><line transform="translate(277,-300)" x2="0" y2="300" stroke="#ddd" stroke-width="1" opacity="1"/><line transform="translate(308,-300)" x2="0" y2="300" stroke="#ddd" stroke-width="1" opacity="1"/><line transform="translate(338,-300)" x2="0" y2="300" stroke="#ddd" stroke-width="1" opacity="1"/><line transform="translate(369,-300)" x2="0" y2="300" stroke="#ddd" stroke-width="1" opacity="1"/><line transform="translate(400,-300)" x2="0" y2="300" stroke="#ddd" stroke-width="1" opacity="1"/></g></g><path class="foreground" aria-hidden="true" d="" pointer-events="none" display="none"/></g></g><g class="mark-group role-axis" aria-hidden="true"><g transform="translate(0.5,0.5)"><path class="background" aria-hidden="true" d="M0,0h0v0h0Z" pointer-events="none"/><g><g class="mark-rule role-axis-grid" pointer-events="none"><line transform="translate(0,300)" x2="400" y2="0" stroke="#ddd" stroke-width="1" opacity="1"/><line transform="translate(0,263)" x2="400" y2="0" stroke="#ddd" stroke-width="1" opacity="1"/><line transform="translate(0,225)" x2="400" y2="0" stroke="#ddd" stroke-width="1" opacity="1"/><line transform="translate(0,188)" x2="400" y2="0" stroke="#ddd" stroke-width="1" opacity="1"/><line transform="translate(0,150)" x2="400" y2="0" stroke="#ddd" stroke-width="1" opacity="1"/><line transform="translate(0,113)" x2="400" y2="0" stroke="#ddd" stroke-width="1" opacity="1"/><line transform="translate(0,75)" x2="400" y2="0" stroke="#ddd" stroke-width="1" opacity="1"/><line transform="translate(0,37)" x2="400" y2="0" stroke="#ddd" stroke-width="1" opacity="1"/><line transform="translate(0,0)" x2="400" y2="0" stroke="#ddd" stroke-width="1" opacity="1"/></g></g><path class="foreground" aria-hidden="true" d="" pointer-events="none" display="none"/></g></g><g class="mark-group role-axis" role="graphics-symbol" aria-roledescription="axis" aria-label="X-axis titled 'Anzahl Epochen' for a linear scale with values from 0 to 260"><g transform="translate(0.5,300.5)"><path class="background" aria-hidden="true" d="M0,0h0v0h0Z" pointer-events="none"/><g><g class="mark-rule role-axis-tick" pointer-events="none"><line transform="translate(0,0)" x2="0" y2="5" stroke="#888" stroke-width="1" opacity="1"/><line transform="translate(31,0)" x2="0" y2="5" stroke="#888" stroke-width="1" opacity="1"/><line transform="translate(62,0)" x2="0" y2="5" stroke="#888" stroke-width="1" opacity="1"/><line transform="translate(92,0)" x2="0" y2="5" stroke="#888" stroke-width="1" opacity="1"/><line transform="translate(123,0)" x2="0" y2="5" stroke="#888" stroke-width="1" opacity="1"/><line transform="translate(154,0)" x2="0" y2="5" stroke="#888" stroke-width="1" opacity="1"/><line transform="translate(185,0)" x2="0" y2="5" stroke="#888" stroke-width="1" opacity="1"/><line transform="translate(215,0)" x2="0" y2="5" stroke="#888" stroke-width="1" opacity="1"/><line transform="translate(246,0)" x2="0" y2="5" stroke="#888" stroke-width="1" opacity="1"/><line transform="translate(277,0)" x2="0" y2="5" stroke="#888" stroke-width="1" opacity="1"/><line transform="translate(308,0)" x2="0" y2="5" stroke="#888" stroke-width="1" opacity="1"/><line transform="translate(338,0)" x2="0" y2="5" stroke="#888" stroke-width="1" opacity="1"/><line transform="translate(369,0)" x2="0" y2="5" stroke="#888" stroke-width="1" opacity="1"/><line transform="translate(400,0)" x2="0" y2="5" stroke="#888" stroke-width="1" opacity="1"/></g><g class="mark-text role-axis-label" pointer-events="none"><text text-anchor="start" transform="translate(0,15)" font-family="sans-serif" font-size="10px" fill="#000" opacity="1">0</text><text text-anchor="middle" transform="translate(30.76923076923077,15)" font-family="sans-serif" font-size="10px" fill="#000" opacity="1">20</text><text text-anchor="middle" transform="translate(61.53846153846154,15)" font-family="sans-serif" font-size="10px" fill="#000" opacity="1">40</text><text text-anchor="middle" transform="translate(92.3076923076923,15)" font-family="sans-serif" font-size="10px" fill="#000" opacity="1">60</text><text text-anchor="middle" transform="translate(123.07692307692308,15)" font-family="sans-serif" font-size="10px" fill="#000" opacity="1">80</text><text text-anchor="middle" transform="translate(153.84615384615387,15)" font-family="sans-serif" font-size="10px" fill="#000" opacity="1">100</text><text text-anchor="middle" transform="translate(184.6153846153846,15)" font-family="sans-serif" font-size="10px" fill="#000" opacity="1">120</text><text text-anchor="middle" transform="translate(215.3846153846154,15)" font-family="sans-serif" font-size="10px" fill="#000" opacity="1">140</text><text text-anchor="middle" transform="translate(246.15384615384616,15)" font-family="sans-serif" font-size="10px" fill="#000" opacity="1">160</text><text text-anchor="middle" transform="translate(276.9230769230769,15)" font-family="sans-serif" font-size="10px" fill="#000" opacity="1">180</text><text text-anchor="middle" transform="translate(307.69230769230774,15)" font-family="sans-serif" font-size="10px" fill="#000" opacity="1">200</text><text text-anchor="middle" transform="translate(338.46153846153845,15)" font-family="sans-serif" font-size="10px" fill="#000" opacity="1">220</text><text text-anchor="middle" transform="translate(369.2307692307692,15)" font-family="sans-serif" font-size="10px" fill="#000" opacity="1">240</text><text text-anchor="end" transform="translate(400,15)" font-family="sans-serif" font-size="10px" fill="#000" opacity="1">260</text></g><g class="mark-rule role-axis-domain" pointer-events="none"><line transform="translate(0,0)" x2="400" y2="0" stroke="#888" stroke-width="1" opacity="1"/></g><g class="mark-text role-axis-title" pointer-events="none"><text text-anchor="middle" transform="translate(200,30)" font-family="sans-serif" font-size="11px" font-weight="bold" fill="#000" opacity="1">Anzahl Epochen</text></g></g><path class="foreground" aria-hidden="true" d="" pointer-events="none" display="none"/></g></g><g class="mark-group role-axis" role="graphics-symbol" aria-roledescription="axis" aria-label="Y-axis titled 'Mittlerer Fehler' for a linear scale with values from 0.00 to 0.08"><g transform="translate(0.5,0.5)"><path class="background" aria-hidden="true" d="M0,0h0v0h0Z" pointer-events="none"/><g><g class="mark-rule role-axis-tick" pointer-events="none"><line transform="translate(0,300)" x2="-5" y2="0" stroke="#888" stroke-width="1" opacity="1"/><line transform="translate(0,263)" x2="-5" y2="0" stroke="#888" stroke-width="1" opacity="1"/><line transform="translate(0,225)" x2="-5" y2="0" stroke="#888" stroke-width="1" opacity="1"/><line transform="translate(0,188)" x2="-5" y2="0" stroke="#888" stroke-width="1" opacity="1"/><line transform="translate(0,150)" x2="-5" y2="0" stroke="#888" stroke-width="1" opacity="1"/><line transform="translate(0,113)" x2="-5" y2="0" stroke="#888" stroke-width="1" opacity="1"/><line transform="translate(0,75)" x2="-5" y2="0" stroke="#888" stroke-width="1" opacity="1"/><line transform="translate(0,37)" x2="-5" y2="0" stroke="#888" stroke-width="1" opacity="1"/><line transform="translate(0,0)" x2="-5" y2="0" stroke="#888" stroke-width="1" opacity="1"/></g><g class="mark-text role-axis-label" pointer-events="none"><text text-anchor="end" transform="translate(-7,303)" font-family="sans-serif" font-size="10px" fill="#000" opacity="1">0.00</text><text text-anchor="end" transform="translate(-7,265.5)" font-family="sans-serif" font-size="10px" fill="#000" opacity="1">0.01</text><text text-anchor="end" transform="translate(-7,228)" font-family="sans-serif" font-size="10px" fill="#000" opacity="1">0.02</text><text text-anchor="end" transform="translate(-7,190.5)" font-family="sans-serif" font-size="10px" fill="#000" opacity="1">0.03</text><text text-anchor="end" transform="translate(-7,153)" font-family="sans-serif" font-size="10px" fill="#000" opacity="1">0.04</text><text text-anchor="end" transform="translate(-7,115.5)" font-family="sans-serif" font-size="10px" fill="#000" opacity="1">0.05</text><text text-anchor="end" transform="translate(-7,78)" font-family="sans-serif" font-size="10px" fill="#000" opacity="1">0.06</text><text text-anchor="end" transform="translate(-7,40.499999999999964)" font-family="sans-serif" font-size="10px" fill="#000" opacity="1">0.07</text><text text-anchor="end" transform="translate(-7,3)" font-family="sans-serif" font-size="10px" fill="#000" opacity="1">0.08</text></g><g class="mark-rule role-axis-domain" pointer-events="none"><line transform="translate(0,300)" x2="0" y2="-300" stroke="#888" stroke-width="1" opacity="1"/></g><g class="mark-text role-axis-title" pointer-events="none"><text text-anchor="middle" transform="translate(-30.462890625,150) rotate(-90) translate(0,-2)" font-family="sans-serif" font-size="11px" font-weight="bold" fill="#000" opacity="1">Mittlerer Fehler</text></g></g><path class="foreground" aria-hidden="true" d="" pointer-events="none" display="none"/></g></g><g class="mark-group role-scope pathgroup" role="graphics-object" aria-roledescription="group mark container"><g transform="translate(0,0)"><path class="background" aria-hidden="true" d="M0,0h400v300h-400Z"/><g><g class="mark-line role-mark marks" role="graphics-object" aria-roledescription="line mark container"><path aria-label="Typ: Train; Anzahl Epochen: 0; Mittlerer Fehler: 0.0613400512402" role="graphics-symbol" aria-roledescription="line mark" d="M0,69.97480784941997L1.5384615384615385,74.59247266607628L3.076923076923077,61.08162973874383L4.615384615384616,57.037119460957385L6.153846153846154,58.45414181905132L7.6923076923076925,56.48890040548786L9.230769230769232,57.00054654319375L10.76923076923077,55.50054659667827L12.307692307692308,53.62098761168972L13.846153846153847,56.35188650339842L15.384615384615385,57.668899385524654L16.923076923076923,55.452982948294725L18.461538461538463,51.71171248491321L20,51.43321042082142L21.53846153846154,55.52474612902321L23.076923076923077,51.62257062537331L24.615384615384617,53.044757513063324L26.153846153846157,29.40082169537034L27.692307692307693,42.5628924343203L29.230769230769234,41.870235146156396L30.76923076923077,44.23541012885317L32.30769230769231,47.95705863673773L33.84615384615385,48.932237111564206L35.38461538461539,44.25369485148363L36.92307692307693,41.34800645655818L38.46153846153847,36.07510120740961L40,40.94606254781995L41.53846153846154,42.90700288755554L43.07692307692308,45.623864087143126L44.61538461538462,48.282034641930046L46.15384615384615,51.725853234529495L47.69230769230769,49.11747002708059L49.23076923076923,50.870275058384465L50.76923076923077,45.62434177579623L52.307692307692314,47.22828572349891L53.84615384615385,48.3502531956349L55.38461538461539,51.749479903706494L56.92307692307692,53.672195292477085L58.46153846153847,55.465747948203756L60,54.1115695876735L61.53846153846154,45.825138049466275L63.07692307692307,39.52628030840837L64.61538461538461,53.190624900162256L66.15384615384615,54.36510858791217L67.6923076923077,53.100447596183834L69.23076923076923,53.1150125100144L70.76923076923077,52.565314088548945L72.3076923076923,54.22783614402369L73.84615384615385,52.38240164305482L75.38461538461539,52.581710328481016L76.92307692307693,53.028086626103935L78.46153846153847,51.412581559270656L80,52.26684856627669L81.53846153846153,51.217367154146956L83.07692307692308,46.08492986964327L84.61538461538461,48.1617393238204L86.15384615384616,52.307689229824724L87.6923076923077,50.04950437162604L89.23076923076924,47.3188293565597L90.76923076923077,49.13761437471427L92.3076923076923,49.99382546437639L93.84615384615384,44.429194261985195L95.38461538461539,46.05077193783864L96.92307692307692,45.613690891436185L98.46153846153847,44.458702552531435L100,45.935116482100334L101.53846153846153,48.16079536186799L103.07692307692307,48.59914478978943L104.61538461538463,52.13939266811527L106.15384615384616,52.95850860753231L107.6923076923077,53.162585039223956L109.23076923076923,52.79636136921388L110.76923076923077,37.407715325908995L112.3076923076923,50.90076770367369L113.84615384615384,53.69259113711971L115.38461538461537,55.5103991845889L116.92307692307693,54.576758607955945L118.46153846153847,52.84253559740528L120,51.8607562540897L121.53846153846153,58.12578643006939L123.07692307692308,57.75658929986614L124.61538461538461,57.18346888731636L126.15384615384615,57.616467348166886L127.69230769230768,58.158354833722115L129.23076923076923,57.40969070632546L130.76923076923077,57.40216443581239L132.3076923076923,56.028785729514695L133.84615384615384,54.941535741090775L135.3846153846154,55.24242211665429L136.92307692307693,55.104463374508285L138.46153846153845,54.51437332002181L140,52.40260606099453L141.53846153846155,47.63904935015098L143.07692307692307,49.068270211241064L144.6153846153846,50.140130546476136L146.15384615384613,52.714107478303575L147.6923076923077,54.807578679174185L149.23076923076923,54.887755135340385L150.76923076923077,55.03316367311135L152.3076923076923,54.93367279746704L153.84615384615387,54.99489789030384L155.3846153846154,55.359234753996134L156.92307692307693,52.34700534492735L158.46153846153845,52.23165223641053L160,52.354168080325614L161.53846153846155,56.26494225912862L163.07692307692307,59.55238199925847L164.6153846153846,56.17575322144799L166.15384615384616,51.312788336404715L167.6923076923077,52.8903995773622L169.23076923076923,52.9821426008961L170.76923076923077,52.95918291168555L172.30769230769232,53.0280606422041L173.84615384615384,53.05101987240571L175.3846153846154,53.058672629828976L176.9230769230769,53.096938532378005L178.46153846153848,53.06632658466697L180,53.05101975266423L181.53846153846155,52.98214178266269L183.07692307692307,52.96683698626503L184.6153846153846,53.04336719481007L186.15384615384616,52.920919723276604L187.69230769230768,52.93622372139778L189.23076923076923,52.95153035383139L190.76923076923077,52.951529954693164L192.30769230769232,52.905612053083516L193.84615384615384,52.82908116600342L195.3846153846154,52.99744853483781L196.92307692307693,52.94387687795926L198.46153846153845,52.905612771532354L200,52.95153011434842L201.53846153846155,52.951530872711125L203.07692307692307,52.79846861958507L204.61538461538458,52.9668360283332L206.15384615384613,52.9285701058273L207.6923076923077,52.92857104380213L209.23076923076925,52.93622352182865L210.76923076923077,52.93622400079452L212.30769230769232,52.928571083716L213.84615384615384,52.92857144294042L215.3846153846154,52.905611135065556L216.9230769230769,52.88265350141697L218.46153846153845,52.91326624740448L220.00000000000003,52.90597774354476L221.53846153846155,53.49860591813922L223.0769230769231,54.88585707332406L224.6153846153846,45.88734905368514L226.15384615384616,45.23025210946795L227.69230769230768,45.53419991529416L229.23076923076923,41.8975858150848L230.76923076923075,44.043020025960054L232.30769230769232,39.67069479237713L233.84615384615387,33.67442762745279L235.3846153846154,33.2005377326693L236.92307692307693,33.65816242460694L238.46153846153845,33.573978979672745L240,33.68112181446384L241.53846153846152,33.589286210813704L243.07692307692307,33.66581657901406L244.61538461538464,33.66581641935874L246.15384615384616,33.63520383302655L247.6923076923077,33.581632176148034L249.23076923076923,33.55867410344735L250.76923076923077,33.60459056815933L252.3076923076923,33.6428562711392L253.84615384615384,33.6581623447793L255.38461538461536,33.60459160591874L256.92307692307696,33.551020228437004L258.46153846153845,33.596938050219L260,33.505102007516776L261.53846153846155,33.58163277485542L263.0769230769231,33.627550836120356L264.6153846153846,33.72704039460845L266.15384615384613,33.59693928754754L267.6923076923077,33.58163197657894L269.2307692307692,33.650509587356005L270.7692307692308,33.58163169718217L272.3076923076923,33.688774651714745L273.84615384615387,33.58928457434691L275.38461538461536,33.51275476494007L276.9230769230769,33.5663253441453L278.46153846153845,33.71173392183013L280,33.543367191616966L281.53846153846155,33.619897120765295L283.0769230769231,33.596938728754L284.61538461538464,33.604591126952876L286.15384615384613,33.52806019995891L287.6923076923077,33.535713955227806L289.2307692307692,33.70408160345897L290.7692307692308,33.566325663455906L292.30769230769226,33.551020148609354L293.84615384615387,33.54336635342665L295.3846153846154,33.58928581167548L296.9230769230769,33.52806087849397L298.46153846153845,33.64285591191478L300,33.63520331414684L301.53846153846155,33.61989843792148L303.0769230769231,33.63520375319887L304.6153846153846,33.6811217346362L306.15384615384613,33.61224440325584L307.69230769230774,33.6428560316563L309.2307692307692,33.681121495153235L310.7692307692308,33.60459136643578L312.3076923076923,33.5510192705052L313.84615384615387,33.62755031724062L315.38461538461536,33.566326102508L316.9230769230769,33.58928489365746L318.46153846153845,33.63520255578417L320,33.627550357154455L321.53846153846155,33.573978979672745L323.0769230769231,32.52961523830887L324.61538461538464,32.857151755264844L326.15384615384613,42.712204863450374L327.6923076923077,41.94503305479888L329.2307692307692,41.357216611504555L330.7692307692308,44.40270273813181L332.3076923076923,45.780632139316616L333.84615384615387,45.818880360041334L335.3846153846154,45.8188762489174L336.9230769230769,45.85815272959214L338.46153846153845,45.178476894008256L340,42.7890178614429L341.53846153846155,43.26151105176125L343.07692307692304,44.753954053989496L344.61538461538464,45.09353460744027L346.1538461538462,46.67669706312672L347.6923076923077,44.59443917231899L349.2307692307692,45.11737341859512L350.7692307692308,43.82212750081506L352.3076923076923,44.762061829013454L353.8461538461538,42.68692121175784L355.38461538461536,43.208365435046815L356.92307692307696,35.47127912087101L358.46153846153845,38.31891030339256L360,37.20422454976611L361.53846153846155,38.46909724442023L363.0769230769231,43.49549646888461L364.6153846153846,40.98156960681081L366.15384615384613,45.54624199601158L367.6923076923077,33.874126191117945L369.2307692307692,31.89953145171914L370.7692307692308,32.22918859017748L372.3076923076923,33.03061236760448L373.84615384615387,33.58163868210148L375.38461538461536,34.14137970123973L376.9230769230769,44.92126993302789L378.46153846153845,44.96938884258274L380,44.892855800156106L381.53846153846155,44.96173400964059L383.0769230769231,45.06887824141555" stroke="#f58518" stroke-width="2"/></g></g><path class="foreground" aria-hidden="true" d="" display="none"/></g><g transform="translate(0,0)"><path class="background" aria-hidden="true" d="M0,0h400v300h-400Z"/><g><g class="mark-line role-mark marks" role="graphics-object" aria-roledescription="line mark container"><path aria-label="Typ: Test; Anzahl Epochen: 0; Mittlerer Fehler: 0.0571007928501" role="graphics-symbol" aria-roledescription="line mark" d="M0,85.87202681228517L1.5384615384615385,71.92430412396791L3.076923076923077,63.4553792886436L4.615384615384616,54.73560933023693L6.153846153846154,56.10481947660448L7.6923076923076925,56.576255802065134L9.230769230769232,49.79203790426252L10.76923076923077,55.63405156135561L12.307692307692308,34.08035840839151L13.846153846153847,57.19902832061051L15.384615384615385,58.48269350826738L16.923076923076923,50.55885016918184L18.461538461538463,44.66453194618227L20,52.915930002927766L21.53846153846154,52.57923640310766L23.076923076923077,53.41855632141234L24.615384615384617,47.75957819074391L26.153846153846157,30.724563263356664L27.692307692307693,39.80317013338212L29.230769230769234,40.52176699042322L30.76923076923077,42.00349263846874L32.30769230769231,45.76544277369976L33.84615384615385,42.81426984816788L35.38461538461539,40.87034314870834L36.92307692307693,35.25285422801975L38.46153846153847,39.46344945579765L40,38.550488930195584L41.53846153846154,42.97199696302414L43.07692307692308,41.465135477483294L44.61538461538462,50.26907948777082L46.15384615384615,44.912694953382L47.69230769230769,48.73460326343779L49.23076923076923,46.51117259636525L50.76923076923077,35.40214728564026L52.307692307692314,41.21663216501473L53.84615384615385,52.63158138841392L55.38461538461539,52.112531475722804L56.92307692307692,54.116173367947376L58.46153846153847,53.729532379657066L60,54.557434841990485L61.53846153846154,25.43696593493221L63.07692307692307,45.912391506135464L64.61538461538461,54.300932586193085L66.15384615384615,51.29947047680615L67.6923076923077,48.71911127120258L69.23076923076923,50.655050203204176L70.76923076923077,48.91217071563002L72.3076923076923,56.697793398052454L73.84615384615385,50.94855977222325L75.38461538461539,55.8685878291726L76.92307692307693,46.97943050414328L78.46153846153847,50.489241071045385L80,50.70037320256237L81.53846153846153,45.69734204560518L83.07692307692308,41.63667671382429L84.61538461538461,50.13672569766641L86.15384615384616,53.95071767270565L87.6923076923077,45.86225617676972L89.23076923076924,41.982954461127555L90.76923076923077,43.7924288213253L92.3076923076923,40.71237072348597L93.84615384615384,44.33274604380133L95.38461538461539,40.32901739701631L96.92307692307692,39.626423548907056L98.46153846153847,42.09332549944518L100,44.699279312044396L101.53846153846153,43.61121384426956L103.07692307692307,48.05068010464311L104.61538461538463,50.09744204580782L106.15384615384616,50.55013969540594L107.6923076923077,51.15973083302379L109.23076923076923,38.71371187269691L110.76923076923077,43.918108474463224L112.3076923076923,52.58540119975805L113.84615384615384,52.8716535307467L115.38461538461537,55.01113124191761L116.92307692307693,53.952499292790876L118.46153846153847,47.626873664557955L120,57.127377251163125L121.53846153846153,54.444862343370936L123.07692307692308,56.00131619721651L124.61538461538461,53.1657608225942L126.15384615384615,54.14861738681795L127.69230769230768,54.136977810412645L129.23076923076923,55.834490805864355L130.76923076923077,53.18651702255012L132.3076923076923,54.18959464877844L133.84615384615384,50.8274408988655L135.3846153846154,53.811996430158594L136.92307692307693,53.969755768775975L138.46153846153845,50.66723981872201L140,48.429370764642975L141.53846153846155,46.14454824477432L143.07692307692307,46.17811888456346L144.6153846153846,50.4414115101099L146.15384615384613,52.20833281055095L147.6923076923077,52.40334002301099L149.23076923076923,52.42673689499499L150.76923076923077,52.48507037758827L152.3076923076923,52.4350441992283L153.84615384615387,52.45170444250109L155.3846153846154,54.18356163427237L156.92307692307693,48.91666639596226L158.46153846153845,52.85842483863233L160,51.366692595183885L161.53846153846155,56.91981734707954L163.07692307692307,58.63232305273415L164.6153846153846,55.096559040248394L166.15384615384616,53.998798690736315L167.6923076923077,54.156310111284256L169.23076923076923,54.19511478394268L170.76923076923077,54.10335231572388L172.30769230769232,54.17831670492886L173.84615384615384,54.061629716306946L175.3846153846154,54.21159006655215L176.9230769230769,54.17818780988453L178.46153846153848,54.194769449532046L180,54.14466531947254L181.53846153846155,54.127863980829694L183.07692307692307,54.15255436673759L184.6153846153846,54.1344737634063L186.15384615384616,54.14009820669891L187.69230769230768,54.10676039755343L189.23076923076923,54.14842618629338L190.76923076923077,54.156755842268446L192.30769230769232,54.106753319501856L193.84615384615384,53.96508211269976L195.3846153846154,54.11507766693832L196.92307692307693,54.13174014538529L198.46153846153845,54.17340174317361L200,54.15673293173311L201.53846153846155,54.11506127566098L203.07692307692307,54.05672434717419L204.61538461538458,54.173386655747905L206.15384615384613,54.15671365335585L207.6923076923077,54.14004325866701L209.23076923076925,54.15670312941073L210.76923076923077,54.14836555719377L212.30769230769232,54.191468283534086L213.84615384615384,54.10668859258293L215.3846153846154,54.16501741856335L216.9230769230769,54.14005313068628L218.46153846153845,54.10145837813619L220.00000000000003,55.532721616327784L221.53846153846155,57.762997411191485L223.0769230769231,51.496330648660646L224.6153846153846,46.84186074882746L226.15384615384616,47.46119193732737L227.69230769230768,45.150087866932154L229.23076923076923,43.850000016391256L230.76923076923075,48.52501042187215L232.30769230769232,41.91419612616302L233.84615384615387,36.508635245263555L235.3846153846154,37.44240319356322L236.92307692307693,37.375726737082026L238.46153846153845,37.34239479526881L240,37.467394024133704L241.53846153846152,37.40906082093716L243.07692307692307,37.409061286598465L244.61538461538464,37.467394024133704L246.15384615384616,37.442390993237474L247.6923076923077,37.442394159734235L249.23076923076923,37.34240699559449L250.76923076923077,37.42572553455834L252.3076923076923,37.40905970335007L253.84615384615384,37.47573215514425L255.38461538461536,37.44239499792459L256.92307692307696,37.43406087160109L258.46153846153845,37.367394380271435L260,37.51739347353576L261.53846153846155,37.52572536468508L263.0769230769231,37.41739420220254L264.6153846153846,37.49239463359119L266.15384615384613,37.40906082093716L267.6923076923077,37.359060347080245L269.2307692307692,37.38406095653772L270.7692307692308,37.375726550817454L272.3076923076923,37.4090615659952L273.84615384615387,37.43406180292368L275.38461538461536,37.42575664073231L276.9230769230769,37.38406226038935L278.46153846153845,37.41739429533484L280,37.37572869285943L281.53846153846155,37.37575663253667L283.0769230769231,37.31739558279516L284.61538461538464,37.32572812587025L286.15384615384613,37.44239490479232L287.6923076923077,37.39239647984505L289.2307692307692,37.45906222611666L290.7692307692308,37.40072799846532L292.30769230769226,37.4423937872052L293.84615384615387,37.31739558279516L295.3846153846154,37.46739383786917L296.9230769230769,37.29239515960221L298.46153846153845,37.442393973469734L300,37.40906100720169L301.53846153846155,37.50906139612198L303.0769230769231,37.33406066894531L304.6153846153846,37.392393872141824L306.15384615384613,37.31739614158867L307.69230769230774,37.434061989188216L309.2307692307692,37.32572793960571L310.7692307692308,37.38406188786031L312.3076923076923,37.400728929787874L313.84615384615387,37.30906117707495L315.38461538461536,37.459063157439246L316.9230769230769,37.40906473249197L318.46153846153845,37.434064690023675L320,37.275733891874566L321.53846153846155,37.45907638221978L323.0769230769231,33.39309664443137L324.61538461538464,40.90442340821028L326.15384615384613,46.40000015497209L327.6923076923077,45.0999990105629L329.2307692307692,45.81511225551367L330.7692307692308,48.81611512973903L332.3076923076923,48.43139331787823L333.84615384615387,48.45943450927738L335.3846153846154,48.34276996552942L336.9230769230769,48.666613548994086L338.46153846153845,49.983505345880985L340,47.41688910871743L341.53846153846155,48.42343442142008L343.07692307692304,48.63375071436167L344.61538461538464,49.466727860271945L346.1538461538462,50.166666321456454L347.6923076923077,48.198635410517475L349.2307692307692,46.95001961663364L350.7692307692308,48.450000677257776L352.3076923076923,44.40013673156498L353.8461538461538,43.716544844210134L355.38461538461536,47.1773535013199L356.92307692307696,42.016711551696076L358.46153846153845,41.51000529527668L360,39.41460959613322L361.53846153846155,48.00833268091081L363.0769230769231,45.91666562482713L364.6153846153846,43.696064595133066L366.15384615384613,44.90059912204746L367.6923076923077,32.31067340821026L369.2307692307692,36.45824007689953L370.7692307692308,36.98704084381463L372.3076923076923,37.2090397402644L373.84615384615387,37.852557282894836L375.38461538461536,45.58959072455764L376.9230769230769,45.15866739675404L378.46153846153845,45.15906805172564L380,45.17573770135639L381.53846153846155,45.225750748068094L383.0769230769231,45.253238920122385" stroke="#4c78a8" stroke-width="2"/></g></g><path class="foreground" aria-hidden="true" d="" display="none"/></g></g><g class="mark-group role-legend" role="graphics-symbol" aria-roledescription="legend" aria-label="Symbol legend titled 'Typ' for stroke color with 2 values: Test, Train"><g transform="translate(418,0)"><path class="background" aria-hidden="true" d="M0,0h39v40h-39Z" pointer-events="none"/><g><g class="mark-group role-legend-entry"><g transform="translate(0,16)"><path class="background" aria-hidden="true" d="M0,0h0v0h0Z" pointer-events="none"/><g><g class="mark-group role-scope" role="graphics-object" aria-roledescription="group mark container"><g transform="translate(0,0)"><path class="background" aria-hidden="true" d="M0,0h38.412109375v11h-38.412109375Z" pointer-events="none" opacity="1"/><g><g class="mark-symbol role-legend-symbol" pointer-events="none"><path transform="translate(6,6)" d="M-5,0L5,0" stroke="#4c78a8" stroke-width="1.5" opacity="1"/></g><g class="mark-text role-legend-label" pointer-events="none"><text text-anchor="start" transform="translate(16,9)" font-family="sans-serif" font-size="10px" fill="#000" opacity="1">Test</text></g></g><path class="foreground" aria-hidden="true" d="" pointer-events="none" display="none"/></g><g transform="translate(0,13)"><path class="background" aria-hidden="true" d="M0,0h38.412109375v11h-38.412109375Z" pointer-events="none" opacity="1"/><g><g class="mark-symbol role-legend-symbol" pointer-events="none"><path transform="translate(6,6)" d="M-5,0L5,0" stroke="#f58518" stroke-width="1.5" opacity="1"/></g><g class="mark-text role-legend-label" pointer-events="none"><text text-anchor="start" transform="translate(16,9)" font-family="sans-serif" font-size="10px" fill="#000" opacity="1">Train</text></g></g><path class="foreground" aria-hidden="true" d="" pointer-events="none" display="none"/></g></g></g><path class="foreground" aria-hidden="true" d="" pointer-events="none" display="none"/></g></g><g class="mark-text role-legend-title" pointer-events="none"><text text-anchor="start" transform="translate(0,9)" font-family="sans-serif" font-size="11px" font-weight="bold" fill="#000" opacity="1">Typ</text></g></g><path class="foreground" aria-hidden="true" d="" pointer-events="none" display="none"/></g></g></g><path class="foreground" aria-hidden="true" d="" display="none"/></g></g></g></svg>