<svg xmlns="http://www.w3.org/2000/svg" xmlns:xlink="http://www.w3.org/1999/xlink" version="1.1" class="marks" width="509" height="347" viewBox="0 0 509 347"><rect width="509" height="347" fill="white"/><g fill="none" stroke-miterlimit="10" transform="translate(47,10)"><g class="mark-group role-frame root" role="graphics-object" aria-roledescription="group mark container"><g transform="translate(0,0)"><path class="background" aria-hidden="true" d="M0.5,0.5h400v300h-400Z" stroke="#ddd"/><g><g class="mark-group role-axis" aria-hidden="true"><g transform="translate(0.5,300.5)"><path class="background" aria-hidden="true" d="M0,0h0v0h0Z" pointer-events="none"/><g><g class="mark-rule role-axis-grid" pointer-events="none"><line transform="translate(0,-300)" x2="0" y2="300" stroke="#ddd" stroke-width="1" opacity="1"/><line transform="translate(31,-300)" x2="0" y2="300" stroke="#ddd" stroke-width="1" opacity="1"/><line transform="translate(62,-300)" x2="0" y2="300" stroke="#ddd" stroke-width="1" opacity="1"/><line transform="translate(92,-300)" x2="0" y2="300" stroke="#ddd" stroke-width="1" opacity="1"/><line transform="translate(123,-300)" x2="0" y2="300" stroke="#ddd" stroke-width="1" opacity="1"/><line transform="translate(154,-300)" x2="0" y2="300" stroke="#ddd" stroke-width="1" opacity="1"/><line transform="translate(185,-300)" x2="0" y2="300" stroke="#ddd" stroke-width="1" opacity="1"/><line transform="translate(215,-300)" x2="0" y2="300" stroke="#ddd" stroke-width="1" opacity="1"/><line transform="translate(246,-300)" x2="0" y2="300" stroke="#ddd" stroke-width="1" opacity="1"/><line transform="translate(277,-300)" x2="0" y2="300" stroke="#ddd" stroke-width="1" opacity="1"/><line transform="translate(308,-300)" x2="0" y2="300" stroke="#ddd" stroke-width="1" opacity="1"/><line transform="translate(338,-300)" x2="0" y2="300" stroke="#ddd" stroke-width="1" opacity="1"/><line transform="translate(369,-300)" x2="0" y2="300" stroke="#ddd" stroke-width="1" opacity="1"/><line transform="translate(400,-300)" x2="0" y2="300" stroke="#ddd" stroke-width="1" opacity="1"/></g></g><path class="foreground" aria-hidden="true" d="" pointer-events="none" display="none"/></g></g><g class="mark-group role-axis" aria-hidden="true"><g transform="translate(0.5,0.5)"><path class="background" aria-hidden="true" d="M0,0h0v0h0Z" pointer-events="none"/><g><g class="mark-rule role-axis-grid" pointer-events="none"><line transform="translate(0,300)" x2="400" y2="0" stroke="#ddd" stroke-width="1" opacity="1"/><line transform="translate(0,267)" x2="400" y2="0" stroke="#ddd" stroke-width="1" opacity="1"/><line transform="translate(0,233)" x2="400" y2="0" stroke="#ddd" stroke-width="1" opacity="1"/><line transform="translate(0,200)" x2="400" y2="0" stroke="#ddd" stroke-width="1" opacity="1"/><line transform="translate(0,167)" x2="400" y2="0" stroke="#ddd" stroke-width="1" opacity="1"/><line transform="translate(0,133)" x2="400" y2="0" stroke="#ddd" stroke-width="1" opacity="1"/><line transform="translate(0,100)" x2="400" y2="0" stroke="#ddd" stroke-width="1" opacity="1"/><line transform="translate(0,67)" x2="400" y2="0" stroke="#ddd" stroke-width="1" opacity="1"/><line transform="translate(0,33)" x2="400" y2="0" stroke="#ddd" stroke-width="1" opacity="1"/><line transform="translate(0,0)" x2="400" y2="0" stroke="#ddd" stroke-width="1" opacity="1"/></g></g><path class="foreground" aria-hidden="true" d="" pointer-events="none" display="none"/></g></g><g class="mark-group role-axis" role="graphics-symbol" aria-roledescription="axis" aria-label="X-axis titled 'Anzahl Epochen' for a linear scale with values from 0 to 260"><g transform="translate(0.5,300.5)"><path class="background" aria-hidden="true" d="M0,0h0v0h0Z" pointer-events="none"/><g><g class="mark-rule role-axis-tick" pointer-events="none"><line transform="translate(0,0)" x2="0" y2="5" stroke="#888" stroke-width="1" opacity="1"/><line transform="translate(31,0)" x2="0" y2="5" stroke="#888" stroke-width="1" opacity="1"/><line transform="translate(62,0)" x2="0" y2="5" stroke="#888" stroke-width="1" opacity="1"/><line transform="translate(92,0)" x2="0" y2="5" stroke="#888" stroke-width="1" opacity="1"/><line transform="translate(123,0)" x2="0" y2="5" stroke="#888" stroke-width="1" opacity="1"/><line transform="translate(154,0)" x2="0" y2="5" stroke="#888" stroke-width="1" opacity="1"/><line transform="translate(185,0)" x2="0" y2="5" stroke="#888" stroke-width="1" opacity="1"/><line transform="translate(215,0)" x2="0" y2="5" stroke="#888" stroke-width="1" opacity="1"/><line transform="translate(246,0)" x2="0" y2="5" stroke="#888" stroke-width="1" opacity="1"/><line transform="translate(277,0)" x2="0" y2="5" stroke="#888" stroke-width="1" opacity="1"/><line transform="translate(308,0)" x2="0" y2="5" stroke="#888" stroke-width="1" opacity="1"/><line transform="translate(338,0)" x2="0" y2="5" stroke="#888" stroke-width="1" opacity="1"/><line transform="translate(369,0)" x2="0" y2="5" stroke="#888" stroke-width="1" opacity="1"/><line transform="translate(400,0)" x2="0" y2="5" stroke="#888" stroke-width="1" opacity="1"/></g><g class="mark-text role-axis-label" pointer-events="none"><text text-anchor="start" transform="translate(0,15)" font-family="sans-serif" font-size="10px" fill="#000" opacity="1">0</text><text text-anchor="middle" transform="translate(30.76923076923077,15)" font-family="sans-serif" font-size="10px" fill="#000" opacity="1">20</text><text text-anchor="middle" transform="translate(61.53846153846154,15)" font-family="sans-serif" font-size="10px" fill="#000" opacity="1">40</text><text text-anchor="middle" transform="translate(92.3076923076923,15)" font-family="sans-serif" font-size="10px" fill="#000" opacity="1">60</text><text text-anchor="middle" transform="translate(123.07692307692308,15)" font-family="sans-serif" font-size="10px" fill="#000" opacity="1">80</text><text text-anchor="middle" transform="translate(153.84615384615387,15)" font-family="sans-serif" font-size="10px" fill="#000" opacity="1">100</text><text text-anchor="middle" transform="translate(184.6153846153846,15)" font-family="sans-serif" font-size="10px" fill="#000" opacity="1">120</text><text text-anchor="middle" transform="translate(215.3846153846154,15)" font-family="sans-serif" font-size="10px" fill="#000" opacity="1">140</text><text text-anchor="middle" transform="translate(246.15384615384616,15)" font-family="sans-serif" font-size="10px" fill="#000" opacity="1">160</text><text text-anchor="middle" transform="translate(276.9230769230769,15)" font-family="sans-serif" font-size="10px" fill="#000" opacity="1">180</text><text text-anchor="middle" transform="translate(307.69230769230774,15)" font-family="sans-serif" font-size="10px" fill="#000" opacity="1">200</text><text text-anchor="middle" transform="translate(338.46153846153845,15)" font-family="sans-serif" font-size="10px" fill="#000" opacity="1">220</text><text text-anchor="middle" transform="translate(369.2307692307692,15)" font-family="sans-serif" font-size="10px" fill="#000" opacity="1">240</text><text text-anchor="end" transform="translate(400,15)" font-family="sans-serif" font-size="10px" fill="#000" opacity="1">260</text></g><g class="mark-rule role-axis-domain" pointer-events="none"><line transform="translate(0,0)" x2="400" y2="0" stroke="#888" stroke-width="1" opacity="1"/></g><g class="mark-text role-axis-title" pointer-events="none"><text text-anchor="middle" transform="translate(200,30)" font-family="sans-serif" font-size="11px" font-weight="bold" fill="#000" opacity="1">Anzahl Epochen</text></g></g><path class="foreground" aria-hidden="true" d="" pointer-events="none" display="none"/></g></g><g class="mark-group role-axis" role="graphics-symbol" aria-roledescription="axis" aria-label="Y-axis titled 'Mittlerer Fehler' for a linear scale with values from 0.00 to 0.09"><g transform="translate(0.5,0.5)"><path class="background" aria-hidden="true" d="M0,0h0v0h0Z" pointer-events="none"/><g><g class="mark-rule role-axis-tick" pointer-events="none"><line transform="translate(0,300)" x2="-5" y2="0" stroke="#888" stroke-width="1" opacity="1"/><line transform="translate(0,267)" x2="-5" y2="0" stroke="#888" stroke-width="1" opacity="1"/><line transform="translate(0,233)" x2="-5" y2="0" stroke="#888" stroke-width="1" opacity="1"/><line transform="translate(0,200)" x2="-5" y2="0" stroke="#888" stroke-width="1" opacity="1"/><line transform="translate(0,167)" x2="-5" y2="0" stroke="#888" stroke-width="1" opacity="1"/><line transform="translate(0,133)" x2="-5" y2="0" stroke="#888" stroke-width="1" opacity="1"/><line transform="translate(0,100)" x2="-5" y2="0" stroke="#888" stroke-width="1" opacity="1"/><line transform="translate(0,67)" x2="-5" y2="0" stroke="#888" stroke-width="1" opacity="1"/><line transform="translate(0,33)" x2="-5" y2="0" stroke="#888" stroke-width="1" opacity="1"/><line transform="translate(0,0)" x2="-5" y2="0" stroke="#888" stroke-width="1" opacity="1"/></g><g class="mark-text role-axis-label" pointer-events="none"><text text-anchor="end" transform="translate(-7,303)" font-family="sans-serif" font-size="10px" fill="#000" opacity="1">0.00</text><text text-anchor="end" transform="translate(-7,269.66666666666663)" font-family="sans-serif" font-size="10px" fill="#000" opacity="1">0.01</text><text text-anchor="end" transform="translate(-7,236.33333333333334)" font-family="sans-serif" font-size="10px" fill="#000" opacity="1">0.02</text><text text-anchor="end" transform="translate(-7,203.00000000000003)" font-family="sans-serif" font-size="10px" fill="#000" opacity="1">0.03</text><text text-anchor="end" transform="translate(-7,169.66666666666669)" font-family="sans-serif" font-size="10px" fill="#000" opacity="1">0.04</text><text text-anchor="end" transform="translate(-7,136.33333333333331)" font-family="sans-serif" font-size="10px" fill="#000" opacity="1">0.05</text><text text-anchor="end" transform="translate(-7,103.00000000000001)" font-family="sans-serif" font-size="10px" fill="#000" opacity="1">0.06</text><text text-anchor="end" transform="translate(-7,69.66666666666663)" font-family="sans-serif" font-size="10px" fill="#000" opacity="1">0.07</text><text text-anchor="end" transform="translate(-7,36.333333333333314)" font-family="sans-serif" font-size="10px" fill="#000" opacity="1">0.08</text><text text-anchor="end" transform="translate(-7,3)" font-family="sans-serif" font-size="10px" fill="#000" opacity="1">0.09</text></g><g class="mark-rule role-axis-domain" pointer-events="none"><line transform="translate(0,300)" x2="0" y2="-300" stroke="#888" stroke-width="1" opacity="1"/></g><g class="mark-text role-axis-title" pointer-events="none"><text text-anchor="middle" transform="translate(-30.462890625,150) rotate(-90) translate(0,-2)" font-family="sans-serif" font-size="11px" font-weight="bold" fill="#000" opacity="1">Mittlerer Fehler</text></g></g><path class="foreground" aria-hidden="true" d="" pointer-events="none" display="none"/></g></g><g class="mark-group role-scope pathgroup" role="graphics-object" aria-roledescription="group mark container"><g transform="translate(0,0)"><path class="background" aria-hidden="true" d="M0,0h400v300h-400Z"/><g><g class="mark-line role-mark marks" role="graphics-object" aria-roledescription="line mark container"><path aria-label="Typ: Train; Anzahl Epochen: 0; Mittlerer Fehler: 0.0828634269323" role="graphics-symbol" aria-roledescription="line mark" d="M0,23.78857689244405L1.5384615384615385,83.48023350394908L3.076923076923077,95.00145145824975L4.615384615384616,100.18478239043836L6.153846153846154,103.93848444911696L7.6923076923076925,107.36507457636651L9.230769230769232,110.9144381203112L10.76923076923077,114.12748706837493L12.307692307692308,116.35398645663544L13.846153846153847,117.94566766669354L15.384615384615385,119.02585684188772L16.923076923076923,119.88695696040634L18.461538461538463,120.76475681470976L20,121.40008748642036L21.53846153846154,122.14618758963687L23.076923076923077,122.81942787979328L24.615384615384617,123.39037162739605L26.153846153846157,123.92591387920436L27.692307692307693,124.37447415487398L29.230769230769234,124.88727647633777L30.76923076923077,125.42358612907783L32.30769230769231,125.91847952100491L33.84615384615385,126.39221427075209L35.38461538461539,126.76182380389601L36.92307692307693,127.14147697247208L38.46153846153847,127.48986157987798L40,127.85783637137638L41.53846153846154,128.28544082918336L43.07692307692308,128.6391207770932L44.61538461538462,128.9090606117887L46.15384615384615,129.3480649767887L47.69230769230769,129.62386512663215L49.23076923076923,130.0300574977882L50.76923076923077,130.2418878301978L52.307692307692314,130.57472153699823L53.84615384615385,130.90506236822833L55.38461538461539,131.25515908357642L56.92307692307692,131.5384873266642L58.46153846153847,131.9007675385191L60,132.2887318474906L61.53846153846154,132.6755661783474L63.07692307692307,133.23200131777585L64.61538461538461,133.7245652806901L66.15384615384615,134.31531392769622L67.6923076923077,134.79250030858177L69.23076923076923,135.3012121415564L70.76923076923077,135.65567035582802L72.3076923076923,136.09409797049705L73.84615384615385,136.55393095243545L75.38461538461539,136.90735665815217L76.92307692307693,137.39138966692346L78.46153846153847,137.7387693417924L80,138.3192562875116L81.53846153846153,138.68400543218567L83.07692307692308,139.14890403393656L84.61538461538461,139.60590534178272L86.15384615384616,139.90642879867835L87.6923076923077,140.20018136306177L89.23076923076924,140.50764238816643L90.76923076923077,140.66386280936143L92.3076923076923,141.02258651650376L93.84615384615384,141.37428765229524L95.38461538461539,141.48775043320796L96.92307692307692,141.70446014031768L98.46153846153847,141.89750390748182L100,141.95066596009946L101.53846153846153,142.23704301527636L103.07692307692307,142.46677802875638L104.61538461538463,142.63377848657822L106.15384615384616,142.8031474928416L107.6923076923077,143.02552315805642L109.23076923076923,143.22727768282803L110.76923076923077,143.2496438229767L112.3076923076923,143.33325170335314L113.84615384615384,143.68660111601153L115.38461538461537,143.8418053711454L116.92307692307693,143.94963765960364L118.46153846153847,144.09648760975827L120,144.20502178725744L121.53846153846153,144.45658903125496L123.07692307692308,144.6164819012795L124.61538461538461,144.69900717293578L126.15384615384615,144.9351478767182L127.69230769230768,145.0352520504523L129.23076923076923,145.35176397434304L130.76923076923077,145.5161877043013L132.3076923076923,145.69400708590234L133.84615384615384,145.92273134206022L135.3846153846154,146.08067599169556L136.92307692307693,146.17848857084203L138.46153846153845,146.32259067591457L140,146.53539581867375L141.53846153846155,146.62787707001414L143.07692307692307,146.7388882811758L144.6153846153846,146.95090818706723L146.15384615384613,147.0751026157467L147.6923076923077,147.26787699258972L149.23076923076923,147.47963678535248L150.76923076923077,147.5519697641998L152.3076923076923,147.73743202358241L153.84615384615387,147.80478827832712L155.3846153846154,148.0992839849066L156.92307692307693,148.21976472934088L158.46153846153845,148.52902869073054L160,148.65328286153576L161.53846153846155,148.8287604192183L163.07692307692307,149.04619884632882L164.6153846153846,149.31716035962813L166.15384615384616,149.29747546002977L167.6923076923077,149.6237964635449L169.23076923076923,149.74928276081172L170.76923076923077,149.90496483227446L172.30769230769232,150.00720488217968L173.84615384615384,150.1279925439684L175.3846153846154,150.41357670644564L176.9230769230769,150.49033758252682L178.46153846153848,150.69304786766656L180,150.85461301108202L181.53846153846155,150.95595642037335L183.07692307692307,151.06699162029793L184.6153846153846,151.14542321701134L186.15384615384616,151.35271438020504L187.69230769230768,151.44877536665825L189.23076923076923,151.60058657416985L190.76923076923077,151.62568610782424L192.30769230769232,151.83261262164228L193.84615384615384,151.79098935896903L195.3846153846154,152.00014461630158L196.92307692307693,152.14081829679864L198.46153846153845,152.22210287545403L200,152.21177301413954L201.53846153846155,152.5124695422294L203.07692307692307,152.68272426688955L204.61538461538458,152.83096498765408L206.15384615384613,152.82740247480214L207.6923076923077,153.10151417118806L209.23076923076925,153.2745908505084L210.76923076923077,153.50681741422576L212.30769230769232,153.62771454882542L213.84615384615384,153.808096530182L215.3846153846154,153.96981392321842L216.9230769230769,153.9989687410915L218.46153846153845,154.12935760049592L220.00000000000003,154.39045503506867L221.53846153846155,154.5025138938356L223.0769230769231,154.56561505173642L224.6153846153846,154.76463499168554L226.15384615384616,154.8541147971437L227.69230769230768,154.84944120759053L229.23076923076923,155.0924115902966L230.76923076923075,155.1974269517121L232.30769230769232,155.2332703974181L233.84615384615387,155.32599002388972L235.3846153846154,155.45449513675908L236.92307692307693,155.33505152731473L238.46153846153845,155.48558233872643L240,155.6219266993659L241.53846153846152,155.71798544801175L243.07692307692307,155.83935933675437L244.61538461538464,155.8713806377325L246.15384615384616,155.91620691120622L247.6923076923077,155.9699087430393L249.23076923076923,155.9913247452988L250.76923076923077,156.16263509353823L252.3076923076923,156.23784072373556L253.84615384615384,156.26013350528888L255.38461538461536,156.26314713043118L256.92307692307696,156.39780552259512L258.46153846153845,156.29100905844965L260,156.3583609416604L261.53846153846155,156.4145314532479L263.0769230769231,156.5304872399706L264.6153846153846,156.64840685453132L266.15384615384613,156.63757691425934L267.6923076923077,156.68098024713495L269.2307692307692,156.69654132354827L270.7692307692308,156.69877700243623L272.3076923076923,156.779102910687L273.84615384615387,156.9205639573435L275.38461538461536,156.89237379424628L276.9230769230769,156.95682110797082L278.46153846153845,156.99839277211657L280,157.0643415726538L281.53846153846155,157.04399008037785L283.0769230769231,157.00777417762203L284.61538461538464,157.159127982422L286.15384615384613,157.13079137882838L287.6923076923077,157.18895953170778L289.2307692307692,157.31279064147245L290.7692307692308,157.34570429998539L292.30769230769226,157.44559206068516L293.84615384615387,157.42669392465837L295.3846153846154,157.46196499094367L296.9230769230769,157.47262447229807L298.46153846153845,157.56772364090594L300,157.55753676549787L301.53846153846155,157.64702326428267L303.0769230769231,157.66288984242624L304.6153846153846,157.77982052060818L306.15384615384613,157.78415969439914L307.69230769230774,157.8587862772457L309.2307692307692,157.75752182803225L310.7692307692308,157.86503244460272L312.3076923076923,157.88713034463785L313.84615384615387,157.93296070838724L315.38461538461536,157.95511079153843L316.9230769230769,157.9845497362493L318.46153846153845,158.09106237831568L320,158.17534302352993L321.53846153846155,158.04238752936638L323.0769230769231,158.21151465643197L324.61538461538464,158.33820179506714L326.15384615384613,158.3745489919758L327.6923076923077,158.42088932279563L329.2307692307692,158.45596688755214L330.7692307692308,158.46136701515036L332.3076923076923,158.4885399478177L333.84615384615387,158.49435487505704L335.3846153846154,158.38303050203692L336.9230769230769,158.66035590657876L338.46153846153845,158.73047758692078L340,158.73454497930302L341.53846153846155,158.72194653548786L343.07692307692304,158.80589443196575L344.61538461538464,158.81052377766792L346.1538461538462,158.80712464540488L347.6923076923077,158.80555271128068L349.2307692307692,158.89414480133425L350.7692307692308,158.95895150883698L352.3076923076923,158.92970966184896L353.8461538461538,158.9898657718939L355.38461538461536,159.030057834198L356.92307692307696,158.99990289043282L358.46153846153845,159.04727210110562L360,159.07548152395714L361.53846153846155,159.11093924306832L363.0769230769231,159.16482970410252L364.6153846153846,159.23716614918138L366.15384615384613,159.2616795940211L367.6923076923077,159.1138960328646L369.2307692307692,159.23287018728539L370.7692307692308,159.1914021986581L372.3076923076923,159.2685171908323L373.84615384615387,159.29717388963104L375.38461538461536,159.33979693467595L376.9230769230769,159.43989126189123L378.46153846153845,159.39728656088673L380,159.40613352826665L381.53846153846155,159.33587899093078L383.0769230769231,159.55380157878002" stroke="#f58518" stroke-width="2"/></g></g><path class="foreground" aria-hidden="true" d="" display="none"/></g><g transform="translate(0,0)"><path class="background" aria-hidden="true" d="M0,0h400v300h-400Z"/><g><g class="mark-line role-mark marks" role="graphics-object" aria-roledescription="line mark container"><path aria-label="Typ: Test; Anzahl Epochen: 0; Mittlerer Fehler: 0.0687792742501" role="graphics-symbol" aria-roledescription="line mark" d="M0,70.73575249976581L1.5384615384615385,98.77569621635804L3.076923076923077,103.87446280154916L4.615384615384616,107.07748482624689L6.153846153846154,109.59794384737809L7.6923076923076925,111.80947919686636L9.230769230769232,114.78064552777344L10.76923076923077,116.8920201352901L12.307692307692308,118.45270093116494L13.846153846153847,119.20814100239011L15.384615384615385,119.87080884476502L16.923076923076923,120.04685495048761L18.461538461538463,120.62425087723469L20,120.85343086057239L21.53846153846154,121.10117208212614L23.076923076923077,121.37113511562345L24.615384615384617,121.77110256420238L26.153846153846157,121.9270835423635L27.692307692307693,122.27094597700568L29.230769230769234,122.28826825610464L30.76923076923077,122.33075586458048L32.30769230769231,122.5010164702932L33.84615384615385,122.63744974301919L35.38461538461539,122.95762507451904L36.92307692307693,122.82250987158879L38.46153846153847,122.93805092987085L40,123.25660309029949L41.53846153846154,123.37285140529275L43.07692307692308,123.4993482215537L44.61538461538462,123.48791626023335L46.15384615384615,123.70012748158639L47.69230769230769,123.55582958294282L49.23076923076923,123.76818617598877L50.76923076923077,124.02244914943972L52.307692307692314,124.17865385197929L53.84615384615385,124.11672346707847L55.38461538461539,124.42293748673464L56.92307692307692,124.59503276428828L58.46153846153847,124.67069245047038L60,125.23643370303841L61.53846153846154,125.46582532425721L63.07692307692307,125.33541276223129L64.61538461538461,125.88028245502049L66.15384615384615,126.7293675078286L67.6923076923077,126.812065165076L69.23076923076923,127.48248457080787L70.76923076923077,127.79948607914977L72.3076923076923,128.05592500501209L73.84615384615385,128.3757494348619L75.38461538461539,128.4536462484135L76.92307692307693,128.8910863093204L78.46153846153847,129.0889058055149L80,129.32295186652075L81.53846153846153,129.8325161346131L83.07692307692308,129.91054765880105L84.61538461538461,130.2490380515034L86.15384615384616,130.44547374463744L87.6923076923077,130.56191953106057L89.23076923076924,130.82352266129521L90.76923076923077,130.97272622916432L92.3076923076923,131.2537040354477L93.84615384615384,131.23917031205363L95.38461538461539,131.38148027161756L96.92307692307692,131.5450175458358L98.46153846153847,131.58447667956352L100,131.7056062553699L101.53846153846153,131.68198056519032L103.07692307692307,131.9865470338199L104.61538461538463,132.0739510158698L106.15384615384616,132.0770194559979L107.6923076923077,132.16951936483383L109.23076923076923,132.18400966789986L110.76923076923077,132.3222013397349L112.3076923076923,132.3814590771993L113.84615384615384,132.3457362337245L115.38461538461537,132.50383010341062L116.92307692307693,132.5817745178938L118.46153846153847,132.52555909049178L120,132.46761086500354L121.53846153846153,132.60080989760655L123.07692307692308,132.78229201419487L124.61538461538461,132.78445268256795L126.15384615384615,132.5839942528142L127.69230769230768,132.7079086874922L129.23076923076923,132.74763354824648L130.76923076923077,132.6509504462592L132.3076923076923,133.034068863425L133.84615384615384,132.91836677946978L135.3846153846154,132.88547523423202L136.92307692307693,132.97719293170505L138.46153846153845,132.98007568551432L140,133.21202200733953L141.53846153846155,133.19428407897553L143.07692307692307,133.1897618456019L144.6153846153846,133.36058192782932L146.15384615384613,133.2063214232524L147.6923076923077,133.5661695856187L149.23076923076923,133.24508825317025L150.76923076923077,133.58942674369445L152.3076923076923,133.40834909015234L153.84615384615387,133.61512259062795L155.3846153846154,133.78340871357875L156.92307692307693,133.72814301401374L158.46153846153845,133.93571658266913L160,133.96153899116646L161.53846153846155,134.0853406323327L163.07692307692307,134.11874069521824L164.6153846153846,134.19739995151758L166.15384615384616,134.29951078239054L167.6923076923077,134.4544151280489L169.23076923076923,134.4326079616116L170.76923076923077,134.5822999939426L172.30769230769232,134.70081446899306L173.84615384615384,134.90462108618684L175.3846153846154,134.82417696052127L176.9230769230769,135.01653122819133L178.46153846153848,135.1318227334155L180,135.17687575788133L181.53846153846155,135.22714821414812L183.07692307692307,135.22194852379874L184.6153846153846,135.53710863408114L186.15384615384616,135.37840348564916L187.69230769230768,135.629559494555L189.23076923076923,135.5190368783143L190.76923076923077,135.59480706850687L192.30769230769232,135.8399827990474L193.84615384615384,135.71125637325977L195.3846153846154,135.84014880988332L196.92307692307693,135.9990346452428L198.46153846153845,135.85737242052952L200,136.18683118580114L201.53846153846155,136.0088287335303L203.07692307692307,136.0933825994531L204.61538461538458,136.09841101699402L206.15384615384613,136.21772018571696L207.6923076923077,136.1600159512212L209.23076923076925,136.39480109430022L210.76923076923077,136.48202446185877L212.30769230769232,136.61870662536887L213.84615384615384,136.41977811025245L215.3846153846154,136.67721760769683L216.9230769230769,136.74903836929136L218.46153846153845,136.74504326449497L220.00000000000003,136.83908503606088L221.53846153846155,137.00451114111476L223.0769230769231,136.95559521826604L224.6153846153846,137.1494869003072L226.15384615384616,137.12061529772149L227.69230769230768,137.04425930789307L229.23076923076923,137.15587908195124L230.76923076923075,137.17689510020944L232.30769230769232,137.38487908202742L233.84615384615387,137.34112341577807L235.3846153846154,137.4480422379242L236.92307692307693,137.32785828437449L238.46153846153845,137.4335514381528L240,137.3981441785064L241.53846153846152,137.5890891585085L243.07692307692307,137.4236864555213L244.61538461538464,137.47587257789237L246.15384615384616,137.58989022009902L247.6923076923077,137.70392924650676L249.23076923076923,137.5864317330221L250.76923076923077,137.7274758906828L252.3076923076923,137.81692650583054L253.84615384615384,137.6220519757933L255.38461538461536,137.65889691809815L256.92307692307696,137.71077181316085L258.46153846153845,137.75112306078273L260,137.80567962676287L261.53846153846155,137.83167890376515L263.0769230769231,137.89948214673333L264.6153846153846,137.88243814681968L266.15384615384613,137.85481778338888L267.6923076923077,137.737224664953L269.2307692307692,137.86250406669242L270.7692307692308,137.97312714159486L272.3076923076923,137.850420590904L273.84615384615387,137.90002721879216L275.38461538461536,137.98101608279262L276.9230769230769,138.00611593243147L278.46153846153845,137.863434644209L280,138.01502026617527L281.53846153846155,137.96274306045638L283.0769230769231,138.1164000680049L284.61538461538464,138.02561163902283L286.15384615384613,137.98941926409802L287.6923076923077,138.08904807600712L289.2307692307692,137.96262963571482L290.7692307692308,137.93639571716386L292.30769230769226,138.07026010019604L293.84615384615387,138.00139350609646L295.3846153846154,138.05075022909378L296.9230769230769,138.01795728504658L298.46153846153845,138.09816827932892L300,138.23503735992642L301.53846153846155,138.17639648914337L303.0769230769231,138.14658472935358L304.6153846153846,138.30945168665494L306.15384615384613,138.1908517123924L307.69230769230774,138.17554526031017L309.2307692307692,138.20144109841848L310.7692307692308,138.20775965642596L312.3076923076923,138.29098350058L313.84615384615387,138.29851494067245L315.38461538461536,138.37192134297865L316.9230769230769,138.4223542486628L318.46153846153845,138.34277395572926L320,138.50147502703797L321.53846153846155,138.5275023490572L323.0769230769231,138.44359670248295L324.61538461538464,138.48055936396122L326.15384615384613,138.51818716567425L327.6923076923077,138.63332660661803L329.2307692307692,138.40389251708984L330.7692307692308,138.64763451533184L332.3076923076923,138.52066487500755L333.84615384615387,138.77982029743077L335.3846153846154,138.64720320949954L336.9230769230769,138.578251335356L338.46153846153845,138.68665980278618L340,138.6918194178078L341.53846153846155,138.76071866187786L343.07692307692304,138.61904949363733L344.61538461538464,138.5680636804965L346.1538461538462,138.73206902709273L347.6923076923077,138.54128762872685L349.2307692307692,138.6103633480767L350.7692307692308,138.52495070960785L352.3076923076923,138.69476134423167L353.8461538461538,138.62218905447259L355.38461538461536,138.67276026867327L356.92307692307696,138.75233197791707L358.46153846153845,138.70794425408045L360,138.7184539809823L361.53846153846155,138.56108447329865L363.0769230769231,138.53912324023742L364.6153846153846,138.53697137286264L366.15384615384613,138.68694197800423L367.6923076923077,138.71450872263975L369.2307692307692,138.70809140304723L370.7692307692308,138.72048852758272L372.3076923076923,138.5811992196573L373.84615384615387,138.6573885050085L375.38461538461536,138.68416119366884L376.9230769230769,138.41445106599062L378.46153846153845,138.68608797589934L380,138.8015889821367L381.53846153846155,138.73296692553492L383.0769230769231,138.76052542279166" stroke="#4c78a8" stroke-width="2"/></g></g><path class="foreground" aria-hidden="true" d="" display="none"/></g></g><g class="mark-group role-legend" role="graphics-symbol" aria-roledescription="legend" aria-label="Symbol legend titled 'Typ' for stroke color with 2 values: Test, Train"><g transform="translate(418,0)"><path class="background" aria-hidden="true" d="M0,0h39v40h-39Z" pointer-events="none"/><g><g class="mark-group role-legend-entry"><g transform="translate(0,16)"><path class="background" aria-hidden="true" d="M0,0h0v0h0Z" pointer-events="none"/><g><g class="mark-group role-scope" role="graphics-object" aria-roledescription="group mark container"><g transform="translate(0,0)"><path class="background" aria-hidden="true" d="M0,0h38.412109375v11h-38.412109375Z" pointer-events="none" opacity="1"/><g><g class="mark-symbol role-legend-symbol" pointer-events="none"><path transform="translate(6,6)" d="M-5,0L5,0" stroke="#4c78a8" stroke-width="1.5" opacity="1"/></g><g class="mark-text role-legend-label" pointer-events="none"><text text-anchor="start" transform="translate(16,9)" font-family="sans-serif" font-size="10px" fill="#000" opacity="1">Test</text></g></g><path class="foreground" aria-hidden="true" d="" pointer-events="none" display="none"/></g><g transform="translate(0,13)"><path class="background" aria-hidden="true" d="M0,0h38.412109375v11h-38.412109375Z" pointer-events="none" opacity="1"/><g><g class="mark-symbol role-legend-symbol" pointer-events="none"><path transform="translate(6,6)" d="M-5,0L5,0" stroke="#f58518" stroke-width="1.5" opacity="1"/></g><g class="mark-text role-legend-label" pointer-events="none"><text text-anchor="start" transform="translate(16,9)" font-family="sans-serif" font-size="10px" fill="#000" opacity="1">Train</text></g></g><path class="foreground" aria-hidden="true" d="" pointer-events="none" display="none"/></g></g></g><path class="foreground" aria-hidden="true" d="" pointer-events="none" display="none"/></g></g><g class="mark-text role-legend-title" pointer-events="none"><text text-anchor="start" transform="translate(0,9)" font-family="sans-serif" font-size="11px" font-weight="bold" fill="#000" opacity="1">Typ</text></g></g><path class="foreground" aria-hidden="true" d="" pointer-events="none" display="none"/></g></g></g><path class="foreground" aria-hidden="true" d="" display="none"/></g></g></g></svg>