<svg xmlns="http://www.w3.org/2000/svg" xmlns:xlink="http://www.w3.org/1999/xlink" version="1.1" class="marks" width="509" height="347" viewBox="0 0 509 347"><rect width="509" height="347" fill="white"/><g fill="none" stroke-miterlimit="10" transform="translate(47,10)"><g class="mark-group role-frame root" role="graphics-object" aria-roledescription="group mark container"><g transform="translate(0,0)"><path class="background" aria-hidden="true" d="M0.5,0.5h400v300h-400Z" stroke="#ddd"/><g><g class="mark-group role-axis" aria-hidden="true"><g transform="translate(0.5,300.5)"><path class="background" aria-hidden="true" d="M0,0h0v0h0Z" pointer-events="none"/><g><g class="mark-rule role-axis-grid" pointer-events="none"><line transform="translate(0,-300)" x2="0" y2="300" stroke="#ddd" stroke-width="1" opacity="1"/><line transform="translate(31,-300)" x2="0" y2="300" stroke="#ddd" stroke-width="1" opacity="1"/><line transform="translate(62,-300)" x2="0" y2="300" stroke="#ddd" stroke-width="1" opacity="1"/><line transform="translate(92,-300)" x2="0" y2="300" stroke="#ddd" stroke-width="1" opacity="1"/><line transform="translate(123,-300)" x2="0" y2="300" stroke="#ddd" stroke-width="1" opacity="1"/><line transform="translate(154,-300)" x2="0" y2="300" stroke="#ddd" stroke-width="1" opacity="1"/><line transform="translate(185,-300)" x2="0" y2="300" stroke="#ddd" stroke-width="1" opacity="1"/><line transform="translate(215,-300)" x2="0" y2="300" stroke="#ddd" stroke-width="1" opacity="1"/><line transform="translate(246,-300)" x2="0" y2="300" stroke="#ddd" stroke-width="1" opacity="1"/><line transform="translate(277,-300)" x2="0" y2="300" stroke="#ddd" stroke-width="1" opacity="1"/><line transform="translate(308,-300)" x2="0" y2="300" stroke="#ddd" stroke-width="1" opacity="1"/><line transform="translate(338,-300)" x2="0" y2="300" stroke="#ddd" stroke-width="1" opacity="1"/><line transform="translate(369,-300)" x2="0" y2="300" stroke="#ddd" stroke-width="1" opacity="1"/><line transform="translate(400,-300)" x2="0" y2="300" stroke="#ddd" stroke-width="1" opacity="1"/></g></g><path class="foreground" aria-hidden="true" d="" pointer-events="none" display="none"/></g></g><g class="mark-group role-axis" aria-hidden="true"><g transform="translate(0.5,0.5)"><path class="background" aria-hidden="true" d="M0,0h0v0h0Z" pointer-events="none"/><g><g class="mark-rule role-axis-grid" pointer-events="none"><line transform="translate(0,300)" x2="400" y2="0" stroke="#ddd" stroke-width="1" opacity="1"/><line transform="translate(0,267)" x2="400" y2="0" stroke="#ddd" stroke-width="1" opacity="1"/><line transform="translate(0,233)" x2="400" y2="0" stroke="#ddd" stroke-width="1" opacity="1"/><line transform="translate(0,200)" x2="400" y2="0" stroke="#ddd" stroke-width="1" opacity="1"/><line transform="translate(0,167)" x2="400" y2="0" stroke="#ddd" stroke-width="1" opacity="1"/><line transform="translate(0,133)" x2="400" y2="0" stroke="#ddd" stroke-width="1" opacity="1"/><line transform="translate(0,100)" x2="400" y2="0" stroke="#ddd" stroke-width="1" opacity="1"/><line transform="translate(0,67)" x2="400" y2="0" stroke="#ddd" stroke-width="1" opacity="1"/><line transform="translate(0,33)" x2="400" y2="0" stroke="#ddd" stroke-width="1" opacity="1"/><line transform="translate(0,0)" x2="400" y2="0" stroke="#ddd" stroke-width="1" opacity="1"/></g></g><path class="foreground" aria-hidden="true" d="" pointer-events="none" display="none"/></g></g><g class="mark-group role-axis" role="graphics-symbol" aria-roledescription="axis" aria-label="X-axis titled 'Anzahl Epochen' for a linear scale with values from 0 to 260"><g transform="translate(0.5,300.5)"><path class="background" aria-hidden="true" d="M0,0h0v0h0Z" pointer-events="none"/><g><g class="mark-rule role-axis-tick" pointer-events="none"><line transform="translate(0,0)" x2="0" y2="5" stroke="#888" stroke-width="1" opacity="1"/><line transform="translate(31,0)" x2="0" y2="5" stroke="#888" stroke-width="1" opacity="1"/><line transform="translate(62,0)" x2="0" y2="5" stroke="#888" stroke-width="1" opacity="1"/><line transform="translate(92,0)" x2="0" y2="5" stroke="#888" stroke-width="1" opacity="1"/><line transform="translate(123,0)" x2="0" y2="5" stroke="#888" stroke-width="1" opacity="1"/><line transform="translate(154,0)" x2="0" y2="5" stroke="#888" stroke-width="1" opacity="1"/><line transform="translate(185,0)" x2="0" y2="5" stroke="#888" stroke-width="1" opacity="1"/><line transform="translate(215,0)" x2="0" y2="5" stroke="#888" stroke-width="1" opacity="1"/><line transform="translate(246,0)" x2="0" y2="5" stroke="#888" stroke-width="1" opacity="1"/><line transform="translate(277,0)" x2="0" y2="5" stroke="#888" stroke-width="1" opacity="1"/><line transform="translate(308,0)" x2="0" y2="5" stroke="#888" stroke-width="1" opacity="1"/><line transform="translate(338,0)" x2="0" y2="5" stroke="#888" stroke-width="1" opacity="1"/><line transform="translate(369,0)" x2="0" y2="5" stroke="#888" stroke-width="1" opacity="1"/><line transform="translate(400,0)" x2="0" y2="5" stroke="#888" stroke-width="1" opacity="1"/></g><g class="mark-text role-axis-label" pointer-events="none"><text text-anchor="start" transform="translate(0,15)" font-family="sans-serif" font-size="10px" fill="#000" opacity="1">0</text><text text-anchor="middle" transform="translate(30.76923076923077,15)" font-family="sans-serif" font-size="10px" fill="#000" opacity="1">20</text><text text-anchor="middle" transform="translate(61.53846153846154,15)" font-family="sans-serif" font-size="10px" fill="#000" opacity="1">40</text><text text-anchor="middle" transform="translate(92.3076923076923,15)" font-family="sans-serif" font-size="10px" fill="#000" opacity="1">60</text><text text-anchor="middle" transform="translate(123.07692307692308,15)" font-family="sans-serif" font-size="10px" fill="#000" opacity="1">80</text><text text-anchor="middle" transform="translate(153.84615384615387,15)" font-family="sans-serif" font-size="10px" fill="#000" opacity="1">100</text><text text-anchor="middle" transform="translate(184.6153846153846,15)" font-family="sans-serif" font-size="10px" fill="#000" opacity="1">120</text><text text-anchor="middle" transform="translate(215.3846153846154,15)" font-family="sans-serif" font-size="10px" fill="#000" opacity="1">140</text><text text-anchor="middle" transform="translate(246.15384615384616,15)" font-family="sans-serif" font-size="10px" fill="#000" opacity="1">160</text><text text-anchor="middle" transform="translate(276.9230769230769,15)" font-family="sans-serif" font-size="10px" fill="#000" opacity="1">180</text><text text-anchor="middle" transform="translate(307.69230769230774,15)" font-family="sans-serif" font-size="10px" fill="#000" opacity="1">200</text><text text-anchor="middle" transform="translate(338.46153846153845,15)" font-family="sans-serif" font-size="10px" fill="#000" opacity="1">220</text><text text-anchor="middle" transform="translate(369.2307692307692,15)" font-family="sans-serif" font-size="10px" fill="#000" opacity="1">240</text><text text-anchor="end" transform="translate(400,15)" font-family="sans-serif" font-size="10px" fill="#000" opacity="1">260</text></g><g class="mark-rule role-axis-domain" pointer-events="none"><line transform="translate(0,0)" x2="400" y2="0" stroke="#888" stroke-width="1" opacity="1"/></g><g class="mark-text role-axis-title" pointer-events="none"><text text-anchor="middle" transform="translate(200,30)" font-family="sans-serif" font-size="11px" font-weight="bold" fill="#000" opacity="1">Anzahl Epochen</text></g></g><path class="foreground" aria-hidden="true" d="" pointer-events="none" display="none"/></g></g><g class="mark-group role-axis" role="graphics-symbol" aria-roledescription="axis" aria-label="Y-axis titled 'Mittlerer Fehler' for a linear scale with values from 0.00 to 0.09"><g transform="translate(0.5,0.5)"><path class="background" aria-hidden="true" d="M0,0h0v0h0Z" pointer-events="none"/><g><g class="mark-rule role-axis-tick" pointer-events="none"><line transform="translate(0,300)" x2="-5" y2="0" stroke="#888" stroke-width="1" opacity="1"/><line transform="translate(0,267)" x2="-5" y2="0" stroke="#888" stroke-width="1" opacity="1"/><line transform="translate(0,233)" x2="-5" y2="0" stroke="#888" stroke-width="1" opacity="1"/><line transform="translate(0,200)" x2="-5" y2="0" stroke="#888" stroke-width="1" opacity="1"/><line transform="translate(0,167)" x2="-5" y2="0" stroke="#888" stroke-width="1" opacity="1"/><line transform="translate(0,133)" x2="-5" y2="0" stroke="#888" stroke-width="1" opacity="1"/><line transform="translate(0,100)" x2="-5" y2="0" stroke="#888" stroke-width="1" opacity="1"/><line transform="translate(0,67)" x2="-5" y2="0" stroke="#888" stroke-width="1" opacity="1"/><line transform="translate(0,33)" x2="-5" y2="0" stroke="#888" stroke-width="1" opacity="1"/><line transform="translate(0,0)" x2="-5" y2="0" stroke="#888" stroke-width="1" opacity="1"/></g><g class="mark-text role-axis-label" pointer-events="none"><text text-anchor="end" transform="translate(-7,303)" font-family="sans-serif" font-size="10px" fill="#000" opacity="1">0.00</text><text text-anchor="end" transform="translate(-7,269.66666666666663)" font-family="sans-serif" font-size="10px" fill="#000" opacity="1">0.01</text><text text-anchor="end" transform="translate(-7,236.33333333333334)" font-family="sans-serif" font-size="10px" fill="#000" opacity="1">0.02</text><text text-anchor="end" transform="translate(-7,203.00000000000003)" font-family="sans-serif" font-size="10px" fill="#000" opacity="1">0.03</text><text text-anchor="end" transform="translate(-7,169.66666666666669)" font-family="sans-serif" font-size="10px" fill="#000" opacity="1">0.04</text><text text-anchor="end" transform="translate(-7,136.33333333333331)" font-family="sans-serif" font-size="10px" fill="#000" opacity="1">0.05</text><text text-anchor="end" transform="translate(-7,103.00000000000001)" font-family="sans-serif" font-size="10px" fill="#000" opacity="1">0.06</text><text text-anchor="end" transform="translate(-7,69.66666666666663)" font-family="sans-serif" font-size="10px" fill="#000" opacity="1">0.07</text><text text-anchor="end" transform="translate(-7,36.333333333333314)" font-family="sans-serif" font-size="10px" fill="#000" opacity="1">0.08</text><text text-anchor="end" transform="translate(-7,3)" font-family="sans-serif" font-size="10px" fill="#000" opacity="1">0.09</text></g><g class="mark-rule role-axis-domain" pointer-events="none"><line transform="translate(0,300)" x2="0" y2="-300" stroke="#888" stroke-width="1" opacity="1"/></g><g class="mark-text role-axis-title" pointer-events="none"><text text-anchor="middle" transform="translate(-30.462890625,150) rotate(-90) translate(0,-2)" font-family="sans-serif" font-size="11px" font-weight="bold" fill="#000" opacity="1">Mittlerer Fehler</text></g></g><path class="foreground" aria-hidden="true" d="" pointer-events="none" display="none"/></g></g><g class="mark-group role-scope pathgroup" role="graphics-object" aria-roledescription="group mark container"><g transform="translate(0,0)"><path class="background" aria-hidden="true" d="M0,0h400v300h-400Z"/><g><g class="mark-line role-mark marks" role="graphics-object" aria-roledescription="line mark container"><path aria-label="Typ: Train; Anzahl Epochen: 0; Mittlerer Fehler: 0.0837960552105" role="graphics-symbol" aria-roledescription="line mark" d="M0,20.679815965039417L1.5384615384615385,83.90740270593336L3.076923076923077,94.20922464203268L4.615384615384616,98.79620550643828L6.153846153846154,102.01396145636127L7.6923076923076925,105.17664087847584L9.230769230769232,108.65240756067492L10.76923076923077,112.15147636830804L12.307692307692308,114.9126199118438L13.846153846153847,116.96069429495503L15.384615384615385,118.1893030625014L16.923076923076923,119.16922228854327L18.461538461538463,120.0444240655218L20,120.70649862511173L21.53846153846154,121.34154317457052L23.076923076923077,121.95482015432347L24.615384615384617,122.57447975709856L26.153846153846157,123.0757594729463L27.692307692307693,123.60430731925935L29.230769230769234,124.09993296577818L30.76923076923077,124.47728186490991L32.30769230769231,124.98026129213119L33.84615384615385,125.43894432130315L35.38461538461539,125.66660064316929L36.92307692307693,126.21387882779041L38.46153846153847,126.51805134401435L40,126.91928410813922L41.53846153846154,127.33300330028646L43.07692307692308,127.64399614201726L44.61538461538462,127.99374138315518L46.15384615384615,128.34008533197144L47.69230769230769,128.53071045219187L49.23076923076923,128.91187668733653L50.76923076923077,129.16599769322644L52.307692307692314,129.57959350730692L53.84615384615385,129.82879326279672L55.38461538461539,130.03500556307176L56.92307692307692,130.47356034318605L58.46153846153847,130.77272618455547L60,131.04217265333446L61.53846153846154,131.27291729851137L63.07692307692307,131.7308165310394L64.61538461538461,132.13657553174667L66.15384615384615,132.51448171656756L67.6923076923077,132.93742587390753L69.23076923076923,133.4341942199639L70.76923076923077,133.93508790149576L72.3076923076923,134.41447892359324L73.84615384615385,134.81215060843775L75.38461538461539,135.2214271513124L76.92307692307693,135.5771501770332L78.46153846153847,135.9393689735693L80,136.28629795275626L81.53846153846153,136.72353766326393L83.07692307692308,136.94138314042772L84.61538461538461,137.55766883481382L86.15384615384616,138.00798019926464L87.6923076923077,138.39896729304675L89.23076923076924,138.85906063064579L90.76923076923077,139.15591280729998L92.3076923076923,139.62890874771844L93.84615384615384,139.90873109904075L95.38461538461539,140.14511574059722L96.92307692307692,140.47456646249407L98.46153846153847,140.64711270011253L100,140.98429564453127L101.53846153846153,141.1251468107193L103.07692307692307,141.33222599879704L104.61538461538463,141.30770388721774L106.15384615384616,141.66063129281002L107.6923076923077,141.81796512344764L109.23076923076923,141.94833217632203L110.76923076923077,142.1277856498602L112.3076923076923,142.2784616372415L113.84615384615384,142.50079355246962L115.38461538461537,142.5398550040665L116.92307692307693,142.81078219230818L118.46153846153847,142.8694609175658L120,143.02948692015238L121.53846153846153,143.13174755800335L123.07692307692308,143.2801719799283L124.61538461538461,143.35054847761057L126.15384615384615,143.50748310486478L127.69230769230768,143.60659245700973L129.23076923076923,143.71531808615794L130.76923076923077,143.83980967963691L132.3076923076923,143.95784366255006L133.84615384615384,144.01899870995075L135.3846153846154,144.16349981689737L136.92307692307693,144.3342846286084L138.46153846153845,144.30519048390644L140,144.51458650153307L141.53846153846155,144.65617509558797L143.07692307692307,144.8507936086528L144.6153846153846,144.86765017333838L146.15384615384613,145.09568877193877L147.6923076923077,145.22824823701131L149.23076923076923,145.41981232219507L150.76923076923077,145.4956363975292L152.3076923076923,145.77340473077214L153.84615384615387,146.0130998931293L155.3846153846154,146.18882728917967L156.92307692307693,146.28745626001287L158.46153846153845,146.64207509763182L160,146.87269848017465L161.53846153846155,147.05446320752213L163.07692307692307,147.29577224879037L164.6153846153846,147.54513906581062L166.15384615384616,147.5579972421872L167.6923076923077,147.80497009466802L169.23076923076923,148.11937495001723L170.76923076923077,148.27036310342095L172.30769230769232,148.40102941282868L173.84615384615384,148.67672185881972L175.3846153846154,148.89968099249967L176.9230769230769,148.8573347927914L178.46153846153848,149.07540691839088L180,149.26595638458994L181.53846153846155,149.3561270286418L183.07692307692307,149.5321856562181L184.6153846153846,149.64370556353103L186.15384615384616,149.84551695621724L187.69230769230768,149.90480718025495L189.23076923076923,150.06798475716053L190.76923076923077,150.18478163775785L192.30769230769232,150.33567660443842L193.84615384615384,150.50131852206374L195.3846153846154,150.4819241574123L196.92307692307693,150.6203752986732L198.46153846153845,150.89961309429435L200,150.93351628068677L201.53846153846155,151.01948530549026L203.07692307692307,151.224710659257L204.61538461538458,151.32640906210455L206.15384615384613,151.56444593116507L207.6923076923077,151.55591997539713L209.23076923076925,151.76788933846788L210.76923076923077,151.8114213496509L212.30769230769232,152.0465746654996L213.84615384615384,152.11173417490153L215.3846153846154,152.2280438473293L216.9230769230769,152.30777657402325L218.46153846153845,152.50716002746705L220.00000000000003,152.73607435935574L221.53846153846155,152.81336797793517L223.0769230769231,152.95672312024092L224.6153846153846,153.00326384832647L226.15384615384616,153.17238942076244L227.69230769230768,153.33648920280947L229.23076923076923,153.3323848875062L230.76923076923075,153.5401434903698L232.30769230769232,153.56614247319243L233.84615384615387,153.7548242979461L235.3846153846154,153.7613500087034L236.92307692307693,153.8815056683407L238.46153846153845,153.95095103664232L240,154.0463396811988L241.53846153846152,154.13300498940296L243.07692307692307,154.18624854230853L244.61538461538464,154.2234886038516L246.15384615384616,154.24252796829455L247.6923076923077,154.38409979286092L249.23076923076923,154.46814692002678L250.76923076923077,154.52048670967562L252.3076923076923,154.50215083325193L253.84615384615384,154.64680180482986L255.38461538461536,154.67016958587226L256.92307692307696,154.72802586321316L258.46153846153845,154.84603082849867L260,154.85687990024283L261.53846153846155,154.8496022557152L263.0769230769231,154.96892077350086L264.6153846153846,154.96699727096018L266.15384615384613,155.05732481057447L267.6923076923077,155.13423346870005L269.2307692307692,155.15729632645076L270.7692307692308,155.17110528779173L272.3076923076923,155.2313378302469L273.84615384615387,155.30118206515908L275.38461538461536,155.28129610188657L276.9230769230769,155.41738360854131L278.46153846153845,155.46692395139306L280,155.4721453568726L281.53846153846155,155.42761939764856L283.0769230769231,155.44291706215256L284.61538461538464,155.6248844196532L286.15384615384613,155.57199621038134L287.6923076923077,155.69204827548845L289.2307692307692,155.63791872083954L290.7692307692308,155.7228787979901L292.30769230769226,155.76261982510223L293.84615384615387,155.73168834227891L295.3846153846154,155.7716382616837L296.9230769230769,155.89125776376542L298.46153846153845,155.98111024287175L300,155.9413380033913L301.53846153846155,155.99183275782187L303.0769230769231,156.10634395409198L304.6153846153846,156.10089640443525L306.15384615384613,156.06709211355164L307.69230769230774,156.14199667546757L309.2307692307692,156.2496161398788L310.7692307692308,156.20412580056362L312.3076923076923,156.2355908898531L313.84615384615387,156.3111946159985L315.38461538461536,156.41851773945658L316.9230769230769,156.3399676742847L318.46153846153845,156.34608477148936L320,156.34834305494135L321.53846153846155,156.3052663355068L323.0769230769231,156.49532897930058L324.61538461538464,156.48448183845696L326.15384615384613,156.53004182632208L327.6923076923077,156.58574093880208L329.2307692307692,156.51146368611427L330.7692307692308,156.68976809385984L332.3076923076923,156.6687869928068L333.84615384615387,156.58883439817666L335.3846153846154,156.71928386603082L336.9230769230769,156.66717033274747L338.46153846153845,156.83825039526536L340,156.79207399177054L341.53846153846155,156.85684754959462L343.07692307692304,156.87569228757638L344.61538461538464,156.85268229849282L346.1538461538462,156.89337731205993L347.6923076923077,156.99475401391584L349.2307692307692,156.90773455869584L350.7692307692308,156.98322810123847L352.3076923076923,157.0302700206715L353.8461538461538,157.10055999723926L355.38461538461536,157.07949285805668L356.92307692307696,157.0494819084637L358.46153846153845,157.0356382145768L360,157.20714112477646L361.53846153846155,157.23875213602912L363.0769230769231,157.27465013929063L364.6153846153846,157.21900511070132L366.15384615384613,157.3057945716192L367.6923076923077,157.326249742376L369.2307692307692,157.34257830661676L370.7692307692308,157.4406528712383L372.3076923076923,157.48526599879068L373.84615384615387,157.39373780254806L375.38461538461536,157.4902822973118L376.9230769230769,157.40212345737658L378.46153846153845,157.54734802668236L380,157.55003768087286L381.53846153846155,157.58081889223484L383.0769230769231,157.5028877319017" stroke="#f58518" stroke-width="2"/></g></g><path class="foreground" aria-hidden="true" d="" display="none"/></g><g transform="translate(0,0)"><path class="background" aria-hidden="true" d="M0,0h400v300h-400Z"/><g><g class="mark-line role-mark marks" role="graphics-object" aria-roledescription="line mark container"><path aria-label="Typ: Test; Anzahl Epochen: 0; Mittlerer Fehler: 0.0688654542963" role="graphics-symbol" aria-roledescription="line mark" d="M0,70.44848567909666L1.5384615384615385,99.46839705937437L3.076923076923077,104.32367266880142L4.615384615384616,107.36499540507792L6.153846153846154,109.6074599565731L7.6923076923076925,111.68056341509023L9.230769230769232,114.45592813607718L10.76923076923077,116.76355188505518L12.307692307692308,118.63642802668942L13.846153846153847,119.78664547204971L15.384615384615385,120.49760953005816L16.923076923076923,121.03900509989926L18.461538461538463,121.40610518140925L20,121.64126651154623L21.53846153846154,122.07584550811184L23.076923076923077,122.20597769030265L24.615384615384617,122.70351431022087L26.153846153846157,122.81816639006138L27.692307692307693,123.01652648537934L29.230769230769234,123.33861051334274L30.76923076923077,123.55290295349228L32.30769230769231,123.46999891516234L33.84615384615385,123.77925299935872L35.38461538461539,124.1170760244131L36.92307692307693,124.19855764342677L38.46153846153847,124.05265954633555L40,124.33859544495742L41.53846153846154,124.1815374129348L43.07692307692308,124.76876569497915L44.61538461538462,124.9036683183577L46.15384615384615,125.04492128888765L47.69230769230769,125.15297641770708L49.23076923076923,125.35233628004791L50.76923076923077,125.49108945661119L52.307692307692314,125.35591171019608L53.84615384615385,125.74182231393122L55.38461538461539,125.83397246069376L56.92307692307692,125.9669734372033L58.46153846153847,125.96667384107906L60,126.31031009886L61.53846153846154,126.60614479747083L63.07692307692307,126.8552214321163L64.61538461538461,127.19504994650681L66.15384615384615,127.56320248461431L67.6923076923077,127.93623151050674L69.23076923076923,128.382074377603L70.76923076923077,128.76225918945337L72.3076923076923,129.1399184407459L73.84615384615385,129.37689990633064L75.38461538461539,129.69420156118255L76.92307692307693,129.9860288699468L78.46153846153847,130.42007341153092L80,130.4372612128241L81.53846153846153,130.76749549557763L83.07692307692308,131.02008988045984L84.61538461538461,131.2759762836827L86.15384615384616,131.58320898397102L87.6923076923077,131.918086628947L89.23076923076924,132.23138666815225L90.76923076923077,132.3736279995905L92.3076923076923,132.6348321305381L93.84615384615384,132.842146882063L95.38461538461539,132.93347927845187L96.92307692307692,132.96006673740015L98.46153846153847,133.21505675299298L100,133.30237470153307L101.53846153846153,133.47320759461982L103.07692307692307,133.55550702868234L104.61538461538463,133.6982268633114L106.15384615384616,133.8667780057424L107.6923076923077,133.79855640232563L109.23076923076923,134.02813629557687L110.76923076923077,134.0870770315329L112.3076923076923,134.17373734215897L113.84615384615384,134.15363060517444L115.38461538461537,134.33162565860482L116.92307692307693,134.26232286211516L118.46153846153847,134.33988098469044L120,134.5157016068697L121.53846153846153,134.60050781981812L123.07692307692308,134.7204668343895L124.61538461538461,134.57094958672917L126.15384615384615,134.65480711957852L127.69230769230768,134.75573234674002L129.23076923076923,134.68308944462075L130.76923076923077,134.89735757725106L132.3076923076923,134.88988361010948L133.84615384615384,134.98472334403132L135.3846153846154,134.9553756829765L136.92307692307693,135.06341871495047L138.46153846153845,134.9224218684766L140,135.07501327743134L141.53846153846155,135.11976312535504L143.07692307692307,135.09328874448934L144.6153846153846,135.27786708954307L146.15384615384613,135.283253983491L147.6923076923077,135.33881064504382L149.23076923076923,135.39927722627505L150.76923076923077,135.3282293408281L152.3076923076923,135.46016676765348L153.84615384615387,135.46409242165586L155.3846153846154,135.48910439842277L156.92307692307693,135.64504107667338L158.46153846153845,135.67767511639332L160,135.73481693036027L161.53846153846155,135.93566566188304L163.07692307692307,135.9604656075438L164.6153846153846,136.25082090083097L166.15384615384616,136.1990183436622L167.6923076923077,136.30964201357628L169.23076923076923,136.45532861765886L170.76923076923077,136.4289549489816L172.30769230769232,136.6595754606856L173.84615384615384,136.72658799009187L175.3846153846154,136.67621279342305L176.9230769230769,136.9192602009409L178.46153846153848,136.88825007217622L180,137.04545458571775L181.53846153846155,137.04952363752656L183.07692307692307,137.08793070788187L184.6153846153846,136.9772032317188L186.15384615384616,137.2383332086934L187.69230769230768,137.2817972674966L189.23076923076923,137.23700950957004L190.76923076923077,137.36237273034124L192.30769230769232,137.5533816508121L193.84615384615384,137.58352228129903L195.3846153846154,137.51788780921035L196.92307692307693,137.5729299046927L198.46153846153845,137.65529421054651L200,137.8111378806352L201.53846153846155,137.94102169340474L203.07692307692307,137.99515358275838L204.61538461538458,138.12070750734873L206.15384615384613,138.17692761205964L207.6923076923077,137.96216369503074L209.23076923076925,138.36530430449378L210.76923076923077,138.32763014490612L212.30769230769232,138.4809736576345L213.84615384615384,138.6392227270537L215.3846153846154,138.74723338004614L216.9230769230769,138.78714040749603L218.46153846153845,138.99538132051623L220.00000000000003,139.01912830770016L221.53846153846155,139.12849082714982L223.0769230769231,139.18241344185338L224.6153846153846,139.3427883999215L226.15384615384616,139.254762372002L227.69230769230768,139.38500163041883L229.23076923076923,139.4855656919794L230.76923076923075,139.6143541153934L232.30769230769232,139.60582090334762L233.84615384615387,139.71944496863418L235.3846153846154,139.73284125741984L236.92307692307693,139.92882762104273L238.46153846153845,139.83107881827488L240,139.98821783396932L241.53846153846152,139.9502176222288L243.07692307692307,140.02295270102977L244.61538461538464,140.02992069969574L246.15384615384616,140.05609222998223L247.6923076923077,140.1294969746636L249.23076923076923,140.10909483250643L250.76923076923077,140.25866916927043L252.3076923076923,140.23650607301127L253.84615384615384,140.08252169522973L255.38461538461536,140.25081447843047L256.92307692307696,140.19710611965922L258.46153846153845,140.31541568951474L260,140.31293539123402L261.53846153846155,140.4990850533876L263.0769230769231,140.30600041151047L264.6153846153846,140.3930344411896L266.15384615384613,140.42608419226275L267.6923076923077,140.39867574142082L269.2307692307692,140.3804779770629L270.7692307692308,140.42022647336125L272.3076923076923,140.35283712049326L273.84615384615387,140.36670854936042L275.38461538461536,140.4300968835337L276.9230769230769,140.44854910009437L278.46153846153845,140.411674293379L280,140.4394462497698L281.53846153846155,140.41539890588157L283.0769230769231,140.4779625642631L284.61538461538464,140.46493128407747L286.15384615384613,140.3967558923695L287.6923076923077,140.47604244616298L289.2307692307692,140.4885250557628L290.7692307692308,140.55380487665792L292.30769230769226,140.46006935338178L293.84615384615387,140.56739536010556L295.3846153846154,140.4048252850771L296.9230769230769,140.54583930151742L298.46153846153845,140.46992698891293L300,140.5097373450796L301.53846153846155,140.3374381363392L303.0769230769231,140.57039755086103L304.6153846153846,140.3917448905607L306.15384615384613,140.60154106054037L307.69230769230774,140.57173519912692L309.2307692307692,140.56072154392797L310.7692307692308,140.64561256931887L312.3076923076923,140.46557564288378L313.84615384615387,140.735832725962L315.38461538461536,140.6050179981523L316.9230769230769,140.66259074542256L318.46153846153845,140.61627158274254L320,140.53606456145644L321.53846153846155,140.54479460335438L323.0769230769231,140.6720177580913L324.61538461538464,140.6316135285629L326.15384615384613,140.71010660587086L327.6923076923077,140.69732402761778L329.2307692307692,140.50860273548298L330.7692307692308,140.66420056850703L332.3076923076923,140.67245561939973L333.84615384615387,140.67630409780477L335.3846153846154,140.8229786592225L336.9230769230769,140.76609282896646L338.46153846153845,140.8290410000417L340,140.60883573773833L341.53846153846155,140.64038391742443L343.07692307692304,140.8777078613639L344.61538461538464,140.73724418930294L346.1538461538462,140.7497223285544L347.6923076923077,140.7629072976609L349.2307692307692,140.69224753313594L350.7692307692308,140.64078949805761L352.3076923076923,140.87642728247576L353.8461538461538,140.71008360220324L355.38461538461536,140.81585551094676L356.92307692307696,140.85462970866095L358.46153846153845,140.78724187695317L360,140.69661115435235L361.53846153846155,140.8608489566379L363.0769230769231,140.7975035202172L364.6153846153846,140.84496930324045L366.15384615384613,140.68402562083466L367.6923076923077,140.81135973149986L369.2307692307692,140.88770575407477L370.7692307692308,140.85996962255902L372.3076923076923,140.81050975041256L373.84615384615387,140.82694305365698L375.38461538461536,140.76763253865968L376.9230769230769,140.77972513106133L378.46153846153845,140.8938551502716L380,140.85219282036027L381.53846153846155,140.82104534738593L383.0769230769231,140.70197338652278" stroke="#4c78a8" stroke-width="2"/></g></g><path class="foreground" aria-hidden="true" d="" display="none"/></g></g><g class="mark-group role-legend" role="graphics-symbol" aria-roledescription="legend" aria-label="Symbol legend titled 'Typ' for stroke color with 2 values: Test, Train"><g transform="translate(418,0)"><path class="background" aria-hidden="true" d="M0,0h39v40h-39Z" pointer-events="none"/><g><g class="mark-group role-legend-entry"><g transform="translate(0,16)"><path class="background" aria-hidden="true" d="M0,0h0v0h0Z" pointer-events="none"/><g><g class="mark-group role-scope" role="graphics-object" aria-roledescription="group mark container"><g transform="translate(0,0)"><path class="background" aria-hidden="true" d="M0,0h38.412109375v11h-38.412109375Z" pointer-events="none" opacity="1"/><g><g class="mark-symbol role-legend-symbol" pointer-events="none"><path transform="translate(6,6)" d="M-5,0L5,0" stroke="#4c78a8" stroke-width="1.5" opacity="1"/></g><g class="mark-text role-legend-label" pointer-events="none"><text text-anchor="start" transform="translate(16,9)" font-family="sans-serif" font-size="10px" fill="#000" opacity="1">Test</text></g></g><path class="foreground" aria-hidden="true" d="" pointer-events="none" display="none"/></g><g transform="translate(0,13)"><path class="background" aria-hidden="true" d="M0,0h38.412109375v11h-38.412109375Z" pointer-events="none" opacity="1"/><g><g class="mark-symbol role-legend-symbol" pointer-events="none"><path transform="translate(6,6)" d="M-5,0L5,0" stroke="#f58518" stroke-width="1.5" opacity="1"/></g><g class="mark-text role-legend-label" pointer-events="none"><text text-anchor="start" transform="translate(16,9)" font-family="sans-serif" font-size="10px" fill="#000" opacity="1">Train</text></g></g><path class="foreground" aria-hidden="true" d="" pointer-events="none" display="none"/></g></g></g><path class="foreground" aria-hidden="true" d="" pointer-events="none" display="none"/></g></g><g class="mark-text role-legend-title" pointer-events="none"><text text-anchor="start" transform="translate(0,9)" font-family="sans-serif" font-size="11px" font-weight="bold" fill="#000" opacity="1">Typ</text></g></g><path class="foreground" aria-hidden="true" d="" pointer-events="none" display="none"/></g></g></g><path class="foreground" aria-hidden="true" d="" display="none"/></g></g></g></svg>