<svg xmlns="http://www.w3.org/2000/svg" xmlns:xlink="http://www.w3.org/1999/xlink" version="1.1" class="marks" width="509" height="347" viewBox="0 0 509 347"><rect width="509" height="347" fill="white"/><g fill="none" stroke-miterlimit="10" transform="translate(47,10)"><g class="mark-group role-frame root" role="graphics-object" aria-roledescription="group mark container"><g transform="translate(0,0)"><path class="background" aria-hidden="true" d="M0.5,0.5h400v300h-400Z" stroke="#ddd"/><g><g class="mark-group role-axis" aria-hidden="true"><g transform="translate(0.5,300.5)"><path class="background" aria-hidden="true" d="M0,0h0v0h0Z" pointer-events="none"/><g><g class="mark-rule role-axis-grid" pointer-events="none"><line transform="translate(0,-300)" x2="0" y2="300" stroke="#ddd" stroke-width="1" opacity="1"/><line transform="translate(31,-300)" x2="0" y2="300" stroke="#ddd" stroke-width="1" opacity="1"/><line transform="translate(62,-300)" x2="0" y2="300" stroke="#ddd" stroke-width="1" opacity="1"/><line transform="translate(92,-300)" x2="0" y2="300" stroke="#ddd" stroke-width="1" opacity="1"/><line transform="translate(123,-300)" x2="0" y2="300" stroke="#ddd" stroke-width="1" opacity="1"/><line transform="translate(154,-300)" x2="0" y2="300" stroke="#ddd" stroke-width="1" opacity="1"/><line transform="translate(185,-300)" x2="0" y2="300" stroke="#ddd" stroke-width="1" opacity="1"/><line transform="translate(215,-300)" x2="0" y2="300" stroke="#ddd" stroke-width="1" opacity="1"/><line transform="translate(246,-300)" x2="0" y2="300" stroke="#ddd" stroke-width="1" opacity="1"/><line transform="translate(277,-300)" x2="0" y2="300" stroke="#ddd" stroke-width="1" opacity="1"/><line transform="translate(308,-300)" x2="0" y2="300" stroke="#ddd" stroke-width="1" opacity="1"/><line transform="translate(338,-300)" x2="0" y2="300" stroke="#ddd" stroke-width="1" opacity="1"/><line transform="translate(369,-300)" x2="0" y2="300" stroke="#ddd" stroke-width="1" opacity="1"/><line transform="translate(400,-300)" x2="0" y2="300" stroke="#ddd" stroke-width="1" opacity="1"/></g></g><path class="foreground" aria-hidden="true" d="" pointer-events="none" display="none"/></g></g><g class="mark-group role-axis" aria-hidden="true"><g transform="translate(0.5,0.5)"><path class="background" aria-hidden="true" d="M0,0h0v0h0Z" pointer-events="none"/><g><g class="mark-rule role-axis-grid" pointer-events="none"><line transform="translate(0,300)" x2="400" y2="0" stroke="#ddd" stroke-width="1" opacity="1"/><line transform="translate(0,267)" x2="400" y2="0" stroke="#ddd" stroke-width="1" opacity="1"/><line transform="translate(0,233)" x2="400" y2="0" stroke="#ddd" stroke-width="1" opacity="1"/><line transform="translate(0,200)" x2="400" y2="0" stroke="#ddd" stroke-width="1" opacity="1"/><line transform="translate(0,167)" x2="400" y2="0" stroke="#ddd" stroke-width="1" opacity="1"/><line transform="translate(0,133)" x2="400" y2="0" stroke="#ddd" stroke-width="1" opacity="1"/><line transform="translate(0,100)" x2="400" y2="0" stroke="#ddd" stroke-width="1" opacity="1"/><line transform="translate(0,67)" x2="400" y2="0" stroke="#ddd" stroke-width="1" opacity="1"/><line transform="translate(0,33)" x2="400" y2="0" stroke="#ddd" stroke-width="1" opacity="1"/><line transform="translate(0,0)" x2="400" y2="0" stroke="#ddd" stroke-width="1" opacity="1"/></g></g><path class="foreground" aria-hidden="true" d="" pointer-events="none" display="none"/></g></g><g class="mark-group role-axis" role="graphics-symbol" aria-roledescription="axis" aria-label="X-axis titled 'Anzahl Epochen' for a linear scale with values from 0 to 260"><g transform="translate(0.5,300.5)"><path class="background" aria-hidden="true" d="M0,0h0v0h0Z" pointer-events="none"/><g><g class="mark-rule role-axis-tick" pointer-events="none"><line transform="translate(0,0)" x2="0" y2="5" stroke="#888" stroke-width="1" opacity="1"/><line transform="translate(31,0)" x2="0" y2="5" stroke="#888" stroke-width="1" opacity="1"/><line transform="translate(62,0)" x2="0" y2="5" stroke="#888" stroke-width="1" opacity="1"/><line transform="translate(92,0)" x2="0" y2="5" stroke="#888" stroke-width="1" opacity="1"/><line transform="translate(123,0)" x2="0" y2="5" stroke="#888" stroke-width="1" opacity="1"/><line transform="translate(154,0)" x2="0" y2="5" stroke="#888" stroke-width="1" opacity="1"/><line transform="translate(185,0)" x2="0" y2="5" stroke="#888" stroke-width="1" opacity="1"/><line transform="translate(215,0)" x2="0" y2="5" stroke="#888" stroke-width="1" opacity="1"/><line transform="translate(246,0)" x2="0" y2="5" stroke="#888" stroke-width="1" opacity="1"/><line transform="translate(277,0)" x2="0" y2="5" stroke="#888" stroke-width="1" opacity="1"/><line transform="translate(308,0)" x2="0" y2="5" stroke="#888" stroke-width="1" opacity="1"/><line transform="translate(338,0)" x2="0" y2="5" stroke="#888" stroke-width="1" opacity="1"/><line transform="translate(369,0)" x2="0" y2="5" stroke="#888" stroke-width="1" opacity="1"/><line transform="translate(400,0)" x2="0" y2="5" stroke="#888" stroke-width="1" opacity="1"/></g><g class="mark-text role-axis-label" pointer-events="none"><text text-anchor="start" transform="translate(0,15)" font-family="sans-serif" font-size="10px" fill="#000" opacity="1">0</text><text text-anchor="middle" transform="translate(30.76923076923077,15)" font-family="sans-serif" font-size="10px" fill="#000" opacity="1">20</text><text text-anchor="middle" transform="translate(61.53846153846154,15)" font-family="sans-serif" font-size="10px" fill="#000" opacity="1">40</text><text text-anchor="middle" transform="translate(92.3076923076923,15)" font-family="sans-serif" font-size="10px" fill="#000" opacity="1">60</text><text text-anchor="middle" transform="translate(123.07692307692308,15)" font-family="sans-serif" font-size="10px" fill="#000" opacity="1">80</text><text text-anchor="middle" transform="translate(153.84615384615387,15)" font-family="sans-serif" font-size="10px" fill="#000" opacity="1">100</text><text text-anchor="middle" transform="translate(184.6153846153846,15)" font-family="sans-serif" font-size="10px" fill="#000" opacity="1">120</text><text text-anchor="middle" transform="translate(215.3846153846154,15)" font-family="sans-serif" font-size="10px" fill="#000" opacity="1">140</text><text text-anchor="middle" transform="translate(246.15384615384616,15)" font-family="sans-serif" font-size="10px" fill="#000" opacity="1">160</text><text text-anchor="middle" transform="translate(276.9230769230769,15)" font-family="sans-serif" font-size="10px" fill="#000" opacity="1">180</text><text text-anchor="middle" transform="translate(307.69230769230774,15)" font-family="sans-serif" font-size="10px" fill="#000" opacity="1">200</text><text text-anchor="middle" transform="translate(338.46153846153845,15)" font-family="sans-serif" font-size="10px" fill="#000" opacity="1">220</text><text text-anchor="middle" transform="translate(369.2307692307692,15)" font-family="sans-serif" font-size="10px" fill="#000" opacity="1">240</text><text text-anchor="end" transform="translate(400,15)" font-family="sans-serif" font-size="10px" fill="#000" opacity="1">260</text></g><g class="mark-rule role-axis-domain" pointer-events="none"><line transform="translate(0,0)" x2="400" y2="0" stroke="#888" stroke-width="1" opacity="1"/></g><g class="mark-text role-axis-title" pointer-events="none"><text text-anchor="middle" transform="translate(200,30)" font-family="sans-serif" font-size="11px" font-weight="bold" fill="#000" opacity="1">Anzahl Epochen</text></g></g><path class="foreground" aria-hidden="true" d="" pointer-events="none" display="none"/></g></g><g class="mark-group role-axis" role="graphics-symbol" aria-roledescription="axis" aria-label="Y-axis titled 'Mittlerer Fehler' for a linear scale with values from 0.00 to 0.09"><g transform="translate(0.5,0.5)"><path class="background" aria-hidden="true" d="M0,0h0v0h0Z" pointer-events="none"/><g><g class="mark-rule role-axis-tick" pointer-events="none"><line transform="translate(0,300)" x2="-5" y2="0" stroke="#888" stroke-width="1" opacity="1"/><line transform="translate(0,267)" x2="-5" y2="0" stroke="#888" stroke-width="1" opacity="1"/><line transform="translate(0,233)" x2="-5" y2="0" stroke="#888" stroke-width="1" opacity="1"/><line transform="translate(0,200)" x2="-5" y2="0" stroke="#888" stroke-width="1" opacity="1"/><line transform="translate(0,167)" x2="-5" y2="0" stroke="#888" stroke-width="1" opacity="1"/><line transform="translate(0,133)" x2="-5" y2="0" stroke="#888" stroke-width="1" opacity="1"/><line transform="translate(0,100)" x2="-5" y2="0" stroke="#888" stroke-width="1" opacity="1"/><line transform="translate(0,67)" x2="-5" y2="0" stroke="#888" stroke-width="1" opacity="1"/><line transform="translate(0,33)" x2="-5" y2="0" stroke="#888" stroke-width="1" opacity="1"/><line transform="translate(0,0)" x2="-5" y2="0" stroke="#888" stroke-width="1" opacity="1"/></g><g class="mark-text role-axis-label" pointer-events="none"><text text-anchor="end" transform="translate(-7,303)" font-family="sans-serif" font-size="10px" fill="#000" opacity="1">0.00</text><text text-anchor="end" transform="translate(-7,269.66666666666663)" font-family="sans-serif" font-size="10px" fill="#000" opacity="1">0.01</text><text text-anchor="end" transform="translate(-7,236.33333333333334)" font-family="sans-serif" font-size="10px" fill="#000" opacity="1">0.02</text><text text-anchor="end" transform="translate(-7,203.00000000000003)" font-family="sans-serif" font-size="10px" fill="#000" opacity="1">0.03</text><text text-anchor="end" transform="translate(-7,169.66666666666669)" font-family="sans-serif" font-size="10px" fill="#000" opacity="1">0.04</text><text text-anchor="end" transform="translate(-7,136.33333333333331)" font-family="sans-serif" font-size="10px" fill="#000" opacity="1">0.05</text><text text-anchor="end" transform="translate(-7,103.00000000000001)" font-family="sans-serif" font-size="10px" fill="#000" opacity="1">0.06</text><text text-anchor="end" transform="translate(-7,69.66666666666663)" font-family="sans-serif" font-size="10px" fill="#000" opacity="1">0.07</text><text text-anchor="end" transform="translate(-7,36.333333333333314)" font-family="sans-serif" font-size="10px" fill="#000" opacity="1">0.08</text><text text-anchor="end" transform="translate(-7,3)" font-family="sans-serif" font-size="10px" fill="#000" opacity="1">0.09</text></g><g class="mark-rule role-axis-domain" pointer-events="none"><line transform="translate(0,300)" x2="0" y2="-300" stroke="#888" stroke-width="1" opacity="1"/></g><g class="mark-text role-axis-title" pointer-events="none"><text text-anchor="middle" transform="translate(-30.462890625,150) rotate(-90) translate(0,-2)" font-family="sans-serif" font-size="11px" font-weight="bold" fill="#000" opacity="1">Mittlerer Fehler</text></g></g><path class="foreground" aria-hidden="true" d="" pointer-events="none" display="none"/></g></g><g class="mark-group role-scope pathgroup" role="graphics-object" aria-roledescription="group mark container"><g transform="translate(0,0)"><path class="background" aria-hidden="true" d="M0,0h400v300h-400Z"/><g><g class="mark-line role-mark marks" role="graphics-object" aria-roledescription="line mark container"><path aria-label="Typ: Train; Anzahl Epochen: 0; Mittlerer Fehler: 0.0873310134241" role="graphics-symbol" aria-roledescription="line mark" d="M0,8.896621919813608L1.5384615384615385,13.658452246870267L3.076923076923077,26.839198384966156L4.615384615384616,62.21053685460771L6.153846153846154,82.22108674900872L7.6923076923076925,86.75906665268397L9.230769230769232,89.08065763257798L10.76923076923077,90.85774230105535L12.307692307692308,92.38926204187531L13.846153846153847,93.95439759606407L15.384615384615385,95.22164357560023L16.923076923076923,96.36753602396874L18.461538461538463,97.3872358245509L20,98.37729320639656L21.53846153846154,99.15912527413593L23.076923076923077,99.93306614813348L24.615384615384617,100.72791991489274L26.153846153846157,101.46869165556772L27.692307692307693,102.26350479892321L29.230769230769234,102.99581253812427L30.76923076923077,103.83036065669286L32.30769230769231,104.62348940117018L33.84615384615385,105.4609927393141L35.38461538461539,106.39015212655066L36.92307692307693,107.27126204541752L38.46153846153847,108.15411419385954L40,109.12367105484009L41.53846153846154,110.09797663206143L43.07692307692308,111.03609046410944L44.61538461538462,111.96239012337867L46.15384615384615,112.84355595707892L47.69230769230769,113.56334860126177L49.23076923076923,114.16677293323335L50.76923076923077,114.77144179599624L52.307692307692314,115.23465240995088L53.84615384615385,115.75941677604405L55.38461538461539,116.17839524433727L56.92307692307692,116.50182051318029L58.46153846153847,116.86917593081789L60,117.16882029459589L61.53846153846154,117.52408079448202L63.07692307692307,117.73212381771631L64.61538461538461,118.03158152671085L66.15384615384615,118.17045367899395L67.6923076923077,118.4963125912916L69.23076923076923,118.75396466680932L70.76923076923077,118.8541446235918L72.3076923076923,119.08646282695588L73.84615384615385,119.34968261491686L75.38461538461539,119.47300068679307L76.92307692307693,119.74204799958635L78.46153846153847,119.8956100713639L80,120.05156030257544L81.53846153846153,120.26904140199933L83.07692307692308,120.44724662389075L84.61538461538461,120.50312810710496L86.15384615384616,120.73183865064667L87.6923076923077,120.86921625194093L89.23076923076924,120.98625362628981L90.76923076923077,121.1092738878159L92.3076923076923,121.30245112237473L93.84615384615384,121.43995190660158L95.38461538461539,121.54542874722253L96.92307692307692,121.74376164163863L98.46153846153847,121.89730886547338L100,121.95619759815081L101.53846153846153,122.13730524693219L103.07692307692307,122.20576809985295L104.61538461538463,122.420033706086L106.15384615384616,122.50895925930567L107.6923076923077,122.63117670303299L109.23076923076923,122.80257166851133L110.76923076923077,122.93619854109629L112.3076923076923,123.01925119189988L113.84615384615384,123.1608415643374L115.38461538461537,123.3390107396103L116.92307692307693,123.40699753590991L118.46153846153847,123.53097019451005L120,123.609504564887L121.53846153846153,123.76983272177831L123.07692307692308,123.86601230218297L124.61538461538461,124.01650661513918L126.15384615384615,124.03872648165338L127.69230769230768,124.22055527567865L129.23076923076923,124.32952090388252L130.76923076923077,124.39079848783354L132.3076923076923,124.477649834894L133.84615384615384,124.63682957348368L135.3846153846154,124.74653550556728L136.92307692307693,124.81885375011534L138.46153846153845,124.94463423887888L140,125.08512557972044L141.53846153846155,125.06155474554926L143.07692307692307,125.26398042128197L144.6153846153846,125.36756594975789L146.15384615384613,125.45025330923852L147.6923076923077,125.56090940322196L149.23076923076923,125.6464903553327L150.76923076923077,125.71554623899004L152.3076923076923,125.82442707249096L153.84615384615387,125.94364037116367L155.3846153846154,125.9971848201184L156.92307692307693,126.04799806362107L158.46153846153845,126.22088264851344L160,126.32370839516322L161.53846153846155,126.2996056604953L163.07692307692307,126.45569241472651L164.6153846153846,126.52552739850113L166.15384615384616,126.61567085555622L167.6923076923077,126.65495120343705L169.23076923076923,126.72238545048803L170.76923076923077,126.86655893921854L172.30769230769232,126.92710512450762L173.84615384615384,126.95007416464034L175.3846153846154,127.13246058140481L176.9230769230769,127.18512969357626L178.46153846153848,127.25860880953924L180,127.35933228617623L181.53846153846155,127.42601980765662L183.07692307692307,127.50487650434175L184.6153846153846,127.64038269718488L186.15384615384616,127.71073643650327L187.69230769230768,127.7368104528813L189.23076923076923,127.85400943387121L190.76923076923077,127.99514386625516L192.30769230769232,127.95997797733261L193.84615384615384,128.0920367510546L195.3846153846154,128.1399688550404L196.92307692307693,128.28947089257696L198.46153846153845,128.29364843311765L200,128.41053988252366L201.53846153846155,128.5084261425904L203.07692307692307,128.56079850878035L204.61538461538458,128.65553562130248L206.15384615384613,128.7427050371965L207.6923076923077,128.8096135748284L209.23076923076925,128.91906478575297L210.76923076923077,128.9854062455041L212.30769230769232,129.03343804535413L213.84615384615384,129.14564605979692L215.3846153846154,129.23389258129257L216.9230769230769,129.31648205433572L218.46153846153845,129.44961505986393L220.00000000000003,129.47605468687556L221.53846153846155,129.59694571438288L223.0769230769231,129.6761390353952L224.6153846153846,129.81831411875427L226.15384615384616,129.90214409572738L227.69230769230768,129.95509675570895L229.23076923076923,130.08313051291876L230.76923076923075,130.2032737859658L232.30769230769232,130.30875804168835L233.84615384615387,130.49302924247016L235.3846153846154,130.55343376029106L236.92307692307693,130.65236083098821L238.46153846153845,130.81457944852963L240,130.95603102729433L241.53846153846152,131.13390782049723L243.07692307692307,131.28848022648268L244.61538461538464,131.34973144956996L246.15384615384616,131.51649563085465L247.6923076923077,131.65208060471784L249.23076923076923,131.80690617078824L250.76923076923077,131.9758640868323L252.3076923076923,132.14028807623046L253.84615384615384,132.18835900936807L255.38461538461536,132.33967373768488L256.92307692307696,132.5442642328285L258.46153846153845,132.67359332669346L260,132.69129182611192L261.53846153846155,132.86434369427818L263.0769230769231,133.01545775362425L264.6153846153846,133.1233827131135L266.15384615384613,133.20494808611411L267.6923076923077,133.27078120339485L269.2307692307692,133.42144414782524L270.7692307692308,133.5964797508149L272.3076923076923,133.6679412495522L273.84615384615387,133.71669206590877L275.38461538461536,133.83563778230123L276.9230769230769,133.92970260410084L278.46153846153845,134.0336176611128L280,134.08395995696387L281.53846153846155,134.20544513279484L283.0769230769231,134.29436605601083L284.61538461538464,134.42122169903345L286.15384615384613,134.51801453317913L287.6923076923077,134.5331800125894L289.2307692307692,134.6778859694799L290.7692307692308,134.75738217433295L292.30769230769226,134.84097630495114L293.84615384615387,134.8679407721474L295.3846153846154,134.95686721234094L296.9230769230769,135.02196832781746L298.46153846153845,135.16271210142546L300,135.18838119648748L301.53846153846155,135.29153274638313L303.0769230769231,135.36348287903127L304.6153846153846,135.48742674645922L306.15384615384613,135.56546274395214L307.69230769230774,135.6406617022696L309.2307692307692,135.73371065514428L310.7692307692308,135.8860195392654L312.3076923076923,135.96104952905858L313.84615384615387,136.09713064063163L315.38461538461536,136.14912804748332L316.9230769230769,136.28654462240993L318.46153846153845,136.41398286535625L320,136.44321543120202L321.53846153846155,136.55823813307853L323.0769230769231,136.6640708630993L324.61538461538464,136.7828527731555L326.15384615384613,136.8972614762329L327.6923076923077,136.98252372088888L329.2307692307692,137.09100087483722L330.7692307692308,137.24707244407563L332.3076923076923,137.35718166544322L333.84615384615387,137.50820390525317L335.3846153846154,137.6014394419534L336.9230769230769,137.6660015966211L338.46153846153845,137.73178568198566L340,137.82836791305314L341.53846153846155,138.01005411715735L343.07692307692304,138.11251244374682L344.61538461538464,138.17150113838056L346.1538461538462,138.29837792686055L347.6923076923077,138.43512510259944L349.2307692307692,138.5098886276994L350.7692307692308,138.5530031862713L352.3076923076923,138.63884607950845L353.8461538461538,138.78964827883811L355.38461538461536,138.90965588036036L356.92307692307696,138.9823927765801L358.46153846153845,139.03964459896088L360,139.10480333226067L361.53846153846155,139.19573436890332L363.0769230769231,139.23500616635596L364.6153846153846,139.34837441359247L366.15384615384613,139.43042687716937L367.6923076923077,139.48945874969166L369.2307692307692,139.54629192040082L370.7692307692308,139.6134999891122L372.3076923076923,139.75710964628627L373.84615384615387,139.71541382017588L375.38461538461536,139.87335995549248L376.9230769230769,139.95014670349303L378.46153846153845,140.0397023274785L380,140.0720136772309L381.53846153846155,140.13110991744767L383.0769230769231,140.1670091563747" stroke="#f58518" stroke-width="2"/></g></g><path class="foreground" aria-hidden="true" d="" display="none"/></g><g transform="translate(0,0)"><path class="background" aria-hidden="true" d="M0,0h400v300h-400Z"/><g><g class="mark-line role-mark marks" role="graphics-object" aria-roledescription="line mark container"><path aria-label="Typ: Test; Anzahl Epochen: 0; Mittlerer Fehler: 0.0833223193884" role="graphics-symbol" aria-roledescription="line mark" d="M0,22.258935372034692L1.5384615384615385,28.974179923534404L3.076923076923077,53.37474395831423L4.615384615384616,87.49892711639407L6.153846153846154,95.91223117378023L7.6923076923076925,98.7258149517907L9.230769230769232,100.54710970984564L10.76923076923077,102.22396834029091L12.307692307692308,103.70791968372133L13.846153846153847,104.96153102980716L15.384615384615385,106.09938833448624L16.923076923076923,107.13209874100154L18.461538461538463,108.01807873778874L20,108.8098343875673L21.53846153846154,109.5470041864448L23.076923076923077,110.14410191112093L24.615384615384617,110.79903468489647L26.153846153846157,111.4652306669288L27.692307692307693,112.12751120328902L29.230769230769234,112.70860623982217L30.76923076923077,113.39812237355444L32.30769230769231,114.02393306295076L33.84615384615385,114.7463711599509L35.38461538461539,115.44180827008351L36.92307692307693,116.11251317792467L38.46153846153847,116.81663228405844L40,117.53570205635494L41.53846153846154,118.20837921566432L43.07692307692308,118.94016530778671L44.61538461538462,119.70270714826053L46.15384615384615,120.22690549492836L47.69230769230769,120.77263337042594L49.23076923076923,121.13055023882123L50.76923076923077,121.57419928246073L52.307692307692314,121.92383176750606L53.84615384615385,122.28143223457866L55.38461538461539,122.49187396632301L56.92307692307692,122.63820303810967L58.46153846153847,122.94583660033013L60,123.18127395378215L61.53846153846154,123.34138378500938L63.07692307692307,123.49614202976224L64.61538461538461,123.70162763529355L66.15384615384615,123.76666168371835L67.6923076923077,123.9059900244077L69.23076923076923,123.9353379441632L70.76923076923077,124.19107357660928L72.3076923076923,124.23488597075144L73.84615384615385,124.43961732917359L75.38461538461539,124.54713715447319L76.92307692307693,124.66353086961638L78.46153846153847,124.78745232025784L80,124.85838929812112L81.53846153846153,124.95153596003851L83.07692307692308,124.98332998818822L84.61538461538461,125.1198964814345L86.15384615384616,125.23157447576523L87.6923076923077,125.27837852636972L89.23076923076924,125.41523923476534L90.76923076923077,125.38746380143695L92.3076923076923,125.50204926066925L93.84615384615384,125.41025810771518L95.38461538461539,125.539284116692L96.92307692307692,125.70522659354737L98.46153846153847,125.77349353167745L100,125.7723360425896L101.53846153846153,125.86777276462979L103.07692307692307,126.00334650940364L104.61538461538463,126.13051434357959L106.15384615384616,126.06226412786377L107.6923076923077,126.23446351952022L109.23076923076923,126.28608697818385L110.76923076923077,126.32121783163814L112.3076923076923,126.30029080642595L113.84615384615384,126.38240961564911L115.38461538461537,126.41543737716142L116.92307692307693,126.49502820438808L118.46153846153847,126.49793997406958L120,126.64009829362234L121.53846153846153,126.68290469381544L123.07692307692308,126.70605853199956L124.61538461538461,126.876547270351L126.15384615384615,126.66516618596184L127.69230769230768,126.87250524759293L129.23076923076923,126.96634348895812L130.76923076923077,126.9610799021191L132.3076923076923,127.0268690254953L133.84615384615384,127.08272586266202L135.3846153846154,127.08224066429666L136.92307692307693,127.22329836752678L138.46153846153845,127.20243649350273L140,127.19278095497025L141.53846153846155,127.34873634245659L143.07692307692307,127.33935440580049L144.6153846153846,127.39243739181094L146.15384615384613,127.3553049398793L147.6923076923077,127.47469304336441L149.23076923076923,127.48279737101657L150.76923076923077,127.52744240893257L152.3076923076923,127.56778167353735L153.84615384615387,127.66718976199626L155.3846153846154,127.69096038407748L156.92307692307693,127.68554985523224L158.46153846153845,127.83448737528586L160,127.70791326959925L161.53846153846155,127.69408937957549L163.07692307692307,127.89971803625421L164.6153846153846,127.93188533849185L166.15384615384616,127.74482435650295L167.6923076923077,127.93896603915425L169.23076923076923,127.89445163475143L170.76923076923077,127.920976612303L172.30769230769232,128.00581927100816L173.84615384615384,128.14370815952617L175.3846153846154,128.05608411629996L176.9230769230769,128.0924643907282L178.46153846153848,128.07414208849272L180,128.12449832757315L181.53846153846155,128.22027156750363L183.07692307692307,128.3023682733377L184.6153846153846,128.3338341448042L186.15384615384616,128.3352269894547L187.69230769230768,128.37508295973143L189.23076923076923,128.37706547644402L190.76923076923077,128.38895544409752L192.30769230769232,128.5012967056698L193.84615384615384,128.46028266681563L195.3846153846154,128.60871710711055L196.92307692307693,128.50680185688867L198.46153846153845,128.54852916465865L200,128.5950874288877L201.53846153846155,128.54598297013175L203.07692307692307,128.67220201426082L204.61538461538458,128.69621813297272L206.15384615384613,128.8186539378431L207.6923076923077,128.71662750840187L209.23076923076925,128.77316458357703L210.76923076923077,128.9853148162365L212.30769230769232,128.98668721318245L213.84615384615384,128.96927777263855L215.3846153846154,129.131833381123L216.9230769230769,128.96020495229297L218.46153846153845,129.1909120976925L220.00000000000003,129.15683165192604L221.53846153846155,129.13469738430447L223.0769230769231,129.234821928872L224.6153846153846,129.2972201274501L226.15384615384616,129.3867031733195L227.69230769230768,129.47678541143736L229.23076923076923,129.58771917555063L230.76923076923075,129.55118020375568L232.30769230769232,129.6371532811059L233.84615384615387,129.74509422977764L235.3846153846154,129.94406802786722L236.92307692307693,129.97535558210475L238.46153846153845,130.11223706934186L240,130.18954652878975L241.53846153846152,130.40580567386414L243.07692307692307,130.4740997652213L244.61538461538464,130.5542996360196L246.15384615384616,130.551873644193L247.6923076923077,130.75445948375597L249.23076923076923,130.91236990359093L250.76923076923077,130.96486263804965L252.3076923076923,131.0180337064796L253.84615384615384,131.1785286499394L255.38461538461536,131.34197120865184L256.92307692307696,131.4136117696762L258.46153846153845,131.55383980936475L260,131.5149291521973L261.53846153846155,131.69666619764433L263.0769230769231,131.8152000506719L264.6153846153846,131.84924812780486L266.15384615384613,131.97237683667078L267.6923076923077,132.10051010052362L269.2307692307692,132.10468391577402L270.7692307692308,132.15765729546547L272.3076923076923,132.13323073254693L273.84615384615387,132.3170619706313L275.38461538461536,132.3295700881216L276.9230769230769,132.43869890769324L278.46153846153845,132.47271676858264L280,132.514455417792L281.53846153846155,132.55305820041232L283.0769230769231,132.6853473153379L284.61538461538464,132.58111460341348L286.15384615384613,132.71771868069965L287.6923076923077,132.85968609982064L289.2307692307692,132.93537282281454L290.7692307692308,132.90254266725645L292.30769230769226,132.9463665684064L293.84615384615387,132.93139893147682L295.3846153846154,133.0445971753862L296.9230769230769,133.06634219156368L298.46153846153845,133.08159932494164L300,133.12713189257514L301.53846153846155,133.12447344263396L303.0769230769231,133.19546629985172L304.6153846153846,133.3404176765018L306.15384615384613,133.43938241402307L307.69230769230774,133.48905477258896L309.2307692307692,133.43543849057622L310.7692307692308,133.55100436343088L312.3076923076923,133.5220702820354L313.84615384615387,133.71380468209583L315.38461538461536,133.68187306655776L316.9230769230769,133.72169128722615L318.46153846153845,133.77458676695824L320,133.82496279146935L321.53846153846155,133.91457233164044L323.0769230769231,134.0211118261019L324.61538461538464,133.97206341226894L326.15384615384613,134.02316263980333L327.6923076923077,134.22979803548918L329.2307692307692,134.14030646284422L330.7692307692308,134.28461146023537L332.3076923076923,134.43477998177212L333.84615384615387,134.43111032247543L335.3846153846154,134.47484026352564L336.9230769230769,134.57825904091197L338.46153846153845,134.67139552036917L340,134.75136127736832L341.53846153846155,134.72154239813486L343.07692307692304,134.7654704004526L344.61538461538464,134.83795200785L346.1538461538462,135.04739627242088L347.6923076923077,135.04119457470048L349.2307692307692,135.1765679816405L350.7692307692308,135.260869976547L352.3076923076923,135.13032843669254L353.8461538461538,135.31116992235184L355.38461538461536,135.35925149917603L356.92307692307696,135.43225708934997L358.46153846153845,135.44208026594583L360,135.5006890164481L361.53846153846155,135.48316632707912L363.0769230769231,135.6471081574758L364.6153846153846,135.6867328286171L366.15384615384613,135.73803222841687L367.6923076923077,135.74838687976202L369.2307692307692,135.82338177495532L370.7692307692308,135.9045637978448L372.3076923076923,136.02455059687296L373.84615384615387,135.9363859726323L375.38461538461536,136.0003910958767L376.9230769230769,135.9697495897611L378.46153846153845,135.96843398279614L380,136.02525401446553L381.53846153846155,136.17053346501456L383.0769230769231,136.22414527667894" stroke="#4c78a8" stroke-width="2"/></g></g><path class="foreground" aria-hidden="true" d="" display="none"/></g></g><g class="mark-group role-legend" role="graphics-symbol" aria-roledescription="legend" aria-label="Symbol legend titled 'Typ' for stroke color with 2 values: Test, Train"><g transform="translate(418,0)"><path class="background" aria-hidden="true" d="M0,0h39v40h-39Z" pointer-events="none"/><g><g class="mark-group role-legend-entry"><g transform="translate(0,16)"><path class="background" aria-hidden="true" d="M0,0h0v0h0Z" pointer-events="none"/><g><g class="mark-group role-scope" role="graphics-object" aria-roledescription="group mark container"><g transform="translate(0,0)"><path class="background" aria-hidden="true" d="M0,0h38.412109375v11h-38.412109375Z" pointer-events="none" opacity="1"/><g><g class="mark-symbol role-legend-symbol" pointer-events="none"><path transform="translate(6,6)" d="M-5,0L5,0" stroke="#4c78a8" stroke-width="1.5" opacity="1"/></g><g class="mark-text role-legend-label" pointer-events="none"><text text-anchor="start" transform="translate(16,9)" font-family="sans-serif" font-size="10px" fill="#000" opacity="1">Test</text></g></g><path class="foreground" aria-hidden="true" d="" pointer-events="none" display="none"/></g><g transform="translate(0,13)"><path class="background" aria-hidden="true" d="M0,0h38.412109375v11h-38.412109375Z" pointer-events="none" opacity="1"/><g><g class="mark-symbol role-legend-symbol" pointer-events="none"><path transform="translate(6,6)" d="M-5,0L5,0" stroke="#f58518" stroke-width="1.5" opacity="1"/></g><g class="mark-text role-legend-label" pointer-events="none"><text text-anchor="start" transform="translate(16,9)" font-family="sans-serif" font-size="10px" fill="#000" opacity="1">Train</text></g></g><path class="foreground" aria-hidden="true" d="" pointer-events="none" display="none"/></g></g></g><path class="foreground" aria-hidden="true" d="" pointer-events="none" display="none"/></g></g><g class="mark-text role-legend-title" pointer-events="none"><text text-anchor="start" transform="translate(0,9)" font-family="sans-serif" font-size="11px" font-weight="bold" fill="#000" opacity="1">Typ</text></g></g><path class="foreground" aria-hidden="true" d="" pointer-events="none" display="none"/></g></g></g><path class="foreground" aria-hidden="true" d="" display="none"/></g></g></g></svg>