<svg xmlns="http://www.w3.org/2000/svg" xmlns:xlink="http://www.w3.org/1999/xlink" version="1.1" class="marks" width="509" height="347" viewBox="0 0 509 347"><rect width="509" height="347" fill="white"/><g fill="none" stroke-miterlimit="10" transform="translate(47,10)"><g class="mark-group role-frame root" role="graphics-object" aria-roledescription="group mark container"><g transform="translate(0,0)"><path class="background" aria-hidden="true" d="M0.5,0.5h400v300h-400Z" stroke="#ddd"/><g><g class="mark-group role-axis" aria-hidden="true"><g transform="translate(0.5,300.5)"><path class="background" aria-hidden="true" d="M0,0h0v0h0Z" pointer-events="none"/><g><g class="mark-rule role-axis-grid" pointer-events="none"><line transform="translate(0,-300)" x2="0" y2="300" stroke="#ddd" stroke-width="1" opacity="1"/><line transform="translate(31,-300)" x2="0" y2="300" stroke="#ddd" stroke-width="1" opacity="1"/><line transform="translate(62,-300)" x2="0" y2="300" stroke="#ddd" stroke-width="1" opacity="1"/><line transform="translate(92,-300)" x2="0" y2="300" stroke="#ddd" stroke-width="1" opacity="1"/><line transform="translate(123,-300)" x2="0" y2="300" stroke="#ddd" stroke-width="1" opacity="1"/><line transform="translate(154,-300)" x2="0" y2="300" stroke="#ddd" stroke-width="1" opacity="1"/><line transform="translate(185,-300)" x2="0" y2="300" stroke="#ddd" stroke-width="1" opacity="1"/><line transform="translate(215,-300)" x2="0" y2="300" stroke="#ddd" stroke-width="1" opacity="1"/><line transform="translate(246,-300)" x2="0" y2="300" stroke="#ddd" stroke-width="1" opacity="1"/><line transform="translate(277,-300)" x2="0" y2="300" stroke="#ddd" stroke-width="1" opacity="1"/><line transform="translate(308,-300)" x2="0" y2="300" stroke="#ddd" stroke-width="1" opacity="1"/><line transform="translate(338,-300)" x2="0" y2="300" stroke="#ddd" stroke-width="1" opacity="1"/><line transform="translate(369,-300)" x2="0" y2="300" stroke="#ddd" stroke-width="1" opacity="1"/><line transform="translate(400,-300)" x2="0" y2="300" stroke="#ddd" stroke-width="1" opacity="1"/></g></g><path class="foreground" aria-hidden="true" d="" pointer-events="none" display="none"/></g></g><g class="mark-group role-axis" aria-hidden="true"><g transform="translate(0.5,0.5)"><path class="background" aria-hidden="true" d="M0,0h0v0h0Z" pointer-events="none"/><g><g class="mark-rule role-axis-grid" pointer-events="none"><line transform="translate(0,300)" x2="400" y2="0" stroke="#ddd" stroke-width="1" opacity="1"/><line transform="translate(0,267)" x2="400" y2="0" stroke="#ddd" stroke-width="1" opacity="1"/><line transform="translate(0,233)" x2="400" y2="0" stroke="#ddd" stroke-width="1" opacity="1"/><line transform="translate(0,200)" x2="400" y2="0" stroke="#ddd" stroke-width="1" opacity="1"/><line transform="translate(0,167)" x2="400" y2="0" stroke="#ddd" stroke-width="1" opacity="1"/><line transform="translate(0,133)" x2="400" y2="0" stroke="#ddd" stroke-width="1" opacity="1"/><line transform="translate(0,100)" x2="400" y2="0" stroke="#ddd" stroke-width="1" opacity="1"/><line transform="translate(0,67)" x2="400" y2="0" stroke="#ddd" stroke-width="1" opacity="1"/><line transform="translate(0,33)" x2="400" y2="0" stroke="#ddd" stroke-width="1" opacity="1"/><line transform="translate(0,0)" x2="400" y2="0" stroke="#ddd" stroke-width="1" opacity="1"/></g></g><path class="foreground" aria-hidden="true" d="" pointer-events="none" display="none"/></g></g><g class="mark-group role-axis" role="graphics-symbol" aria-roledescription="axis" aria-label="X-axis titled 'Anzahl Epochen' for a linear scale with values from 0 to 260"><g transform="translate(0.5,300.5)"><path class="background" aria-hidden="true" d="M0,0h0v0h0Z" pointer-events="none"/><g><g class="mark-rule role-axis-tick" pointer-events="none"><line transform="translate(0,0)" x2="0" y2="5" stroke="#888" stroke-width="1" opacity="1"/><line transform="translate(31,0)" x2="0" y2="5" stroke="#888" stroke-width="1" opacity="1"/><line transform="translate(62,0)" x2="0" y2="5" stroke="#888" stroke-width="1" opacity="1"/><line transform="translate(92,0)" x2="0" y2="5" stroke="#888" stroke-width="1" opacity="1"/><line transform="translate(123,0)" x2="0" y2="5" stroke="#888" stroke-width="1" opacity="1"/><line transform="translate(154,0)" x2="0" y2="5" stroke="#888" stroke-width="1" opacity="1"/><line transform="translate(185,0)" x2="0" y2="5" stroke="#888" stroke-width="1" opacity="1"/><line transform="translate(215,0)" x2="0" y2="5" stroke="#888" stroke-width="1" opacity="1"/><line transform="translate(246,0)" x2="0" y2="5" stroke="#888" stroke-width="1" opacity="1"/><line transform="translate(277,0)" x2="0" y2="5" stroke="#888" stroke-width="1" opacity="1"/><line transform="translate(308,0)" x2="0" y2="5" stroke="#888" stroke-width="1" opacity="1"/><line transform="translate(338,0)" x2="0" y2="5" stroke="#888" stroke-width="1" opacity="1"/><line transform="translate(369,0)" x2="0" y2="5" stroke="#888" stroke-width="1" opacity="1"/><line transform="translate(400,0)" x2="0" y2="5" stroke="#888" stroke-width="1" opacity="1"/></g><g class="mark-text role-axis-label" pointer-events="none"><text text-anchor="start" transform="translate(0,15)" font-family="sans-serif" font-size="10px" fill="#000" opacity="1">0</text><text text-anchor="middle" transform="translate(30.76923076923077,15)" font-family="sans-serif" font-size="10px" fill="#000" opacity="1">20</text><text text-anchor="middle" transform="translate(61.53846153846154,15)" font-family="sans-serif" font-size="10px" fill="#000" opacity="1">40</text><text text-anchor="middle" transform="translate(92.3076923076923,15)" font-family="sans-serif" font-size="10px" fill="#000" opacity="1">60</text><text text-anchor="middle" transform="translate(123.07692307692308,15)" font-family="sans-serif" font-size="10px" fill="#000" opacity="1">80</text><text text-anchor="middle" transform="translate(153.84615384615387,15)" font-family="sans-serif" font-size="10px" fill="#000" opacity="1">100</text><text text-anchor="middle" transform="translate(184.6153846153846,15)" font-family="sans-serif" font-size="10px" fill="#000" opacity="1">120</text><text text-anchor="middle" transform="translate(215.3846153846154,15)" font-family="sans-serif" font-size="10px" fill="#000" opacity="1">140</text><text text-anchor="middle" transform="translate(246.15384615384616,15)" font-family="sans-serif" font-size="10px" fill="#000" opacity="1">160</text><text text-anchor="middle" transform="translate(276.9230769230769,15)" font-family="sans-serif" font-size="10px" fill="#000" opacity="1">180</text><text text-anchor="middle" transform="translate(307.69230769230774,15)" font-family="sans-serif" font-size="10px" fill="#000" opacity="1">200</text><text text-anchor="middle" transform="translate(338.46153846153845,15)" font-family="sans-serif" font-size="10px" fill="#000" opacity="1">220</text><text text-anchor="middle" transform="translate(369.2307692307692,15)" font-family="sans-serif" font-size="10px" fill="#000" opacity="1">240</text><text text-anchor="end" transform="translate(400,15)" font-family="sans-serif" font-size="10px" fill="#000" opacity="1">260</text></g><g class="mark-rule role-axis-domain" pointer-events="none"><line transform="translate(0,0)" x2="400" y2="0" stroke="#888" stroke-width="1" opacity="1"/></g><g class="mark-text role-axis-title" pointer-events="none"><text text-anchor="middle" transform="translate(200,30)" font-family="sans-serif" font-size="11px" font-weight="bold" fill="#000" opacity="1">Anzahl Epochen</text></g></g><path class="foreground" aria-hidden="true" d="" pointer-events="none" display="none"/></g></g><g class="mark-group role-axis" role="graphics-symbol" aria-roledescription="axis" aria-label="Y-axis titled 'Mittlerer Fehler' for a linear scale with values from 0.00 to 0.09"><g transform="translate(0.5,0.5)"><path class="background" aria-hidden="true" d="M0,0h0v0h0Z" pointer-events="none"/><g><g class="mark-rule role-axis-tick" pointer-events="none"><line transform="translate(0,300)" x2="-5" y2="0" stroke="#888" stroke-width="1" opacity="1"/><line transform="translate(0,267)" x2="-5" y2="0" stroke="#888" stroke-width="1" opacity="1"/><line transform="translate(0,233)" x2="-5" y2="0" stroke="#888" stroke-width="1" opacity="1"/><line transform="translate(0,200)" x2="-5" y2="0" stroke="#888" stroke-width="1" opacity="1"/><line transform="translate(0,167)" x2="-5" y2="0" stroke="#888" stroke-width="1" opacity="1"/><line transform="translate(0,133)" x2="-5" y2="0" stroke="#888" stroke-width="1" opacity="1"/><line transform="translate(0,100)" x2="-5" y2="0" stroke="#888" stroke-width="1" opacity="1"/><line transform="translate(0,67)" x2="-5" y2="0" stroke="#888" stroke-width="1" opacity="1"/><line transform="translate(0,33)" x2="-5" y2="0" stroke="#888" stroke-width="1" opacity="1"/><line transform="translate(0,0)" x2="-5" y2="0" stroke="#888" stroke-width="1" opacity="1"/></g><g class="mark-text role-axis-label" pointer-events="none"><text text-anchor="end" transform="translate(-7,303)" font-family="sans-serif" font-size="10px" fill="#000" opacity="1">0.00</text><text text-anchor="end" transform="translate(-7,269.66666666666663)" font-family="sans-serif" font-size="10px" fill="#000" opacity="1">0.01</text><text text-anchor="end" transform="translate(-7,236.33333333333334)" font-family="sans-serif" font-size="10px" fill="#000" opacity="1">0.02</text><text text-anchor="end" transform="translate(-7,203.00000000000003)" font-family="sans-serif" font-size="10px" fill="#000" opacity="1">0.03</text><text text-anchor="end" transform="translate(-7,169.66666666666669)" font-family="sans-serif" font-size="10px" fill="#000" opacity="1">0.04</text><text text-anchor="end" transform="translate(-7,136.33333333333331)" font-family="sans-serif" font-size="10px" fill="#000" opacity="1">0.05</text><text text-anchor="end" transform="translate(-7,103.00000000000001)" font-family="sans-serif" font-size="10px" fill="#000" opacity="1">0.06</text><text text-anchor="end" transform="translate(-7,69.66666666666663)" font-family="sans-serif" font-size="10px" fill="#000" opacity="1">0.07</text><text text-anchor="end" transform="translate(-7,36.333333333333314)" font-family="sans-serif" font-size="10px" fill="#000" opacity="1">0.08</text><text text-anchor="end" transform="translate(-7,3)" font-family="sans-serif" font-size="10px" fill="#000" opacity="1">0.09</text></g><g class="mark-rule role-axis-domain" pointer-events="none"><line transform="translate(0,300)" x2="0" y2="-300" stroke="#888" stroke-width="1" opacity="1"/></g><g class="mark-text role-axis-title" pointer-events="none"><text text-anchor="middle" transform="translate(-30.462890625,150) rotate(-90) translate(0,-2)" font-family="sans-serif" font-size="11px" font-weight="bold" fill="#000" opacity="1">Mittlerer Fehler</text></g></g><path class="foreground" aria-hidden="true" d="" pointer-events="none" display="none"/></g></g><g class="mark-group role-scope pathgroup" role="graphics-object" aria-roledescription="group mark container"><g transform="translate(0,0)"><path class="background" aria-hidden="true" d="M0,0h400v300h-400Z"/><g><g class="mark-line role-mark marks" role="graphics-object" aria-roledescription="line mark container"><path aria-label="Typ: Train; Anzahl Epochen: 0; Mittlerer Fehler: 0.082272687416" role="graphics-symbol" aria-roledescription="line mark" d="M0,25.757708613361597L1.5384615384615385,89.51950287889865L3.076923076923077,98.27509974794727L4.615384615384616,102.51154598026048L6.153846153846154,105.57758465764067L7.6923076923076925,108.42887861210674L9.230769230769232,111.469810881785L10.76923076923077,114.66882383184772L12.307692307692308,117.52274035520497L13.846153846153847,119.54686233685129L15.384615384615385,121.09387388364189L16.923076923076923,121.99158246318498L18.461538461538463,123.03262604844001L20,123.88196835915245L21.53846153846154,124.42061104589986L23.076923076923077,125.21788731572174L24.615384615384617,125.72650543103617L26.153846153846157,126.39310866416919L27.692307692307693,126.93336830430088L29.230769230769234,127.48922506081206L30.76923076923077,127.93939847587829L32.30769230769231,128.32003980875015L33.84615384615385,128.740877853263L35.38461538461539,129.37674726126716L36.92307692307693,129.74040794762828L38.46153846153847,130.18067759417352L40,130.52576842407385L41.53846153846154,130.9385298485202L43.07692307692308,131.48486580522288L44.61538461538462,131.952190363691L46.15384615384615,132.43526712148673L47.69230769230769,133.13638686778998L49.23076923076923,133.98299989390318L50.76923076923077,134.77563803483332L52.307692307692314,135.3701333337951L53.84615384615385,135.88943184309065L55.38461538461539,136.26829419462453L56.92307692307692,136.6083273863686L58.46153846153847,137.06524851510213L60,137.4177903690863L61.53846153846154,137.7898560570819L63.07692307692307,138.00914472944677L64.61538461538461,138.35199553342093L66.15384615384615,138.64753542556647L67.6923076923077,138.90159544313235L69.23076923076923,139.15722410948504L70.76923076923077,139.44692645399343L72.3076923076923,139.69922111608045L73.84615384615385,139.96219205714408L75.38461538461539,140.23084117077468L76.92307692307693,140.5140535551168L78.46153846153847,140.88880861887623L80,141.02563448000834L81.53846153846153,141.5871949985601L83.07692307692308,141.92841980950018L84.61538461538461,142.45928253623703L86.15384615384616,142.8137584035063L87.6923076923077,143.1574185733639L89.23076923076924,143.49207941087937L90.76923076923077,143.81290788601507L92.3076923076923,144.07706900854552L93.84615384615384,144.32845799518483L95.38461538461539,144.46530773739573L96.92307692307692,144.79605779051778L98.46153846153847,144.91657640873677L100,145.18121088012344L101.53846153846153,145.27372795848697L103.07692307692307,145.49146163765164L104.61538461538463,145.69661881666565L106.15384615384616,145.79074814294776L107.6923076923077,145.97609746935112L109.23076923076923,146.12037053420428L110.76923076923077,146.28418834791296L112.3076923076923,146.37183272058056L113.84615384615384,146.54179142699354L115.38461538461537,146.5755290271426L116.92307692307693,146.73812566643824L118.46153846153847,146.87611269099372L120,147.023628168695L121.53846153846153,147.166160192518L123.07692307692308,147.12718274289122L124.61538461538461,147.35696388940727L126.15384615384615,147.5178879524936L127.69230769230768,147.57288490821207L129.23076923076923,147.55306073652932L130.76923076923077,147.83204038228308L132.3076923076923,147.91386311519003L133.84615384615384,147.90994533991793L135.3846153846154,148.0807106127031L136.92307692307693,148.1795946269163L138.46153846153845,148.18336172472863L140,148.2701213240424L141.53846153846155,148.40324546787L143.07692307692307,148.5692351790411L144.6153846153846,148.62334607113596L146.15384615384613,148.60014254504458L147.6923076923077,148.71358617785432L149.23076923076923,148.81026143917722L150.76923076923077,148.97453912666865L152.3076923076923,148.8977774933335L153.84615384615387,149.06643256545067L155.3846153846154,149.20392624716484L156.92307692307693,149.25268260496003L158.46153846153845,149.40374838410034L160,149.43721372214245L161.53846153846155,149.5596941584067L163.07692307692307,149.65742280667956L164.6153846153846,149.7934299255056L166.15384615384616,149.8899682070173L167.6923076923077,150.02469055166114L169.23076923076923,149.9647895374524L170.76923076923077,150.1835018085937L172.30769230769232,150.16715923501621L173.84615384615384,150.24655016008876L175.3846153846154,150.47638546252745L176.9230769230769,150.52889918110196L178.46153846153848,150.70968116855337L180,150.86345385671373L181.53846153846155,150.88862432551517L183.07692307692307,151.0993679640316L184.6153846153846,151.08515194484167L186.15384615384616,151.29075794081604L187.69230769230768,151.29213246649928L189.23076923076923,151.46760285182L190.76923076923077,151.55769295192192L192.30769230769232,151.68553273459628L193.84615384615384,151.8418353671829L195.3846153846154,152.0275714574382L196.92307692307693,152.1694690876064L198.46153846153845,152.23750042801146L200,152.37245392941296L201.53846153846155,152.52577567118263L203.07692307692307,152.5886011623827L204.61538461538458,152.77084392007617L206.15384615384613,152.82628894641502L207.6923076923077,152.9844694149991L209.23076923076925,153.0845362693071L210.76923076923077,153.22265576216435L212.30769230769232,153.26701852900442L213.84615384615384,153.452901023307L215.3846153846154,153.51132141769907L216.9230769230769,153.70963513851163L218.46153846153845,153.7532192876651L220.00000000000003,153.83474948771652L221.53846153846155,153.9330287259959L223.0769230769231,154.0392640628159L224.6153846153846,154.26753499500808L226.15384615384616,154.41532971869623L227.69230769230768,154.6268145509419L229.23076923076923,154.56214904247426L230.76923076923075,154.83426132372446L232.30769230769232,155.11602671828032L233.84615384615387,155.27299751134012L235.3846153846154,155.4639851103448L236.92307692307693,155.60696557652028L238.46153846153845,155.7514219056992L240,156.1001317376005L241.53846153846152,156.1872884232019L243.07692307692307,156.37065146916677L244.61538461538464,156.55395790845864L246.15384615384616,156.71658690220542L247.6923076923077,156.95091454046113L249.23076923076923,157.0651410679732L250.76923076923077,157.2219235911256L252.3076923076923,157.29107315131668L253.84615384615384,157.44009033909865L255.38461538461536,157.5310372185673L256.92307692307696,157.67474607027475L258.46153846153845,157.91139223008594L260,157.91646200214885L261.53846153846155,158.0399610124351L263.0769230769231,158.1144647233443L264.6153846153846,158.18217919163757L266.15384615384613,158.27744078101423L267.6923076923077,158.41878069512035L269.2307692307692,158.58360388436785L270.7692307692308,158.64107513445475L272.3076923076923,158.73206977155945L273.84615384615387,158.75736016868836L275.38461538461536,158.87616425932808L276.9230769230769,159.01703491997196L278.46153846153845,158.9028097511757L280,159.15087027387926L281.53846153846155,159.07129260199977L283.0769230769231,159.25253461159411L284.61538461538464,159.2677718471913L286.15384615384613,159.31800889472166L287.6923076923077,159.38452717715077L289.2307692307692,159.46822092269682L290.7692307692308,159.5327141035384L292.30769230769226,159.64994026608545L293.84615384615387,159.61982614798694L295.3846153846154,159.67773953889264L296.9230769230769,159.7615117212713L298.46153846153845,159.86346034513275L300,159.86664311162065L301.53846153846155,159.86432891936383L303.0769230769231,159.91890080913439L304.6153846153846,160.03150078523458L306.15384615384613,160.08747425817307L307.69230769230774,160.0519307441919L309.2307692307692,160.1548504964393L310.7692307692308,160.1493831475853L312.3076923076923,160.1931347703309L313.84615384615387,160.17386386880563L315.38461538461536,160.3047102556697L316.9230769230769,160.28882466655756L318.46153846153845,160.2799006826466L320,160.34393852931402L321.53846153846155,160.46048863250428L323.0769230769231,160.38597786798726L324.61538461538464,160.4472420213001L326.15384615384613,160.59702431581778L327.6923076923077,160.50950773670118L329.2307692307692,160.53035730008213L330.7692307692308,160.65501285539494L332.3076923076923,160.69784226960368L333.84615384615387,160.65492592308493L335.3846153846154,160.7773432020275L336.9230769230769,160.76249937524108L338.46153846153845,160.84622768695613L340,160.75874883238046L341.53846153846155,160.83249110292638L343.07692307692304,160.85302565742973L344.61538461538464,160.90295650508432L346.1538461538462,160.98800069864538L347.6923076923077,160.87791056280753L349.2307692307692,161.0205815177843L350.7692307692308,160.99368515202684L352.3076923076923,161.02162488934394L353.8461538461538,161.0545609545495L355.38461538461536,161.15135372729992L356.92307692307696,161.17251424917154L358.46153846153845,161.19879704395618L360,161.06761061098604L361.53846153846155,161.18627959014185L363.0769230769231,161.3022816589191L364.6153846153846,161.25618674296197L366.15384615384613,161.2624048202027L367.6923076923077,161.3677076684932L369.2307692307692,161.35887131084542L370.7692307692308,161.38239356177587L372.3076923076923,161.44136698328245L373.84615384615387,161.44514561644993L375.38461538461536,161.454059236816L376.9230769230769,161.46052617398146L378.46153846153845,161.44605915486906L380,161.42920927133153L381.53846153846155,161.60290816875377L383.0769230769231,161.53940318247243" stroke="#f58518" stroke-width="2"/></g></g><path class="foreground" aria-hidden="true" d="" display="none"/></g><g transform="translate(0,0)"><path class="background" aria-hidden="true" d="M0,0h400v300h-400Z"/><g><g class="mark-line role-mark marks" role="graphics-object" aria-roledescription="line mark container"><path aria-label="Typ: Test; Anzahl Epochen: 0; Mittlerer Fehler: 0.0686589569723" role="graphics-symbol" aria-roledescription="line mark" d="M0,71.13681009246244L1.5384615384615385,92.88171869185237L3.076923076923077,98.04420280787679L4.615384615384616,100.99906039734678L6.153846153846154,103.2323939104875L7.6923076923076925,105.85784088406297L9.230769230769232,108.53870386878648L10.76923076923077,111.0158652688066L12.307692307692308,113.28604020592238L13.846153846153847,114.13451569775738L15.384615384615385,114.73127891206077L16.923076923076923,115.82431205444864L18.461538461538463,116.24745432701374L20,116.42269939184189L21.53846153846154,116.78205807175901L23.076923076923077,116.85755937877627L24.615384615384617,117.31285858485433L26.153846153846157,117.39640910592344L27.692307692307693,117.70914474295245L29.230769230769234,117.90744293895034L30.76923076923077,117.96005869077311L32.30769230769231,118.26791448725594L33.84615384615385,118.38738961766163L35.38461538461539,118.4610327809221L36.92307692307693,118.85368797100251L38.46153846153847,118.94754512856403L40,118.81431740087768L41.53846153846154,119.18656984344123L43.07692307692308,119.65896439635091L44.61538461538462,119.38434853994598L46.15384615384615,120.1228348331319L47.69230769230769,120.64574762350983L49.23076923076923,120.89179083704946L50.76923076923077,120.81563975661993L52.307692307692314,121.43039281169573L53.84615384615385,121.81452334754997L55.38461538461539,122.07370613598162L56.92307692307692,122.27517535082166L58.46153846153847,122.59154988245832L60,122.75277280973063L61.53846153846154,122.6612454280257L63.07692307692307,122.9292550434669L64.61538461538461,123.23693208810356L66.15384615384615,123.48923933588796L67.6923076923077,123.24614650052453L69.23076923076923,123.49502816796301L70.76923076923077,123.72196438825792L72.3076923076923,123.71348854309566L73.84615384615385,123.92592086560195L75.38461538461539,123.9166249314116L76.92307692307693,124.29637070745231L78.46153846153847,124.44365198413531L80,124.52280374450817L81.53846153846153,124.98627765518094L83.07692307692308,125.21023855855069L84.61538461538461,125.56059654388162L86.15384615384616,125.48712680323256L87.6923076923077,125.87430545439324L89.23076923076924,126.06998940722808L90.76923076923077,126.4282642941301L92.3076923076923,126.56587419850337L93.84615384615384,126.6876282170415L95.38461538461539,126.38530406273073L96.92307692307692,126.76072985761694L98.46153846153847,126.91630634168783L100,126.89101712571251L101.53846153846153,127.02452899474237L103.07692307692307,127.14952457463367L104.61538461538463,126.94801911194288L106.15384615384616,127.25447768138515L107.6923076923077,127.28679215328562L109.23076923076923,127.32307985424997L110.76923076923077,127.3149465624657L112.3076923076923,127.34466277890735L113.84615384615384,127.17296155816355L115.38461538461537,127.36513233847087L116.92307692307693,127.55272936386366L118.46153846153847,127.44697452419334L120,127.46646280090016L121.53846153846153,127.55000389491519L123.07692307692308,127.40530957364375L124.61538461538461,127.55784346825546L126.15384615384615,127.54555009305479L127.69230769230768,127.53515367706615L129.23076923076923,127.45505165722635L130.76923076923077,127.76104006916285L132.3076923076923,127.7162291109562L133.84615384615384,127.77010045117802L135.3846153846154,127.64046883417501L136.92307692307693,127.76364607529507L138.46153846153845,127.70016878429387L140,127.68031573957867L141.53846153846155,127.71189158989321L143.07692307692307,127.56700870943153L144.6153846153846,127.8775622240371L146.15384615384613,127.82075386494395L147.6923076923077,128.083274865316L149.23076923076923,127.79428869899775L150.76923076923077,127.91053865932754L152.3076923076923,127.78519603113334L153.84615384615387,127.97940915657414L155.3846153846154,127.91346979017058L156.92307692307693,127.93356979058846L158.46153846153845,128.06863270945743L160,128.0360343141688L161.53846153846155,128.1932759202189L163.07692307692307,128.1247928428153L164.6153846153846,128.2007028038303L166.15384615384616,128.17971553239556L167.6923076923077,128.34794061879316L169.23076923076923,128.3663636694352L170.76923076923077,128.40044655733638L172.30769230769232,128.39291938839276L173.84615384615384,128.22593241516086L175.3846153846154,128.46023995015355L176.9230769230769,128.293091572252L178.46153846153848,128.552270771858L180,128.69045090758138L181.53846153846155,128.64871645967162L183.07692307692307,128.717888912393L184.6153846153846,128.74559596594835L186.15384615384616,128.82267297116212L187.69230769230768,128.7957257280747L189.23076923076923,128.9438332327538L190.76923076923077,128.87693535950447L192.30769230769232,129.16504856507848L193.84615384615384,129.38788857682084L195.3846153846154,129.2268979259663L196.92307692307693,129.29844815904895L198.46153846153845,129.488670732826L200,129.36076963734294L201.53846153846155,129.54445495787596L203.07692307692307,129.67485563050204L204.61538461538458,129.69275471599153L206.15384615384613,129.76489259550965L207.6923076923077,129.9102848292225L209.23076923076925,129.87825609743595L210.76923076923077,130.06876889202331L212.30769230769232,130.1338232846724L213.84615384615384,130.20087933788696L215.3846153846154,130.2821588081618L216.9230769230769,130.27124434916507L218.46153846153845,130.4874189198017L220.00000000000003,130.50000297112595L221.53846153846155,130.41523388690416L223.0769230769231,130.6965350839568L224.6153846153846,130.69786503911018L226.15384615384616,130.7530805054638L227.69230769230768,130.8841151081853L229.23076923076923,130.9136422144042L230.76923076923075,131.03525479220679L232.30769230769232,131.14244403938451L233.84615384615387,131.1189215630293L235.3846153846154,131.3462530159288L236.92307692307693,131.39362670481205L238.46153846153845,131.80043088893095L240,131.76378095522523L241.53846153846152,131.8632479136189L243.07692307692307,131.91377679920856L244.61538461538464,131.83264914486142L246.15384615384616,131.9340355487333L247.6923076923077,132.20564087645872L249.23076923076923,132.14056701076012L250.76923076923077,132.27337911311125L252.3076923076923,132.31314642147885L253.84615384615384,132.36576327019267L255.38461538461536,132.43517349991535L256.92307692307696,132.44552744759454L258.46153846153845,132.45455453482765L260,132.5727271536986L261.53846153846155,132.58639689948822L263.0769230769231,132.7708928121461L264.6153846153846,132.73625638749863L266.15384615384613,132.76969833920398L267.6923076923077,132.7288301765091L269.2307692307692,132.50409836570424L270.7692307692308,132.701500150789L272.3076923076923,133.00168827796978L273.84615384615387,132.95003643466367L275.38461538461536,132.89683954790235L276.9230769230769,133.0058342285661L278.46153846153845,133.11612755060196L280,132.96875430064068L281.53846153846155,133.05617068997685L283.0769230769231,133.14927184643844L284.61538461538464,133.02031904459L286.15384615384613,133.16939142015244L287.6923076923077,133.22308340834246L289.2307692307692,133.15379340201616L290.7692307692308,133.0871489105953L292.30769230769226,133.1766763391594L293.84615384615387,133.10723188850613L295.3846153846154,133.19410280091688L296.9230769230769,133.21529713769752L298.46153846153845,133.25595534924003L300,133.06547325466656L301.53846153846155,133.1873606579999L303.0769230769231,133.15802726946356L304.6153846153846,133.21550774077573L306.15384615384613,133.18294653048116L307.69230769230774,133.22402205732132L309.2307692307692,133.17850630200053L310.7692307692308,133.27495723755823L312.3076923076923,133.1458868044946L313.84615384615387,133.1443110998306L315.38461538461536,133.2568779691226L316.9230769230769,133.22065402236248L318.46153846153845,133.29532030555936L320,133.22734740148817L321.53846153846155,133.0592601456576L323.0769230769231,133.24136436373618L324.61538461538464,133.28010615789225L326.15384615384613,133.2382763425509L327.6923076923077,133.2167475173871L329.2307692307692,132.9992061998281L330.7692307692308,133.2020440035396L332.3076923076923,133.22808374133373L333.84615384615387,133.2156469217605L335.3846153846154,133.1565597405036L336.9230769230769,133.1503241426415L338.46153846153845,133.2462789490819L340,133.28771678109962L341.53846153846155,133.28971374042644L343.07692307692304,133.18076382080713L344.61538461538464,133.1962031373728L346.1538461538462,133.22458242376646L347.6923076923077,133.1944752898481L349.2307692307692,133.15982080789072L350.7692307692308,133.12507728114724L352.3076923076923,133.0745469364855L353.8461538461538,133.20824433532024L355.38461538461536,133.28951775199837L356.92307692307696,133.20301648798502L358.46153846153845,133.10865305522586L360,133.14460091706778L361.53846153846155,132.96817588723368L363.0769230769231,133.09635108129848L364.6153846153846,133.15618346548743L366.15384615384613,133.07861681613656L367.6923076923077,133.05613957345483L369.2307692307692,133.16638758406043L370.7692307692308,133.14207912319236L372.3076923076923,132.98516204166742L373.84615384615387,133.09430668337478L375.38461538461536,133.15420450849666L376.9230769230769,132.96149476534788L378.46153846153845,133.0556355209814L380,133.07769900808728L381.53846153846155,132.87398152881198L383.0769230769231,132.97042099552021" stroke="#4c78a8" stroke-width="2"/></g></g><path class="foreground" aria-hidden="true" d="" display="none"/></g></g><g class="mark-group role-legend" role="graphics-symbol" aria-roledescription="legend" aria-label="Symbol legend titled 'Typ' for stroke color with 2 values: Test, Train"><g transform="translate(418,0)"><path class="background" aria-hidden="true" d="M0,0h39v40h-39Z" pointer-events="none"/><g><g class="mark-group role-legend-entry"><g transform="translate(0,16)"><path class="background" aria-hidden="true" d="M0,0h0v0h0Z" pointer-events="none"/><g><g class="mark-group role-scope" role="graphics-object" aria-roledescription="group mark container"><g transform="translate(0,0)"><path class="background" aria-hidden="true" d="M0,0h38.412109375v11h-38.412109375Z" pointer-events="none" opacity="1"/><g><g class="mark-symbol role-legend-symbol" pointer-events="none"><path transform="translate(6,6)" d="M-5,0L5,0" stroke="#4c78a8" stroke-width="1.5" opacity="1"/></g><g class="mark-text role-legend-label" pointer-events="none"><text text-anchor="start" transform="translate(16,9)" font-family="sans-serif" font-size="10px" fill="#000" opacity="1">Test</text></g></g><path class="foreground" aria-hidden="true" d="" pointer-events="none" display="none"/></g><g transform="translate(0,13)"><path class="background" aria-hidden="true" d="M0,0h38.412109375v11h-38.412109375Z" pointer-events="none" opacity="1"/><g><g class="mark-symbol role-legend-symbol" pointer-events="none"><path transform="translate(6,6)" d="M-5,0L5,0" stroke="#f58518" stroke-width="1.5" opacity="1"/></g><g class="mark-text role-legend-label" pointer-events="none"><text text-anchor="start" transform="translate(16,9)" font-family="sans-serif" font-size="10px" fill="#000" opacity="1">Train</text></g></g><path class="foreground" aria-hidden="true" d="" pointer-events="none" display="none"/></g></g></g><path class="foreground" aria-hidden="true" d="" pointer-events="none" display="none"/></g></g><g class="mark-text role-legend-title" pointer-events="none"><text text-anchor="start" transform="translate(0,9)" font-family="sans-serif" font-size="11px" font-weight="bold" fill="#000" opacity="1">Typ</text></g></g><path class="foreground" aria-hidden="true" d="" pointer-events="none" display="none"/></g></g></g><path class="foreground" aria-hidden="true" d="" display="none"/></g></g></g></svg>