<svg xmlns="http://www.w3.org/2000/svg" xmlns:xlink="http://www.w3.org/1999/xlink" version="1.1" class="marks" width="509" height="347" viewBox="0 0 509 347"><rect width="509" height="347" fill="white"/><g fill="none" stroke-miterlimit="10" transform="translate(47,10)"><g class="mark-group role-frame root" role="graphics-object" aria-roledescription="group mark container"><g transform="translate(0,0)"><path class="background" aria-hidden="true" d="M0.5,0.5h400v300h-400Z" stroke="#ddd"/><g><g class="mark-group role-axis" aria-hidden="true"><g transform="translate(0.5,300.5)"><path class="background" aria-hidden="true" d="M0,0h0v0h0Z" pointer-events="none"/><g><g class="mark-rule role-axis-grid" pointer-events="none"><line transform="translate(0,-300)" x2="0" y2="300" stroke="#ddd" stroke-width="1" opacity="1"/><line transform="translate(31,-300)" x2="0" y2="300" stroke="#ddd" stroke-width="1" opacity="1"/><line transform="translate(62,-300)" x2="0" y2="300" stroke="#ddd" stroke-width="1" opacity="1"/><line transform="translate(92,-300)" x2="0" y2="300" stroke="#ddd" stroke-width="1" opacity="1"/><line transform="translate(123,-300)" x2="0" y2="300" stroke="#ddd" stroke-width="1" opacity="1"/><line transform="translate(154,-300)" x2="0" y2="300" stroke="#ddd" stroke-width="1" opacity="1"/><line transform="translate(185,-300)" x2="0" y2="300" stroke="#ddd" stroke-width="1" opacity="1"/><line transform="translate(215,-300)" x2="0" y2="300" stroke="#ddd" stroke-width="1" opacity="1"/><line transform="translate(246,-300)" x2="0" y2="300" stroke="#ddd" stroke-width="1" opacity="1"/><line transform="translate(277,-300)" x2="0" y2="300" stroke="#ddd" stroke-width="1" opacity="1"/><line transform="translate(308,-300)" x2="0" y2="300" stroke="#ddd" stroke-width="1" opacity="1"/><line transform="translate(338,-300)" x2="0" y2="300" stroke="#ddd" stroke-width="1" opacity="1"/><line transform="translate(369,-300)" x2="0" y2="300" stroke="#ddd" stroke-width="1" opacity="1"/><line transform="translate(400,-300)" x2="0" y2="300" stroke="#ddd" stroke-width="1" opacity="1"/></g></g><path class="foreground" aria-hidden="true" d="" pointer-events="none" display="none"/></g></g><g class="mark-group role-axis" aria-hidden="true"><g transform="translate(0.5,0.5)"><path class="background" aria-hidden="true" d="M0,0h0v0h0Z" pointer-events="none"/><g><g class="mark-rule role-axis-grid" pointer-events="none"><line transform="translate(0,300)" x2="400" y2="0" stroke="#ddd" stroke-width="1" opacity="1"/><line transform="translate(0,267)" x2="400" y2="0" stroke="#ddd" stroke-width="1" opacity="1"/><line transform="translate(0,233)" x2="400" y2="0" stroke="#ddd" stroke-width="1" opacity="1"/><line transform="translate(0,200)" x2="400" y2="0" stroke="#ddd" stroke-width="1" opacity="1"/><line transform="translate(0,167)" x2="400" y2="0" stroke="#ddd" stroke-width="1" opacity="1"/><line transform="translate(0,133)" x2="400" y2="0" stroke="#ddd" stroke-width="1" opacity="1"/><line transform="translate(0,100)" x2="400" y2="0" stroke="#ddd" stroke-width="1" opacity="1"/><line transform="translate(0,67)" x2="400" y2="0" stroke="#ddd" stroke-width="1" opacity="1"/><line transform="translate(0,33)" x2="400" y2="0" stroke="#ddd" stroke-width="1" opacity="1"/><line transform="translate(0,0)" x2="400" y2="0" stroke="#ddd" stroke-width="1" opacity="1"/></g></g><path class="foreground" aria-hidden="true" d="" pointer-events="none" display="none"/></g></g><g class="mark-group role-axis" role="graphics-symbol" aria-roledescription="axis" aria-label="X-axis titled 'Anzahl Epochen' for a linear scale with values from 0 to 260"><g transform="translate(0.5,300.5)"><path class="background" aria-hidden="true" d="M0,0h0v0h0Z" pointer-events="none"/><g><g class="mark-rule role-axis-tick" pointer-events="none"><line transform="translate(0,0)" x2="0" y2="5" stroke="#888" stroke-width="1" opacity="1"/><line transform="translate(31,0)" x2="0" y2="5" stroke="#888" stroke-width="1" opacity="1"/><line transform="translate(62,0)" x2="0" y2="5" stroke="#888" stroke-width="1" opacity="1"/><line transform="translate(92,0)" x2="0" y2="5" stroke="#888" stroke-width="1" opacity="1"/><line transform="translate(123,0)" x2="0" y2="5" stroke="#888" stroke-width="1" opacity="1"/><line transform="translate(154,0)" x2="0" y2="5" stroke="#888" stroke-width="1" opacity="1"/><line transform="translate(185,0)" x2="0" y2="5" stroke="#888" stroke-width="1" opacity="1"/><line transform="translate(215,0)" x2="0" y2="5" stroke="#888" stroke-width="1" opacity="1"/><line transform="translate(246,0)" x2="0" y2="5" stroke="#888" stroke-width="1" opacity="1"/><line transform="translate(277,0)" x2="0" y2="5" stroke="#888" stroke-width="1" opacity="1"/><line transform="translate(308,0)" x2="0" y2="5" stroke="#888" stroke-width="1" opacity="1"/><line transform="translate(338,0)" x2="0" y2="5" stroke="#888" stroke-width="1" opacity="1"/><line transform="translate(369,0)" x2="0" y2="5" stroke="#888" stroke-width="1" opacity="1"/><line transform="translate(400,0)" x2="0" y2="5" stroke="#888" stroke-width="1" opacity="1"/></g><g class="mark-text role-axis-label" pointer-events="none"><text text-anchor="start" transform="translate(0,15)" font-family="sans-serif" font-size="10px" fill="#000" opacity="1">0</text><text text-anchor="middle" transform="translate(30.76923076923077,15)" font-family="sans-serif" font-size="10px" fill="#000" opacity="1">20</text><text text-anchor="middle" transform="translate(61.53846153846154,15)" font-family="sans-serif" font-size="10px" fill="#000" opacity="1">40</text><text text-anchor="middle" transform="translate(92.3076923076923,15)" font-family="sans-serif" font-size="10px" fill="#000" opacity="1">60</text><text text-anchor="middle" transform="translate(123.07692307692308,15)" font-family="sans-serif" font-size="10px" fill="#000" opacity="1">80</text><text text-anchor="middle" transform="translate(153.84615384615387,15)" font-family="sans-serif" font-size="10px" fill="#000" opacity="1">100</text><text text-anchor="middle" transform="translate(184.6153846153846,15)" font-family="sans-serif" font-size="10px" fill="#000" opacity="1">120</text><text text-anchor="middle" transform="translate(215.3846153846154,15)" font-family="sans-serif" font-size="10px" fill="#000" opacity="1">140</text><text text-anchor="middle" transform="translate(246.15384615384616,15)" font-family="sans-serif" font-size="10px" fill="#000" opacity="1">160</text><text text-anchor="middle" transform="translate(276.9230769230769,15)" font-family="sans-serif" font-size="10px" fill="#000" opacity="1">180</text><text text-anchor="middle" transform="translate(307.69230769230774,15)" font-family="sans-serif" font-size="10px" fill="#000" opacity="1">200</text><text text-anchor="middle" transform="translate(338.46153846153845,15)" font-family="sans-serif" font-size="10px" fill="#000" opacity="1">220</text><text text-anchor="middle" transform="translate(369.2307692307692,15)" font-family="sans-serif" font-size="10px" fill="#000" opacity="1">240</text><text text-anchor="end" transform="translate(400,15)" font-family="sans-serif" font-size="10px" fill="#000" opacity="1">260</text></g><g class="mark-rule role-axis-domain" pointer-events="none"><line transform="translate(0,0)" x2="400" y2="0" stroke="#888" stroke-width="1" opacity="1"/></g><g class="mark-text role-axis-title" pointer-events="none"><text text-anchor="middle" transform="translate(200,30)" font-family="sans-serif" font-size="11px" font-weight="bold" fill="#000" opacity="1">Anzahl Epochen</text></g></g><path class="foreground" aria-hidden="true" d="" pointer-events="none" display="none"/></g></g><g class="mark-group role-axis" role="graphics-symbol" aria-roledescription="axis" aria-label="Y-axis titled 'Mittlerer Fehler' for a linear scale with values from 0.00 to 0.09"><g transform="translate(0.5,0.5)"><path class="background" aria-hidden="true" d="M0,0h0v0h0Z" pointer-events="none"/><g><g class="mark-rule role-axis-tick" pointer-events="none"><line transform="translate(0,300)" x2="-5" y2="0" stroke="#888" stroke-width="1" opacity="1"/><line transform="translate(0,267)" x2="-5" y2="0" stroke="#888" stroke-width="1" opacity="1"/><line transform="translate(0,233)" x2="-5" y2="0" stroke="#888" stroke-width="1" opacity="1"/><line transform="translate(0,200)" x2="-5" y2="0" stroke="#888" stroke-width="1" opacity="1"/><line transform="translate(0,167)" x2="-5" y2="0" stroke="#888" stroke-width="1" opacity="1"/><line transform="translate(0,133)" x2="-5" y2="0" stroke="#888" stroke-width="1" opacity="1"/><line transform="translate(0,100)" x2="-5" y2="0" stroke="#888" stroke-width="1" opacity="1"/><line transform="translate(0,67)" x2="-5" y2="0" stroke="#888" stroke-width="1" opacity="1"/><line transform="translate(0,33)" x2="-5" y2="0" stroke="#888" stroke-width="1" opacity="1"/><line transform="translate(0,0)" x2="-5" y2="0" stroke="#888" stroke-width="1" opacity="1"/></g><g class="mark-text role-axis-label" pointer-events="none"><text text-anchor="end" transform="translate(-7,303)" font-family="sans-serif" font-size="10px" fill="#000" opacity="1">0.00</text><text text-anchor="end" transform="translate(-7,269.66666666666663)" font-family="sans-serif" font-size="10px" fill="#000" opacity="1">0.01</text><text text-anchor="end" transform="translate(-7,236.33333333333334)" font-family="sans-serif" font-size="10px" fill="#000" opacity="1">0.02</text><text text-anchor="end" transform="translate(-7,203.00000000000003)" font-family="sans-serif" font-size="10px" fill="#000" opacity="1">0.03</text><text text-anchor="end" transform="translate(-7,169.66666666666669)" font-family="sans-serif" font-size="10px" fill="#000" opacity="1">0.04</text><text text-anchor="end" transform="translate(-7,136.33333333333331)" font-family="sans-serif" font-size="10px" fill="#000" opacity="1">0.05</text><text text-anchor="end" transform="translate(-7,103.00000000000001)" font-family="sans-serif" font-size="10px" fill="#000" opacity="1">0.06</text><text text-anchor="end" transform="translate(-7,69.66666666666663)" font-family="sans-serif" font-size="10px" fill="#000" opacity="1">0.07</text><text text-anchor="end" transform="translate(-7,36.333333333333314)" font-family="sans-serif" font-size="10px" fill="#000" opacity="1">0.08</text><text text-anchor="end" transform="translate(-7,3)" font-family="sans-serif" font-size="10px" fill="#000" opacity="1">0.09</text></g><g class="mark-rule role-axis-domain" pointer-events="none"><line transform="translate(0,300)" x2="0" y2="-300" stroke="#888" stroke-width="1" opacity="1"/></g><g class="mark-text role-axis-title" pointer-events="none"><text text-anchor="middle" transform="translate(-30.462890625,150) rotate(-90) translate(0,-2)" font-family="sans-serif" font-size="11px" font-weight="bold" fill="#000" opacity="1">Mittlerer Fehler</text></g></g><path class="foreground" aria-hidden="true" d="" pointer-events="none" display="none"/></g></g><g class="mark-group role-scope pathgroup" role="graphics-object" aria-roledescription="group mark container"><g transform="translate(0,0)"><path class="background" aria-hidden="true" d="M0,0h400v300h-400Z"/><g><g class="mark-line role-mark marks" role="graphics-object" aria-roledescription="line mark container"><path aria-label="Typ: Train; Anzahl Epochen: 0; Mittlerer Fehler: 0.0871820361699" role="graphics-symbol" aria-roledescription="line mark" d="M0,9.393212766874404L1.5384615384615385,9.872129985264344L3.076923076923077,10.447433874720613L4.615384615384616,11.082425855454925L6.153846153846154,11.695727989787164L7.6923076923076925,12.470759806178833L9.230769230769232,13.278601850782135L10.76923076923077,14.307727061566855L12.307692307692308,15.417543053627014L13.846153846153847,16.7934743421418L15.384615384615385,18.372666977700725L16.923076923076923,20.438521745659077L18.461538461538463,23.325553181625537L20,27.2304708049411L21.53846153846154,32.92170699153626L23.076923076923077,40.79724458001909L24.615384615384617,49.98356863146736L26.153846153846157,58.11013962541306L27.692307692307693,64.15675821758448L29.230769230769234,68.60650607517788L30.76923076923077,72.83153697138741L32.30769230769231,77.14477004039854L33.84615384615385,80.81476269733338L35.38461538461539,83.44461165723345L36.92307692307693,85.1527054040205L38.46153846153847,86.49039900019052L40,87.4335564318157L41.53846153846154,88.20591618617374L43.07692307692308,88.90233373358136L44.61538461538462,89.48650665226435L46.15384615384615,89.98286745377946L47.69230769230769,90.45498094388418L49.23076923076923,90.91251006438618L50.76923076923077,91.3327584664027L52.307692307692314,91.78334737107868L53.84615384615385,92.06543032612119L55.38461538461539,92.44349279573984L56.92307692307692,92.88078266240302L58.46153846153847,93.22310789000417L60,93.5367506174814L61.53846153846154,93.86884236619586L63.07692307692307,94.26473400422503L64.61538461538461,94.57422565846215L66.15384615384615,94.89276898758749L67.6923076923077,95.18767978463853L69.23076923076923,95.4476512258961L70.76923076923077,95.8575829153969L72.3076923076923,96.1928136291958L73.84615384615385,96.45413671221051L75.38461538461539,96.73944651370957L76.92307692307693,97.04085283336184L78.46153846153847,97.2262426146439L80,97.51243385530654L81.53846153846153,97.83580771514345L83.07692307692308,98.06842193717048L84.61538461538461,98.2802437884467L86.15384615384616,98.5117135303361L87.6923076923077,98.78562397900082L89.23076923076924,98.99184086493081L90.76923076923077,99.23520496203784L92.3076923076923,99.40763335852395L93.84615384615384,99.60181514422098L95.38461538461539,99.85882703747066L96.92307692307692,100.04475290576616L98.46153846153847,100.24410794888222L100,100.35013673560961L101.53846153846153,100.59412650409197L103.07692307692307,100.76827502676417L104.61538461538463,100.86367811475482L106.15384615384616,101.10669185717902L107.6923076923077,101.27049947068805L109.23076923076923,101.47770728383746L110.76923076923077,101.67600558627218L112.3076923076923,101.79875968467623L113.84615384615384,101.90630743191356L115.38461538461537,102.11209782532283L116.92307692307693,102.28133563484465L118.46153846153847,102.42980995348522L120,102.56966455351737L121.53846153846153,102.72034243458793L123.07692307692308,102.90810785123278L124.61538461538461,103.07303510961077L126.15384615384615,103.18663077695027L127.69230769230768,103.30785754181089L129.23076923076923,103.4512452426411L130.76923076923077,103.714306581588L132.3076923076923,103.82182363952907L133.84615384615384,103.91530156845138L135.3846153846154,104.09729363662855L136.92307692307693,104.30401308195931L138.46153846153845,104.41176444292066L140,104.55481019758042L141.53846153846155,104.75848884809584L143.07692307692307,104.95710284227417L144.6153846153846,105.03962433763914L146.15384615384613,105.22535131091163L147.6923076923077,105.34601970797495L149.23076923076923,105.53057761419387L150.76923076923077,105.6863994825454L152.3076923076923,105.80613627320244L153.84615384615387,106.02523893827481L155.3846153846154,106.17145934984796L156.92307692307693,106.40495341448556L158.46153846153845,106.47357358109385L160,106.69471554103353L161.53846153846155,106.83960935899188L163.07692307692307,106.97834360457598L164.6153846153846,107.1467739485559L166.15384615384616,107.33560912665865L167.6923076923077,107.46961416942733L169.23076923076923,107.6268680038906L170.76923076923077,107.77889319828577L172.30769230769232,107.95923765926133L173.84615384615384,108.14207554573103L175.3846153846154,108.36611741355487L176.9230769230769,108.40882250950447L178.46153846153848,108.62265239868844L180,108.83935824746176L181.53846153846155,108.92039555169286L183.07692307692307,109.15025167521976L184.6153846153846,109.23261624716577L186.15384615384616,109.44157210843903L187.69230769230768,109.61633682960556L189.23076923076923,109.78893378660793L190.76923076923077,109.99387201099168L192.30769230769232,110.08884055273873L193.84615384615384,110.32281897607305L195.3846153846154,110.41118949651718L196.92307692307693,110.64907230791592L198.46153846153845,110.84406471678187L200,111.02197099299657L201.53846153846155,111.22377890916097L203.07692307692307,111.36707479045504L204.61538461538458,111.53431584437685L206.15384615384613,111.69396567912328L207.6923076923077,111.82037098776728L209.23076923076925,112.06830793193409L210.76923076923077,112.1572017314888L212.30769230769232,112.419867480085L213.84615384615384,112.58214662472406L215.3846153846154,112.72590114247232L216.9230769230769,112.92980700021697L218.46153846153845,113.05473670363426L220.00000000000003,113.22690142052511L221.53846153846155,113.43721917697361L223.0769230769231,113.56141162770135L224.6153846153846,113.74900894505639L226.15384615384616,113.89003676317985L227.69230769230768,113.97734947857403L229.23076923076923,114.17073710333732L230.76923076923075,114.41605073355493L232.30769230769232,114.49923004422867L233.84615384615387,114.77618093291917L235.3846153846154,114.89812266968543L236.92307692307693,114.96338996858823L238.46153846153845,115.1045862053122L240,115.26515512239362L241.53846153846152,115.42022788808458L243.07692307692307,115.4671329472746L244.61538461538464,115.61689501007399L246.15384615384616,115.80641720266568L247.6923076923077,115.8978602715901L249.23076923076923,116.01268705867585L250.76923076923077,116.12663148414518L252.3076923076923,116.23765613351549L253.84615384615384,116.35909981670834L255.38461538461536,116.48771259046737L256.92307692307696,116.58166852735337L258.46153846153845,116.66834836914425L260,116.79113578228721L261.53846153846155,116.89456644512359L263.0769230769231,117.00105067519915L264.6153846153846,117.0843973401047L266.15384615384613,117.13930301013447L267.6923076923077,117.18630964557327L269.2307692307692,117.3809278224196L270.7692307692308,117.52066991868475L272.3076923076923,117.44958761902082L273.84615384615387,117.6033685604731L275.38461538461536,117.69520310418946L276.9230769230769,117.80164287913412L278.46153846153845,117.85525448975108L280,117.93112978339194L281.53846153846155,118.03300891603742L283.0769230769231,118.11162960671243L284.61538461538464,118.19974134365717L286.15384615384613,118.28014616455349L287.6923076923077,118.38907393671217L289.2307692307692,118.44795913923356L290.7692307692308,118.45383477352914L292.30769230769226,118.56057512618244L293.84615384615387,118.6638150896345L295.3846153846154,118.68781642544837L296.9230769230769,118.78827501620563L298.46153846153845,118.83750838183221L300,118.86333617426101L301.53846153846155,118.98553509797368L303.0769230769231,119.00465055590583L304.6153846153846,119.10850224750381L306.15384615384613,119.1744093029272L307.69230769230774,119.21558213375863L309.2307692307692,119.26347655909399L310.7692307692308,119.33631861493701L312.3076923076923,119.37368497962045L313.84615384615387,119.45650861376808L315.38461538461536,119.49859421168054L316.9230769230769,119.51379534744082L318.46153846153845,119.58642371353648L320,119.68561698283466L321.53846153846155,119.62117513730412L323.0769230769231,119.73286423654784L324.61538461538464,119.83295828104019L326.15384615384613,119.87240676368987L327.6923076923077,119.86257760297686L329.2307692307692,119.9416760532629L330.7692307692308,120.01116495756875L332.3076923076923,120.02267550144876L333.84615384615387,120.01806132140615L335.3846153846154,120.1201286344301L336.9230769230769,120.22591055858702L338.46153846153845,120.27725314810164L340,120.2521259940806L341.53846153846155,120.29634362884929L343.07692307692304,120.36453481940995L344.61538461538464,120.331407196465L346.1538461538462,120.45447553197542L347.6923076923077,120.49102580973077L349.2307692307692,120.56677032794269L350.7692307692308,120.58261246198698L352.3076923076923,120.65391913056375L353.8461538461538,120.63329088545981L355.38461538461536,120.74413267629487L356.92307692307696,120.78819572925568L358.46153846153845,120.80665120766275L360,120.77125640852108L361.53846153846155,120.8896633414995L363.0769230769231,120.9119448704379L364.6153846153846,121.00139973419051L366.15384615384613,121.02444892128307L367.6923076923077,121.0610319815931L369.2307692307692,121.09944873622486L370.7692307692308,121.15336865896269L372.3076923076923,121.17239854165487L373.84615384615387,121.21705419960476L375.38461538461536,121.29718544227734L376.9230769230769,121.32687927001996L378.46153846153845,121.3191180356911L380,121.34874764652477L381.53846153846155,121.41758359613871L383.0769230769231,121.46930928741182" stroke="#f58518" stroke-width="2"/></g></g><path class="foreground" aria-hidden="true" d="" display="none"/></g><g transform="translate(0,0)"><path class="background" aria-hidden="true" d="M0,0h400v300h-400Z"/><g><g class="mark-line role-mark marks" role="graphics-object" aria-roledescription="line mark container"><path aria-label="Typ: Test; Anzahl Epochen: 0; Mittlerer Fehler: 0.0860519249241" role="graphics-symbol" aria-roledescription="line mark" d="M0,13.16025025314752L1.5384615384615385,13.723190956645503L3.076923076923077,14.242785672346725L4.615384615384616,15.052027834786298L6.153846153846154,15.673314862781107L7.6923076923076925,16.35357141494751L9.230769230769232,17.294570803642273L10.76923076923077,18.376549747255133L12.307692307692308,19.68113382657366L13.846153846153847,21.21049066384635L15.384615384615385,23.014299074808775L16.923076923076923,25.521002875434018L18.461538461538463,28.886022667090096L20,33.692518870035805L21.53846153846154,40.63223948081331L23.076923076923077,49.95284527540205L24.615384615384617,59.360703991519074L26.153846153846157,66.72598123550412L27.692307692307693,72.09091964695185L29.230769230769234,76.2695444954766L30.76923076923077,80.44662045107948L32.30769230769231,84.49181665976843L33.84615384615385,87.58585602045056L35.38461538461539,89.6467960543103L36.92307692307693,91.13470531172221L38.46153846153847,92.2252184814877L40,93.07707548141477L41.53846153846154,93.84343177080152L43.07692307692308,94.38556051916545L44.61538461538462,94.9630926052729L46.15384615384615,95.48524700933034L47.69230769230769,95.90435524781546L49.23076923076923,96.34611904621124L50.76923076923077,96.69669220844904L52.307692307692314,97.02672569288147L53.84615384615385,97.4399240480529L55.38461538461539,97.73658282226985L56.92307692307692,98.11357839239967L58.46153846153847,98.44693856106862L60,98.74273505475786L61.53846153846154,98.9904546075397L63.07692307692307,99.28914639684889L64.61538461538461,99.65959340333937L66.15384615384615,99.8547280828158L67.6923076923077,100.13560636176003L69.23076923076923,100.4244342446327L70.76923076923077,100.68412936396068L72.3076923076923,100.99830213520261L73.84615384615385,101.23280949062772L75.38461538461539,101.49959921836853L76.92307692307693,101.6920601328214L78.46153846153847,101.91974971029494L80,102.0949148469501L81.53846153846153,102.33656954434184L83.07692307692308,102.51454694403542L84.61538461538461,102.7168004049195L86.15384615384616,102.91408747434615L87.6923076923077,103.18486475282243L89.23076923076924,103.34092676639557L90.76923076923077,103.50180036491817L92.3076923076923,103.7414934900072L93.84615384615384,103.84803464015326L95.38461538461539,103.99921155638164L96.92307692307692,104.19178687863877L98.46153846153847,104.36879470944403L100,104.50102835893632L101.53846153846153,104.61064726114272L103.07692307692307,104.81122086445491L104.61538461538463,104.93143614795473L106.15384615384616,105.1211984621154L107.6923076923077,105.24567266305286L109.23076923076923,105.34302526050143L110.76923076923077,105.511707564195L112.3076923076923,105.64661704831654L113.84615384615384,105.733084347513L115.38461538461537,105.89757810036339L116.92307692307693,106.01025828056865L118.46153846153847,106.17118659946652L120,106.26969436804451L121.53846153846153,106.34034292565453L123.07692307692308,106.52655834952988L124.61538461538461,106.61844313144684L126.15384615384615,106.69296193454001L127.69230769230768,106.85067607296837L129.23076923076923,107.0004458228747L130.76923076923077,107.07730733686024L132.3076923076923,107.23772611882953L133.84615384615384,107.37891197204587L135.3846153846154,107.44321569800374L136.92307692307693,107.57016970051659L138.46153846153845,107.7120492855708L140,107.83119996388754L141.53846153846155,107.90343955159189L143.07692307692307,108.04325143496196L144.6153846153846,108.17714366647931L146.15384615384613,108.34047396977742L147.6923076923077,108.43963449199991L149.23076923076923,108.5318773157067L150.76923076923077,108.67875698539945L152.3076923076923,108.76914055811032L153.84615384615387,108.92527790533171L155.3846153846154,109.07902088430193L156.92307692307693,109.18381677733528L158.46153846153845,109.29212694366771L160,109.44541229142084L161.53846153846155,109.59531176421376L163.07692307692307,109.7197034292751L164.6153846153846,109.83355094989139L166.15384615384616,109.98358445035085L167.6923076923077,110.06633465488751L169.23076923076923,110.13105942143333L170.76923076923077,110.31669833593895L172.30769230769232,110.48451579279369L173.84615384615384,110.60981021987067L175.3846153846154,110.70815184050136L176.9230769230769,110.88367319769328L178.46153846153848,110.97126570012834L180,111.08969607286983L181.53846153846155,111.23332646158006L183.07692307692307,111.36921470363936L184.6153846153846,111.54270577761861L186.15384615384616,111.65751434034772L187.69230769230768,111.77998731533685L189.23076923076923,111.85492558611762L190.76923076923077,112.02516787581973L192.30769230769232,112.21394050452444L193.84615384615384,112.32062959008745L195.3846153846154,112.45128967695763L196.92307692307693,112.65983796781964L198.46153846153845,112.74864375591277L200,112.87271314197115L201.53846153846155,113.05435780021878L203.07692307692307,113.23105750812425L204.61538461538458,113.26870057317944L206.15384615384613,113.4608848227395L207.6923076923077,113.65301460027695L209.23076923076925,113.77642850081124L210.76923076923077,113.8098456793361L212.30769230769232,114.03844936026465L213.84615384615384,114.21436038282182L215.3846153846154,114.30688566631743L216.9230769230769,114.42907874782877L218.46153846153845,114.5903382864263L220.00000000000003,114.74545308285289L221.53846153846155,114.91750164164436L223.0769230769231,115.01670744684007L224.6153846153846,115.20405809084573L226.15384615384616,115.19210802184209L227.69230769230768,115.47606678472626L229.23076923076923,115.59551109870276L230.76923076923075,115.6237534350819L232.30769230769232,115.77423984805742L233.84615384615387,115.97042597002451L235.3846153846154,116.06834944751525L236.92307692307693,116.17721509602336L238.46153846153845,116.23857973350418L240,116.41266387369896L241.53846153846152,116.49213549163605L243.07692307692307,116.68179432551065L244.61538461538464,116.70704450872209L246.15384615384616,116.79695695638657L247.6923076923077,116.92841061287453L249.23076923076923,116.97161371509233L250.76923076923077,117.14249799648921L252.3076923076923,117.193958742751L253.84615384615384,117.2707971599367L255.38461538461536,117.47629079553815L256.92307692307696,117.4965888261795L258.46153846153845,117.59740718536908L260,117.68528049190836L261.53846153846155,117.83258252673677L263.0769230769231,117.8763464093208L264.6153846153846,117.87195884519153L266.15384615384613,117.93132142888176L267.6923076923077,118.11517228682835L269.2307692307692,118.15523331363995L270.7692307692308,118.20146805710262L272.3076923076923,118.23616847395895L273.84615384615387,118.3352027502325L275.38461538461536,118.46176385879517L276.9230769230769,118.4579513967037L278.46153846153845,118.53402977188425L280,118.60907516545718L281.53846153846155,118.67480460140439L283.0769230769231,118.68634099761644L284.61538461538464,118.78090070353613L286.15384615384613,118.80612033936711L287.6923076923077,118.93235908614265L289.2307692307692,118.87893999616303L290.7692307692308,118.97781549228563L292.30769230769226,119.02439072728157L293.84615384615387,119.10226245721182L295.3846153846154,119.07943213979405L296.9230769230769,119.19001075956554L298.46153846153845,119.15536398688953L300,119.26405727863312L301.53846153846155,119.28234754337204L303.0769230769231,119.36597778565356L304.6153846153846,119.38271671533583L306.15384615384613,119.43509288960031L307.69230769230774,119.48766973283557L309.2307692307692,119.44353729486465L310.7692307692308,119.56791025069026L312.3076923076923,119.55604073074127L313.84615384615387,119.59569835000568L315.38461538461536,119.67458410395514L316.9230769230769,119.70900214380687L318.46153846153845,119.76522306601206L320,119.8137231171131L321.53846153846155,119.78740427229138L323.0769230769231,119.84631501966052L324.61538461538464,119.8671967618995L326.15384615384613,119.86487127012676L327.6923076923077,119.96439902318846L329.2307692307692,119.95520268877348L330.7692307692308,119.9484652115239L332.3076923076923,119.94432202643819L333.84615384615387,120.08638630310693L335.3846153846154,120.073178741667L336.9230769230769,120.09057104587552L338.46153846153845,120.13768015636337L340,120.13513694206871L341.53846153846155,120.2537832988633L343.07692307692304,120.26497655444675L344.61538461538464,120.27168075243631L346.1538461538462,120.30919674370023L347.6923076923077,120.32375832398733L349.2307692307692,120.27890019946626L350.7692307692308,120.38650040825208L352.3076923076923,120.32545854647952L353.8461538461538,120.43123030000264L355.38461538461536,120.454116910696L356.92307692307696,120.49287623829312L358.46153846153845,120.42517968349988L360,120.44172030356192L361.53846153846155,120.52200527654753L363.0769230769231,120.58167689376408L364.6153846153846,120.6513926386833L366.15384615384613,120.60473180479472L367.6923076923077,120.56914990146954L369.2307692307692,120.59673882193034L370.7692307692308,120.59048248661887L372.3076923076923,120.69324536456001L373.84615384615387,120.7420573880275L375.38461538461536,120.81364418069522L376.9230769230769,120.73681470420622L378.46153846153845,120.8165587650405L380,120.7964838378959L381.53846153846155,120.7482309805022L383.0769230769231,120.8680317633682" stroke="#4c78a8" stroke-width="2"/></g></g><path class="foreground" aria-hidden="true" d="" display="none"/></g></g><g class="mark-group role-legend" role="graphics-symbol" aria-roledescription="legend" aria-label="Symbol legend titled 'Typ' for stroke color with 2 values: Test, Train"><g transform="translate(418,0)"><path class="background" aria-hidden="true" d="M0,0h39v40h-39Z" pointer-events="none"/><g><g class="mark-group role-legend-entry"><g transform="translate(0,16)"><path class="background" aria-hidden="true" d="M0,0h0v0h0Z" pointer-events="none"/><g><g class="mark-group role-scope" role="graphics-object" aria-roledescription="group mark container"><g transform="translate(0,0)"><path class="background" aria-hidden="true" d="M0,0h38.412109375v11h-38.412109375Z" pointer-events="none" opacity="1"/><g><g class="mark-symbol role-legend-symbol" pointer-events="none"><path transform="translate(6,6)" d="M-5,0L5,0" stroke="#4c78a8" stroke-width="1.5" opacity="1"/></g><g class="mark-text role-legend-label" pointer-events="none"><text text-anchor="start" transform="translate(16,9)" font-family="sans-serif" font-size="10px" fill="#000" opacity="1">Test</text></g></g><path class="foreground" aria-hidden="true" d="" pointer-events="none" display="none"/></g><g transform="translate(0,13)"><path class="background" aria-hidden="true" d="M0,0h38.412109375v11h-38.412109375Z" pointer-events="none" opacity="1"/><g><g class="mark-symbol role-legend-symbol" pointer-events="none"><path transform="translate(6,6)" d="M-5,0L5,0" stroke="#f58518" stroke-width="1.5" opacity="1"/></g><g class="mark-text role-legend-label" pointer-events="none"><text text-anchor="start" transform="translate(16,9)" font-family="sans-serif" font-size="10px" fill="#000" opacity="1">Train</text></g></g><path class="foreground" aria-hidden="true" d="" pointer-events="none" display="none"/></g></g></g><path class="foreground" aria-hidden="true" d="" pointer-events="none" display="none"/></g></g><g class="mark-text role-legend-title" pointer-events="none"><text text-anchor="start" transform="translate(0,9)" font-family="sans-serif" font-size="11px" font-weight="bold" fill="#000" opacity="1">Typ</text></g></g><path class="foreground" aria-hidden="true" d="" pointer-events="none" display="none"/></g></g></g><path class="foreground" aria-hidden="true" d="" display="none"/></g></g></g></svg>