<svg xmlns="http://www.w3.org/2000/svg" xmlns:xlink="http://www.w3.org/1999/xlink" version="1.1" class="marks" width="509" height="347" viewBox="0 0 509 347"><rect width="509" height="347" fill="white"/><g fill="none" stroke-miterlimit="10" transform="translate(47,10)"><g class="mark-group role-frame root" role="graphics-object" aria-roledescription="group mark container"><g transform="translate(0,0)"><path class="background" aria-hidden="true" d="M0.5,0.5h400v300h-400Z" stroke="#ddd"/><g><g class="mark-group role-axis" aria-hidden="true"><g transform="translate(0.5,300.5)"><path class="background" aria-hidden="true" d="M0,0h0v0h0Z" pointer-events="none"/><g><g class="mark-rule role-axis-grid" pointer-events="none"><line transform="translate(0,-300)" x2="0" y2="300" stroke="#ddd" stroke-width="1" opacity="1"/><line transform="translate(40,-300)" x2="0" y2="300" stroke="#ddd" stroke-width="1" opacity="1"/><line transform="translate(80,-300)" x2="0" y2="300" stroke="#ddd" stroke-width="1" opacity="1"/><line transform="translate(120,-300)" x2="0" y2="300" stroke="#ddd" stroke-width="1" opacity="1"/><line transform="translate(160,-300)" x2="0" y2="300" stroke="#ddd" stroke-width="1" opacity="1"/><line transform="translate(200,-300)" x2="0" y2="300" stroke="#ddd" stroke-width="1" opacity="1"/><line transform="translate(240,-300)" x2="0" y2="300" stroke="#ddd" stroke-width="1" opacity="1"/><line transform="translate(280,-300)" x2="0" y2="300" stroke="#ddd" stroke-width="1" opacity="1"/><line transform="translate(320,-300)" x2="0" y2="300" stroke="#ddd" stroke-width="1" opacity="1"/><line transform="translate(360,-300)" x2="0" y2="300" stroke="#ddd" stroke-width="1" opacity="1"/><line transform="translate(400,-300)" x2="0" y2="300" stroke="#ddd" stroke-width="1" opacity="1"/></g></g><path class="foreground" aria-hidden="true" d="" pointer-events="none" display="none"/></g></g><g class="mark-group role-axis" aria-hidden="true"><g transform="translate(0.5,0.5)"><path class="background" aria-hidden="true" d="M0,0h0v0h0Z" pointer-events="none"/><g><g class="mark-rule role-axis-grid" pointer-events="none"><line transform="translate(0,300)" x2="400" y2="0" stroke="#ddd" stroke-width="1" opacity="1"/><line transform="translate(0,263)" x2="400" y2="0" stroke="#ddd" stroke-width="1" opacity="1"/><line transform="translate(0,225)" x2="400" y2="0" stroke="#ddd" stroke-width="1" opacity="1"/><line transform="translate(0,188)" x2="400" y2="0" stroke="#ddd" stroke-width="1" opacity="1"/><line transform="translate(0,150)" x2="400" y2="0" stroke="#ddd" stroke-width="1" opacity="1"/><line transform="translate(0,113)" x2="400" y2="0" stroke="#ddd" stroke-width="1" opacity="1"/><line transform="translate(0,75)" x2="400" y2="0" stroke="#ddd" stroke-width="1" opacity="1"/><line transform="translate(0,38)" x2="400" y2="0" stroke="#ddd" stroke-width="1" opacity="1"/><line transform="translate(0,0)" x2="400" y2="0" stroke="#ddd" stroke-width="1" opacity="1"/></g></g><path class="foreground" aria-hidden="true" d="" pointer-events="none" display="none"/></g></g><g class="mark-group role-axis" role="graphics-symbol" aria-roledescription="axis" aria-label="X-axis titled 'Anzahl Epochen' for a linear scale with values from 0 to 200"><g transform="translate(0.5,300.5)"><path class="background" aria-hidden="true" d="M0,0h0v0h0Z" pointer-events="none"/><g><g class="mark-rule role-axis-tick" pointer-events="none"><line transform="translate(0,0)" x2="0" y2="5" stroke="#888" stroke-width="1" opacity="1"/><line transform="translate(40,0)" x2="0" y2="5" stroke="#888" stroke-width="1" opacity="1"/><line transform="translate(80,0)" x2="0" y2="5" stroke="#888" stroke-width="1" opacity="1"/><line transform="translate(120,0)" x2="0" y2="5" stroke="#888" stroke-width="1" opacity="1"/><line transform="translate(160,0)" x2="0" y2="5" stroke="#888" stroke-width="1" opacity="1"/><line transform="translate(200,0)" x2="0" y2="5" stroke="#888" stroke-width="1" opacity="1"/><line transform="translate(240,0)" x2="0" y2="5" stroke="#888" stroke-width="1" opacity="1"/><line transform="translate(280,0)" x2="0" y2="5" stroke="#888" stroke-width="1" opacity="1"/><line transform="translate(320,0)" x2="0" y2="5" stroke="#888" stroke-width="1" opacity="1"/><line transform="translate(360,0)" x2="0" y2="5" stroke="#888" stroke-width="1" opacity="1"/><line transform="translate(400,0)" x2="0" y2="5" stroke="#888" stroke-width="1" opacity="1"/></g><g class="mark-text role-axis-label" pointer-events="none"><text text-anchor="start" transform="translate(0,15)" font-family="sans-serif" font-size="10px" fill="#000" opacity="1">0</text><text text-anchor="middle" transform="translate(40,15)" font-family="sans-serif" font-size="10px" fill="#000" opacity="1">20</text><text text-anchor="middle" transform="translate(80,15)" font-family="sans-serif" font-size="10px" fill="#000" opacity="1">40</text><text text-anchor="middle" transform="translate(120,15)" font-family="sans-serif" font-size="10px" fill="#000" opacity="1">60</text><text text-anchor="middle" transform="translate(160,15)" font-family="sans-serif" font-size="10px" fill="#000" opacity="1">80</text><text text-anchor="middle" transform="translate(200,15)" font-family="sans-serif" font-size="10px" fill="#000" opacity="1">100</text><text text-anchor="middle" transform="translate(240,15)" font-family="sans-serif" font-size="10px" fill="#000" opacity="1">120</text><text text-anchor="middle" transform="translate(280,15)" font-family="sans-serif" font-size="10px" fill="#000" opacity="1">140</text><text text-anchor="middle" transform="translate(320,15)" font-family="sans-serif" font-size="10px" fill="#000" opacity="1">160</text><text text-anchor="middle" transform="translate(360,15)" font-family="sans-serif" font-size="10px" fill="#000" opacity="1">180</text><text text-anchor="end" transform="translate(400,15)" font-family="sans-serif" font-size="10px" fill="#000" opacity="1">200</text></g><g class="mark-rule role-axis-domain" pointer-events="none"><line transform="translate(0,0)" x2="400" y2="0" stroke="#888" stroke-width="1" opacity="1"/></g><g class="mark-text role-axis-title" pointer-events="none"><text text-anchor="middle" transform="translate(200,30)" font-family="sans-serif" font-size="11px" font-weight="bold" fill="#000" opacity="1">Anzahl Epochen</text></g></g><path class="foreground" aria-hidden="true" d="" pointer-events="none" display="none"/></g></g><g class="mark-group role-axis" role="graphics-symbol" aria-roledescription="axis" aria-label="Y-axis titled 'Genauigkeit' for a linear scale with values from 0.0 to 0.4"><g transform="translate(0.5,0.5)"><path class="background" aria-hidden="true" d="M0,0h0v0h0Z" pointer-events="none"/><g><g class="mark-rule role-axis-tick" pointer-events="none"><line transform="translate(0,300)" x2="-5" y2="0" stroke="#888" stroke-width="1" opacity="1"/><line transform="translate(0,263)" x2="-5" y2="0" stroke="#888" stroke-width="1" opacity="1"/><line transform="translate(0,225)" x2="-5" y2="0" stroke="#888" stroke-width="1" opacity="1"/><line transform="translate(0,188)" x2="-5" y2="0" stroke="#888" stroke-width="1" opacity="1"/><line transform="translate(0,150)" x2="-5" y2="0" stroke="#888" stroke-width="1" opacity="1"/><line transform="translate(0,113)" x2="-5" y2="0" stroke="#888" stroke-width="1" opacity="1"/><line transform="translate(0,75)" x2="-5" y2="0" stroke="#888" stroke-width="1" opacity="1"/><line transform="translate(0,38)" x2="-5" y2="0" stroke="#888" stroke-width="1" opacity="1"/><line transform="translate(0,0)" x2="-5" y2="0" stroke="#888" stroke-width="1" opacity="1"/></g><g class="mark-text role-axis-label" pointer-events="none"><text text-anchor="end" transform="translate(-7,303)" font-family="sans-serif" font-size="10px" fill="#000" opacity="1">0.00</text><text text-anchor="end" transform="translate(-7,265.5)" font-family="sans-serif" font-size="10px" fill="#000" opacity="1">0.05</text><text text-anchor="end" transform="translate(-7,228)" font-family="sans-serif" font-size="10px" fill="#000" opacity="1">0.10</text><text text-anchor="end" transform="translate(-7,190.5)" font-family="sans-serif" font-size="10px" fill="#000" opacity="1">0.15</text><text text-anchor="end" transform="translate(-7,153)" font-family="sans-serif" font-size="10px" fill="#000" opacity="1">0.20</text><text text-anchor="end" transform="translate(-7,115.5)" font-family="sans-serif" font-size="10px" fill="#000" opacity="1">0.25</text><text text-anchor="end" transform="translate(-7,78.00000000000003)" font-family="sans-serif" font-size="10px" fill="#000" opacity="1">0.30</text><text text-anchor="end" transform="translate(-7,40.500000000000036)" font-family="sans-serif" font-size="10px" fill="#000" opacity="1">0.35</text><text text-anchor="end" transform="translate(-7,3)" font-family="sans-serif" font-size="10px" fill="#000" opacity="1">0.40</text></g><g class="mark-rule role-axis-domain" pointer-events="none"><line transform="translate(0,300)" x2="0" y2="-300" stroke="#888" stroke-width="1" opacity="1"/></g><g class="mark-text role-axis-title" pointer-events="none"><text text-anchor="middle" transform="translate(-30.462890625,150) rotate(-90) translate(0,-2)" font-family="sans-serif" font-size="11px" font-weight="bold" fill="#000" opacity="1">Genauigkeit</text></g></g><path class="foreground" aria-hidden="true" d="" pointer-events="none" display="none"/></g></g><g class="mark-group role-scope pathgroup" role="graphics-object" aria-roledescription="group mark container"><g transform="translate(0,0)"><path class="background" aria-hidden="true" d="M0,0h400v300h-400Z"/><g><g class="mark-line role-mark marks" role="graphics-object" aria-roledescription="line mark container"><path aria-label="Typ: Train; Anzahl Epochen: 1; Genauigkeit: 0" role="graphics-symbol" aria-roledescription="line mark" d="M2,300L4,300L6,300L8,300L10,300L12,298.92780554364435L14.000000000000002,284.185132663697L16,273.99928607046604L18,290.8863476011902L20,280.7005003094673L22,243.97784024477005L24,210.73981672525406L26,182.3266625404358L28.000000000000004,163.8313114643097L30,150.42888298630714L32,135.95425263047218L34,126.30450278520584L36,117.45890155434608L38,112.90207430720329L40,108.3452358841896L42,103.25232446193695L44,99.23160374164581L46,97.89134860038757L48,94.67477649450302L50,92.5303727388382L52,90.65403342247009L54,91.45818203687668L56.00000000000001,90.92209786176682L57.99999999999999,88.24160993099213L60,86.0972061753273L62,85.56112200021744L64,84.2208668589592L66,82.61256963014603L68,82.3445275425911L70,81.27233684062958L72,80.46818822622299L74,80.46818822622299L76,80.46818822622299L78,79.6640396118164L80,79.6640396118164L82,79.6640396118164L84,79.12795543670654L86,79.6640396118164L88,78.32380682229996L90,78.59184890985489L92,78.05576473474503L94,77.7877002954483L96,77.25161612033844L98,76.17940306663513L100,76.71550959348679L102,76.44746750593185L104,75.64331889152527L106,75.37527680397034L108,75.10721236467361L110.00000000000001,74.0350216627121L112.00000000000001,74.30306375026703L113.99999999999999,74.0350216627121L115.99999999999999,73.76697957515717L118,73.49893748760223L120,72.96283096075058L122,72.69478887319565L124,71.35453373193741L126,70.81844955682755L128,70.01430094242096L130,69.4781944155693L132,68.94211024045944L134,66.26162230968475L136,62.77698576450348L138,61.97283715009689L140,57.68405199050903L142,52.055034041404724L144,47.49820679426193L146,45.085783302783966L148,41.06504023075104L150,39.72480744123459L152,37.31236159801483L154,37.0443195104599L156,35.1679801940918L158,32.75553435087204L160,32.21945017576218L162,31.41530156135559L164,30.879195034503937L166,29.80700433254242L168,29.538962244987488L170,29.80700433254242L172,28.46677154302597L174,27.394558489322662L176,26.8584743142128L178,26.8584743142128L180,26.054325699806213L182,26.322367787361145L184,25.51821917295456L186,25.250177085399628L188,25.250177085399628L190,23.105795681476593L192,22.83773124217987L194,21.49749845266342L196,21.49749845266342L198,21.22945636510849L200,21.22945636510849L202,20.961391925811768L204,20.693349838256836L206,20.157265663146973L208,19.085052609443665L210,19.353117048740387L212,19.085052609443665L214,18.817010521888733L216,18.817010521888733L218.00000000000003,18.5489684343338L220.00000000000003,18.5489684343338L222.00000000000003,18.5489684343338L224.00000000000003,18.012861907482147L225.99999999999997,16.6726291179657L227.99999999999997,17.20871329307556L229.99999999999997,16.94067120552063L231.99999999999997,16.94067120552063L234,16.404564678668976L236,16.94067120552063L238,16.404564678668976L240,16.404564678668976L242,15.600438416004181L244,15.868480503559113L246,15.600438416004181L248,15.332373976707458L250,15.064331889152527L252,15.332373976707458L254,15.064331889152527L256,14.796289801597595L258,14.528225362300873L260,15.064331889152527L262,14.796289801597595L264,14.528225362300873L266,14.796289801597595L268,13.724099099636078L270,13.724099099636078L272,13.724099099636078L274,13.187992572784424L276,12.919950485229492L278,13.456034660339355L280,12.919950485229492L282,12.383843958377838L284,12.383843958377838L286,11.579695343971252L288,12.383843958377838L290,11.847737431526184L292,11.847737431526184L294,11.31165325641632L296,11.31165325641632L298,11.04361116886139L300,11.31165325641632L302,11.04361116886139L304,11.04361116886139L306,11.31165325641632L308,11.04361116886139L310,11.04361116886139L312,11.31165325641632L314,11.04361116886139L316,10.775546729564667L318,11.31165325641632L320,11.04361116886139L322,11.04361116886139L324,10.775546729564667L326,10.507504642009735L328,10.507504642009735L330,10.775546729564667L332,9.971398115158081L334,10.507504642009735L336,10.507504642009735L338,9.971398115158081L340,9.971398115158081L342,10.507504642009735L344,10.239462554454803L346,10.507504642009735L348,9.70335602760315L350,10.239462554454803L352,10.507504642009735L354,10.239462554454803L356,10.239462554454803L358,9.971398115158081L360,10.507504642009735L362,9.971398115158081L364,9.971398115158081L366,9.971398115158081L368,9.971398115158081L370,9.70335602760315L372,9.70335602760315L374,9.70335602760315L376,9.971398115158081L378,9.70335602760315L380,9.70335602760315L382,9.70335602760315L384,9.435313940048218L386,9.70335602760315L388,9.70335602760315L390,9.435313940048218L392,9.435313940048218L394,9.435313940048218L396,9.435313940048218L398,9.435313940048218" stroke="#f58518" stroke-width="2"/></g></g><path class="foreground" aria-hidden="true" d="" display="none"/></g><g transform="translate(0,0)"><path class="background" aria-hidden="true" d="M0,0h400v300h-400Z"/><g><g class="mark-line role-mark marks" role="graphics-object" aria-roledescription="line mark container"><path aria-label="Typ: Test; Anzahl Epochen: 1; Genauigkeit: 0" role="graphics-symbol" aria-roledescription="line mark" d="M2,300L4,300L6,300L8,300L10,300L12,290.61718094162643L14.000000000000002,266.22185222804546L16,275.60466919094324L18,285.61301082372665L20,251.20933838188648L22,204.29525077342987L24,185.52961125969887L26,166.76397174596786L28.000000000000004,159.25770923495293L30,142.36864373087883L32,131.10925555229187L34,131.10925555229187L36,131.10925555229187L38,123.60300421714783L40,122.35195487737656L42,116.72226637601852L44,110.46706438064575L46,106.71393871307373L48,109.21601504087448L50,107.33945220708847L52,106.71393871307373L54,102.96079069375992L56.00000000000001,101.08422785997391L57.99999999999999,95.45453935861588L60,101.08422785997391L62,93.57797652482986L64,92.32694953680038L66,96.0800752043724L68,92.95246303081512L70,87.94828802347183L72,92.32694953680038L74,89.82485085725784L76,91.07590019702911L78,91.07590019702911L80,91.70141369104385L82,92.32694953680038L84,89.1993373632431L86,90.45036435127258L88,88.57380151748657L90,91.70141369104385L92,87.32277452945709L94,86.69723868370056L96,84.19516235589981L98,91.07590019702911L100,87.32277452945709L102,85.44621169567108L104,85.44621169567108L106,84.19516235589981L108,83.56964886188507L110.00000000000001,84.82067584991455L112.00000000000001,84.82067584991455L113.99999999999999,84.19516235589981L115.99999999999999,83.56964886188507L118,81.06755018234253L120,83.56964886188507L122,81.69308602809906L124,81.69308602809906L126,82.3185995221138L128,81.06755018234253L130,82.3185995221138L132,81.06755018234253L134,78.56547385454178L136,79.19098734855652L138,77.31442451477051L140,70.4336866736412L142,66.68056100606918L144,67.30609685182571L146,63.55297118425369L148,59.17430967092514L150,58.5487961769104L152,58.5487961769104L154,56.67223334312439L156,56.04669749736786L158,54.79567050933838L160,54.79567050933838L162,54.17013466358185L164,54.17013466358185L166,54.17013466358185L168,54.79567050933838L170,54.17013466358185L172,54.17013466358185L174,54.17013466358185L176,53.54462116956711L178,53.54462116956711L180,53.54462116956711L182,52.91910767555237L184,52.91910767555237L186,52.91910767555237L188,52.29357182979584L190,49.16598200798035L192,49.79149550199509L194,49.16598200798035L196,49.16598200798035L198,49.79149550199509L200,49.16598200798035L202,48.540446162223816L204,48.540446162223816L206,48.540446162223816L208,47.914932668209076L210,47.914932668209076L212,47.914932668209076L214,47.914932668209076L216,46.038369834423065L218.00000000000003,46.038369834423065L220.00000000000003,46.038369834423065L222.00000000000003,45.412833988666534L224.00000000000003,44.787320494651794L225.99999999999997,45.412833988666534L227.99999999999997,44.787320494651794L229.99999999999997,44.787320494651794L231.99999999999997,44.787320494651794L234,44.787320494651794L236,43.536271154880524L238,43.536271154880524L240,42.285244166851044L242,42.285244166851044L244,42.285244166851044L246,42.285244166851044L248,42.285244166851044L250,40.40868133306503L252,40.40868133306503L254,39.7831454873085L256,39.15763199329376L258,39.15763199329376L260,38.53211849927902L262,39.15763199329376L264,38.53211849927902L266,39.15763199329376L268,37.90658265352249L270,39.15763199329376L272,37.90658265352249L274,37.28106915950775L276,37.28106915950775L278,37.28106915950775L280,37.28106915950775L282,38.53211849927902L284,37.90658265352249L286,37.28106915950775L288,37.28106915950775L290,37.90658265352249L292,37.28106915950775L294,37.28106915950775L296,37.28106915950775L298,37.28106915950775L300,37.28106915950775L302,37.90658265352249L304,37.28106915950775L306,37.90658265352249L308,37.28106915950775L310,37.28106915950775L312,37.90658265352249L314,37.90658265352249L316,37.90658265352249L318,37.90658265352249L320,37.90658265352249L322,37.90658265352249L324,37.90658265352249L326,37.90658265352249L328,37.90658265352249L330,37.90658265352249L332,38.53211849927902L334,40.40868133306503L336,37.90658265352249L338,37.90658265352249L340,37.90658265352249L342,37.28106915950775L344,37.90658265352249L346,37.90658265352249L348,37.28106915950775L350,37.28106915950775L352,37.90658265352249L354,36.65555566549301L356,37.90658265352249L358,38.53211849927902L360,36.65555566549301L362,36.65555566549301L364,36.65555566549301L366,37.28106915950775L368,37.28106915950775L370,36.03001981973648L372,37.28106915950775L374,37.90658265352249L376,36.65555566549301L378,35.40450632572174L380,36.03001981973648L382,36.65555566549301L384,36.65555566549301L386,36.03001981973648L388,37.28106915950775L390,36.65555566549301L392,36.65555566549301L394,36.65555566549301L396,36.65555566549301L398,38.53211849927902" stroke="#4c78a8" stroke-width="2"/></g></g><path class="foreground" aria-hidden="true" d="" display="none"/></g></g><g class="mark-group role-legend" role="graphics-symbol" aria-roledescription="legend" aria-label="Symbol legend titled 'Typ' for stroke color with 2 values: Test, Train"><g transform="translate(418,0)"><path class="background" aria-hidden="true" d="M0,0h39v40h-39Z" pointer-events="none"/><g><g class="mark-group role-legend-entry"><g transform="translate(0,16)"><path class="background" aria-hidden="true" d="M0,0h0v0h0Z" pointer-events="none"/><g><g class="mark-group role-scope" role="graphics-object" aria-roledescription="group mark container"><g transform="translate(0,0)"><path class="background" aria-hidden="true" d="M0,0h38.412109375v11h-38.412109375Z" pointer-events="none" opacity="1"/><g><g class="mark-symbol role-legend-symbol" pointer-events="none"><path transform="translate(6,6)" d="M-5,0L5,0" stroke="#4c78a8" stroke-width="1.5" opacity="1"/></g><g class="mark-text role-legend-label" pointer-events="none"><text text-anchor="start" transform="translate(16,9)" font-family="sans-serif" font-size="10px" fill="#000" opacity="1">Test</text></g></g><path class="foreground" aria-hidden="true" d="" pointer-events="none" display="none"/></g><g transform="translate(0,13)"><path class="background" aria-hidden="true" d="M0,0h38.412109375v11h-38.412109375Z" pointer-events="none" opacity="1"/><g><g class="mark-symbol role-legend-symbol" pointer-events="none"><path transform="translate(6,6)" d="M-5,0L5,0" stroke="#f58518" stroke-width="1.5" opacity="1"/></g><g class="mark-text role-legend-label" pointer-events="none"><text text-anchor="start" transform="translate(16,9)" font-family="sans-serif" font-size="10px" fill="#000" opacity="1">Train</text></g></g><path class="foreground" aria-hidden="true" d="" pointer-events="none" display="none"/></g></g></g><path class="foreground" aria-hidden="true" d="" pointer-events="none" display="none"/></g></g><g class="mark-text role-legend-title" pointer-events="none"><text text-anchor="start" transform="translate(0,9)" font-family="sans-serif" font-size="11px" font-weight="bold" fill="#000" opacity="1">Typ</text></g></g><path class="foreground" aria-hidden="true" d="" pointer-events="none" display="none"/></g></g></g><path class="foreground" aria-hidden="true" d="" display="none"/></g></g></g></svg>