<svg xmlns="http://www.w3.org/2000/svg" xmlns:xlink="http://www.w3.org/1999/xlink" version="1.1" class="marks" width="509" height="347" viewBox="0 0 509 347"><rect width="509" height="347" fill="white"/><g fill="none" stroke-miterlimit="10" transform="translate(47,10)"><g class="mark-group role-frame root" role="graphics-object" aria-roledescription="group mark container"><g transform="translate(0,0)"><path class="background" aria-hidden="true" d="M0.5,0.5h400v300h-400Z" stroke="#ddd"/><g><g class="mark-group role-axis" aria-hidden="true"><g transform="translate(0.5,300.5)"><path class="background" aria-hidden="true" d="M0,0h0v0h0Z" pointer-events="none"/><g><g class="mark-rule role-axis-grid" pointer-events="none"><line transform="translate(0,-300)" x2="0" y2="300" stroke="#ddd" stroke-width="1" opacity="1"/><line transform="translate(40,-300)" x2="0" y2="300" stroke="#ddd" stroke-width="1" opacity="1"/><line transform="translate(80,-300)" x2="0" y2="300" stroke="#ddd" stroke-width="1" opacity="1"/><line transform="translate(120,-300)" x2="0" y2="300" stroke="#ddd" stroke-width="1" opacity="1"/><line transform="translate(160,-300)" x2="0" y2="300" stroke="#ddd" stroke-width="1" opacity="1"/><line transform="translate(200,-300)" x2="0" y2="300" stroke="#ddd" stroke-width="1" opacity="1"/><line transform="translate(240,-300)" x2="0" y2="300" stroke="#ddd" stroke-width="1" opacity="1"/><line transform="translate(280,-300)" x2="0" y2="300" stroke="#ddd" stroke-width="1" opacity="1"/><line transform="translate(320,-300)" x2="0" y2="300" stroke="#ddd" stroke-width="1" opacity="1"/><line transform="translate(360,-300)" x2="0" y2="300" stroke="#ddd" stroke-width="1" opacity="1"/><line transform="translate(400,-300)" x2="0" y2="300" stroke="#ddd" stroke-width="1" opacity="1"/></g></g><path class="foreground" aria-hidden="true" d="" pointer-events="none" display="none"/></g></g><g class="mark-group role-axis" aria-hidden="true"><g transform="translate(0.5,0.5)"><path class="background" aria-hidden="true" d="M0,0h0v0h0Z" pointer-events="none"/><g><g class="mark-rule role-axis-grid" pointer-events="none"><line transform="translate(0,300)" x2="400" y2="0" stroke="#ddd" stroke-width="1" opacity="1"/><line transform="translate(0,250)" x2="400" y2="0" stroke="#ddd" stroke-width="1" opacity="1"/><line transform="translate(0,200)" x2="400" y2="0" stroke="#ddd" stroke-width="1" opacity="1"/><line transform="translate(0,150)" x2="400" y2="0" stroke="#ddd" stroke-width="1" opacity="1"/><line transform="translate(0,100)" x2="400" y2="0" stroke="#ddd" stroke-width="1" opacity="1"/><line transform="translate(0,50)" x2="400" y2="0" stroke="#ddd" stroke-width="1" opacity="1"/><line transform="translate(0,0)" x2="400" y2="0" stroke="#ddd" stroke-width="1" opacity="1"/></g></g><path class="foreground" aria-hidden="true" d="" pointer-events="none" display="none"/></g></g><g class="mark-group role-axis" role="graphics-symbol" aria-roledescription="axis" aria-label="X-axis titled 'Anzahl Epochen' for a linear scale with values from 0 to 200"><g transform="translate(0.5,300.5)"><path class="background" aria-hidden="true" d="M0,0h0v0h0Z" pointer-events="none"/><g><g class="mark-rule role-axis-tick" pointer-events="none"><line transform="translate(0,0)" x2="0" y2="5" stroke="#888" stroke-width="1" opacity="1"/><line transform="translate(40,0)" x2="0" y2="5" stroke="#888" stroke-width="1" opacity="1"/><line transform="translate(80,0)" x2="0" y2="5" stroke="#888" stroke-width="1" opacity="1"/><line transform="translate(120,0)" x2="0" y2="5" stroke="#888" stroke-width="1" opacity="1"/><line transform="translate(160,0)" x2="0" y2="5" stroke="#888" stroke-width="1" opacity="1"/><line transform="translate(200,0)" x2="0" y2="5" stroke="#888" stroke-width="1" opacity="1"/><line transform="translate(240,0)" x2="0" y2="5" stroke="#888" stroke-width="1" opacity="1"/><line transform="translate(280,0)" x2="0" y2="5" stroke="#888" stroke-width="1" opacity="1"/><line transform="translate(320,0)" x2="0" y2="5" stroke="#888" stroke-width="1" opacity="1"/><line transform="translate(360,0)" x2="0" y2="5" stroke="#888" stroke-width="1" opacity="1"/><line transform="translate(400,0)" x2="0" y2="5" stroke="#888" stroke-width="1" opacity="1"/></g><g class="mark-text role-axis-label" pointer-events="none"><text text-anchor="start" transform="translate(0,15)" font-family="sans-serif" font-size="10px" fill="#000" opacity="1">0</text><text text-anchor="middle" transform="translate(40,15)" font-family="sans-serif" font-size="10px" fill="#000" opacity="1">20</text><text text-anchor="middle" transform="translate(80,15)" font-family="sans-serif" font-size="10px" fill="#000" opacity="1">40</text><text text-anchor="middle" transform="translate(120,15)" font-family="sans-serif" font-size="10px" fill="#000" opacity="1">60</text><text text-anchor="middle" transform="translate(160,15)" font-family="sans-serif" font-size="10px" fill="#000" opacity="1">80</text><text text-anchor="middle" transform="translate(200,15)" font-family="sans-serif" font-size="10px" fill="#000" opacity="1">100</text><text text-anchor="middle" transform="translate(240,15)" font-family="sans-serif" font-size="10px" fill="#000" opacity="1">120</text><text text-anchor="middle" transform="translate(280,15)" font-family="sans-serif" font-size="10px" fill="#000" opacity="1">140</text><text text-anchor="middle" transform="translate(320,15)" font-family="sans-serif" font-size="10px" fill="#000" opacity="1">160</text><text text-anchor="middle" transform="translate(360,15)" font-family="sans-serif" font-size="10px" fill="#000" opacity="1">180</text><text text-anchor="end" transform="translate(400,15)" font-family="sans-serif" font-size="10px" fill="#000" opacity="1">200</text></g><g class="mark-rule role-axis-domain" pointer-events="none"><line transform="translate(0,0)" x2="400" y2="0" stroke="#888" stroke-width="1" opacity="1"/></g><g class="mark-text role-axis-title" pointer-events="none"><text text-anchor="middle" transform="translate(200,30)" font-family="sans-serif" font-size="11px" font-weight="bold" fill="#000" opacity="1">Anzahl Epochen</text></g></g><path class="foreground" aria-hidden="true" d="" pointer-events="none" display="none"/></g></g><g class="mark-group role-axis" role="graphics-symbol" aria-roledescription="axis" aria-label="Y-axis titled 'Genauigkeit' for a linear scale with values from 0.00 to 0.30"><g transform="translate(0.5,0.5)"><path class="background" aria-hidden="true" d="M0,0h0v0h0Z" pointer-events="none"/><g><g class="mark-rule role-axis-tick" pointer-events="none"><line transform="translate(0,300)" x2="-5" y2="0" stroke="#888" stroke-width="1" opacity="1"/><line transform="translate(0,250)" x2="-5" y2="0" stroke="#888" stroke-width="1" opacity="1"/><line transform="translate(0,200)" x2="-5" y2="0" stroke="#888" stroke-width="1" opacity="1"/><line transform="translate(0,150)" x2="-5" y2="0" stroke="#888" stroke-width="1" opacity="1"/><line transform="translate(0,100)" x2="-5" y2="0" stroke="#888" stroke-width="1" opacity="1"/><line transform="translate(0,50)" x2="-5" y2="0" stroke="#888" stroke-width="1" opacity="1"/><line transform="translate(0,0)" x2="-5" y2="0" stroke="#888" stroke-width="1" opacity="1"/></g><g class="mark-text role-axis-label" pointer-events="none"><text text-anchor="end" transform="translate(-7,303)" font-family="sans-serif" font-size="10px" fill="#000" opacity="1">0.00</text><text text-anchor="end" transform="translate(-7,252.99999999999997)" font-family="sans-serif" font-size="10px" fill="#000" opacity="1">0.05</text><text text-anchor="end" transform="translate(-7,203)" font-family="sans-serif" font-size="10px" fill="#000" opacity="1">0.10</text><text text-anchor="end" transform="translate(-7,153)" font-family="sans-serif" font-size="10px" fill="#000" opacity="1">0.15</text><text text-anchor="end" transform="translate(-7,102.99999999999997)" font-family="sans-serif" font-size="10px" fill="#000" opacity="1">0.20</text><text text-anchor="end" transform="translate(-7,52.999999999999986)" font-family="sans-serif" font-size="10px" fill="#000" opacity="1">0.25</text><text text-anchor="end" transform="translate(-7,3)" font-family="sans-serif" font-size="10px" fill="#000" opacity="1">0.30</text></g><g class="mark-rule role-axis-domain" pointer-events="none"><line transform="translate(0,300)" x2="0" y2="-300" stroke="#888" stroke-width="1" opacity="1"/></g><g class="mark-text role-axis-title" pointer-events="none"><text text-anchor="middle" transform="translate(-30.462890625,150) rotate(-90) translate(0,-2)" font-family="sans-serif" font-size="11px" font-weight="bold" fill="#000" opacity="1">Genauigkeit</text></g></g><path class="foreground" aria-hidden="true" d="" pointer-events="none" display="none"/></g></g><g class="mark-group role-scope pathgroup" role="graphics-object" aria-roledescription="group mark container"><g transform="translate(0,0)"><path class="background" aria-hidden="true" d="M0,0h400v300h-400Z"/><g><g class="mark-line role-mark marks" role="graphics-object" aria-roledescription="line mark container"><path aria-label="Typ: Train; Anzahl Epochen: 1; Genauigkeit: 0" role="graphics-symbol" aria-roledescription="line mark" d="M2,300L4,300L6,300L8,300L10,300L12,300L14.000000000000002,300L16,300L18,300L20,300L22,300L24,300L26,300L28.000000000000004,300L30,300L32,300L34,300L36,300L38,300L40,300L42,300L44,300L46,300L48,300L50,299.2852036957629L52,297.85561114549637L54,293.5668334364891L56.00000000000001,282.48749040067196L57.99999999999999,270.33595480024815L60,258.541814237833L62,244.24588978290558L64,235.3109374642372L66,229.23516780138016L68,224.9463900923729L70,227.44817584753036L72,233.88134241104126L74,240.67190960049626L76,252.82344520092008L78,267.8341671824455L80,282.1300935000181L82,284.63188018649817L84,284.63188018649817L86,281.77269473671913L88,277.1265182644129L90,259.61400866508484L92,249.24946501851082L94,243.5310922563076L96,229.94996160268784L98,224.58899319171903L100,204.21729534864426L102,191.7083665728569L104,175.9828433394432L106,169.5496767759323L108,165.61830341815946L110.00000000000001,162.75911331176755L112.00000000000001,149.89278018474576L113.99999999999999,145.96140682697296L115.99999999999999,142.74481236934662L118,132.3802649974823L120,130.5932879447937L122,129.16368544101712L124,122.73052632808685L126,119.15654242038724L128,115.9399628639221L130,112.72336840629576L132,103.78842353820798L134,100.57184398174284L136,101.28663778305051L138,98.4274476766586L140,95.5682575702667L142,95.5682575702667L144,89.84989225864409L146,87.70551085472106L148,83.41673314571378L150,81.62974119186401L152,81.98713064193724L154,75.55397152900693L156,77.69835293292996L158,73.40957522392273L160,70.55040001869199L162,71.97998762130736L164,62.33023405075071L166,60.54324209690094L168,56.6118687391281L170,58.398860692977905L172,56.6118687391281L174,55.18226623535156L176,54.46747243404386L178,54.11008298397063L180,51.96568667888639L182,51.60829722881316L184,52.68048048019409L186,45.53251266479491L188,45.17512321472168L190,47.67690896987915L192,43.38814616203308L194,43.03072690963744L196,41.60113930702207L198,40.528941154479966L200,41.24374985694884L202,41.60113930702207L204,38.74196410179137L206,37.312376499176004L208,38.027155399322496L210,36.2401783466339L212,34.09578204154966L214,33.023583889007554L216,31.59399628639219L218.00000000000003,30.87918758392332L220.00000000000003,30.87918758392332L222.00000000000003,29.807019233703592L224.00000000000003,29.449599981307983L225.99999999999997,28.377401828765848L227.99999999999997,27.662622928619385L229.99999999999997,28.020012378692616L231.99999999999997,28.020012378692616L234,27.305203676223744L236,27.305203676223744L238,26.59042477607725L240,26.59042477607725L242,26.233035326004018L244,24.446028470993042L246,25.518226623535146L248,25.518226623535146L250,23.373830318450906L252,24.08863902091978L254,21.586853265762308L256,20.872044563293436L258,21.586853265762308L260,20.514655113220204L262,21.229463815689076L264,20.157265663146973L266,19.4424569606781L268,19.4424569606781L270,18.72764825820923L272,18.370258808135965L274,18.370258808135965L276,18.370258808135965L278,18.370258808135965L280,18.370258808135965L282,17.655479907989502L284,17.29806065559386L286,18.012869358062733L288,17.655479907989502L290,17.655479907989502L292,16.583281755447366L294,15.868473052978494L296,15.868473052978494L298,15.511083602905263L300,15.511083602905263L302,14.43888545036316L304,15.153694152832031L306,14.79627490043639L308,15.153694152832031L310,13.724076747894287L312,13.366687297821024L314,13.366687297821024L316,13.009297847747792L318,13.009297847747792L320,11.937099695205688L322,12.29448914527892L324,12.29448914527892L326,11.937099695205688L328,11.579710245132425L330,11.579710245132425L332,11.579710245132425L334,11.579710245132425L336,11.579710245132425L338,11.222290992736816L340,10.864901542663553L342,11.222290992736816L344,11.579710245132425L346,10.864901542663553L348,11.222290992736816L350,11.222290992736816L352,10.864901542663553L354,10.864901542663553L356,10.864901542663553L358,10.864901542663553L360,10.507512092590321L362,10.507512092590321L364,10.507512092590321L366,10.507512092590321L368,10.507512092590321L370,10.507512092590321L372,10.507512092590321L374,9.79270339012145L376,9.79270339012145L378,9.79270339012145L380,9.79270339012145L382,9.79270339012145L384,9.435313940048218L386,9.435313940048218L388,9.077924489974954L390,9.077924489974954L392,9.077924489974954L394,7.648307085037209L396,8.00572633743285L398,8.00572633743285" stroke="#f58518" stroke-width="2"/></g></g><path class="foreground" aria-hidden="true" d="" display="none"/></g><g transform="translate(0,0)"><path class="background" aria-hidden="true" d="M0,0h400v300h-400Z"/><g><g class="mark-line role-mark marks" role="graphics-object" aria-roledescription="line mark container"><path aria-label="Typ: Test; Anzahl Epochen: 1; Genauigkeit: 0" role="graphics-symbol" aria-roledescription="line mark" d="M2,300L4,300L6,300L8,300L10,300L12,300L14.000000000000002,300L16,300L18,300L20,300L22,300L24,300L26,300L28.000000000000004,300L30,300L32,300L34,300L36,300L38,300L40,300L42,300L44,300L46,300L48,300L50,298.3319432940334L52,294.9958296492696L54,291.6597167029977L56.00000000000001,284.9874898791313L57.99999999999999,274.9791491776705L60,259.1326117515564L62,249.95829835534093L64,244.12010163068769L66,236.61384284496307L68,233.27773362398148L70,237.44787573814392L72,244.12010163068769L74,255.7964988052845L76,267.472892254591L78,282.4854042381048L80,289.99165929853916L82,290.8256884664297L84,286.65554635226727L86,282.4854042381048L88,279.1492912918329L90,251.62635669112206L92,249.1242691874504L94,228.27355861663818L96,222.43536561727524L98,212.42702305316925L100,195.74645459651947L102,193.24437081813812L104,169.89156901836395L106,168.22351813316345L108,157.3811501264572L110.00000000000001,152.37698256969452L112.00000000000001,145.70474922657013L113.99999999999999,137.36446499824524L115.99999999999999,132.36029744148252L118,123.18599522113799L120,121.51792943477629L122,120.68389654159544L124,107.33944475650785L126,101.50124430656433L128,101.50124430656433L130,97.33110964298247L132,85.6547087430954L134,85.6547087430954L136,86.48874163627625L138,81.48457407951354L140,82.31859207153317L142,78.14845740795135L144,76.48040652275083L146,72.3102569580078L148,73.14428985118865L150,72.3102569580078L152,72.3102569580078L154,63.96997272968291L156,67.30608940124509L158,63.96997272968291L160,65.6380385160446L162,59.79983806610105L164,49.79150295257567L166,53.127604722976685L168,49.79150295257567L170,52.29357182979584L172,48.95745515823362L174,46.45537137985228L176,46.45537137985228L178,43.95328760147095L180,41.45120382308958L182,40.61718583106993L184,42.285251617431626L186,38.1151020526886L188,38.94912004470824L190,40.61718583106993L192,36.447036266326904L194,36.447036266326904L196,33.944952487945535L198,33.944952487945535L200,34.77897047996521L202,31.4428687095642L204,31.4428687095642L206,32.27688670158384L208,32.27688670158384L210,32.27688670158384L212,32.27688670158384L214,33.11093449592589L216,31.4428687095642L218.00000000000003,32.27688670158384L220.00000000000003,32.27688670158384L222.00000000000003,30.608850717544556L224.00000000000003,29.774802923202504L225.99999999999997,28.94078493118286L227.99999999999997,28.106766939163187L229.99999999999997,28.106766939163187L231.99999999999997,28.106766939163187L234,28.106766939163187L236,28.106766939163187L238,26.438701152801492L240,26.438701152801492L242,25.60468316078185L244,23.936617374420155L246,26.438701152801492L248,23.936617374420155L250,23.936617374420155L252,23.936617374420155L254,19.766467809677124L256,22.26855158805846L258,21.43453359603882L260,20.600485801696767L262,21.43453359603882L264,20.600485801696767L266,18.93244981765745L268,18.93244981765745L270,18.93244981765745L272,18.93244981765745L274,18.93244981765745L276,17.264384031295755L278,18.93244981765745L280,18.93244981765745L282,16.430366039276112L284,16.430366039276112L286,17.264384031295755L288,15.59631824493406L290,16.430366039276112L292,15.59631824493406L294,15.59631824493406L296,15.59631824493406L298,15.59631824493406L300,15.59631824493406L302,13.928282260894775L304,14.762300252914418L306,14.762300252914418L308,14.762300252914418L310,12.260216474533081L312,13.094234466552724L314,13.928282260894775L316,12.260216474533081L318,13.928282260894775L320,11.426198482513406L322,13.094234466552724L324,11.426198482513406L326,12.260216474533081L328,11.426198482513406L330,12.260216474533081L332,11.426198482513406L334,10.592150688171387L336,11.426198482513406L338,10.592150688171387L340,9.758132696151712L342,12.260216474533081L344,9.758132696151712L346,8.92411470413207L348,8.92411470413207L350,8.92411470413207L352,8.92411470413207L354,8.92411470413207L356,8.090066909790018L358,8.92411470413207L360,7.256048917770375L362,7.256048917770375L364,7.256048917770375L366,8.090066909790018L368,7.256048917770375L370,8.090066909790018L372,7.256048917770375L374,7.256048917770375L376,8.090066909790018L378,7.256048917770375L380,8.92411470413207L382,6.422030925750732L384,8.090066909790018L386,8.92411470413207L388,8.090066909790018L390,8.090066909790018L392,7.256048917770375L394,6.422030925750732L396,7.256048917770375L398,7.256048917770375" stroke="#4c78a8" stroke-width="2"/></g></g><path class="foreground" aria-hidden="true" d="" display="none"/></g></g><g class="mark-group role-legend" role="graphics-symbol" aria-roledescription="legend" aria-label="Symbol legend titled 'Typ' for stroke color with 2 values: Test, Train"><g transform="translate(418,0)"><path class="background" aria-hidden="true" d="M0,0h39v40h-39Z" pointer-events="none"/><g><g class="mark-group role-legend-entry"><g transform="translate(0,16)"><path class="background" aria-hidden="true" d="M0,0h0v0h0Z" pointer-events="none"/><g><g class="mark-group role-scope" role="graphics-object" aria-roledescription="group mark container"><g transform="translate(0,0)"><path class="background" aria-hidden="true" d="M0,0h38.412109375v11h-38.412109375Z" pointer-events="none" opacity="1"/><g><g class="mark-symbol role-legend-symbol" pointer-events="none"><path transform="translate(6,6)" d="M-5,0L5,0" stroke="#4c78a8" stroke-width="1.5" opacity="1"/></g><g class="mark-text role-legend-label" pointer-events="none"><text text-anchor="start" transform="translate(16,9)" font-family="sans-serif" font-size="10px" fill="#000" opacity="1">Test</text></g></g><path class="foreground" aria-hidden="true" d="" pointer-events="none" display="none"/></g><g transform="translate(0,13)"><path class="background" aria-hidden="true" d="M0,0h38.412109375v11h-38.412109375Z" pointer-events="none" opacity="1"/><g><g class="mark-symbol role-legend-symbol" pointer-events="none"><path transform="translate(6,6)" d="M-5,0L5,0" stroke="#f58518" stroke-width="1.5" opacity="1"/></g><g class="mark-text role-legend-label" pointer-events="none"><text text-anchor="start" transform="translate(16,9)" font-family="sans-serif" font-size="10px" fill="#000" opacity="1">Train</text></g></g><path class="foreground" aria-hidden="true" d="" pointer-events="none" display="none"/></g></g></g><path class="foreground" aria-hidden="true" d="" pointer-events="none" display="none"/></g></g><g class="mark-text role-legend-title" pointer-events="none"><text text-anchor="start" transform="translate(0,9)" font-family="sans-serif" font-size="11px" font-weight="bold" fill="#000" opacity="1">Typ</text></g></g><path class="foreground" aria-hidden="true" d="" pointer-events="none" display="none"/></g></g></g><path class="foreground" aria-hidden="true" d="" display="none"/></g></g></g></svg>