<svg xmlns="http://www.w3.org/2000/svg" xmlns:xlink="http://www.w3.org/1999/xlink" version="1.1" class="marks" width="509" height="347" viewBox="0 0 509 347"><rect width="509" height="347" fill="white"/><g fill="none" stroke-miterlimit="10" transform="translate(47,10)"><g class="mark-group role-frame root" role="graphics-object" aria-roledescription="group mark container"><g transform="translate(0,0)"><path class="background" aria-hidden="true" d="M0.5,0.5h400v300h-400Z" stroke="#ddd"/><g><g class="mark-group role-axis" aria-hidden="true"><g transform="translate(0.5,300.5)"><path class="background" aria-hidden="true" d="M0,0h0v0h0Z" pointer-events="none"/><g><g class="mark-rule role-axis-grid" pointer-events="none"><line transform="translate(0,-300)" x2="0" y2="300" stroke="#ddd" stroke-width="1" opacity="1"/><line transform="translate(31,-300)" x2="0" y2="300" stroke="#ddd" stroke-width="1" opacity="1"/><line transform="translate(62,-300)" x2="0" y2="300" stroke="#ddd" stroke-width="1" opacity="1"/><line transform="translate(92,-300)" x2="0" y2="300" stroke="#ddd" stroke-width="1" opacity="1"/><line transform="translate(123,-300)" x2="0" y2="300" stroke="#ddd" stroke-width="1" opacity="1"/><line transform="translate(154,-300)" x2="0" y2="300" stroke="#ddd" stroke-width="1" opacity="1"/><line transform="translate(185,-300)" x2="0" y2="300" stroke="#ddd" stroke-width="1" opacity="1"/><line transform="translate(215,-300)" x2="0" y2="300" stroke="#ddd" stroke-width="1" opacity="1"/><line transform="translate(246,-300)" x2="0" y2="300" stroke="#ddd" stroke-width="1" opacity="1"/><line transform="translate(277,-300)" x2="0" y2="300" stroke="#ddd" stroke-width="1" opacity="1"/><line transform="translate(308,-300)" x2="0" y2="300" stroke="#ddd" stroke-width="1" opacity="1"/><line transform="translate(338,-300)" x2="0" y2="300" stroke="#ddd" stroke-width="1" opacity="1"/><line transform="translate(369,-300)" x2="0" y2="300" stroke="#ddd" stroke-width="1" opacity="1"/><line transform="translate(400,-300)" x2="0" y2="300" stroke="#ddd" stroke-width="1" opacity="1"/></g></g><path class="foreground" aria-hidden="true" d="" pointer-events="none" display="none"/></g></g><g class="mark-group role-axis" aria-hidden="true"><g transform="translate(0.5,0.5)"><path class="background" aria-hidden="true" d="M0,0h0v0h0Z" pointer-events="none"/><g><g class="mark-rule role-axis-grid" pointer-events="none"><line transform="translate(0,300)" x2="400" y2="0" stroke="#ddd" stroke-width="1" opacity="1"/><line transform="translate(0,270)" x2="400" y2="0" stroke="#ddd" stroke-width="1" opacity="1"/><line transform="translate(0,240)" x2="400" y2="0" stroke="#ddd" stroke-width="1" opacity="1"/><line transform="translate(0,210)" x2="400" y2="0" stroke="#ddd" stroke-width="1" opacity="1"/><line transform="translate(0,180)" x2="400" y2="0" stroke="#ddd" stroke-width="1" opacity="1"/><line transform="translate(0,150)" x2="400" y2="0" stroke="#ddd" stroke-width="1" opacity="1"/><line transform="translate(0,120)" x2="400" y2="0" stroke="#ddd" stroke-width="1" opacity="1"/><line transform="translate(0,90)" x2="400" y2="0" stroke="#ddd" stroke-width="1" opacity="1"/><line transform="translate(0,60)" x2="400" y2="0" stroke="#ddd" stroke-width="1" opacity="1"/><line transform="translate(0,30)" x2="400" y2="0" stroke="#ddd" stroke-width="1" opacity="1"/><line transform="translate(0,0)" x2="400" y2="0" stroke="#ddd" stroke-width="1" opacity="1"/></g></g><path class="foreground" aria-hidden="true" d="" pointer-events="none" display="none"/></g></g><g class="mark-group role-axis" role="graphics-symbol" aria-roledescription="axis" aria-label="X-axis titled 'Anzahl Epochen' for a linear scale with values from 0 to 260"><g transform="translate(0.5,300.5)"><path class="background" aria-hidden="true" d="M0,0h0v0h0Z" pointer-events="none"/><g><g class="mark-rule role-axis-tick" pointer-events="none"><line transform="translate(0,0)" x2="0" y2="5" stroke="#888" stroke-width="1" opacity="1"/><line transform="translate(31,0)" x2="0" y2="5" stroke="#888" stroke-width="1" opacity="1"/><line transform="translate(62,0)" x2="0" y2="5" stroke="#888" stroke-width="1" opacity="1"/><line transform="translate(92,0)" x2="0" y2="5" stroke="#888" stroke-width="1" opacity="1"/><line transform="translate(123,0)" x2="0" y2="5" stroke="#888" stroke-width="1" opacity="1"/><line transform="translate(154,0)" x2="0" y2="5" stroke="#888" stroke-width="1" opacity="1"/><line transform="translate(185,0)" x2="0" y2="5" stroke="#888" stroke-width="1" opacity="1"/><line transform="translate(215,0)" x2="0" y2="5" stroke="#888" stroke-width="1" opacity="1"/><line transform="translate(246,0)" x2="0" y2="5" stroke="#888" stroke-width="1" opacity="1"/><line transform="translate(277,0)" x2="0" y2="5" stroke="#888" stroke-width="1" opacity="1"/><line transform="translate(308,0)" x2="0" y2="5" stroke="#888" stroke-width="1" opacity="1"/><line transform="translate(338,0)" x2="0" y2="5" stroke="#888" stroke-width="1" opacity="1"/><line transform="translate(369,0)" x2="0" y2="5" stroke="#888" stroke-width="1" opacity="1"/><line transform="translate(400,0)" x2="0" y2="5" stroke="#888" stroke-width="1" opacity="1"/></g><g class="mark-text role-axis-label" pointer-events="none"><text text-anchor="start" transform="translate(0,15)" font-family="sans-serif" font-size="10px" fill="#000" opacity="1">0</text><text text-anchor="middle" transform="translate(30.76923076923077,15)" font-family="sans-serif" font-size="10px" fill="#000" opacity="1">20</text><text text-anchor="middle" transform="translate(61.53846153846154,15)" font-family="sans-serif" font-size="10px" fill="#000" opacity="1">40</text><text text-anchor="middle" transform="translate(92.3076923076923,15)" font-family="sans-serif" font-size="10px" fill="#000" opacity="1">60</text><text text-anchor="middle" transform="translate(123.07692307692308,15)" font-family="sans-serif" font-size="10px" fill="#000" opacity="1">80</text><text text-anchor="middle" transform="translate(153.84615384615387,15)" font-family="sans-serif" font-size="10px" fill="#000" opacity="1">100</text><text text-anchor="middle" transform="translate(184.6153846153846,15)" font-family="sans-serif" font-size="10px" fill="#000" opacity="1">120</text><text text-anchor="middle" transform="translate(215.3846153846154,15)" font-family="sans-serif" font-size="10px" fill="#000" opacity="1">140</text><text text-anchor="middle" transform="translate(246.15384615384616,15)" font-family="sans-serif" font-size="10px" fill="#000" opacity="1">160</text><text text-anchor="middle" transform="translate(276.9230769230769,15)" font-family="sans-serif" font-size="10px" fill="#000" opacity="1">180</text><text text-anchor="middle" transform="translate(307.69230769230774,15)" font-family="sans-serif" font-size="10px" fill="#000" opacity="1">200</text><text text-anchor="middle" transform="translate(338.46153846153845,15)" font-family="sans-serif" font-size="10px" fill="#000" opacity="1">220</text><text text-anchor="middle" transform="translate(369.2307692307692,15)" font-family="sans-serif" font-size="10px" fill="#000" opacity="1">240</text><text text-anchor="end" transform="translate(400,15)" font-family="sans-serif" font-size="10px" fill="#000" opacity="1">260</text></g><g class="mark-rule role-axis-domain" pointer-events="none"><line transform="translate(0,0)" x2="400" y2="0" stroke="#888" stroke-width="1" opacity="1"/></g><g class="mark-text role-axis-title" pointer-events="none"><text text-anchor="middle" transform="translate(200,30)" font-family="sans-serif" font-size="11px" font-weight="bold" fill="#000" opacity="1">Anzahl Epochen</text></g></g><path class="foreground" aria-hidden="true" d="" pointer-events="none" display="none"/></g></g><g class="mark-group role-axis" role="graphics-symbol" aria-roledescription="axis" aria-label="Y-axis titled 'Genauigkeit' for a linear scale with values from 0.0 to 0.5"><g transform="translate(0.5,0.5)"><path class="background" aria-hidden="true" d="M0,0h0v0h0Z" pointer-events="none"/><g><g class="mark-rule role-axis-tick" pointer-events="none"><line transform="translate(0,300)" x2="-5" y2="0" stroke="#888" stroke-width="1" opacity="1"/><line transform="translate(0,270)" x2="-5" y2="0" stroke="#888" stroke-width="1" opacity="1"/><line transform="translate(0,240)" x2="-5" y2="0" stroke="#888" stroke-width="1" opacity="1"/><line transform="translate(0,210)" x2="-5" y2="0" stroke="#888" stroke-width="1" opacity="1"/><line transform="translate(0,180)" x2="-5" y2="0" stroke="#888" stroke-width="1" opacity="1"/><line transform="translate(0,150)" x2="-5" y2="0" stroke="#888" stroke-width="1" opacity="1"/><line transform="translate(0,120)" x2="-5" y2="0" stroke="#888" stroke-width="1" opacity="1"/><line transform="translate(0,90)" x2="-5" y2="0" stroke="#888" stroke-width="1" opacity="1"/><line transform="translate(0,60)" x2="-5" y2="0" stroke="#888" stroke-width="1" opacity="1"/><line transform="translate(0,30)" x2="-5" y2="0" stroke="#888" stroke-width="1" opacity="1"/><line transform="translate(0,0)" x2="-5" y2="0" stroke="#888" stroke-width="1" opacity="1"/></g><g class="mark-text role-axis-label" pointer-events="none"><text text-anchor="end" transform="translate(-7,303)" font-family="sans-serif" font-size="10px" fill="#000" opacity="1">0.00</text><text text-anchor="end" transform="translate(-7,273)" font-family="sans-serif" font-size="10px" fill="#000" opacity="1">0.05</text><text text-anchor="end" transform="translate(-7,243)" font-family="sans-serif" font-size="10px" fill="#000" opacity="1">0.10</text><text text-anchor="end" transform="translate(-7,213)" font-family="sans-serif" font-size="10px" fill="#000" opacity="1">0.15</text><text text-anchor="end" transform="translate(-7,183)" font-family="sans-serif" font-size="10px" fill="#000" opacity="1">0.20</text><text text-anchor="end" transform="translate(-7,153)" font-family="sans-serif" font-size="10px" fill="#000" opacity="1">0.25</text><text text-anchor="end" transform="translate(-7,123)" font-family="sans-serif" font-size="10px" fill="#000" opacity="1">0.30</text><text text-anchor="end" transform="translate(-7,93.00000000000001)" font-family="sans-serif" font-size="10px" fill="#000" opacity="1">0.35</text><text text-anchor="end" transform="translate(-7,62.999999999999986)" font-family="sans-serif" font-size="10px" fill="#000" opacity="1">0.40</text><text text-anchor="end" transform="translate(-7,32.99999999999999)" font-family="sans-serif" font-size="10px" fill="#000" opacity="1">0.45</text><text text-anchor="end" transform="translate(-7,3)" font-family="sans-serif" font-size="10px" fill="#000" opacity="1">0.50</text></g><g class="mark-rule role-axis-domain" pointer-events="none"><line transform="translate(0,300)" x2="0" y2="-300" stroke="#888" stroke-width="1" opacity="1"/></g><g class="mark-text role-axis-title" pointer-events="none"><text text-anchor="middle" transform="translate(-30.462890625,150) rotate(-90) translate(0,-2)" font-family="sans-serif" font-size="11px" font-weight="bold" fill="#000" opacity="1">Genauigkeit</text></g></g><path class="foreground" aria-hidden="true" d="" pointer-events="none" display="none"/></g></g><g class="mark-group role-scope pathgroup" role="graphics-object" aria-roledescription="group mark container"><g transform="translate(0,0)"><path class="background" aria-hidden="true" d="M0,0h400v300h-400Z"/><g><g class="mark-line role-mark marks" role="graphics-object" aria-roledescription="line mark container"><path aria-label="Typ: Train; Anzahl Epochen: 1; Genauigkeit: 0" role="graphics-symbol" aria-roledescription="line mark" d="M1.5384615384615385,300L3.076923076923077,290.13581089675426L4.615384615384616,218.08434426784515L6.153846153846154,168.76340210437775L7.6923076923076925,147.31950759887695L9.230769230769232,136.59757375717163L10.76923076923077,132.73767828941345L12.307692307692308,130.37883639335632L13.846153846153847,126.94782614707947L15.384615384615385,125.23230314254761L16.923076923076923,123.08791279792786L18.461538461538463,122.23016023635864L20,121.80129289627075L21.53846153846154,119.87133622169495L23.076923076923077,117.2980785369873L24.615384615384617,116.44030809402466L26.153846153846157,113.22373151779175L27.692307692307693,104.86062169075012L29.230769230769234,95.63974142074585L30.76923076923077,92.85203218460083L32.30769230769231,89.63545560836792L33.84615384615385,87.27663159370422L35.38461538461539,84.27448868751526L36.92307692307693,83.63116979598999L38.46153846153847,82.98785090446472L40,81.70121312141418L41.53846153846154,81.48677945137024L43.07692307692308,80.2001416683197L44.61538461538462,79.77125644683838L46.15384615384615,78.2701849937439L47.69230769230769,78.48463654518127L49.23076923076923,78.05575132369995L50.76923076923077,77.41243243217468L52.307692307692314,77.62688398361206L53.84615384615385,76.98356509208679L55.38461538461539,76.55467987060547L56.92307692307692,76.34024620056152L58.46153846153847,76.12581253051758L60,75.9113609790802L61.53846153846154,76.12581253051758L63.07692307692307,75.26804208755493L64.61538461538461,76.12581253051758L66.15384615384615,75.26804208755493L67.6923076923077,75.26804208755493L69.23076923076923,75.05360841751099L70.76923076923077,74.83917474746704L72.3076923076923,74.83917474746704L73.84615384615385,74.62472319602966L75.38461538461539,74.83917474746704L76.92307692307693,74.62472319602966L78.46153846153847,74.62472319602966L80,74.62472319602966L81.53846153846153,74.41028952598572L83.07692307692308,74.62472319602966L84.61538461538461,74.19585585594177L86.15384615384616,74.19585585594177L87.6923076923077,73.5525369644165L89.23076923076924,73.33810329437256L90.76923076923077,73.5525369644165L92.3076923076923,73.76697063446045L93.84615384615384,73.33810329437256L95.38461538461539,73.76697063446045L96.92307692307692,73.33810329437256L98.46153846153847,72.69478440284729L100,73.12365174293518L101.53846153846153,72.48035073280334L103.07692307692307,72.48035073280334L104.61538461538463,72.48035073280334L106.15384615384616,71.83703184127808L107.6923076923077,71.83703184127808L109.23076923076923,71.6225802898407L110.76923076923077,71.40814661979675L112.3076923076923,71.40814661979675L113.84615384615384,71.40814661979675L115.38461538461537,70.97927927970886L116.92307692307693,71.19371294975281L118.46153846153847,70.97927927970886L120,70.97927927970886L121.53846153846153,70.76482772827148L123.07692307692308,70.3359603881836L124.61538461538461,69.04932260513306L126.15384615384615,68.40600371360779L127.69230769230768,67.54825115203857L129.23076923076923,67.76268482208252L130.76923076923077,67.33381748199463L132.3076923076923,66.47604703903198L133.84615384615384,65.40386080741882L135.3846153846154,64.9749755859375L136.92307692307693,64.11722302436829L138.46153846153845,64.11722302436829L140,63.25947046279907L141.53846153846155,62.616151571273804L143.07692307692307,62.18728423118591L144.6153846153846,61.972832679748535L146.15384615384613,61.543965339660645L147.6923076923077,60.900646448135376L149.23076923076923,60.25732755661011L150.76923076923077,58.756256103515625L152.3076923076923,58.3273708820343L153.84615384615387,56.82629942893982L155.3846153846154,55.539679527282715L156.92307692307693,53.60972285270691L158.46153846153845,51.6797661781311L160,50.393146276474L161.53846153846155,49.32094216346741L163.07692307692307,48.892056941986084L164.6153846153846,48.46318960189819L166.15384615384616,47.819870710372925L167.6923076923077,46.96211814880371L169.23076923076923,46.53323292732239L170.76923076923077,46.31879925727844L172.30769230769232,45.46104669570923L173.84615384615384,45.032161474227905L175.3846153846154,44.603294134140015L176.9230769230769,44.603294134140015L178.46153846153848,44.603294134140015L180,44.17440891265869L181.53846153846155,43.959975242614746L183.07692307692307,43.74552369117737L184.6153846153846,43.74552369117737L186.15384615384616,43.10222268104553L187.69230769230768,42.887771129608154L189.23076923076923,42.887771129608154L190.76923076923077,42.887771129608154L192.30769230769232,42.887771129608154L193.84615384615384,42.887771129608154L195.3846153846154,42.887771129608154L196.92307692307693,42.67333745956421L198.46153846153845,42.67333745956421L200,42.244452238082886L201.53846153846155,42.244452238082886L203.07692307692307,42.244452238082886L204.61538461538458,42.03001856803894L206.15384615384613,42.03001856803894L207.6923076923077,42.03001856803894L209.23076923076925,42.03001856803894L210.76923076923077,42.03001856803894L212.30769230769232,42.03001856803894L213.84615384615384,41.815584897994995L215.3846153846154,41.60115122795105L216.9230769230769,41.60115122795105L218.46153846153845,41.60115122795105L220.00000000000003,41.60115122795105L221.53846153846155,41.17226600646973L223.0769230769231,41.38669967651367L224.6153846153846,41.38669967651367L226.15384615384616,41.38669967651367L227.69230769230768,41.38669967651367L229.23076923076923,41.38669967651367L230.76923076923075,41.38669967651367L232.30769230769232,41.38669967651367L233.84615384615387,41.38669967651367L235.3846153846154,41.17226600646973L236.92307692307693,40.95783233642578L238.46153846153845,40.95783233642578L240,40.52894711494446L241.53846153846152,40.52894711494446L243.07692307692307,40.52894711494446L244.61538461538464,40.31451344490051L246.15384615384616,40.31451344490051L247.6923076923077,40.31451344490051L249.23076923076923,40.31451344490051L250.76923076923077,40.31451344490051L252.3076923076923,40.10007977485657L253.84615384615384,40.31451344490051L255.38461538461536,40.10007977485657L256.92307692307696,40.31451344490051L258.46153846153845,40.10007977485657L260,40.10007977485657L261.53846153846155,40.10007977485657L263.0769230769231,40.10007977485657L264.6153846153846,39.88562822341919L266.15384615384613,40.10007977485657L267.6923076923077,40.10007977485657L269.2307692307692,39.88562822341919L270.7692307692308,39.671194553375244L272.3076923076923,39.671194553375244L273.84615384615387,39.4567608833313L275.38461538461536,39.24230933189392L276.9230769230769,39.24230933189392L278.46153846153845,39.24230933189392L280,39.24230933189392L281.53846153846155,39.027875661849976L283.0769230769231,38.81344199180603L284.61538461538464,38.38455677032471L286.15384615384613,38.59899044036865L287.6923076923077,38.17012310028076L289.2307692307692,37.74123787879944L290.7692307692308,36.883485317230225L292.30769230769226,36.883485317230225L293.84615384615387,36.02573275566101L295.3846153846154,36.02573275566101L296.9230769230769,35.59684753417969L298.46153846153845,35.59684753417969L300,35.38241386413574L301.53846153846155,35.59684753417969L303.0769230769231,34.739094972610474L304.6153846153846,34.95354652404785L306.15384615384613,34.95354652404785L307.69230769230774,34.739094972610474L309.2307692307692,34.95354652404785L310.7692307692308,34.52466130256653L312.3076923076923,34.52466130256653L313.84615384615387,34.31022763252258L315.38461538461536,34.52466130256653L316.9230769230769,34.52466130256653L318.46153846153845,34.31022763252258L320,34.52466130256653L321.53846153846155,34.31022763252258L323.0769230769231,34.095776081085205L324.61538461538464,33.88134241104126L326.15384615384613,33.45245718955994L327.6923076923077,33.45245718955994L329.2307692307692,33.45245718955994L330.7692307692308,33.666908740997314L332.3076923076923,33.666908740997314L333.84615384615387,33.666908740997314L335.3846153846154,33.023589849472046L336.9230769230769,33.45245718955994L338.46153846153845,33.45245718955994L340,33.023589849472046L341.53846153846155,32.59470462799072L343.07692307692304,32.8091561794281L344.61538461538464,32.59470462799072L346.1538461538462,32.59470462799072L347.6923076923077,32.16583728790283L349.2307692307692,32.8091561794281L350.7692307692308,32.38027095794678L352.3076923076923,32.38027095794678L353.8461538461538,32.38027095794678L355.38461538461536,32.38027095794678L356.92307692307696,32.16583728790283L358.46153846153845,32.16583728790283L360,31.951385736465454L361.53846153846155,31.522518396377563L363.0769230769231,30.879199504852295L364.6153846153846,30.02144694328308L366.15384615384613,29.807013273239136L367.6923076923077,29.592561721801758L369.2307692307692,29.378128051757812L370.7692307692308,29.163694381713867L372.3076923076923,29.163694381713867L373.84615384615387,28.734809160232544L375.38461538461536,27.662622928619385L376.9230769230769,27.662622928619385L378.46153846153845,27.662622928619385L380,27.019304037094116L381.53846153846155,26.375985145568848L383.0769230769231,26.590418815612793" stroke="#f58518" stroke-width="2"/></g></g><path class="foreground" aria-hidden="true" d="" display="none"/></g><g transform="translate(0,0)"><path class="background" aria-hidden="true" d="M0,0h400v300h-400Z"/><g><g class="mark-line role-mark marks" role="graphics-object" aria-roledescription="line mark container"><path aria-label="Typ: Test; Anzahl Epochen: 1; Genauigkeit: 0.0041701416485" role="graphics-symbol" aria-roledescription="line mark" d="M1.5384615384615385,297.4979150108993L3.076923076923077,293.4945786371827L4.615384615384616,184.40366685390472L6.153846153846154,154.87906336784363L7.6923076923076925,150.3753125667572L9.230769230769232,142.86906123161316L10.76923076923077,138.36531043052673L12.307692307692308,136.86406016349792L13.846153846153847,133.8615596294403L15.384615384615385,133.36113095283508L16.923076923076923,134.8623812198639L18.461538461538463,130.35863041877747L20,129.35779094696045L21.53846153846154,124.85404014587402L23.076923076923077,126.85571908950806L24.615384615384617,127.35612988471985L26.153846153846157,116.34694933891296L27.692307692307693,111.84319853782654L29.230769230769234,102.3352861404419L30.76923076923077,101.33444666862488L32.30769230769231,93.82819533348083L33.84615384615385,94.32860612869263L35.38461538461539,93.32776665687561L36.92307692307693,93.32776665687561L38.46153846153847,90.82569479942322L40,90.82569479942322L41.53846153846154,90.82569479942322L43.07692307692308,88.82401585578918L44.61538461538462,89.8248553276062L46.15384615384615,89.32444453239441L47.69230769230769,88.32360506057739L49.23076923076923,87.32276558876038L50.76923076923077,87.8231942653656L52.307692307692314,86.82235479354858L53.84615384615385,85.32110452651978L55.38461538461539,85.82151532173157L56.92307692307692,83.81985425949097L58.46153846153847,83.31942558288574L60,81.81817531585693L61.53846153846154,82.31860399246216L63.07692307692307,83.81985425949097L64.61538461538461,81.81817531585693L66.15384615384615,83.31942558288574L67.6923076923077,82.31860399246216L69.23076923076923,81.31776452064514L70.76923076923077,82.31860399246216L72.3076923076923,79.31610345840454L73.84615384615385,81.31776452064514L75.38461538461539,79.81651425361633L76.92307692307693,78.81567478179932L78.46153846153847,80.31692504882812L80,78.31526398658752L81.53846153846153,78.81567478179932L83.07692307692308,78.81567478179932L84.61538461538461,78.81567478179932L86.15384615384616,77.81485319137573L87.6923076923077,78.31526398658752L89.23076923076924,77.31442451477051L90.76923076923077,78.31526398658752L92.3076923076923,77.81485319137573L93.84615384615384,76.81401371955872L95.38461538461539,77.81485319137573L96.92307692307692,76.31360292434692L98.46153846153847,77.81485319137573L100,76.31360292434692L101.53846153846153,77.81485319137573L103.07692307692307,76.81401371955872L104.61538461538463,77.81485319137573L106.15384615384616,77.81485319137573L107.6923076923077,77.31442451477051L109.23076923076923,77.31442451477051L110.76923076923077,77.31442451477051L112.3076923076923,76.81401371955872L113.84615384615384,76.31360292434692L115.38461538461537,77.31442451477051L116.92307692307693,76.31360292434692L118.46153846153847,76.31360292434692L120,76.81401371955872L121.53846153846153,75.8131742477417L123.07692307692308,76.31360292434692L124.61538461538461,76.81401371955872L126.15384615384615,76.31360292434692L127.69230769230768,74.81233477592468L129.23076923076923,74.31192398071289L130.76923076923077,75.8131742477417L132.3076923076923,72.81067371368408L133.84615384615384,73.31108450889587L135.3846153846154,73.8115131855011L136.92307692307693,72.81067371368408L138.46153846153845,73.31108450889587L140,72.31026291847229L141.53846153846155,72.81067371368408L143.07692307692307,71.80983424186707L144.6153846153846,72.81067371368408L146.15384615384613,69.80817317962646L147.6923076923077,70.30858397483826L149.23076923076923,68.80733370780945L150.76923076923077,68.80733370780945L152.3076923076923,68.30692291259766L153.84615384615387,66.80567264556885L155.3846153846154,67.30608344078064L156.92307692307693,65.30442237854004L158.46153846153845,64.30358290672302L160,61.8014931678772L161.53846153846155,62.802332639694214L163.07692307692307,63.302743434906006L164.6153846153846,62.802332639694214L166.15384615384616,61.8014931678772L167.6923076923077,62.802332639694214L169.23076923076923,62.802332639694214L170.76923076923077,62.30192184448242L172.30769230769232,61.301082372665405L173.84615384615384,61.8014931678772L175.3846153846154,60.80067157745361L176.9230769230769,60.30024290084839L178.46153846153848,60.30024290084839L180,60.30024290084839L181.53846153846155,60.80067157745361L183.07692307692307,59.7998321056366L184.6153846153846,59.7998321056366L186.15384615384616,59.7998321056366L187.69230769230768,59.7998321056366L189.23076923076923,59.299421310424805L190.76923076923077,58.79899263381958L192.30769230769232,58.29858183860779L193.84615384615384,58.79899263381958L195.3846153846154,58.79899263381958L196.92307692307693,58.29858183860779L198.46153846153845,58.79899263381958L200,58.79899263381958L201.53846153846155,58.29858183860779L203.07692307692307,58.79899263381958L204.61538461538458,58.79899263381958L206.15384615384613,58.79899263381958L207.6923076923077,58.79899263381958L209.23076923076925,58.79899263381958L210.76923076923077,57.798171043395996L212.30769230769232,58.79899263381958L213.84615384615384,58.79899263381958L215.3846153846154,58.29858183860779L216.9230769230769,58.79899263381958L218.46153846153845,58.29858183860779L220.00000000000003,58.29858183860779L221.53846153846155,58.29858183860779L223.0769230769231,58.29858183860779L224.6153846153846,57.798171043395996L226.15384615384616,58.29858183860779L227.69230769230768,58.29858183860779L229.23076923076923,57.798171043395996L230.76923076923075,57.29774236679077L232.30769230769232,57.29774236679077L233.84615384615387,57.29774236679077L235.3846153846154,57.29774236679077L236.92307692307693,56.79733157157898L238.46153846153845,57.29774236679077L240,56.79733157157898L241.53846153846152,57.29774236679077L243.07692307692307,55.79649209976196L244.61538461538464,56.79733157157898L246.15384615384616,57.29774236679077L247.6923076923077,57.29774236679077L249.23076923076923,56.79733157157898L250.76923076923077,56.79733157157898L252.3076923076923,57.29774236679077L253.84615384615384,57.29774236679077L255.38461538461536,56.79733157157898L256.92307692307696,57.29774236679077L258.46153846153845,57.29774236679077L260,57.29774236679077L261.53846153846155,56.79733157157898L263.0769230769231,56.29692077636719L264.6153846153846,55.79649209976196L266.15384615384613,56.29692077636719L267.6923076923077,55.79649209976196L269.2307692307692,55.79649209976196L270.7692307692308,56.29692077636719L272.3076923076923,56.29692077636719L273.84615384615387,56.29692077636719L275.38461538461536,55.79649209976196L276.9230769230769,54.79567050933838L278.46153846153845,55.79649209976196L280,55.79649209976196L281.53846153846155,55.29608130455017L283.0769230769231,55.29608130455017L284.61538461538464,55.29608130455017L286.15384615384613,54.295241832733154L287.6923076923077,54.79567050933838L289.2307692307692,54.79567050933838L290.7692307692308,54.79567050933838L292.30769230769226,55.29608130455017L293.84615384615387,55.29608130455017L295.3846153846154,54.79567050933838L296.9230769230769,54.79567050933838L298.46153846153845,54.79567050933838L300,53.79483103752136L301.53846153846155,54.295241832733154L303.0769230769231,54.295241832733154L304.6153846153846,53.29442024230957L306.15384615384613,53.79483103752136L307.69230769230774,52.793991565704346L309.2307692307692,53.29442024230957L310.7692307692308,52.793991565704346L312.3076923076923,52.293580770492554L313.84615384615387,53.29442024230957L315.38461538461536,53.29442024230957L316.9230769230769,51.79315209388733L318.46153846153845,52.793991565704346L320,52.793991565704346L321.53846153846155,53.29442024230957L323.0769230769231,52.293580770492554L324.61538461538464,51.79315209388733L326.15384615384613,52.293580770492554L327.6923076923077,52.293580770492554L329.2307692307692,51.29274129867554L330.7692307692308,50.792330503463745L332.3076923076923,50.792330503463745L333.84615384615387,50.792330503463745L335.3846153846154,50.29190182685852L336.9230769230769,50.792330503463745L338.46153846153845,50.29190182685852L340,50.792330503463745L341.53846153846155,50.792330503463745L343.07692307692304,50.29190182685852L344.61538461538464,51.79315209388733L346.1538461538462,49.29108023643494L347.6923076923077,49.29108023643494L349.2307692307692,50.29190182685852L350.7692307692308,49.79149103164673L352.3076923076923,50.29190182685852L353.8461538461538,49.79149103164673L355.38461538461536,49.79149103164673L356.92307692307696,49.29108023643494L358.46153846153845,49.29108023643494L360,48.79065155982971L361.53846153846155,49.29108023643494L363.0769230769231,48.29024076461792L364.6153846153846,49.29108023643494L366.15384615384613,48.79065155982971L367.6923076923077,48.29024076461792L369.2307692307692,49.29108023643494L370.7692307692308,48.79065155982971L372.3076923076923,48.29024076461792L373.84615384615387,47.2894012928009L375.38461538461536,47.2894012928009L376.9230769230769,47.78982996940613L378.46153846153845,46.78899049758911L380,46.28857970237732L381.53846153846155,45.788151025772095L383.0769230769231,45.788151025772095" stroke="#4c78a8" stroke-width="2"/></g></g><path class="foreground" aria-hidden="true" d="" display="none"/></g></g><g class="mark-group role-legend" role="graphics-symbol" aria-roledescription="legend" aria-label="Symbol legend titled 'Typ' for stroke color with 2 values: Test, Train"><g transform="translate(418,0)"><path class="background" aria-hidden="true" d="M0,0h39v40h-39Z" pointer-events="none"/><g><g class="mark-group role-legend-entry"><g transform="translate(0,16)"><path class="background" aria-hidden="true" d="M0,0h0v0h0Z" pointer-events="none"/><g><g class="mark-group role-scope" role="graphics-object" aria-roledescription="group mark container"><g transform="translate(0,0)"><path class="background" aria-hidden="true" d="M0,0h38.412109375v11h-38.412109375Z" pointer-events="none" opacity="1"/><g><g class="mark-symbol role-legend-symbol" pointer-events="none"><path transform="translate(6,6)" d="M-5,0L5,0" stroke="#4c78a8" stroke-width="1.5" opacity="1"/></g><g class="mark-text role-legend-label" pointer-events="none"><text text-anchor="start" transform="translate(16,9)" font-family="sans-serif" font-size="10px" fill="#000" opacity="1">Test</text></g></g><path class="foreground" aria-hidden="true" d="" pointer-events="none" display="none"/></g><g transform="translate(0,13)"><path class="background" aria-hidden="true" d="M0,0h38.412109375v11h-38.412109375Z" pointer-events="none" opacity="1"/><g><g class="mark-symbol role-legend-symbol" pointer-events="none"><path transform="translate(6,6)" d="M-5,0L5,0" stroke="#f58518" stroke-width="1.5" opacity="1"/></g><g class="mark-text role-legend-label" pointer-events="none"><text text-anchor="start" transform="translate(16,9)" font-family="sans-serif" font-size="10px" fill="#000" opacity="1">Train</text></g></g><path class="foreground" aria-hidden="true" d="" pointer-events="none" display="none"/></g></g></g><path class="foreground" aria-hidden="true" d="" pointer-events="none" display="none"/></g></g><g class="mark-text role-legend-title" pointer-events="none"><text text-anchor="start" transform="translate(0,9)" font-family="sans-serif" font-size="11px" font-weight="bold" fill="#000" opacity="1">Typ</text></g></g><path class="foreground" aria-hidden="true" d="" pointer-events="none" display="none"/></g></g></g><path class="foreground" aria-hidden="true" d="" display="none"/></g></g></g></svg>