<svg xmlns="http://www.w3.org/2000/svg" xmlns:xlink="http://www.w3.org/1999/xlink" version="1.1" class="marks" width="509" height="347" viewBox="0 0 509 347"><rect width="509" height="347" fill="white"/><g fill="none" stroke-miterlimit="10" transform="translate(47,10)"><g class="mark-group role-frame root" role="graphics-object" aria-roledescription="group mark container"><g transform="translate(0,0)"><path class="background" aria-hidden="true" d="M0.5,0.5h400v300h-400Z" stroke="#ddd"/><g><g class="mark-group role-axis" aria-hidden="true"><g transform="translate(0.5,300.5)"><path class="background" aria-hidden="true" d="M0,0h0v0h0Z" pointer-events="none"/><g><g class="mark-rule role-axis-grid" pointer-events="none"><line transform="translate(0,-300)" x2="0" y2="300" stroke="#ddd" stroke-width="1" opacity="1"/><line transform="translate(31,-300)" x2="0" y2="300" stroke="#ddd" stroke-width="1" opacity="1"/><line transform="translate(62,-300)" x2="0" y2="300" stroke="#ddd" stroke-width="1" opacity="1"/><line transform="translate(92,-300)" x2="0" y2="300" stroke="#ddd" stroke-width="1" opacity="1"/><line transform="translate(123,-300)" x2="0" y2="300" stroke="#ddd" stroke-width="1" opacity="1"/><line transform="translate(154,-300)" x2="0" y2="300" stroke="#ddd" stroke-width="1" opacity="1"/><line transform="translate(185,-300)" x2="0" y2="300" stroke="#ddd" stroke-width="1" opacity="1"/><line transform="translate(215,-300)" x2="0" y2="300" stroke="#ddd" stroke-width="1" opacity="1"/><line transform="translate(246,-300)" x2="0" y2="300" stroke="#ddd" stroke-width="1" opacity="1"/><line transform="translate(277,-300)" x2="0" y2="300" stroke="#ddd" stroke-width="1" opacity="1"/><line transform="translate(308,-300)" x2="0" y2="300" stroke="#ddd" stroke-width="1" opacity="1"/><line transform="translate(338,-300)" x2="0" y2="300" stroke="#ddd" stroke-width="1" opacity="1"/><line transform="translate(369,-300)" x2="0" y2="300" stroke="#ddd" stroke-width="1" opacity="1"/><line transform="translate(400,-300)" x2="0" y2="300" stroke="#ddd" stroke-width="1" opacity="1"/></g></g><path class="foreground" aria-hidden="true" d="" pointer-events="none" display="none"/></g></g><g class="mark-group role-axis" aria-hidden="true"><g transform="translate(0.5,0.5)"><path class="background" aria-hidden="true" d="M0,0h0v0h0Z" pointer-events="none"/><g><g class="mark-rule role-axis-grid" pointer-events="none"><line transform="translate(0,300)" x2="400" y2="0" stroke="#ddd" stroke-width="1" opacity="1"/><line transform="translate(0,267)" x2="400" y2="0" stroke="#ddd" stroke-width="1" opacity="1"/><line transform="translate(0,233)" x2="400" y2="0" stroke="#ddd" stroke-width="1" opacity="1"/><line transform="translate(0,200)" x2="400" y2="0" stroke="#ddd" stroke-width="1" opacity="1"/><line transform="translate(0,167)" x2="400" y2="0" stroke="#ddd" stroke-width="1" opacity="1"/><line transform="translate(0,133)" x2="400" y2="0" stroke="#ddd" stroke-width="1" opacity="1"/><line transform="translate(0,100)" x2="400" y2="0" stroke="#ddd" stroke-width="1" opacity="1"/><line transform="translate(0,67)" x2="400" y2="0" stroke="#ddd" stroke-width="1" opacity="1"/><line transform="translate(0,33)" x2="400" y2="0" stroke="#ddd" stroke-width="1" opacity="1"/><line transform="translate(0,0)" x2="400" y2="0" stroke="#ddd" stroke-width="1" opacity="1"/></g></g><path class="foreground" aria-hidden="true" d="" pointer-events="none" display="none"/></g></g><g class="mark-group role-axis" role="graphics-symbol" aria-roledescription="axis" aria-label="X-axis titled 'Anzahl Epochen' for a linear scale with values from 0 to 260"><g transform="translate(0.5,300.5)"><path class="background" aria-hidden="true" d="M0,0h0v0h0Z" pointer-events="none"/><g><g class="mark-rule role-axis-tick" pointer-events="none"><line transform="translate(0,0)" x2="0" y2="5" stroke="#888" stroke-width="1" opacity="1"/><line transform="translate(31,0)" x2="0" y2="5" stroke="#888" stroke-width="1" opacity="1"/><line transform="translate(62,0)" x2="0" y2="5" stroke="#888" stroke-width="1" opacity="1"/><line transform="translate(92,0)" x2="0" y2="5" stroke="#888" stroke-width="1" opacity="1"/><line transform="translate(123,0)" x2="0" y2="5" stroke="#888" stroke-width="1" opacity="1"/><line transform="translate(154,0)" x2="0" y2="5" stroke="#888" stroke-width="1" opacity="1"/><line transform="translate(185,0)" x2="0" y2="5" stroke="#888" stroke-width="1" opacity="1"/><line transform="translate(215,0)" x2="0" y2="5" stroke="#888" stroke-width="1" opacity="1"/><line transform="translate(246,0)" x2="0" y2="5" stroke="#888" stroke-width="1" opacity="1"/><line transform="translate(277,0)" x2="0" y2="5" stroke="#888" stroke-width="1" opacity="1"/><line transform="translate(308,0)" x2="0" y2="5" stroke="#888" stroke-width="1" opacity="1"/><line transform="translate(338,0)" x2="0" y2="5" stroke="#888" stroke-width="1" opacity="1"/><line transform="translate(369,0)" x2="0" y2="5" stroke="#888" stroke-width="1" opacity="1"/><line transform="translate(400,0)" x2="0" y2="5" stroke="#888" stroke-width="1" opacity="1"/></g><g class="mark-text role-axis-label" pointer-events="none"><text text-anchor="start" transform="translate(0,15)" font-family="sans-serif" font-size="10px" fill="#000" opacity="1">0</text><text text-anchor="middle" transform="translate(30.76923076923077,15)" font-family="sans-serif" font-size="10px" fill="#000" opacity="1">20</text><text text-anchor="middle" transform="translate(61.53846153846154,15)" font-family="sans-serif" font-size="10px" fill="#000" opacity="1">40</text><text text-anchor="middle" transform="translate(92.3076923076923,15)" font-family="sans-serif" font-size="10px" fill="#000" opacity="1">60</text><text text-anchor="middle" transform="translate(123.07692307692308,15)" font-family="sans-serif" font-size="10px" fill="#000" opacity="1">80</text><text text-anchor="middle" transform="translate(153.84615384615387,15)" font-family="sans-serif" font-size="10px" fill="#000" opacity="1">100</text><text text-anchor="middle" transform="translate(184.6153846153846,15)" font-family="sans-serif" font-size="10px" fill="#000" opacity="1">120</text><text text-anchor="middle" transform="translate(215.3846153846154,15)" font-family="sans-serif" font-size="10px" fill="#000" opacity="1">140</text><text text-anchor="middle" transform="translate(246.15384615384616,15)" font-family="sans-serif" font-size="10px" fill="#000" opacity="1">160</text><text text-anchor="middle" transform="translate(276.9230769230769,15)" font-family="sans-serif" font-size="10px" fill="#000" opacity="1">180</text><text text-anchor="middle" transform="translate(307.69230769230774,15)" font-family="sans-serif" font-size="10px" fill="#000" opacity="1">200</text><text text-anchor="middle" transform="translate(338.46153846153845,15)" font-family="sans-serif" font-size="10px" fill="#000" opacity="1">220</text><text text-anchor="middle" transform="translate(369.2307692307692,15)" font-family="sans-serif" font-size="10px" fill="#000" opacity="1">240</text><text text-anchor="end" transform="translate(400,15)" font-family="sans-serif" font-size="10px" fill="#000" opacity="1">260</text></g><g class="mark-rule role-axis-domain" pointer-events="none"><line transform="translate(0,0)" x2="400" y2="0" stroke="#888" stroke-width="1" opacity="1"/></g><g class="mark-text role-axis-title" pointer-events="none"><text text-anchor="middle" transform="translate(200,30)" font-family="sans-serif" font-size="11px" font-weight="bold" fill="#000" opacity="1">Anzahl Epochen</text></g></g><path class="foreground" aria-hidden="true" d="" pointer-events="none" display="none"/></g></g><g class="mark-group role-axis" role="graphics-symbol" aria-roledescription="axis" aria-label="Y-axis titled 'Genauigkeit' for a linear scale with values from 0.0 to 0.5"><g transform="translate(0.5,0.5)"><path class="background" aria-hidden="true" d="M0,0h0v0h0Z" pointer-events="none"/><g><g class="mark-rule role-axis-tick" pointer-events="none"><line transform="translate(0,300)" x2="-5" y2="0" stroke="#888" stroke-width="1" opacity="1"/><line transform="translate(0,267)" x2="-5" y2="0" stroke="#888" stroke-width="1" opacity="1"/><line transform="translate(0,233)" x2="-5" y2="0" stroke="#888" stroke-width="1" opacity="1"/><line transform="translate(0,200)" x2="-5" y2="0" stroke="#888" stroke-width="1" opacity="1"/><line transform="translate(0,167)" x2="-5" y2="0" stroke="#888" stroke-width="1" opacity="1"/><line transform="translate(0,133)" x2="-5" y2="0" stroke="#888" stroke-width="1" opacity="1"/><line transform="translate(0,100)" x2="-5" y2="0" stroke="#888" stroke-width="1" opacity="1"/><line transform="translate(0,67)" x2="-5" y2="0" stroke="#888" stroke-width="1" opacity="1"/><line transform="translate(0,33)" x2="-5" y2="0" stroke="#888" stroke-width="1" opacity="1"/><line transform="translate(0,0)" x2="-5" y2="0" stroke="#888" stroke-width="1" opacity="1"/></g><g class="mark-text role-axis-label" pointer-events="none"><text text-anchor="end" transform="translate(-7,303)" font-family="sans-serif" font-size="10px" fill="#000" opacity="1">0.00</text><text text-anchor="end" transform="translate(-7,269.66666666666663)" font-family="sans-serif" font-size="10px" fill="#000" opacity="1">0.05</text><text text-anchor="end" transform="translate(-7,236.33333333333334)" font-family="sans-serif" font-size="10px" fill="#000" opacity="1">0.10</text><text text-anchor="end" transform="translate(-7,203.00000000000003)" font-family="sans-serif" font-size="10px" fill="#000" opacity="1">0.15</text><text text-anchor="end" transform="translate(-7,169.66666666666669)" font-family="sans-serif" font-size="10px" fill="#000" opacity="1">0.20</text><text text-anchor="end" transform="translate(-7,136.33333333333331)" font-family="sans-serif" font-size="10px" fill="#000" opacity="1">0.25</text><text text-anchor="end" transform="translate(-7,103.00000000000001)" font-family="sans-serif" font-size="10px" fill="#000" opacity="1">0.30</text><text text-anchor="end" transform="translate(-7,69.6666666666667)" font-family="sans-serif" font-size="10px" fill="#000" opacity="1">0.35</text><text text-anchor="end" transform="translate(-7,36.333333333333314)" font-family="sans-serif" font-size="10px" fill="#000" opacity="1">0.40</text><text text-anchor="end" transform="translate(-7,3)" font-family="sans-serif" font-size="10px" fill="#000" opacity="1">0.45</text></g><g class="mark-rule role-axis-domain" pointer-events="none"><line transform="translate(0,300)" x2="0" y2="-300" stroke="#888" stroke-width="1" opacity="1"/></g><g class="mark-text role-axis-title" pointer-events="none"><text text-anchor="middle" transform="translate(-30.462890625,150) rotate(-90) translate(0,-2)" font-family="sans-serif" font-size="11px" font-weight="bold" fill="#000" opacity="1">Genauigkeit</text></g></g><path class="foreground" aria-hidden="true" d="" pointer-events="none" display="none"/></g></g><g class="mark-group role-scope pathgroup" role="graphics-object" aria-roledescription="group mark container"><g transform="translate(0,0)"><path class="background" aria-hidden="true" d="M0,0h400v300h-400Z"/><g><g class="mark-line role-mark marks" role="graphics-object" aria-roledescription="line mark container"><path aria-label="Typ: Train; Anzahl Epochen: 1; Genauigkeit: 0" role="graphics-symbol" aria-roledescription="line mark" d="M1.5384615384615385,300L3.076923076923077,300L4.615384615384616,294.99642600615823L6.153846153846154,294.51989494264126L7.6923076923076925,253.7765085697174L9.230769230769232,199.45199092229208L10.76923076923077,172.28972713152567L12.307692307692308,154.65808709462485L13.846153846153847,141.7917589346568L15.384615384615385,131.78460597991943L16.923076923076923,124.63663816452026L18.461538461538463,117.96520948410033L20,114.39123551050822L21.53846153846154,111.53204043706259L23.076923076923077,110.81724166870119L24.615384615384617,108.43460559844969L26.153846153846157,107.0050080617269L27.692307692307693,106.29020929336549L29.230769230769234,105.81367015838624L30.76923076923077,104.38409248987834L32.30769230769231,104.6223521232605L33.84615384615385,102.9544949531555L35.38461538461539,102.9544949531555L36.92307692307693,102.2396961847941L38.46153846153847,101.52489741643271L40,101.28663778305055L41.53846153846154,100.0952998797099L43.07692307692308,100.33357938130696L44.61538461538462,99.85704024632771L46.15384615384615,98.18918307622275L47.69230769230769,97.23612467447916L49.23076923076923,95.32998800277711L50.76923076923077,91.75601402918497L52.307692307692314,84.60804621378583L53.84615384615385,79.60447470347088L55.38461538461539,75.5539615948995L56.92307692307692,73.64784479141235L58.46153846153847,70.3121304512024L60,67.92947451273601L61.53846153846154,66.97641611099246L63.07692307692307,66.97641611099246L64.61538461538461,66.02335770924887L66.15384615384615,63.64070177078247L67.6923076923077,63.16416263580322L69.23076923076923,61.73456509908042L70.76923076923077,61.25804583231608L72.3076923076923,60.066707928975426L73.84615384615385,59.35190916061403L75.38461538461539,57.44579235712688L76.92307692307693,57.20753272374473L78.46153846153847,56.73099358876548L80,56.25447432200114L81.53846153846153,56.49273395538332L83.07692307692308,55.063136418660484L84.61538461538461,54.824876785278335L86.15384615384616,54.58661715189618L87.6923076923077,53.63353888193768L89.23076923076924,54.11007801691693L90.76923076923077,53.63353888193768L92.3076923076923,53.15701961517334L93.84615384615384,52.91875998179118L95.38461538461539,51.250902811686196L96.92307692307692,51.96568171183269L98.46153846153847,51.01262331008913L100,51.01262331008913L101.53846153846153,50.53610404332479L103.07692307692307,50.53610404332479L104.61538461538463,50.2978245417277L106.15384615384616,50.2978245417277L107.6923076923077,50.2978245417277L109.23076923076923,50.05956490834554L110.76923076923077,50.05956490834554L112.3076923076923,49.82130527496339L113.84615384615384,50.05956490834554L115.38461538461537,50.05956490834554L116.92307692307693,49.82130527496339L118.46153846153847,50.05956490834554L120,50.05956490834554L121.53846153846153,50.05956490834554L123.07692307692308,50.05956490834554L124.61538461538461,49.82130527496339L126.15384615384615,50.2978245417277L127.69230769230768,49.583025773366295L129.23076923076923,49.583025773366295L130.76923076923077,49.82130527496339L132.3076923076923,49.82130527496339L133.84615384615384,49.583025773366295L135.3846153846154,49.82130527496339L136.92307692307693,49.583025773366295L138.46153846153845,49.344766139984145L140,49.583025773366295L141.53846153846155,49.583025773366295L143.07692307692307,49.10650650660199L144.6153846153846,49.344766139984145L146.15384615384613,49.344766139984145L147.6923076923077,49.10650650660199L149.23076923076923,48.62996737162274L150.76923076923077,49.344766139984145L152.3076923076923,48.8682468732198L153.84615384615387,49.10650650660199L155.3846153846154,48.62996737162274L156.92307692307693,47.91516860326131L158.46153846153845,47.91516860326131L160,47.91516860326131L161.53846153846155,47.91516860326131L163.07692307692307,47.91516860326131L164.6153846153846,47.91516860326131L166.15384615384616,47.438649336496994L167.6923076923077,47.91516860326131L169.23076923076923,47.438649336496994L170.76923076923077,47.438649336496994L172.30769230769232,47.438649336496994L173.84615384615384,47.438649336496994L175.3846153846154,47.438649336496994L176.9230769230769,47.200389703114844L178.46153846153848,46.962110201517746L180,46.962110201517746L181.53846153846155,46.962110201517746L183.07692307692307,46.962110201517746L184.6153846153846,46.962110201517746L186.15384615384616,46.962110201517746L187.69230769230768,46.48559093475344L189.23076923076923,46.48559093475344L190.76923076923077,46.48559093475344L192.30769230769232,46.48559093475344L193.84615384615384,46.48559093475344L195.3846153846154,46.48559093475344L196.92307692307693,46.48559093475344L198.46153846153845,46.48559093475344L200,46.48559093475344L201.53846153846155,46.48559093475344L203.07692307692307,46.48559093475344L204.61538461538458,46.48559093475344L206.15384615384613,46.48559093475344L207.6923076923077,46.48559093475344L209.23076923076925,46.48559093475344L210.76923076923077,46.24731143315635L212.30769230769232,45.770792166392006L213.84615384615384,45.770792166392006L215.3846153846154,45.770792166392006L216.9230769230769,46.00905179977419L218.46153846153845,45.53253253300985L220.00000000000003,45.770792166392006L221.53846153846155,45.53253253300985L223.0769230769231,45.29425303141276L224.6153846153846,45.29425303141276L226.15384615384616,45.29425303141276L227.69230769230768,44.81773376464845L229.23076923076923,43.864655494689956L230.76923076923075,44.10293499628705L232.30769230769232,43.14987659454346L233.84615384615387,42.911597092946366L235.3846153846154,42.19679832458496L236.92307692307693,41.24373992284141L238.46153846153845,40.767220656077065L240,39.57588275273641L241.53846153846152,38.861083984375014L243.07692307692307,38.38456471761067L244.61538461538464,38.14628521601361L246.15384615384616,37.908025582631424L247.6923076923077,37.908025582631424L249.23076923076923,37.908025582631424L250.76923076923077,37.43150631586711L252.3076923076923,36.478428045908615L253.84615384615384,36.478428045908615L255.38461538461536,36.240168412526465L256.92307692307696,36.00190877914431L258.46153846153845,34.095791975657164L260,34.095791975657164L261.53846153846155,33.85751247406007L263.0769230769231,34.095791975657164L264.6153846153846,33.38099320729573L266.15384615384613,33.38099320729573L267.6923076923077,33.14271370569867L269.2307692307692,33.14271370569867L270.7692307692308,33.14271370569867L272.3076923076923,32.90445407231648L273.84615384615387,32.666194438934326L275.38461538461536,32.18965530395508L276.9230769230769,32.18965530395508L278.46153846153845,32.18965530395508L280,32.18965530395508L281.53846153846155,32.18965530395508L283.0769230769231,31.951395670572925L284.61538461538464,31.713136037190772L286.15384615384613,31.474856535593677L287.6923076923077,31.713136037190772L289.2307692307692,30.760057767232276L290.7692307692308,30.52179813385012L292.30769230769226,30.52179813385012L293.84615384615387,30.52179813385012L295.3846153846154,30.045278867085777L296.9230769230769,29.806999365488686L298.46153846153845,29.56873973210653L300,29.56873973210653L301.53846153846155,29.56873973210653L303.0769230769231,29.330480098724376L304.6153846153846,29.09220059712728L306.15384615384613,28.853940963745128L307.69230769230774,28.615681330362975L309.2307692307692,28.853940963745128L310.7692307692308,28.139142195383727L312.3076923076923,28.377421696980786L313.84615384615387,28.377421696980786L315.38461538461536,28.377421696980786L316.9230769230769,28.377421696980786L318.46153846153845,27.900882562001538L320,28.377421696980786L321.53846153846155,28.377421696980786L323.0769230769231,28.139142195383727L324.61538461538464,28.139142195383727L326.15384615384613,27.900882562001538L327.6923076923077,27.662622928619385L329.2307692307692,27.900882562001538L330.7692307692308,27.42434342702229L332.3076923076923,27.42434342702229L333.84615384615387,27.662622928619385L335.3846153846154,27.42434342702229L336.9230769230769,27.42434342702229L338.46153846153845,27.186083793640137L340,27.186083793640137L341.53846153846155,27.186083793640137L343.07692307692304,27.42434342702229L344.61538461538464,27.186083793640137L346.1538461538462,27.186083793640137L347.6923076923077,27.42434342702229L349.2307692307692,27.186083793640137L350.7692307692308,26.947824160257984L352.3076923076923,27.186083793640137L353.8461538461538,26.947824160257984L355.38461538461536,26.947824160257984L356.92307692307696,26.947824160257984L358.46153846153845,26.70954465866089L360,26.471285025278736L361.53846153846155,26.471285025278736L363.0769230769231,26.70954465866089L364.6153846153846,26.70954465866089L366.15384615384613,26.70954465866089L367.6923076923077,26.70954465866089L369.2307692307692,26.233025391896582L370.7692307692308,26.233025391896582L372.3076923076923,26.70954465866089L373.84615384615387,26.233025391896582L375.38461538461536,25.518226623535178L376.9230769230769,25.756486256917334L378.46153846153845,25.279966990152992L380,25.279966990152992L381.53846153846155,25.04168748855593L383.0769230769231,25.518226623535178" stroke="#f58518" stroke-width="2"/></g></g><path class="foreground" aria-hidden="true" d="" display="none"/></g><g transform="translate(0,0)"><path class="background" aria-hidden="true" d="M0,0h400v300h-400Z"/><g><g class="mark-line role-mark marks" role="graphics-object" aria-roledescription="line mark container"><path aria-label="Typ: Test; Anzahl Epochen: 1; Genauigkeit: 0" role="graphics-symbol" aria-roledescription="line mark" d="M1.5384615384615385,300L3.076923076923077,300L4.615384615384616,293.32777286569274L6.153846153846154,287.7675846219063L7.6923076923076925,236.05782588322955L9.230769230769232,186.0161205132802L10.76923076923077,171.00361784299213L12.307692307692308,162.10730671882632L13.846153846153847,151.54294967651367L15.384615384615385,145.98276019096375L16.923076923076923,134.8623812198639L18.461538461538463,127.63413588205972L20,128.19016774495444L21.53846153846154,125.41006803512575L23.076923076923077,123.18598031997682L24.615384615384617,123.74201218287152L26.153846153846157,120.9619124730428L27.692307692307693,122.07395633061726L29.230769230769234,119.84986861546834L30.76923076923077,117.62580076853435L32.30769230769231,118.73784462610881L33.84615384615385,118.73784462610881L35.38461538461539,115.40173292160033L36.92307692307693,117.06978877385458L38.46153846153847,113.1776452064514L40,112.62163321177164L41.53846153846154,112.06560134887694L43.07692307692308,112.06560134887694L44.61538461538462,109.84153350194296L46.15384615384615,109.84153350194296L47.69230769230769,107.06143379211427L49.23076923076923,105.39337793986004L50.76923076923077,103.16931009292603L52.307692307692314,92.60494311650595L53.84615384615385,90.38087526957196L55.38461538461539,80.9285521507263L56.92307692307692,80.9285521507263L58.46153846153847,80.37254015604654L60,77.0364284515381L61.53846153846154,78.70448430379233L63.07692307692307,75.36835273106894L64.61538461538461,74.25632874170941L66.15384615384615,72.58827288945515L67.6923076923077,73.70029687881471L69.23076923076923,76.4803965886434L70.76923076923077,71.47622903188069L72.3076923076923,68.696129322052L73.84615384615385,67.02807346979777L75.38461538461539,67.02807346979777L76.92307692307693,66.47206147511801L78.46153846153847,65.36001761754355L80,66.47206147511801L81.53846153846153,65.91604948043826L83.07692307692308,65.36001761754355L84.61538461538461,66.47206147511801L86.15384615384616,65.91604948043826L87.6923076923077,65.91604948043826L89.23076923076924,65.91604948043826L90.76923076923077,65.36001761754355L92.3076923076923,65.91604948043826L93.84615384615384,64.8040056228638L95.38461538461539,64.8040056228638L96.92307692307692,63.69196176528933L98.46153846153847,64.24799362818399L100,63.135949770609535L101.53846153846153,63.69196176528933L103.07692307692307,64.24799362818399L104.61538461538463,64.8040056228638L106.15384615384616,62.579917907714865L107.6923076923077,60.91186205546061L109.23076923076923,63.69196176528933L110.76923076923077,60.355850060780845L112.3076923076923,61.46789391835531L113.84615384615384,60.91186205546061L115.38461538461537,60.355850060780845L116.92307692307693,60.91186205546061L118.46153846153847,59.24380620320638L120,59.24380620320638L121.53846153846153,60.355850060780845L123.07692307692308,60.91186205546061L124.61538461538461,60.91186205546061L126.15384615384615,61.46789391835531L127.69230769230768,61.46789391835531L129.23076923076923,59.79983806610109L130.76923076923077,60.355850060780845L132.3076923076923,59.79983806610109L133.84615384615384,59.24380620320638L135.3846153846154,59.24380620320638L136.92307692307693,59.79983806610109L138.46153846153845,59.24380620320638L140,59.79983806610109L141.53846153846155,58.687794208526626L143.07692307692307,59.79983806610109L144.6153846153846,59.24380620320638L146.15384615384613,59.79983806610109L147.6923076923077,59.79983806610109L149.23076923076923,59.79983806610109L150.76923076923077,59.24380620320638L152.3076923076923,59.79983806610109L153.84615384615387,59.24380620320638L155.3846153846154,59.79983806610109L156.92307692307693,59.79983806610109L158.46153846153845,59.24380620320638L160,58.687794208526626L161.53846153846155,58.687794208526626L163.07692307692307,59.24380620320638L164.6153846153846,59.79983806610109L166.15384615384616,59.24380620320638L167.6923076923077,58.13178221384686L169.23076923076923,58.13178221384686L170.76923076923077,58.687794208526626L172.30769230769232,58.13178221384686L173.84615384615384,58.13178221384686L175.3846153846154,58.13178221384686L176.9230769230769,58.13178221384686L178.46153846153848,58.13178221384686L180,58.13178221384686L181.53846153846155,58.13178221384686L183.07692307692307,58.13178221384686L184.6153846153846,58.687794208526626L186.15384615384616,58.687794208526626L187.69230769230768,58.13178221384686L189.23076923076923,58.13178221384686L190.76923076923077,57.57575035095216L192.30769230769232,58.13178221384686L193.84615384615384,58.13178221384686L195.3846153846154,58.13178221384686L196.92307692307693,57.57575035095216L198.46153846153845,57.0197383562724L200,57.57575035095216L201.53846153846155,57.57575035095216L203.07692307692307,58.13178221384686L204.61538461538458,56.463726361592606L206.15384615384613,57.57575035095216L207.6923076923077,57.57575035095216L209.23076923076925,57.0197383562724L210.76923076923077,57.0197383562724L212.30769230769232,57.0197383562724L213.84615384615384,57.0197383562724L215.3846153846154,57.0197383562724L216.9230769230769,57.0197383562724L218.46153846153845,57.0197383562724L220.00000000000003,57.0197383562724L221.53846153846155,57.0197383562724L223.0769230769231,57.0197383562724L224.6153846153846,57.0197383562724L226.15384615384616,56.463726361592606L227.69230769230768,57.0197383562724L229.23076923076923,55.35168250401814L230.76923076923075,54.79567050933838L232.30769230769232,54.23963864644368L233.84615384615387,54.23963864644368L235.3846153846154,54.79567050933838L236.92307692307693,53.12761465708415L238.46153846153845,52.01557079950969L240,52.57158279418945L241.53846153846152,52.01557079950969L243.07692307692307,49.79148308436076L244.61538461538464,49.79148308436076L246.15384615384616,49.235471089681006L247.6923076923077,49.79148308436076L249.23076923076923,49.79148308436076L250.76923076923077,50.34751494725547L252.3076923076923,49.79148308436076L253.84615384615384,49.235471089681006L255.38461538461536,48.12342723210654L256.92307692307696,48.12342723210654L258.46153846153845,47.56741523742678L260,48.12342723210654L261.53846153846155,47.56741523742678L263.0769230769231,46.455371379852316L264.6153846153846,44.78731552759806L266.15384615384613,46.455371379852316L267.6923076923077,46.455371379852316L269.2307692307692,45.899359385172524L270.7692307692308,45.899359385172524L272.3076923076923,46.455371379852316L273.84615384615387,44.2313035329183L275.38461538461536,43.67529153823854L276.9230769230769,44.2313035329183L278.46153846153845,43.67529153823854L280,45.899359385172524L281.53846153846155,45.34334739049276L283.0769230769231,45.899359385172524L284.61538461538464,44.78731552759806L286.15384615384613,43.67529153823854L287.6923076923077,43.119259675343834L289.2307692307692,43.119259675343834L290.7692307692308,43.67529153823854L292.30769230769226,43.119259675343834L293.84615384615387,43.67529153823854L295.3846153846154,42.56324768066408L296.9230769230769,43.67529153823854L298.46153846153845,42.56324768066408L300,42.56324768066408L301.53846153846155,43.119259675343834L303.0769230769231,41.451203823089614L304.6153846153846,42.56324768066408L306.15384615384613,41.451203823089614L307.69230769230774,43.119259675343834L309.2307692307692,43.119259675343834L310.7692307692308,42.56324768066408L312.3076923076923,43.119259675343834L313.84615384615387,42.56324768066408L315.38461538461536,43.119259675343834L316.9230769230769,42.56324768066408L318.46153846153845,42.00723568598431L320,42.56324768066408L321.53846153846155,43.119259675343834L323.0769230769231,43.119259675343834L324.61538461538464,43.119259675343834L326.15384615384613,43.67529153823854L327.6923076923077,43.67529153823854L329.2307692307692,43.67529153823854L330.7692307692308,43.119259675343834L332.3076923076923,42.00723568598431L333.84615384615387,43.67529153823854L335.3846153846154,43.67529153823854L336.9230769230769,42.00723568598431L338.46153846153845,42.00723568598431L340,42.56324768066408L341.53846153846155,43.67529153823854L343.07692307692304,43.67529153823854L344.61538461538464,40.89519182840985L346.1538461538462,40.89519182840985L347.6923076923077,42.00723568598431L349.2307692307692,41.451203823089614L350.7692307692308,42.00723568598431L352.3076923076923,42.00723568598431L353.8461538461538,43.119259675343834L355.38461538461536,42.00723568598431L356.92307692307696,41.451203823089614L358.46153846153845,41.451203823089614L360,40.89519182840985L361.53846153846155,40.33917983373006L363.0769230769231,42.56324768066408L364.6153846153846,42.00723568598431L366.15384615384613,41.451203823089614L367.6923076923077,40.89519182840985L369.2307692307692,42.00723568598431L370.7692307692308,40.89519182840985L372.3076923076923,40.89519182840985L373.84615384615387,40.89519182840985L375.38461538461536,40.33917983373006L376.9230769230769,40.33917983373006L378.46153846153845,39.78314797083539L380,40.89519182840985L381.53846153846155,40.89519182840985L383.0769230769231,40.89519182840985" stroke="#4c78a8" stroke-width="2"/></g></g><path class="foreground" aria-hidden="true" d="" display="none"/></g></g><g class="mark-group role-legend" role="graphics-symbol" aria-roledescription="legend" aria-label="Symbol legend titled 'Typ' for stroke color with 2 values: Test, Train"><g transform="translate(418,0)"><path class="background" aria-hidden="true" d="M0,0h39v40h-39Z" pointer-events="none"/><g><g class="mark-group role-legend-entry"><g transform="translate(0,16)"><path class="background" aria-hidden="true" d="M0,0h0v0h0Z" pointer-events="none"/><g><g class="mark-group role-scope" role="graphics-object" aria-roledescription="group mark container"><g transform="translate(0,0)"><path class="background" aria-hidden="true" d="M0,0h38.412109375v11h-38.412109375Z" pointer-events="none" opacity="1"/><g><g class="mark-symbol role-legend-symbol" pointer-events="none"><path transform="translate(6,6)" d="M-5,0L5,0" stroke="#4c78a8" stroke-width="1.5" opacity="1"/></g><g class="mark-text role-legend-label" pointer-events="none"><text text-anchor="start" transform="translate(16,9)" font-family="sans-serif" font-size="10px" fill="#000" opacity="1">Test</text></g></g><path class="foreground" aria-hidden="true" d="" pointer-events="none" display="none"/></g><g transform="translate(0,13)"><path class="background" aria-hidden="true" d="M0,0h38.412109375v11h-38.412109375Z" pointer-events="none" opacity="1"/><g><g class="mark-symbol role-legend-symbol" pointer-events="none"><path transform="translate(6,6)" d="M-5,0L5,0" stroke="#f58518" stroke-width="1.5" opacity="1"/></g><g class="mark-text role-legend-label" pointer-events="none"><text text-anchor="start" transform="translate(16,9)" font-family="sans-serif" font-size="10px" fill="#000" opacity="1">Train</text></g></g><path class="foreground" aria-hidden="true" d="" pointer-events="none" display="none"/></g></g></g><path class="foreground" aria-hidden="true" d="" pointer-events="none" display="none"/></g></g><g class="mark-text role-legend-title" pointer-events="none"><text text-anchor="start" transform="translate(0,9)" font-family="sans-serif" font-size="11px" font-weight="bold" fill="#000" opacity="1">Typ</text></g></g><path class="foreground" aria-hidden="true" d="" pointer-events="none" display="none"/></g></g></g><path class="foreground" aria-hidden="true" d="" display="none"/></g></g></g></svg>