<svg xmlns="http://www.w3.org/2000/svg" xmlns:xlink="http://www.w3.org/1999/xlink" version="1.1" class="marks" width="509" height="347" viewBox="0 0 509 347"><rect width="509" height="347" fill="white"/><g fill="none" stroke-miterlimit="10" transform="translate(47,10)"><g class="mark-group role-frame root" role="graphics-object" aria-roledescription="group mark container"><g transform="translate(0,0)"><path class="background" aria-hidden="true" d="M0.5,0.5h400v300h-400Z" stroke="#ddd"/><g><g class="mark-group role-axis" aria-hidden="true"><g transform="translate(0.5,300.5)"><path class="background" aria-hidden="true" d="M0,0h0v0h0Z" pointer-events="none"/><g><g class="mark-rule role-axis-grid" pointer-events="none"><line transform="translate(0,-300)" x2="0" y2="300" stroke="#ddd" stroke-width="1" opacity="1"/><line transform="translate(31,-300)" x2="0" y2="300" stroke="#ddd" stroke-width="1" opacity="1"/><line transform="translate(62,-300)" x2="0" y2="300" stroke="#ddd" stroke-width="1" opacity="1"/><line transform="translate(92,-300)" x2="0" y2="300" stroke="#ddd" stroke-width="1" opacity="1"/><line transform="translate(123,-300)" x2="0" y2="300" stroke="#ddd" stroke-width="1" opacity="1"/><line transform="translate(154,-300)" x2="0" y2="300" stroke="#ddd" stroke-width="1" opacity="1"/><line transform="translate(185,-300)" x2="0" y2="300" stroke="#ddd" stroke-width="1" opacity="1"/><line transform="translate(215,-300)" x2="0" y2="300" stroke="#ddd" stroke-width="1" opacity="1"/><line transform="translate(246,-300)" x2="0" y2="300" stroke="#ddd" stroke-width="1" opacity="1"/><line transform="translate(277,-300)" x2="0" y2="300" stroke="#ddd" stroke-width="1" opacity="1"/><line transform="translate(308,-300)" x2="0" y2="300" stroke="#ddd" stroke-width="1" opacity="1"/><line transform="translate(338,-300)" x2="0" y2="300" stroke="#ddd" stroke-width="1" opacity="1"/><line transform="translate(369,-300)" x2="0" y2="300" stroke="#ddd" stroke-width="1" opacity="1"/><line transform="translate(400,-300)" x2="0" y2="300" stroke="#ddd" stroke-width="1" opacity="1"/></g></g><path class="foreground" aria-hidden="true" d="" pointer-events="none" display="none"/></g></g><g class="mark-group role-axis" aria-hidden="true"><g transform="translate(0.5,0.5)"><path class="background" aria-hidden="true" d="M0,0h0v0h0Z" pointer-events="none"/><g><g class="mark-rule role-axis-grid" pointer-events="none"><line transform="translate(0,300)" x2="400" y2="0" stroke="#ddd" stroke-width="1" opacity="1"/><line transform="translate(0,270)" x2="400" y2="0" stroke="#ddd" stroke-width="1" opacity="1"/><line transform="translate(0,240)" x2="400" y2="0" stroke="#ddd" stroke-width="1" opacity="1"/><line transform="translate(0,210)" x2="400" y2="0" stroke="#ddd" stroke-width="1" opacity="1"/><line transform="translate(0,180)" x2="400" y2="0" stroke="#ddd" stroke-width="1" opacity="1"/><line transform="translate(0,150)" x2="400" y2="0" stroke="#ddd" stroke-width="1" opacity="1"/><line transform="translate(0,120)" x2="400" y2="0" stroke="#ddd" stroke-width="1" opacity="1"/><line transform="translate(0,90)" x2="400" y2="0" stroke="#ddd" stroke-width="1" opacity="1"/><line transform="translate(0,60)" x2="400" y2="0" stroke="#ddd" stroke-width="1" opacity="1"/><line transform="translate(0,30)" x2="400" y2="0" stroke="#ddd" stroke-width="1" opacity="1"/><line transform="translate(0,0)" x2="400" y2="0" stroke="#ddd" stroke-width="1" opacity="1"/></g></g><path class="foreground" aria-hidden="true" d="" pointer-events="none" display="none"/></g></g><g class="mark-group role-axis" role="graphics-symbol" aria-roledescription="axis" aria-label="X-axis titled 'Anzahl Epochen' for a linear scale with values from 0 to 260"><g transform="translate(0.5,300.5)"><path class="background" aria-hidden="true" d="M0,0h0v0h0Z" pointer-events="none"/><g><g class="mark-rule role-axis-tick" pointer-events="none"><line transform="translate(0,0)" x2="0" y2="5" stroke="#888" stroke-width="1" opacity="1"/><line transform="translate(31,0)" x2="0" y2="5" stroke="#888" stroke-width="1" opacity="1"/><line transform="translate(62,0)" x2="0" y2="5" stroke="#888" stroke-width="1" opacity="1"/><line transform="translate(92,0)" x2="0" y2="5" stroke="#888" stroke-width="1" opacity="1"/><line transform="translate(123,0)" x2="0" y2="5" stroke="#888" stroke-width="1" opacity="1"/><line transform="translate(154,0)" x2="0" y2="5" stroke="#888" stroke-width="1" opacity="1"/><line transform="translate(185,0)" x2="0" y2="5" stroke="#888" stroke-width="1" opacity="1"/><line transform="translate(215,0)" x2="0" y2="5" stroke="#888" stroke-width="1" opacity="1"/><line transform="translate(246,0)" x2="0" y2="5" stroke="#888" stroke-width="1" opacity="1"/><line transform="translate(277,0)" x2="0" y2="5" stroke="#888" stroke-width="1" opacity="1"/><line transform="translate(308,0)" x2="0" y2="5" stroke="#888" stroke-width="1" opacity="1"/><line transform="translate(338,0)" x2="0" y2="5" stroke="#888" stroke-width="1" opacity="1"/><line transform="translate(369,0)" x2="0" y2="5" stroke="#888" stroke-width="1" opacity="1"/><line transform="translate(400,0)" x2="0" y2="5" stroke="#888" stroke-width="1" opacity="1"/></g><g class="mark-text role-axis-label" pointer-events="none"><text text-anchor="start" transform="translate(0,15)" font-family="sans-serif" font-size="10px" fill="#000" opacity="1">0</text><text text-anchor="middle" transform="translate(30.76923076923077,15)" font-family="sans-serif" font-size="10px" fill="#000" opacity="1">20</text><text text-anchor="middle" transform="translate(61.53846153846154,15)" font-family="sans-serif" font-size="10px" fill="#000" opacity="1">40</text><text text-anchor="middle" transform="translate(92.3076923076923,15)" font-family="sans-serif" font-size="10px" fill="#000" opacity="1">60</text><text text-anchor="middle" transform="translate(123.07692307692308,15)" font-family="sans-serif" font-size="10px" fill="#000" opacity="1">80</text><text text-anchor="middle" transform="translate(153.84615384615387,15)" font-family="sans-serif" font-size="10px" fill="#000" opacity="1">100</text><text text-anchor="middle" transform="translate(184.6153846153846,15)" font-family="sans-serif" font-size="10px" fill="#000" opacity="1">120</text><text text-anchor="middle" transform="translate(215.3846153846154,15)" font-family="sans-serif" font-size="10px" fill="#000" opacity="1">140</text><text text-anchor="middle" transform="translate(246.15384615384616,15)" font-family="sans-serif" font-size="10px" fill="#000" opacity="1">160</text><text text-anchor="middle" transform="translate(276.9230769230769,15)" font-family="sans-serif" font-size="10px" fill="#000" opacity="1">180</text><text text-anchor="middle" transform="translate(307.69230769230774,15)" font-family="sans-serif" font-size="10px" fill="#000" opacity="1">200</text><text text-anchor="middle" transform="translate(338.46153846153845,15)" font-family="sans-serif" font-size="10px" fill="#000" opacity="1">220</text><text text-anchor="middle" transform="translate(369.2307692307692,15)" font-family="sans-serif" font-size="10px" fill="#000" opacity="1">240</text><text text-anchor="end" transform="translate(400,15)" font-family="sans-serif" font-size="10px" fill="#000" opacity="1">260</text></g><g class="mark-rule role-axis-domain" pointer-events="none"><line transform="translate(0,0)" x2="400" y2="0" stroke="#888" stroke-width="1" opacity="1"/></g><g class="mark-text role-axis-title" pointer-events="none"><text text-anchor="middle" transform="translate(200,30)" font-family="sans-serif" font-size="11px" font-weight="bold" fill="#000" opacity="1">Anzahl Epochen</text></g></g><path class="foreground" aria-hidden="true" d="" pointer-events="none" display="none"/></g></g><g class="mark-group role-axis" role="graphics-symbol" aria-roledescription="axis" aria-label="Y-axis titled 'Genauigkeit' for a linear scale with values from 0.0 to 0.5"><g transform="translate(0.5,0.5)"><path class="background" aria-hidden="true" d="M0,0h0v0h0Z" pointer-events="none"/><g><g class="mark-rule role-axis-tick" pointer-events="none"><line transform="translate(0,300)" x2="-5" y2="0" stroke="#888" stroke-width="1" opacity="1"/><line transform="translate(0,270)" x2="-5" y2="0" stroke="#888" stroke-width="1" opacity="1"/><line transform="translate(0,240)" x2="-5" y2="0" stroke="#888" stroke-width="1" opacity="1"/><line transform="translate(0,210)" x2="-5" y2="0" stroke="#888" stroke-width="1" opacity="1"/><line transform="translate(0,180)" x2="-5" y2="0" stroke="#888" stroke-width="1" opacity="1"/><line transform="translate(0,150)" x2="-5" y2="0" stroke="#888" stroke-width="1" opacity="1"/><line transform="translate(0,120)" x2="-5" y2="0" stroke="#888" stroke-width="1" opacity="1"/><line transform="translate(0,90)" x2="-5" y2="0" stroke="#888" stroke-width="1" opacity="1"/><line transform="translate(0,60)" x2="-5" y2="0" stroke="#888" stroke-width="1" opacity="1"/><line transform="translate(0,30)" x2="-5" y2="0" stroke="#888" stroke-width="1" opacity="1"/><line transform="translate(0,0)" x2="-5" y2="0" stroke="#888" stroke-width="1" opacity="1"/></g><g class="mark-text role-axis-label" pointer-events="none"><text text-anchor="end" transform="translate(-7,303)" font-family="sans-serif" font-size="10px" fill="#000" opacity="1">0.00</text><text text-anchor="end" transform="translate(-7,273)" font-family="sans-serif" font-size="10px" fill="#000" opacity="1">0.05</text><text text-anchor="end" transform="translate(-7,243)" font-family="sans-serif" font-size="10px" fill="#000" opacity="1">0.10</text><text text-anchor="end" transform="translate(-7,213)" font-family="sans-serif" font-size="10px" fill="#000" opacity="1">0.15</text><text text-anchor="end" transform="translate(-7,183)" font-family="sans-serif" font-size="10px" fill="#000" opacity="1">0.20</text><text text-anchor="end" transform="translate(-7,153)" font-family="sans-serif" font-size="10px" fill="#000" opacity="1">0.25</text><text text-anchor="end" transform="translate(-7,123)" font-family="sans-serif" font-size="10px" fill="#000" opacity="1">0.30</text><text text-anchor="end" transform="translate(-7,93.00000000000001)" font-family="sans-serif" font-size="10px" fill="#000" opacity="1">0.35</text><text text-anchor="end" transform="translate(-7,62.999999999999986)" font-family="sans-serif" font-size="10px" fill="#000" opacity="1">0.40</text><text text-anchor="end" transform="translate(-7,32.99999999999999)" font-family="sans-serif" font-size="10px" fill="#000" opacity="1">0.45</text><text text-anchor="end" transform="translate(-7,3)" font-family="sans-serif" font-size="10px" fill="#000" opacity="1">0.50</text></g><g class="mark-rule role-axis-domain" pointer-events="none"><line transform="translate(0,300)" x2="0" y2="-300" stroke="#888" stroke-width="1" opacity="1"/></g><g class="mark-text role-axis-title" pointer-events="none"><text text-anchor="middle" transform="translate(-30.462890625,150) rotate(-90) translate(0,-2)" font-family="sans-serif" font-size="11px" font-weight="bold" fill="#000" opacity="1">Genauigkeit</text></g></g><path class="foreground" aria-hidden="true" d="" pointer-events="none" display="none"/></g></g><g class="mark-group role-scope pathgroup" role="graphics-object" aria-roledescription="group mark container"><g transform="translate(0,0)"><path class="background" aria-hidden="true" d="M0,0h400v300h-400Z"/><g><g class="mark-line role-mark marks" role="graphics-object" aria-roledescription="line mark container"><path aria-label="Typ: Train; Anzahl Epochen: 1; Genauigkeit: 0.0786275938153" role="graphics-symbol" aria-roledescription="line mark" d="M1.5384615384615385,252.82344371080399L3.076923076923077,160.829159617424L4.615384615384616,136.59757375717163L6.153846153846154,128.02001237869263L7.6923076923076925,125.66118836402893L9.230769230769232,123.73123168945312L10.76923076923077,120.51465511322021L12.307692307692308,117.2980785369873L13.846153846153847,106.7905604839325L15.384615384615385,94.13866996765137L16.923076923076923,89.42102193832397L18.461538461538463,85.34667491912842L20,83.41671824455261L21.53846153846154,81.05789422988892L23.076923076923077,80.62902688980103L24.615384615384617,79.98570799827576L26.153846153846157,79.12795543670654L27.692307692307693,77.62688398361206L29.230769230769234,77.19799876213074L30.76923076923077,76.55467987060547L32.30769230769231,77.19799876213074L33.84615384615385,76.55467987060547L35.38461538461539,76.55467987060547L36.92307692307693,75.9113609790802L38.46153846153847,76.12581253051758L40,75.9113609790802L41.53846153846154,75.05360841751099L43.07692307692308,74.19585585594177L44.61538461538462,74.83917474746704L46.15384615384615,74.62472319602966L47.69230769230769,73.33810329437256L49.23076923076923,73.98142218589783L50.76923076923077,73.5525369644165L52.307692307692314,73.5525369644165L53.84615384615385,73.33810329437256L55.38461538461539,73.5525369644165L56.92307692307692,72.90921807289124L58.46153846153847,72.90921807289124L60,72.90921807289124L61.53846153846154,72.69478440284729L63.07692307692307,72.05146551132202L64.61538461538461,70.12150883674622L66.15384615384615,68.40600371360779L67.6923076923077,67.97711849212646L69.23076923076923,66.47604703903198L70.76923076923077,64.9749755859375L72.3076923076923,64.33165669441223L73.84615384615385,62.40171790122986L75.38461538461539,60.68621277809143L76.92307692307693,58.3273708820343L78.46153846153847,55.11079430580139L80,53.180837631225586L81.53846153846153,51.6797661781311L83.07692307692308,51.036447286605835L84.61538461538461,49.964261054992676L86.15384615384616,48.892056941986084L87.6923076923077,48.67762327194214L89.23076923076924,47.176551818847656L90.76923076923077,46.747684478759766L92.3076923076923,46.31879925727844L93.84615384615384,46.31879925727844L95.38461538461539,46.1043655872345L96.92307692307692,45.675480365753174L98.46153846153847,46.1043655872345L100,45.675480365753174L101.53846153846153,45.032161474227905L103.07692307692307,45.032161474227905L104.61538461538463,45.032161474227905L106.15384615384616,44.603294134140015L107.6923076923077,44.81772780418396L109.23076923076923,44.17440891265869L110.76923076923077,44.38884258270264L112.3076923076923,43.959975242614746L113.84615384615384,43.959975242614746L115.38461538461537,43.74552369117737L116.92307692307693,44.38884258270264L118.46153846153847,43.74552369117737L120,43.74552369117737L121.53846153846153,43.53109002113342L123.07692307692308,43.10222268104553L124.61538461538461,42.458903789520264L126.15384615384615,42.244452238082886L127.69230769230768,42.03001856803894L129.23076923076923,41.60115122795105L130.76923076923077,40.95783233642578L132.3076923076923,39.88562822341919L133.84615384615384,39.24230933189392L135.3846153846154,38.81344199180603L136.92307692307693,38.17012310028076L138.46153846153845,37.52680420875549L140,37.31237053871155L141.53846153846155,36.883485317230225L143.07692307692307,36.454617977142334L144.6153846153846,36.02573275566101L146.15384615384613,35.38241386413574L147.6923076923077,35.1679801940918L149.23076923076923,35.38241386413574L150.76923076923077,34.95354652404785L152.3076923076923,34.739094972610474L153.84615384615387,34.739094972610474L155.3846153846154,34.739094972610474L156.92307692307693,34.52466130256653L158.46153846153845,34.52466130256653L160,34.31022763252258L161.53846153846155,34.31022763252258L163.07692307692307,34.31022763252258L164.6153846153846,34.095776081085205L166.15384615384616,33.666908740997314L167.6923076923077,33.88134241104126L169.23076923076923,33.88134241104126L170.76923076923077,33.023589849472046L172.30769230769232,33.45245718955994L173.84615384615384,32.59470462799072L175.3846153846154,31.522518396377563L176.9230769230769,31.308084726333618L178.46153846153848,31.09363317489624L180,30.45031428337097L181.53846153846155,30.235880613327026L183.07692307692307,29.163694381713867L184.6153846153846,28.5203754901886L186.15384615384616,27.87705659866333L187.69230769230768,27.448171377182007L189.23076923076923,27.019304037094116L190.76923076923077,26.80485248565674L192.30769230769232,26.590418815612793L193.84615384615384,26.161551475524902L195.3846153846154,25.947099924087524L196.92307692307693,25.73266625404358L198.46153846153845,25.518232583999634L200,24.874913692474365L201.53846153846155,23.588275909423828L203.07692307692307,23.373842239379883L204.61538461538458,23.159390687942505L206.15384615384613,23.159390687942505L207.6923076923077,23.159390687942505L209.23076923076925,23.159390687942505L210.76923076923077,23.159390687942505L212.30769230769232,23.159390687942505L213.84615384615384,22.730523347854614L215.3846153846154,22.51608967781067L216.9230769230769,22.730523347854614L218.46153846153845,22.51608967781067L220.00000000000003,22.30163812637329L221.53846153846155,22.30163812637329L223.0769230769231,22.30163812637329L224.6153846153846,22.30163812637329L226.15384615384616,21.658319234848022L227.69230769230768,21.015018224716187L229.23076923076923,20.80056667327881L230.76923076923075,20.586133003234863L232.30769230769232,20.586133003234863L233.84615384615387,19.72838044166565L235.3846153846154,19.299495220184326L236.92307692307693,18.01285743713379L238.46153846153845,17.5839900970459L240,17.5839900970459L241.53846153846152,17.5839900970459L243.07692307692307,16.726237535476685L244.61538461538464,15.654033422470093L246.15384615384616,15.439599752426147L247.6923076923077,14.581847190856934L249.23076923076923,13.72409462928772L250.76923076923077,13.509643077850342L252.3076923076923,13.509643077850342L253.84615384615384,13.080775737762451L255.38461538461536,13.295209407806396L256.92307692307696,12.651890516281128L258.46153846153845,12.437456846237183L260,12.437456846237183L261.53846153846155,12.00857162475586L263.0769230769231,12.00857162475586L264.6153846153846,11.794137954711914L266.15384615384613,11.579704284667969L267.6923076923077,11.579704284667969L269.2307692307692,11.150819063186646L270.7692307692308,11.150819063186646L272.3076923076923,10.9363853931427L273.84615384615387,10.721951723098755L275.38461538461536,10.721951723098755L276.9230769230769,10.721951723098755L278.46153846153845,10.721951723098755L280,10.721951723098755L281.53846153846155,10.721951723098755L283.0769230769231,10.721951723098755L284.61538461538464,10.721951723098755L286.15384615384613,10.507500171661377L287.6923076923077,10.507500171661377L289.2307692307692,10.507500171661377L290.7692307692308,10.507500171661377L292.30769230769226,10.507500171661377L293.84615384615387,10.293066501617432L295.3846153846154,10.078632831573486L296.9230769230769,10.078632831573486L298.46153846153845,10.078632831573486L300,9.864181280136108L301.53846153846155,9.435313940048218L303.0769230769231,9.220880270004272L304.6153846153846,9.220880270004272L306.15384615384613,9.220880270004272L307.69230769230774,9.220880270004272L309.2307692307692,9.220880270004272L310.7692307692308,9.006428718566895L312.3076923076923,9.006428718566895L313.84615384615387,8.79199504852295L315.38461538461536,8.79199504852295L316.9230769230769,8.79199504852295L318.46153846153845,8.79199504852295L320,8.79199504852295L321.53846153846155,8.79199504852295L323.0769230769231,8.79199504852295L324.61538461538464,8.79199504852295L326.15384615384613,8.79199504852295L327.6923076923077,8.79199504852295L329.2307692307692,8.577561378479004L330.7692307692308,8.79199504852295L332.3076923076923,8.79199504852295L333.84615384615387,8.577561378479004L335.3846153846154,8.363109827041626L336.9230769230769,8.577561378479004L338.46153846153845,8.363109827041626L340,8.363109827041626L341.53846153846155,8.363109827041626L343.07692307692304,8.363109827041626L344.61538461538464,8.363109827041626L346.1538461538462,8.363109827041626L347.6923076923077,8.363109827041626L349.2307692307692,8.363109827041626L350.7692307692308,8.363109827041626L352.3076923076923,8.363109827041626L353.8461538461538,8.363109827041626L355.38461538461536,8.363109827041626L356.92307692307696,8.363109827041626L358.46153846153845,8.363109827041626L360,8.363109827041626L361.53846153846155,8.363109827041626L363.0769230769231,8.363109827041626L364.6153846153846,7.934242486953735L366.15384615384613,7.934242486953735L367.6923076923077,7.934242486953735L369.2307692307692,7.934242486953735L370.7692307692308,7.934242486953735L372.3076923076923,7.934242486953735L373.84615384615387,7.934242486953735L375.38461538461536,7.934242486953735L376.9230769230769,7.934242486953735L378.46153846153845,7.934242486953735L380,7.934242486953735L381.53846153846155,7.719790935516357L383.0769230769231,7.934242486953735" stroke="#f58518" stroke-width="2"/></g></g><path class="foreground" aria-hidden="true" d="" display="none"/></g><g transform="translate(0,0)"><path class="background" aria-hidden="true" d="M0,0h400v300h-400Z"/><g><g class="mark-line role-mark marks" role="graphics-object" aria-roledescription="line mark container"><path aria-label="Typ: Test; Anzahl Epochen: 1; Genauigkeit: 0.164303585887" role="graphics-symbol" aria-roledescription="line mark" d="M1.5384615384615385,201.41784846782684L3.076923076923077,150.8757323026657L4.615384615384616,128.85738015174866L6.153846153846154,127.85654067993164L7.6923076923076925,126.85571908950806L9.230769230769232,124.85404014587402L10.76923076923077,123.35278987884521L12.307692307692308,122.85237908363342L13.846153846153847,99.83319640159607L15.384615384615385,98.33194613456726L16.923076923076923,96.33026719093323L18.461538461538463,88.32360506057739L20,92.32694506645203L21.53846153846154,86.32192611694336L23.076923076923077,85.32110452651978L24.615384615384617,82.31860399246216L26.153846153846157,83.31942558288574L27.692307692307693,85.32110452651978L29.230769230769234,81.81817531585693L30.76923076923077,82.81901478767395L32.30769230769231,82.81901478767395L33.84615384615385,82.81901478767395L35.38461538461539,82.81901478767395L36.92307692307693,79.81651425361633L38.46153846153847,79.31610345840454L40,80.31692504882812L41.53846153846154,78.81567478179932L43.07692307692308,79.31610345840454L44.61538461538462,78.81567478179932L46.15384615384615,78.81567478179932L47.69230769230769,78.81567478179932L49.23076923076923,78.81567478179932L50.76923076923077,77.81485319137573L52.307692307692314,77.81485319137573L53.84615384615385,77.81485319137573L55.38461538461539,77.81485319137573L56.92307692307692,77.81485319137573L58.46153846153847,77.81485319137573L60,76.81401371955872L61.53846153846154,76.31360292434692L63.07692307692307,76.31360292434692L64.61538461538461,75.31276345252991L66.15384615384615,75.8131742477417L67.6923076923077,74.81233477592468L69.23076923076923,73.31108450889587L70.76923076923077,72.31026291847229L72.3076923076923,70.80901265144348L73.84615384615385,70.30858397483826L75.38461538461539,67.80651211738586L76.92307692307693,66.80567264556885L78.46153846153847,62.30192184448242L80,61.301082372665405L81.53846153846153,60.80067157745361L83.07692307692308,59.7998321056366L84.61538461538461,58.79899263381958L86.15384615384616,57.29774236679077L87.6923076923077,57.798171043395996L89.23076923076924,55.79649209976196L90.76923076923077,57.798171043395996L92.3076923076923,55.79649209976196L93.84615384615384,56.79733157157898L95.38461538461539,56.79733157157898L96.92307692307692,57.29774236679077L98.46153846153847,55.79649209976196L100,56.29692077636719L101.53846153846153,54.79567050933838L103.07692307692307,54.295241832733154L104.61538461538463,52.793991565704346L106.15384615384616,53.79483103752136L107.6923076923077,54.295241832733154L109.23076923076923,52.793991565704346L110.76923076923077,52.793991565704346L112.3076923076923,52.293580770492554L113.84615384615384,52.293580770492554L115.38461538461537,51.29274129867554L116.92307692307693,52.293580770492554L118.46153846153847,52.793991565704346L120,51.79315209388733L121.53846153846153,50.792330503463745L123.07692307692308,50.792330503463745L124.61538461538461,50.792330503463745L126.15384615384615,50.29190182685852L127.69230769230768,49.29108023643494L129.23076923076923,49.79149103164673L130.76923076923077,49.79149103164673L132.3076923076923,50.29190182685852L133.84615384615384,46.28857970237732L135.3846153846154,47.2894012928009L136.92307692307693,47.2894012928009L138.46153846153845,46.28857970237732L140,46.28857970237732L141.53846153846155,47.2894012928009L143.07692307692307,46.78899049758911L144.6153846153846,46.78899049758911L146.15384615384613,46.28857970237732L147.6923076923077,45.788151025772095L149.23076923076923,46.78899049758911L150.76923076923077,45.788151025772095L152.3076923076923,46.28857970237732L153.84615384615387,45.2877402305603L155.3846153846154,46.78899049758911L156.92307692307693,46.78899049758911L158.46153846153845,45.788151025772095L160,47.2894012928009L161.53846153846155,45.2877402305603L163.07692307692307,45.788151025772095L164.6153846153846,44.78732943534851L166.15384615384616,44.78732943534851L167.6923076923077,44.286900758743286L169.23076923076923,44.78732943534851L170.76923076923077,43.786489963531494L172.30769230769232,44.78732943534851L173.84615384615384,44.286900758743286L175.3846153846154,43.786489963531494L176.9230769230769,44.78732943534851L178.46153846153848,42.78565049171448L180,42.285239696502686L181.53846153846155,42.78565049171448L183.07692307692307,41.28440022468567L184.6153846153846,41.784828901290894L186.15384615384616,41.28440022468567L187.69230769230768,40.78398942947388L189.23076923076923,41.28440022468567L190.76923076923077,41.28440022468567L192.30769230769232,40.78398942947388L193.84615384615384,40.78398942947388L195.3846153846154,39.28273916244507L196.92307692307693,40.28356075286865L198.46153846153845,39.78314995765686L200,40.28356075286865L201.53846153846155,39.28273916244507L203.07692307692307,39.78314995765686L204.61538461538458,37.78148889541626L206.15384615384613,37.78148889541626L207.6923076923077,38.782310485839844L209.23076923076925,38.782310485839844L210.76923076923077,39.28273916244507L212.30769230769232,38.782310485839844L213.84615384615384,39.28273916244507L215.3846153846154,39.28273916244507L216.9230769230769,37.78148889541626L218.46153846153845,38.782310485839844L220.00000000000003,38.28189969062805L221.53846153846155,37.281060218811035L223.0769230769231,36.28023862838745L224.6153846153846,36.78064942359924L226.15384615384616,36.28023862838745L227.69230769230768,36.28023862838745L229.23076923076923,35.77980995178223L230.76923076923075,35.77980995178223L232.30769230769232,35.279399156570435L233.84615384615387,35.279399156570435L235.3846153846154,34.27855968475342L236.92307692307693,32.77730941772461L238.46153846153845,33.277738094329834L240,32.77730941772461L241.53846153846152,32.77730941772461L243.07692307692307,33.277738094329834L244.61538461538464,32.77730941772461L246.15384615384616,33.277738094329834L247.6923076923077,32.77730941772461L249.23076923076923,31.776487827301025L250.76923076923077,32.77730941772461L252.3076923076923,32.27689862251282L253.84615384615384,33.277738094329834L255.38461538461536,33.277738094329834L256.92307692307696,32.77730941772461L258.46153846153845,32.77730941772461L260,32.77730941772461L261.53846153846155,32.27689862251282L263.0769230769231,32.77730941772461L264.6153846153846,32.27689862251282L266.15384615384613,33.277738094329834L267.6923076923077,31.776487827301025L269.2307692307692,32.77730941772461L270.7692307692308,32.27689862251282L272.3076923076923,31.2760591506958L273.84615384615387,31.776487827301025L275.38461538461536,30.77564835548401L276.9230769230769,31.2760591506958L278.46153846153845,30.77564835548401L280,31.776487827301025L281.53846153846155,31.2760591506958L283.0769230769231,31.2760591506958L284.61538461538464,31.2760591506958L286.15384615384613,31.776487827301025L287.6923076923077,30.77564835548401L289.2307692307692,30.275237560272217L290.7692307692308,31.776487827301025L292.30769230769226,30.77564835548401L293.84615384615387,30.77564835548401L295.3846153846154,31.2760591506958L296.9230769230769,31.776487827301025L298.46153846153845,30.77564835548401L300,31.2760591506958L301.53846153846155,30.77564835548401L303.0769230769231,30.77564835548401L304.6153846153846,31.776487827301025L306.15384615384613,30.77564835548401L307.69230769230774,29.774808883666992L309.2307692307692,30.77564835548401L310.7692307692308,29.774808883666992L312.3076923076923,30.275237560272217L313.84615384615387,29.774808883666992L315.38461538461536,30.77564835548401L316.9230769230769,30.77564835548401L318.46153846153845,30.275237560272217L320,30.275237560272217L321.53846153846155,31.2760591506958L323.0769230769231,29.774808883666992L324.61538461538464,30.275237560272217L326.15384615384613,31.2760591506958L327.6923076923077,30.77564835548401L329.2307692307692,30.275237560272217L330.7692307692308,28.773969411849976L332.3076923076923,29.774808883666992L333.84615384615387,30.275237560272217L335.3846153846154,31.2760591506958L336.9230769230769,30.275237560272217L338.46153846153845,28.773969411849976L340,29.774808883666992L341.53846153846155,29.774808883666992L343.07692307692304,30.275237560272217L344.61538461538464,30.275237560272217L346.1538461538462,29.774808883666992L347.6923076923077,30.275237560272217L349.2307692307692,29.2743980884552L350.7692307692308,30.77564835548401L352.3076923076923,28.773969411849976L353.8461538461538,29.774808883666992L355.38461538461536,28.773969411849976L356.92307692307696,29.2743980884552L358.46153846153845,30.275237560272217L360,30.77564835548401L361.53846153846155,30.275237560272217L363.0769230769231,31.2760591506958L364.6153846153846,30.77564835548401L366.15384615384613,29.2743980884552L367.6923076923077,30.275237560272217L369.2307692307692,29.2743980884552L370.7692307692308,29.774808883666992L372.3076923076923,29.2743980884552L373.84615384615387,28.773969411849976L375.38461538461536,30.275237560272217L376.9230769230769,31.2760591506958L378.46153846153845,29.774808883666992L380,30.77564835548401L381.53846153846155,30.77564835548401L383.0769230769231,30.275237560272217" stroke="#4c78a8" stroke-width="2"/></g></g><path class="foreground" aria-hidden="true" d="" display="none"/></g></g><g class="mark-group role-legend" role="graphics-symbol" aria-roledescription="legend" aria-label="Symbol legend titled 'Typ' for stroke color with 2 values: Test, Train"><g transform="translate(418,0)"><path class="background" aria-hidden="true" d="M0,0h39v40h-39Z" pointer-events="none"/><g><g class="mark-group role-legend-entry"><g transform="translate(0,16)"><path class="background" aria-hidden="true" d="M0,0h0v0h0Z" pointer-events="none"/><g><g class="mark-group role-scope" role="graphics-object" aria-roledescription="group mark container"><g transform="translate(0,0)"><path class="background" aria-hidden="true" d="M0,0h38.412109375v11h-38.412109375Z" pointer-events="none" opacity="1"/><g><g class="mark-symbol role-legend-symbol" pointer-events="none"><path transform="translate(6,6)" d="M-5,0L5,0" stroke="#4c78a8" stroke-width="1.5" opacity="1"/></g><g class="mark-text role-legend-label" pointer-events="none"><text text-anchor="start" transform="translate(16,9)" font-family="sans-serif" font-size="10px" fill="#000" opacity="1">Test</text></g></g><path class="foreground" aria-hidden="true" d="" pointer-events="none" display="none"/></g><g transform="translate(0,13)"><path class="background" aria-hidden="true" d="M0,0h38.412109375v11h-38.412109375Z" pointer-events="none" opacity="1"/><g><g class="mark-symbol role-legend-symbol" pointer-events="none"><path transform="translate(6,6)" d="M-5,0L5,0" stroke="#f58518" stroke-width="1.5" opacity="1"/></g><g class="mark-text role-legend-label" pointer-events="none"><text text-anchor="start" transform="translate(16,9)" font-family="sans-serif" font-size="10px" fill="#000" opacity="1">Train</text></g></g><path class="foreground" aria-hidden="true" d="" pointer-events="none" display="none"/></g></g></g><path class="foreground" aria-hidden="true" d="" pointer-events="none" display="none"/></g></g><g class="mark-text role-legend-title" pointer-events="none"><text text-anchor="start" transform="translate(0,9)" font-family="sans-serif" font-size="11px" font-weight="bold" fill="#000" opacity="1">Typ</text></g></g><path class="foreground" aria-hidden="true" d="" pointer-events="none" display="none"/></g></g></g><path class="foreground" aria-hidden="true" d="" display="none"/></g></g></g></svg>