<svg xmlns="http://www.w3.org/2000/svg" xmlns:xlink="http://www.w3.org/1999/xlink" version="1.1" class="marks" width="509" height="342" viewBox="0 0 509 342"><rect width="509" height="342" fill="white"/><g fill="none" stroke-miterlimit="10" transform="translate(47,5)"><g class="mark-group role-frame root" role="graphics-object" aria-roledescription="group mark container"><g transform="translate(0,0)"><path class="background" aria-hidden="true" d="M0.5,0.5h400v300h-400Z" stroke="#ddd"/><g><g class="mark-group role-axis" aria-hidden="true"><g transform="translate(0.5,300.5)"><path class="background" aria-hidden="true" d="M0,0h0v0h0Z" pointer-events="none"/><g><g class="mark-rule role-axis-grid" pointer-events="none"><line transform="translate(0,-300)" x2="0" y2="300" stroke="#ddd" stroke-width="1" opacity="1"/><line transform="translate(31,-300)" x2="0" y2="300" stroke="#ddd" stroke-width="1" opacity="1"/><line transform="translate(62,-300)" x2="0" y2="300" stroke="#ddd" stroke-width="1" opacity="1"/><line transform="translate(92,-300)" x2="0" y2="300" stroke="#ddd" stroke-width="1" opacity="1"/><line transform="translate(123,-300)" x2="0" y2="300" stroke="#ddd" stroke-width="1" opacity="1"/><line transform="translate(154,-300)" x2="0" y2="300" stroke="#ddd" stroke-width="1" opacity="1"/><line transform="translate(185,-300)" x2="0" y2="300" stroke="#ddd" stroke-width="1" opacity="1"/><line transform="translate(215,-300)" x2="0" y2="300" stroke="#ddd" stroke-width="1" opacity="1"/><line transform="translate(246,-300)" x2="0" y2="300" stroke="#ddd" stroke-width="1" opacity="1"/><line transform="translate(277,-300)" x2="0" y2="300" stroke="#ddd" stroke-width="1" opacity="1"/><line transform="translate(308,-300)" x2="0" y2="300" stroke="#ddd" stroke-width="1" opacity="1"/><line transform="translate(338,-300)" x2="0" y2="300" stroke="#ddd" stroke-width="1" opacity="1"/><line transform="translate(369,-300)" x2="0" y2="300" stroke="#ddd" stroke-width="1" opacity="1"/><line transform="translate(400,-300)" x2="0" y2="300" stroke="#ddd" stroke-width="1" opacity="1"/></g></g><path class="foreground" aria-hidden="true" d="" pointer-events="none" display="none"/></g></g><g class="mark-group role-axis" aria-hidden="true"><g transform="translate(0.5,0.5)"><path class="background" aria-hidden="true" d="M0,0h0v0h0Z" pointer-events="none"/><g><g class="mark-rule role-axis-grid" pointer-events="none"><line transform="translate(0,300)" x2="400" y2="0" stroke="#ddd" stroke-width="1" opacity="1"/><line transform="translate(0,242)" x2="400" y2="0" stroke="#ddd" stroke-width="1" opacity="1"/><line transform="translate(0,185)" x2="400" y2="0" stroke="#ddd" stroke-width="1" opacity="1"/><line transform="translate(0,127)" x2="400" y2="0" stroke="#ddd" stroke-width="1" opacity="1"/><line transform="translate(0,69)" x2="400" y2="0" stroke="#ddd" stroke-width="1" opacity="1"/><line transform="translate(0,12)" x2="400" y2="0" stroke="#ddd" stroke-width="1" opacity="1"/></g></g><path class="foreground" aria-hidden="true" d="" pointer-events="none" display="none"/></g></g><g class="mark-group role-axis" role="graphics-symbol" aria-roledescription="axis" aria-label="X-axis titled 'Anzahl Epochen' for a linear scale with values from 0 to 260"><g transform="translate(0.5,300.5)"><path class="background" aria-hidden="true" d="M0,0h0v0h0Z" pointer-events="none"/><g><g class="mark-rule role-axis-tick" pointer-events="none"><line transform="translate(0,0)" x2="0" y2="5" stroke="#888" stroke-width="1" opacity="1"/><line transform="translate(31,0)" x2="0" y2="5" stroke="#888" stroke-width="1" opacity="1"/><line transform="translate(62,0)" x2="0" y2="5" stroke="#888" stroke-width="1" opacity="1"/><line transform="translate(92,0)" x2="0" y2="5" stroke="#888" stroke-width="1" opacity="1"/><line transform="translate(123,0)" x2="0" y2="5" stroke="#888" stroke-width="1" opacity="1"/><line transform="translate(154,0)" x2="0" y2="5" stroke="#888" stroke-width="1" opacity="1"/><line transform="translate(185,0)" x2="0" y2="5" stroke="#888" stroke-width="1" opacity="1"/><line transform="translate(215,0)" x2="0" y2="5" stroke="#888" stroke-width="1" opacity="1"/><line transform="translate(246,0)" x2="0" y2="5" stroke="#888" stroke-width="1" opacity="1"/><line transform="translate(277,0)" x2="0" y2="5" stroke="#888" stroke-width="1" opacity="1"/><line transform="translate(308,0)" x2="0" y2="5" stroke="#888" stroke-width="1" opacity="1"/><line transform="translate(338,0)" x2="0" y2="5" stroke="#888" stroke-width="1" opacity="1"/><line transform="translate(369,0)" x2="0" y2="5" stroke="#888" stroke-width="1" opacity="1"/><line transform="translate(400,0)" x2="0" y2="5" stroke="#888" stroke-width="1" opacity="1"/></g><g class="mark-text role-axis-label" pointer-events="none"><text text-anchor="start" transform="translate(0,15)" font-family="sans-serif" font-size="10px" fill="#000" opacity="1">0</text><text text-anchor="middle" transform="translate(30.76923076923077,15)" font-family="sans-serif" font-size="10px" fill="#000" opacity="1">20</text><text text-anchor="middle" transform="translate(61.53846153846154,15)" font-family="sans-serif" font-size="10px" fill="#000" opacity="1">40</text><text text-anchor="middle" transform="translate(92.3076923076923,15)" font-family="sans-serif" font-size="10px" fill="#000" opacity="1">60</text><text text-anchor="middle" transform="translate(123.07692307692308,15)" font-family="sans-serif" font-size="10px" fill="#000" opacity="1">80</text><text text-anchor="middle" transform="translate(153.84615384615387,15)" font-family="sans-serif" font-size="10px" fill="#000" opacity="1">100</text><text text-anchor="middle" transform="translate(184.6153846153846,15)" font-family="sans-serif" font-size="10px" fill="#000" opacity="1">120</text><text text-anchor="middle" transform="translate(215.3846153846154,15)" font-family="sans-serif" font-size="10px" fill="#000" opacity="1">140</text><text text-anchor="middle" transform="translate(246.15384615384616,15)" font-family="sans-serif" font-size="10px" fill="#000" opacity="1">160</text><text text-anchor="middle" transform="translate(276.9230769230769,15)" font-family="sans-serif" font-size="10px" fill="#000" opacity="1">180</text><text text-anchor="middle" transform="translate(307.69230769230774,15)" font-family="sans-serif" font-size="10px" fill="#000" opacity="1">200</text><text text-anchor="middle" transform="translate(338.46153846153845,15)" font-family="sans-serif" font-size="10px" fill="#000" opacity="1">220</text><text text-anchor="middle" transform="translate(369.2307692307692,15)" font-family="sans-serif" font-size="10px" fill="#000" opacity="1">240</text><text text-anchor="end" transform="translate(400,15)" font-family="sans-serif" font-size="10px" fill="#000" opacity="1">260</text></g><g class="mark-rule role-axis-domain" pointer-events="none"><line transform="translate(0,0)" x2="400" y2="0" stroke="#888" stroke-width="1" opacity="1"/></g><g class="mark-text role-axis-title" pointer-events="none"><text text-anchor="middle" transform="translate(200,30)" font-family="sans-serif" font-size="11px" font-weight="bold" fill="#000" opacity="1">Anzahl Epochen</text></g></g><path class="foreground" aria-hidden="true" d="" pointer-events="none" display="none"/></g></g><g class="mark-group role-axis" role="graphics-symbol" aria-roledescription="axis" aria-label="Y-axis titled 'Genauigkeit' for a linear scale with values from 0.00 to 0.26"><g transform="translate(0.5,0.5)"><path class="background" aria-hidden="true" d="M0,0h0v0h0Z" pointer-events="none"/><g><g class="mark-rule role-axis-tick" pointer-events="none"><line transform="translate(0,300)" x2="-5" y2="0" stroke="#888" stroke-width="1" opacity="1"/><line transform="translate(0,242)" x2="-5" y2="0" stroke="#888" stroke-width="1" opacity="1"/><line transform="translate(0,185)" x2="-5" y2="0" stroke="#888" stroke-width="1" opacity="1"/><line transform="translate(0,127)" x2="-5" y2="0" stroke="#888" stroke-width="1" opacity="1"/><line transform="translate(0,69)" x2="-5" y2="0" stroke="#888" stroke-width="1" opacity="1"/><line transform="translate(0,12)" x2="-5" y2="0" stroke="#888" stroke-width="1" opacity="1"/></g><g class="mark-text role-axis-label" pointer-events="none"><text text-anchor="end" transform="translate(-7,303)" font-family="sans-serif" font-size="10px" fill="#000" opacity="1">0.00</text><text text-anchor="end" transform="translate(-7,245.30769230769232)" font-family="sans-serif" font-size="10px" fill="#000" opacity="1">0.05</text><text text-anchor="end" transform="translate(-7,187.6153846153846)" font-family="sans-serif" font-size="10px" fill="#000" opacity="1">0.10</text><text text-anchor="end" transform="translate(-7,129.92307692307693)" font-family="sans-serif" font-size="10px" fill="#000" opacity="1">0.15</text><text text-anchor="end" transform="translate(-7,72.23076923076921)" font-family="sans-serif" font-size="10px" fill="#000" opacity="1">0.20</text><text text-anchor="end" transform="translate(-7,14.538461538461565)" font-family="sans-serif" font-size="10px" fill="#000" opacity="1">0.25</text></g><g class="mark-rule role-axis-domain" pointer-events="none"><line transform="translate(0,300)" x2="0" y2="-300" stroke="#888" stroke-width="1" opacity="1"/></g><g class="mark-text role-axis-title" pointer-events="none"><text text-anchor="middle" transform="translate(-30.462890625,150) rotate(-90) translate(0,-2)" font-family="sans-serif" font-size="11px" font-weight="bold" fill="#000" opacity="1">Genauigkeit</text></g></g><path class="foreground" aria-hidden="true" d="" pointer-events="none" display="none"/></g></g><g class="mark-group role-scope pathgroup" role="graphics-object" aria-roledescription="group mark container"><g transform="translate(0,0)"><path class="background" aria-hidden="true" d="M0,0h400v300h-400Z"/><g><g class="mark-line role-mark marks" role="graphics-object" aria-roledescription="line mark container"><path aria-label="Typ: Train; Anzahl Epochen: 1; Genauigkeit: 0" role="graphics-symbol" aria-roledescription="line mark" d="M1.5384615384615385,300L3.076923076923077,300L4.615384615384616,300L6.153846153846154,300L7.6923076923076925,300L9.230769230769232,300L10.76923076923077,300L12.307692307692308,300L13.846153846153847,300L15.384615384615385,300L16.923076923076923,300L18.461538461538463,300L20,300L21.53846153846154,300L23.076923076923077,300L24.615384615384617,300L26.153846153846157,300L27.692307692307693,300L29.230769230769234,300L30.76923076923077,300L32.30769230769231,300L33.84615384615385,300L35.38461538461539,300L36.92307692307693,300L38.46153846153847,300L40,300L41.53846153846154,300L43.07692307692308,300L44.61538461538462,300L46.15384615384615,300L47.69230769230769,300L49.23076923076923,300L50.76923076923077,300L52.307692307692314,300L53.84615384615385,300L55.38461538461539,300L56.92307692307692,300L58.46153846153847,300L60,300L61.53846153846154,300L63.07692307692307,300L64.61538461538461,300L66.15384615384615,300L67.6923076923077,300L69.23076923076923,300L70.76923076923077,300L72.3076923076923,300L73.84615384615385,300L75.38461538461539,300L76.92307692307693,300L78.46153846153847,300L80,300L81.53846153846153,300L83.07692307692308,300L84.61538461538461,300L86.15384615384616,300L87.6923076923077,300L89.23076923076924,300L90.76923076923077,300L92.3076923076923,300L93.84615384615384,300L95.38461538461539,300L96.92307692307692,300L98.46153846153847,300L100,300L101.53846153846153,300L103.07692307692307,300L104.61538461538463,300L106.15384615384616,300L107.6923076923077,300L109.23076923076923,300L110.76923076923077,300L112.3076923076923,300L113.84615384615384,300L115.38461538461537,300L116.92307692307693,300L118.46153846153847,300L120,300L121.53846153846153,300L123.07692307692308,300L124.61538461538461,300L126.15384615384615,299.5876175167863L127.69230769230768,298.7628525839402L129.23076923076923,298.7628525839402L130.76923076923077,297.93808768467545L132.3076923076923,297.5257051678804L133.84615384615384,296.7009401342903L135.3846153846154,296.28855775182063L136.92307692307693,295.05141033576086L138.46153846153845,294.63902768464044L140,293.81426291970104L141.53846153846155,292.9894981547617L143.07692307692307,290.9275859737626L144.6153846153846,287.62852583940213L146.15384615384613,285.97899630952344L147.6923076923077,283.5047014774038L149.23076923076923,281.8551719475251L150.76923076923077,279.79325815462147L152.3076923076923,279.3808771154055L153.84615384615387,278.9684939269836L155.3846153846154,277.7313465109238L156.92307692307693,276.90658228328596L158.46153846153845,276.90658228328596L160,277.7313465109238L161.53846153846155,278.1437296993457L163.07692307692307,278.9684939269836L164.6153846153846,281.44278875910317L166.15384615384616,282.267554061344L167.6923076923077,283.0923182889819L169.23076923076923,284.32946570504174L170.76923076923077,287.2161437255832L172.30769230769232,287.2161437255832L173.84615384615384,289.2780553692809L175.3846153846154,290.9275859737626L176.9230769230769,292.16473285252084L178.46153846153848,291.7523507387019L180,291.3399680875815L181.53846153846155,290.1028206715217L183.07692307692307,290.1028206715217L184.6153846153846,290.1028206715217L186.15384615384616,290.1028206715217L187.69230769230768,290.1028206715217L189.23076923076923,289.69043855770275L190.76923076923077,288.453291141643L192.30769230769232,288.453291141643L193.84615384615384,286.39137842334236L195.3846153846154,285.5666131211015L196.92307692307693,285.1542310072826L198.46153846153845,282.67993617516294L200,281.03040557068124L201.53846153846155,278.1437296993457L203.07692307692307,276.90658228328596L204.61538461538458,273.60752107432256L206.15384615384613,268.6589314100834L207.6923076923077,266.18463657796383L209.23076923076925,252.9883981897281L210.76923076923077,250.10172231839255L212.30769230769232,245.56551369336935L213.84615384615384,240.6169240291302L215.3846153846154,235.66833436489105L216.9230769230769,234.0188059096153L218.46153846153845,231.13212573986786L220.00000000000003,227.83306882931635L221.53846153846155,224.12162228272513L223.0769230769231,222.47209812586127L224.6153846153846,214.22444295424683L226.15384615384616,207.6263291331438L227.69230769230768,203.09012050812063L229.23076923076923,199.7910635975691L230.76923076923075,196.9043791294098L232.30769230769232,193.1929411796423L233.84615384615387,191.95578946517065L235.3846153846154,189.48149463305108L236.92307692307693,186.18243772249954L238.46153846153845,171.3366687297821L240,170.92428769056616L241.53846153846152,167.62523078001462L243.07692307692307,166.38807906554297L244.61538461538464,163.9137842334234L246.15384615384616,156.0785186978487L247.6923076923077,146.1813307725466L249.23076923076923,143.70704453725082L250.76923076923077,144.53180661568277L252.3076923076923,142.05752038038693L253.84615384615384,139.17084450905142L255.38461538461536,136.28415144406833L256.92307692307696,134.63462728720447L258.46153846153845,133.8098652087725L260,131.3355617798292L261.53846153846155,127.21175138766951L263.0769230769231,124.32507551633395L264.6153846153846,120.20124793052673L266.15384615384613,117.7269445015834L267.6923076923077,114.42789618785567L269.2307692307692,113.6031169157762L270.7692307692308,111.54120312287257L272.3076923076923,109.89167896600871L273.84615384615387,109.06691688757678L275.38461538461536,104.11832722333763L276.9230769230769,103.7059375872979L278.46153846153845,101.64402379439427L280,98.75734792305873L281.53846153846155,100.40688927357016L283.0769230769231,98.75734792305873L284.61538461538464,96.28306168776294L286.15384615384613,96.28306168776294L287.6923076923077,92.57162373799545L289.2307692307692,91.33447202352379L290.7692307692308,88.86016859458043L292.30769230769226,88.03540651614851L293.84615384615387,86.79825480167685L295.3846153846154,85.56112028085269L296.9230769230769,83.91157893034129L298.46153846153845,84.73635820242076L300,83.4992064879491L301.53846153846155,82.2620547734774L303.0769230769231,81.43729269504547L304.6153846153846,80.2001409805738L306.15384615384613,79.37537890214188L307.69230769230774,76.48870303080632L309.2307692307692,71.95248580895938L310.7692307692308,69.47819957366356L312.3076923076923,68.65343749523163L313.84615384615387,67.41628578075996L315.38461538461536,65.7667616238961L316.9230769230769,65.7667616238961L318.46153846153845,63.704847830992485L320,62.46769611652082L321.53846153846155,62.46769611652082L323.0769230769231,61.23054440204916L324.61538461538464,61.23054440204916L326.15384615384613,60.81817195965693L327.6923076923077,58.75625816675334L329.2307692307692,58.34386853071361L330.7692307692308,53.39527886647446L332.3076923076923,52.982906424082266L333.84615384615387,52.1581271520028L335.3846153846154,51.33336507357084L336.9230769230769,51.33336507357084L338.46153846153845,50.92099263117864L340,49.68384091670698L341.53846153846155,49.27145128066724L343.07692307692304,48.03431675984309L344.61538461538464,48.03431675984309L346.1538461538462,47.20953748776362L347.6923076923077,46.38477540933169L349.2307692307692,46.79716504537142L350.7692307692308,45.9724029669395L352.3076923076923,43.910489174035874L353.8461538461538,43.49809953799614L355.38461538461536,43.910489174035874L356.92307692307696,41.436185745092544L358.46153846153845,40.61142366666062L360,39.374271952188955L361.53846153846155,38.1371374313648L363.0769230769231,39.374271952188955L364.6153846153846,32.36376849504619L366.15384615384613,31.95139605265399L367.6923076923077,31.539006416614257L369.2307692307692,31.126633974222063L370.7692307692308,31.539006416614257L372.3076923076923,27.827568466846774L373.84615384615387,29.06472018131844L375.38461538461536,27.827568466846774L376.9230769230769,27.41517883080704L378.46153846153845,27.002806388414847L380,25.76565467394315L381.53846153846155,22.054216724175667L383.0769230769231,24.52850295947149" stroke="#f58518" stroke-width="2"/></g></g><path class="foreground" aria-hidden="true" d="" display="none"/></g><g transform="translate(0,0)"><path class="background" aria-hidden="true" d="M0,0h400v300h-400Z"/><g><g class="mark-line role-mark marks" role="graphics-object" aria-roledescription="line mark container"><path aria-label="Typ: Test; Anzahl Epochen: 1; Genauigkeit: 0" role="graphics-symbol" aria-roledescription="line mark" d="M1.5384615384615385,300L3.076923076923077,300L4.615384615384616,300L6.153846153846154,300L7.6923076923076925,300L9.230769230769232,300L10.76923076923077,300L12.307692307692308,300L13.846153846153847,300L15.384615384615385,300L16.923076923076923,300L18.461538461538463,300L20,300L21.53846153846154,300L23.076923076923077,300L24.615384615384617,300L26.153846153846157,300L27.692307692307693,300L29.230769230769234,300L30.76923076923077,300L32.30769230769231,300L33.84615384615385,300L35.38461538461539,300L36.92307692307693,300L38.46153846153847,300L40,300L41.53846153846154,300L43.07692307692308,300L44.61538461538462,300L46.15384615384615,300L47.69230769230769,300L49.23076923076923,300L50.76923076923077,300L52.307692307692314,300L53.84615384615385,300L55.38461538461539,300L56.92307692307692,300L58.46153846153847,300L60,300L61.53846153846154,300L63.07692307692307,300L64.61538461538461,300L66.15384615384615,300L67.6923076923077,300L69.23076923076923,300L70.76923076923077,300L72.3076923076923,300L73.84615384615385,300L75.38461538461539,300L76.92307692307693,300L78.46153846153847,300L80,300L81.53846153846153,300L83.07692307692308,300L84.61538461538461,300L86.15384615384616,300L87.6923076923077,300L89.23076923076924,300L90.76923076923077,300L92.3076923076923,300L93.84615384615384,300L95.38461538461539,300L96.92307692307692,300L98.46153846153847,300L100,300L101.53846153846153,300L103.07692307692307,300L104.61538461538463,300L106.15384615384616,300L107.6923076923077,300L109.23076923076923,300L110.76923076923077,300L112.3076923076923,300L113.84615384615384,300L115.38461538461537,300L116.92307692307693,300L118.46153846153847,300L120,300L121.53846153846153,300L123.07692307692308,300L124.61538461538461,300L126.15384615384615,300L127.69230769230768,299.0376595927116L129.23076923076923,299.0376595927116L130.76923076923077,299.0376595927116L132.3076923076923,299.0376595927116L133.84615384615384,298.07531918542315L135.3846153846154,296.15063837084637L136.92307692307693,296.15063837084637L138.46153846153845,294.22595728761877L140,293.2636170146557L141.53846153846155,291.3389364687296L143.07692307692307,290.3765961957666L144.6153846153846,288.4519145752375L146.15384615384613,284.6025534833853L147.6923076923077,283.64021321042225L149.23076923076923,280.7531923915331L150.76923076923077,280.7531923915331L152.3076923076923,279.7908510439671L153.84615384615387,278.828511845607L155.3846153846154,276.90382915047496L156.92307692307693,275.9414899521149L158.46153846153845,276.90382915047496L160,277.866170498041L161.53846153846155,279.7908510439671L163.07692307692307,280.7531923915331L164.6153846153846,280.7531923915331L166.15384615384616,283.64021321042225L167.6923076923077,285.56489375634834L169.23076923076923,288.4519145752375L170.76923076923077,289.41425592280353L172.30769230769232,292.3012767416927L173.84615384615384,294.22595728761877L175.3846153846154,296.15063837084637L176.9230769230769,296.15063837084637L178.46153846153848,296.15063837084637L180,296.15063837084637L181.53846153846155,292.3012767416927L183.07692307692307,292.3012767416927L184.6153846153846,292.3012767416927L186.15384615384616,292.3012767416927L187.69230769230768,291.3389364687296L189.23076923076923,290.3765961957666L190.76923076923077,288.4519145752375L192.30769230769232,288.4519145752375L193.84615384615384,287.48957430227443L195.3846153846154,287.48957430227443L196.92307692307693,287.48957430227443L198.46153846153845,286.5272340293114L200,284.6025534833853L201.53846153846155,282.6778729374592L203.07692307692307,281.7155315898932L204.61538461538458,281.7155315898932L206.15384615384613,277.866170498041L207.6923076923077,272.09212886026273L209.23076923076925,257.657023691214L210.76923076923077,253.80765830094998L212.30769230769232,247.07127746481163L213.84615384615384,244.18425772052544L215.3846153846154,242.25957502539342L216.9230769230769,236.4855312384092L218.46153846153845,232.63617014655702L220.00000000000003,228.78680905470483L221.53846153846155,225.89978931041864L223.0769230769231,221.08808687100046L224.6153846153846,215.31404738242807L226.15384615384616,212.42701904131815L227.69230769230768,209.53999929703198L229.23076923076923,207.6153166019L230.76923076923075,199.91659441819561L232.30769230769232,197.99192031988733L233.84615384615387,196.06723762475528L235.3846153846154,195.10489197877737L236.92307692307693,177.78276491623657L238.46153846153845,176.8204278670825L240,172.9710624768184L241.53846153846152,172.00872542766425L243.07692307692307,171.0463883785101L244.61538461538464,156.6112810602555L246.15384615384616,148.91255887655112L247.6923076923077,146.9878675845953L249.23076923076923,144.10084784030914L250.76923076923077,142.17617374200088L252.3076923076923,138.32680835173682L253.84615384615384,138.32680835173682L255.38461538461536,138.32680835173682L256.92307692307696,137.36446270575888L258.46153846153845,136.40213425342856L260,127.74105782692251L261.53846153846155,126.77872937459213L263.0769230769231,117.15532449575572L264.6153846153846,114.26830475146956L266.15384615384613,113.30595910549164L267.6923076923077,110.41893936120547L269.2307692307692,110.41893936120547L270.7692307692308,105.60722832496351L272.3076923076923,104.64489987263313L273.84615384615387,100.79553448236905L275.38461538461536,98.8708603840608L276.9230769230769,95.98384063977463L278.46153846153845,92.13447524951054L280,91.17212960353264L281.53846153846155,91.17212960353264L283.0769230769231,88.28510985924648L284.61538461538464,85.3980901149603L286.15384615384613,85.3980901149603L287.6923076923077,80.58637907871834L289.2307692307692,79.62405062638797L290.7692307692308,79.62405062638797L292.30769230769226,77.69935933443217L293.84615384615387,75.77468523612389L295.3846153846154,73.85001113781563L296.9230769230769,72.88766549183772L298.46153846153845,70.00064574755154L300,69.03830010157367L301.53846153846155,69.03830010157367L303.0769230769231,66.1512803572875L304.6153846153846,66.1512803572875L306.15384615384613,65.18893471130959L307.69230769230774,65.18893471130959L309.2307692307692,61.33956932104551L310.7692307692308,59.41489522273725L312.3076923076923,59.41489522273725L313.84615384615387,59.41489522273725L315.38461538461536,58.45254957675934L316.9230769230769,58.45254957675934L318.46153846153845,57.49022112442896L320,55.56552983247317L321.53846153846155,53.640855734164916L323.0769230769231,53.640855734164916L324.61538461538464,51.71618163585663L326.15384615384613,51.71618163585663L327.6923076923077,51.71618163585663L329.2307692307692,51.71618163585663L330.7692307692308,46.90447059961467L332.3076923076923,46.90447059961467L333.84615384615387,45.94212495363676L335.3846153846154,45.94212495363676L336.9230769230769,45.94212495363676L338.46153846153845,44.97979650130638L340,44.97979650130638L341.53846153846155,44.97979650130638L343.07692307692304,44.0174508553285L344.61538461538464,44.0174508553285L346.1538461538462,42.09277675702021L347.6923076923077,42.09277675702021L349.2307692307692,42.09277675702021L350.7692307692308,41.130431111042334L352.3076923076923,41.130431111042334L353.8461538461538,41.130431111042334L355.38461538461536,38.24341136675616L356.92307692307696,37.28106572077825L358.46153846153845,35.35639162247L360,35.35639162247L361.53846153846155,33.43170033051417L363.0769230769231,32.46937187818383L364.6153846153846,32.46937187818383L366.15384615384613,32.46937187818383L367.6923076923077,32.46937187818383L369.2307692307692,32.46937187818383L370.7692307692308,31.507026232205916L372.3076923076923,31.507026232205916L373.84615384615387,30.544680586228L375.38461538461536,30.544680586228L376.9230769230769,30.544680586228L378.46153846153845,30.544680586228L380,29.58235213389766L381.53846153846155,29.58235213389766L383.0769230769231,27.657660841941833" stroke="#4c78a8" stroke-width="2"/></g></g><path class="foreground" aria-hidden="true" d="" display="none"/></g></g><g class="mark-group role-legend" role="graphics-symbol" aria-roledescription="legend" aria-label="Symbol legend titled 'Typ' for stroke color with 2 values: Test, Train"><g transform="translate(418,0)"><path class="background" aria-hidden="true" d="M0,0h39v40h-39Z" pointer-events="none"/><g><g class="mark-group role-legend-entry"><g transform="translate(0,16)"><path class="background" aria-hidden="true" d="M0,0h0v0h0Z" pointer-events="none"/><g><g class="mark-group role-scope" role="graphics-object" aria-roledescription="group mark container"><g transform="translate(0,0)"><path class="background" aria-hidden="true" d="M0,0h38.412109375v11h-38.412109375Z" pointer-events="none" opacity="1"/><g><g class="mark-symbol role-legend-symbol" pointer-events="none"><path transform="translate(6,6)" d="M-5,0L5,0" stroke="#4c78a8" stroke-width="1.5" opacity="1"/></g><g class="mark-text role-legend-label" pointer-events="none"><text text-anchor="start" transform="translate(16,9)" font-family="sans-serif" font-size="10px" fill="#000" opacity="1">Test</text></g></g><path class="foreground" aria-hidden="true" d="" pointer-events="none" display="none"/></g><g transform="translate(0,13)"><path class="background" aria-hidden="true" d="M0,0h38.412109375v11h-38.412109375Z" pointer-events="none" opacity="1"/><g><g class="mark-symbol role-legend-symbol" pointer-events="none"><path transform="translate(6,6)" d="M-5,0L5,0" stroke="#f58518" stroke-width="1.5" opacity="1"/></g><g class="mark-text role-legend-label" pointer-events="none"><text text-anchor="start" transform="translate(16,9)" font-family="sans-serif" font-size="10px" fill="#000" opacity="1">Train</text></g></g><path class="foreground" aria-hidden="true" d="" pointer-events="none" display="none"/></g></g></g><path class="foreground" aria-hidden="true" d="" pointer-events="none" display="none"/></g></g><g class="mark-text role-legend-title" pointer-events="none"><text text-anchor="start" transform="translate(0,9)" font-family="sans-serif" font-size="11px" font-weight="bold" fill="#000" opacity="1">Typ</text></g></g><path class="foreground" aria-hidden="true" d="" pointer-events="none" display="none"/></g></g></g><path class="foreground" aria-hidden="true" d="" display="none"/></g></g></g></svg>