<svg xmlns="http://www.w3.org/2000/svg" xmlns:xlink="http://www.w3.org/1999/xlink" version="1.1" class="marks" width="509" height="347" viewBox="0 0 509 347"><rect width="509" height="347" fill="white"/><g fill="none" stroke-miterlimit="10" transform="translate(47,10)"><g class="mark-group role-frame root" role="graphics-object" aria-roledescription="group mark container"><g transform="translate(0,0)"><path class="background" aria-hidden="true" d="M0.5,0.5h400v300h-400Z" stroke="#ddd"/><g><g class="mark-group role-axis" aria-hidden="true"><g transform="translate(0.5,300.5)"><path class="background" aria-hidden="true" d="M0,0h0v0h0Z" pointer-events="none"/><g><g class="mark-rule role-axis-grid" pointer-events="none"><line transform="translate(0,-300)" x2="0" y2="300" stroke="#ddd" stroke-width="1" opacity="1"/><line transform="translate(31,-300)" x2="0" y2="300" stroke="#ddd" stroke-width="1" opacity="1"/><line transform="translate(62,-300)" x2="0" y2="300" stroke="#ddd" stroke-width="1" opacity="1"/><line transform="translate(92,-300)" x2="0" y2="300" stroke="#ddd" stroke-width="1" opacity="1"/><line transform="translate(123,-300)" x2="0" y2="300" stroke="#ddd" stroke-width="1" opacity="1"/><line transform="translate(154,-300)" x2="0" y2="300" stroke="#ddd" stroke-width="1" opacity="1"/><line transform="translate(185,-300)" x2="0" y2="300" stroke="#ddd" stroke-width="1" opacity="1"/><line transform="translate(215,-300)" x2="0" y2="300" stroke="#ddd" stroke-width="1" opacity="1"/><line transform="translate(246,-300)" x2="0" y2="300" stroke="#ddd" stroke-width="1" opacity="1"/><line transform="translate(277,-300)" x2="0" y2="300" stroke="#ddd" stroke-width="1" opacity="1"/><line transform="translate(308,-300)" x2="0" y2="300" stroke="#ddd" stroke-width="1" opacity="1"/><line transform="translate(338,-300)" x2="0" y2="300" stroke="#ddd" stroke-width="1" opacity="1"/><line transform="translate(369,-300)" x2="0" y2="300" stroke="#ddd" stroke-width="1" opacity="1"/><line transform="translate(400,-300)" x2="0" y2="300" stroke="#ddd" stroke-width="1" opacity="1"/></g></g><path class="foreground" aria-hidden="true" d="" pointer-events="none" display="none"/></g></g><g class="mark-group role-axis" aria-hidden="true"><g transform="translate(0.5,0.5)"><path class="background" aria-hidden="true" d="M0,0h0v0h0Z" pointer-events="none"/><g><g class="mark-rule role-axis-grid" pointer-events="none"><line transform="translate(0,300)" x2="400" y2="0" stroke="#ddd" stroke-width="1" opacity="1"/><line transform="translate(0,263)" x2="400" y2="0" stroke="#ddd" stroke-width="1" opacity="1"/><line transform="translate(0,225)" x2="400" y2="0" stroke="#ddd" stroke-width="1" opacity="1"/><line transform="translate(0,188)" x2="400" y2="0" stroke="#ddd" stroke-width="1" opacity="1"/><line transform="translate(0,150)" x2="400" y2="0" stroke="#ddd" stroke-width="1" opacity="1"/><line transform="translate(0,113)" x2="400" y2="0" stroke="#ddd" stroke-width="1" opacity="1"/><line transform="translate(0,75)" x2="400" y2="0" stroke="#ddd" stroke-width="1" opacity="1"/><line transform="translate(0,38)" x2="400" y2="0" stroke="#ddd" stroke-width="1" opacity="1"/><line transform="translate(0,0)" x2="400" y2="0" stroke="#ddd" stroke-width="1" opacity="1"/></g></g><path class="foreground" aria-hidden="true" d="" pointer-events="none" display="none"/></g></g><g class="mark-group role-axis" role="graphics-symbol" aria-roledescription="axis" aria-label="X-axis titled 'Anzahl Epochen' for a linear scale with values from 0 to 260"><g transform="translate(0.5,300.5)"><path class="background" aria-hidden="true" d="M0,0h0v0h0Z" pointer-events="none"/><g><g class="mark-rule role-axis-tick" pointer-events="none"><line transform="translate(0,0)" x2="0" y2="5" stroke="#888" stroke-width="1" opacity="1"/><line transform="translate(31,0)" x2="0" y2="5" stroke="#888" stroke-width="1" opacity="1"/><line transform="translate(62,0)" x2="0" y2="5" stroke="#888" stroke-width="1" opacity="1"/><line transform="translate(92,0)" x2="0" y2="5" stroke="#888" stroke-width="1" opacity="1"/><line transform="translate(123,0)" x2="0" y2="5" stroke="#888" stroke-width="1" opacity="1"/><line transform="translate(154,0)" x2="0" y2="5" stroke="#888" stroke-width="1" opacity="1"/><line transform="translate(185,0)" x2="0" y2="5" stroke="#888" stroke-width="1" opacity="1"/><line transform="translate(215,0)" x2="0" y2="5" stroke="#888" stroke-width="1" opacity="1"/><line transform="translate(246,0)" x2="0" y2="5" stroke="#888" stroke-width="1" opacity="1"/><line transform="translate(277,0)" x2="0" y2="5" stroke="#888" stroke-width="1" opacity="1"/><line transform="translate(308,0)" x2="0" y2="5" stroke="#888" stroke-width="1" opacity="1"/><line transform="translate(338,0)" x2="0" y2="5" stroke="#888" stroke-width="1" opacity="1"/><line transform="translate(369,0)" x2="0" y2="5" stroke="#888" stroke-width="1" opacity="1"/><line transform="translate(400,0)" x2="0" y2="5" stroke="#888" stroke-width="1" opacity="1"/></g><g class="mark-text role-axis-label" pointer-events="none"><text text-anchor="start" transform="translate(0,15)" font-family="sans-serif" font-size="10px" fill="#000" opacity="1">0</text><text text-anchor="middle" transform="translate(30.76923076923077,15)" font-family="sans-serif" font-size="10px" fill="#000" opacity="1">20</text><text text-anchor="middle" transform="translate(61.53846153846154,15)" font-family="sans-serif" font-size="10px" fill="#000" opacity="1">40</text><text text-anchor="middle" transform="translate(92.3076923076923,15)" font-family="sans-serif" font-size="10px" fill="#000" opacity="1">60</text><text text-anchor="middle" transform="translate(123.07692307692308,15)" font-family="sans-serif" font-size="10px" fill="#000" opacity="1">80</text><text text-anchor="middle" transform="translate(153.84615384615387,15)" font-family="sans-serif" font-size="10px" fill="#000" opacity="1">100</text><text text-anchor="middle" transform="translate(184.6153846153846,15)" font-family="sans-serif" font-size="10px" fill="#000" opacity="1">120</text><text text-anchor="middle" transform="translate(215.3846153846154,15)" font-family="sans-serif" font-size="10px" fill="#000" opacity="1">140</text><text text-anchor="middle" transform="translate(246.15384615384616,15)" font-family="sans-serif" font-size="10px" fill="#000" opacity="1">160</text><text text-anchor="middle" transform="translate(276.9230769230769,15)" font-family="sans-serif" font-size="10px" fill="#000" opacity="1">180</text><text text-anchor="middle" transform="translate(307.69230769230774,15)" font-family="sans-serif" font-size="10px" fill="#000" opacity="1">200</text><text text-anchor="middle" transform="translate(338.46153846153845,15)" font-family="sans-serif" font-size="10px" fill="#000" opacity="1">220</text><text text-anchor="middle" transform="translate(369.2307692307692,15)" font-family="sans-serif" font-size="10px" fill="#000" opacity="1">240</text><text text-anchor="end" transform="translate(400,15)" font-family="sans-serif" font-size="10px" fill="#000" opacity="1">260</text></g><g class="mark-rule role-axis-domain" pointer-events="none"><line transform="translate(0,0)" x2="400" y2="0" stroke="#888" stroke-width="1" opacity="1"/></g><g class="mark-text role-axis-title" pointer-events="none"><text text-anchor="middle" transform="translate(200,30)" font-family="sans-serif" font-size="11px" font-weight="bold" fill="#000" opacity="1">Anzahl Epochen</text></g></g><path class="foreground" aria-hidden="true" d="" pointer-events="none" display="none"/></g></g><g class="mark-group role-axis" role="graphics-symbol" aria-roledescription="axis" aria-label="Y-axis titled 'Genauigkeit' for a linear scale with values from 0.0 to 0.4"><g transform="translate(0.5,0.5)"><path class="background" aria-hidden="true" d="M0,0h0v0h0Z" pointer-events="none"/><g><g class="mark-rule role-axis-tick" pointer-events="none"><line transform="translate(0,300)" x2="-5" y2="0" stroke="#888" stroke-width="1" opacity="1"/><line transform="translate(0,263)" x2="-5" y2="0" stroke="#888" stroke-width="1" opacity="1"/><line transform="translate(0,225)" x2="-5" y2="0" stroke="#888" stroke-width="1" opacity="1"/><line transform="translate(0,188)" x2="-5" y2="0" stroke="#888" stroke-width="1" opacity="1"/><line transform="translate(0,150)" x2="-5" y2="0" stroke="#888" stroke-width="1" opacity="1"/><line transform="translate(0,113)" x2="-5" y2="0" stroke="#888" stroke-width="1" opacity="1"/><line transform="translate(0,75)" x2="-5" y2="0" stroke="#888" stroke-width="1" opacity="1"/><line transform="translate(0,38)" x2="-5" y2="0" stroke="#888" stroke-width="1" opacity="1"/><line transform="translate(0,0)" x2="-5" y2="0" stroke="#888" stroke-width="1" opacity="1"/></g><g class="mark-text role-axis-label" pointer-events="none"><text text-anchor="end" transform="translate(-7,303)" font-family="sans-serif" font-size="10px" fill="#000" opacity="1">0.00</text><text text-anchor="end" transform="translate(-7,265.5)" font-family="sans-serif" font-size="10px" fill="#000" opacity="1">0.05</text><text text-anchor="end" transform="translate(-7,228)" font-family="sans-serif" font-size="10px" fill="#000" opacity="1">0.10</text><text text-anchor="end" transform="translate(-7,190.5)" font-family="sans-serif" font-size="10px" fill="#000" opacity="1">0.15</text><text text-anchor="end" transform="translate(-7,153)" font-family="sans-serif" font-size="10px" fill="#000" opacity="1">0.20</text><text text-anchor="end" transform="translate(-7,115.5)" font-family="sans-serif" font-size="10px" fill="#000" opacity="1">0.25</text><text text-anchor="end" transform="translate(-7,78.00000000000003)" font-family="sans-serif" font-size="10px" fill="#000" opacity="1">0.30</text><text text-anchor="end" transform="translate(-7,40.500000000000036)" font-family="sans-serif" font-size="10px" fill="#000" opacity="1">0.35</text><text text-anchor="end" transform="translate(-7,3)" font-family="sans-serif" font-size="10px" fill="#000" opacity="1">0.40</text></g><g class="mark-rule role-axis-domain" pointer-events="none"><line transform="translate(0,300)" x2="0" y2="-300" stroke="#888" stroke-width="1" opacity="1"/></g><g class="mark-text role-axis-title" pointer-events="none"><text text-anchor="middle" transform="translate(-30.462890625,150) rotate(-90) translate(0,-2)" font-family="sans-serif" font-size="11px" font-weight="bold" fill="#000" opacity="1">Genauigkeit</text></g></g><path class="foreground" aria-hidden="true" d="" pointer-events="none" display="none"/></g></g><g class="mark-group role-scope pathgroup" role="graphics-object" aria-roledescription="group mark container"><g transform="translate(0,0)"><path class="background" aria-hidden="true" d="M0,0h400v300h-400Z"/><g><g class="mark-line role-mark marks" role="graphics-object" aria-roledescription="line mark container"><path aria-label="Typ: Train; Anzahl Epochen: 1; Genauigkeit: 0" role="graphics-symbol" aria-roledescription="line mark" d="M1.5384615384615385,300L3.076923076923077,300L4.615384615384616,300L6.153846153846154,300L7.6923076923076925,300L9.230769230769232,300L10.76923076923077,300L12.307692307692308,298.3917083591223L13.846153846153847,293.8348818104714L15.384615384615385,295.9792708978057L16.923076923076923,298.3917083591223L18.461538461538463,292.2265901695937L20,281.23659705743194L21.53846153846154,250.67905448377132L23.076923076923077,229.23516780138016L24.615384615384617,208.8634718209505L26.153846153846157,187.68763840198517L27.692307692307693,178.30593064427376L29.230769230769234,164.63544890284538L30.76923076923077,154.98569905757904L32.30769230769231,144.531811773777L33.84615384615385,141.31522849202156L35.38461538461539,136.222305893898L36.92307692307693,130.86133003234863L38.46153846153847,124.69621673226357L40,120.13938948512077L41.53846153846154,112.90207430720329L43.07692307692308,108.3452358841896L44.61538461538462,105.93281239271164L46.15384615384615,104.05647307634354L47.69230769230769,103.52036654949188L49.23076923076923,99.23160374164581L50.76923076923077,98.42745512723923L52.307692307692314,96.01500928401947L53.84615384615385,94.94281858205795L55.38461538461539,94.4067120552063L56.92307692307692,93.06647926568985L58.46153846153847,92.26233065128326L60,92.79843717813492L61.53846153846154,92.26233065128326L63.07692307692307,91.72622412443161L64.61538461538461,90.65403342247009L66.15384615384615,89.8498848080635L67.6923076923077,90.38599133491516L69.23076923076923,90.11794924736023L70.76923076923077,90.38599133491516L72.3076923076923,88.50965201854706L73.84615384615385,87.70550340414047L75.38461538461539,87.43746131658554L76.92307692307693,86.36527061462402L78.46153846153847,86.63331270217896L80,86.90135478973389L81.53846153846153,87.16939687728882L83.07692307692308,86.0972061753273L84.61538461538461,84.75697338581085L86.15384615384616,86.63331270217896L87.6923076923077,84.2208668589592L89.23076923076924,84.75697338581085L90.76923076923077,84.48893129825592L92.3076923076923,84.2208668589592L93.84615384615384,83.95282477140427L95.38461538461539,83.14867615699768L96.92307692307692,82.3445275425911L98.46153846153847,81.80844336748123L100,82.3445275425911L101.53846153846153,81.54037892818451L103.07692307692307,81.27233684062958L104.61538461538463,81.54037892818451L106.15384615384616,80.73623031377792L107.6923076923077,81.00429475307465L109.23076923076923,80.20014613866806L110.76923076923077,79.6640396118164L112.3076923076923,79.12795543670654L113.84615384615384,79.6640396118164L115.38461538461537,79.93210405111313L116.92307692307693,78.59184890985489L118.46153846153847,77.7877002954483L120,78.05576473474503L121.53846153846153,77.51965820789337L123.07692307692308,77.51965820789337L124.61538461538461,75.9113609790802L126.15384615384615,76.44746750593185L127.69230769230768,75.64331889152527L129.23076923076923,75.9113609790802L130.76923076923077,74.57112818956375L132.3076923076923,72.96283096075058L133.84615384615384,70.81844955682755L135.3846153846154,69.21015232801437L136.92307692307693,65.99355787038803L138.46153846153845,62.77698576450348L140,61.16868853569031L141.53846153846155,59.02430713176727L143.07692307692307,55.003564059734344L144.6153846153846,53.12722474336624L146.15384615384613,51.51894986629486L147.6923076923077,50.17869472503662L149.23076923076923,47.49820679426193L150.76923076923077,45.62186747789383L152.3076923076923,44.54967677593231L153.84615384615387,43.745528161525726L155.3846153846154,42.94137954711914L156.92307692307693,42.40529537200928L158.46153846153845,40.796998143196106L160,40.796998143196106L161.53846153846155,39.45676535367966L163.07692307692307,39.99284952878952L164.6153846153846,38.65261673927307L166.15384615384616,38.920658826828L167.6923076923077,38.920658826828L169.23076923076923,36.77627742290497L170.76923076923077,37.0443195104599L172.30769230769232,36.77627742290497L173.84615384615384,35.1679801940918L175.3846153846154,34.09578949213028L176.9230769230769,32.75553435087204L178.46153846153848,33.02359879016876L180,32.48749226331711L181.53846153846155,32.48749226331711L183.07692307692307,32.48749226331711L184.6153846153846,31.951385736465454L186.15384615384616,31.951385736465454L187.69230769230768,31.14723712205887L189.23076923076923,30.879195034503937L190.76923076923077,31.41530156135559L192.30769230769232,30.343110859394073L193.84615384615384,30.343110859394073L195.3846153846154,29.80700433254242L196.92307692307693,30.07504642009735L198.46153846153845,29.80700433254242L200,29.80700433254242L201.53846153846155,29.270897805690765L203.07692307692307,29.270897805690765L204.61538461538458,27.930665016174316L206.15384615384613,27.930665016174316L207.6923076923077,27.930665016174316L209.23076923076925,27.394558489322662L210.76923076923077,27.12651640176773L212.30769230769232,27.12651640176773L213.84615384615384,27.12651640176773L215.3846153846154,26.590432226657867L216.9230769230769,26.8584743142128L218.46153846153845,26.8584743142128L220.00000000000003,26.054325699806213L221.53846153846155,25.78628361225128L223.0769230769231,25.51821917295456L224.6153846153846,25.250177085399628L226.15384615384616,25.51821917295456L227.69230769230768,25.250177085399628L229.23076923076923,25.51821917295456L230.76923076923075,25.250177085399628L232.30769230769232,24.982134997844696L233.84615384615387,24.982134997844696L235.3846153846154,24.982134997844696L236.92307692307693,24.714070558547974L238.46153846153845,24.982134997844696L240,24.17798638343811L241.53846153846152,23.641879856586456L243.07692307692307,24.17798638343811L244.61538461538464,23.373837769031525L246.15384615384616,23.373837769031525L247.6923076923077,23.105795681476593L249.23076923076923,22.83773124217987L250.76923076923077,23.105795681476593L252.3076923076923,23.105795681476593L253.84615384615384,22.83773124217987L255.38461538461536,22.56968915462494L256.92307692307696,22.301647067070007L258.46153846153845,22.56968915462494L260,22.301647067070007L261.53846153846155,22.033604979515076L263.0769230769231,21.765540540218353L264.6153846153846,21.765540540218353L266.15384615384613,21.765540540218353L267.6923076923077,22.033604979515076L269.2307692307692,22.033604979515076L270.7692307692308,21.765540540218353L272.3076923076923,21.765540540218353L273.84615384615387,22.033604979515076L275.38461538461536,21.22945636510849L276.9230769230769,21.49749845266342L278.46153846153845,21.49749845266342L280,21.22945636510849L281.53846153846155,20.961391925811768L283.0769230769231,20.961391925811768L284.61538461538464,20.693349838256836L286.15384615384613,20.425307750701904L287.6923076923077,20.961391925811768L289.2307692307692,20.157265663146973L290.7692307692308,20.425307750701904L292.30769230769226,20.157265663146973L293.84615384615387,19.88920122385025L295.3846153846154,19.62115913629532L296.9230769230769,19.88920122385025L298.46153846153845,19.88920122385025L300,19.62115913629532L301.53846153846155,19.62115913629532L303.0769230769231,19.62115913629532L304.6153846153846,19.62115913629532L306.15384615384613,19.62115913629532L307.69230769230774,19.62115913629532L309.2307692307692,19.353117048740387L310.7692307692308,19.353117048740387L312.3076923076923,19.085052609443665L313.84615384615387,19.353117048740387L315.38461538461536,19.353117048740387L316.9230769230769,19.353117048740387L318.46153846153845,19.085052609443665L320,18.817010521888733L321.53846153846155,18.5489684343338L323.0769230769231,18.5489684343338L324.61538461538464,18.28090399503708L326.15384615384613,18.28090399503708L327.6923076923077,18.28090399503708L329.2307692307692,18.28090399503708L330.7692307692308,18.5489684343338L332.3076923076923,18.5489684343338L333.84615384615387,18.5489684343338L335.3846153846154,18.012861907482147L336.9230769230769,17.744819819927216L338.46153846153845,18.28090399503708L340,17.744819819927216L341.53846153846155,17.744819819927216L343.07692307692304,17.744819819927216L344.61538461538464,17.744819819927216L346.1538461538462,17.744819819927216L347.6923076923077,17.476777732372284L349.2307692307692,17.744819819927216L350.7692307692308,17.476777732372284L352.3076923076923,17.476777732372284L353.8461538461538,17.476777732372284L355.38461538461536,17.20871329307556L356.92307692307696,17.476777732372284L358.46153846153845,17.476777732372284L360,17.476777732372284L361.53846153846155,17.476777732372284L363.0769230769231,17.20871329307556L364.6153846153846,17.20871329307556L366.15384615384613,17.476777732372284L367.6923076923077,17.20871329307556L369.2307692307692,17.20871329307556L370.7692307692308,17.476777732372284L372.3076923076923,17.476777732372284L373.84615384615387,17.20871329307556L375.38461538461536,17.20871329307556L376.9230769230769,17.20871329307556L378.46153846153845,17.20871329307556L380,17.20871329307556L381.53846153846155,17.20871329307556L383.0769230769231,17.20871329307556" stroke="#f58518" stroke-width="2"/></g></g><path class="foreground" aria-hidden="true" d="" display="none"/></g><g transform="translate(0,0)"><path class="background" aria-hidden="true" d="M0,0h400v300h-400Z"/><g><g class="mark-line role-mark marks" role="graphics-object" aria-roledescription="line mark container"><path aria-label="Typ: Test; Anzahl Epochen: 1; Genauigkeit: 0" role="graphics-symbol" aria-roledescription="line mark" d="M1.5384615384615385,300L3.076923076923077,300L4.615384615384616,300L6.153846153846154,300L7.6923076923076925,300L9.230769230769232,300L10.76923076923077,300L12.307692307692308,297.4979149410501L13.846153846153847,294.37030870467424L15.384615384615385,298.74895747052506L16.923076923076923,294.37030870467424L18.461538461538463,286.8640531785786L20,259.3411171808839L21.53846153846154,244.32860612869263L23.076923076923077,236.19683012366295L24.615384615384617,187.40617409348488L26.153846153846157,185.52961125969887L27.692307692307693,161.13428324460983L29.230769230769234,152.37698256969452L30.76923076923077,144.87072005867958L32.30769230769231,144.87072005867958L33.84615384615385,141.11759439110756L35.38461538461539,135.48790588974953L36.92307692307693,128.60716804862022L38.46153846153847,127.35612988471985L40,117.9733157157898L41.53846153846154,113.59466537833214L43.07692307692308,104.83735352754593L44.61538461538462,107.96496570110321L46.15384615384615,108.59050154685974L47.69230769230769,98.58215153217316L49.23076923076923,99.83320087194443L50.76923076923077,92.32694953680038L52.307692307692314,96.0800752043724L53.84615384615385,92.32694953680038L55.38461538461539,90.45036435127258L56.92307692307692,89.1993373632431L58.46153846153847,89.82485085725784L60,89.82485085725784L61.53846153846154,90.45036435127258L63.07692307692307,86.07172518968582L64.61538461538461,89.1993373632431L66.15384615384615,84.82067584991455L67.6923076923077,84.82067584991455L69.23076923076923,85.44621169567108L70.76923076923077,84.19516235589981L72.3076923076923,83.56964886188507L73.84615384615385,80.44203668832779L75.38461538461539,80.44203668832779L76.92307692307693,82.94411301612854L78.46153846153847,80.44203668832779L80,80.44203668832779L81.53846153846153,79.19098734855652L83.07692307692308,78.56547385454178L84.61538461538461,82.94411301612854L86.15384615384616,78.56547385454178L87.6923076923077,81.69308602809906L89.23076923076924,78.56547385454178L90.76923076923077,79.19098734855652L92.3076923076923,79.19098734855652L93.84615384615384,76.68891102075577L95.38461538461539,76.06337517499924L96.92307692307692,76.06337517499924L98.46153846153847,76.68891102075577L100,76.68891102075577L101.53846153846153,77.31442451477051L103.07692307692307,77.31442451477051L104.61538461538463,76.68891102075577L106.15384615384616,75.4378616809845L107.6923076923077,74.81234818696976L109.23076923076923,74.81234818696976L110.76923076923077,74.81234818696976L112.3076923076923,76.06337517499924L113.84615384615384,75.4378616809845L115.38461538461537,72.93578535318375L116.92307692307693,72.31024950742722L118.46153846153847,72.93578535318375L120,70.4336866736412L121.53846153846153,70.4336866736412L123.07692307692308,69.80817317962646L124.61538461538461,71.68473601341248L126.15384615384615,69.80817317962646L127.69230769230768,69.18265968561172L129.23076923076923,69.18265968561172L130.76923076923077,69.80817317962646L132.3076923076923,66.68056100606918L133.84615384615384,65.4295340180397L135.3846153846154,63.55297118425369L136.92307692307693,61.05087250471115L138.46153846153845,59.79982316493988L140,59.79982316493988L141.53846153846155,52.29357182979584L143.07692307692307,52.29357182979584L144.6153846153846,49.16598200798035L146.15384615384613,48.540446162223816L147.6923076923077,48.540446162223816L149.23076923076923,44.161807000637054L150.76923076923077,43.536271154880524L152.3076923076923,41.65970832109451L153.84615384615387,41.03419482707977L155.3846153846154,41.03419482707977L156.92307692307693,40.40868133306503L158.46153846153845,41.03419482707977L160,40.40868133306503L161.53846153846155,41.03419482707977L163.07692307692307,41.03419482707977L164.6153846153846,40.40868133306503L166.15384615384616,39.15763199329376L167.6923076923077,38.53211849927902L169.23076923076923,38.53211849927902L170.76923076923077,36.65555566549301L172.30769230769232,37.28106915950775L173.84615384615384,36.65555566549301L175.3846153846154,37.28106915950775L176.9230769230769,36.65555566549301L178.46153846153848,34.778992831707L180,32.9024076461792L181.53846153846155,33.52794349193573L183.07692307692307,33.52794349193573L184.6153846153846,32.27689415216446L186.15384615384616,33.52794349193573L187.69230769230768,31.65138065814972L189.23076923076923,32.27689415216446L190.76923076923077,31.65138065814972L192.30769230769232,31.65138065814972L193.84615384615384,31.65138065814972L195.3846153846154,31.65138065814972L196.92307692307693,31.02584481239319L198.46153846153845,29.149281978607178L200,31.02584481239319L201.53846153846155,31.02584481239319L203.07692307692307,31.02584481239319L204.61538461538458,31.02584481239319L206.15384615384613,31.65138065814972L207.6923076923077,27.898254990577698L209.23076923076925,30.40033131837845L210.76923076923077,28.523768484592438L212.30769230769232,31.02584481239319L213.84615384615384,27.898254990577698L215.3846153846154,27.898254990577698L216.9230769230769,28.523768484592438L218.46153846153845,26.647205650806427L220.00000000000003,27.272719144821167L221.53846153846155,26.647205650806427L223.0769230769231,27.272719144821167L224.6153846153846,26.647205650806427L226.15384615384616,25.396156311035156L227.69230769230768,26.021692156791687L229.23076923076923,24.770642817020416L230.76923076923075,27.272719144821167L232.30769230769232,26.647205650806427L233.84615384615387,26.647205650806427L235.3846153846154,26.647205650806427L236.92307692307693,25.396156311035156L238.46153846153845,24.770642817020416L240,26.021692156791687L241.53846153846152,26.647205650806427L243.07692307692307,24.770642817020416L244.61538461538464,24.145129323005676L246.15384615384616,25.396156311035156L247.6923076923077,25.396156311035156L249.23076923076923,25.396156311035156L250.76923076923077,25.396156311035156L252.3076923076923,24.770642817020416L253.84615384615384,25.396156311035156L255.38461538461536,25.396156311035156L256.92307692307696,25.396156311035156L258.46153846153845,25.396156311035156L260,25.396156311035156L261.53846153846155,24.770642817020416L263.0769230769231,25.396156311035156L264.6153846153846,24.770642817020416L266.15384615384613,24.770642817020416L267.6923076923077,24.770642817020416L269.2307692307692,24.770642817020416L270.7692307692308,24.770642817020416L272.3076923076923,24.770642817020416L273.84615384615387,24.770642817020416L275.38461538461536,24.770642817020416L276.9230769230769,25.396156311035156L278.46153846153845,25.396156311035156L280,26.021692156791687L281.53846153846155,25.396156311035156L283.0769230769231,26.021692156791687L284.61538461538464,25.396156311035156L286.15384615384613,25.396156311035156L287.6923076923077,25.396156311035156L289.2307692307692,26.021692156791687L290.7692307692308,25.396156311035156L292.30769230769226,26.021692156791687L293.84615384615387,24.770642817020416L295.3846153846154,24.770642817020416L296.9230769230769,24.770642817020416L298.46153846153845,24.770642817020416L300,24.770642817020416L301.53846153846155,24.770642817020416L303.0769230769231,24.770642817020416L304.6153846153846,24.770642817020416L306.15384615384613,24.770642817020416L307.69230769230774,24.770642817020416L309.2307692307692,24.770642817020416L310.7692307692308,24.145129323005676L312.3076923076923,23.519593477249146L313.84615384615387,24.145129323005676L315.38461538461536,23.519593477249146L316.9230769230769,23.519593477249146L318.46153846153845,24.145129323005676L320,24.770642817020416L321.53846153846155,23.519593477249146L323.0769230769231,23.519593477249146L324.61538461538464,23.519593477249146L326.15384615384613,22.894079983234406L327.6923076923077,23.519593477249146L329.2307692307692,23.519593477249146L330.7692307692308,22.894079983234406L332.3076923076923,22.268566489219666L333.84615384615387,22.268566489219666L335.3846153846154,22.268566489219666L336.9230769230769,22.268566489219666L338.46153846153845,22.268566489219666L340,22.268566489219666L341.53846153846155,22.268566489219666L343.07692307692304,22.268566489219666L344.61538461538464,22.268566489219666L346.1538461538462,22.268566489219666L347.6923076923077,22.268566489219666L349.2307692307692,22.268566489219666L350.7692307692308,22.268566489219666L352.3076923076923,22.268566489219666L353.8461538461538,22.268566489219666L355.38461538461536,22.268566489219666L356.92307692307696,22.268566489219666L358.46153846153845,22.268566489219666L360,22.268566489219666L361.53846153846155,22.268566489219666L363.0769230769231,22.268566489219666L364.6153846153846,22.268566489219666L366.15384615384613,22.268566489219666L367.6923076923077,22.268566489219666L369.2307692307692,22.268566489219666L370.7692307692308,22.268566489219666L372.3076923076923,23.519593477249146L373.84615384615387,22.268566489219666L375.38461538461536,22.268566489219666L376.9230769230769,22.268566489219666L378.46153846153845,22.268566489219666L380,22.268566489219666L381.53846153846155,22.268566489219666L383.0769230769231,23.519593477249146" stroke="#4c78a8" stroke-width="2"/></g></g><path class="foreground" aria-hidden="true" d="" display="none"/></g></g><g class="mark-group role-legend" role="graphics-symbol" aria-roledescription="legend" aria-label="Symbol legend titled 'Typ' for stroke color with 2 values: Test, Train"><g transform="translate(418,0)"><path class="background" aria-hidden="true" d="M0,0h39v40h-39Z" pointer-events="none"/><g><g class="mark-group role-legend-entry"><g transform="translate(0,16)"><path class="background" aria-hidden="true" d="M0,0h0v0h0Z" pointer-events="none"/><g><g class="mark-group role-scope" role="graphics-object" aria-roledescription="group mark container"><g transform="translate(0,0)"><path class="background" aria-hidden="true" d="M0,0h38.412109375v11h-38.412109375Z" pointer-events="none" opacity="1"/><g><g class="mark-symbol role-legend-symbol" pointer-events="none"><path transform="translate(6,6)" d="M-5,0L5,0" stroke="#4c78a8" stroke-width="1.5" opacity="1"/></g><g class="mark-text role-legend-label" pointer-events="none"><text text-anchor="start" transform="translate(16,9)" font-family="sans-serif" font-size="10px" fill="#000" opacity="1">Test</text></g></g><path class="foreground" aria-hidden="true" d="" pointer-events="none" display="none"/></g><g transform="translate(0,13)"><path class="background" aria-hidden="true" d="M0,0h38.412109375v11h-38.412109375Z" pointer-events="none" opacity="1"/><g><g class="mark-symbol role-legend-symbol" pointer-events="none"><path transform="translate(6,6)" d="M-5,0L5,0" stroke="#f58518" stroke-width="1.5" opacity="1"/></g><g class="mark-text role-legend-label" pointer-events="none"><text text-anchor="start" transform="translate(16,9)" font-family="sans-serif" font-size="10px" fill="#000" opacity="1">Train</text></g></g><path class="foreground" aria-hidden="true" d="" pointer-events="none" display="none"/></g></g></g><path class="foreground" aria-hidden="true" d="" pointer-events="none" display="none"/></g></g><g class="mark-text role-legend-title" pointer-events="none"><text text-anchor="start" transform="translate(0,9)" font-family="sans-serif" font-size="11px" font-weight="bold" fill="#000" opacity="1">Typ</text></g></g><path class="foreground" aria-hidden="true" d="" pointer-events="none" display="none"/></g></g></g><path class="foreground" aria-hidden="true" d="" display="none"/></g></g></g></svg>