<svg xmlns="http://www.w3.org/2000/svg" xmlns:xlink="http://www.w3.org/1999/xlink" version="1.1" class="marks" width="509" height="347" viewBox="0 0 509 347"><rect width="509" height="347" fill="white"/><g fill="none" stroke-miterlimit="10" transform="translate(47,10)"><g class="mark-group role-frame root" role="graphics-object" aria-roledescription="group mark container"><g transform="translate(0,0)"><path class="background" aria-hidden="true" d="M0.5,0.5h400v300h-400Z" stroke="#ddd"/><g><g class="mark-group role-axis" aria-hidden="true"><g transform="translate(0.5,300.5)"><path class="background" aria-hidden="true" d="M0,0h0v0h0Z" pointer-events="none"/><g><g class="mark-rule role-axis-grid" pointer-events="none"><line transform="translate(0,-300)" x2="0" y2="300" stroke="#ddd" stroke-width="1" opacity="1"/><line transform="translate(31,-300)" x2="0" y2="300" stroke="#ddd" stroke-width="1" opacity="1"/><line transform="translate(62,-300)" x2="0" y2="300" stroke="#ddd" stroke-width="1" opacity="1"/><line transform="translate(92,-300)" x2="0" y2="300" stroke="#ddd" stroke-width="1" opacity="1"/><line transform="translate(123,-300)" x2="0" y2="300" stroke="#ddd" stroke-width="1" opacity="1"/><line transform="translate(154,-300)" x2="0" y2="300" stroke="#ddd" stroke-width="1" opacity="1"/><line transform="translate(185,-300)" x2="0" y2="300" stroke="#ddd" stroke-width="1" opacity="1"/><line transform="translate(215,-300)" x2="0" y2="300" stroke="#ddd" stroke-width="1" opacity="1"/><line transform="translate(246,-300)" x2="0" y2="300" stroke="#ddd" stroke-width="1" opacity="1"/><line transform="translate(277,-300)" x2="0" y2="300" stroke="#ddd" stroke-width="1" opacity="1"/><line transform="translate(308,-300)" x2="0" y2="300" stroke="#ddd" stroke-width="1" opacity="1"/><line transform="translate(338,-300)" x2="0" y2="300" stroke="#ddd" stroke-width="1" opacity="1"/><line transform="translate(369,-300)" x2="0" y2="300" stroke="#ddd" stroke-width="1" opacity="1"/><line transform="translate(400,-300)" x2="0" y2="300" stroke="#ddd" stroke-width="1" opacity="1"/></g></g><path class="foreground" aria-hidden="true" d="" pointer-events="none" display="none"/></g></g><g class="mark-group role-axis" aria-hidden="true"><g transform="translate(0.5,0.5)"><path class="background" aria-hidden="true" d="M0,0h0v0h0Z" pointer-events="none"/><g><g class="mark-rule role-axis-grid" pointer-events="none"><line transform="translate(0,300)" x2="400" y2="0" stroke="#ddd" stroke-width="1" opacity="1"/><line transform="translate(0,267)" x2="400" y2="0" stroke="#ddd" stroke-width="1" opacity="1"/><line transform="translate(0,233)" x2="400" y2="0" stroke="#ddd" stroke-width="1" opacity="1"/><line transform="translate(0,200)" x2="400" y2="0" stroke="#ddd" stroke-width="1" opacity="1"/><line transform="translate(0,167)" x2="400" y2="0" stroke="#ddd" stroke-width="1" opacity="1"/><line transform="translate(0,133)" x2="400" y2="0" stroke="#ddd" stroke-width="1" opacity="1"/><line transform="translate(0,100)" x2="400" y2="0" stroke="#ddd" stroke-width="1" opacity="1"/><line transform="translate(0,67)" x2="400" y2="0" stroke="#ddd" stroke-width="1" opacity="1"/><line transform="translate(0,33)" x2="400" y2="0" stroke="#ddd" stroke-width="1" opacity="1"/><line transform="translate(0,0)" x2="400" y2="0" stroke="#ddd" stroke-width="1" opacity="1"/></g></g><path class="foreground" aria-hidden="true" d="" pointer-events="none" display="none"/></g></g><g class="mark-group role-axis" role="graphics-symbol" aria-roledescription="axis" aria-label="X-axis titled 'Anzahl Epochen' for a linear scale with values from 0 to 260"><g transform="translate(0.5,300.5)"><path class="background" aria-hidden="true" d="M0,0h0v0h0Z" pointer-events="none"/><g><g class="mark-rule role-axis-tick" pointer-events="none"><line transform="translate(0,0)" x2="0" y2="5" stroke="#888" stroke-width="1" opacity="1"/><line transform="translate(31,0)" x2="0" y2="5" stroke="#888" stroke-width="1" opacity="1"/><line transform="translate(62,0)" x2="0" y2="5" stroke="#888" stroke-width="1" opacity="1"/><line transform="translate(92,0)" x2="0" y2="5" stroke="#888" stroke-width="1" opacity="1"/><line transform="translate(123,0)" x2="0" y2="5" stroke="#888" stroke-width="1" opacity="1"/><line transform="translate(154,0)" x2="0" y2="5" stroke="#888" stroke-width="1" opacity="1"/><line transform="translate(185,0)" x2="0" y2="5" stroke="#888" stroke-width="1" opacity="1"/><line transform="translate(215,0)" x2="0" y2="5" stroke="#888" stroke-width="1" opacity="1"/><line transform="translate(246,0)" x2="0" y2="5" stroke="#888" stroke-width="1" opacity="1"/><line transform="translate(277,0)" x2="0" y2="5" stroke="#888" stroke-width="1" opacity="1"/><line transform="translate(308,0)" x2="0" y2="5" stroke="#888" stroke-width="1" opacity="1"/><line transform="translate(338,0)" x2="0" y2="5" stroke="#888" stroke-width="1" opacity="1"/><line transform="translate(369,0)" x2="0" y2="5" stroke="#888" stroke-width="1" opacity="1"/><line transform="translate(400,0)" x2="0" y2="5" stroke="#888" stroke-width="1" opacity="1"/></g><g class="mark-text role-axis-label" pointer-events="none"><text text-anchor="start" transform="translate(0,15)" font-family="sans-serif" font-size="10px" fill="#000" opacity="1">0</text><text text-anchor="middle" transform="translate(30.76923076923077,15)" font-family="sans-serif" font-size="10px" fill="#000" opacity="1">20</text><text text-anchor="middle" transform="translate(61.53846153846154,15)" font-family="sans-serif" font-size="10px" fill="#000" opacity="1">40</text><text text-anchor="middle" transform="translate(92.3076923076923,15)" font-family="sans-serif" font-size="10px" fill="#000" opacity="1">60</text><text text-anchor="middle" transform="translate(123.07692307692308,15)" font-family="sans-serif" font-size="10px" fill="#000" opacity="1">80</text><text text-anchor="middle" transform="translate(153.84615384615387,15)" font-family="sans-serif" font-size="10px" fill="#000" opacity="1">100</text><text text-anchor="middle" transform="translate(184.6153846153846,15)" font-family="sans-serif" font-size="10px" fill="#000" opacity="1">120</text><text text-anchor="middle" transform="translate(215.3846153846154,15)" font-family="sans-serif" font-size="10px" fill="#000" opacity="1">140</text><text text-anchor="middle" transform="translate(246.15384615384616,15)" font-family="sans-serif" font-size="10px" fill="#000" opacity="1">160</text><text text-anchor="middle" transform="translate(276.9230769230769,15)" font-family="sans-serif" font-size="10px" fill="#000" opacity="1">180</text><text text-anchor="middle" transform="translate(307.69230769230774,15)" font-family="sans-serif" font-size="10px" fill="#000" opacity="1">200</text><text text-anchor="middle" transform="translate(338.46153846153845,15)" font-family="sans-serif" font-size="10px" fill="#000" opacity="1">220</text><text text-anchor="middle" transform="translate(369.2307692307692,15)" font-family="sans-serif" font-size="10px" fill="#000" opacity="1">240</text><text text-anchor="end" transform="translate(400,15)" font-family="sans-serif" font-size="10px" fill="#000" opacity="1">260</text></g><g class="mark-rule role-axis-domain" pointer-events="none"><line transform="translate(0,0)" x2="400" y2="0" stroke="#888" stroke-width="1" opacity="1"/></g><g class="mark-text role-axis-title" pointer-events="none"><text text-anchor="middle" transform="translate(200,30)" font-family="sans-serif" font-size="11px" font-weight="bold" fill="#000" opacity="1">Anzahl Epochen</text></g></g><path class="foreground" aria-hidden="true" d="" pointer-events="none" display="none"/></g></g><g class="mark-group role-axis" role="graphics-symbol" aria-roledescription="axis" aria-label="Y-axis titled 'Genauigkeit' for a linear scale with values from 0.0 to 0.5"><g transform="translate(0.5,0.5)"><path class="background" aria-hidden="true" d="M0,0h0v0h0Z" pointer-events="none"/><g><g class="mark-rule role-axis-tick" pointer-events="none"><line transform="translate(0,300)" x2="-5" y2="0" stroke="#888" stroke-width="1" opacity="1"/><line transform="translate(0,267)" x2="-5" y2="0" stroke="#888" stroke-width="1" opacity="1"/><line transform="translate(0,233)" x2="-5" y2="0" stroke="#888" stroke-width="1" opacity="1"/><line transform="translate(0,200)" x2="-5" y2="0" stroke="#888" stroke-width="1" opacity="1"/><line transform="translate(0,167)" x2="-5" y2="0" stroke="#888" stroke-width="1" opacity="1"/><line transform="translate(0,133)" x2="-5" y2="0" stroke="#888" stroke-width="1" opacity="1"/><line transform="translate(0,100)" x2="-5" y2="0" stroke="#888" stroke-width="1" opacity="1"/><line transform="translate(0,67)" x2="-5" y2="0" stroke="#888" stroke-width="1" opacity="1"/><line transform="translate(0,33)" x2="-5" y2="0" stroke="#888" stroke-width="1" opacity="1"/><line transform="translate(0,0)" x2="-5" y2="0" stroke="#888" stroke-width="1" opacity="1"/></g><g class="mark-text role-axis-label" pointer-events="none"><text text-anchor="end" transform="translate(-7,303)" font-family="sans-serif" font-size="10px" fill="#000" opacity="1">0.00</text><text text-anchor="end" transform="translate(-7,269.66666666666663)" font-family="sans-serif" font-size="10px" fill="#000" opacity="1">0.05</text><text text-anchor="end" transform="translate(-7,236.33333333333334)" font-family="sans-serif" font-size="10px" fill="#000" opacity="1">0.10</text><text text-anchor="end" transform="translate(-7,203.00000000000003)" font-family="sans-serif" font-size="10px" fill="#000" opacity="1">0.15</text><text text-anchor="end" transform="translate(-7,169.66666666666669)" font-family="sans-serif" font-size="10px" fill="#000" opacity="1">0.20</text><text text-anchor="end" transform="translate(-7,136.33333333333331)" font-family="sans-serif" font-size="10px" fill="#000" opacity="1">0.25</text><text text-anchor="end" transform="translate(-7,103.00000000000001)" font-family="sans-serif" font-size="10px" fill="#000" opacity="1">0.30</text><text text-anchor="end" transform="translate(-7,69.6666666666667)" font-family="sans-serif" font-size="10px" fill="#000" opacity="1">0.35</text><text text-anchor="end" transform="translate(-7,36.333333333333314)" font-family="sans-serif" font-size="10px" fill="#000" opacity="1">0.40</text><text text-anchor="end" transform="translate(-7,3)" font-family="sans-serif" font-size="10px" fill="#000" opacity="1">0.45</text></g><g class="mark-rule role-axis-domain" pointer-events="none"><line transform="translate(0,300)" x2="0" y2="-300" stroke="#888" stroke-width="1" opacity="1"/></g><g class="mark-text role-axis-title" pointer-events="none"><text text-anchor="middle" transform="translate(-30.462890625,150) rotate(-90) translate(0,-2)" font-family="sans-serif" font-size="11px" font-weight="bold" fill="#000" opacity="1">Genauigkeit</text></g></g><path class="foreground" aria-hidden="true" d="" pointer-events="none" display="none"/></g></g><g class="mark-group role-scope pathgroup" role="graphics-object" aria-roledescription="group mark container"><g transform="translate(0,0)"><path class="background" aria-hidden="true" d="M0,0h400v300h-400Z"/><g><g class="mark-line role-mark marks" role="graphics-object" aria-roledescription="line mark container"><path aria-label="Typ: Train; Anzahl Epochen: 1; Genauigkeit: 0" role="graphics-symbol" aria-roledescription="line mark" d="M1.5384615384615385,300L3.076923076923077,298.5704074303309L4.615384615384616,288.56325944264734L6.153846153846154,274.2673337459564L7.6923076923076925,204.45556243260702L9.230769230769232,164.4269704818726L10.76923076923077,142.74481733640036L12.307692307692308,126.54277483622235L13.846153846153847,118.20346911748251L15.384615384615385,112.96163797378539L16.923076923076923,107.71980683008829L18.461538461538463,104.38409248987834L20,101.28663778305055L21.53846153846154,101.04835828145346L23.076923076923077,98.665722211202L24.615384615384617,98.18918307622275L26.153846153846157,97.47438430786131L27.692307692307693,96.04478677113852L29.230769230769234,95.32998800277711L30.76923076923077,95.32998800277711L32.30769230769231,94.13866996765137L33.84615384615385,94.85346873601277L35.38461538461539,93.66213083267212L36.92307692307693,92.47081279754637L38.46153846153847,92.23255316416422L40,90.56469599405926L41.53846153846154,90.80295562744142L43.07692307692308,89.13509845733643L44.61538461538462,88.18204005559286L46.15384615384615,86.27590338389078L47.69230769230769,80.55753310521445L49.23076923076923,74.60090319315594L50.76923076923077,68.40601364771526L52.307692307692314,65.54681857426962L53.84615384615385,63.16416263580322L55.38461538461539,62.21110423405967L56.92307692307692,60.304987430572524L58.46153846153847,59.828448295593276L60,59.59018866221112L61.53846153846154,57.68405199050903L63.07692307692307,57.20753272374473L64.61538461538461,55.77793518702189L66.15384615384615,55.063136418660484L67.6923076923077,53.3952792485555L69.23076923076923,53.3952792485555L70.76923076923077,52.442220846811935L72.3076923076923,52.442220846811935L73.84615384615385,51.48916244506838L75.38461538461539,51.72742207845054L76.92307692307693,51.250902811686196L78.46153846153847,50.53610404332479L80,49.82130527496339L81.53846153846153,49.344766139984145L83.07692307692308,49.344766139984145L84.61538461538461,48.391707738240555L86.15384615384616,48.1534481048584L87.6923076923077,48.1534481048584L89.23076923076924,47.91516860326131L90.76923076923077,47.67690896987915L92.3076923076923,47.67690896987915L93.84615384615384,47.67690896987915L95.38461538461539,47.200389703114844L96.92307692307692,46.962110201517746L98.46153846153847,46.962110201517746L100,46.723850568135596L101.53846153846153,46.24731143315635L103.07692307692307,45.770792166392006L104.61538461538463,45.53253253300985L106.15384615384616,45.770792166392006L107.6923076923077,45.29425303141276L109.23076923076923,45.53253253300985L110.76923076923077,45.0559933980306L112.3076923076923,45.29425303141276L113.84615384615384,45.53253253300985L115.38461538461537,45.29425303141276L116.92307692307693,45.0559933980306L118.46153846153847,44.81773376464845L120,44.81773376464845L121.53846153846153,44.341194629669204L123.07692307692308,44.341194629669204L124.61538461538461,43.864655494689956L126.15384615384615,44.10293499628705L127.69230769230768,43.864655494689956L129.23076923076923,43.864655494689956L130.76923076923077,43.6263958613078L132.3076923076923,43.6263958613078L133.84615384615384,43.6263958613078L135.3846153846154,43.388136227925614L136.92307692307693,43.388136227925614L138.46153846153845,43.388136227925614L140,43.388136227925614L141.53846153846155,43.388136227925614L143.07692307692307,43.388136227925614L144.6153846153846,43.14987659454346L146.15384615384613,42.67333745956421L147.6923076923077,42.911597092946366L149.23076923076923,42.67333745956421L150.76923076923077,42.67333745956421L152.3076923076923,42.67333745956421L153.84615384615387,42.67333745956421L155.3846153846154,42.19679832458496L156.92307692307693,42.19679832458496L158.46153846153845,41.958538691202804L160,41.720279057820655L161.53846153846155,40.29068152109782L163.07692307692307,38.861083984375014L164.6153846153846,37.908025582631424L166.15384615384616,37.19322681427002L167.6923076923077,36.240168412526465L169.23076923076923,36.240168412526465L170.76923076923077,34.57231124242147L172.30769230769232,33.38099320729573L173.84615384615384,32.666194438934326L175.3846153846154,31.713136037190772L176.9230769230769,31.713136037190772L178.46153846153848,31.474856535593677L180,30.52179813385012L181.53846153846155,29.806999365488686L183.07692307692307,29.56873973210653L184.6153846153846,28.853940963745128L186.15384615384616,28.615681330362975L187.69230769230768,27.900882562001538L189.23076923076923,27.900882562001538L190.76923076923077,28.139142195383727L192.30769230769232,27.900882562001538L193.84615384615384,27.662622928619385L195.3846153846154,27.42434342702229L196.92307692307693,27.186083793640137L198.46153846153845,27.186083793640137L200,27.186083793640137L201.53846153846155,26.70954465866089L203.07692307692307,26.471285025278736L204.61538461538458,26.233025391896582L206.15384615384613,26.70954465866089L207.6923076923077,25.994765758514426L209.23076923076925,26.233025391896582L210.76923076923077,25.994765758514426L212.30769230769232,25.994765758514426L213.84615384615384,25.994765758514426L215.3846153846154,25.279966990152992L216.9230769230769,25.04168748855593L218.46153846153845,25.518226623535178L220.00000000000003,25.04168748855593L221.53846153846155,24.565168221791588L223.0769230769231,24.803427855173744L224.6153846153846,24.326908588409434L226.15384615384616,24.326908588409434L227.69230769230768,24.326908588409434L229.23076923076923,24.08862908681234L230.76923076923075,24.08862908681234L232.30769230769232,24.08862908681234L233.84615384615387,23.612109820048033L235.3846153846154,23.612109820048033L236.92307692307693,23.612109820048033L238.46153846153845,23.612109820048033L240,23.612109820048033L241.53846153846152,23.37383031845094L243.07692307692307,23.612109820048033L244.61538461538464,23.37383031845094L246.15384615384616,23.37383031845094L247.6923076923077,23.37383031845094L249.23076923076923,23.37383031845094L250.76923076923077,23.37383031845094L252.3076923076923,23.37383031845094L253.84615384615384,23.37383031845094L255.38461538461536,23.37383031845094L256.92307692307696,23.37383031845094L258.46153846153845,23.37383031845094L260,23.37383031845094L261.53846153846155,23.135570685068785L263.0769230769231,23.37383031845094L264.6153846153846,23.37383031845094L266.15384615384613,23.37383031845094L267.6923076923077,22.897311051686597L269.2307692307692,23.135570685068785L270.7692307692308,22.659051418304443L272.3076923076923,22.659051418304443L273.84615384615387,22.659051418304443L275.38461538461536,22.42077191670735L276.9230769230769,22.42077191670735L278.46153846153845,22.42077191670735L280,22.182512283325195L281.53846153846155,21.944252649943042L283.0769230769231,22.182512283325195L284.61538461538464,21.944252649943042L286.15384615384613,21.705973148345947L287.6923076923077,21.705973148345947L289.2307692307692,21.705973148345947L290.7692307692308,21.705973148345947L292.30769230769226,21.705973148345947L293.84615384615387,21.467713514963794L295.3846153846154,21.467713514963794L296.9230769230769,21.467713514963794L298.46153846153845,21.467713514963794L300,21.467713514963794L301.53846153846155,20.991174379984546L303.0769230769231,20.752914746602393L304.6153846153846,20.752914746602393L306.15384615384613,20.752914746602393L307.69230769230774,20.752914746602393L309.2307692307692,20.752914746602393L310.7692307692308,20.752914746602393L312.3076923076923,20.752914746602393L313.84615384615387,20.514655113220236L315.38461538461536,20.27639547983805L316.9230769230769,20.27639547983805L318.46153846153845,20.27639547983805L320,19.561596711476646L321.53846153846155,19.323317209879555L323.0769230769231,19.561596711476646L324.61538461538464,19.085057576497398L326.15384615384613,18.846797943115245L327.6923076923077,18.370258808135997L329.2307692307692,18.846797943115245L330.7692307692308,18.131999174753844L332.3076923076923,16.702401638031006L333.84615384615387,16.2258823712667L335.3846153846154,15.74934323628745L336.9230769230769,15.511083602905295L338.46153846153845,14.558025201161707L340,14.319745699564612L341.53846153846155,14.319745699564612L343.07692307692304,14.081486066182459L344.61538461538464,13.843226432800304L346.1538461538462,13.366687297821056L347.6923076923077,13.366687297821056L349.2307692307692,13.60494693120321L350.7692307692308,13.60494693120321L352.3076923076923,13.366687297821056L353.8461538461538,13.128427664438902L355.38461538461536,12.890168031056714L356.92307692307696,12.890168031056714L358.46153846153845,12.413628896077466L360,12.890168031056714L361.53846153846155,12.651888529459654L363.0769230769231,12.413628896077466L364.6153846153846,12.413628896077466L366.15384615384613,12.175369262695312L367.6923076923077,12.175369262695312L369.2307692307692,12.175369262695312L370.7692307692308,12.175369262695312L372.3076923076923,11.698830127716064L373.84615384615387,11.937089761098218L375.38461538461536,11.937089761098218L376.9230769230769,11.937089761098218L378.46153846153845,11.937089761098218L380,11.460570494333911L381.53846153846155,11.698830127716064L383.0769230769231,11.460570494333911" stroke="#f58518" stroke-width="2"/></g></g><path class="foreground" aria-hidden="true" d="" display="none"/></g><g transform="translate(0,0)"><path class="background" aria-hidden="true" d="M0,0h400v300h-400Z"/><g><g class="mark-line role-mark marks" role="graphics-object" aria-roledescription="line mark container"><path aria-label="Typ: Test; Anzahl Epochen: 1; Genauigkeit: 0" role="graphics-symbol" aria-roledescription="line mark" d="M1.5384615384615385,300L3.076923076923077,292.2157352169355L4.615384615384616,294.9958299597104L6.153846153846154,252.1823724110921L7.6923076923076925,189.35224215189615L9.230769230769232,162.10730671882632L10.76923076923077,162.10730671882632L12.307692307692308,145.98276019096375L13.846153846153847,144.3147043387095L15.384615384615385,139.86655871073407L16.923076923076923,134.30636922518414L18.461538461538463,133.7503472963969L20,135.41840314865112L21.53846153846154,135.41840314865112L23.076923076923077,129.85822359720865L24.615384615384617,129.85822359720865L26.153846153846157,129.85822359720865L27.692307692307693,129.85822359720865L29.230769230769234,129.30219173431396L30.76923076923077,129.30219173431396L32.30769230769231,128.19016774495444L33.84615384615385,125.41006803512575L35.38461538461539,128.7461797396342L36.92307692307693,125.96608002980551L38.46153846153847,123.18598031997682L40,123.74201218287152L41.53846153846154,124.85403617223105L43.07692307692308,122.62996832529706L44.61538461538462,121.5179244677226L46.15384615384615,118.73784462610881L47.69230769230769,110.95357735951742L49.23076923076923,99.83319838841757L50.76923076923077,95.38504282633463L52.307692307692314,88.7128194173177L53.84615384615385,90.38087526957196L55.38461538461539,89.82486327489217L56.92307692307692,90.93688726425172L58.46153846153847,87.60077555974324L60,88.15678755442303L61.53846153846154,86.48873170216878L63.07692307692307,83.70865186055502L64.61538461538461,82.04059600830077L66.15384615384615,81.4845641454061L67.6923076923077,80.9285521507263L69.23076923076923,80.9285521507263L70.76923076923077,78.70448430379233L72.3076923076923,78.14845244089761L73.84615384615385,79.26049629847208L75.38461538461539,77.59244044621786L76.92307692307693,78.14845244089761L78.46153846153847,80.37254015604654L80,79.26049629847208L81.53846153846153,78.14845244089761L83.07692307692308,75.92438459396364L84.61538461538461,75.92438459396364L86.15384615384616,78.14845244089761L87.6923076923077,75.36835273106894L89.23076923076924,74.81234073638917L90.76923076923077,75.36835273106894L92.3076923076923,74.25632874170941L93.84615384615384,75.36835273106894L95.38461538461539,74.81234073638917L96.92307692307692,75.92438459396364L98.46153846153847,75.92438459396364L100,73.14428488413495L101.53846153846153,73.14428488413495L103.07692307692307,73.14428488413495L104.61538461538463,74.81234073638917L106.15384615384616,73.14428488413495L107.6923076923077,73.14428488413495L109.23076923076923,74.25632874170941L110.76923076923077,73.14428488413495L112.3076923076923,72.03224102656048L113.84615384615384,73.14428488413495L115.38461538461537,72.58827288945515L116.92307692307693,71.47622903188069L118.46153846153847,72.58827288945515L120,72.03224102656048L121.53846153846153,71.47622903188069L123.07692307692308,72.58827288945515L124.61538461538461,70.92021703720093L126.15384615384615,73.14428488413495L127.69230769230768,72.03224102656048L129.23076923076923,72.03224102656048L130.76923076923077,72.03224102656048L132.3076923076923,71.47622903188069L133.84615384615384,71.47622903188069L135.3846153846154,72.58827288945515L136.92307692307693,71.47622903188069L138.46153846153845,71.47622903188069L140,72.58827288945515L141.53846153846155,73.14428488413495L143.07692307692307,73.14428488413495L144.6153846153846,73.14428488413495L146.15384615384613,73.70029687881471L147.6923076923077,73.14428488413495L149.23076923076923,73.70029687881471L150.76923076923077,72.03224102656048L152.3076923076923,72.03224102656048L153.84615384615387,73.70029687881471L155.3846153846154,74.25632874170941L156.92307692307693,73.70029687881471L158.46153846153845,73.70029687881471L160,73.14428488413495L161.53846153846155,72.58827288945515L163.07692307692307,72.58827288945515L164.6153846153846,72.03224102656048L166.15384615384616,72.58827288945515L167.6923076923077,72.58827288945515L169.23076923076923,72.03224102656048L170.76923076923077,70.92021703720093L172.30769230769232,70.92021703720093L173.84615384615384,70.36418517430623L175.3846153846154,70.92021703720093L176.9230769230769,69.80817317962646L178.46153846153848,70.92021703720093L180,69.80817317962646L181.53846153846155,68.14011732737224L183.07692307692307,69.80817317962646L184.6153846153846,67.02807346979777L186.15384615384616,68.696129322052L187.69230769230768,68.696129322052L189.23076923076923,66.47206147511801L190.76923076923077,66.47206147511801L192.30769230769232,64.24799362818399L193.84615384615384,67.02807346979777L195.3846153846154,65.36001761754355L196.92307692307693,65.91604948043826L198.46153846153845,66.47206147511801L200,66.47206147511801L201.53846153846155,64.8040056228638L203.07692307692307,65.91604948043826L204.61538461538458,64.8040056228638L206.15384615384613,63.69196176528933L207.6923076923077,64.24799362818399L209.23076923076925,62.02390591303507L210.76923076923077,63.135949770609535L212.30769230769232,64.8040056228638L213.84615384615384,63.69196176528933L215.3846153846154,64.24799362818399L216.9230769230769,63.135949770609535L218.46153846153845,62.579917907714865L220.00000000000003,63.69196176528933L221.53846153846155,63.69196176528933L223.0769230769231,63.69196176528933L224.6153846153846,63.135949770609535L226.15384615384616,63.69196176528933L227.69230769230768,63.69196176528933L229.23076923076923,63.135949770609535L230.76923076923075,63.69196176528933L232.30769230769232,63.69196176528933L233.84615384615387,64.24799362818399L235.3846153846154,64.24799362818399L236.92307692307693,62.579917907714865L238.46153846153845,63.69196176528933L240,63.69196176528933L241.53846153846152,63.135949770609535L243.07692307692307,63.69196176528933L244.61538461538464,64.24799362818399L246.15384615384616,63.69196176528933L247.6923076923077,63.135949770609535L249.23076923076923,62.579917907714865L250.76923076923077,63.135949770609535L252.3076923076923,63.135949770609535L253.84615384615384,63.135949770609535L255.38461538461536,63.69196176528933L256.92307692307696,62.579917907714865L258.46153846153845,63.135949770609535L260,63.135949770609535L261.53846153846155,63.69196176528933L263.0769230769231,63.69196176528933L264.6153846153846,63.135949770609535L266.15384615384613,62.579917907714865L267.6923076923077,62.579917907714865L269.2307692307692,63.135949770609535L270.7692307692308,62.579917907714865L272.3076923076923,62.02390591303507L273.84615384615387,61.46789391835531L275.38461538461536,62.02390591303507L276.9230769230769,61.46789391835531L278.46153846153845,60.91186205546061L280,61.46789391835531L281.53846153846155,61.46789391835531L283.0769230769231,60.91186205546061L284.61538461538464,60.91186205546061L286.15384615384613,61.46789391835531L287.6923076923077,61.46789391835531L289.2307692307692,60.91186205546061L290.7692307692308,59.79983806610109L292.30769230769226,61.46789391835531L293.84615384615387,60.91186205546061L295.3846153846154,60.91186205546061L296.9230769230769,60.91186205546061L298.46153846153845,60.355850060780845L300,60.355850060780845L301.53846153846155,60.355850060780845L303.0769230769231,60.355850060780845L304.6153846153846,60.355850060780845L306.15384615384613,60.355850060780845L307.69230769230774,60.355850060780845L309.2307692307692,60.355850060780845L310.7692307692308,60.355850060780845L312.3076923076923,59.79983806610109L313.84615384615387,59.24380620320638L315.38461538461536,60.355850060780845L316.9230769230769,59.24380620320638L318.46153846153845,59.24380620320638L320,59.79983806610109L321.53846153846155,59.79983806610109L323.0769230769231,59.79983806610109L324.61538461538464,59.24380620320638L326.15384615384613,59.24380620320638L327.6923076923077,58.687794208526626L329.2307692307692,57.57575035095216L330.7692307692308,57.0197383562724L332.3076923076923,56.463726361592606L333.84615384615387,54.79567050933838L335.3846153846154,54.23963864644368L336.9230769230769,54.79567050933838L338.46153846153845,53.683626651763916L340,53.683626651763916L341.53846153846155,53.12761465708415L343.07692307692304,52.57158279418945L344.61538461538464,51.45955880482993L346.1538461538462,51.45955880482993L347.6923076923077,50.903526941935226L349.2307692307692,51.45955880482993L350.7692307692308,50.903526941935226L352.3076923076923,50.903526941935226L353.8461538461538,49.79148308436076L355.38461538461536,50.34751494725547L356.92307692307696,49.235471089681006L358.46153846153845,49.235471089681006L360,49.79148308436076L361.53846153846155,49.235471089681006L363.0769230769231,50.34751494725547L364.6153846153846,50.34751494725547L366.15384615384613,50.34751494725547L367.6923076923077,49.235471089681006L369.2307692307692,49.79148308436076L370.7692307692308,50.34751494725547L372.3076923076923,49.79148308436076L373.84615384615387,50.34751494725547L375.38461538461536,48.67945909500124L376.9230769230769,49.235471089681006L378.46153846153845,48.67945909500124L380,48.12342723210654L381.53846153846155,48.67945909500124L383.0769230769231,48.67945909500124" stroke="#4c78a8" stroke-width="2"/></g></g><path class="foreground" aria-hidden="true" d="" display="none"/></g></g><g class="mark-group role-legend" role="graphics-symbol" aria-roledescription="legend" aria-label="Symbol legend titled 'Typ' for stroke color with 2 values: Test, Train"><g transform="translate(418,0)"><path class="background" aria-hidden="true" d="M0,0h39v40h-39Z" pointer-events="none"/><g><g class="mark-group role-legend-entry"><g transform="translate(0,16)"><path class="background" aria-hidden="true" d="M0,0h0v0h0Z" pointer-events="none"/><g><g class="mark-group role-scope" role="graphics-object" aria-roledescription="group mark container"><g transform="translate(0,0)"><path class="background" aria-hidden="true" d="M0,0h38.412109375v11h-38.412109375Z" pointer-events="none" opacity="1"/><g><g class="mark-symbol role-legend-symbol" pointer-events="none"><path transform="translate(6,6)" d="M-5,0L5,0" stroke="#4c78a8" stroke-width="1.5" opacity="1"/></g><g class="mark-text role-legend-label" pointer-events="none"><text text-anchor="start" transform="translate(16,9)" font-family="sans-serif" font-size="10px" fill="#000" opacity="1">Test</text></g></g><path class="foreground" aria-hidden="true" d="" pointer-events="none" display="none"/></g><g transform="translate(0,13)"><path class="background" aria-hidden="true" d="M0,0h38.412109375v11h-38.412109375Z" pointer-events="none" opacity="1"/><g><g class="mark-symbol role-legend-symbol" pointer-events="none"><path transform="translate(6,6)" d="M-5,0L5,0" stroke="#f58518" stroke-width="1.5" opacity="1"/></g><g class="mark-text role-legend-label" pointer-events="none"><text text-anchor="start" transform="translate(16,9)" font-family="sans-serif" font-size="10px" fill="#000" opacity="1">Train</text></g></g><path class="foreground" aria-hidden="true" d="" pointer-events="none" display="none"/></g></g></g><path class="foreground" aria-hidden="true" d="" pointer-events="none" display="none"/></g></g><g class="mark-text role-legend-title" pointer-events="none"><text text-anchor="start" transform="translate(0,9)" font-family="sans-serif" font-size="11px" font-weight="bold" fill="#000" opacity="1">Typ</text></g></g><path class="foreground" aria-hidden="true" d="" pointer-events="none" display="none"/></g></g></g><path class="foreground" aria-hidden="true" d="" display="none"/></g></g></g></svg>