<svg xmlns="http://www.w3.org/2000/svg" xmlns:xlink="http://www.w3.org/1999/xlink" version="1.1" class="marks" width="509" height="347" viewBox="0 0 509 347"><rect width="509" height="347" fill="white"/><g fill="none" stroke-miterlimit="10" transform="translate(47,10)"><g class="mark-group role-frame root" role="graphics-object" aria-roledescription="group mark container"><g transform="translate(0,0)"><path class="background" aria-hidden="true" d="M0.5,0.5h400v300h-400Z" stroke="#ddd"/><g><g class="mark-group role-axis" aria-hidden="true"><g transform="translate(0.5,300.5)"><path class="background" aria-hidden="true" d="M0,0h0v0h0Z" pointer-events="none"/><g><g class="mark-rule role-axis-grid" pointer-events="none"><line transform="translate(0,-300)" x2="0" y2="300" stroke="#ddd" stroke-width="1" opacity="1"/><line transform="translate(31,-300)" x2="0" y2="300" stroke="#ddd" stroke-width="1" opacity="1"/><line transform="translate(62,-300)" x2="0" y2="300" stroke="#ddd" stroke-width="1" opacity="1"/><line transform="translate(92,-300)" x2="0" y2="300" stroke="#ddd" stroke-width="1" opacity="1"/><line transform="translate(123,-300)" x2="0" y2="300" stroke="#ddd" stroke-width="1" opacity="1"/><line transform="translate(154,-300)" x2="0" y2="300" stroke="#ddd" stroke-width="1" opacity="1"/><line transform="translate(185,-300)" x2="0" y2="300" stroke="#ddd" stroke-width="1" opacity="1"/><line transform="translate(215,-300)" x2="0" y2="300" stroke="#ddd" stroke-width="1" opacity="1"/><line transform="translate(246,-300)" x2="0" y2="300" stroke="#ddd" stroke-width="1" opacity="1"/><line transform="translate(277,-300)" x2="0" y2="300" stroke="#ddd" stroke-width="1" opacity="1"/><line transform="translate(308,-300)" x2="0" y2="300" stroke="#ddd" stroke-width="1" opacity="1"/><line transform="translate(338,-300)" x2="0" y2="300" stroke="#ddd" stroke-width="1" opacity="1"/><line transform="translate(369,-300)" x2="0" y2="300" stroke="#ddd" stroke-width="1" opacity="1"/><line transform="translate(400,-300)" x2="0" y2="300" stroke="#ddd" stroke-width="1" opacity="1"/></g></g><path class="foreground" aria-hidden="true" d="" pointer-events="none" display="none"/></g></g><g class="mark-group role-axis" aria-hidden="true"><g transform="translate(0.5,0.5)"><path class="background" aria-hidden="true" d="M0,0h0v0h0Z" pointer-events="none"/><g><g class="mark-rule role-axis-grid" pointer-events="none"><line transform="translate(0,300)" x2="400" y2="0" stroke="#ddd" stroke-width="1" opacity="1"/><line transform="translate(0,267)" x2="400" y2="0" stroke="#ddd" stroke-width="1" opacity="1"/><line transform="translate(0,233)" x2="400" y2="0" stroke="#ddd" stroke-width="1" opacity="1"/><line transform="translate(0,200)" x2="400" y2="0" stroke="#ddd" stroke-width="1" opacity="1"/><line transform="translate(0,167)" x2="400" y2="0" stroke="#ddd" stroke-width="1" opacity="1"/><line transform="translate(0,133)" x2="400" y2="0" stroke="#ddd" stroke-width="1" opacity="1"/><line transform="translate(0,100)" x2="400" y2="0" stroke="#ddd" stroke-width="1" opacity="1"/><line transform="translate(0,67)" x2="400" y2="0" stroke="#ddd" stroke-width="1" opacity="1"/><line transform="translate(0,33)" x2="400" y2="0" stroke="#ddd" stroke-width="1" opacity="1"/><line transform="translate(0,0)" x2="400" y2="0" stroke="#ddd" stroke-width="1" opacity="1"/></g></g><path class="foreground" aria-hidden="true" d="" pointer-events="none" display="none"/></g></g><g class="mark-group role-axis" role="graphics-symbol" aria-roledescription="axis" aria-label="X-axis titled 'Anzahl Epochen' for a linear scale with values from 0 to 260"><g transform="translate(0.5,300.5)"><path class="background" aria-hidden="true" d="M0,0h0v0h0Z" pointer-events="none"/><g><g class="mark-rule role-axis-tick" pointer-events="none"><line transform="translate(0,0)" x2="0" y2="5" stroke="#888" stroke-width="1" opacity="1"/><line transform="translate(31,0)" x2="0" y2="5" stroke="#888" stroke-width="1" opacity="1"/><line transform="translate(62,0)" x2="0" y2="5" stroke="#888" stroke-width="1" opacity="1"/><line transform="translate(92,0)" x2="0" y2="5" stroke="#888" stroke-width="1" opacity="1"/><line transform="translate(123,0)" x2="0" y2="5" stroke="#888" stroke-width="1" opacity="1"/><line transform="translate(154,0)" x2="0" y2="5" stroke="#888" stroke-width="1" opacity="1"/><line transform="translate(185,0)" x2="0" y2="5" stroke="#888" stroke-width="1" opacity="1"/><line transform="translate(215,0)" x2="0" y2="5" stroke="#888" stroke-width="1" opacity="1"/><line transform="translate(246,0)" x2="0" y2="5" stroke="#888" stroke-width="1" opacity="1"/><line transform="translate(277,0)" x2="0" y2="5" stroke="#888" stroke-width="1" opacity="1"/><line transform="translate(308,0)" x2="0" y2="5" stroke="#888" stroke-width="1" opacity="1"/><line transform="translate(338,0)" x2="0" y2="5" stroke="#888" stroke-width="1" opacity="1"/><line transform="translate(369,0)" x2="0" y2="5" stroke="#888" stroke-width="1" opacity="1"/><line transform="translate(400,0)" x2="0" y2="5" stroke="#888" stroke-width="1" opacity="1"/></g><g class="mark-text role-axis-label" pointer-events="none"><text text-anchor="start" transform="translate(0,15)" font-family="sans-serif" font-size="10px" fill="#000" opacity="1">0</text><text text-anchor="middle" transform="translate(30.76923076923077,15)" font-family="sans-serif" font-size="10px" fill="#000" opacity="1">20</text><text text-anchor="middle" transform="translate(61.53846153846154,15)" font-family="sans-serif" font-size="10px" fill="#000" opacity="1">40</text><text text-anchor="middle" transform="translate(92.3076923076923,15)" font-family="sans-serif" font-size="10px" fill="#000" opacity="1">60</text><text text-anchor="middle" transform="translate(123.07692307692308,15)" font-family="sans-serif" font-size="10px" fill="#000" opacity="1">80</text><text text-anchor="middle" transform="translate(153.84615384615387,15)" font-family="sans-serif" font-size="10px" fill="#000" opacity="1">100</text><text text-anchor="middle" transform="translate(184.6153846153846,15)" font-family="sans-serif" font-size="10px" fill="#000" opacity="1">120</text><text text-anchor="middle" transform="translate(215.3846153846154,15)" font-family="sans-serif" font-size="10px" fill="#000" opacity="1">140</text><text text-anchor="middle" transform="translate(246.15384615384616,15)" font-family="sans-serif" font-size="10px" fill="#000" opacity="1">160</text><text text-anchor="middle" transform="translate(276.9230769230769,15)" font-family="sans-serif" font-size="10px" fill="#000" opacity="1">180</text><text text-anchor="middle" transform="translate(307.69230769230774,15)" font-family="sans-serif" font-size="10px" fill="#000" opacity="1">200</text><text text-anchor="middle" transform="translate(338.46153846153845,15)" font-family="sans-serif" font-size="10px" fill="#000" opacity="1">220</text><text text-anchor="middle" transform="translate(369.2307692307692,15)" font-family="sans-serif" font-size="10px" fill="#000" opacity="1">240</text><text text-anchor="end" transform="translate(400,15)" font-family="sans-serif" font-size="10px" fill="#000" opacity="1">260</text></g><g class="mark-rule role-axis-domain" pointer-events="none"><line transform="translate(0,0)" x2="400" y2="0" stroke="#888" stroke-width="1" opacity="1"/></g><g class="mark-text role-axis-title" pointer-events="none"><text text-anchor="middle" transform="translate(200,30)" font-family="sans-serif" font-size="11px" font-weight="bold" fill="#000" opacity="1">Anzahl Epochen</text></g></g><path class="foreground" aria-hidden="true" d="" pointer-events="none" display="none"/></g></g><g class="mark-group role-axis" role="graphics-symbol" aria-roledescription="axis" aria-label="Y-axis titled 'Genauigkeit' for a linear scale with values from 0.0 to 0.5"><g transform="translate(0.5,0.5)"><path class="background" aria-hidden="true" d="M0,0h0v0h0Z" pointer-events="none"/><g><g class="mark-rule role-axis-tick" pointer-events="none"><line transform="translate(0,300)" x2="-5" y2="0" stroke="#888" stroke-width="1" opacity="1"/><line transform="translate(0,267)" x2="-5" y2="0" stroke="#888" stroke-width="1" opacity="1"/><line transform="translate(0,233)" x2="-5" y2="0" stroke="#888" stroke-width="1" opacity="1"/><line transform="translate(0,200)" x2="-5" y2="0" stroke="#888" stroke-width="1" opacity="1"/><line transform="translate(0,167)" x2="-5" y2="0" stroke="#888" stroke-width="1" opacity="1"/><line transform="translate(0,133)" x2="-5" y2="0" stroke="#888" stroke-width="1" opacity="1"/><line transform="translate(0,100)" x2="-5" y2="0" stroke="#888" stroke-width="1" opacity="1"/><line transform="translate(0,67)" x2="-5" y2="0" stroke="#888" stroke-width="1" opacity="1"/><line transform="translate(0,33)" x2="-5" y2="0" stroke="#888" stroke-width="1" opacity="1"/><line transform="translate(0,0)" x2="-5" y2="0" stroke="#888" stroke-width="1" opacity="1"/></g><g class="mark-text role-axis-label" pointer-events="none"><text text-anchor="end" transform="translate(-7,303)" font-family="sans-serif" font-size="10px" fill="#000" opacity="1">0.00</text><text text-anchor="end" transform="translate(-7,269.66666666666663)" font-family="sans-serif" font-size="10px" fill="#000" opacity="1">0.05</text><text text-anchor="end" transform="translate(-7,236.33333333333334)" font-family="sans-serif" font-size="10px" fill="#000" opacity="1">0.10</text><text text-anchor="end" transform="translate(-7,203.00000000000003)" font-family="sans-serif" font-size="10px" fill="#000" opacity="1">0.15</text><text text-anchor="end" transform="translate(-7,169.66666666666669)" font-family="sans-serif" font-size="10px" fill="#000" opacity="1">0.20</text><text text-anchor="end" transform="translate(-7,136.33333333333331)" font-family="sans-serif" font-size="10px" fill="#000" opacity="1">0.25</text><text text-anchor="end" transform="translate(-7,103.00000000000001)" font-family="sans-serif" font-size="10px" fill="#000" opacity="1">0.30</text><text text-anchor="end" transform="translate(-7,69.6666666666667)" font-family="sans-serif" font-size="10px" fill="#000" opacity="1">0.35</text><text text-anchor="end" transform="translate(-7,36.333333333333314)" font-family="sans-serif" font-size="10px" fill="#000" opacity="1">0.40</text><text text-anchor="end" transform="translate(-7,3)" font-family="sans-serif" font-size="10px" fill="#000" opacity="1">0.45</text></g><g class="mark-rule role-axis-domain" pointer-events="none"><line transform="translate(0,300)" x2="0" y2="-300" stroke="#888" stroke-width="1" opacity="1"/></g><g class="mark-text role-axis-title" pointer-events="none"><text text-anchor="middle" transform="translate(-30.462890625,150) rotate(-90) translate(0,-2)" font-family="sans-serif" font-size="11px" font-weight="bold" fill="#000" opacity="1">Genauigkeit</text></g></g><path class="foreground" aria-hidden="true" d="" pointer-events="none" display="none"/></g></g><g class="mark-group role-scope pathgroup" role="graphics-object" aria-roledescription="group mark container"><g transform="translate(0,0)"><path class="background" aria-hidden="true" d="M0,0h400v300h-400Z"/><g><g class="mark-line role-mark marks" role="graphics-object" aria-roledescription="line mark container"><path aria-label="Typ: Train; Anzahl Epochen: 1; Genauigkeit: 0.389206588268" role="graphics-symbol" aria-roledescription="line mark" d="M1.5384615384615385,40.52894115448L3.076923076923077,33.619252840677916L4.615384615384616,33.38099320729573L6.153846153846154,36.95496718088786L7.6923076923076925,40.52894115448L9.230769230769232,41.4820194244385L10.76923076923077,47.200389703114844L12.307692307692308,42.911597092946366L13.846153846153847,41.24373992284141L15.384615384615385,37.19322681427002L16.923076923076923,47.200389703114844L18.461538461538463,66.73813660939535L20,57.44579235712688L21.53846153846154,53.63353888193768L23.076923076923077,54.824876785278335L24.615384615384617,54.824876785278335L26.153846153846157,120.58612505594891L27.692307692307693,83.65498781204224L29.230769230769234,86.03764375050864L30.76923076923077,76.9835591316223L32.30769230769231,76.2687603632609L33.84615384615385,73.1713056564331L35.38461538461539,83.17846854527792L36.92307692307693,91.51775439580283L38.46153846153847,106.05194965998334L40,92.70907243092856L41.53846153846154,72.93304602305095L43.07692307692308,68.16773414611816L44.61538461538462,61.73456509908042L46.15384615384615,62.925903002421066L47.69230769230769,68.88253291447957L49.23076923076923,67.69121487935385L50.76923076923077,83.17846854527792L52.307692307692314,81.0340722401937L53.84615384615385,77.93661753336589L55.38461538461539,64.59376017252606L56.92307692307692,63.16416263580322L58.46153846153847,60.304987430572524L60,63.64070177078247L61.53846153846154,84.60804621378583L63.07692307692307,98.4274427096049L64.61538461538461,64.35550053914388L66.15384615384615,62.687643369038916L67.6923076923077,63.16416263580322L69.23076923076923,55.063136418660484L70.76923076923077,64.11722103754681L72.3076923076923,60.78150669733683L73.84615384615385,54.58661715189618L75.38461538461539,51.96568171183269L76.92307692307693,57.20753272374473L78.46153846153847,69.83559131622316L80,67.45293537775676L81.53846153846153,67.45293537775676L83.07692307692308,67.45293537775676L84.61538461538461,60.543247063954674L86.15384615384616,63.64070177078247L87.6923076923077,66.73813660939535L89.23076923076924,68.64427328109741L90.76923076923077,65.07027943929037L92.3076923076923,61.019766330719015L93.84615384615384,70.07387081782025L95.38461538461539,76.2687603632609L96.92307692307692,81.0340722401937L98.46153846153847,83.8932474454244L100,81.74887100855508L101.53846153846153,77.46009826660155L103.07692307692307,75.07744232813519L104.61538461538463,65.30855894088747L106.15384615384616,61.019766330719015L107.6923076923077,57.44579235712688L109.23076923076923,52.203961213429785L110.76923076923077,53.871818383534745L112.3076923076923,45.0559933980306L113.84615384615384,41.720279057820655L115.38461538461537,40.52894115448L116.92307692307693,39.81416225433351L118.46153846153847,39.81416225433351L120,40.05242188771566L121.53846153846153,45.770792166392006L123.07692307692308,47.200389703114844L124.61538461538461,47.67690896987915L126.15384615384615,51.250902811686196L127.69230769230768,50.05956490834554L129.23076923076923,52.203961213429785L130.76923076923077,53.3952792485555L132.3076923076923,55.063136418660484L133.84615384615384,52.91875998179118L135.3846153846154,49.82130527496339L136.92307692307693,49.82130527496339L138.46153846153845,48.1534481048584L140,50.05956490834554L141.53846153846155,54.11007801691693L143.07692307692307,50.77436367670695L144.6153846153846,50.2978245417277L146.15384615384613,50.2978245417277L147.6923076923077,53.15701961517334L149.23076923076923,54.11007801691693L150.76923076923077,54.11007801691693L152.3076923076923,54.11007801691693L153.84615384615387,54.11007801691693L155.3846153846154,53.3952792485555L156.92307692307693,52.91875998179118L158.46153846153845,47.67690896987915L160,44.10293499628705L161.53846153846155,40.52894115448L163.07692307692307,37.43150631586711L164.6153846153846,34.81057087580363L166.15384615384616,35.76364914576212L167.6923076923077,33.85751247406007L169.23076923076923,33.85751247406007L170.76923076923077,33.85751247406007L172.30769230769232,33.85751247406007L173.84615384615384,33.85751247406007L175.3846153846154,33.85751247406007L176.9230769230769,33.85751247406007L178.46153846153848,33.85751247406007L180,33.85751247406007L181.53846153846155,33.85751247406007L183.07692307692307,33.85751247406007L184.6153846153846,33.85751247406007L186.15384615384616,34.095791975657164L187.69230769230768,34.095791975657164L189.23076923076923,34.095791975657164L190.76923076923077,34.095791975657164L192.30769230769232,34.095791975657164L193.84615384615384,34.095791975657164L195.3846153846154,34.095791975657164L196.92307692307693,34.095791975657164L198.46153846153845,34.095791975657164L200,34.095791975657164L201.53846153846155,34.095791975657164L203.07692307692307,34.095791975657164L204.61538461538458,34.095791975657164L206.15384615384613,34.095791975657164L207.6923076923077,34.095791975657164L209.23076923076925,34.095791975657164L210.76923076923077,34.095791975657164L212.30769230769232,34.095791975657164L213.84615384615384,34.095791975657164L215.3846153846154,34.095791975657164L216.9230769230769,34.095791975657164L218.46153846153845,34.095791975657164L220.00000000000003,34.095791975657164L221.53846153846155,37.66976594924927L223.0769230769231,37.66976594924927L224.6153846153846,39.81416225433351L226.15384615384616,38.14628521601361L227.69230769230768,37.43150631586711L229.23076923076923,42.67333745956421L230.76923076923075,41.24373992284141L232.30769230769232,46.723850568135596L233.84615384615387,54.34833765029909L235.3846153846154,54.34833765029909L236.92307692307693,53.871818383534745L238.46153846153845,53.871818383534745L240,53.871818383534745L241.53846153846152,53.871818383534745L243.07692307692307,53.871818383534745L244.61538461538464,53.871818383534745L246.15384615384616,53.871818383534745L247.6923076923077,53.871818383534745L249.23076923076923,53.871818383534745L250.76923076923077,53.871818383534745L252.3076923076923,53.871818383534745L253.84615384615384,53.871818383534745L255.38461538461536,53.871818383534745L256.92307692307696,53.871818383534745L258.46153846153845,53.871818383534745L260,53.871818383534745L261.53846153846155,53.871818383534745L263.0769230769231,53.871818383534745L264.6153846153846,53.871818383534745L266.15384615384613,53.871818383534745L267.6923076923077,53.871818383534745L269.2307692307692,53.871818383534745L270.7692307692308,53.871818383534745L272.3076923076923,53.871818383534745L273.84615384615387,53.871818383534745L275.38461538461536,53.871818383534745L276.9230769230769,53.871818383534745L278.46153846153845,53.871818383534745L280,53.871818383534745L281.53846153846155,53.871818383534745L283.0769230769231,53.871818383534745L284.61538461538464,53.871818383534745L286.15384615384613,53.871818383534745L287.6923076923077,53.871818383534745L289.2307692307692,53.871818383534745L290.7692307692308,53.871818383534745L292.30769230769226,53.871818383534745L293.84615384615387,53.871818383534745L295.3846153846154,53.871818383534745L296.9230769230769,53.871818383534745L298.46153846153845,53.871818383534745L300,53.871818383534745L301.53846153846155,53.871818383534745L303.0769230769231,53.871818383534745L304.6153846153846,53.871818383534745L306.15384615384613,53.871818383534745L307.69230769230774,53.871818383534745L309.2307692307692,53.871818383534745L310.7692307692308,53.871818383534745L312.3076923076923,53.871818383534745L313.84615384615387,53.871818383534745L315.38461538461536,53.871818383534745L316.9230769230769,53.871818383534745L318.46153846153845,53.871818383534745L320,53.871818383534745L321.53846153846155,53.871818383534745L323.0769230769231,54.824876785278335L324.61538461538464,54.11007801691693L326.15384615384613,41.24373992284141L327.6923076923077,43.388136227925614L329.2307692307692,43.864655494689956L330.7692307692308,40.767220656077065L332.3076923076923,39.33762311935426L333.84615384615387,39.33762311935426L335.3846153846154,39.33762311935426L336.9230769230769,39.33762311935426L338.46153846153845,39.81416225433351L340,44.10293499628705L341.53846153846155,44.341194629669204L343.07692307692304,42.43507782618205L344.61538461538464,40.29068152109782L346.1538461538462,39.57588275273641L347.6923076923077,42.19679832458496L349.2307692307692,41.720279057820655L350.7692307692308,41.958538691202804L352.3076923076923,41.00548028945925L353.8461538461538,37.43150631586711L355.38461538461536,36.00190877914431L356.92307692307696,41.720279057820655L358.46153846153845,38.38456471761067L360,39.57588275273641L361.53846153846155,39.099363485972106L363.0769230769231,35.76364914576212L364.6153846153846,37.66976594924927L366.15384615384613,35.52536964416506L367.6923076923077,46.723850568135596L369.2307692307692,48.391707738240555L370.7692307692308,50.2978245417277L372.3076923076923,49.10650650660199L373.84615384615387,48.1534481048584L375.38461538461536,48.1534481048584L376.9230769230769,37.908025582631424L378.46153846153845,40.52894115448L380,40.52894115448L381.53846153846155,40.52894115448L383.0769230769231,40.52894115448" stroke="#f58518" stroke-width="2"/></g></g><path class="foreground" aria-hidden="true" d="" display="none"/></g><g transform="translate(0,0)"><path class="background" aria-hidden="true" d="M0,0h400v300h-400Z"/><g><g class="mark-line role-mark marks" role="graphics-object" aria-roledescription="line mark container"><path aria-label="Typ: Test; Anzahl Epochen: 1; Genauigkeit: 0.431192666292" role="graphics-symbol" aria-roledescription="line mark" d="M1.5384615384615385,12.538222471872961L3.076923076923077,24.7706453005473L4.615384615384616,19.766477743784595L6.153846153846154,42.00723568598431L7.6923076923076925,23.102589448293042L9.230769230769232,59.24380620320638L10.76923076923077,31.998880704243994L12.307692307692308,39.78314797083539L13.846153846153847,25.32665729522706L15.384615384615385,23.102589448293042L16.923076923076923,48.12342723210654L18.461538461538463,70.36418517430623L20,52.57158279418945L21.53846153846154,38.11509211858113L23.076923076923077,37.00304826100667L24.615384615384617,58.687794208526626L26.153846153846157,107.06143379211427L27.692307692307693,79.81650829315184L29.230769230769234,72.58827288945515L30.76923076923077,72.03224102656048L32.30769230769231,67.58410533269247L33.84615384615385,74.81234073638917L35.38461538461539,80.37254015604654L36.92307692307693,95.38504282633463L38.46153846153847,83.15261999766032L40,81.4845641454061L41.53846153846154,62.02390591303507L43.07692307692308,61.46789391835531L44.61538461538462,43.67529153823854L46.15384615384615,69.80817317962646L47.69230769230769,57.0197383562724L49.23076923076923,67.58410533269247L50.76923076923077,97.05309867858885L52.307692307692314,84.26466385523479L53.84615384615385,52.01557079950969L55.38461538461539,58.13178221384686L56.92307692307692,51.45955880482993L58.46153846153847,53.12761465708415L60,53.12761465708415L61.53846153846154,120.9619124730428L63.07692307692307,70.92021703720093L64.61538461538461,49.235471089681006L66.15384615384615,54.79567050933838L67.6923076923077,57.0197383562724L69.23076923076923,50.903526941935226L70.76923076923077,60.91186205546061L72.3076923076923,39.78314797083539L73.84615384615385,35.89102427164714L75.38461538461539,38.11509211858113L76.92307692307693,63.135949770609535L78.46153846153847,54.23963864644368L80,56.463726361592606L81.53846153846153,62.579917907714865L83.07692307692308,54.23963864644368L84.61538461538461,55.907694498697936L86.15384615384616,48.67945909500124L87.6923076923077,60.91186205546061L89.23076923076924,70.36418517430623L90.76923076923077,61.46789391835531L92.3076923076923,64.24799362818399L93.84615384615384,65.91604948043826L95.38461538461539,78.14845244089761L96.92307692307692,80.37254015604654L98.46153846153847,75.36835273106894L100,72.03224102656048L101.53846153846153,73.14428488413495L103.07692307692307,63.135949770609535L104.61538461538463,55.35168250401814L106.15384615384616,54.23963864644368L107.6923076923077,48.67945909500124L109.23076923076923,47.01140324274699L110.76923076923077,42.00723568598431L112.3076923076923,31.998880704243994L113.84615384615384,30.886856714884438L115.38461538461537,28.106757005055748L116.92307692307693,25.32665729522706L118.46153846153847,34.22296841939292L120,31.44286870956423L121.53846153846153,37.55908012390137L123.07692307692308,33.11092456181846L124.61538461538461,43.119259675343834L126.15384615384615,43.119259675343834L127.69230769230768,43.119259675343834L129.23076923076923,42.56324768066408L130.76923076923077,47.56741523742678L132.3076923076923,40.33917983373006L133.84615384615384,44.78731552759806L135.3846153846154,38.67112398147583L136.92307692307693,39.227135976155594L138.46153846153845,42.00723568598431L140,45.34334739049276L141.53846153846155,44.2313035329183L143.07692307692307,44.2313035329183L144.6153846153846,39.227135976155594L146.15384615384613,43.67529153823854L147.6923076923077,45.34334739049276L149.23076923076923,45.34334739049276L150.76923076923077,45.34334739049276L152.3076923076923,45.34334739049276L153.84615384615387,45.34334739049276L155.3846153846154,41.451203823089614L156.92307692307693,43.67529153823854L158.46153846153845,34.22296841939292L160,36.447036266326904L161.53846153846155,31.44286870956423L163.07692307692307,24.7706453005473L164.6153846153846,23.658601442972838L166.15384615384616,24.7706453005473L167.6923076923077,24.7706453005473L169.23076923076923,24.7706453005473L170.76923076923077,24.7706453005473L172.30769230769232,24.7706453005473L173.84615384615384,24.7706453005473L175.3846153846154,24.7706453005473L176.9230769230769,24.7706453005473L178.46153846153848,24.7706453005473L180,24.7706453005473L181.53846153846155,24.7706453005473L183.07692307692307,24.7706453005473L184.6153846153846,24.7706453005473L186.15384615384616,24.7706453005473L187.69230769230768,24.7706453005473L189.23076923076923,24.7706453005473L190.76923076923077,24.7706453005473L192.30769230769232,24.7706453005473L193.84615384615384,24.7706453005473L195.3846153846154,24.7706453005473L196.92307692307693,24.7706453005473L198.46153846153845,24.7706453005473L200,24.7706453005473L201.53846153846155,24.7706453005473L203.07692307692307,24.7706453005473L204.61538461538458,24.7706453005473L206.15384615384613,24.7706453005473L207.6923076923077,24.7706453005473L209.23076923076925,24.7706453005473L210.76923076923077,24.7706453005473L212.30769230769232,24.7706453005473L213.84615384615384,24.7706453005473L215.3846153846154,24.7706453005473L216.9230769230769,24.7706453005473L218.46153846153845,24.7706453005473L220.00000000000003,25.882689158121764L221.53846153846155,23.102589448293042L223.0769230769231,30.330824851989767L224.6153846153846,33.11092456181846L226.15384615384616,31.44286870956423L227.69230769230768,32.55491256713869L229.23076923076923,33.11092456181846L230.76923076923075,28.662768999735512L232.30769230769232,37.55908012390137L233.84615384615387,47.56741523742678L235.3846153846154,45.34334739049276L236.92307692307693,45.34334739049276L238.46153846153845,45.34334739049276L240,45.34334739049276L241.53846153846152,45.34334739049276L243.07692307692307,45.34334739049276L244.61538461538464,45.34334739049276L246.15384615384616,45.34334739049276L247.6923076923077,45.34334739049276L249.23076923076923,45.34334739049276L250.76923076923077,45.34334739049276L252.3076923076923,45.34334739049276L253.84615384615384,45.34334739049276L255.38461538461536,45.34334739049276L256.92307692307696,45.34334739049276L258.46153846153845,45.34334739049276L260,45.34334739049276L261.53846153846155,45.34334739049276L263.0769230769231,45.34334739049276L264.6153846153846,45.34334739049276L266.15384615384613,45.34334739049276L267.6923076923077,45.34334739049276L269.2307692307692,45.34334739049276L270.7692307692308,45.34334739049276L272.3076923076923,45.34334739049276L273.84615384615387,45.34334739049276L275.38461538461536,45.34334739049276L276.9230769230769,45.34334739049276L278.46153846153845,45.34334739049276L280,45.34334739049276L281.53846153846155,45.34334739049276L283.0769230769231,45.34334739049276L284.61538461538464,45.34334739049276L286.15384615384613,45.34334739049276L287.6923076923077,45.34334739049276L289.2307692307692,45.34334739049276L290.7692307692308,45.34334739049276L292.30769230769226,45.34334739049276L293.84615384615387,45.34334739049276L295.3846153846154,45.34334739049276L296.9230769230769,45.34334739049276L298.46153846153845,45.34334739049276L300,45.34334739049276L301.53846153846155,45.34334739049276L303.0769230769231,45.34334739049276L304.6153846153846,45.34334739049276L306.15384615384613,45.34334739049276L307.69230769230774,45.34334739049276L309.2307692307692,45.34334739049276L310.7692307692308,45.34334739049276L312.3076923076923,45.34334739049276L313.84615384615387,45.34334739049276L315.38461538461536,45.34334739049276L316.9230769230769,45.34334739049276L318.46153846153845,45.34334739049276L320,45.34334739049276L321.53846153846155,45.34334739049276L323.0769230769231,52.01557079950969L324.61538461538464,39.227135976155594L326.15384615384613,28.106757005055748L327.6923076923077,32.55491256713869L329.2307692307692,32.55491256713869L330.7692307692308,26.994713147481285L332.3076923076923,28.106757005055748L333.84615384615387,28.106757005055748L335.3846153846154,28.106757005055748L336.9230769230769,27.550745010375987L338.46153846153845,24.7706453005473L340,28.106757005055748L341.53846153846155,26.994713147481285L343.07692307692304,26.994713147481285L344.61538461538464,26.994713147481285L346.1538461538462,25.882689158121764L347.6923076923077,28.662768999735512L349.2307692307692,31.44286870956423L350.7692307692308,29.774812857309975L352.3076923076923,29.774812857309975L353.8461538461538,26.994713147481285L355.38461538461536,22.546557585398375L356.92307692307696,25.882689158121764L358.46153846153845,25.882689158121764L360,26.994713147481285L361.53846153846155,21.99054559071858L363.0769230769231,24.2146134376526L364.6153846153846,25.32665729522706L366.15384615384613,25.882689158121764L367.6923076923077,40.89519182840985L369.2307692307692,34.22296841939292L370.7692307692308,35.89102427164714L372.3076923076923,35.89102427164714L373.84615384615387,34.77898041407268L375.38461538461536,25.882689158121764L376.9230769230769,31.44286870956423L378.46153846153845,31.44286870956423L380,31.44286870956423L381.53846153846155,31.44286870956423L383.0769230769231,31.44286870956423" stroke="#4c78a8" stroke-width="2"/></g></g><path class="foreground" aria-hidden="true" d="" display="none"/></g></g><g class="mark-group role-legend" role="graphics-symbol" aria-roledescription="legend" aria-label="Symbol legend titled 'Typ' for stroke color with 2 values: Test, Train"><g transform="translate(418,0)"><path class="background" aria-hidden="true" d="M0,0h39v40h-39Z" pointer-events="none"/><g><g class="mark-group role-legend-entry"><g transform="translate(0,16)"><path class="background" aria-hidden="true" d="M0,0h0v0h0Z" pointer-events="none"/><g><g class="mark-group role-scope" role="graphics-object" aria-roledescription="group mark container"><g transform="translate(0,0)"><path class="background" aria-hidden="true" d="M0,0h38.412109375v11h-38.412109375Z" pointer-events="none" opacity="1"/><g><g class="mark-symbol role-legend-symbol" pointer-events="none"><path transform="translate(6,6)" d="M-5,0L5,0" stroke="#4c78a8" stroke-width="1.5" opacity="1"/></g><g class="mark-text role-legend-label" pointer-events="none"><text text-anchor="start" transform="translate(16,9)" font-family="sans-serif" font-size="10px" fill="#000" opacity="1">Test</text></g></g><path class="foreground" aria-hidden="true" d="" pointer-events="none" display="none"/></g><g transform="translate(0,13)"><path class="background" aria-hidden="true" d="M0,0h38.412109375v11h-38.412109375Z" pointer-events="none" opacity="1"/><g><g class="mark-symbol role-legend-symbol" pointer-events="none"><path transform="translate(6,6)" d="M-5,0L5,0" stroke="#f58518" stroke-width="1.5" opacity="1"/></g><g class="mark-text role-legend-label" pointer-events="none"><text text-anchor="start" transform="translate(16,9)" font-family="sans-serif" font-size="10px" fill="#000" opacity="1">Train</text></g></g><path class="foreground" aria-hidden="true" d="" pointer-events="none" display="none"/></g></g></g><path class="foreground" aria-hidden="true" d="" pointer-events="none" display="none"/></g></g><g class="mark-text role-legend-title" pointer-events="none"><text text-anchor="start" transform="translate(0,9)" font-family="sans-serif" font-size="11px" font-weight="bold" fill="#000" opacity="1">Typ</text></g></g><path class="foreground" aria-hidden="true" d="" pointer-events="none" display="none"/></g></g></g><path class="foreground" aria-hidden="true" d="" display="none"/></g></g></g></svg>