<svg xmlns="http://www.w3.org/2000/svg" xmlns:xlink="http://www.w3.org/1999/xlink" version="1.1" class="marks" width="509" height="347" viewBox="0 0 509 347"><rect width="509" height="347" fill="white"/><g fill="none" stroke-miterlimit="10" transform="translate(47,10)"><g class="mark-group role-frame root" role="graphics-object" aria-roledescription="group mark container"><g transform="translate(0,0)"><path class="background" aria-hidden="true" d="M0.5,0.5h400v300h-400Z" stroke="#ddd"/><g><g class="mark-group role-axis" aria-hidden="true"><g transform="translate(0.5,300.5)"><path class="background" aria-hidden="true" d="M0,0h0v0h0Z" pointer-events="none"/><g><g class="mark-rule role-axis-grid" pointer-events="none"><line transform="translate(0,-300)" x2="0" y2="300" stroke="#ddd" stroke-width="1" opacity="1"/><line transform="translate(40,-300)" x2="0" y2="300" stroke="#ddd" stroke-width="1" opacity="1"/><line transform="translate(80,-300)" x2="0" y2="300" stroke="#ddd" stroke-width="1" opacity="1"/><line transform="translate(120,-300)" x2="0" y2="300" stroke="#ddd" stroke-width="1" opacity="1"/><line transform="translate(160,-300)" x2="0" y2="300" stroke="#ddd" stroke-width="1" opacity="1"/><line transform="translate(200,-300)" x2="0" y2="300" stroke="#ddd" stroke-width="1" opacity="1"/><line transform="translate(240,-300)" x2="0" y2="300" stroke="#ddd" stroke-width="1" opacity="1"/><line transform="translate(280,-300)" x2="0" y2="300" stroke="#ddd" stroke-width="1" opacity="1"/><line transform="translate(320,-300)" x2="0" y2="300" stroke="#ddd" stroke-width="1" opacity="1"/><line transform="translate(360,-300)" x2="0" y2="300" stroke="#ddd" stroke-width="1" opacity="1"/><line transform="translate(400,-300)" x2="0" y2="300" stroke="#ddd" stroke-width="1" opacity="1"/></g></g><path class="foreground" aria-hidden="true" d="" pointer-events="none" display="none"/></g></g><g class="mark-group role-axis" aria-hidden="true"><g transform="translate(0.5,0.5)"><path class="background" aria-hidden="true" d="M0,0h0v0h0Z" pointer-events="none"/><g><g class="mark-rule role-axis-grid" pointer-events="none"><line transform="translate(0,300)" x2="400" y2="0" stroke="#ddd" stroke-width="1" opacity="1"/><line transform="translate(0,267)" x2="400" y2="0" stroke="#ddd" stroke-width="1" opacity="1"/><line transform="translate(0,233)" x2="400" y2="0" stroke="#ddd" stroke-width="1" opacity="1"/><line transform="translate(0,200)" x2="400" y2="0" stroke="#ddd" stroke-width="1" opacity="1"/><line transform="translate(0,167)" x2="400" y2="0" stroke="#ddd" stroke-width="1" opacity="1"/><line transform="translate(0,133)" x2="400" y2="0" stroke="#ddd" stroke-width="1" opacity="1"/><line transform="translate(0,100)" x2="400" y2="0" stroke="#ddd" stroke-width="1" opacity="1"/><line transform="translate(0,67)" x2="400" y2="0" stroke="#ddd" stroke-width="1" opacity="1"/><line transform="translate(0,33)" x2="400" y2="0" stroke="#ddd" stroke-width="1" opacity="1"/><line transform="translate(0,0)" x2="400" y2="0" stroke="#ddd" stroke-width="1" opacity="1"/></g></g><path class="foreground" aria-hidden="true" d="" pointer-events="none" display="none"/></g></g><g class="mark-group role-axis" role="graphics-symbol" aria-roledescription="axis" aria-label="X-axis titled 'Anzahl Epochen' for a linear scale with values from 0 to 200"><g transform="translate(0.5,300.5)"><path class="background" aria-hidden="true" d="M0,0h0v0h0Z" pointer-events="none"/><g><g class="mark-rule role-axis-tick" pointer-events="none"><line transform="translate(0,0)" x2="0" y2="5" stroke="#888" stroke-width="1" opacity="1"/><line transform="translate(40,0)" x2="0" y2="5" stroke="#888" stroke-width="1" opacity="1"/><line transform="translate(80,0)" x2="0" y2="5" stroke="#888" stroke-width="1" opacity="1"/><line transform="translate(120,0)" x2="0" y2="5" stroke="#888" stroke-width="1" opacity="1"/><line transform="translate(160,0)" x2="0" y2="5" stroke="#888" stroke-width="1" opacity="1"/><line transform="translate(200,0)" x2="0" y2="5" stroke="#888" stroke-width="1" opacity="1"/><line transform="translate(240,0)" x2="0" y2="5" stroke="#888" stroke-width="1" opacity="1"/><line transform="translate(280,0)" x2="0" y2="5" stroke="#888" stroke-width="1" opacity="1"/><line transform="translate(320,0)" x2="0" y2="5" stroke="#888" stroke-width="1" opacity="1"/><line transform="translate(360,0)" x2="0" y2="5" stroke="#888" stroke-width="1" opacity="1"/><line transform="translate(400,0)" x2="0" y2="5" stroke="#888" stroke-width="1" opacity="1"/></g><g class="mark-text role-axis-label" pointer-events="none"><text text-anchor="start" transform="translate(0,15)" font-family="sans-serif" font-size="10px" fill="#000" opacity="1">0</text><text text-anchor="middle" transform="translate(40,15)" font-family="sans-serif" font-size="10px" fill="#000" opacity="1">20</text><text text-anchor="middle" transform="translate(80,15)" font-family="sans-serif" font-size="10px" fill="#000" opacity="1">40</text><text text-anchor="middle" transform="translate(120,15)" font-family="sans-serif" font-size="10px" fill="#000" opacity="1">60</text><text text-anchor="middle" transform="translate(160,15)" font-family="sans-serif" font-size="10px" fill="#000" opacity="1">80</text><text text-anchor="middle" transform="translate(200,15)" font-family="sans-serif" font-size="10px" fill="#000" opacity="1">100</text><text text-anchor="middle" transform="translate(240,15)" font-family="sans-serif" font-size="10px" fill="#000" opacity="1">120</text><text text-anchor="middle" transform="translate(280,15)" font-family="sans-serif" font-size="10px" fill="#000" opacity="1">140</text><text text-anchor="middle" transform="translate(320,15)" font-family="sans-serif" font-size="10px" fill="#000" opacity="1">160</text><text text-anchor="middle" transform="translate(360,15)" font-family="sans-serif" font-size="10px" fill="#000" opacity="1">180</text><text text-anchor="end" transform="translate(400,15)" font-family="sans-serif" font-size="10px" fill="#000" opacity="1">200</text></g><g class="mark-rule role-axis-domain" pointer-events="none"><line transform="translate(0,0)" x2="400" y2="0" stroke="#888" stroke-width="1" opacity="1"/></g><g class="mark-text role-axis-title" pointer-events="none"><text text-anchor="middle" transform="translate(200,30)" font-family="sans-serif" font-size="11px" font-weight="bold" fill="#000" opacity="1">Anzahl Epochen</text></g></g><path class="foreground" aria-hidden="true" d="" pointer-events="none" display="none"/></g></g><g class="mark-group role-axis" role="graphics-symbol" aria-roledescription="axis" aria-label="Y-axis titled 'Mittlerer Fehler' for a linear scale with values from 0.00 to 0.09"><g transform="translate(0.5,0.5)"><path class="background" aria-hidden="true" d="M0,0h0v0h0Z" pointer-events="none"/><g><g class="mark-rule role-axis-tick" pointer-events="none"><line transform="translate(0,300)" x2="-5" y2="0" stroke="#888" stroke-width="1" opacity="1"/><line transform="translate(0,267)" x2="-5" y2="0" stroke="#888" stroke-width="1" opacity="1"/><line transform="translate(0,233)" x2="-5" y2="0" stroke="#888" stroke-width="1" opacity="1"/><line transform="translate(0,200)" x2="-5" y2="0" stroke="#888" stroke-width="1" opacity="1"/><line transform="translate(0,167)" x2="-5" y2="0" stroke="#888" stroke-width="1" opacity="1"/><line transform="translate(0,133)" x2="-5" y2="0" stroke="#888" stroke-width="1" opacity="1"/><line transform="translate(0,100)" x2="-5" y2="0" stroke="#888" stroke-width="1" opacity="1"/><line transform="translate(0,67)" x2="-5" y2="0" stroke="#888" stroke-width="1" opacity="1"/><line transform="translate(0,33)" x2="-5" y2="0" stroke="#888" stroke-width="1" opacity="1"/><line transform="translate(0,0)" x2="-5" y2="0" stroke="#888" stroke-width="1" opacity="1"/></g><g class="mark-text role-axis-label" pointer-events="none"><text text-anchor="end" transform="translate(-7,303)" font-family="sans-serif" font-size="10px" fill="#000" opacity="1">0.00</text><text text-anchor="end" transform="translate(-7,269.66666666666663)" font-family="sans-serif" font-size="10px" fill="#000" opacity="1">0.01</text><text text-anchor="end" transform="translate(-7,236.33333333333334)" font-family="sans-serif" font-size="10px" fill="#000" opacity="1">0.02</text><text text-anchor="end" transform="translate(-7,203.00000000000003)" font-family="sans-serif" font-size="10px" fill="#000" opacity="1">0.03</text><text text-anchor="end" transform="translate(-7,169.66666666666669)" font-family="sans-serif" font-size="10px" fill="#000" opacity="1">0.04</text><text text-anchor="end" transform="translate(-7,136.33333333333331)" font-family="sans-serif" font-size="10px" fill="#000" opacity="1">0.05</text><text text-anchor="end" transform="translate(-7,103.00000000000001)" font-family="sans-serif" font-size="10px" fill="#000" opacity="1">0.06</text><text text-anchor="end" transform="translate(-7,69.66666666666663)" font-family="sans-serif" font-size="10px" fill="#000" opacity="1">0.07</text><text text-anchor="end" transform="translate(-7,36.333333333333314)" font-family="sans-serif" font-size="10px" fill="#000" opacity="1">0.08</text><text text-anchor="end" transform="translate(-7,3)" font-family="sans-serif" font-size="10px" fill="#000" opacity="1">0.09</text></g><g class="mark-rule role-axis-domain" pointer-events="none"><line transform="translate(0,300)" x2="0" y2="-300" stroke="#888" stroke-width="1" opacity="1"/></g><g class="mark-text role-axis-title" pointer-events="none"><text text-anchor="middle" transform="translate(-30.462890625,150) rotate(-90) translate(0,-2)" font-family="sans-serif" font-size="11px" font-weight="bold" fill="#000" opacity="1">Mittlerer Fehler</text></g></g><path class="foreground" aria-hidden="true" d="" pointer-events="none" display="none"/></g></g><g class="mark-group role-scope pathgroup" role="graphics-object" aria-roledescription="group mark container"><g transform="translate(0,0)"><path class="background" aria-hidden="true" d="M0,0h400v300h-400Z"/><g><g class="mark-line role-mark marks" role="graphics-object" aria-roledescription="line mark container"><path aria-label="Typ: Train; Anzahl Epochen: 0; Mittlerer Fehler: 0.0869034317491" role="graphics-symbol" aria-roledescription="line mark" d="M0,10.321894169531088L2,10.839992445526658L4,13.379186436985469L6,16.513197812618653L8,21.546404938580434L10,30.996016384751513L12,50.18310501719966L14.000000000000002,67.07509521282077L16,76.79386424521604L18,84.73266163332896L20,88.15833163080795L22,90.3474145145579L24,91.6520933027972L26,92.96645206032377L28.000000000000004,93.44310831617226L30,94.75483100748424L32,95.47541870763807L34,95.33869138156824L36,96.5646856887774L38,96.85400739650832L40,98.63723824647339L42,98.51478555550179L44,98.7461702503038L46,99.72105628500381L48,100.42778040197761L50,100.88442662787257L52,101.57582272747248L54,101.74760136640434L56.00000000000001,102.26902319400601L57.99999999999999,102.85440755048485L60,102.79310140758751L62,103.46995942068821L64,104.00710239667785L66,104.39127239426878L68,104.380656728013L70,105.24021595942251L72,105.4925434178475L74,105.48807744388327L76,106.09853046410011L78,105.70256540721111L80,106.92937934884064L82,106.72484538941221L84,107.30159532730326L86,107.99724474887954L88,107.82259001650591L90,108.20406277692226L92,108.82595702441353L94,109.43410318683495L96,109.38097673722288L98,110.20539815565853L100,110.31132636196686L102,110.61251608259751L104,111.40179093927144L106,111.49275194514881L108,112.2935238378969L110.00000000000001,112.3813091749043L112.00000000000001,113.00755432157807L113.99999999999999,113.08375118356764L115.99999999999999,113.65999312732707L118,114.44555362968735L120,114.82737514218597L122,114.96991251002656L124,115.41878600237945L126,115.9706876189871L128,115.93438791054666L130,116.25681404363023L132,117.47399599319606L134,117.12096356645678L136,117.42139623472187L138,117.36124267406535L140,118.54550342893964L142,118.49356766112827L144,118.5831965229502L146,118.60512543018118L148,119.13805311319953L150,119.3213703449477L152,119.70347534639365L154,119.94941809468648L156,119.72802656166479L158,120.41816354136573L160,120.76316479254852L162,120.2419769950211L164,120.52449983629313L166,121.43593239456867L168,121.21532345472865L170,121.63592792031437L172,121.62771605406748L174,121.73765628513962L176,121.71396795434481L178,121.4306899656852L180,122.36308334959726L182,122.02071541299424L184,122.39708473736587L186,122.23518573763693L188,122.54667108822049L190,123.00103924265412L192,123.0822313802712L194,123.3620113354515L196,122.938936960065L198,122.85140152794845L200,123.70534156816022L202,123.5505229483048L204,123.40671418404038L206,123.49951102426556L208,123.80130582235077L210,123.7269926308231L212,124.00002593005243L214,123.48989779976282L216,124.212763289159L218.00000000000003,123.98122280948989L220.00000000000003,124.50058443866894L222.00000000000003,124.43280348723584L224.00000000000003,124.1689664339929L225.99999999999997,124.86148110844873L227.99999999999997,124.62221022808188L229.99999999999997,125.06940148375702L231.99999999999997,125.04122128540818L234,124.11648499581847L236,125.16494932386911L238,125.00293856543121L240,124.88927403182693L242,125.18977570262822L244,125.21205385582465L246,125.57474635541439L248,125.07756149226967L250,125.77082298865373L252,125.51770157773386L254,125.96586020945598L256,125.7955246266316L258,126.02575412866742L260,125.78533094827876L262,126.30317713218655L264,126.31345152516256L266,125.61728013961604L268,126.19990707572661L270,126.42557161549726L272,126.48634676341757L274,126.88794265303646L276,126.44852067372112L278,125.85643277023777L280,126.48472583880928L282,126.60870025442405L284,126.9873396070166L286,127.26864686066452L288,126.93826236451665L290,127.04692872974907L292,126.67318502949043L294,127.07175045189533L296,126.74232105526958L298,127.29689881318446L300,127.4194921197539L302,127.70557529434109L304,127.30968333216327L306,127.31478662709846L308,127.37393499436705L310,127.63801828365435L312,127.4971695729729L314,127.40743911232461L316,127.4159918285229L318,128.05515202044538L320,128.0577312195391L322,127.75782503074768L324,127.78822932618135L326,128.26412105086175L328,127.59613459083165L330,127.91246507655488L332,128.2787769637776L334,128.12993249601936L336,128.51951446553522L338,128.29961714080787L340,128.5560599866916L342,127.92865470841977L344,128.52818289150792L346,128.51304706524718L348,128.56792059134352L350,128.71965611014855L352,128.68411394795686L354,129.05910103440735L356,129.11634992695215L358,128.85909478434107L360,128.1917385898079L362,128.67263074061185L364,128.7883841178634L366,128.83071731493777L368,128.9950249829527L370,129.2969275886814L372,128.88283970003778L374,129.07781730208433L376,129.0797716683962L378,129.03525529598647L380,129.37847482830736L382,129.48477958526576L384,129.73506843501872L386,129.4028007622921L388,129.38609791524482L390,129.99982509874937L392,129.61257736226827L394,129.64207347708216L396,129.2820540849458L398,129.71434989436105" stroke="#f58518" stroke-width="2"/></g></g><path class="foreground" aria-hidden="true" d="" display="none"/></g><g transform="translate(0,0)"><path class="background" aria-hidden="true" d="M0,0h400v300h-400Z"/><g><g class="mark-line role-mark marks" role="graphics-object" aria-roledescription="line mark container"><path aria-label="Typ: Test; Anzahl Epochen: 0; Mittlerer Fehler: 0.085614805649" role="graphics-symbol" aria-roledescription="line mark" d="M0,14.61731450338114L2,15.625094413234441L4,18.58495225509006L6,24.061647593452186L8,28.076150477455375L10,43.7621398191703L12,64.48925375415567L14.000000000000002,74.64932556215086L16,83.76609812441626L18,87.9252942246303L20,90.3255226188584L22,92.08532001888541L24,93.22411283327821L26,93.58221453271412L28.000000000000004,93.99499140287699L30,94.81525653809831L32,96.52357500111847L34,96.92737326810236L36,96.27498572594241L38,97.34430187626887L40,97.09157752886154L42,98.2876126964887L44,98.9034254038543L46,100.20964060697638L48,100.39754555675019L50,100.91782319441177L52,101.28732722317963L54,102.18885139676561L56.00000000000001,101.87283142616873L57.99999999999999,102.268499737246L60,102.30926683074551L62,103.13460162857122L64,102.98843104065507L66,103.10910332359764L68,103.88155468461807L70,102.63578068268924L72,105.14261087304668L74,103.05576500924009L76,104.90967762051966L78,105.19753799103853L80,104.22057113365122L82,106.23774459226088L84,105.97353720089843L86,106.73457806309062L88,107.0796932044782L90,107.2375520540957L92,106.3296537127411L94,107.09877878166081L96,108.97158024865283L98,106.80887897809346L100,107.80309196888355L102,108.68295423294366L104,109.65961849218921L106,108.59695002436638L108,109.34644412053257L110.00000000000001,111.15166947507021L112.00000000000001,111.05257250499308L113.99999999999999,110.39158836529965L115.99999999999999,110.44955976438104L118,111.53811083028191L120,112.2591754062134L122,112.57855957537365L124,111.24378969533402L126,113.3430848911143L128,113.14811790198608L130,113.53523961284705L132,113.08288676174062L134,113.75445399368017L136,114.77201965294387L138,114.62600232477772L140,115.42461829488737L142,115.22758736422188L144,114.68575892218372L146,115.05313332666431L148,115.43398609286862L150,115.90524021732179L152,116.37412747531607L154,116.16382568813208L156,116.30847348194372L158,116.19662588887046L160,116.46313936563958L162,116.08089288337187L164,115.02563153442584L166,116.17665032676437L168,115.92973922951178L170,115.42372978047318L172,116.63986027502176L174,117.87083507107016L176,117.36976391913598L178,116.6846833600287L180,114.32634291418812L182,115.3598635996643L184,117.89892637415937L186,117.29710801390178L188,117.76462835178039L190,117.21354158301104L192,117.28057197311468L194,117.09709227607962L196,117.67248460336734L198,116.96171163205517L200,116.69653125368711L202,117.39119838988572L204,117.31853447854517L206,117.35728386985626L208,117.55416186755163L210,118.15127819253686L212,117.73328052408864L214,117.95404498514377L216,117.74953569759403L218.00000000000003,118.47063916032774L220.00000000000003,118.4768999354881L222.00000000000003,118.70119541622046L224.00000000000003,118.35593518457912L225.99999999999997,118.22794335975982L227.99999999999997,116.97943911217806L229.99999999999997,118.27538068357266L231.99999999999997,118.3582360415082L234,118.07030933467962L236,118.88083512322943L238,117.89548930368923L240,118.75745285498466L242,117.25783920601793L244,117.6811802151956L246,117.64009451134162L248,118.32081402995084L250,117.68504569405L252,117.58288205846358L254,119.45953184836787L256,120.08596097952442L258,119.65450994801103L260,118.39762869895549L262,118.47963214182016L264,119.88582956163503L266,117.70569523959828L268,119.2747041844485L270,118.109655916168L272,119.44174031939423L274,118.3433626566017L276,119.86604206133305L278,120.30673965550307L280,119.31072185959731L282,119.3612132678952L284,118.53157837401356L286,119.03251227841042L288,119.12626214978985L290,118.50302598455497L292,118.25768849567362L294,118.79297676577902L296,118.76129709314883L298,118.60023906879256L300,118.9238553637998L302,119.87499615602324L304,119.95634015714913L306,118.69278148862351L308,119.02581165757097L310,119.25445232997859L312,120.15959297617275L314,118.05524053542237L316,119.17217667949828L318,118.52391930787185L320,119.61835273786595L322,119.23481906976616L324,119.88182193354555L326,119.51877246038957L328,119.75844456699856L330,119.7853467182109L332,119.69158802377548L334,118.94684040494134L336,119.45013496697993L338,119.6744873074063L340,119.80523061856887L342,119.75360561096876L344,119.83744522981475L346,120.21908455511978L348,119.83049070103127L350,119.86925169302704L352,119.15599486806936L354,120.38005500247604L356,118.28031767355769L358,120.33996597716681L360,119.37542557716368L362,119.19503460327783L364,118.85865951577821L366,119.94342712456718L368,120.02117752767447L370,119.78496373222585L372,119.32049943951137L374,120.19915751982153L376,120.06450608503401L378,118.73773463201105L380,120.30982380373436L382,120.37741396772235L384,120.14171174613007L386,120.02879672667436L388,120.62041073253279L390,118.977198906635L392,119.83852719790058L394,120.24248918158966L396,120.38573966475954L398,120.67788248522237" stroke="#4c78a8" stroke-width="2"/></g></g><path class="foreground" aria-hidden="true" d="" display="none"/></g></g><g class="mark-group role-legend" role="graphics-symbol" aria-roledescription="legend" aria-label="Symbol legend titled 'Typ' for stroke color with 2 values: Test, Train"><g transform="translate(418,0)"><path class="background" aria-hidden="true" d="M0,0h39v40h-39Z" pointer-events="none"/><g><g class="mark-group role-legend-entry"><g transform="translate(0,16)"><path class="background" aria-hidden="true" d="M0,0h0v0h0Z" pointer-events="none"/><g><g class="mark-group role-scope" role="graphics-object" aria-roledescription="group mark container"><g transform="translate(0,0)"><path class="background" aria-hidden="true" d="M0,0h38.412109375v11h-38.412109375Z" pointer-events="none" opacity="1"/><g><g class="mark-symbol role-legend-symbol" pointer-events="none"><path transform="translate(6,6)" d="M-5,0L5,0" stroke="#4c78a8" stroke-width="1.5" opacity="1"/></g><g class="mark-text role-legend-label" pointer-events="none"><text text-anchor="start" transform="translate(16,9)" font-family="sans-serif" font-size="10px" fill="#000" opacity="1">Test</text></g></g><path class="foreground" aria-hidden="true" d="" pointer-events="none" display="none"/></g><g transform="translate(0,13)"><path class="background" aria-hidden="true" d="M0,0h38.412109375v11h-38.412109375Z" pointer-events="none" opacity="1"/><g><g class="mark-symbol role-legend-symbol" pointer-events="none"><path transform="translate(6,6)" d="M-5,0L5,0" stroke="#f58518" stroke-width="1.5" opacity="1"/></g><g class="mark-text role-legend-label" pointer-events="none"><text text-anchor="start" transform="translate(16,9)" font-family="sans-serif" font-size="10px" fill="#000" opacity="1">Train</text></g></g><path class="foreground" aria-hidden="true" d="" pointer-events="none" display="none"/></g></g></g><path class="foreground" aria-hidden="true" d="" pointer-events="none" display="none"/></g></g><g class="mark-text role-legend-title" pointer-events="none"><text text-anchor="start" transform="translate(0,9)" font-family="sans-serif" font-size="11px" font-weight="bold" fill="#000" opacity="1">Typ</text></g></g><path class="foreground" aria-hidden="true" d="" pointer-events="none" display="none"/></g></g></g><path class="foreground" aria-hidden="true" d="" display="none"/></g></g></g></svg>