<svg xmlns="http://www.w3.org/2000/svg" xmlns:xlink="http://www.w3.org/1999/xlink" version="1.1" class="marks" width="509" height="347" viewBox="0 0 509 347"><rect width="509" height="347" fill="white"/><g fill="none" stroke-miterlimit="10" transform="translate(47,10)"><g class="mark-group role-frame root" role="graphics-object" aria-roledescription="group mark container"><g transform="translate(0,0)"><path class="background" aria-hidden="true" d="M0.5,0.5h400v300h-400Z" stroke="#ddd"/><g><g class="mark-group role-axis" aria-hidden="true"><g transform="translate(0.5,300.5)"><path class="background" aria-hidden="true" d="M0,0h0v0h0Z" pointer-events="none"/><g><g class="mark-rule role-axis-grid" pointer-events="none"><line transform="translate(0,-300)" x2="0" y2="300" stroke="#ddd" stroke-width="1" opacity="1"/><line transform="translate(31,-300)" x2="0" y2="300" stroke="#ddd" stroke-width="1" opacity="1"/><line transform="translate(62,-300)" x2="0" y2="300" stroke="#ddd" stroke-width="1" opacity="1"/><line transform="translate(92,-300)" x2="0" y2="300" stroke="#ddd" stroke-width="1" opacity="1"/><line transform="translate(123,-300)" x2="0" y2="300" stroke="#ddd" stroke-width="1" opacity="1"/><line transform="translate(154,-300)" x2="0" y2="300" stroke="#ddd" stroke-width="1" opacity="1"/><line transform="translate(185,-300)" x2="0" y2="300" stroke="#ddd" stroke-width="1" opacity="1"/><line transform="translate(215,-300)" x2="0" y2="300" stroke="#ddd" stroke-width="1" opacity="1"/><line transform="translate(246,-300)" x2="0" y2="300" stroke="#ddd" stroke-width="1" opacity="1"/><line transform="translate(277,-300)" x2="0" y2="300" stroke="#ddd" stroke-width="1" opacity="1"/><line transform="translate(308,-300)" x2="0" y2="300" stroke="#ddd" stroke-width="1" opacity="1"/><line transform="translate(338,-300)" x2="0" y2="300" stroke="#ddd" stroke-width="1" opacity="1"/><line transform="translate(369,-300)" x2="0" y2="300" stroke="#ddd" stroke-width="1" opacity="1"/><line transform="translate(400,-300)" x2="0" y2="300" stroke="#ddd" stroke-width="1" opacity="1"/></g></g><path class="foreground" aria-hidden="true" d="" pointer-events="none" display="none"/></g></g><g class="mark-group role-axis" aria-hidden="true"><g transform="translate(0.5,0.5)"><path class="background" aria-hidden="true" d="M0,0h0v0h0Z" pointer-events="none"/><g><g class="mark-rule role-axis-grid" pointer-events="none"><line transform="translate(0,300)" x2="400" y2="0" stroke="#ddd" stroke-width="1" opacity="1"/><line transform="translate(0,267)" x2="400" y2="0" stroke="#ddd" stroke-width="1" opacity="1"/><line transform="translate(0,233)" x2="400" y2="0" stroke="#ddd" stroke-width="1" opacity="1"/><line transform="translate(0,200)" x2="400" y2="0" stroke="#ddd" stroke-width="1" opacity="1"/><line transform="translate(0,167)" x2="400" y2="0" stroke="#ddd" stroke-width="1" opacity="1"/><line transform="translate(0,133)" x2="400" y2="0" stroke="#ddd" stroke-width="1" opacity="1"/><line transform="translate(0,100)" x2="400" y2="0" stroke="#ddd" stroke-width="1" opacity="1"/><line transform="translate(0,67)" x2="400" y2="0" stroke="#ddd" stroke-width="1" opacity="1"/><line transform="translate(0,33)" x2="400" y2="0" stroke="#ddd" stroke-width="1" opacity="1"/><line transform="translate(0,0)" x2="400" y2="0" stroke="#ddd" stroke-width="1" opacity="1"/></g></g><path class="foreground" aria-hidden="true" d="" pointer-events="none" display="none"/></g></g><g class="mark-group role-axis" role="graphics-symbol" aria-roledescription="axis" aria-label="X-axis titled 'Anzahl Epochen' for a linear scale with values from 0 to 260"><g transform="translate(0.5,300.5)"><path class="background" aria-hidden="true" d="M0,0h0v0h0Z" pointer-events="none"/><g><g class="mark-rule role-axis-tick" pointer-events="none"><line transform="translate(0,0)" x2="0" y2="5" stroke="#888" stroke-width="1" opacity="1"/><line transform="translate(31,0)" x2="0" y2="5" stroke="#888" stroke-width="1" opacity="1"/><line transform="translate(62,0)" x2="0" y2="5" stroke="#888" stroke-width="1" opacity="1"/><line transform="translate(92,0)" x2="0" y2="5" stroke="#888" stroke-width="1" opacity="1"/><line transform="translate(123,0)" x2="0" y2="5" stroke="#888" stroke-width="1" opacity="1"/><line transform="translate(154,0)" x2="0" y2="5" stroke="#888" stroke-width="1" opacity="1"/><line transform="translate(185,0)" x2="0" y2="5" stroke="#888" stroke-width="1" opacity="1"/><line transform="translate(215,0)" x2="0" y2="5" stroke="#888" stroke-width="1" opacity="1"/><line transform="translate(246,0)" x2="0" y2="5" stroke="#888" stroke-width="1" opacity="1"/><line transform="translate(277,0)" x2="0" y2="5" stroke="#888" stroke-width="1" opacity="1"/><line transform="translate(308,0)" x2="0" y2="5" stroke="#888" stroke-width="1" opacity="1"/><line transform="translate(338,0)" x2="0" y2="5" stroke="#888" stroke-width="1" opacity="1"/><line transform="translate(369,0)" x2="0" y2="5" stroke="#888" stroke-width="1" opacity="1"/><line transform="translate(400,0)" x2="0" y2="5" stroke="#888" stroke-width="1" opacity="1"/></g><g class="mark-text role-axis-label" pointer-events="none"><text text-anchor="start" transform="translate(0,15)" font-family="sans-serif" font-size="10px" fill="#000" opacity="1">0</text><text text-anchor="middle" transform="translate(30.76923076923077,15)" font-family="sans-serif" font-size="10px" fill="#000" opacity="1">20</text><text text-anchor="middle" transform="translate(61.53846153846154,15)" font-family="sans-serif" font-size="10px" fill="#000" opacity="1">40</text><text text-anchor="middle" transform="translate(92.3076923076923,15)" font-family="sans-serif" font-size="10px" fill="#000" opacity="1">60</text><text text-anchor="middle" transform="translate(123.07692307692308,15)" font-family="sans-serif" font-size="10px" fill="#000" opacity="1">80</text><text text-anchor="middle" transform="translate(153.84615384615387,15)" font-family="sans-serif" font-size="10px" fill="#000" opacity="1">100</text><text text-anchor="middle" transform="translate(184.6153846153846,15)" font-family="sans-serif" font-size="10px" fill="#000" opacity="1">120</text><text text-anchor="middle" transform="translate(215.3846153846154,15)" font-family="sans-serif" font-size="10px" fill="#000" opacity="1">140</text><text text-anchor="middle" transform="translate(246.15384615384616,15)" font-family="sans-serif" font-size="10px" fill="#000" opacity="1">160</text><text text-anchor="middle" transform="translate(276.9230769230769,15)" font-family="sans-serif" font-size="10px" fill="#000" opacity="1">180</text><text text-anchor="middle" transform="translate(307.69230769230774,15)" font-family="sans-serif" font-size="10px" fill="#000" opacity="1">200</text><text text-anchor="middle" transform="translate(338.46153846153845,15)" font-family="sans-serif" font-size="10px" fill="#000" opacity="1">220</text><text text-anchor="middle" transform="translate(369.2307692307692,15)" font-family="sans-serif" font-size="10px" fill="#000" opacity="1">240</text><text text-anchor="end" transform="translate(400,15)" font-family="sans-serif" font-size="10px" fill="#000" opacity="1">260</text></g><g class="mark-rule role-axis-domain" pointer-events="none"><line transform="translate(0,0)" x2="400" y2="0" stroke="#888" stroke-width="1" opacity="1"/></g><g class="mark-text role-axis-title" pointer-events="none"><text text-anchor="middle" transform="translate(200,30)" font-family="sans-serif" font-size="11px" font-weight="bold" fill="#000" opacity="1">Anzahl Epochen</text></g></g><path class="foreground" aria-hidden="true" d="" pointer-events="none" display="none"/></g></g><g class="mark-group role-axis" role="graphics-symbol" aria-roledescription="axis" aria-label="Y-axis titled 'Mittlerer Fehler' for a linear scale with values from 0.00 to 0.09"><g transform="translate(0.5,0.5)"><path class="background" aria-hidden="true" d="M0,0h0v0h0Z" pointer-events="none"/><g><g class="mark-rule role-axis-tick" pointer-events="none"><line transform="translate(0,300)" x2="-5" y2="0" stroke="#888" stroke-width="1" opacity="1"/><line transform="translate(0,267)" x2="-5" y2="0" stroke="#888" stroke-width="1" opacity="1"/><line transform="translate(0,233)" x2="-5" y2="0" stroke="#888" stroke-width="1" opacity="1"/><line transform="translate(0,200)" x2="-5" y2="0" stroke="#888" stroke-width="1" opacity="1"/><line transform="translate(0,167)" x2="-5" y2="0" stroke="#888" stroke-width="1" opacity="1"/><line transform="translate(0,133)" x2="-5" y2="0" stroke="#888" stroke-width="1" opacity="1"/><line transform="translate(0,100)" x2="-5" y2="0" stroke="#888" stroke-width="1" opacity="1"/><line transform="translate(0,67)" x2="-5" y2="0" stroke="#888" stroke-width="1" opacity="1"/><line transform="translate(0,33)" x2="-5" y2="0" stroke="#888" stroke-width="1" opacity="1"/><line transform="translate(0,0)" x2="-5" y2="0" stroke="#888" stroke-width="1" opacity="1"/></g><g class="mark-text role-axis-label" pointer-events="none"><text text-anchor="end" transform="translate(-7,303)" font-family="sans-serif" font-size="10px" fill="#000" opacity="1">0.00</text><text text-anchor="end" transform="translate(-7,269.66666666666663)" font-family="sans-serif" font-size="10px" fill="#000" opacity="1">0.01</text><text text-anchor="end" transform="translate(-7,236.33333333333334)" font-family="sans-serif" font-size="10px" fill="#000" opacity="1">0.02</text><text text-anchor="end" transform="translate(-7,203.00000000000003)" font-family="sans-serif" font-size="10px" fill="#000" opacity="1">0.03</text><text text-anchor="end" transform="translate(-7,169.66666666666669)" font-family="sans-serif" font-size="10px" fill="#000" opacity="1">0.04</text><text text-anchor="end" transform="translate(-7,136.33333333333331)" font-family="sans-serif" font-size="10px" fill="#000" opacity="1">0.05</text><text text-anchor="end" transform="translate(-7,103.00000000000001)" font-family="sans-serif" font-size="10px" fill="#000" opacity="1">0.06</text><text text-anchor="end" transform="translate(-7,69.66666666666663)" font-family="sans-serif" font-size="10px" fill="#000" opacity="1">0.07</text><text text-anchor="end" transform="translate(-7,36.333333333333314)" font-family="sans-serif" font-size="10px" fill="#000" opacity="1">0.08</text><text text-anchor="end" transform="translate(-7,3)" font-family="sans-serif" font-size="10px" fill="#000" opacity="1">0.09</text></g><g class="mark-rule role-axis-domain" pointer-events="none"><line transform="translate(0,300)" x2="0" y2="-300" stroke="#888" stroke-width="1" opacity="1"/></g><g class="mark-text role-axis-title" pointer-events="none"><text text-anchor="middle" transform="translate(-30.462890625,150) rotate(-90) translate(0,-2)" font-family="sans-serif" font-size="11px" font-weight="bold" fill="#000" opacity="1">Mittlerer Fehler</text></g></g><path class="foreground" aria-hidden="true" d="" pointer-events="none" display="none"/></g></g><g class="mark-group role-scope pathgroup" role="graphics-object" aria-roledescription="group mark container"><g transform="translate(0,0)"><path class="background" aria-hidden="true" d="M0,0h400v300h-400Z"/><g><g class="mark-line role-mark marks" role="graphics-object" aria-roledescription="line mark container"><path aria-label="Typ: Train; Anzahl Epochen: 0; Mittlerer Fehler: 0.0870945216715" role="graphics-symbol" aria-roledescription="line mark" d="M0,9.684927761554707L1.5384615384615385,14.10102297862369L3.076923076923077,26.040789697851473L4.615384615384616,61.87261520397096L6.153846153846154,84.73686221100036L7.6923076923076925,89.93927396479107L9.230769230769232,92.26546777146203L10.76923076923077,93.95071346135367L12.307692307692308,95.58159361282983L13.846153846153847,97.05033557755604L15.384615384615385,98.42228853986377L16.923076923076923,99.58682968502954L18.461538461538463,100.51648751610801L20,101.43969385396866L21.53846153846154,102.31959720452625L23.076923076923077,103.05966752625648L24.615384615384617,103.86130433707007L26.153846153846157,104.54123254333221L27.692307692307693,105.2634250550043L29.230769230769234,105.94787721832594L30.76923076923077,106.74525385811214L32.30769230769231,107.42883941247348L33.84615384615385,108.1509082799866L35.38461538461539,108.94696889888672L36.92307692307693,109.76704884143102L38.46153846153847,110.49272769263811L40,111.33129515108607L41.53846153846154,112.20061019772575L43.07692307692308,113.0838626906985L44.61538461538462,113.84530851528757L46.15384615384615,114.72243776633626L47.69230769230769,115.3722033614204L49.23076923076923,116.10579068462054L50.76923076923077,116.69046318247204L52.307692307692314,117.19205386581874L53.84615384615385,117.69335518280664L55.38461538461539,118.14439679895126L56.92307692307692,118.49474442147073L58.46153846153847,118.84225138596126L60,119.21168537366958L61.53846153846154,119.52942325955345L63.07692307692307,119.78225292904035L64.61538461538461,120.10089708935647L66.15384615384615,120.37210272891178L67.6923076923077,120.55231197958899L69.23076923076923,120.7942722808747L70.76923076923077,121.03356864480746L72.3076923076923,121.1370635600317L73.84615384615385,121.4063284297784L75.38461538461539,121.57847739401318L76.92307692307693,121.82884067296979L78.46153846153847,122.06647158378644L80,122.14307164152464L81.53846153846153,122.41730310377619L83.07692307692308,122.48900209863982L84.61538461538461,122.76747042224521L86.15384615384616,122.93412110635212L87.6923076923077,123.03689427319028L89.23076923076924,123.18100521252268L90.76923076923077,123.28631026404244L92.3076923076923,123.50570555953752L93.84615384615384,123.73739562573884L95.38461538461539,123.78030121326445L96.92307692307692,124.02620042363802L98.46153846153847,124.1325273045472L100,124.21111347419875L101.53846153846153,124.37848140086444L103.07692307692307,124.44549742199125L104.61538461538463,124.62139172213416L106.15384615384616,124.8417335251967L107.6923076923077,124.8957718766871L109.23076923076923,125.05891922683942L110.76923076923077,125.18267748611316L112.3076923076923,125.23666772814025L113.84615384615384,125.42685280953134L115.38461538461537,125.505034022388L116.92307692307693,125.68227982237224L118.46153846153847,125.76955961329597L120,125.95584151290711L121.53846153846153,125.95545738225891L123.07692307692308,126.13154064331735L124.61538461538461,126.25717708752268L126.15384615384615,126.37877556539716L127.69230769230768,126.48246000920024L129.23076923076923,126.64188118208021L130.76923076923077,126.67590617423966L132.3076923076923,126.7902503410975L133.84615384615384,126.94919201589765L135.3846153846154,127.03418596869423L136.92307692307693,127.1039120143368L138.46153846153845,127.21566987179574L140,127.36295011071931L141.53846153846155,127.46723258779163L143.07692307692307,127.56050303578377L144.6153846153846,127.67104978362718L146.15384615384613,127.72313542664051L147.6923076923077,127.77037595709164L149.23076923076923,127.89777031257039L150.76923076923077,127.99940325674555L152.3076923076923,128.12750788316842L153.84615384615387,128.15293992559114L155.3846153846154,128.27692964956873L156.92307692307693,128.40151502972554L158.46153846153845,128.4558339133149L160,128.53239881140846L161.53846153846155,128.6121875757263L163.07692307692307,128.76073430691446L164.6153846153846,128.87001172417686L166.15384615384616,128.9181730576924L167.6923076923077,129.00961133695782L169.23076923076923,129.12660684613954L170.76923076923077,129.23847319824355L172.30769230769232,129.30968386076745L173.84615384615384,129.42052880922955L175.3846153846154,129.46472118298212L176.9230769230769,129.55886636461528L178.46153846153848,129.6041451394558L180,129.6889729088261L181.53846153846155,129.76853506905692L183.07692307692307,129.86305671788395L184.6153846153846,129.98130023479462L186.15384615384616,130.07451501630604L187.69230769230768,130.1500796562149L189.23076923076923,130.28512841888838L190.76923076923077,130.41401040695962L192.30769230769232,130.47350595394772L193.84615384615384,130.55042046166602L195.3846153846154,130.6774801441601L196.92307692307693,130.7447575032711L198.46153846153845,130.84888107010295L200,130.84647627103897L201.53846153846155,130.99852750698727L203.07692307692307,131.11188500410032L204.61538461538458,131.2625639850185L206.15384615384613,131.3733382948807L207.6923076923077,131.48683348581903L209.23076923076925,131.62257816819917L210.76923076923077,131.7334908814657L212.30769230769232,131.8464660218784L213.84615384615384,131.90961506749903L215.3846153846154,132.12882262610253L216.9230769230769,132.29551694932437L218.46153846153845,132.46235077579814L220.00000000000003,132.5753251356738L221.53846153846155,132.75302763850917L223.0769230769231,132.92703380187353L224.6153846153846,133.0428481811569L226.15384615384616,133.20698081737476L227.69230769230768,133.43491036267505L229.23076923076923,133.5808828473091L230.76923076923075,133.66559162026357L232.30769230769232,133.87044842044511L233.84615384615387,133.97409319877622L235.3846153846154,134.13315216700232L236.92307692307693,134.35109779238698L238.46153846153845,134.42769958859398L240,134.55417954495977L241.53846153846152,134.74313861557417L243.07692307692307,134.82190306697575L244.61538461538464,134.91274086492402L246.15384615384616,135.07599667424245L247.6923076923077,135.18828440989768L249.23076923076923,135.2523148059845L250.76923076923077,135.3669782479604L252.3076923076923,135.4552818728345L253.84615384615384,135.56518700151216L255.38461538461536,135.75589412025045L256.92307692307696,135.7399352959224L258.46153846153845,135.8942901449544L260,135.92494389130957L261.53846153846155,136.04674761494L263.0769230769231,136.10592150972002L264.6153846153846,136.21166490373156L266.15384615384613,136.31515126852761L267.6923076923077,136.35323551439106L269.2307692307692,136.47289840238435L270.7692307692308,136.5525083172889L272.3076923076923,136.543791528259L273.84615384615387,136.7136511064711L275.38461538461536,136.78618318268232L276.9230769230769,136.81708843935104L278.46153846153845,136.90063981782822L280,136.92994515101117L281.53846153846155,137.0846080992903L283.0769230769231,137.1336471466791L284.61538461538464,137.19390733611016L286.15384615384613,137.2558607941582L287.6923076923077,137.27503025106023L289.2307692307692,137.3550200746173L290.7692307692308,137.47932715784935L292.30769230769226,137.49663943336122L293.84615384615387,137.60140829143072L295.3846153846154,137.67371926279293L296.9230769230769,137.66294267205964L298.46153846153845,137.78733288248378L300,137.84864693880078L301.53846153846155,137.91034395496047L303.0769230769231,137.90909286056245L304.6153846153846,138.0332629595484L306.15384615384613,137.99640160231363L307.69230769230774,138.13420253850163L309.2307692307692,138.1857621173064L310.7692307692308,138.24965389711514L312.3076923076923,138.31438936647913L313.84615384615387,138.40389581663268L315.38461538461536,138.4398956738767L316.9230769230769,138.49484375899743L318.46153846153845,138.50008281213897L320,138.5598804269518L321.53846153846155,138.63234704449061L323.0769230769231,138.67652650390352L324.61538461538464,138.756258501893L326.15384615384613,138.7877147822153L327.6923076923077,138.90863209962845L329.2307692307692,138.92323069629214L330.7692307692308,139.00308387265318L332.3076923076923,139.04342619436127L333.84615384615387,139.13850486278534L335.3846153846154,139.13170713044346L336.9230769230769,139.16811187352454L338.46153846153845,139.22647023130028L340,139.3188176410539L341.53846153846155,139.3388166668869L343.07692307692304,139.45111291749137L344.61538461538464,139.54070916488058L346.1538461538462,139.59415941720917L347.6923076923077,139.6281735350688L349.2307692307692,139.66995005806288L350.7692307692308,139.7554133619581L352.3076923076923,139.79412267605463L353.8461538461538,139.8977705055759L355.38461538461536,139.97741435610112L356.92307692307696,139.98615599813914L358.46153846153845,140.10497462891396L360,140.1291665576753L361.53846153846155,140.26864458407675L363.0769230769231,140.2991311181159L364.6153846153846,140.3838843462013L366.15384615384613,140.42185442078681L367.6923076923077,140.45189257178987L369.2307692307692,140.633121629556L370.7692307692308,140.64366508807453L372.3076923076923,140.74521313110984L373.84615384615387,140.831125775973L375.38461538461536,140.9013483850729L376.9230769230769,140.97710095700762L378.46153846153845,140.99191860074086L380,141.09203411000115L381.53846153846155,141.25546330497377L383.0769230769231,141.29324016116917" stroke="#f58518" stroke-width="2"/></g></g><path class="foreground" aria-hidden="true" d="" display="none"/></g><g transform="translate(0,0)"><path class="background" aria-hidden="true" d="M0,0h400v300h-400Z"/><g><g class="mark-line role-mark marks" role="graphics-object" aria-roledescription="line mark container"><path aria-label="Typ: Test; Anzahl Epochen: 0; Mittlerer Fehler: 0.0846890182793" role="graphics-symbol" aria-roledescription="line mark" d="M0,17.70327240228653L1.5384615384615385,23.611109289858035L3.076923076923077,45.02417428625952L4.615384615384616,80.32765703068839L6.153846153846154,89.4610411591L7.6923076923076925,91.99511839283836L9.230769230769232,93.71636493338478L10.76923076923077,95.37019183238347L12.307692307692308,96.82760685682297L13.846153846153847,98.15914200411903L15.384615384615385,99.35683947470454L16.923076923076923,100.42497167984644L18.461538461538463,101.29098412063385L20,102.18092319038178L21.53846153846154,102.92386495404773L23.076923076923077,103.65064558055666L24.615384615384617,104.3400173385938L26.153846153846157,104.98852498001521L27.692307692307693,105.71208977037007L29.230769230769234,106.35154669483502L30.76923076923077,107.06442693869272L32.30769230769231,107.77153107855054L33.84615384615385,108.37092523773512L35.38461538461539,109.09598237938349L36.92307692307693,109.74724673562578L38.46153846153847,110.61017000012929L40,111.39170080423354L41.53846153846154,112.06957300504045L43.07692307692308,112.81946433915031L44.61538461538462,113.6256034175555L46.15384615384615,114.12578291363185L47.69230769230769,114.83172583911153L49.23076923076923,115.43097347021101L50.76923076923077,115.8635954889986L52.307692307692314,116.38394229941899L53.84615384615385,116.7473543021414L55.38461538461539,117.0116302039888L56.92307692307692,117.33136168784564L58.46153846153847,117.53999392191568L60,118.00710923141902L61.53846153846154,118.10310209790866L63.07692307692307,118.37725573115878L64.61538461538461,118.62996965646744L66.15384615384615,118.7750400768386L67.6923076923077,118.89862881766426L69.23076923076923,118.95636237329906L70.76923076923077,119.19611038433182L72.3076923076923,119.3833247654968L73.84615384615385,119.49201193120743L75.38461538461539,119.59184623426862L76.92307692307693,119.72482800483702L78.46153846153847,119.82959003912079L80,119.82553079724312L81.53846153846153,119.94728702637886L83.07692307692308,120.05071855253644L84.61538461538461,120.1499850385719L86.15384615384616,120.17281841900613L87.6923076923077,120.29295066992444L89.23076923076924,120.3301042318344L90.76923076923077,120.36193485061327L92.3076923076923,120.48062475191219L93.84615384615384,120.6516186396281L95.38461538461539,120.64338831437958L96.92307692307692,120.69939954413307L98.46153846153847,120.8458830912908L100,120.85684181915387L101.53846153846153,120.9103013906214L103.07692307692307,120.9655904935466L104.61538461538463,121.0272141628795L106.15384615384616,121.16011472211945L107.6923076923077,121.20648498336475L109.23076923076923,121.11012331313556L110.76923076923077,121.21243998408315L112.3076923076923,121.32279343075221L113.84615384615384,121.38618735803497L115.38461538461537,121.48075890209941L116.92307692307693,121.54352573884857L118.46153846153847,121.569544242488L120,121.63216223319368L121.53846153846153,121.68283313512802L123.07692307692308,121.66041144066386L124.61538461538461,121.68709710240365L126.15384615384615,121.74435125456917L127.69230769230768,121.81822806596753L129.23076923076923,121.85485520296628L130.76923076923077,121.97314550479253L132.3076923076923,121.99399256043965L133.84615384615384,122.02144861221313L135.3846153846154,122.14199064506423L136.92307692307693,122.13360435432857L138.46153846153845,122.12947499420906L140,122.21597193015945L141.53846153846155,122.30534644590482L143.07692307692307,122.30301813946826L144.6153846153846,122.22075197431778L146.15384615384613,122.30537285407384L147.6923076923077,122.31086310413149L149.23076923076923,122.35293504264617L150.76923076923077,122.46901939312616L152.3076923076923,122.5071772105164L153.84615384615387,122.51961537533337L155.3846153846154,122.63414445850583L156.92307692307693,122.58533909916876L158.46153846153845,122.63369767202269L160,122.68421418137021L161.53846153846155,122.7265218893687L163.07692307692307,122.75823197431032L164.6153846153846,122.62704438633388L166.15384615384616,122.83750317162936L167.6923076923077,122.93831110000609L169.23076923076923,122.91411720216271L170.76923076923077,123.03382563922142L172.30769230769232,122.95919896827803L173.84615384615384,123.07205758988857L175.3846153846154,123.07485077116225L176.9230769230769,123.09521461526552L178.46153846153848,123.17542061209677L180,123.12565305166774L181.53846153846155,123.20355359050961L183.07692307692307,123.3248977197541L184.6153846153846,123.26633508006731L186.15384615384616,123.34760742055045L187.69230769230768,123.43813495503532L189.23076923076923,123.38706139061185L190.76923076923077,123.46224826243188L192.30769230769232,123.41354530718593L193.84615384615384,123.52951582935121L195.3846153846154,123.55079626043637L196.92307692307693,123.57563715842034L198.46153846153845,123.72759282588959L200,123.73946607112885L201.53846153846155,123.76165125105115L203.07692307692307,123.88600690497292L204.61538461538458,123.9400996102227L206.15384615384613,124.025460663769L207.6923076923077,124.15359914302826L209.23076923076925,124.21228744917445L210.76923076923077,124.31564678748447L212.30769230769232,124.41530484292242L213.84615384615384,124.53061044216156L215.3846153846154,124.52055348290335L216.9230769230769,124.68072333269646L218.46153846153845,124.81244645184941L220.00000000000003,124.97564860516124L221.53846153846155,125.03565624356271L223.0769230769231,125.15337732103134L224.6153846153846,125.24723468555344L226.15384615384616,125.38143926196629L227.69230769230768,125.48495315843158L229.23076923076923,125.5798957000176L230.76923076923075,125.79878022273381L232.30769230769232,125.92746764421462L233.84615384615387,125.95250656207402L235.3846153846154,126.06763889392215L236.92307692307693,126.19077008631494L238.46153846153845,126.25827731357681L240,126.34119888146718L241.53846153846152,126.45251899957655L243.07692307692307,126.49710476398465L244.61538461538464,126.58114317390655L246.15384615384616,126.61495564712418L247.6923076923077,126.67224076059128L249.23076923076923,126.7316862940788L250.76923076923077,126.86966367893748L252.3076923076923,126.88589046398796L253.84615384615384,126.97702745596568L255.38461538461536,127.05231954654057L256.92307692307696,127.1102967361609L258.46153846153845,127.0831774506304L260,127.17399713065888L261.53846153846155,127.12763225038847L263.0769230769231,127.25408143467374L264.6153846153846,127.30652176671558L266.15384615384613,127.26265721850923L267.6923076923077,127.36011652482878L269.2307692307692,127.25750861896407L270.7692307692308,127.41246024767557L272.3076923076923,127.45024909575781L273.84615384615387,127.4837868909041L275.38461538461536,127.47674625780847L276.9230769230769,127.60479367441602L278.46153846153845,127.58009408911067L280,127.61327831281555L281.53846153846155,127.59759641355939L283.0769230769231,127.70430909262761L284.61538461538464,127.71195156706703L286.15384615384613,127.70000770688056L287.6923076923077,127.78123484717476L289.2307692307692,127.71749090817238L290.7692307692308,127.85553178853458L292.30769230769226,127.8819171918763L293.84615384615387,127.87359133362769L295.3846153846154,127.88379117846486L296.9230769230769,127.86152271760834L298.46153846153845,127.88031266795264L300,127.94174378116927L301.53846153846155,127.96491591466797L303.0769230769231,128.08028765850597L304.6153846153846,128.02372997005781L306.15384615384613,128.0500803556707L307.69230769230774,128.06293658084337L309.2307692307692,128.15205653508502L310.7692307692308,128.13104316592216L312.3076923076923,128.22051263517804L313.84615384615387,128.15774207313854L315.38461538461536,128.21803175740772L316.9230769230769,128.24425142672325L318.46153846153845,128.25380836923915L320,128.2534139851729L321.53846153846155,128.34979510969586L323.0769230769231,128.38370046681828L324.61538461538464,128.38305789563393L326.15384615384613,128.45872855848737L327.6923076923077,128.41809574100705L329.2307692307692,128.44548415806557L330.7692307692308,128.50657229622206L332.3076923076923,128.551760647032L333.84615384615387,128.58255248930718L335.3846153846154,128.6273654136393L336.9230769230769,128.60363345179294L338.46153846153845,128.6064499782191L340,128.73095182908907L341.53846153846155,128.78020289871426L343.07692307692304,128.79244652059342L344.61538461538464,128.83631628420616L346.1538461538462,128.8610216644075L347.6923076923077,128.95271397299237L349.2307692307692,128.8948288394345L350.7692307692308,128.95798914962344L352.3076923076923,129.05541873640482L353.8461538461538,129.08238917589188L355.38461538461536,129.1208753155337L356.92307692307696,129.1302752163675L358.46153846153845,129.1426854001151L360,129.23584803938863L361.53846153846155,129.26325491733022L363.0769230769231,129.37328178021642L364.6153846153846,129.37671318650246L366.15384615384613,129.39460277557373L367.6923076923077,129.54894552628198L369.2307692307692,129.5303280154864L370.7692307692308,129.70251333382393L372.3076923076923,129.63325662745368L373.84615384615387,129.8184200293488L375.38461538461536,129.8966084089544L376.9230769230769,129.93553305665648L378.46153846153845,129.98144452770552L380,130.08456660641565L381.53846153846155,130.08819661206667L383.0769230769231,130.23750264611508" stroke="#4c78a8" stroke-width="2"/></g></g><path class="foreground" aria-hidden="true" d="" display="none"/></g></g><g class="mark-group role-legend" role="graphics-symbol" aria-roledescription="legend" aria-label="Symbol legend titled 'Typ' for stroke color with 2 values: Test, Train"><g transform="translate(418,0)"><path class="background" aria-hidden="true" d="M0,0h39v40h-39Z" pointer-events="none"/><g><g class="mark-group role-legend-entry"><g transform="translate(0,16)"><path class="background" aria-hidden="true" d="M0,0h0v0h0Z" pointer-events="none"/><g><g class="mark-group role-scope" role="graphics-object" aria-roledescription="group mark container"><g transform="translate(0,0)"><path class="background" aria-hidden="true" d="M0,0h38.412109375v11h-38.412109375Z" pointer-events="none" opacity="1"/><g><g class="mark-symbol role-legend-symbol" pointer-events="none"><path transform="translate(6,6)" d="M-5,0L5,0" stroke="#4c78a8" stroke-width="1.5" opacity="1"/></g><g class="mark-text role-legend-label" pointer-events="none"><text text-anchor="start" transform="translate(16,9)" font-family="sans-serif" font-size="10px" fill="#000" opacity="1">Test</text></g></g><path class="foreground" aria-hidden="true" d="" pointer-events="none" display="none"/></g><g transform="translate(0,13)"><path class="background" aria-hidden="true" d="M0,0h38.412109375v11h-38.412109375Z" pointer-events="none" opacity="1"/><g><g class="mark-symbol role-legend-symbol" pointer-events="none"><path transform="translate(6,6)" d="M-5,0L5,0" stroke="#f58518" stroke-width="1.5" opacity="1"/></g><g class="mark-text role-legend-label" pointer-events="none"><text text-anchor="start" transform="translate(16,9)" font-family="sans-serif" font-size="10px" fill="#000" opacity="1">Train</text></g></g><path class="foreground" aria-hidden="true" d="" pointer-events="none" display="none"/></g></g></g><path class="foreground" aria-hidden="true" d="" pointer-events="none" display="none"/></g></g><g class="mark-text role-legend-title" pointer-events="none"><text text-anchor="start" transform="translate(0,9)" font-family="sans-serif" font-size="11px" font-weight="bold" fill="#000" opacity="1">Typ</text></g></g><path class="foreground" aria-hidden="true" d="" pointer-events="none" display="none"/></g></g></g><path class="foreground" aria-hidden="true" d="" display="none"/></g></g></g></svg>