<svg xmlns="http://www.w3.org/2000/svg" xmlns:xlink="http://www.w3.org/1999/xlink" version="1.1" class="marks" width="509" height="347" viewBox="0 0 509 347"><rect width="509" height="347" fill="white"/><g fill="none" stroke-miterlimit="10" transform="translate(47,10)"><g class="mark-group role-frame root" role="graphics-object" aria-roledescription="group mark container"><g transform="translate(0,0)"><path class="background" aria-hidden="true" d="M0.5,0.5h400v300h-400Z" stroke="#ddd"/><g><g class="mark-group role-axis" aria-hidden="true"><g transform="translate(0.5,300.5)"><path class="background" aria-hidden="true" d="M0,0h0v0h0Z" pointer-events="none"/><g><g class="mark-rule role-axis-grid" pointer-events="none"><line transform="translate(0,-300)" x2="0" y2="300" stroke="#ddd" stroke-width="1" opacity="1"/><line transform="translate(31,-300)" x2="0" y2="300" stroke="#ddd" stroke-width="1" opacity="1"/><line transform="translate(62,-300)" x2="0" y2="300" stroke="#ddd" stroke-width="1" opacity="1"/><line transform="translate(92,-300)" x2="0" y2="300" stroke="#ddd" stroke-width="1" opacity="1"/><line transform="translate(123,-300)" x2="0" y2="300" stroke="#ddd" stroke-width="1" opacity="1"/><line transform="translate(154,-300)" x2="0" y2="300" stroke="#ddd" stroke-width="1" opacity="1"/><line transform="translate(185,-300)" x2="0" y2="300" stroke="#ddd" stroke-width="1" opacity="1"/><line transform="translate(215,-300)" x2="0" y2="300" stroke="#ddd" stroke-width="1" opacity="1"/><line transform="translate(246,-300)" x2="0" y2="300" stroke="#ddd" stroke-width="1" opacity="1"/><line transform="translate(277,-300)" x2="0" y2="300" stroke="#ddd" stroke-width="1" opacity="1"/><line transform="translate(308,-300)" x2="0" y2="300" stroke="#ddd" stroke-width="1" opacity="1"/><line transform="translate(338,-300)" x2="0" y2="300" stroke="#ddd" stroke-width="1" opacity="1"/><line transform="translate(369,-300)" x2="0" y2="300" stroke="#ddd" stroke-width="1" opacity="1"/><line transform="translate(400,-300)" x2="0" y2="300" stroke="#ddd" stroke-width="1" opacity="1"/></g></g><path class="foreground" aria-hidden="true" d="" pointer-events="none" display="none"/></g></g><g class="mark-group role-axis" aria-hidden="true"><g transform="translate(0.5,0.5)"><path class="background" aria-hidden="true" d="M0,0h0v0h0Z" pointer-events="none"/><g><g class="mark-rule role-axis-grid" pointer-events="none"><line transform="translate(0,300)" x2="400" y2="0" stroke="#ddd" stroke-width="1" opacity="1"/><line transform="translate(0,267)" x2="400" y2="0" stroke="#ddd" stroke-width="1" opacity="1"/><line transform="translate(0,233)" x2="400" y2="0" stroke="#ddd" stroke-width="1" opacity="1"/><line transform="translate(0,200)" x2="400" y2="0" stroke="#ddd" stroke-width="1" opacity="1"/><line transform="translate(0,167)" x2="400" y2="0" stroke="#ddd" stroke-width="1" opacity="1"/><line transform="translate(0,133)" x2="400" y2="0" stroke="#ddd" stroke-width="1" opacity="1"/><line transform="translate(0,100)" x2="400" y2="0" stroke="#ddd" stroke-width="1" opacity="1"/><line transform="translate(0,67)" x2="400" y2="0" stroke="#ddd" stroke-width="1" opacity="1"/><line transform="translate(0,33)" x2="400" y2="0" stroke="#ddd" stroke-width="1" opacity="1"/><line transform="translate(0,0)" x2="400" y2="0" stroke="#ddd" stroke-width="1" opacity="1"/></g></g><path class="foreground" aria-hidden="true" d="" pointer-events="none" display="none"/></g></g><g class="mark-group role-axis" role="graphics-symbol" aria-roledescription="axis" aria-label="X-axis titled 'Anzahl Epochen' for a linear scale with values from 0 to 260"><g transform="translate(0.5,300.5)"><path class="background" aria-hidden="true" d="M0,0h0v0h0Z" pointer-events="none"/><g><g class="mark-rule role-axis-tick" pointer-events="none"><line transform="translate(0,0)" x2="0" y2="5" stroke="#888" stroke-width="1" opacity="1"/><line transform="translate(31,0)" x2="0" y2="5" stroke="#888" stroke-width="1" opacity="1"/><line transform="translate(62,0)" x2="0" y2="5" stroke="#888" stroke-width="1" opacity="1"/><line transform="translate(92,0)" x2="0" y2="5" stroke="#888" stroke-width="1" opacity="1"/><line transform="translate(123,0)" x2="0" y2="5" stroke="#888" stroke-width="1" opacity="1"/><line transform="translate(154,0)" x2="0" y2="5" stroke="#888" stroke-width="1" opacity="1"/><line transform="translate(185,0)" x2="0" y2="5" stroke="#888" stroke-width="1" opacity="1"/><line transform="translate(215,0)" x2="0" y2="5" stroke="#888" stroke-width="1" opacity="1"/><line transform="translate(246,0)" x2="0" y2="5" stroke="#888" stroke-width="1" opacity="1"/><line transform="translate(277,0)" x2="0" y2="5" stroke="#888" stroke-width="1" opacity="1"/><line transform="translate(308,0)" x2="0" y2="5" stroke="#888" stroke-width="1" opacity="1"/><line transform="translate(338,0)" x2="0" y2="5" stroke="#888" stroke-width="1" opacity="1"/><line transform="translate(369,0)" x2="0" y2="5" stroke="#888" stroke-width="1" opacity="1"/><line transform="translate(400,0)" x2="0" y2="5" stroke="#888" stroke-width="1" opacity="1"/></g><g class="mark-text role-axis-label" pointer-events="none"><text text-anchor="start" transform="translate(0,15)" font-family="sans-serif" font-size="10px" fill="#000" opacity="1">0</text><text text-anchor="middle" transform="translate(30.76923076923077,15)" font-family="sans-serif" font-size="10px" fill="#000" opacity="1">20</text><text text-anchor="middle" transform="translate(61.53846153846154,15)" font-family="sans-serif" font-size="10px" fill="#000" opacity="1">40</text><text text-anchor="middle" transform="translate(92.3076923076923,15)" font-family="sans-serif" font-size="10px" fill="#000" opacity="1">60</text><text text-anchor="middle" transform="translate(123.07692307692308,15)" font-family="sans-serif" font-size="10px" fill="#000" opacity="1">80</text><text text-anchor="middle" transform="translate(153.84615384615387,15)" font-family="sans-serif" font-size="10px" fill="#000" opacity="1">100</text><text text-anchor="middle" transform="translate(184.6153846153846,15)" font-family="sans-serif" font-size="10px" fill="#000" opacity="1">120</text><text text-anchor="middle" transform="translate(215.3846153846154,15)" font-family="sans-serif" font-size="10px" fill="#000" opacity="1">140</text><text text-anchor="middle" transform="translate(246.15384615384616,15)" font-family="sans-serif" font-size="10px" fill="#000" opacity="1">160</text><text text-anchor="middle" transform="translate(276.9230769230769,15)" font-family="sans-serif" font-size="10px" fill="#000" opacity="1">180</text><text text-anchor="middle" transform="translate(307.69230769230774,15)" font-family="sans-serif" font-size="10px" fill="#000" opacity="1">200</text><text text-anchor="middle" transform="translate(338.46153846153845,15)" font-family="sans-serif" font-size="10px" fill="#000" opacity="1">220</text><text text-anchor="middle" transform="translate(369.2307692307692,15)" font-family="sans-serif" font-size="10px" fill="#000" opacity="1">240</text><text text-anchor="end" transform="translate(400,15)" font-family="sans-serif" font-size="10px" fill="#000" opacity="1">260</text></g><g class="mark-rule role-axis-domain" pointer-events="none"><line transform="translate(0,0)" x2="400" y2="0" stroke="#888" stroke-width="1" opacity="1"/></g><g class="mark-text role-axis-title" pointer-events="none"><text text-anchor="middle" transform="translate(200,30)" font-family="sans-serif" font-size="11px" font-weight="bold" fill="#000" opacity="1">Anzahl Epochen</text></g></g><path class="foreground" aria-hidden="true" d="" pointer-events="none" display="none"/></g></g><g class="mark-group role-axis" role="graphics-symbol" aria-roledescription="axis" aria-label="Y-axis titled 'Mittlerer Fehler' for a linear scale with values from 0.00 to 0.09"><g transform="translate(0.5,0.5)"><path class="background" aria-hidden="true" d="M0,0h0v0h0Z" pointer-events="none"/><g><g class="mark-rule role-axis-tick" pointer-events="none"><line transform="translate(0,300)" x2="-5" y2="0" stroke="#888" stroke-width="1" opacity="1"/><line transform="translate(0,267)" x2="-5" y2="0" stroke="#888" stroke-width="1" opacity="1"/><line transform="translate(0,233)" x2="-5" y2="0" stroke="#888" stroke-width="1" opacity="1"/><line transform="translate(0,200)" x2="-5" y2="0" stroke="#888" stroke-width="1" opacity="1"/><line transform="translate(0,167)" x2="-5" y2="0" stroke="#888" stroke-width="1" opacity="1"/><line transform="translate(0,133)" x2="-5" y2="0" stroke="#888" stroke-width="1" opacity="1"/><line transform="translate(0,100)" x2="-5" y2="0" stroke="#888" stroke-width="1" opacity="1"/><line transform="translate(0,67)" x2="-5" y2="0" stroke="#888" stroke-width="1" opacity="1"/><line transform="translate(0,33)" x2="-5" y2="0" stroke="#888" stroke-width="1" opacity="1"/><line transform="translate(0,0)" x2="-5" y2="0" stroke="#888" stroke-width="1" opacity="1"/></g><g class="mark-text role-axis-label" pointer-events="none"><text text-anchor="end" transform="translate(-7,303)" font-family="sans-serif" font-size="10px" fill="#000" opacity="1">0.00</text><text text-anchor="end" transform="translate(-7,269.66666666666663)" font-family="sans-serif" font-size="10px" fill="#000" opacity="1">0.01</text><text text-anchor="end" transform="translate(-7,236.33333333333334)" font-family="sans-serif" font-size="10px" fill="#000" opacity="1">0.02</text><text text-anchor="end" transform="translate(-7,203.00000000000003)" font-family="sans-serif" font-size="10px" fill="#000" opacity="1">0.03</text><text text-anchor="end" transform="translate(-7,169.66666666666669)" font-family="sans-serif" font-size="10px" fill="#000" opacity="1">0.04</text><text text-anchor="end" transform="translate(-7,136.33333333333331)" font-family="sans-serif" font-size="10px" fill="#000" opacity="1">0.05</text><text text-anchor="end" transform="translate(-7,103.00000000000001)" font-family="sans-serif" font-size="10px" fill="#000" opacity="1">0.06</text><text text-anchor="end" transform="translate(-7,69.66666666666663)" font-family="sans-serif" font-size="10px" fill="#000" opacity="1">0.07</text><text text-anchor="end" transform="translate(-7,36.333333333333314)" font-family="sans-serif" font-size="10px" fill="#000" opacity="1">0.08</text><text text-anchor="end" transform="translate(-7,3)" font-family="sans-serif" font-size="10px" fill="#000" opacity="1">0.09</text></g><g class="mark-rule role-axis-domain" pointer-events="none"><line transform="translate(0,300)" x2="0" y2="-300" stroke="#888" stroke-width="1" opacity="1"/></g><g class="mark-text role-axis-title" pointer-events="none"><text text-anchor="middle" transform="translate(-30.462890625,150) rotate(-90) translate(0,-2)" font-family="sans-serif" font-size="11px" font-weight="bold" fill="#000" opacity="1">Mittlerer Fehler</text></g></g><path class="foreground" aria-hidden="true" d="" pointer-events="none" display="none"/></g></g><g class="mark-group role-scope pathgroup" role="graphics-object" aria-roledescription="group mark container"><g transform="translate(0,0)"><path class="background" aria-hidden="true" d="M0,0h400v300h-400Z"/><g><g class="mark-line role-mark marks" role="graphics-object" aria-roledescription="line mark container"><path aria-label="Typ: Train; Anzahl Epochen: 0; Mittlerer Fehler: 0.0862502123522" role="graphics-symbol" aria-roledescription="line mark" d="M0,12.499292159364316L1.5384615384615385,33.3375912337076L3.076923076923077,82.39710187273364L4.615384615384616,91.73070153310186L6.153846153846154,95.33939386407533L7.6923076923076925,98.217280599333L9.230769230769232,100.41291709279729L10.76923076923077,102.12987303024244L12.307692307692308,103.545816100779L13.846153846153847,105.03809947875284L15.384615384615385,106.26876145778667L16.923076923076923,107.67168263416913L18.461538461538463,109.00607175592866L20,110.41229243079819L21.53846153846154,111.8544810052429L23.076923076923077,113.48700625821948L24.615384615384617,115.03459535361755L26.153846153846157,116.22467735516175L27.692307692307693,117.3332657576317L29.230769230769234,118.1926659884907L30.76923076923077,118.94722084204355L32.30769230769231,119.3946828533496L33.84615384615385,120.06867971448672L35.38461538461539,120.45277522078584L36.92307692307693,120.92847351339601L38.46153846153847,121.32017294033652L40,121.69576175510885L41.53846153846154,122.0015985891223L43.07692307692308,122.39922894431011L44.61538461538462,122.65566615831283L46.15384615384615,123.09781146191415L47.69230769230769,123.23634517157362L49.23076923076923,123.50722828081675L50.76923076923077,123.83077876597999L52.307692307692314,124.21357694658494L53.84615384615385,124.4312045208755L55.38461538461539,124.61301217831314L56.92307692307692,124.90140145112362L58.46153846153847,125.18950667054881L60,125.33960623577946L61.53846153846154,125.71806300520186L63.07692307692307,125.89883788355758L64.61538461538461,126.14525309098616L66.15384615384615,126.35185438252631L67.6923076923077,126.60346197940054L69.23076923076923,126.83769678253503L70.76923076923077,127.00961792752857L72.3076923076923,127.17976042379934L73.84615384615385,127.42104846097173L75.38461538461539,127.61268138530706L76.92307692307693,127.7983068798979L78.46153846153847,128.02285923666898L80,128.24532665489684L81.53846153846153,128.4418341393272L83.07692307692308,128.61338705600548L84.61538461538461,128.66344923275477L86.15384615384616,128.91836377038132L87.6923076923077,129.04320542833634L89.23076923076924,129.30112825817474L90.76923076923077,129.4935837299341L92.3076923076923,129.61362388339776L93.84615384615384,129.78092034602358L95.38461538461539,130.03522413117545L96.92307692307692,130.24688668194273L98.46153846153847,130.37939326216778L100,130.46429396740027L101.53846153846153,130.66143367295376L103.07692307692307,130.8197919667388L104.61538461538463,130.9161956688123L106.15384615384616,131.20106237807443L107.6923076923077,131.47854144197134L109.23076923076923,131.58573744641174L110.76923076923077,131.78475501814057L112.3076923076923,132.1159400578056L113.84615384615384,132.23659081739328L115.38461538461537,132.52479708088296L116.92307692307693,132.8164039711867L118.46153846153847,133.14841891683284L120,133.42248739319896L121.53846153846153,133.68333825575456L123.07692307692308,134.00765387784867L124.61538461538461,134.24129954129012L126.15384615384615,134.4486898786965L127.69230769230768,134.78438654204916L129.23076923076923,134.95497721291724L130.76923076923077,135.32143237867527L132.3076923076923,135.52027066027566L133.84615384615384,135.74838566904265L135.3846153846154,135.91263452988295L136.92307692307693,136.30521130260257L138.46153846153845,136.49627616229867L140,136.73401674743562L141.53846153846155,137.03192362473123L143.07692307692307,137.29182382424673L144.6153846153846,137.65850874284902L146.15384615384613,137.9986995753522L147.6923076923077,138.2656440271863L149.23076923076923,138.57017530826852L150.76923076923077,138.88460745857586L152.3076923076923,139.23513713775068L153.84615384615387,139.43117562504042L155.3846153846154,139.71190299129202L156.92307692307693,139.93113331851504L158.46153846153845,140.02085074760197L160,140.30211954599335L161.53846153846155,140.57484213262796L163.07692307692307,140.70299191045618L164.6153846153846,140.9312088574682L166.15384615384616,141.07203202632564L167.6923076923077,141.2130949220487L169.23076923076923,141.4236233525333L170.76923076923077,141.52975821246704L172.30769230769232,141.619384656882L173.84615384615384,141.9355562081494L175.3846153846154,141.93365965371154L176.9230769230769,142.15130481780284L178.46153846153848,142.32583713850804L180,142.4266983134051L181.53846153846155,142.54974318402154L183.07692307692307,142.5969891671446L184.6153846153846,142.797528176258L186.15384615384616,142.8518680944329L187.69230769230768,142.9519043600608L189.23076923076923,143.02217451012913L190.76923076923077,143.1615996110763L192.30769230769232,143.21946319680484L193.84615384615384,143.2943268734518L195.3846153846154,143.40172897846927L196.92307692307693,143.41124590885426L198.46153846153845,143.58694672229743L200,143.69433043341684L201.53846153846155,143.71493934415324L203.07692307692307,143.83355629175813L204.61538461538458,143.85599939684784L206.15384615384613,144.03933368268466L207.6923076923077,144.05875298017193L209.23076923076925,144.16005227359986L210.76923076923077,144.20807962971074L212.30769230769232,144.31474099733998L213.84615384615384,144.27071807107754L215.3846153846154,144.3815573251673L216.9230769230769,144.49716024100778L218.46153846153845,144.5957445362139L220.00000000000003,144.61087955250625L221.53846153846155,144.79681310532172L223.0769230769231,144.76830797003848L224.6153846153846,144.818479202721L226.15384615384616,144.9243918992579L227.69230769230768,144.9720483051524L229.23076923076923,145.04282079370955L230.76923076923075,145.0989895169013L232.30769230769232,145.19836245814247L233.84615384615387,145.34007057137342L235.3846153846154,145.31504569486492L236.92307692307693,145.27867858608562L238.46153846153845,145.34864606241516L240,145.33637157597002L241.53846153846152,145.60433132573962L243.07692307692307,145.56943338927036L244.61538461538464,145.63647956543025L246.15384615384616,145.80177270940374L247.6923076923077,145.83229057579524L249.23076923076923,145.86752972959187L250.76923076923077,145.96580543688367L252.3076923076923,145.9881726608035L253.84615384615384,146.0362907942562L255.38461538461536,146.1798414543626L256.92307692307696,146.17143746595718L258.46153846153845,146.29777178079598L260,146.32512449974283L261.53846153846155,146.4328955452878L263.0769230769231,146.3860040974049L264.6153846153846,146.56077640039646L266.15384615384613,146.60700380211762L267.6923076923077,146.6480687925858L269.2307692307692,146.76538374665793L270.7692307692308,146.70061493469845L272.3076923076923,146.83792823925614L273.84615384615387,146.88384453100818L275.38461538461536,147.07363104112332L276.9230769230769,147.02516225210968L278.46153846153845,147.12728513404727L280,147.2687983929756L281.53846153846155,147.31084744756419L283.0769230769231,147.3758146787683L284.61538461538464,147.37672370739304L286.15384615384613,147.41977737049595L287.6923076923077,147.48264652173796L289.2307692307692,147.63704529475598L290.7692307692308,147.6341676853952L292.30769230769226,147.73387850215101L293.84615384615387,147.79731629449608L295.3846153846154,147.83445963839768L296.9230769230769,147.87876023730772L298.46153846153845,147.9234223697512L300,147.92729846334882L301.53846153846155,148.0597608509318L303.0769230769231,148.08975593852145L304.6153846153846,148.2144879398956L306.15384615384613,148.18631380441641L307.69230769230774,148.26102239035424L309.2307692307692,148.33128720042407L310.7692307692308,148.40438355950894L312.3076923076923,148.4520502768213L313.84615384615387,148.53109070155324L315.38461538461536,148.58344542805014L316.9230769230769,148.72495247012313L318.46153846153845,148.7337485310577L320,148.733409907436L321.53846153846155,148.78049718127363L323.0769230769231,148.86565908700936L324.61538461538464,148.9594258146272L326.15384615384613,149.01331819239115L327.6923076923077,149.01257104994286L329.2307692307692,149.11889177525325L330.7692307692308,149.22038490130078L332.3076923076923,149.16340948568956L333.84615384615387,149.29063135114987L335.3846153846154,149.31366963483882L336.9230769230769,149.44135032239416L338.46153846153845,149.45676025624076L340,149.56590990630156L341.53846153846155,149.54790734163473L343.07692307692304,149.70352391572393L344.61538461538464,149.83297316468366L346.1538461538462,149.87883747865754L347.6923076923077,149.9048441237565L349.2307692307692,149.96912048941124L350.7692307692308,150.02548239149507L352.3076923076923,150.1149476830116L353.8461538461538,150.2145370645892L355.38461538461536,150.3623570581632L356.92307692307696,150.4413006805061L358.46153846153845,150.55491362166188L360,150.60256387417513L361.53846153846155,150.71820611511134L363.0769230769231,150.72418802107373L364.6153846153846,150.86500253971843L366.15384615384613,150.87987502061188L367.6923076923077,150.9802839064962L369.2307692307692,151.1892803357027L370.7692307692308,151.10776262251116L372.3076923076923,151.14963522702013L373.84615384615387,151.42830735782073L375.38461538461536,151.41524629046518L376.9230769230769,151.55906539127628L378.46153846153845,151.55916742182202L380,151.66779807547016L381.53846153846155,151.79552310811619L383.0769230769231,151.88170749960202" stroke="#f58518" stroke-width="2"/></g></g><path class="foreground" aria-hidden="true" d="" display="none"/></g><g transform="translate(0,0)"><path class="background" aria-hidden="true" d="M0,0h400v300h-400Z"/><g><g class="mark-line role-mark marks" role="graphics-object" aria-roledescription="line mark container"><path aria-label="Typ: Test; Anzahl Epochen: 0; Mittlerer Fehler: 0.0842960097392" role="graphics-symbol" aria-roledescription="line mark" d="M0,19.013300869199977L1.5384615384615385,68.60531672007507L3.076923076923077,91.17027024428047L4.615384615384616,95.428799962004L6.153846153846154,98.1287187586228L7.6923076923076925,100.35492359764046L9.230769230769232,102.02390282518336L10.76923076923077,103.36843046049277L12.307692307692308,104.50663512779605L13.846153846153847,105.79839154250091L15.384615384615385,107.0062452720271L16.923076923076923,108.37175961997775L18.461538461538463,109.60338902142311L20,111.00755164192782L21.53846153846154,112.29509123497536L23.076923076923077,113.77987840937243L24.615384615384617,115.18758862382836L26.153846153846157,115.90062201850945L27.692307692307693,116.97979925407303L29.230769230769234,117.50451893442208L30.76923076923077,117.95198431548972L32.30769230769231,118.19512620568274L33.84615384615385,118.61617730723486L35.38461538461539,118.98437378307185L36.92307692307693,119.23341010179786L38.46153846153847,119.5397070505553L40,119.6700611876117L41.53846153846154,119.83423166804843L43.07692307692308,120.21578219201827L44.61538461538462,120.34917624874247L46.15384615384615,120.56550081405373L47.69230769230769,120.7675885823038L49.23076923076923,120.8712876981331L50.76923076923077,120.98787491106324L52.307692307692314,121.10390010186369L53.84615384615385,121.2072036539515L55.38461538461539,121.23964792246824L56.92307692307692,121.53187421047026L58.46153846153847,121.61129857930871L60,121.578181700574L61.53846153846154,121.77820749994783L63.07692307692307,121.81047616371264L64.61538461538461,122.08044593118959L66.15384615384615,122.04207633104588L67.6923076923077,122.18442052188847L69.23076923076923,122.26491522871787L70.76923076923077,122.45410952924024L72.3076923076923,122.47806926671831L73.84615384615385,122.60049200720256L75.38461538461539,122.63251039096049L76.92307692307693,122.82608890285096L78.46153846153847,122.89450143774351L80,122.89338968694209L81.53846153846153,123.06803007506659L83.07692307692308,123.09523187577722L84.61538461538461,123.1926299424635L86.15384615384616,123.15657983223596L87.6923076923077,123.25876327231525L89.23076923076924,123.29210511719188L90.76923076923077,123.49904413438506L92.3076923076923,123.5361337247822L93.84615384615384,123.6238359991047L95.38461538461539,123.55579897347423L96.92307692307692,123.82960661003987L98.46153846153847,123.83517816973229L100,123.85004753660823L101.53846153846153,123.95898207194273L103.07692307692307,124.11876773047777L104.61538461538463,124.23973826484549L106.15384615384616,124.29027418709462L107.6923076923077,124.37305487692355L109.23076923076923,124.57271301084096L110.76923076923077,124.64140802621841L112.3076923076923,124.76212647226119L113.84615384615384,124.98170576161807L115.38461538461537,125.13131021211544L116.92307692307693,125.3174050607615L118.46153846153847,125.56200304792985L120,125.68111225134797L121.53846153846153,125.95795109454126L123.07692307692308,126.19573345614803L124.61538461538461,126.42708580113118L126.15384615384615,126.58993535571629L127.69230769230768,126.68195261309545L129.23076923076923,127.00814043896065L130.76923076923077,127.10283701825472L132.3076923076923,127.36983967738018L133.84615384615384,127.43821963667868L135.3846153846154,127.71797652045883L136.92307692307693,127.81988531351091L138.46153846153845,127.93152123275729L140,128.00736023734012L141.53846153846155,128.26103661209342L143.07692307692307,128.3095421269536L144.6153846153846,128.35119042752518L146.15384615384613,128.55114965803094L147.6923076923077,128.66894288195505L149.23076923076923,128.78201922608744L150.76923076923077,129.01814805550708L152.3076923076923,129.20679649752046L153.84615384615387,129.1222276786963L155.3846153846154,129.4649470390545L156.92307692307693,129.44995475312072L158.46153846153845,129.53780848118993L160,129.48529015605646L161.53846153846155,129.66060007197987L163.07692307692307,129.85527033710645L164.6153846153846,129.89414290835458L166.15384615384616,130.07103401339717L167.6923076923077,130.11363604002526L169.23076923076923,130.17297997656797L170.76923076923077,130.20420378694928L172.30769230769232,130.12426721139087L173.84615384615384,130.346943396661L175.3846153846154,130.37447041521472L176.9230769230769,130.44904929896197L178.46153846153848,130.40493132753505L180,130.48681068337626L181.53846153846155,130.5097325808472L183.07692307692307,130.51693037980132L184.6153846153846,130.68185461064178L186.15384615384616,130.68436984386707L187.69230769230768,130.69034939010936L189.23076923076923,130.77072168493433L190.76923076923077,130.7736235153344L192.30769230769232,130.82602377980947L193.84615384615384,130.77715844329862L195.3846153846154,130.8008455981811L196.92307692307693,130.84048632946278L198.46153846153845,130.86851137793727L200,130.9021487418148L201.53846153846155,131.0177876723982L203.07692307692307,131.08581350081496L204.61538461538458,131.1843004491594L206.15384615384613,131.05450862397748L207.6923076923077,131.16519985099632L209.23076923076925,131.04400721689066L210.76923076923077,131.14748717182212L212.30769230769232,131.2357713571853L213.84615384615384,131.06790073215961L215.3846153846154,131.30830653115277L216.9230769230769,131.2712571066287L218.46153846153845,131.26897816028858L220.00000000000003,131.3912905131777L221.53846153846155,131.29756628639169L223.0769230769231,131.4115846529603L224.6153846153846,131.30000801756978L226.15384615384616,131.37991360078254L227.69230769230768,131.40391312125655L229.23076923076923,131.41501787532533L230.76923076923075,131.32377919327052L232.30769230769232,131.31989312694512L233.84615384615387,131.53384145763184L235.3846153846154,131.5552982605166L236.92307692307693,131.56170835977215L238.46153846153845,131.6510495626264L240,131.70891358620588L241.53846153846152,131.605944244398L243.07692307692307,131.6118878105448L244.61538461538464,131.75813421193098L246.15384615384616,131.70870803296566L247.6923076923077,131.8835079876913L249.23076923076923,131.80078305304048L250.76923076923077,131.73298497373855L252.3076923076923,131.94564759938254L253.84615384615384,131.89517628504998L255.38461538461536,131.85137408889L256.92307692307696,131.94621553023654L258.46153846153845,132.0041119534936L260,131.8583259772923L261.53846153846155,132.113192954825L263.0769230769231,131.995988306072L264.6153846153846,132.09941407872572L266.15384615384613,132.17077588455544L267.6923076923077,132.219408514599L269.2307692307692,132.25821413927605L270.7692307692308,132.2996352902717L272.3076923076923,132.3263908839888L273.84615384615387,132.3797882017162L275.38461538461536,132.39172705345683L276.9230769230769,132.3434908460412L278.46153846153845,132.44307010124126L280,132.47279290937715L281.53846153846155,132.36079347585067L283.0769230769231,132.52225038078095L284.61538461538464,132.4658095422718L286.15384615384613,132.50461756769155L287.6923076923077,132.60026062942214L289.2307692307692,132.57434743766981L290.7692307692308,132.63250151649117L292.30769230769226,132.65631097472377L293.84615384615387,132.53543550769487L295.3846153846154,132.6959490776062L296.9230769230769,132.73495495733286L298.46153846153845,132.60959283345275L300,132.7801754905118L301.53846153846155,132.78900722248687L303.0769230769231,132.80434441856212L304.6153846153846,132.75796596588205L306.15384615384613,132.85127551191385L307.69230769230774,132.87174033208026L309.2307692307692,132.7630861520043L310.7692307692308,132.8695017718322L312.3076923076923,132.9048379841778L313.84615384615387,133.0250823870301L315.38461538461536,132.98052108536163L316.9230769230769,132.95913657380473L318.46153846153845,132.99259632314917L320,132.966409292486L321.53846153846155,133.10800435849362L323.0769230769231,132.97505291799703L324.61538461538464,133.23327141503492L326.15384615384613,133.21700882580544L327.6923076923077,133.1364102040728L329.2307692307692,133.1110150656766L330.7692307692308,133.09992647005453L332.3076923076923,133.2788130061494L333.84615384615387,133.28548417323165L335.3846153846154,133.39525357716613L336.9230769230769,133.38725697249174L338.46153846153845,133.3207642814765L340,133.44643517500822L341.53846153846155,133.43661583753092L343.07692307692304,133.48979682972032L344.61538461538464,133.55221557948323L346.1538461538462,133.52164729601807L347.6923076923077,133.5023948094911L349.2307692307692,133.6025565008943L350.7692307692308,133.69330840392246L352.3076923076923,133.69062768502368L353.8461538461538,133.69741084881954L355.38461538461536,133.79702764666743L356.92307692307696,133.86517887314162L358.46153846153845,133.94254634363784L360,133.97727418276997L361.53846153846155,133.92568722968767L363.0769230769231,133.99293709339366L364.6153846153846,134.09354947507381L366.15384615384613,134.23288856736488L367.6923076923077,134.21899701158205L369.2307692307692,134.17889281279508L370.7692307692308,134.44344867020845L372.3076923076923,134.39265206042262L373.84615384615387,134.47511229250165L375.38461538461536,134.4801866966817L376.9230769230769,134.74180364153452L378.46153846153845,134.57310868220196L380,134.6953278239299L381.53846153846155,134.72050947861538L383.0769230769231,134.8185106413439" stroke="#4c78a8" stroke-width="2"/></g></g><path class="foreground" aria-hidden="true" d="" display="none"/></g></g><g class="mark-group role-legend" role="graphics-symbol" aria-roledescription="legend" aria-label="Symbol legend titled 'Typ' for stroke color with 2 values: Test, Train"><g transform="translate(418,0)"><path class="background" aria-hidden="true" d="M0,0h39v40h-39Z" pointer-events="none"/><g><g class="mark-group role-legend-entry"><g transform="translate(0,16)"><path class="background" aria-hidden="true" d="M0,0h0v0h0Z" pointer-events="none"/><g><g class="mark-group role-scope" role="graphics-object" aria-roledescription="group mark container"><g transform="translate(0,0)"><path class="background" aria-hidden="true" d="M0,0h38.412109375v11h-38.412109375Z" pointer-events="none" opacity="1"/><g><g class="mark-symbol role-legend-symbol" pointer-events="none"><path transform="translate(6,6)" d="M-5,0L5,0" stroke="#4c78a8" stroke-width="1.5" opacity="1"/></g><g class="mark-text role-legend-label" pointer-events="none"><text text-anchor="start" transform="translate(16,9)" font-family="sans-serif" font-size="10px" fill="#000" opacity="1">Test</text></g></g><path class="foreground" aria-hidden="true" d="" pointer-events="none" display="none"/></g><g transform="translate(0,13)"><path class="background" aria-hidden="true" d="M0,0h38.412109375v11h-38.412109375Z" pointer-events="none" opacity="1"/><g><g class="mark-symbol role-legend-symbol" pointer-events="none"><path transform="translate(6,6)" d="M-5,0L5,0" stroke="#f58518" stroke-width="1.5" opacity="1"/></g><g class="mark-text role-legend-label" pointer-events="none"><text text-anchor="start" transform="translate(16,9)" font-family="sans-serif" font-size="10px" fill="#000" opacity="1">Train</text></g></g><path class="foreground" aria-hidden="true" d="" pointer-events="none" display="none"/></g></g></g><path class="foreground" aria-hidden="true" d="" pointer-events="none" display="none"/></g></g><g class="mark-text role-legend-title" pointer-events="none"><text text-anchor="start" transform="translate(0,9)" font-family="sans-serif" font-size="11px" font-weight="bold" fill="#000" opacity="1">Typ</text></g></g><path class="foreground" aria-hidden="true" d="" pointer-events="none" display="none"/></g></g></g><path class="foreground" aria-hidden="true" d="" display="none"/></g></g></g></svg>