<svg xmlns="http://www.w3.org/2000/svg" xmlns:xlink="http://www.w3.org/1999/xlink" version="1.1" class="marks" width="509" height="347" viewBox="0 0 509 347"><rect width="509" height="347" fill="white"/><g fill="none" stroke-miterlimit="10" transform="translate(47,10)"><g class="mark-group role-frame root" role="graphics-object" aria-roledescription="group mark container"><g transform="translate(0,0)"><path class="background" aria-hidden="true" d="M0.5,0.5h400v300h-400Z" stroke="#ddd"/><g><g class="mark-group role-axis" aria-hidden="true"><g transform="translate(0.5,300.5)"><path class="background" aria-hidden="true" d="M0,0h0v0h0Z" pointer-events="none"/><g><g class="mark-rule role-axis-grid" pointer-events="none"><line transform="translate(0,-300)" x2="0" y2="300" stroke="#ddd" stroke-width="1" opacity="1"/><line transform="translate(40,-300)" x2="0" y2="300" stroke="#ddd" stroke-width="1" opacity="1"/><line transform="translate(80,-300)" x2="0" y2="300" stroke="#ddd" stroke-width="1" opacity="1"/><line transform="translate(120,-300)" x2="0" y2="300" stroke="#ddd" stroke-width="1" opacity="1"/><line transform="translate(160,-300)" x2="0" y2="300" stroke="#ddd" stroke-width="1" opacity="1"/><line transform="translate(200,-300)" x2="0" y2="300" stroke="#ddd" stroke-width="1" opacity="1"/><line transform="translate(240,-300)" x2="0" y2="300" stroke="#ddd" stroke-width="1" opacity="1"/><line transform="translate(280,-300)" x2="0" y2="300" stroke="#ddd" stroke-width="1" opacity="1"/><line transform="translate(320,-300)" x2="0" y2="300" stroke="#ddd" stroke-width="1" opacity="1"/><line transform="translate(360,-300)" x2="0" y2="300" stroke="#ddd" stroke-width="1" opacity="1"/><line transform="translate(400,-300)" x2="0" y2="300" stroke="#ddd" stroke-width="1" opacity="1"/></g></g><path class="foreground" aria-hidden="true" d="" pointer-events="none" display="none"/></g></g><g class="mark-group role-axis" aria-hidden="true"><g transform="translate(0.5,0.5)"><path class="background" aria-hidden="true" d="M0,0h0v0h0Z" pointer-events="none"/><g><g class="mark-rule role-axis-grid" pointer-events="none"><line transform="translate(0,300)" x2="400" y2="0" stroke="#ddd" stroke-width="1" opacity="1"/><line transform="translate(0,267)" x2="400" y2="0" stroke="#ddd" stroke-width="1" opacity="1"/><line transform="translate(0,233)" x2="400" y2="0" stroke="#ddd" stroke-width="1" opacity="1"/><line transform="translate(0,200)" x2="400" y2="0" stroke="#ddd" stroke-width="1" opacity="1"/><line transform="translate(0,167)" x2="400" y2="0" stroke="#ddd" stroke-width="1" opacity="1"/><line transform="translate(0,133)" x2="400" y2="0" stroke="#ddd" stroke-width="1" opacity="1"/><line transform="translate(0,100)" x2="400" y2="0" stroke="#ddd" stroke-width="1" opacity="1"/><line transform="translate(0,67)" x2="400" y2="0" stroke="#ddd" stroke-width="1" opacity="1"/><line transform="translate(0,33)" x2="400" y2="0" stroke="#ddd" stroke-width="1" opacity="1"/><line transform="translate(0,0)" x2="400" y2="0" stroke="#ddd" stroke-width="1" opacity="1"/></g></g><path class="foreground" aria-hidden="true" d="" pointer-events="none" display="none"/></g></g><g class="mark-group role-axis" role="graphics-symbol" aria-roledescription="axis" aria-label="X-axis titled 'Anzahl Epochen' for a linear scale with values from 0 to 200"><g transform="translate(0.5,300.5)"><path class="background" aria-hidden="true" d="M0,0h0v0h0Z" pointer-events="none"/><g><g class="mark-rule role-axis-tick" pointer-events="none"><line transform="translate(0,0)" x2="0" y2="5" stroke="#888" stroke-width="1" opacity="1"/><line transform="translate(40,0)" x2="0" y2="5" stroke="#888" stroke-width="1" opacity="1"/><line transform="translate(80,0)" x2="0" y2="5" stroke="#888" stroke-width="1" opacity="1"/><line transform="translate(120,0)" x2="0" y2="5" stroke="#888" stroke-width="1" opacity="1"/><line transform="translate(160,0)" x2="0" y2="5" stroke="#888" stroke-width="1" opacity="1"/><line transform="translate(200,0)" x2="0" y2="5" stroke="#888" stroke-width="1" opacity="1"/><line transform="translate(240,0)" x2="0" y2="5" stroke="#888" stroke-width="1" opacity="1"/><line transform="translate(280,0)" x2="0" y2="5" stroke="#888" stroke-width="1" opacity="1"/><line transform="translate(320,0)" x2="0" y2="5" stroke="#888" stroke-width="1" opacity="1"/><line transform="translate(360,0)" x2="0" y2="5" stroke="#888" stroke-width="1" opacity="1"/><line transform="translate(400,0)" x2="0" y2="5" stroke="#888" stroke-width="1" opacity="1"/></g><g class="mark-text role-axis-label" pointer-events="none"><text text-anchor="start" transform="translate(0,15)" font-family="sans-serif" font-size="10px" fill="#000" opacity="1">0</text><text text-anchor="middle" transform="translate(40,15)" font-family="sans-serif" font-size="10px" fill="#000" opacity="1">20</text><text text-anchor="middle" transform="translate(80,15)" font-family="sans-serif" font-size="10px" fill="#000" opacity="1">40</text><text text-anchor="middle" transform="translate(120,15)" font-family="sans-serif" font-size="10px" fill="#000" opacity="1">60</text><text text-anchor="middle" transform="translate(160,15)" font-family="sans-serif" font-size="10px" fill="#000" opacity="1">80</text><text text-anchor="middle" transform="translate(200,15)" font-family="sans-serif" font-size="10px" fill="#000" opacity="1">100</text><text text-anchor="middle" transform="translate(240,15)" font-family="sans-serif" font-size="10px" fill="#000" opacity="1">120</text><text text-anchor="middle" transform="translate(280,15)" font-family="sans-serif" font-size="10px" fill="#000" opacity="1">140</text><text text-anchor="middle" transform="translate(320,15)" font-family="sans-serif" font-size="10px" fill="#000" opacity="1">160</text><text text-anchor="middle" transform="translate(360,15)" font-family="sans-serif" font-size="10px" fill="#000" opacity="1">180</text><text text-anchor="end" transform="translate(400,15)" font-family="sans-serif" font-size="10px" fill="#000" opacity="1">200</text></g><g class="mark-rule role-axis-domain" pointer-events="none"><line transform="translate(0,0)" x2="400" y2="0" stroke="#888" stroke-width="1" opacity="1"/></g><g class="mark-text role-axis-title" pointer-events="none"><text text-anchor="middle" transform="translate(200,30)" font-family="sans-serif" font-size="11px" font-weight="bold" fill="#000" opacity="1">Anzahl Epochen</text></g></g><path class="foreground" aria-hidden="true" d="" pointer-events="none" display="none"/></g></g><g class="mark-group role-axis" role="graphics-symbol" aria-roledescription="axis" aria-label="Y-axis titled 'Mittlerer Fehler' for a linear scale with values from 0.00 to 0.09"><g transform="translate(0.5,0.5)"><path class="background" aria-hidden="true" d="M0,0h0v0h0Z" pointer-events="none"/><g><g class="mark-rule role-axis-tick" pointer-events="none"><line transform="translate(0,300)" x2="-5" y2="0" stroke="#888" stroke-width="1" opacity="1"/><line transform="translate(0,267)" x2="-5" y2="0" stroke="#888" stroke-width="1" opacity="1"/><line transform="translate(0,233)" x2="-5" y2="0" stroke="#888" stroke-width="1" opacity="1"/><line transform="translate(0,200)" x2="-5" y2="0" stroke="#888" stroke-width="1" opacity="1"/><line transform="translate(0,167)" x2="-5" y2="0" stroke="#888" stroke-width="1" opacity="1"/><line transform="translate(0,133)" x2="-5" y2="0" stroke="#888" stroke-width="1" opacity="1"/><line transform="translate(0,100)" x2="-5" y2="0" stroke="#888" stroke-width="1" opacity="1"/><line transform="translate(0,67)" x2="-5" y2="0" stroke="#888" stroke-width="1" opacity="1"/><line transform="translate(0,33)" x2="-5" y2="0" stroke="#888" stroke-width="1" opacity="1"/><line transform="translate(0,0)" x2="-5" y2="0" stroke="#888" stroke-width="1" opacity="1"/></g><g class="mark-text role-axis-label" pointer-events="none"><text text-anchor="end" transform="translate(-7,303)" font-family="sans-serif" font-size="10px" fill="#000" opacity="1">0.00</text><text text-anchor="end" transform="translate(-7,269.66666666666663)" font-family="sans-serif" font-size="10px" fill="#000" opacity="1">0.01</text><text text-anchor="end" transform="translate(-7,236.33333333333334)" font-family="sans-serif" font-size="10px" fill="#000" opacity="1">0.02</text><text text-anchor="end" transform="translate(-7,203.00000000000003)" font-family="sans-serif" font-size="10px" fill="#000" opacity="1">0.03</text><text text-anchor="end" transform="translate(-7,169.66666666666669)" font-family="sans-serif" font-size="10px" fill="#000" opacity="1">0.04</text><text text-anchor="end" transform="translate(-7,136.33333333333331)" font-family="sans-serif" font-size="10px" fill="#000" opacity="1">0.05</text><text text-anchor="end" transform="translate(-7,103.00000000000001)" font-family="sans-serif" font-size="10px" fill="#000" opacity="1">0.06</text><text text-anchor="end" transform="translate(-7,69.66666666666663)" font-family="sans-serif" font-size="10px" fill="#000" opacity="1">0.07</text><text text-anchor="end" transform="translate(-7,36.333333333333314)" font-family="sans-serif" font-size="10px" fill="#000" opacity="1">0.08</text><text text-anchor="end" transform="translate(-7,3)" font-family="sans-serif" font-size="10px" fill="#000" opacity="1">0.09</text></g><g class="mark-rule role-axis-domain" pointer-events="none"><line transform="translate(0,300)" x2="0" y2="-300" stroke="#888" stroke-width="1" opacity="1"/></g><g class="mark-text role-axis-title" pointer-events="none"><text text-anchor="middle" transform="translate(-30.462890625,150) rotate(-90) translate(0,-2)" font-family="sans-serif" font-size="11px" font-weight="bold" fill="#000" opacity="1">Mittlerer Fehler</text></g></g><path class="foreground" aria-hidden="true" d="" pointer-events="none" display="none"/></g></g><g class="mark-group role-scope pathgroup" role="graphics-object" aria-roledescription="group mark container"><g transform="translate(0,0)"><path class="background" aria-hidden="true" d="M0,0h400v300h-400Z"/><g><g class="mark-line role-mark marks" role="graphics-object" aria-roledescription="line mark container"><path aria-label="Typ: Train; Anzahl Epochen: 0; Mittlerer Fehler: 0.0873000181534" role="graphics-symbol" aria-roledescription="line mark" d="M0,8.999939488642116L2,9.453389725901829L4,9.631921441266L6,10.009453648870625L8,10.62299089901375L10,10.750516616936878L12,11.453311822631107L14.000000000000002,11.599184030836284L16,12.379113065473945L18,13.027618373885275L20,13.445816076163064L22,14.122150431979763L24,14.787357458562568L26,15.617197481068656L28.000000000000004,16.515809749111977L30,17.582137973019552L32,18.65955740213392L34,19.95877610011536L36,21.4841955538952L38,23.57995356574203L40,25.709222257137288L42,28.416619878826676L44,31.81713146693774L46,36.32746009212548L48,41.34107882326297L50,47.083373367786386L52,52.861810001459986L54,57.67311837637064L56.00000000000001,61.219767458511086L57.99999999999999,64.04866260109526L60,66.22289554639296L62,67.59551826751591L64,69.42004184379721L66,70.76883004470305L68,72.47913283380596L70,74.09902903618232L72,76.11289952288973L74,77.98512544144283L76,80.26451486529724L78,82.35353010170388L80,83.97707313750728L82,85.31111652652423L84,86.5760924689697L86,87.21621022983031L88,87.83716532317072L90,88.33188161705479L92,88.85943634491976L94,89.18670704870513L96,89.77524872982141L98,89.94857237646073L100,90.35591706633568L102,90.90193568757084L104,90.9649196221973L106,91.06464395017333L108,91.44331124244316L110.00000000000001,91.67166194229415L112.00000000000001,92.14647728385346L113.99999999999999,92.18328992525736L115.99999999999999,92.5297086211768L118,92.81331948710209L120,92.8795094291369L122,93.07799120292519L124,93.26739173495407L126,93.5670902105895L128,93.61041646563642L130,93.92328440691486L132,94.22053717302555L134,94.1808526714643L136,94.49931645032133L138,94.56242794791856L140,94.9318638579412L142,95.1729635171818L144,95.2756212290489L146,95.59029650056L148,95.76043784618375L150,95.74827759554891L152,96.0914840752428L154,96.11409602291656L156,96.69150924592309L158,96.74280480001912L160,96.82539730812563L162,97.09296459049888L164,97.21781938816562L166,97.33593479701966L168,97.5623376215949L170,97.54340637362365L172,98.01205692417695L174,98.09879635771115L176,98.14508252523163L178,98.51167310367931L180,98.5361951092879L182,98.67579076777805L184,98.89738909674413L186,99.14251094063123L188,99.26953317992613L190,99.42278146292223L192,99.63065717707981L194,99.77915063500403L196,99.80630630796603L198,99.86026770237719L200,100.02746550422725L202,100.00497434626924L204,100.22166883855154L206,100.43030541503066L208,100.75820659597714L210,100.740239972418L212,100.74620213020931L214,100.92234740203077L216,100.81619356166233L218.00000000000003,101.108833741058L220.00000000000003,101.40824830441764L222.00000000000003,101.31211605938998L224.00000000000003,101.4078452957399L225.99999999999997,101.70330822919354L227.99999999999997,101.86688798395068L229.99999999999997,102.06492441621691L231.99999999999997,102.06394624529463L234,102.06920567787054L236,102.11863802237943L238,102.29742204149562L240,102.27521874687888L242,102.41487254247521L244,102.47902317029059L246,102.8669636132139L248,102.87054327852799L250,102.79311932849161L252,102.98171666535461L254,102.80678041956641L256,103.29173758174434L258,103.30351401459086L260,103.27265449997152L262,103.4164360301061L264,103.68293991143054L266,103.49009687250312L268,103.60667475245216L270,103.95473539829253L272,103.96688774679646L274,103.91911484978415L276,104.06073288935603L278,104.20839718796988L280,104.41158750292028L282,104.48666621338235L284,104.65644744761063L286,104.70389748613039L288,104.69324710694225L290,104.9007604519526L292,104.8289797522805L294,105.03668613506086L296,105.04740255348608L298,105.10524163643518L300,105.1806144190557L302,105.21922253749587L304,105.49088651032156L306,105.4650104181333L308,105.75031346895477L310,105.70680828708589L312,105.69693965442252L314,105.86372315883636L316,106.01567605679686L318,105.92936446720903L320,106.02378364313732L322,106.2211890338045L324,106.300847593582L326,106.60984179738794L328,106.4533592850873L330,106.54604168552339L332,106.78708207878198L334,106.5478303893046L336,106.8167060387857L338,106.97891759601507L340,106.9195466285402L342,107.16309086842969L344,107.34547825925277L346,107.29463764212348L348,107.44770078948048L350,107.60219930247827L352,107.4821653691205L354,107.71048784707533L356,107.80196122147821L358,107.84035146687971L360,107.97914505907984L362,107.94875741456495L364,108.24318008892463L366,108.28537464593397L368,108.32070845997694L370,108.45128327156556L372,108.52588785417151L374,108.51273024172491L376,108.73373929749836L378,108.90952897342768L380,108.78766343900652L382,108.96003487886804L384,108.92274754517004L386,109.2445307834582L388,109.21654030680656L390,109.04730939955421L392,109.40912709091648L394,109.25348728443635L396,109.59307797478907L398,109.8367029293017" stroke="#f58518" stroke-width="2"/></g></g><path class="foreground" aria-hidden="true" d="" display="none"/></g><g transform="translate(0,0)"><path class="background" aria-hidden="true" d="M0,0h400v300h-400Z"/><g><g class="mark-line role-mark marks" role="graphics-object" aria-roledescription="line mark container"><path aria-label="Typ: Test; Anzahl Epochen: 0; Mittlerer Fehler: 0.085759793967" role="graphics-symbol" aria-roledescription="line mark" d="M0,14.134020109971356L2,16.965066889921832L4,13.876073559125269L6,18.368651966253914L8,14.654167493184367L10,14.58969016869861L12,16.83172136545179L14.000000000000002,19.361123939355217L16,15.897304316361737L18,19.582930207252513L20,19.552231331666313L22,20.70607542991634L24,19.9469432234764L26,21.100608507792128L28.000000000000004,21.489906311035146L30,24.843266109625482L32,22.449488937854788L34,26.496341327826155L36,25.582319001356723L38,29.208752512931802L40,28.657943507035554L42,35.019562145074225L44,40.712823967138945L46,44.22692010800042L48,49.984053273995734L50,53.063261508941636L52,60.18201063076655L54,61.65377224485079L56.00000000000001,65.91443891326585L57.99999999999999,71.03246872623757L60,72.61355395118395L62,69.6508690714836L64,68.97608364621796L66,74.61538339654605L68,76.12013618151347L70,77.50110750397046L72,81.05658665299416L74,83.9589901268482L76,85.75648864110313L78,88.97671898206076L80,85.97917531927425L82,87.75948410232864L84,89.48917612433435L86,89.00038947661719L88,90.14114414652185L90,91.3162671029568L92,90.74443752566972L94,90.48979779084524L96,92.52461468180019L98,92.19003766775133L100,92.49294474720952L102,92.08407675226529L104,94.79576523105304L106,94.99699299534163L108,92.07701236009598L110.00000000000001,94.23059771458307L112.00000000000001,92.45823125044502L113.99999999999999,96.65664210915567L115.99999999999999,92.77271032333374L118,92.08613807956377L120,93.63533854484557L122,95.7999420662721L124,97.2665714720885L126,96.55360182126364L128,97.37253859639166L130,98.86739949385324L132,94.60868984460829L134,94.56769799192745L136,95.88235914707182L138,95.17851645747821L140,99.81263851126035L142,96.97646324833235L144,98.52459083000818L146,97.99209907650948L148,97.65384892622627L150,98.49467550714809L152,100.16694342096645L154,100.12589941422144L156,101.51301001509032L158,98.39496811230977L160,98.33659529685974L162,99.4151140252749L164,99.23108095924059L166,100.43732499082883L168,101.02209746837615L170,100.78120405475299L172,100.92854922016461L174,103.71226370334624L176,102.64569943149884L178,100.32744010289508L180,100.96535633007684L182,101.29693945248921L184,101.17120469609895L186,102.42338031530377L188,101.57502988974255L190,102.47999479373296L192,101.40639220674834L194,100.42663092414537L196,101.24402542908987L198,102.88084472219148L200,102.39479864637057L202,100.61626434326173L204,101.98284859458605L206,101.3552539050579L208,104.30740490555763L210,101.33617172638574L212,104.63593080639839L214,102.20310141642888L216,101.96809396147728L218.00000000000003,103.38354781270026L220.00000000000003,104.05357480049132L222.00000000000003,103.08910210927327L224.00000000000003,104.0634406109651L225.99999999999997,103.75053857763609L227.99999999999997,105.29348428050677L229.99999999999997,103.25374628106752L231.99999999999997,103.74138802289961L234,102.86097526550292L236,102.77549599607785L238,103.93194034695625L240,103.03596332669255L242,101.72436808546382L244,106.35018025835352L246,104.25588165720302L248,104.1567951440811L250,102.96173195044202L252,102.59812374909718L254,105.26607731978098L256,103.0967538555463L258,105.80229808886844L260,104.66418837507563L262,102.03825111190477L264,104.33688933650652L266,107.05349644025166L268,104.93053048849107L270,104.75373441974322L272,106.7194844285647L274,102.2058680653572L276,107.16187755266823L278,105.75026820103326L280,104.87858628233275L282,106.87216172615686L284,105.56234717369077L286,106.36858567595483L288,104.59962536891302L290,107.43340278665224L292,106.23970677455263L294,104.92764214674632L296,105.83237856626512L298,105.58723583817483L300,108.35945904254912L302,108.72029935320218L304,105.72345728675526L306,107.04632773995398L308,108.34785973032314L310,108.323306341966L312,106.83115124702454L314,108.12635521094002L316,106.7334828277429L318,107.782677312692L320,108.23333933949469L322,106.15101009607315L324,108.05765961607297L326,108.75488991538683L328,107.78621012965837L330,107.87704015771547L332,110.00614414612451L334,104.07500391205151L336,108.5633727411429L338,108.47321699062982L340,106.67633190751076L342,109.16225537657736L344,109.0258153776328L346,111.84235215187071L348,106.68406685193379L350,108.395487566789L352,109.40426141023636L354,109.81750041246414L356,106.5991327166557L358,111.7426224052906L360,111.12840150793394L362,107.98609430591264L364,109.2434915403525L366,108.95516524712244L368,107.50043441851935L370,109.59005778034526L372,111.10592434803647L374,109.19413268566132L376,108.90331914027533L378,109.00361016392705L380,111.6840533912182L382,108.86967107653616L384,110.29882902900377L386,108.23333188891411L388,112.21921990315118L390,109.28763995567955L392,112.79743586977322L394,110.80060824751854L396,109.76298451423645L398,109.52859918276468" stroke="#4c78a8" stroke-width="2"/></g></g><path class="foreground" aria-hidden="true" d="" display="none"/></g></g><g class="mark-group role-legend" role="graphics-symbol" aria-roledescription="legend" aria-label="Symbol legend titled 'Typ' for stroke color with 2 values: Test, Train"><g transform="translate(418,0)"><path class="background" aria-hidden="true" d="M0,0h39v40h-39Z" pointer-events="none"/><g><g class="mark-group role-legend-entry"><g transform="translate(0,16)"><path class="background" aria-hidden="true" d="M0,0h0v0h0Z" pointer-events="none"/><g><g class="mark-group role-scope" role="graphics-object" aria-roledescription="group mark container"><g transform="translate(0,0)"><path class="background" aria-hidden="true" d="M0,0h38.412109375v11h-38.412109375Z" pointer-events="none" opacity="1"/><g><g class="mark-symbol role-legend-symbol" pointer-events="none"><path transform="translate(6,6)" d="M-5,0L5,0" stroke="#4c78a8" stroke-width="1.5" opacity="1"/></g><g class="mark-text role-legend-label" pointer-events="none"><text text-anchor="start" transform="translate(16,9)" font-family="sans-serif" font-size="10px" fill="#000" opacity="1">Test</text></g></g><path class="foreground" aria-hidden="true" d="" pointer-events="none" display="none"/></g><g transform="translate(0,13)"><path class="background" aria-hidden="true" d="M0,0h38.412109375v11h-38.412109375Z" pointer-events="none" opacity="1"/><g><g class="mark-symbol role-legend-symbol" pointer-events="none"><path transform="translate(6,6)" d="M-5,0L5,0" stroke="#f58518" stroke-width="1.5" opacity="1"/></g><g class="mark-text role-legend-label" pointer-events="none"><text text-anchor="start" transform="translate(16,9)" font-family="sans-serif" font-size="10px" fill="#000" opacity="1">Train</text></g></g><path class="foreground" aria-hidden="true" d="" pointer-events="none" display="none"/></g></g></g><path class="foreground" aria-hidden="true" d="" pointer-events="none" display="none"/></g></g><g class="mark-text role-legend-title" pointer-events="none"><text text-anchor="start" transform="translate(0,9)" font-family="sans-serif" font-size="11px" font-weight="bold" fill="#000" opacity="1">Typ</text></g></g><path class="foreground" aria-hidden="true" d="" pointer-events="none" display="none"/></g></g></g><path class="foreground" aria-hidden="true" d="" display="none"/></g></g></g></svg>